<?xml version="1.0" encoding="UTF-8" standalone="no"?>
<svg
   xmlns:dc="http://purl.org/dc/elements/1.1/"
   xmlns:cc="http://creativecommons.org/ns#"
   xmlns:rdf="http://www.w3.org/1999/02/22-rdf-syntax-ns#"
   xmlns:svg="http://www.w3.org/2000/svg"
   xmlns="http://www.w3.org/2000/svg"
   xmlns:sodipodi="http://sodipodi.sourceforge.net/DTD/sodipodi-0.dtd"
   xmlns:inkscape="http://www.inkscape.org/namespaces/inkscape"
   inkscape:version="1.0 (4035a4fb49, 2020-05-01)"
   sodipodi:docname="pointinfo.svg"
   id="svg873"
   viewBox="0 0 64 64"
   version="1.1">
  <defs
     id="defs877">
    <filter
       height="1.4400832"
       y="-0.22004161"
       width="1.6483928"
       x="-0.32419639"
       id="filter1873"
       style="color-interpolation-filters:sRGB"
       inkscape:collect="always">
      <feGaussianBlur
         id="feGaussianBlur1875"
         stdDeviation="5.2241547"
         inkscape:collect="always" />
    </filter>
  </defs>
  <sodipodi:namedview
     inkscape:current-layer="layer2"
     inkscape:window-maximized="1"
     inkscape:window-y="0"
     inkscape:window-x="50"
     inkscape:cy="32"
     inkscape:cx="26.37072"
     inkscape:zoom="13.234375"
     showgrid="false"
     id="namedview875"
     inkscape:window-height="1043"
     inkscape:window-width="1870"
     inkscape:pageshadow="2"
     inkscape:pageopacity="0"
     guidetolerance="10"
     gridtolerance="10"
     objecttolerance="10"
     borderopacity="1"
     bordercolor="#666666"
     pagecolor="#ffffff" />
  <metadata
     id="metadata865">
    <rdf:RDF>
      <cc:Work
         rdf:about="">
        <dc:format>image/svg+xml</dc:format>
        <dc:type
           rdf:resource="http://purl.org/dc/dcmitype/StillImage" />
        <dc:title></dc:title>
      </cc:Work>
    </rdf:RDF>
  </metadata>
  <g
     style="display:inline;mix-blend-mode:normal;filter:url(#filter1873)"
     inkscape:label="Layer 1"
     id="layer2"
     inkscape:groupmode="layer">
    <g
       style="stroke:none;stroke-width:1.99937;stroke-miterlimit:4;stroke-dasharray:none;stroke-opacity:1;fill:#222222;fill-opacity:1"
       id="g871"
       aria-label="?"
       word-spacing="0"
       stroke-width="2"
       letter-spacing="0"
       font-weight="800"
       font-size="74.667px"
       font-family="'Open Sans'">
      <path
         id="path867"
         style="font-variant-ligatures:normal;font-variant-position:normal;font-variant-caps:normal;font-variant-numeric:normal;font-variant-alternates:normal;font-variant-east-asian:normal;font-feature-settings:normal;font-variation-settings:normal;text-indent:0;text-decoration:none;text-decoration-line:none;text-decoration-style:solid;text-decoration-color:#000000;text-transform:none;text-orientation:mixed;white-space:normal;shape-padding:0;shape-margin:0;inline-size:0;isolation:auto;mix-blend-mode:normal;stroke:none;stroke-width:1.99937;stroke-miterlimit:4;stroke-dasharray:none;stroke-opacity:1;fill:#222222;fill-opacity:1"
         overflow="visible"
         d="M 24.58,39.766 V 36.63 c 0,-2.382 0.487,-4.387 1.46,-6.016 0.971,-1.652 2.697,-3.256 5.176,-4.812 1.969,-1.24 3.379,-2.358 4.23,-3.354 0.874,-0.997 1.312,-2.14 1.312,-3.427 0,-1.021 -0.462,-1.823 -1.386,-2.407 -0.923,-0.607 -2.126,-0.911 -3.609,-0.911 -3.67,0 -7.96,1.3 -12.87,3.901 L 13.826,9.687 C 19.878,6.236 26.197,4.51 32.784,4.51 c 5.42,0 9.674,1.191 12.76,3.573 3.087,2.382 4.63,5.627 4.63,9.735 0,2.94 -0.692,5.493 -2.078,7.656 -1.36,2.139 -3.548,4.168 -6.562,6.088 -2.552,1.653 -4.156,2.868 -4.813,3.646 -0.631,0.754 -0.947,1.653 -0.947,2.698 v 1.86 z m -1.567,12.76 c 0,-2.236 0.644,-3.962 1.932,-5.177 1.313,-1.215 3.233,-1.823 5.76,-1.823 2.431,0 4.29,0.62 5.579,1.86 1.312,1.215 1.969,2.928 1.969,5.14 0,2.212 -0.68,3.925 -2.042,5.14 -1.337,1.216 -3.172,1.824 -5.505,1.824 -2.406,0 -4.29,-0.596 -5.651,-1.787 -1.361,-1.215 -2.042,-2.94 -2.042,-5.177 z" />
      <path
         id="path869"
         style="font-variant-ligatures:normal;font-variant-position:normal;font-variant-caps:normal;font-variant-numeric:normal;font-variant-alternates:normal;font-variant-east-asian:normal;font-feature-settings:normal;font-variation-settings:normal;text-indent:0;text-decoration:none;text-decoration-line:none;text-decoration-style:solid;text-decoration-color:#000000;text-transform:none;text-orientation:mixed;white-space:normal;shape-padding:0;shape-margin:0;inline-size:0;isolation:auto;mix-blend-mode:normal;stroke:none;stroke-width:1.99937;stroke-miterlimit:4;stroke-dasharray:none;stroke-opacity:1;fill:#222222;fill-opacity:1"
         overflow="visible"
         fill="#dddddd"
         d="m 32.783,3.51 c -6.761,0 -13.265,1.78 -19.453,5.308 l -0.83,0.473 5.965,11.672 0.896,-0.475 c 4.819,-2.552 8.969,-3.785 12.403,-3.785 1.346,0 2.34,0.274 3.058,0.746 l 0.008,0.006 0.008,0.004 c 0.7,0.443 0.92,0.843 0.92,1.562 0,1.062 -0.33,1.93 -1.065,2.766 l -0.004,0.006 -0.003,0.006 c -0.737,0.862 -2.08,1.946 -4.002,3.156 -2.564,1.609 -4.415,3.298 -5.506,5.152 -1.08,1.812 -1.598,4.008 -1.598,6.524 v 4.135 h 13.193 v -2.86 c 0,-0.842 0.229,-1.474 0.713,-2.052 l 0.002,-0.002 c 0.47,-0.557 2.066,-1.815 4.59,-3.45 l -0.008,0.004 c 3.099,-1.974 5.402,-4.09 6.87,-6.396 v 0.004 c 1.496,-2.337 2.234,-5.098 2.234,-8.196 0,-4.358 -1.71,-7.975 -5.018,-10.527 C 42.846,4.736 38.35,3.51 32.783,3.51 Z m 0,2 c 5.274,0 9.288,1.156 12.15,3.365 2.867,2.212 4.24,5.086 4.24,8.943 0,2.784 -0.645,5.126 -1.92,7.116 v 0.002 l -10e-4,0.002 c -1.254,1.97 -3.326,3.914 -6.256,5.78 l -0.002,0.003 -0.004,0.002 c -2.58,1.67 -4.19,2.84 -5.033,3.84 v 10e-4 l -0.002,0.002 c -0.778,0.928 -1.182,2.094 -1.182,3.34 v 0.86 H 25.58 V 36.63 c 0,-2.246 0.456,-4.06 1.318,-5.504 V 31.124 L 26.9,31.12 c 0.854,-1.45 2.454,-2.97 4.848,-4.473 h 0.002 c 2.015,-1.268 3.486,-2.419 4.451,-3.548 1.012,-1.156 1.557,-2.567 1.557,-4.079 0,-1.32 -0.704,-2.521 -1.846,-3.246 -1.127,-0.738 -2.533,-1.072 -4.148,-1.072 -3.649,0 -7.802,1.306 -12.403,3.621 l -4.183,-8.191 c 5.653,-3.058 11.5,-4.623 17.605,-4.623 z m -2.078,39.015 c -2.688,0 -4.892,0.658 -6.44,2.09 l -0.003,0.004 -0.002,0.002 c -1.511,1.425 -2.246,3.476 -2.246,5.904 0,2.44 0.786,4.506 2.375,5.924 l 0.004,0.004 0.003,0.002 c 1.581,1.383 3.738,2.035 6.31,2.035 2.504,0 4.622,-0.674 6.173,-2.082 1.584,-1.416 2.373,-3.467 2.373,-5.883 0,-2.406 -0.754,-4.446 -2.285,-5.867 -1.514,-1.452 -3.666,-2.133 -6.262,-2.133 z m 0,2 c 2.26,0 3.823,0.559 4.885,1.58 l 0.008,0.008 0.007,0.006 c 1.091,1.01 1.647,2.392 1.647,4.406 0,2.007 -0.57,3.38 -1.707,4.395 l -0.004,0.004 -0.002,0.002 c -1.122,1.02 -2.674,1.564 -4.834,1.564 -2.238,0 -3.845,-0.54 -4.986,-1.535 -1.133,-1.012 -1.705,-2.398 -1.705,-4.43 0,-2.042 0.551,-3.44 1.615,-4.445 1.078,-0.996 2.71,-1.555 5.076,-1.555 z" />
    </g>
  </g>
  <g
     style="display:inline"
     inkscape:groupmode="layer"
     id="g1471"
     inkscape:label="Layer 1 copy">
    <g
       font-family="'Open Sans'"
       font-size="74.667px"
       font-weight="800"
       letter-spacing="0"
       stroke-width="2"
       word-spacing="0"
       aria-label="?"
       id="g1469"
       style="stroke:none;stroke-width:1.99937;stroke-miterlimit:4;stroke-dasharray:none;stroke-opacity:1">
      <path
         d="M 24.58,39.766 V 36.63 c 0,-2.382 0.487,-4.387 1.46,-6.016 0.971,-1.652 2.697,-3.256 5.176,-4.812 1.969,-1.24 3.379,-2.358 4.23,-3.354 0.874,-0.997 1.312,-2.14 1.312,-3.427 0,-1.021 -0.462,-1.823 -1.386,-2.407 -0.923,-0.607 -2.126,-0.911 -3.609,-0.911 -3.67,0 -7.96,1.3 -12.87,3.901 L 13.826,9.687 C 19.878,6.236 26.197,4.51 32.784,4.51 c 5.42,0 9.674,1.191 12.76,3.573 3.087,2.382 4.63,5.627 4.63,9.735 0,2.94 -0.692,5.493 -2.078,7.656 -1.36,2.139 -3.548,4.168 -6.562,6.088 -2.552,1.653 -4.156,2.868 -4.813,3.646 -0.631,0.754 -0.947,1.653 -0.947,2.698 v 1.86 z m -1.567,12.76 c 0,-2.236 0.644,-3.962 1.932,-5.177 1.313,-1.215 3.233,-1.823 5.76,-1.823 2.431,0 4.29,0.62 5.579,1.86 1.312,1.215 1.969,2.928 1.969,5.14 0,2.212 -0.68,3.925 -2.042,5.14 -1.337,1.216 -3.172,1.824 -5.505,1.824 -2.406,0 -4.29,-0.596 -5.651,-1.787 -1.361,-1.215 -2.042,-2.94 -2.042,-5.177 z"
         overflow="visible"
         style="font-variant-ligatures:normal;font-variant-position:normal;font-variant-caps:normal;font-variant-numeric:normal;font-variant-alternates:normal;font-variant-east-asian:normal;font-feature-settings:normal;font-variation-settings:normal;text-indent:0;text-decoration:none;text-decoration-line:none;text-decoration-style:solid;text-decoration-color:#000000;text-transform:none;text-orientation:mixed;white-space:normal;shape-padding:0;shape-margin:0;inline-size:0;isolation:auto;mix-blend-mode:normal;stroke:none;stroke-width:1.99937;stroke-miterlimit:4;stroke-dasharray:none;stroke-opacity:1"
         id="path1465" />
      <path
         d="m 32.783,3.51 c -6.761,0 -13.265,1.78 -19.453,5.308 l -0.83,0.473 5.965,11.672 0.896,-0.475 c 4.819,-2.552 8.969,-3.785 12.403,-3.785 1.346,0 2.34,0.274 3.058,0.746 l 0.008,0.006 0.008,0.004 c 0.7,0.443 0.92,0.843 0.92,1.562 0,1.062 -0.33,1.93 -1.065,2.766 l -0.004,0.006 -0.003,0.006 c -0.737,0.862 -2.08,1.946 -4.002,3.156 -2.564,1.609 -4.415,3.298 -5.506,5.152 -1.08,1.812 -1.598,4.008 -1.598,6.524 v 4.135 h 13.193 v -2.86 c 0,-0.842 0.229,-1.474 0.713,-2.052 l 0.002,-0.002 c 0.47,-0.557 2.066,-1.815 4.59,-3.45 l -0.008,0.004 c 3.099,-1.974 5.402,-4.09 6.87,-6.396 v 0.004 c 1.496,-2.337 2.234,-5.098 2.234,-8.196 0,-4.358 -1.71,-7.975 -5.018,-10.527 C 42.846,4.736 38.35,3.51 32.783,3.51 Z m 0,2 c 5.274,0 9.288,1.156 12.15,3.365 2.867,2.212 4.24,5.086 4.24,8.943 0,2.784 -0.645,5.126 -1.92,7.116 v 0.002 l -10e-4,0.002 c -1.254,1.97 -3.326,3.914 -6.256,5.78 l -0.002,0.003 -0.004,0.002 c -2.58,1.67 -4.19,2.84 -5.033,3.84 v 10e-4 l -0.002,0.002 c -0.778,0.928 -1.182,2.094 -1.182,3.34 v 0.86 H 25.58 V 36.63 c 0,-2.246 0.456,-4.06 1.318,-5.504 V 31.124 L 26.9,31.12 c 0.854,-1.45 2.454,-2.97 4.848,-4.473 h 0.002 c 2.015,-1.268 3.486,-2.419 4.451,-3.548 1.012,-1.156 1.557,-2.567 1.557,-4.079 0,-1.32 -0.704,-2.521 -1.846,-3.246 -1.127,-0.738 -2.533,-1.072 -4.148,-1.072 -3.649,0 -7.802,1.306 -12.403,3.621 l -4.183,-8.191 c 5.653,-3.058 11.5,-4.623 17.605,-4.623 z m -2.078,39.015 c -2.688,0 -4.892,0.658 -6.44,2.09 l -0.003,0.004 -0.002,0.002 c -1.511,1.425 -2.246,3.476 -2.246,5.904 0,2.44 0.786,4.506 2.375,5.924 l 0.004,0.004 0.003,0.002 c 1.581,1.383 3.738,2.035 6.31,2.035 2.504,0 4.622,-0.674 6.173,-2.082 1.584,-1.416 2.373,-3.467 2.373,-5.883 0,-2.406 -0.754,-4.446 -2.285,-5.867 -1.514,-1.452 -3.666,-2.133 -6.262,-2.133 z m 0,2 c 2.26,0 3.823,0.559 4.885,1.58 l 0.008,0.008 0.007,0.006 c 1.091,1.01 1.647,2.392 1.647,4.406 0,2.007 -0.57,3.38 -1.707,4.395 l -0.004,0.004 -0.002,0.002 c -1.122,1.02 -2.674,1.564 -4.834,1.564 -2.238,0 -3.845,-0.54 -4.986,-1.535 -1.133,-1.012 -1.705,-2.398 -1.705,-4.43 0,-2.042 0.551,-3.44 1.615,-4.445 1.078,-0.996 2.71,-1.555 5.076,-1.555 z"
         fill="#dddddd"
         overflow="visible"
         style="font-variant-ligatures:normal;font-variant-position:normal;font-variant-caps:normal;font-variant-numeric:normal;font-variant-alternates:normal;font-variant-east-asian:normal;font-feature-settings:normal;font-variation-settings:normal;text-indent:0;text-decoration:none;text-decoration-line:none;text-decoration-style:solid;text-decoration-color:#000000;text-transform:none;text-orientation:mixed;white-space:normal;shape-padding:0;shape-margin:0;inline-size:0;isolation:auto;mix-blend-mode:normal;stroke:none;stroke-width:1.99937;stroke-miterlimit:4;stroke-dasharray:none;stroke-opacity:1"
         id="path1467" />
    </g>
  </g>
</svg>
