<?xml version="1.0" encoding="UTF-8" standalone="no"?>
<svg
   xmlns:dc="http://purl.org/dc/elements/1.1/"
   xmlns:cc="http://creativecommons.org/ns#"
   xmlns:rdf="http://www.w3.org/1999/02/22-rdf-syntax-ns#"
   xmlns:svg="http://www.w3.org/2000/svg"
   xmlns="http://www.w3.org/2000/svg"
   id="svg4186"
   version="1.1"
   height="24"
   width="24">
  <g
     transform="matrix(0.46001164,0,0,0.46001164,-6.4115284,-0.48137305)"
     style="fill:#000000">
    <path
       d="m 34.897461,22.294922 0.244141,0.952148 q 0.146484,0.53711 0.390625,0.976563 0.268554,0.415039 0.708007,0.708008 0.463868,0.292968 1.196289,0.463867 0.732422,0.146484 1.855469,0.146484 l 1.245117,0 q 2.001953,0 2.978516,-0.610351 1.000977,-0.634766 1.269531,-1.684571 l 0.268555,-0.952148 2.099609,0 0,9.008789 -2.099609,0 -0.268555,-0.952149 q -0.268554,-1.049804 -1.269531,-1.660156 -0.976563,-0.634765 -2.978516,-0.634765 l -1.245117,0 q -1.123047,0 -1.855469,0.170898 -0.732421,0.146484 -1.196289,0.439453 -0.439453,0.292969 -0.708007,0.732422 -0.244141,0.415039 -0.390625,0.952148 l -0.244141,0.952149 -2.099609,0 0,-9.008789 2.099609,0 z m 20.800781,4.80957 q 0,4.125977 -1.02539,7.519531 -1.025391,3.393555 -3.027344,5.810547 -2.001953,2.416992 -4.931641,3.735352 Q 43.78418,45.488281 40,45.488281 q -3.979492,0 -6.933594,-1.318359 -2.954101,-1.31836 -4.907226,-3.735352 -1.953125,-2.416992 -2.929688,-5.810547 -0.976562,-3.417968 -0.976562,-7.568359 0,-4.150391 0.976562,-7.519531 0.976563,-3.393555 2.929688,-5.786133 1.953125,-2.392578 4.93164,-3.686523 2.978516,-1.3183598 6.958008,-1.3183598 3.78418,0 6.689453,1.3183598 2.905274,1.293945 4.907227,3.710937 2.001953,2.392578 3.027344,5.786133 1.02539,3.36914 1.02539,7.543945 z m -25.90332,0 q 0,3.710938 0.537109,6.640625 0.561524,2.905274 1.782227,4.931641 1.220703,2.001953 3.149414,3.076172 1.953125,1.049804 4.736328,1.049804 2.783203,0 4.711914,-1.049804 1.953125,-1.074219 3.149414,-3.076172 1.220703,-2.026367 1.757813,-4.931641 0.537109,-2.929687 0.537109,-6.640625 0,-3.710937 -0.537109,-6.616211 -0.53711,-2.929687 -1.757813,-4.93164 -1.196289,-2.001953 -3.125,-3.051758 -1.904297,-1.049805 -4.6875,-1.049805 -2.783203,0 -4.736328,1.049805 -1.953125,1.049805 -3.198242,3.051758 -1.220703,2.001953 -1.782227,4.93164 -0.537109,2.905274 -0.537109,6.616211 z" />
  </g>
</svg>
