<svg height="24" viewBox="0 0 24 24" width="24" xmlns="http://www.w3.org/2000/svg" xmlns:xlink="http://www.w3.org/1999/xlink"><linearGradient id="a" gradientUnits="userSpaceOnUse" x1="15.1777241471" x2="14.8223734729" y1="1040.79985859315" y2="1057.8421868276"><stop offset="0" stop-color="#48b4ff"/><stop offset="1" stop-color="#0f91ec"/></linearGradient><linearGradient id="b" gradientUnits="userSpaceOnUse" x1="11.38673363968" x2="18.61297916568" y1="1048.35021389" y2="1044.36226053"><stop offset="0" stop-color="#9cd6ff"/><stop offset=".670588" stop-color="#62b8f4"/><stop offset="1" stop-color="#2799e9"/></linearGradient><mask id="c"><path d="m861 556h1645v1133h-1645z" fill="url(#h)"/></mask><radialGradient id="d" cx="24.837126" cy="36.421127" gradientTransform="matrix(.43145501 0 0 .11546934 6.763059 18.10903)" gradientUnits="userSpaceOnUse" r="15.644737"><stop offset="0"/><stop offset="1" stop-opacity="0"/></radialGradient><radialGradient id="e" cx="35.292667" cy="20.494493" gradientTransform="matrix(0 .28696987 -.34681123 0 25.270204 10.308579)" gradientUnits="userSpaceOnUse" r="16.9562"><stop offset="0" stop-color="#73d216"/><stop offset="1" stop-color="#4e9a06"/></radialGradient><linearGradient id="f"><stop offset="0" stop-color="#fff"/><stop offset="1" stop-color="#fff" stop-opacity="0"/></linearGradient><radialGradient id="g" cx="15.987216" cy="1.535031" gradientTransform="matrix(0 .69671908 .52951731 0 10.479049 2.020843)" gradientUnits="userSpaceOnUse" r="17.171415" xlink:href="#f"/><linearGradient id="h" gradientUnits="userSpaceOnUse" x1="1683.09" x2="1683.09" xlink:href="#f" y1="773.80603" y2="1471.39"/><g transform="translate(0 -1037.3622)"><g clip-rule="evenodd" fill-rule="evenodd" image-rendering="optimizeQuality" shape-rendering="geometricPrecision" text-rendering="geometricPrecision"><path d="m14.999554 1059.8202c.07075 0-7.7075199-8.9545-7.4333566-14.3803.4377765-8.8262 14.4289416-8.8262 14.8711406 0 .269742 5.4258-7.508536 14.3803-7.437784 14.3803z" fill="url(#a)" stroke-width=".004422"/><circle cx="14.999557" cy="1046.3556" fill="#e6e6e6" r="3.522293" stroke-width=".003371"/><path d="m14.999554 1042.9304c1.892448 0 3.425711 1.5328 3.425711 3.4252 0 1.8926-1.533263 3.4254-3.425711 3.4254-1.89244 0-3.425709-1.5328-3.425709-3.4254 0-1.8924 1.533269-3.4252 3.425709-3.4252zm0-.372c2.097687 0 3.796961 1.6998 3.796961 3.7972 0 2.0973-1.699275 3.7973-3.796961 3.7973-2.097681 0-3.796953-1.7-3.796953-3.7973 0-2.0974 1.699272-3.7972 3.796953-3.7972z" fill="url(#b)" stroke-width=".003371"/><path d="m1683 560c452 0 819 252 819 563 0 310-367 562-819 562s-818-252-818-562c0-311 366-563 818-563z" fill="#fff" fill-opacity=".859244" mask="url(#c)" stroke-width="1.1169" transform="matrix(.00301825 0 0 .00301825 9.919846 1041.3125)"/></g><path d="m13.170302 1059.1404c-10.170302.7218-2.670302-6.7782-12.0900231-9.2986" fill="none" stroke="#1e9af1" stroke-dasharray=".9 .9" stroke-dashoffset="1.61999" stroke-width="1.8"/><g transform="translate(0 1037.3622)"><g fill-rule="evenodd"><ellipse cx="17.479176" cy="22.314512" fill="url(#d)" opacity=".204545" rx="6.75" ry="1.806488"/><path d="m20.540509 11.699525-6.1209.0014v4.422408l-2.718064.0028 5.828436 6.807256 5.726966-6.807466-2.71824-.0014z" style="stroke:#3a7304;stroke-width:1.45748;stroke-linecap:round;stroke-linejoin:round;stroke-miterlimit:10;fill:url(#e)"/><path d="m12.071974 16.29723 2.517843-.0042-.000921-4.42284 5.228018.0033c-.26173 6.243413-3.64521 3.742137-5.229064 7.368758z" fill="url(#g)" opacity=".508021"/></g><path d="m20.200021 12.04126-5.439756-.0014v4.422878l-2.317409.0056 5.083779 5.940966 4.999559-5.94245-2.325258-.0019z" fill="none" opacity=".481283" stroke="#fff" stroke-miterlimit="10" stroke-width=".288288"/></g></g></svg>