<svg height="24" width="24" xmlns="http://www.w3.org/2000/svg" xmlns:xlink="http://www.w3.org/1999/xlink"><radialGradient id="a" cx="15.987216" cy="1.535031" gradientTransform="matrix(0 .69671908 .52951731 0 10.479049 2.020843)" gradientUnits="userSpaceOnUse" r="17.171415" xlink:href="#c"/><linearGradient id="b"><stop offset="0" stop-color="#fff"/><stop offset="1" stop-color="#fff" stop-opacity="0"/></linearGradient><linearGradient id="c" xlink:href="#b"/><radialGradient id="d" cx="35.292667" cy="20.494493" gradientTransform="matrix(0 .28696987 -.34681123 0 25.270204 10.308579)" gradientUnits="userSpaceOnUse" r="16.9562"><stop offset="0" stop-color="#73d216"/><stop offset="1" stop-color="#4e9a06"/></radialGradient><radialGradient id="e" cx="24.837126" cy="36.421127" gradientTransform="matrix(.43145501 0 0 .11546934 6.763059 18.10903)" gradientUnits="userSpaceOnUse" r="15.644737" xlink:href="#g"/><linearGradient id="f"><stop offset="0"/><stop offset="1" stop-opacity="0"/></linearGradient><linearGradient id="g" xlink:href="#f"/><radialGradient id="h" cx="23.969" cy="12.219" gradientTransform="matrix(.64232595 0 0 .2238811 -3.395255 17.35939)" gradientUnits="userSpaceOnUse" r="14.969" xlink:href="#f"/><linearGradient id="i" gradientUnits="userSpaceOnUse" x1="18.3243105" x2="-2.183978" y1="9.2859325" y2="8.140112"><stop offset="0" stop-color="#555753"/><stop offset=".99" stop-color="#d5d9d2"/><stop offset="1" stop-color="#888a85"/></linearGradient><linearGradient id="j" gradientTransform="scale(.5)" gradientUnits="userSpaceOnUse" x1="11.871" x2="39.456501" xlink:href="#k" y1="38.6875" y2="39.4375"><stop offset="0" stop-color="#fff"/><stop offset="1" stop-color="#fff" stop-opacity="0"/></linearGradient><linearGradient id="k" gradientTransform="matrix(.61028 0 0 1 9.3454 0)" gradientUnits="userSpaceOnUse" x1="27.006001" x2="21.969999" xlink:href="#b" y1="41" y2="39.022999"/><linearGradient id="l" gradientTransform="matrix(.416665 0 0 .5 1.83335 .5)" gradientUnits="userSpaceOnUse" x1="21.096001" x2="25.976999" xlink:href="#m" y1="26.125" y2="26.125"/><linearGradient id="m"><stop offset="0"/><stop offset="1" stop-color="#fff"/></linearGradient><linearGradient id="n" gradientTransform="matrix(.57145 0 0 .5 -1.92855 .5)" gradientUnits="userSpaceOnUse" x1="28.444117" x2="31.362" xlink:href="#m" y1="25.188" y2="25.275999"/><linearGradient id="o" gradientTransform="matrix(.625 0 0 .5 -4.4375 .5)" gradientUnits="userSpaceOnUse" x1="33.274273" x2="37.535" xlink:href="#m" y1="24.787636" y2="24.5"/><linearGradient id="p" gradientTransform="matrix(.416665 0 0 .5 1.125 .5)" gradientUnits="userSpaceOnUse" x1="6.8745" x2="15.672" xlink:href="#m" y1="24.827" y2="25"/><linearGradient id="q" gradientTransform="matrix(.57145 0 0 .5 -1.5 .5)" gradientUnits="userSpaceOnUse" x1="12.02" x2="20.114" xlink:href="#m" y1="25.620001" y2="25.562"/><linearGradient id="r" gradientTransform="matrix(.30514 0 0 .5 4.6727 0)" gradientUnits="userSpaceOnUse" x1="27.006001" x2="21.969999" xlink:href="#k" y1="41" y2="39.022999"/><linearGradient id="s" gradientUnits="userSpaceOnUse" x1="16.200979" x2="14.50148" xlink:href="#c" y1="20.6037505" y2="18.98675"/><linearGradient id="t" gradientUnits="userSpaceOnUse" x1="10.5036005" x2="8.8126005" xlink:href="#c" y1="19.843997" y2="19.2304965"/><linearGradient id="u" gradientUnits="userSpaceOnUse" x1="18.281" x2="18.281" xlink:href="#c" y1="20.379999" y2="16.424"/><linearGradient id="v" gradientUnits="userSpaceOnUse" x1="5.75" x2="5.75" xlink:href="#c" y1="19.031" y2="14.9610005"/><linearGradient id="w" gradientTransform="matrix(.34648 0 0 .5 1.03495 -.488875)" gradientUnits="userSpaceOnUse" x1="21.445" x2="17.216" xlink:href="#c" y1="38.813" y2="38.210999"/><linearGradient id="x" gradientTransform="matrix(.32321 0 0 .5 7.0355 -.49975)" gradientUnits="userSpaceOnUse" x1="33.398998" x2="30" xlink:href="#c" y1="41.207001" y2="37.973"/><radialGradient id="y" cx="24" cy="18.468" gradientTransform="matrix(.5 0 0 .151815 0 7.071)" gradientUnits="userSpaceOnUse" r="14" xlink:href="#f"/><linearGradient id="z" gradientUnits="userSpaceOnUse" x1="10.2699995" x2="3.7980455" y1="7.699155" y2="6.2407475"><stop offset="0" stop-color="#6d6f6a"/><stop offset=".80142856" stop-color="#e7e8e5"/><stop offset="1" stop-color="#999b96"/></linearGradient><linearGradient id="A" gradientUnits="userSpaceOnUse" x1="14.5" x2="9.5" xlink:href="#B" y1="3.875" y2="3.875"/><linearGradient id="B" gradientUnits="userSpaceOnUse" x1="29" x2="19" y1="7.75" y2="7.75"><stop offset="0" stop-color="#95998e"/><stop offset=".59524" stop-color="#fff"/><stop offset="1" stop-color="#dfdfdb"/></linearGradient><linearGradient id="C" gradientTransform="matrix(.48387 0 0 .416665 .387095 .79165)" gradientUnits="userSpaceOnUse" x1="20.146519" x2="15.96" y1="17.061749" y2="20.608999"><stop offset="0" stop-color="#babdb6"/><stop offset="1" stop-color="#fff"/></linearGradient><radialGradient id="D" cx="24" cy="12.5" gradientTransform="matrix(.27003 0 0 .09001043 5.5195 4.124894)" gradientUnits="userSpaceOnUse" r="15.5" xlink:href="#f"/><linearGradient id="E" gradientUnits="userSpaceOnUse" x1="9.1235" x2="19.7610475" xlink:href="#b" y1="8.1875" y2="7.723461"/><radialGradient id="F" cx="18.034" cy="27.858" gradientTransform="matrix(.53824235 -.11198048 .02809328 .1350343 -.654029 6.931801)" gradientUnits="userSpaceOnUse" r="15.447" xlink:href="#c"/><radialGradient id="G" cx="18.75" cy="10.75" gradientTransform="matrix(.454545 0 0 .27272481 6.2275 2.318173)" gradientUnits="userSpaceOnUse" r="2.75" xlink:href="#g"/><radialGradient id="H" cx="18.75" cy="10.75" gradientTransform="matrix(.454545 0 0 .27272481 .72725 2.318173)" gradientUnits="userSpaceOnUse" r="2.75" xlink:href="#g"/><linearGradient id="I" gradientUnits="userSpaceOnUse" x1="13.2320005" x2="13.0635005" y1="4.764" y2="5.4045"><stop offset="0" stop-color="#888a85"/><stop offset="1" stop-color="#d3d7cf"/></linearGradient><linearGradient id="J" gradientTransform="matrix(.5 0 .154375 -.47557 0 0)" gradientUnits="userSpaceOnUse" x1="21.084" x2="21.674" y1="-8.5719" y2="-10.483"><stop offset="0" stop-color="#d3d7cf"/><stop offset="1" stop-color="#eeeeec"/></linearGradient><linearGradient id="K" gradientUnits="userSpaceOnUse" x1="12.842718" x2="9.5" xlink:href="#B" y1="3.852903" y2="3.875"/><linearGradient id="L" gradientUnits="userSpaceOnUse" x1="12.125" x2="12.125" y1="4.5185975" y2="5.47"><stop offset="0" stop-opacity=".32317"/><stop offset="1" stop-opacity="0"/></linearGradient><radialGradient id="M" cx="12.143" cy="17.987" gradientTransform="matrix(.44967406 -.01137542 .00192965 .0762822 3.248629 5.797803)" gradientUnits="userSpaceOnUse" r="15.447" xlink:href="#c"/><g stroke-width="1.22699" transform="matrix(.81428421 0 0 .81572289 -2.194638 -.328063)"><path d="m22.168386 20.095119a10.167694 3.5438562 0 1 1 -20.335386 0 10.167693 3.5438564 0 1 1 20.335386 0z" fill="url(#h)" opacity=".8" stroke-width=".838356"/><path d="m11.25 3.75c-3.3785.117-6.5 1.1275-6.5 2.5v13.5c0 1.383 3.2205 2.5 7.2345 2.5s7.2655-1.117 7.2655-2.5v-13.5c0-1.3828-3.2515-2.5-7.2655-2.5-.1885 0-.378-.0049-.5625 0-.059.0016-.114-.002-.172 0z" fill="url(#i)" stroke="#131313" stroke-linecap="round" stroke-width=".631409"/><g stroke-width=".613495"><path d="m11.469 4.25c-3.2905.0792-5.9185.972-6.21 2.008-.008.0315-.009 13.4595-.009 13.492 0 1 3.2055 2 6.7345 2 3.6455 0 6.7655-1 6.7655-2 0-.023.0025-13.4145 0-13.4375-.1375-1.1415-3.12-2.0625-6.7655-2.0625-.175 0-.344-.0041-.5155 0z" fill="none" opacity=".7098" stroke="url(#j)" stroke-linecap="round"/><rect fill="url(#l)" height="11" opacity=".3" rx="1" width="2" x="11" y="9.5"/><rect fill="url(#n)" height="11" opacity=".3" rx="1.14285" ry="1" width="2" x="13.5" y="9.25"/><rect fill="url(#o)" height="11" opacity=".3" rx=".75" width="1.5" x="16" y="8.75"/><rect height="11" opacity=".3" rx=".25" ry="1" width=".5" x="18" y="7.75"/><rect fill="#fff" height="11" opacity=".3" rx=".25" ry="1" width=".5" x="5.5" y="8"/><rect fill="url(#p)" height="11" opacity=".5" rx=".75" width="1.5" x="6.5" y="8.75"/><rect fill="url(#q)" height="11" opacity=".5" rx="1.14285" ry="1" width="2" x="8.5" y="9.25"/><rect fill="none" height="10.5115" rx=".76565" stroke="url(#r)" stroke-linecap="round" width="1.53135" x="11.2295" y="9.738998"/><rect fill="none" height="10.5005" opacity=".49412" rx=".7515" ry=".74585" stroke="url(#s)" stroke-linecap="round" width="1.50295" x="13.75" y="9.5"/><rect fill="none" height="10.511" rx=".85925" ry=".7679" stroke="url(#t)" stroke-linecap="round" width="1.50365" x="8.75" y="9.488998"/><rect fill="url(#u)" height="11" opacity=".4" rx=".25" ry="1" width=".5" x="18" y="7.75"/><rect fill="url(#v)" height="11" opacity=".3" rx=".25" ry="1" width=".5" x="5.5" y="8"/><rect fill="none" height="10.511" rx=".85925" ry=".7679" stroke="url(#w)" stroke-linecap="round" width="1.04195" x="6.75" y="9"/><rect fill="none" height="10.5005" opacity=".49412" rx=".48577" stroke="url(#x)" stroke-linecap="round" width=".97155" x="16.246" y="9"/><path d="m11.594 7.75c-2.8415.0385-5.293.4785-6.594 1.1035v2.043c1.3635.655 3.985 1.1035 7 1.1035s5.6365-.4485 7-1.1035v-2.043c-1.3635-.655-3.985-1.1035-7-1.1035-.138 0-.27-.002-.406 0z" fill="url(#y)" opacity=".55294"/><path d="m11.2095 3.25455c-3.907.1537-6.9605 1.4358-6.9605 2.98845v1.502c0 1.6555 3.4635 3.0035 7.7425 3.0035s7.7585-1.348 7.7585-3.0035v-1.502c0-1.65615-3.4795-2.98845-7.7585-2.98845-.2675 0-.5215-.01025-.782 0z" fill="url(#z)" stroke="#000" stroke-linecap="round"/></g><path d="m9.75 4.5-.25 1h.5c0-.75 1.1505-1.9982 2-1.9982s2 1.2482 2 1.9982h.5l-.25-1c-.1355-.91545-.75-2.25-2.25-2.2482s-2.121 1.3757-2.25 2.2482z" fill="url(#A)" stroke="#000" stroke-linecap="round" stroke-width="1.22699"/><path d="m19.49996 6.088296c0 1.379994-3.359994 2.411657-7.499985 2.411657-4.1399915 0-7.499985-1.119996-7.499985-2.49999 0-1.379995 3.3599935-2.49999 7.499985-2.49999 4.139992 0 7.499985 1.51666 7.499985 2.588323z" fill="url(#C)" stroke-width=".550933"/><path d="m16.185685 5.250013a4.185465 1.39515 0 1 1 -8.37093 0 4.185465 1.39515 0 1 1 8.37093 0z" fill="url(#D)" opacity=".3" stroke-width=".307455"/><path d="m11.265 3.75c-3.657.1337-6.515 1.2487-6.515 2.599v1.306c0 1.4405 3.242 2.6125 7.247 2.6125s7.2615-1.172 7.2615-2.6125v-1.306c0-1.4403-3.2565-2.599-7.2615-2.599-.2505 0-.4885-.0089-.732 0z" fill="none" opacity=".56471" stroke="url(#E)" stroke-linecap="round" stroke-width=".613495"/><path d="m19.266095 5.83725a7.25805 2.5872 0 1 1 -14.5161 0 7.25805 2.5872 0 1 1 14.5161 0z" fill="none" stroke="url(#F)" stroke-linecap="round" stroke-width=".613495"/><path d="m16.000218 5.249978a1.249999.7499977 0 1 1 -2.499998 0 1.249999.7499977 0 1 1 2.499998 0z" fill="url(#G)" opacity=".55686" stroke-width=".541552"/><path d="m10.499968 5.249978a1.249999.7499977 0 1 1 -2.499998 0 1.249999.7499976 0 1 1 2.499998 0z" fill="url(#H)" opacity=".55686" stroke-width=".541552"/><rect fill="url(#I)" height="1.018847" rx=".20901" ry=".195479" stroke-width=".613494" transform="matrix(1 0 .30875095 .95114292 0 0)" width="1.27135" x="12.4785" y="4.731137"/><path d="m8.6836875 5.469055h.853c.116 0 .235861-.08275.2693605-.185948l.193864-.597221c.033423-.102961-.032654-.1859-.1486545-.1859h-.853c-.116 0-.235923.08294-.2693455.1859l-.193864.597221c-.0335.103199.03264.185948.1486395.185948z" fill="url(#J)" stroke-width=".598319"/><path d="m9.75 4.5-.25 1h.5c0-.75 1.1505-1.9982 2-1.9982s2 1.2482 2 1.9982h.5l-.25-1c-.1355-.91545-.75-2.25-2.25-2.2482s-2.121 1.3757-2.25 2.2482z" fill="url(#K)" stroke-width=".613495"/><path d="m8.75 5.5h1s.25-1.75 2.25-1.7482c2.001.0018 2.25 1.7482 2.25 1.7482h.9855" fill="url(#L)" stroke="#fff" stroke-linecap="round" stroke-width=".613495"/><path d="m16.023757 5.837165a4.015425 1.43132 0 1 1 -8.0308495 0 4.015425 1.43132 0 1 1 8.0308495 0z" fill="none" stroke="url(#M)" stroke-linecap="round" stroke-width=".613488"/></g><g fill-rule="evenodd"><ellipse cx="17.479176" cy="22.314512" fill="url(#e)" opacity=".204545" rx="6.75" ry="1.806488"/><path d="m20.540509 11.699525-6.1209.0014v4.422408l-2.718064.0028 5.828436 6.807256 5.726966-6.807466-2.71824-.0014z" style="stroke:#3a7304;stroke-width:1.457481;stroke-linecap:round;stroke-linejoin:round;stroke-miterlimit:10;fill:url(#d)"/><path d="m12.071974 16.29723 2.517843-.0042-.000921-4.42284 5.228018.0033c-.26173 6.243413-3.64521 3.742137-5.229064 7.368758z" fill="url(#a)" opacity=".508021"/></g><path d="m20.200021 12.04126-5.439756-.0014v4.422878l-2.317409.0056 5.083779 5.940966 4.999559-5.94245-2.325258-.0019z" fill="none" opacity=".481283" stroke="#fff" stroke-miterlimit="10" stroke-width=".288288"/></svg>