<?xml version="1.0" encoding="UTF-8"?>
<svg xmlns="http://www.w3.org/2000/svg" xmlns:xlink="http://www.w3.org/1999/xlink" width="50px" height="50px" viewBox="0 0 50 50" version="1.1">
<g id="surface1">
<path style=" stroke:none;fill-rule:nonzero;fill:rgb(100%,100%,100%);fill-opacity:1;" d="M 48.730469 49.980469 C 49.070312 49.980469 49.386719 49.875 49.628906 49.683594 C 49.867188 49.492188 50 49.238281 50 48.96875 L 50 1.03125 C 50 0.761719 49.867188 0.507812 49.628906 0.316406 C 49.386719 0.125 49.070312 0.0195312 48.730469 0.0195312 L 1.269531 0.0195312 C 0.570312 0.0195312 0 0.472656 0 1.03125 L 0 48.96875 C 0 49.238281 0.132812 49.492188 0.371094 49.683594 C 0.613281 49.875 0.929688 49.980469 1.269531 49.980469 Z M 48.730469 49.980469 "/>
<path style=" stroke:none;fill-rule:nonzero;fill:rgb(9.019608%,43.529412%,75.686276%);fill-opacity:1;" d="M 1.269531 49.648438 C 1.042969 49.648438 0.828125 49.574219 0.667969 49.449219 C 0.507812 49.320312 0.417969 49.148438 0.417969 48.96875 L 0.417969 1.03125 C 0.417969 0.851562 0.507812 0.679688 0.667969 0.550781 C 0.828125 0.425781 1.042969 0.351562 1.269531 0.351562 L 48.730469 0.351562 C 48.957031 0.351562 49.171875 0.425781 49.332031 0.550781 C 49.492188 0.679688 49.582031 0.851562 49.582031 1.03125 L 49.582031 48.96875 C 49.582031 49.34375 49.199219 49.648438 48.730469 49.648438 L 1.269531 49.648438 "/>
<path style=" stroke:none;fill-rule:nonzero;fill:rgb(100%,100%,100%);fill-opacity:1;" d="M 35.148438 10.347656 C 34.332031 9.527344 33.25 9.078125 32.097656 9.078125 C 31.546875 9.078125 31.019531 9.183594 30.535156 9.375 L 29.535156 7.140625 L 29.9375 6.496094 C 30.644531 6.640625 31.34375 6.78125 31.382812 6.78125 C 31.777344 6.78125 32.097656 6.457031 32.097656 6.058594 C 32.097656 5.664062 31.777344 5.339844 31.382812 5.339844 C 31.363281 5.339844 28.433594 5.34375 28.433594 5.34375 C 28.203125 5.34375 28.015625 5.53125 28.015625 5.761719 C 28.015625 5.996094 28.203125 6.183594 28.433594 6.183594 L 28.433594 6.1875 C 28.433594 6.1875 28.871094 6.277344 29.410156 6.386719 L 29.085938 6.90625 L 21.492188 6.90625 C 21.6875 6.308594 21.816406 5.917969 21.816406 5.917969 C 21.820312 5.910156 21.820312 5.90625 21.824219 5.898438 C 21.824219 5.890625 21.828125 5.882812 21.828125 5.875 C 21.828125 5.867188 21.828125 5.859375 21.828125 5.851562 C 21.828125 5.847656 21.828125 5.839844 21.828125 5.832031 C 21.828125 5.824219 21.828125 5.816406 21.824219 5.808594 C 21.824219 5.804688 21.824219 5.796875 21.820312 5.789062 C 21.820312 5.78125 21.816406 5.777344 21.8125 5.769531 C 21.8125 5.761719 21.808594 5.757812 21.804688 5.75 C 21.804688 5.742188 21.800781 5.738281 21.796875 5.730469 C 21.792969 5.726562 21.789062 5.71875 21.785156 5.714844 C 21.78125 5.707031 21.773438 5.703125 21.769531 5.699219 C 21.765625 5.691406 21.761719 5.6875 21.753906 5.683594 C 21.75 5.675781 21.742188 5.671875 21.738281 5.667969 C 21.730469 5.664062 21.726562 5.660156 21.71875 5.65625 C 21.714844 5.652344 21.707031 5.648438 21.699219 5.644531 C 21.695312 5.644531 21.6875 5.640625 21.679688 5.636719 L 20.441406 5.203125 L 20.8125 4.222656 L 23.796875 4.191406 L 24.683594 4.996094 C 24.773438 5.078125 24.914062 5.070312 24.996094 4.980469 C 25.078125 4.886719 25.070312 4.746094 24.980469 4.664062 L 24.03125 3.804688 L 23.96875 3.746094 L 23.878906 3.746094 L 20.65625 3.78125 L 20.507812 3.78125 L 19.867188 5.472656 L 20.082031 5.550781 L 21.328125 5.984375 L 20.207031 9.375 C 19.714844 9.179688 19.183594 9.078125 18.636719 9.078125 C 16.261719 9.078125 14.328125 11.023438 14.328125 13.414062 C 14.328125 14.574219 14.773438 15.664062 15.589844 16.484375 C 16.402344 17.300781 17.484375 17.753906 18.636719 17.753906 C 19.789062 17.753906 20.871094 17.300781 21.6875 16.484375 C 22.5 15.664062 22.949219 14.574219 22.949219 13.414062 C 22.949219 12.257812 22.5 11.167969 21.6875 10.347656 C 21.367188 10.023438 21.003906 9.761719 20.613281 9.558594 C 20.714844 9.242188 20.820312 8.921875 20.925781 8.613281 L 24.207031 12.136719 C 23.980469 12.417969 23.84375 12.773438 23.84375 13.160156 C 23.84375 13.597656 24.011719 14.003906 24.316406 14.3125 C 24.625 14.621094 25.03125 14.789062 25.460938 14.789062 C 25.527344 14.789062 25.589844 14.785156 25.65625 14.777344 L 25.734375 15.140625 L 25.210938 15.140625 L 25.210938 15.648438 L 26.664062 15.648438 L 26.664062 15.140625 L 25.996094 15.140625 L 25.902344 14.730469 C 26.167969 14.65625 26.410156 14.515625 26.609375 14.3125 C 26.847656 14.074219 27 13.773438 27.054688 13.445312 L 27.789062 13.472656 C 27.800781 14.609375 28.25 15.675781 29.050781 16.484375 C 29.863281 17.300781 30.945312 17.753906 32.097656 17.753906 C 33.25 17.753906 34.332031 17.300781 35.148438 16.484375 C 35.960938 15.664062 36.410156 14.574219 36.410156 13.414062 C 36.410156 12.257812 35.960938 11.167969 35.148438 10.347656 Z M 21.148438 10.886719 C 21.820312 11.5625 22.191406 12.460938 22.191406 13.414062 C 22.191406 15.386719 20.597656 16.992188 18.636719 16.992188 C 17.6875 16.992188 16.796875 16.617188 16.125 15.945312 C 15.453125 15.269531 15.085938 14.371094 15.085938 13.414062 C 15.085938 12.460938 15.453125 11.5625 16.125 10.886719 C 16.796875 10.210938 17.6875 9.839844 18.636719 9.839844 C 19.101562 9.839844 19.550781 9.929688 19.964844 10.097656 L 19.1875 12.453125 C 19.125 12.617188 18.894531 13.082031 18.558594 13.207031 C 18.445312 13.25 18.386719 13.378906 18.429688 13.492188 C 18.472656 13.609375 18.601562 13.667969 18.714844 13.625 C 19.308594 13.398438 19.59375 12.632812 19.605469 12.601562 C 19.605469 12.597656 19.949219 11.554688 20.367188 10.292969 C 20.652344 10.453125 20.914062 10.648438 21.148438 10.886719 Z M 30.132812 9.558594 C 28.847656 10.222656 27.9375 11.511719 27.804688 13.027344 L 27.074219 13 C 27.039062 12.625 26.875 12.277344 26.609375 12.007812 C 26.582031 11.984375 26.554688 11.960938 26.527344 11.9375 L 29.253906 7.589844 Z M 30.441406 10.25 L 31.75 13.179688 L 28.5625 13.058594 C 28.644531 12.238281 29 11.476562 29.585938 10.886719 C 29.84375 10.628906 30.128906 10.417969 30.441406 10.25 Z M 25.148438 12.496094 L 24.789062 12.113281 C 24.867188 12.0625 24.949219 12.023438 25.035156 11.988281 Z M 25.28125 11.929688 C 25.339844 11.917969 25.402344 11.914062 25.460938 11.914062 C 25.613281 11.914062 25.757812 11.941406 25.894531 11.992188 L 25.453125 12.703125 Z M 26.324219 12.261719 C 26.328125 12.269531 26.335938 12.273438 26.339844 12.277344 C 26.53125 12.472656 26.652344 12.71875 26.691406 12.984375 L 25.890625 12.953125 Z M 21.324219 7.414062 L 28.765625 7.414062 L 26.101562 11.664062 C 25.902344 11.578125 25.6875 11.53125 25.460938 11.53125 C 25.371094 11.53125 25.285156 11.539062 25.195312 11.554688 L 25.015625 10.746094 L 25.589844 10.746094 L 25.589844 10.234375 L 24.136719 10.746094 L 24.757812 10.746094 L 24.953125 11.617188 C 24.800781 11.667969 24.65625 11.738281 24.527344 11.832031 L 21.085938 8.132812 C 21.167969 7.878906 21.246094 7.636719 21.324219 7.414062 Z M 25.460938 14.410156 C 25.132812 14.410156 24.820312 14.28125 24.585938 14.042969 C 24.351562 13.808594 24.222656 13.496094 24.222656 13.160156 C 24.222656 12.890625 24.308594 12.632812 24.46875 12.417969 L 25.300781 13.3125 L 25.335938 13.351562 L 25.570312 14.402344 C 25.535156 14.40625 25.5 14.410156 25.460938 14.410156 Z M 25.820312 14.355469 L 25.605469 13.390625 L 26.671875 13.429688 C 26.578125 13.871094 26.246094 14.226562 25.820312 14.355469 Z M 32.097656 16.992188 C 31.148438 16.992188 30.257812 16.617188 29.585938 15.945312 C 28.933594 15.289062 28.570312 14.425781 28.546875 13.5 L 32.089844 13.636719 L 32.308594 13.605469 L 32.300781 13.324219 L 30.84375 10.070312 C 31.238281 9.917969 31.664062 9.839844 32.097656 9.839844 C 33.046875 9.839844 33.941406 10.210938 34.609375 10.886719 C 35.28125 11.5625 35.652344 12.460938 35.652344 13.414062 C 35.652344 15.386719 34.058594 16.992188 32.097656 16.992188 "/>
<path style=" stroke:none;fill-rule:nonzero;fill:rgb(100%,100%,100%);fill-opacity:1;" d="M 33.902344 39.117188 C 33.902344 39.117188 33.902344 38.179688 33.667969 37.199219 C 33.496094 36.472656 33.082031 35.765625 32.886719 35.453125 C 32.863281 35.394531 32.828125 35.335938 32.777344 35.285156 L 32.414062 35.210938 C 32.921875 34.96875 33.277344 34.445312 33.277344 33.835938 C 33.277344 32.996094 32.601562 32.316406 31.765625 32.316406 C 30.929688 32.316406 30.253906 32.996094 30.253906 33.835938 C 30.253906 34.363281 30.351562 34.894531 30.753906 35.167969 C 30.886719 35.257812 31.078125 35.304688 31.277344 35.332031 L 30.988281 35.363281 C 30.988281 35.363281 31.011719 35.363281 30.96875 35.453125 C 30.769531 35.507812 30.328125 35.574219 29.511719 35.441406 C 28.710938 35.3125 28.425781 34.765625 28.324219 34.417969 C 28.386719 34.359375 28.449219 34.289062 28.5 34.214844 C 28.757812 33.851562 28.605469 33.328125 28.265625 33.09375 C 28.148438 33.011719 28.0625 32.917969 27.996094 32.832031 C 28.128906 32.585938 28.191406 32.390625 28.191406 32.390625 C 27.902344 31.582031 27.203125 29.523438 27.203125 29.523438 C 27.023438 27.777344 27.023438 25.585938 27.023438 25.585938 C 27.023438 25.585938 27.070312 25.210938 26.558594 24.882812 C 25.324219 24.097656 24.375 23.777344 24.003906 23.671875 L 23.964844 23.175781 C 24.292969 22.910156 24.539062 22.476562 24.675781 22.011719 C 24.683594 21.988281 24.691406 21.964844 24.695312 21.941406 C 25.042969 21.992188 25.296875 22.027344 25.390625 22.027344 C 25.78125 22.027344 25.742188 21.714844 25.234375 21.441406 C 25.085938 21.359375 24.957031 21.300781 24.824219 21.25 C 24.863281 21.035156 24.960938 20.480469 25.019531 20.167969 C 25.101562 19.777344 24.632812 19.679688 24.246094 19.777344 C 23.855469 19.875 23.351562 19.640625 23.136719 19.503906 C 22.921875 19.367188 22.804688 19.425781 22.632812 19.621094 C 22.488281 19.78125 22.226562 20.546875 22.136719 20.816406 L 21.230469 20.773438 C 21.230469 20.773438 20.414062 21.050781 21.078125 21.246094 C 21.242188 21.292969 21.578125 21.367188 21.988281 21.453125 C 21.972656 21.515625 21.960938 21.578125 21.953125 21.640625 C 21.871094 22.253906 22.085938 22.824219 22.472656 23.15625 L 22.382812 23.507812 C 22.152344 23.613281 21.640625 23.855469 20.53125 24.414062 C 19.558594 24.902344 19.207031 25.242188 19.089844 25.449219 L 19.070312 25.402344 C 19.070312 25.402344 18.316406 28.6875 18.292969 30.488281 C 18.265625 32.285156 18.265625 33.980469 18.265625 33.980469 L 18.695312 33.980469 C 18.613281 34.414062 18.5625 34.851562 18.652344 35.285156 C 18.679688 35.46875 18.835938 35.675781 19.015625 35.726562 C 19.25 35.78125 19.25 35.703125 19.484375 35.703125 C 19.484375 35.648438 19.863281 35.492188 19.871094 35.46875 C 19.949219 35.285156 20.027344 35 19.769531 34.632812 C 19.625 34.433594 19.585938 34.371094 19.507812 34.136719 C 19.496094 34.089844 19.457031 34.035156 19.414062 33.980469 L 19.691406 33.980469 C 19.691406 33.980469 19.691406 33.851562 19.820312 31.84375 C 19.945312 29.910156 19.949219 30.03125 20.367188 28.671875 L 20.441406 28.84375 C 21.246094 31.792969 20.597656 32.363281 20.3125 33.25 C 20.257812 33.417969 20.15625 34.476562 20.390625 34.554688 C 20.472656 34.582031 20.566406 34.605469 20.667969 34.621094 C 20.640625 35.265625 20.640625 36.421875 20.804688 38.308594 C 21.089844 41.59375 21.609375 43.199219 21.503906 44.007812 C 21.503906 44.007812 20.054688 43.96875 20.414062 44.878906 C 20.777344 45.792969 21.609375 46.210938 21.609375 46.210938 L 21.816406 46.183594 L 21.917969 46.445312 L 22.359375 46.703125 C 22.359375 46.703125 22.722656 46.835938 22.929688 46.546875 C 23.136719 46.261719 23.085938 46.054688 23.085938 46.054688 L 23.238281 45.375 C 23.238281 45.375 23.238281 42.402344 22.902344 40.683594 C 22.566406 38.960938 22.722656 38.023438 22.851562 37.292969 C 22.898438 37.019531 23.003906 36.816406 23.109375 36.671875 C 23.339844 37.191406 23.617188 37.765625 23.941406 38.359375 C 24.003906 39.546875 24.148438 42.566406 24.042969 43.8125 C 24.035156 43.902344 24.03125 43.984375 24.027344 44.058594 L 23.679688 44.320312 C 23.679688 44.320312 23.640625 44.75 23.757812 44.828125 C 23.875 44.90625 23.914062 45.21875 23.914062 45.21875 C 23.914062 45.21875 24.300781 45.609375 24.613281 46.117188 C 24.925781 46.625 25.546875 46.585938 25.78125 46.507812 C 26.011719 46.429688 25.972656 46.742188 25.933594 45.960938 C 25.90625 45.382812 25.582031 44.804688 25.414062 44.542969 C 25.710938 44.507812 25.972656 44.457031 26.011719 44.382812 C 26.105469 44.226562 26.09375 39.882812 26.089844 38.773438 C 26.109375 38.757812 26.117188 38.753906 26.117188 38.753906 C 26.117188 38.753906 26.308594 36.027344 25.09375 34.328125 C 25.371094 34.28125 25.59375 34.25 25.703125 34.136719 C 25.9375 33.890625 25.804688 33.511719 25.804688 33.511719 C 25.804688 33.511719 25.730469 33.414062 25.441406 32.519531 C 24.847656 30.671875 25.519531 28.636719 25.519531 28.636719 C 25.519531 28.636719 25.753906 30.355469 25.960938 31.007812 C 26.167969 31.660156 27.179688 33.640625 27.179688 33.640625 C 27.246094 33.613281 27.304688 33.582031 27.363281 33.542969 C 27.363281 33.671875 27.351562 33.8125 27.335938 33.929688 C 27.28125 34.242188 27.28125 34.320312 27.542969 34.554688 C 27.585938 34.59375 27.636719 34.621094 27.691406 34.636719 C 27.660156 35.007812 27.675781 35.734375 28.113281 36.417969 C 28.332031 36.765625 29.121094 37.039062 29.742188 37.207031 C 28.550781 38.726562 27.375 39.585938 27.375 39.585938 C 27.375 39.585938 27.609375 40.0625 28.171875 40.515625 C 28.078125 41.367188 27.917969 43.082031 28.035156 43.886719 C 28.191406 44.984375 28.304688 44.164062 28.382812 44.710938 C 28.386719 44.722656 28.386719 44.734375 28.390625 44.75 C 28.253906 44.730469 28.128906 44.753906 28.03125 44.835938 C 27.796875 45.03125 27.835938 45.464844 28.117188 45.804688 C 28.394531 46.148438 28.8125 46.265625 29.046875 46.070312 C 29.109375 46.019531 29.152344 45.949219 29.175781 45.867188 L 29.199219 45.882812 C 29.199219 45.882812 29.316406 45.453125 29.238281 44.90625 C 29.164062 44.386719 29.058594 43.660156 29.703125 41.53125 C 29.71875 42.085938 29.777344 42.742188 29.9375 43.066406 C 30.25 43.691406 30.445312 43.691406 30.675781 44.046875 C 30.839844 44.292969 30.8125 44.734375 30.78125 44.972656 C 30.445312 45.238281 30.292969 45.542969 30.367188 45.6875 C 30.613281 46.183594 31.003906 45.914062 31.402344 45.636719 C 31.664062 45.453125 31.828125 45.207031 31.867188 44.984375 L 31.882812 44.984375 C 31.882812 44.984375 32.464844 45.140625 31.609375 43.8125 C 31.109375 43.03125 31.144531 42.675781 31.335938 41.972656 C 31.429688 41.640625 31.511719 41.386719 31.574219 41.210938 C 31.757812 41.175781 31.953125 41.132812 32.152344 41.074219 C 32.152344 41.074219 31.804688 40.175781 31.921875 39.15625 C 31.964844 38.757812 32.101562 38.214844 32.25 37.703125 C 32.839844 38 32.960938 38.71875 32.851562 39.078125 C 32.757812 39.398438 32.664062 39.664062 32.632812 39.75 C 32.382812 39.832031 32.199219 40.113281 32.199219 40.445312 C 32.199219 40.84375 32.457031 41.164062 32.777344 41.164062 C 33.09375 41.164062 33.351562 40.84375 33.351562 40.445312 C 33.351562 40.335938 33.332031 40.230469 33.292969 40.132812 C 33.828125 39.707031 33.902344 39.117188 33.902344 39.117188 "/>
</g>
</svg>
