<?xml version="1.0" encoding="UTF-8"?>
<svg xmlns="http://www.w3.org/2000/svg" xmlns:xlink="http://www.w3.org/1999/xlink" width="50px" height="50px" viewBox="0 0 50 50" version="1.1">
<g id="surface1">
<path style=" stroke:none;fill-rule:nonzero;fill:rgb(93.333334%,10.980392%,13.725491%);fill-opacity:1;" d="M 0 25 C 0 11.191406 11.191406 0 25 0 C 38.808594 0 50 11.191406 50 25 C 50 38.808594 38.808594 50 25 50 C 11.191406 50 0 38.808594 0 25 Z M 0 25 "/>
<path style=" stroke:none;fill-rule:nonzero;fill:rgb(100%,100%,100%);fill-opacity:1;" d="M 25 43.539062 C 35.238281 43.539062 43.539062 35.238281 43.539062 25 C 43.539062 14.761719 35.238281 6.460938 25 6.460938 C 14.761719 6.460938 6.460938 14.761719 6.460938 25 C 6.460938 35.238281 14.761719 43.539062 25 43.539062 "/>
<path style=" stroke:none;fill-rule:nonzero;fill:rgb(0%,0%,0%);fill-opacity:1;" d="M 39.6875 28.09375 C 39.574219 27.09375 39.214844 26.167969 38.671875 25.382812 L 39.417969 24.289062 L 35.792969 21.8125 L 35.023438 22.9375 C 34.621094 22.851562 34.199219 22.804688 33.769531 22.804688 C 33.472656 22.804688 33.179688 22.828125 32.894531 22.871094 L 32.707031 21.398438 L 33.230469 21.121094 C 34.132812 21.242188 34.371094 21.242188 34.371094 21.242188 C 34.734375 19.558594 34.070312 17.574219 34.070312 17.574219 C 34.070312 17.574219 31.476562 17.519531 30.183594 20.453125 L 26.242188 18.78125 C 26.246094 18.765625 26.25 18.746094 26.253906 18.730469 C 26.34375 18.324219 26.617188 17.964844 26.617188 17.964844 C 27.203125 17.875 27.742188 18.207031 28.238281 17.84375 C 28.148438 17.484375 28.597656 17.242188 28.914062 17.332031 C 29.140625 17.109375 28.691406 16.746094 28.914062 16.523438 C 29.050781 16.429688 29.195312 16.476562 29.199219 16.429688 C 29.246094 15.980469 29.1875 15.574219 28.871094 15.214844 C 28.871094 15.214844 26.660156 12.554688 24.855469 16.207031 C 24.855469 16.207031 21.566406 15.847656 21.339844 16.339844 C 21.339844 16.339844 21.617188 16.929688 21.160156 16.882812 C 20.257812 16.792969 18.136719 17.378906 18.136719 17.378906 L 18.136719 18.144531 C 18.136719 18.144531 20.347656 17.738281 21.746094 18.011719 L 21.699219 18.191406 C 21.699219 18.191406 19.164062 19.714844 18.496094 20.308594 C 17.476562 21.222656 17.015625 22.402344 16.878906 22.816406 C 16.640625 22.769531 16.398438 22.746094 16.152344 22.746094 C 13.335938 22.746094 10.921875 25.449219 9.78125 29.058594 C 9.753906 29.136719 10.867188 28.917969 10.871094 29 C 10.882812 29.179688 10.898438 29.363281 10.925781 29.539062 L 9.898438 29.539062 L 9.898438 30.382812 L 11.132812 30.382812 C 11.808594 32.402344 13.71875 33.859375 15.96875 33.859375 C 18.175781 33.859375 20.050781 32.460938 20.765625 30.5 L 26.316406 30.5 C 26.316406 30.5 27.058594 30.542969 27.722656 29.699219 C 27.660156 30.289062 27.582031 31.019531 27.515625 31.464844 L 29.207031 31.039062 C 30.042969 32.710938 31.773438 33.859375 33.769531 33.859375 C 36.589844 33.859375 38.871094 31.574219 38.871094 28.757812 C 38.871094 28.535156 38.859375 28.3125 38.832031 28.09375 Z M 24.316406 22.339844 C 24.421875 21.667969 25.027344 20.828125 25.28125 20.5 L 27.453125 21.488281 C 25.925781 21.832031 24.875 22.171875 24.3125 22.375 C 24.3125 22.363281 24.3125 22.351562 24.316406 22.339844 Z M 17.488281 25.445312 C 18.230469 25.796875 18.664062 26.1875 19.265625 27.148438 L 17.042969 27.160156 Z M 12.074219 29.117188 C 12.0625 29 12.058594 28.878906 12.058594 28.757812 C 12.058594 28.617188 12.289062 28.714844 12.304688 28.578125 C 12.515625 26.613281 13.957031 25.179688 15.804688 25.121094 L 15.46875 27.160156 L 15.070312 27.160156 C 14.296875 27.160156 13.667969 27.902344 13.667969 28.816406 C 13.667969 28.921875 13.675781 29.019531 13.691406 29.117188 Z M 15.96875 32.667969 C 14.433594 32.667969 13.109375 31.785156 12.46875 30.5 L 19.46875 30.5 C 18.828125 31.785156 17.503906 32.667969 15.96875 32.667969 Z M 28.242188 26.554688 L 27.527344 26.570312 C 27.707031 25.671875 28.339844 23.761719 30.550781 22.453125 L 30.675781 23.671875 C 29.582031 24.339844 28.722656 25.351562 28.242188 26.554688 Z M 33.769531 32.667969 C 31.609375 32.667969 29.859375 30.917969 29.859375 28.757812 C 29.859375 27.457031 30.496094 26.304688 31.46875 25.59375 L 33.832031 29.78125 L 34.792969 29.417969 L 33.167969 25.03125 L 33.152344 24.894531 C 33.355469 24.863281 33.558594 24.847656 33.769531 24.847656 C 35.929688 24.847656 37.683594 26.597656 37.683594 28.757812 C 37.683594 30.917969 35.929688 32.667969 33.769531 32.667969 "/>
</g>
</svg>
