<?xml version="1.0" encoding="UTF-8"?>
<svg xmlns="http://www.w3.org/2000/svg" xmlns:xlink="http://www.w3.org/1999/xlink" width="50px" height="50px" viewBox="0 0 50 50" version="1.1">
<g id="surface1">
<path style=" stroke:none;fill-rule:nonzero;fill:rgb(9.019608%,43.529412%,75.686276%);fill-opacity:1;" d="M 0 25 C 0 11.195312 11.191406 0 25 0 C 38.808594 0 50 11.195312 50 25 C 50 38.804688 38.808594 50 25 50 C 11.191406 50 0 38.804688 0 25 "/>
<path style=" stroke:none;fill-rule:nonzero;fill:rgb(100%,100%,100%);fill-opacity:1;" d="M 43.695312 23.410156 C 42.132812 21.847656 40.054688 20.984375 37.84375 20.984375 C 36.785156 20.984375 35.773438 21.1875 34.84375 21.550781 L 32.925781 17.289062 L 33.699219 16.0625 C 35.058594 16.339844 36.394531 16.605469 36.46875 16.605469 C 37.226562 16.605469 37.84375 15.992188 37.84375 15.234375 C 37.84375 14.476562 37.226562 13.859375 36.46875 13.859375 C 36.429688 13.859375 30.808594 13.867188 30.808594 13.867188 C 30.367188 13.867188 30.007812 14.226562 30.007812 14.667969 C 30.007812 15.109375 30.367188 15.46875 30.808594 15.46875 L 30.808594 15.476562 C 30.808594 15.476562 31.648438 15.648438 32.683594 15.859375 L 32.0625 16.84375 L 17.488281 16.84375 C 17.867188 15.710938 18.113281 14.960938 18.113281 14.960938 C 18.117188 14.949219 18.121094 14.9375 18.121094 14.921875 C 18.125 14.910156 18.128906 14.894531 18.132812 14.882812 C 18.132812 14.867188 18.132812 14.855469 18.132812 14.839844 C 18.132812 14.824219 18.136719 14.8125 18.136719 14.796875 C 18.132812 14.785156 18.128906 14.769531 18.128906 14.757812 C 18.125 14.742188 18.125 14.730469 18.121094 14.71875 C 18.117188 14.703125 18.113281 14.691406 18.105469 14.679688 C 18.101562 14.667969 18.097656 14.652344 18.09375 14.640625 C 18.085938 14.628906 18.078125 14.617188 18.070312 14.605469 C 18.0625 14.59375 18.058594 14.582031 18.050781 14.570312 C 18.042969 14.5625 18.03125 14.550781 18.023438 14.542969 C 18.011719 14.53125 18.003906 14.519531 17.992188 14.511719 C 17.984375 14.503906 17.972656 14.496094 17.960938 14.488281 C 17.949219 14.480469 17.9375 14.46875 17.925781 14.460938 C 17.914062 14.457031 17.902344 14.449219 17.886719 14.445312 C 17.875 14.4375 17.863281 14.433594 17.851562 14.425781 L 15.472656 13.601562 L 16.1875 11.734375 L 21.917969 11.667969 L 23.613281 13.203125 C 23.785156 13.359375 24.054688 13.347656 24.210938 13.171875 C 24.367188 13 24.355469 12.730469 24.179688 12.574219 L 22.363281 10.925781 L 22.238281 10.816406 L 22.074219 10.820312 L 15.886719 10.886719 L 15.597656 10.890625 L 14.371094 14.117188 L 14.78125 14.257812 L 17.175781 15.09375 L 15.023438 21.550781 C 14.074219 21.183594 13.058594 20.984375 12.011719 20.984375 C 7.449219 20.984375 3.738281 24.699219 3.738281 29.261719 C 3.738281 31.472656 4.597656 33.546875 6.160156 35.113281 C 7.722656 36.675781 9.800781 37.535156 12.011719 37.535156 C 14.222656 37.535156 16.300781 36.675781 17.863281 35.113281 C 19.425781 33.546875 20.285156 31.472656 20.285156 29.261719 C 20.285156 27.050781 19.425781 24.972656 17.863281 23.410156 C 17.246094 22.796875 16.550781 22.289062 15.800781 21.902344 C 16 21.300781 16.203125 20.695312 16.402344 20.101562 L 22.695312 26.820312 C 22.261719 27.355469 22 28.035156 22 28.777344 C 22 29.605469 22.324219 30.386719 22.910156 30.972656 C 23.5 31.5625 24.28125 31.882812 25.109375 31.882812 C 25.234375 31.882812 25.355469 31.875 25.476562 31.859375 L 25.632812 32.550781 L 24.625 32.550781 L 24.625 33.523438 L 27.414062 33.523438 L 27.414062 32.550781 L 26.128906 32.550781 L 25.953125 31.765625 C 26.460938 31.625 26.925781 31.355469 27.308594 30.972656 C 27.765625 30.515625 28.058594 29.941406 28.167969 29.316406 L 29.574219 29.371094 C 29.601562 31.539062 30.457031 33.574219 31.992188 35.113281 C 33.554688 36.675781 35.632812 37.535156 37.84375 37.535156 C 40.054688 37.535156 42.132812 36.675781 43.695312 35.113281 C 45.257812 33.546875 46.117188 31.472656 46.117188 29.261719 C 46.117188 27.050781 45.257812 24.972656 43.695312 23.410156 Z M 16.832031 24.4375 C 18.121094 25.726562 18.832031 27.441406 18.832031 29.261719 C 18.832031 33.019531 15.769531 36.078125 12.011719 36.078125 C 10.191406 36.078125 8.476562 35.371094 7.191406 34.082031 C 5.902344 32.792969 5.191406 31.082031 5.191406 29.261719 C 5.191406 27.441406 5.902344 25.726562 7.191406 24.4375 C 8.476562 23.152344 10.191406 22.441406 12.011719 22.441406 C 12.898438 22.441406 13.761719 22.613281 14.5625 22.933594 L 13.0625 27.429688 C 12.949219 27.738281 12.503906 28.621094 11.863281 28.863281 C 11.644531 28.945312 11.53125 29.191406 11.613281 29.410156 C 11.695312 29.628906 11.941406 29.742188 12.160156 29.65625 C 13.300781 29.230469 13.84375 27.769531 13.867188 27.707031 C 13.867188 27.703125 14.53125 25.710938 15.332031 23.304688 C 15.875 23.609375 16.382812 23.988281 16.832031 24.4375 Z M 34.070312 21.902344 C 31.605469 23.167969 29.859375 25.632812 29.605469 28.523438 L 28.203125 28.46875 C 28.132812 27.753906 27.820312 27.09375 27.308594 26.578125 C 27.257812 26.53125 27.207031 26.484375 27.15625 26.441406 L 32.382812 18.152344 Z M 34.664062 23.226562 L 37.175781 28.8125 L 31.058594 28.578125 C 31.214844 27.015625 31.898438 25.566406 33.023438 24.4375 C 33.515625 23.949219 34.066406 23.542969 34.664062 23.226562 Z M 24.503906 27.507812 L 23.820312 26.777344 C 23.964844 26.679688 24.125 26.601562 24.289062 26.542969 Z M 24.757812 26.421875 C 24.875 26.40625 24.992188 26.394531 25.109375 26.394531 C 25.398438 26.394531 25.679688 26.449219 25.941406 26.546875 L 25.089844 27.898438 Z M 26.761719 27.066406 C 26.773438 27.074219 26.78125 27.082031 26.792969 27.09375 C 27.164062 27.460938 27.394531 27.933594 27.464844 28.441406 L 25.929688 28.382812 Z M 17.164062 17.8125 L 31.449219 17.8125 L 26.335938 25.917969 C 25.953125 25.757812 25.539062 25.667969 25.109375 25.667969 C 24.9375 25.667969 24.765625 25.6875 24.601562 25.714844 L 24.253906 24.167969 L 25.351562 24.167969 L 25.351562 23.195312 L 22.5625 23.195312 L 22.5625 24.167969 L 23.757812 24.167969 L 24.128906 25.828125 C 23.835938 25.925781 23.5625 26.066406 23.316406 26.242188 L 16.707031 19.183594 C 16.867188 18.703125 17.019531 18.242188 17.164062 17.8125 Z M 25.109375 31.15625 C 24.472656 31.15625 23.875 30.910156 23.425781 30.460938 C 22.976562 30.007812 22.730469 29.410156 22.730469 28.777344 C 22.730469 28.257812 22.894531 27.765625 23.199219 27.359375 L 24.871094 29.140625 L 25.316406 31.144531 C 25.25 31.152344 25.179688 31.15625 25.109375 31.15625 Z M 25.792969 31.054688 L 25.382812 29.210938 L 27.433594 29.289062 C 27.246094 30.132812 26.613281 30.808594 25.792969 31.054688 Z M 37.84375 36.078125 C 36.023438 36.078125 34.308594 35.371094 33.023438 34.082031 C 31.773438 32.832031 31.070312 31.183594 31.027344 29.425781 L 37.828125 29.683594 L 38.246094 29.625 L 38.230469 29.085938 L 35.4375 22.878906 C 36.199219 22.59375 37.007812 22.441406 37.84375 22.441406 C 39.664062 22.441406 41.378906 23.152344 42.667969 24.4375 C 43.953125 25.726562 44.664062 27.441406 44.664062 29.261719 C 44.664062 33.019531 41.605469 36.078125 37.84375 36.078125 "/>
</g>
</svg>
