<?xml version="1.0" encoding="UTF-8"?>
<svg xmlns="http://www.w3.org/2000/svg" xmlns:xlink="http://www.w3.org/1999/xlink" width="50px" height="50px" viewBox="0 0 50 50" version="1.1">
<g id="surface1">
<path style=" stroke:none;fill-rule:nonzero;fill:rgb(9.019608%,43.529412%,75.686276%);fill-opacity:1;" d="M 0 25 C 0 11.195312 11.191406 0 25 0 C 38.808594 0 50 11.195312 50 25 C 50 38.804688 38.808594 50 25 50 C 11.191406 50 0 38.804688 0 25 "/>
<path style=" stroke:none;fill-rule:nonzero;fill:rgb(100%,100%,100%);fill-opacity:1;" d="M 38.417969 34.050781 C 38.417969 34.050781 38.417969 32.535156 38.039062 30.957031 C 37.757812 29.777344 37.089844 28.636719 36.765625 28.132812 C 36.730469 28.039062 36.671875 27.945312 36.585938 27.863281 L 36 27.746094 C 36.828125 27.351562 37.402344 26.503906 37.402344 25.527344 C 37.402344 24.167969 36.300781 23.070312 34.945312 23.070312 C 33.589844 23.070312 32.492188 24.167969 32.492188 25.527344 C 32.492188 26.375 32.652344 27.230469 33.304688 27.671875 C 33.515625 27.816406 33.828125 27.894531 34.152344 27.9375 L 33.683594 27.988281 C 33.683594 27.988281 33.71875 27.988281 33.65625 28.132812 C 33.332031 28.222656 32.613281 28.328125 31.285156 28.113281 C 29.984375 27.90625 29.519531 27.027344 29.355469 26.460938 C 29.460938 26.363281 29.558594 26.253906 29.640625 26.136719 C 30.0625 25.546875 29.8125 24.703125 29.265625 24.328125 C 29.074219 24.195312 28.929688 24.042969 28.824219 23.898438 C 29.039062 23.507812 29.136719 23.191406 29.136719 23.191406 C 28.675781 21.886719 27.539062 18.558594 27.539062 18.558594 C 27.242188 15.738281 27.242188 12.203125 27.242188 12.203125 C 27.242188 12.203125 27.320312 11.597656 26.484375 11.066406 C 24.484375 9.800781 22.9375 9.285156 22.339844 9.117188 L 22.273438 8.316406 C 22.804688 7.882812 23.210938 7.183594 23.433594 6.433594 C 23.445312 6.394531 23.453125 6.355469 23.460938 6.316406 C 24.023438 6.40625 24.441406 6.460938 24.589844 6.460938 C 25.222656 6.460938 25.160156 5.953125 24.339844 5.511719 C 24.097656 5.382812 23.890625 5.285156 23.671875 5.207031 C 23.734375 4.855469 23.890625 3.960938 23.992188 3.460938 C 24.117188 2.828125 23.359375 2.671875 22.730469 2.828125 C 22.097656 2.988281 21.277344 2.609375 20.929688 2.386719 C 20.582031 2.164062 20.394531 2.261719 20.109375 2.574219 C 19.875 2.835938 19.453125 4.066406 19.308594 4.503906 L 17.835938 4.4375 C 17.835938 4.4375 16.511719 4.882812 17.582031 5.195312 C 17.855469 5.277344 18.398438 5.398438 19.066406 5.53125 C 19.042969 5.628906 19.023438 5.734375 19.007812 5.835938 C 18.875 6.824219 19.222656 7.746094 19.847656 8.28125 L 19.703125 8.851562 C 19.332031 9.019531 18.503906 9.410156 16.699219 10.308594 C 15.113281 11.101562 14.546875 11.652344 14.355469 11.984375 L 14.320312 11.910156 C 14.320312 11.910156 13.101562 17.210938 13.058594 20.117188 C 13.015625 23.023438 13.015625 25.757812 13.015625 25.757812 L 13.714844 25.757812 C 13.578125 26.457031 13.5 27.160156 13.648438 27.863281 C 13.691406 28.15625 13.941406 28.492188 14.238281 28.578125 C 14.617188 28.660156 14.617188 28.535156 14.996094 28.535156 C 14.996094 28.449219 15.609375 28.195312 15.625 28.15625 C 15.753906 27.863281 15.878906 27.398438 15.457031 26.808594 C 15.226562 26.484375 15.164062 26.390625 15.035156 26.011719 C 15.015625 25.933594 14.953125 25.84375 14.882812 25.757812 L 15.332031 25.757812 C 15.332031 25.757812 15.332031 25.546875 15.542969 22.304688 C 15.746094 19.1875 15.753906 19.382812 16.429688 17.1875 L 16.550781 17.464844 C 17.855469 22.222656 16.804688 23.148438 16.34375 24.578125 C 16.253906 24.851562 16.089844 26.558594 16.46875 26.683594 C 16.601562 26.726562 16.753906 26.761719 16.921875 26.792969 C 16.875 27.828125 16.875 29.695312 17.140625 32.746094 C 17.605469 38.046875 18.445312 40.636719 18.277344 41.941406 C 18.277344 41.941406 15.921875 41.878906 16.511719 43.351562 C 17.097656 44.824219 18.445312 45.496094 18.445312 45.496094 L 18.785156 45.457031 L 18.953125 45.875 L 19.667969 46.296875 C 19.667969 46.296875 20.257812 46.507812 20.59375 46.042969 C 20.929688 45.582031 20.847656 45.246094 20.847656 45.246094 L 21.097656 44.152344 C 21.097656 44.152344 21.097656 39.351562 20.550781 36.574219 C 20.003906 33.796875 20.257812 32.28125 20.46875 31.101562 C 20.546875 30.664062 20.710938 30.335938 20.886719 30.097656 C 21.261719 30.941406 21.710938 31.867188 22.238281 32.824219 C 22.339844 34.742188 22.570312 39.617188 22.402344 41.625 C 22.390625 41.769531 22.382812 41.902344 22.375 42.023438 L 21.8125 42.445312 C 21.8125 42.445312 21.75 43.140625 21.941406 43.265625 C 22.128906 43.394531 22.191406 43.898438 22.191406 43.898438 C 22.191406 43.898438 22.824219 44.53125 23.328125 45.351562 C 23.835938 46.171875 24.84375 46.109375 25.222656 45.980469 C 25.601562 45.855469 25.539062 46.359375 25.476562 45.097656 C 25.429688 44.164062 24.898438 43.230469 24.625 42.808594 C 25.113281 42.75 25.535156 42.667969 25.601562 42.550781 C 25.75 42.292969 25.734375 35.285156 25.730469 33.496094 C 25.753906 33.46875 25.769531 33.460938 25.769531 33.460938 C 25.769531 33.460938 26.078125 29.058594 24.109375 26.320312 C 24.558594 26.238281 24.921875 26.191406 25.097656 26.011719 C 25.480469 25.613281 25.265625 25 25.265625 25 C 25.265625 25 25.144531 24.84375 24.675781 23.398438 C 23.707031 20.410156 24.800781 17.128906 24.800781 17.128906 C 24.800781 17.128906 25.179688 19.90625 25.519531 20.957031 C 25.855469 22.011719 27.496094 25.210938 27.496094 25.210938 C 27.601562 25.164062 27.703125 25.109375 27.796875 25.050781 C 27.792969 25.261719 27.78125 25.488281 27.75 25.671875 C 27.664062 26.179688 27.664062 26.304688 28.085938 26.683594 C 28.15625 26.75 28.238281 26.792969 28.324219 26.816406 C 28.277344 27.417969 28.300781 28.585938 29.011719 29.691406 C 29.367188 30.25 30.648438 30.691406 31.664062 30.964844 C 29.726562 33.414062 27.8125 34.808594 27.8125 34.808594 C 27.8125 34.808594 28.195312 35.578125 29.105469 36.304688 C 28.957031 37.679688 28.699219 40.449219 28.886719 41.75 C 29.136719 43.519531 29.328125 42.195312 29.453125 43.078125 C 29.457031 43.097656 29.460938 43.117188 29.464844 43.140625 C 29.242188 43.109375 29.035156 43.152344 28.878906 43.28125 C 28.5 43.59375 28.5625 44.296875 29.019531 44.847656 C 29.472656 45.398438 30.152344 45.589844 30.53125 45.273438 C 30.632812 45.191406 30.703125 45.074219 30.742188 44.945312 L 30.78125 44.972656 C 30.78125 44.972656 30.96875 44.277344 30.84375 43.394531 C 30.722656 42.558594 30.546875 41.382812 31.597656 37.945312 C 31.625 38.839844 31.714844 39.898438 31.980469 40.425781 C 32.484375 41.4375 32.800781 41.4375 33.179688 42.003906 C 33.445312 42.402344 33.398438 43.113281 33.347656 43.5 C 32.800781 43.929688 32.558594 44.421875 32.671875 44.65625 C 33.074219 45.457031 33.707031 45.023438 34.355469 44.570312 C 34.777344 44.277344 35.050781 43.875 35.109375 43.523438 L 35.136719 43.519531 C 35.136719 43.519531 36.082031 43.773438 34.691406 41.625 C 33.878906 40.367188 33.9375 39.792969 34.25 38.65625 C 34.402344 38.121094 34.535156 37.714844 34.636719 37.429688 C 34.9375 37.371094 35.25 37.300781 35.578125 37.207031 C 35.578125 37.207031 35.007812 35.753906 35.199219 34.113281 C 35.273438 33.46875 35.492188 32.59375 35.734375 31.765625 C 36.6875 32.246094 36.886719 33.40625 36.714844 33.984375 C 36.558594 34.5 36.40625 34.929688 36.351562 35.074219 C 35.949219 35.203125 35.648438 35.65625 35.648438 36.195312 C 35.648438 36.835938 36.070312 37.355469 36.585938 37.355469 C 37.105469 37.355469 37.523438 36.835938 37.523438 36.195312 C 37.523438 36.015625 37.492188 35.84375 37.429688 35.6875 C 38.300781 35 38.417969 34.050781 38.417969 34.050781 "/>
</g>
</svg>
