<?xml version="1.0" encoding="UTF-8"?>
<svg xmlns="http://www.w3.org/2000/svg" xmlns:xlink="http://www.w3.org/1999/xlink" width="50px" height="50px" viewBox="0 0 50 50" version="1.1">
<g id="surface1">
<path style=" stroke:none;fill-rule:evenodd;fill:rgb(92.54902%,10.980392%,14.117648%);fill-opacity:1;" d="M 25.148438 0.34375 C 38.84375 0.34375 49.949219 11.453125 49.949219 25.148438 C 49.949219 38.84375 38.84375 49.949219 25.148438 49.949219 C 11.453125 49.949219 0.34375 38.84375 0.34375 25.148438 C 0.34375 11.453125 11.453125 0.34375 25.148438 0.34375 "/>
<path style=" stroke:none;fill-rule:evenodd;fill:rgb(100%,100%,100%);fill-opacity:1;" d="M 25.148438 6.675781 C 14.949219 6.675781 6.675781 14.949219 6.675781 25.148438 C 6.675781 35.34375 14.949219 43.617188 25.148438 43.617188 C 35.34375 43.617188 43.617188 35.34375 43.617188 25.148438 C 43.617188 14.949219 35.34375 6.675781 25.148438 6.675781 "/>
<path style=" stroke:none;fill-rule:evenodd;fill:rgb(13.725491%,12.156863%,12.54902%);fill-opacity:1;" d="M 35.378906 25.65625 L 35.378906 31.722656 C 35.378906 32.527344 35.574219 33.175781 35.964844 33.679688 C 36.339844 34.210938 36.964844 34.464844 37.808594 34.464844 C 38.140625 34.464844 38.492188 34.425781 38.824219 34.347656 C 39.15625 34.269531 39.46875 34.152344 39.800781 34.015625 L 39.316406 32.585938 C 39.058594 32.683594 38.863281 32.761719 38.6875 32.785156 C 38.511719 32.820312 38.355469 32.84375 38.199219 32.84375 C 37.902344 32.84375 37.691406 32.742188 37.570312 32.527344 C 37.433594 32.3125 37.375 32.019531 37.375 31.644531 L 37.375 25.65625 L 39.488281 25.65625 L 39.488281 24.09375 L 37.375 24.09375 L 37.375 21.941406 L 35.378906 21.941406 L 35.378906 24.09375 L 34.144531 24.09375 L 33.972656 25.65625 Z M 28.472656 22.175781 L 32.347656 22.175781 L 32.347656 20.570312 L 26.53125 20.570312 L 26.53125 27.476562 L 27.980469 27.476562 C 28.375 27.324219 28.707031 27.242188 28.960938 27.242188 C 29.527344 27.242188 29.960938 27.4375 30.292969 27.851562 C 30.625 28.261719 30.78125 28.964844 30.78125 30.003906 C 30.78125 30.511719 30.722656 30.941406 30.625 31.273438 C 30.527344 31.628906 30.371094 31.902344 30.195312 32.117188 C 30.019531 32.332031 29.804688 32.46875 29.550781 32.546875 C 29.292969 32.644531 29 32.683594 28.707031 32.683594 C 28.414062 32.683594 28.0625 32.625 27.667969 32.527344 C 27.257812 32.429688 26.925781 32.292969 26.671875 32.15625 L 26.0625 33.664062 C 26.183594 33.738281 26.339844 33.820312 26.554688 33.898438 C 26.75 33.996094 26.964844 34.074219 27.21875 34.132812 C 27.476562 34.210938 27.726562 34.269531 28.019531 34.324219 C 28.292969 34.382812 28.570312 34.40625 28.84375 34.40625 C 29.351562 34.40625 29.839844 34.324219 30.332031 34.171875 C 30.800781 34.015625 31.230469 33.761719 31.601562 33.390625 C 31.976562 33.039062 32.265625 32.566406 32.484375 32 C 32.699219 31.433594 32.816406 30.707031 32.816406 29.867188 C 32.816406 28.554688 32.523438 27.535156 31.933594 26.792969 C 31.347656 26.050781 30.527344 25.675781 29.46875 25.675781 C 29.3125 25.675781 29.160156 25.699219 28.980469 25.71875 C 28.804688 25.734375 28.625 25.777344 28.472656 25.8125 Z M 22.058594 33.152344 C 22.058594 33.507812 22.136719 33.761719 22.3125 33.9375 C 22.464844 34.113281 22.585938 34.210938 22.683594 34.269531 L 21.761719 36.925781 L 23.035156 36.925781 L 24.363281 34.269531 C 24.503906 34.015625 24.582031 33.796875 24.621094 33.625 C 24.660156 33.449219 24.679688 33.289062 24.679688 33.152344 C 24.679688 32.785156 24.5625 32.46875 24.308594 32.214844 C 24.054688 31.960938 23.742188 31.84375 23.367188 31.84375 C 22.996094 31.84375 22.683594 31.960938 22.429688 32.214844 C 22.175781 32.46875 22.058594 32.785156 22.058594 33.152344 Z M 15.582031 16.59375 L 21.246094 16.59375 L 21.246094 14.246094 L 12.746094 14.246094 L 12.746094 24.34375 L 14.863281 24.34375 C 15.4375 24.113281 15.921875 24 16.296875 24 C 17.125 24 17.753906 24.285156 18.238281 24.886719 C 18.726562 25.488281 18.953125 26.519531 18.953125 28.03125 C 18.953125 28.777344 18.871094 29.40625 18.726562 29.894531 C 18.582031 30.410156 18.355469 30.808594 18.097656 31.125 C 17.839844 31.4375 17.527344 31.636719 17.152344 31.75 C 16.78125 31.894531 16.351562 31.953125 15.921875 31.953125 C 15.496094 31.953125 14.980469 31.867188 14.40625 31.722656 C 13.804688 31.578125 13.320312 31.382812 12.949219 31.179688 L 12.0625 33.382812 C 12.230469 33.496094 12.464844 33.609375 12.777344 33.726562 C 13.0625 33.871094 13.378906 33.984375 13.75 34.070312 C 14.121094 34.183594 14.492188 34.269531 14.921875 34.355469 C 15.324219 34.441406 15.722656 34.464844 16.125 34.464844 C 16.867188 34.464844 17.582031 34.355469 18.296875 34.125 C 18.984375 33.898438 19.613281 33.527344 20.15625 32.980469 C 20.699219 32.464844 21.128906 31.78125 21.445312 30.953125 C 21.757812 30.121094 21.929688 29.0625 21.929688 27.835938 C 21.929688 25.917969 21.503906 24.429688 20.644531 23.339844 C 19.785156 22.257812 18.582031 21.710938 17.039062 21.710938 C 16.8125 21.710938 16.582031 21.742188 16.324219 21.769531 C 16.066406 21.796875 15.808594 21.855469 15.582031 21.914062 Z M 15.582031 16.59375 "/>
</g>
</svg>
