<?xml version="1.0" encoding="UTF-8"?>
<svg xmlns="http://www.w3.org/2000/svg" xmlns:xlink="http://www.w3.org/1999/xlink" width="50px" height="50px" viewBox="0 0 50 50" version="1.1">
<g id="surface1">
<path style=" stroke:none;fill-rule:nonzero;fill:rgb(100%,100%,100%);fill-opacity:1;" d="M 48.730469 49.980469 C 49.070312 49.980469 49.386719 49.875 49.628906 49.683594 C 49.867188 49.492188 50 49.238281 50 48.96875 L 50 1.03125 C 50 0.761719 49.867188 0.507812 49.628906 0.316406 C 49.386719 0.125 49.070312 0.0195312 48.730469 0.0195312 L 1.269531 0.0195312 C 0.570312 0.0195312 0 0.472656 0 1.03125 L 0 48.96875 C 0 49.238281 0.132812 49.492188 0.371094 49.683594 C 0.613281 49.875 0.929688 49.980469 1.269531 49.980469 Z M 48.730469 49.980469 "/>
<path style=" stroke:none;fill-rule:nonzero;fill:rgb(9.019608%,43.529412%,75.686276%);fill-opacity:1;" d="M 1.269531 49.648438 C 1.042969 49.648438 0.828125 49.574219 0.667969 49.449219 C 0.507812 49.320312 0.417969 49.148438 0.417969 48.96875 L 0.417969 1.03125 C 0.417969 0.851562 0.507812 0.679688 0.667969 0.550781 C 0.828125 0.425781 1.042969 0.351562 1.269531 0.351562 L 48.730469 0.351562 C 48.957031 0.351562 49.171875 0.425781 49.332031 0.550781 C 49.492188 0.679688 49.582031 0.851562 49.582031 1.03125 L 49.582031 48.96875 C 49.582031 49.34375 49.199219 49.648438 48.730469 49.648438 L 1.269531 49.648438 "/>
<path style=" stroke:none;fill-rule:nonzero;fill:rgb(100%,100%,100%);fill-opacity:1;" d="M 44.808594 22.664062 C 43.203125 21.046875 41.066406 20.15625 38.792969 20.15625 C 37.703125 20.15625 36.664062 20.363281 35.707031 20.742188 L 33.738281 16.332031 L 34.53125 15.0625 C 35.925781 15.347656 37.304688 15.625 37.378906 15.625 C 38.160156 15.625 38.789062 14.988281 38.789062 14.203125 C 38.789062 13.417969 38.160156 12.785156 37.378906 12.785156 C 37.339844 12.785156 31.5625 12.789062 31.5625 12.789062 C 31.105469 12.789062 30.738281 13.160156 30.738281 13.617188 C 30.738281 14.074219 31.105469 14.445312 31.5625 14.445312 L 31.5625 14.453125 C 31.5625 14.453125 32.425781 14.632812 33.488281 14.851562 L 32.847656 15.871094 L 17.863281 15.871094 C 18.253906 14.699219 18.507812 13.925781 18.507812 13.925781 C 18.515625 13.910156 18.515625 13.898438 18.519531 13.882812 C 18.523438 13.871094 18.527344 13.855469 18.527344 13.839844 C 18.53125 13.824219 18.527344 13.8125 18.527344 13.796875 C 18.53125 13.78125 18.53125 13.769531 18.53125 13.753906 C 18.527344 13.738281 18.527344 13.726562 18.523438 13.710938 C 18.519531 13.699219 18.519531 13.683594 18.515625 13.671875 C 18.511719 13.65625 18.507812 13.644531 18.5 13.632812 C 18.496094 13.617188 18.492188 13.605469 18.488281 13.589844 C 18.480469 13.578125 18.472656 13.570312 18.464844 13.554688 C 18.457031 13.542969 18.453125 13.53125 18.441406 13.519531 C 18.433594 13.507812 18.425781 13.5 18.414062 13.488281 C 18.40625 13.480469 18.398438 13.46875 18.386719 13.457031 C 18.375 13.449219 18.363281 13.441406 18.351562 13.433594 C 18.339844 13.421875 18.328125 13.414062 18.316406 13.40625 C 18.304688 13.398438 18.289062 13.394531 18.277344 13.386719 C 18.265625 13.382812 18.25 13.375 18.238281 13.371094 L 15.796875 12.515625 L 16.527344 10.582031 L 22.417969 10.515625 L 24.160156 12.105469 C 24.339844 12.265625 24.617188 12.253906 24.777344 12.074219 C 24.941406 11.894531 24.925781 11.613281 24.746094 11.453125 L 22.875 9.75 L 22.75 9.636719 L 22.578125 9.636719 L 16.21875 9.707031 L 15.921875 9.710938 L 14.660156 13.046875 L 15.085938 13.195312 L 17.546875 14.058594 L 15.332031 20.742188 C 14.359375 20.359375 13.3125 20.15625 12.234375 20.15625 C 7.542969 20.15625 3.730469 23.996094 3.730469 28.714844 C 3.730469 31.003906 4.613281 33.152344 6.21875 34.769531 C 7.828125 36.382812 9.964844 37.273438 12.234375 37.273438 C 14.507812 37.273438 16.644531 36.382812 18.25 34.769531 C 19.855469 33.152344 20.742188 31.003906 20.742188 28.714844 C 20.742188 26.429688 19.855469 24.28125 18.25 22.664062 C 17.617188 22.027344 16.902344 21.503906 16.132812 21.105469 C 16.335938 20.480469 16.546875 19.851562 16.75 19.238281 L 23.21875 26.191406 C 22.773438 26.746094 22.503906 27.449219 22.503906 28.214844 C 22.503906 29.074219 22.835938 29.878906 23.441406 30.488281 C 24.046875 31.09375 24.847656 31.429688 25.699219 31.429688 C 25.828125 31.429688 25.953125 31.417969 26.078125 31.402344 L 26.238281 32.121094 L 25.203125 32.121094 L 25.203125 33.125 L 28.070312 33.125 L 28.070312 32.121094 L 26.75 32.121094 L 26.570312 31.308594 C 27.089844 31.160156 27.566406 30.882812 27.960938 30.488281 C 28.429688 30.015625 28.734375 29.417969 28.84375 28.773438 L 30.289062 28.828125 C 30.316406 31.074219 31.199219 33.179688 32.777344 34.769531 C 34.382812 36.382812 36.519531 37.273438 38.792969 37.273438 C 41.066406 37.273438 43.203125 36.382812 44.808594 34.769531 C 46.414062 33.152344 47.300781 31.003906 47.300781 28.714844 C 47.300781 26.429688 46.414062 24.28125 44.808594 22.664062 Z M 17.191406 23.726562 C 18.515625 25.058594 19.246094 26.832031 19.246094 28.714844 C 19.246094 32.605469 16.101562 35.769531 12.234375 35.769531 C 10.363281 35.769531 8.601562 35.035156 7.277344 33.703125 C 5.953125 32.371094 5.222656 30.601562 5.222656 28.714844 C 5.222656 26.832031 5.953125 25.058594 7.277344 23.726562 C 8.601562 22.394531 10.363281 21.660156 12.234375 21.660156 C 13.148438 21.660156 14.035156 21.835938 14.859375 22.171875 L 13.316406 26.820312 C 13.199219 27.140625 12.742188 28.054688 12.082031 28.304688 C 11.855469 28.390625 11.742188 28.640625 11.828125 28.871094 C 11.910156 29.097656 12.164062 29.210938 12.386719 29.125 C 13.5625 28.683594 14.117188 27.171875 14.140625 27.109375 C 14.144531 27.105469 14.824219 25.042969 15.652344 22.554688 C 16.207031 22.867188 16.726562 23.257812 17.191406 23.726562 Z M 34.910156 21.101562 C 32.382812 22.414062 30.585938 24.964844 30.320312 27.949219 L 28.882812 27.894531 C 28.808594 27.15625 28.488281 26.472656 27.960938 25.941406 C 27.910156 25.890625 27.859375 25.84375 27.804688 25.796875 L 33.179688 17.222656 Z M 35.523438 22.472656 L 38.105469 28.25 L 31.816406 28.007812 C 31.976562 26.390625 32.679688 24.890625 33.835938 23.726562 C 34.339844 23.21875 34.910156 22.796875 35.523438 22.472656 Z M 25.078125 26.902344 L 24.375 26.144531 C 24.527344 26.046875 24.6875 25.964844 24.855469 25.902344 Z M 25.339844 25.78125 C 25.457031 25.761719 25.578125 25.75 25.699219 25.75 C 26 25.75 26.285156 25.804688 26.558594 25.90625 L 25.679688 27.308594 Z M 27.398438 26.445312 C 27.410156 26.453125 27.421875 26.460938 27.429688 26.472656 C 27.8125 26.855469 28.046875 27.339844 28.121094 27.867188 L 26.546875 27.808594 Z M 17.53125 16.871094 L 32.21875 16.871094 L 26.960938 25.257812 C 26.570312 25.089844 26.140625 25 25.699219 25 C 25.523438 25 25.347656 25.015625 25.175781 25.046875 L 24.820312 23.445312 L 25.949219 23.445312 L 25.949219 22.441406 L 23.082031 22.441406 L 23.082031 23.445312 L 24.3125 23.445312 L 24.691406 25.164062 C 24.390625 25.265625 24.113281 25.410156 23.859375 25.59375 L 17.0625 18.292969 C 17.226562 17.796875 17.386719 17.316406 17.53125 16.871094 Z M 25.699219 30.675781 C 25.046875 30.675781 24.433594 30.421875 23.972656 29.957031 C 23.507812 29.488281 23.253906 28.871094 23.253906 28.214844 C 23.253906 27.675781 23.425781 27.167969 23.738281 26.746094 L 25.453125 28.589844 L 25.914062 30.664062 C 25.84375 30.671875 25.773438 30.675781 25.699219 30.675781 Z M 26.40625 30.570312 L 25.980469 28.664062 L 28.089844 28.746094 C 27.898438 29.617188 27.246094 30.316406 26.40625 30.570312 Z M 38.792969 35.769531 C 36.921875 35.769531 35.160156 35.035156 33.835938 33.703125 C 32.550781 32.410156 31.828125 30.707031 31.785156 28.886719 L 38.777344 29.152344 L 39.207031 29.09375 L 39.191406 28.535156 L 36.320312 22.113281 C 37.101562 21.816406 37.933594 21.660156 38.792969 21.660156 C 40.664062 21.660156 42.425781 22.394531 43.75 23.726562 C 45.074219 25.058594 45.804688 26.832031 45.804688 28.714844 C 45.804688 32.605469 42.660156 35.769531 38.792969 35.769531 "/>
</g>
</svg>
