<?xml version="1.0" encoding="UTF-8"?>
<svg xmlns="http://www.w3.org/2000/svg" xmlns:xlink="http://www.w3.org/1999/xlink" width="50px" height="50px" viewBox="0 0 50 50" version="1.1">
<g id="surface1">
<path style=" stroke:none;fill-rule:nonzero;fill:rgb(0%,0%,0%);fill-opacity:1;" d="M 48.730469 49.980469 C 49.070312 49.980469 49.386719 49.875 49.628906 49.683594 C 49.867188 49.492188 50 49.238281 50 48.96875 L 50 1.03125 C 50 0.761719 49.867188 0.507812 49.628906 0.316406 C 49.386719 0.125 49.070312 0.0195312 48.730469 0.0195312 L 1.269531 0.0195312 C 0.570312 0.0195312 0 0.472656 0 1.03125 L 0 48.96875 C 0 49.238281 0.132812 49.492188 0.371094 49.683594 C 0.613281 49.875 0.929688 49.980469 1.269531 49.980469 Z M 48.730469 49.980469 "/>
<path style=" stroke:none;fill-rule:nonzero;fill:rgb(100%,100%,100%);fill-opacity:1;" d="M 1.269531 49.648438 C 1.042969 49.648438 0.828125 49.574219 0.667969 49.449219 C 0.507812 49.320312 0.417969 49.148438 0.417969 48.96875 L 0.417969 1.03125 C 0.417969 0.851562 0.507812 0.679688 0.667969 0.550781 C 0.828125 0.425781 1.042969 0.351562 1.269531 0.351562 L 48.730469 0.351562 C 48.957031 0.351562 49.171875 0.425781 49.332031 0.550781 C 49.492188 0.679688 49.582031 0.851562 49.582031 1.03125 L 49.582031 48.96875 C 49.582031 49.34375 49.199219 49.648438 48.730469 49.648438 L 1.269531 49.648438 "/>
<path style=" stroke:none;fill-rule:nonzero;fill:rgb(9.019608%,43.529412%,75.686276%);fill-opacity:1;" d="M 6.183594 20.929688 C 6.183594 10.546875 14.550781 2.128906 24.871094 2.128906 C 35.191406 2.128906 43.554688 10.546875 43.554688 20.929688 C 43.554688 31.316406 35.191406 39.734375 24.871094 39.734375 C 14.550781 39.734375 6.183594 31.316406 6.183594 20.929688 "/>
<path style=" stroke:none;fill-rule:nonzero;fill:rgb(100%,100%,100%);fill-opacity:1;" d="M 38.84375 19.734375 C 37.675781 18.558594 36.121094 17.914062 34.46875 17.914062 C 33.679688 17.914062 32.921875 18.066406 32.226562 18.339844 L 30.792969 15.132812 L 31.371094 14.210938 C 32.386719 14.417969 33.386719 14.617188 33.441406 14.617188 C 34.007812 14.617188 34.46875 14.15625 34.46875 13.585938 C 34.46875 13.015625 34.007812 12.554688 33.441406 12.554688 C 33.414062 12.554688 29.210938 12.558594 29.210938 12.558594 C 28.882812 12.558594 28.613281 12.828125 28.613281 13.160156 C 28.613281 13.492188 28.882812 13.761719 29.210938 13.761719 L 29.210938 13.769531 C 29.210938 13.769531 29.839844 13.898438 30.613281 14.054688 L 30.148438 14.796875 L 19.253906 14.796875 C 19.539062 13.945312 19.722656 13.382812 19.722656 13.382812 C 19.726562 13.371094 19.726562 13.363281 19.730469 13.351562 C 19.734375 13.34375 19.734375 13.332031 19.738281 13.320312 C 19.738281 13.308594 19.738281 13.300781 19.738281 13.289062 C 19.738281 13.277344 19.738281 13.269531 19.738281 13.257812 C 19.738281 13.246094 19.734375 13.238281 19.734375 13.226562 C 19.730469 13.21875 19.730469 13.207031 19.726562 13.199219 C 19.726562 13.1875 19.722656 13.179688 19.71875 13.167969 C 19.714844 13.160156 19.710938 13.148438 19.707031 13.140625 C 19.703125 13.132812 19.695312 13.125 19.691406 13.113281 C 19.6875 13.105469 19.679688 13.097656 19.675781 13.089844 C 19.667969 13.082031 19.660156 13.074219 19.65625 13.066406 C 19.648438 13.058594 19.640625 13.050781 19.632812 13.042969 C 19.625 13.035156 19.617188 13.03125 19.609375 13.023438 C 19.601562 13.019531 19.59375 13.011719 19.582031 13.007812 C 19.574219 13 19.5625 12.996094 19.554688 12.992188 C 19.542969 12.988281 19.535156 12.984375 19.527344 12.980469 L 17.75 12.359375 L 18.28125 10.953125 L 22.566406 10.90625 L 23.832031 12.058594 C 23.960938 12.175781 24.164062 12.167969 24.28125 12.035156 C 24.398438 11.90625 24.386719 11.703125 24.257812 11.585938 L 22.898438 10.347656 L 22.804688 10.265625 L 22.683594 10.265625 L 18.058594 10.316406 L 17.84375 10.320312 L 16.925781 12.746094 L 17.234375 12.851562 L 19.023438 13.480469 L 17.414062 18.335938 C 16.707031 18.058594 15.945312 17.914062 15.164062 17.914062 C 11.75 17.914062 8.976562 20.703125 8.976562 24.136719 C 8.976562 25.796875 9.621094 27.359375 10.789062 28.535156 C 11.957031 29.710938 13.511719 30.359375 15.164062 30.359375 C 16.8125 30.359375 18.367188 29.710938 19.535156 28.535156 C 20.703125 27.359375 21.347656 25.796875 21.347656 24.136719 C 21.347656 22.472656 20.703125 20.910156 19.535156 19.734375 C 19.074219 19.273438 18.554688 18.894531 17.996094 18.601562 C 18.144531 18.148438 18.296875 17.691406 18.445312 17.246094 L 23.148438 22.300781 C 22.824219 22.703125 22.628906 23.214844 22.628906 23.769531 C 22.628906 24.394531 22.871094 24.980469 23.308594 25.421875 C 23.75 25.867188 24.332031 26.109375 24.953125 26.109375 C 25.042969 26.109375 25.136719 26.101562 25.226562 26.089844 L 25.34375 26.609375 L 24.589844 26.609375 L 24.589844 27.339844 L 26.675781 27.339844 L 26.675781 26.609375 L 25.714844 26.609375 L 25.582031 26.019531 C 25.960938 25.914062 26.308594 25.710938 26.59375 25.421875 C 26.9375 25.078125 27.15625 24.648438 27.238281 24.179688 L 28.289062 24.21875 C 28.308594 25.851562 28.949219 27.378906 30.097656 28.535156 C 31.265625 29.710938 32.816406 30.359375 34.46875 30.359375 C 36.121094 30.359375 37.675781 29.710938 38.84375 28.535156 C 40.011719 27.359375 40.65625 25.796875 40.65625 24.136719 C 40.65625 22.472656 40.011719 20.910156 38.84375 19.734375 Z M 18.765625 20.507812 C 19.730469 21.476562 20.257812 22.765625 20.257812 24.136719 C 20.257812 26.964844 17.972656 29.265625 15.164062 29.265625 C 13.800781 29.265625 12.519531 28.730469 11.558594 27.761719 C 10.59375 26.792969 10.066406 25.503906 10.066406 24.136719 C 10.066406 22.765625 10.59375 21.476562 11.558594 20.507812 C 12.519531 19.539062 13.800781 19.007812 15.164062 19.007812 C 15.824219 19.007812 16.472656 19.136719 17.070312 19.378906 L 15.949219 22.757812 C 15.863281 22.992188 15.53125 23.65625 15.050781 23.835938 C 14.886719 23.898438 14.804688 24.082031 14.863281 24.246094 C 14.925781 24.414062 15.109375 24.496094 15.273438 24.433594 C 16.125 24.113281 16.53125 23.015625 16.546875 22.96875 C 16.550781 22.964844 17.046875 21.464844 17.644531 19.65625 C 18.050781 19.882812 18.429688 20.167969 18.765625 20.507812 Z M 31.648438 18.601562 C 29.808594 19.554688 28.503906 21.40625 28.3125 23.578125 L 27.265625 23.539062 C 27.210938 23.003906 26.980469 22.503906 26.59375 22.117188 C 26.558594 22.082031 26.519531 22.046875 26.480469 22.015625 L 30.386719 15.78125 Z M 32.09375 19.597656 L 33.96875 23.796875 L 29.398438 23.621094 C 29.515625 22.445312 30.023438 21.355469 30.867188 20.507812 C 31.234375 20.140625 31.648438 19.832031 32.09375 19.597656 Z M 24.5 22.816406 L 23.988281 22.265625 C 24.097656 22.195312 24.214844 22.136719 24.339844 22.09375 Z M 24.6875 22 C 24.777344 21.988281 24.863281 21.980469 24.953125 21.980469 C 25.167969 21.980469 25.378906 22.019531 25.574219 22.09375 L 24.9375 23.113281 Z M 26.1875 22.484375 C 26.195312 22.492188 26.203125 22.496094 26.210938 22.503906 C 26.488281 22.78125 26.660156 23.136719 26.710938 23.519531 L 25.566406 23.476562 Z M 19.011719 15.527344 L 29.691406 15.527344 L 25.867188 21.621094 C 25.582031 21.5 25.273438 21.433594 24.953125 21.433594 C 24.820312 21.433594 24.695312 21.445312 24.570312 21.46875 L 24.3125 20.304688 L 25.132812 20.304688 L 25.132812 19.574219 L 23.046875 19.574219 L 23.046875 20.304688 L 23.941406 20.304688 L 24.21875 21.554688 C 24 21.628906 23.796875 21.734375 23.613281 21.863281 L 18.671875 16.558594 C 18.792969 16.195312 18.90625 15.851562 19.011719 15.527344 Z M 24.953125 25.5625 C 24.476562 25.5625 24.03125 25.375 23.695312 25.035156 C 23.359375 24.699219 23.171875 24.25 23.171875 23.769531 C 23.171875 23.382812 23.296875 23.011719 23.523438 22.703125 L 24.773438 24.042969 L 25.105469 25.554688 C 25.054688 25.558594 25.003906 25.5625 24.953125 25.5625 Z M 25.464844 25.484375 L 25.15625 24.097656 L 26.6875 24.15625 C 26.550781 24.789062 26.074219 25.300781 25.464844 25.484375 Z M 34.46875 29.265625 C 33.109375 29.265625 31.828125 28.730469 30.867188 27.761719 C 29.933594 26.824219 29.40625 25.582031 29.375 24.261719 L 34.457031 24.453125 L 34.773438 24.410156 L 34.761719 24.003906 L 32.671875 19.335938 C 33.238281 19.121094 33.847656 19.007812 34.46875 19.007812 C 35.832031 19.007812 37.113281 19.539062 38.074219 20.507812 C 39.035156 21.476562 39.566406 22.765625 39.566406 24.136719 C 39.566406 26.964844 37.28125 29.265625 34.46875 29.265625 "/>
<path style=" stroke:none;fill-rule:nonzero;fill:rgb(0%,0%,0%);fill-opacity:1;" d="M 3.066406 41.4375 L 5.90625 41.4375 L 5.90625 42.53125 L 3.789062 42.53125 L 3.789062 43.640625 L 5.699219 43.640625 L 5.699219 44.675781 L 3.789062 44.675781 L 3.789062 46.949219 L 3.777344 46.949219 L 3.789062 46.949219 L 3.765625 46.949219 L 3.777344 46.949219 L 3.75 46.949219 L 3.765625 46.949219 L 3.738281 46.949219 L 3.75 46.949219 L 3.726562 46.949219 L 3.738281 46.949219 L 3.714844 46.949219 L 3.726562 46.949219 L 3.703125 46.949219 L 3.714844 46.949219 L 3.691406 46.949219 L 3.703125 46.949219 L 3.679688 46.949219 L 3.691406 46.949219 L 3.664062 46.949219 L 3.679688 46.949219 L 3.652344 46.949219 L 3.664062 46.949219 L 3.640625 46.949219 L 3.652344 46.949219 L 3.628906 46.949219 L 3.640625 46.949219 L 3.617188 46.949219 L 3.628906 46.949219 L 3.605469 46.949219 L 3.617188 46.949219 L 3.59375 46.949219 L 3.605469 46.949219 L 3.578125 46.949219 L 3.59375 46.949219 L 3.566406 46.949219 L 3.578125 46.949219 L 3.554688 46.949219 L 3.566406 46.949219 L 3.542969 46.949219 L 3.554688 46.949219 L 3.53125 46.949219 L 3.542969 46.949219 L 3.519531 46.949219 L 3.53125 46.949219 L 3.507812 46.949219 L 3.519531 46.949219 L 3.496094 46.949219 L 3.507812 46.949219 L 3.480469 46.949219 L 3.496094 46.949219 L 3.46875 46.949219 L 3.480469 46.949219 L 3.457031 46.949219 L 3.46875 46.949219 L 3.445312 46.949219 L 3.457031 46.949219 L 3.433594 46.949219 L 3.445312 46.949219 L 3.421875 46.949219 L 3.433594 46.949219 L 3.410156 46.949219 L 3.421875 46.949219 L 3.394531 46.949219 L 3.410156 46.949219 L 3.382812 46.949219 L 3.394531 46.949219 L 3.371094 46.949219 L 3.382812 46.949219 L 3.359375 46.949219 L 3.371094 46.949219 L 3.347656 46.949219 L 3.359375 46.949219 L 3.335938 46.949219 L 3.347656 46.949219 L 3.324219 46.949219 L 3.335938 46.949219 L 3.3125 46.949219 L 3.324219 46.949219 L 3.296875 46.949219 L 3.3125 46.949219 L 3.285156 46.949219 L 3.296875 46.949219 L 3.273438 46.949219 L 3.285156 46.949219 L 3.261719 46.949219 L 3.273438 46.949219 L 3.25 46.949219 L 3.261719 46.949219 L 3.238281 46.949219 L 3.25 46.949219 L 3.226562 46.949219 L 3.238281 46.949219 L 3.210938 46.949219 L 3.226562 46.949219 L 3.199219 46.949219 L 3.210938 46.949219 L 3.1875 46.949219 L 3.199219 46.949219 L 3.175781 46.949219 L 3.1875 46.949219 L 3.164062 46.949219 L 3.175781 46.949219 L 3.152344 46.949219 L 3.164062 46.949219 L 3.140625 46.949219 L 3.152344 46.949219 L 3.128906 46.949219 L 3.140625 46.949219 L 3.113281 46.949219 L 3.128906 46.949219 L 3.101562 46.949219 L 3.113281 46.949219 L 3.089844 46.949219 L 3.101562 46.949219 L 3.078125 46.949219 L 3.089844 46.949219 L 3.066406 46.949219 L 3.078125 46.949219 L 3.054688 46.949219 L 3.066406 46.949219 L 3.042969 46.949219 L 3.054688 46.949219 L 3.027344 46.949219 L 3.042969 46.949219 L 3.015625 46.949219 L 3.027344 46.949219 L 3.003906 46.949219 L 3.015625 46.949219 L 2.992188 46.949219 L 3.003906 46.949219 L 2.980469 46.949219 L 2.992188 46.949219 L 2.96875 46.949219 L 2.980469 46.949219 L 2.957031 46.949219 L 2.96875 46.949219 L 2.941406 46.949219 L 2.957031 46.949219 L 2.929688 46.949219 L 2.941406 46.949219 L 2.917969 46.949219 L 2.929688 46.949219 L 2.90625 46.949219 L 2.917969 46.949219 L 2.894531 46.949219 L 2.90625 46.949219 L 2.882812 46.949219 L 2.894531 46.949219 L 2.871094 46.949219 L 2.882812 46.949219 L 2.859375 46.949219 L 2.871094 46.949219 L 2.84375 46.949219 L 2.859375 46.949219 L 2.832031 46.949219 L 2.84375 46.949219 L 2.820312 46.949219 L 2.832031 46.949219 L 2.820312 46.949219 L 2.820312 41.4375 Z M 3.066406 41.4375 "/>
<path style=" stroke:none;fill-rule:nonzero;fill:rgb(0%,0%,0%);fill-opacity:1;" d="M 7.65625 42.847656 C 8.214844 42.804688 8.679688 42.96875 9.054688 43.335938 L 9.066406 43.367188 C 9.097656 43.414062 9.121094 43.460938 9.136719 43.511719 C 9.179688 43.585938 9.210938 43.652344 9.222656 43.710938 L 9.222656 43.769531 C 9.25 43.863281 9.261719 43.945312 9.261719 44.015625 L 9.261719 45.425781 C 9.253906 45.660156 9.261719 45.859375 9.285156 46.015625 C 9.386719 46.136719 9.5 46.214844 9.628906 46.246094 L 9.605469 46.289062 L 9.578125 46.359375 L 9.554688 46.417969 L 9.53125 46.503906 L 9.507812 46.546875 L 9.457031 46.691406 L 9.433594 46.734375 L 9.421875 46.777344 L 9.40625 46.820312 L 9.394531 46.847656 L 9.308594 47.066406 C 8.945312 47.066406 8.671875 46.933594 8.488281 46.664062 C 8.140625 47.070312 7.707031 47.171875 7.191406 46.964844 C 6.714844 46.8125 6.4375 46.46875 6.359375 45.941406 C 6.363281 45.167969 6.671875 44.714844 7.289062 44.589844 C 7.324219 44.566406 7.355469 44.550781 7.386719 44.546875 L 7.425781 44.546875 C 7.4375 44.535156 7.449219 44.53125 7.460938 44.53125 L 7.496094 44.515625 L 7.71875 44.472656 L 7.816406 44.460938 L 7.851562 44.445312 L 8.0625 44.429688 C 8.171875 44.410156 8.261719 44.40625 8.332031 44.417969 C 8.359375 43.882812 8.113281 43.699219 7.582031 43.871094 L 7.546875 43.882812 L 7.449219 43.898438 L 7.363281 43.941406 L 7.328125 43.957031 L 7.203125 44 C 7.140625 44.050781 7.082031 44.082031 7.03125 44.101562 C 6.964844 44.164062 6.894531 44.207031 6.824219 44.230469 L 6.738281 44.042969 L 6.714844 44.027344 L 6.703125 43.984375 L 6.675781 43.957031 L 6.664062 43.914062 C 6.613281 43.839844 6.574219 43.773438 6.554688 43.710938 C 6.523438 43.675781 6.503906 43.636719 6.492188 43.597656 C 6.441406 43.535156 6.410156 43.472656 6.394531 43.410156 L 6.421875 43.394531 L 6.457031 43.367188 L 6.480469 43.351562 C 6.535156 43.308594 6.585938 43.273438 6.628906 43.25 C 6.660156 43.222656 6.695312 43.210938 6.726562 43.207031 L 6.75 43.179688 C 6.828125 43.136719 6.890625 43.109375 6.945312 43.09375 L 6.972656 43.0625 L 7.007812 43.0625 C 7.046875 43.035156 7.078125 43.015625 7.105469 43.007812 L 7.144531 43.007812 C 7.199219 42.972656 7.25 42.953125 7.300781 42.949219 C 7.414062 42.894531 7.519531 42.863281 7.621094 42.863281 Z M 8.246094 45.222656 L 8.207031 45.222656 C 8.160156 45.238281 8.117188 45.25 8.085938 45.25 L 8.050781 45.25 C 8.035156 45.261719 8.023438 45.265625 8.011719 45.265625 L 7.964844 45.28125 L 7.925781 45.28125 L 7.878906 45.292969 L 7.804688 45.308594 C 7.792969 45.320312 7.78125 45.324219 7.765625 45.324219 L 7.683594 45.351562 C 7.566406 45.386719 7.476562 45.417969 7.414062 45.453125 C 7.328125 45.585938 7.300781 45.726562 7.339844 45.871094 C 7.542969 46.207031 7.835938 46.265625 8.21875 46.042969 L 8.316406 45.871094 L 8.332031 45.8125 L 8.332031 45.207031 L 8.292969 45.207031 Z M 8.246094 45.222656 "/>
<path style=" stroke:none;fill-rule:nonzero;fill:rgb(0%,0%,0%);fill-opacity:1;" d="M 10.4375 41.453125 L 11.148438 41.453125 L 11.148438 43.28125 C 11.550781 42.914062 11.972656 42.828125 12.40625 43.019531 C 12.800781 43.222656 13.066406 43.539062 13.203125 43.96875 L 13.203125 44.027344 C 13.253906 44.183594 13.277344 44.324219 13.277344 44.460938 L 13.277344 46.949219 L 12.359375 46.949219 L 12.359375 44.503906 L 12.347656 44.417969 C 12.320312 44.351562 12.304688 44.292969 12.296875 44.242188 C 12.140625 43.988281 11.9375 43.882812 11.683594 43.925781 C 11.496094 43.992188 11.347656 44.101562 11.230469 44.257812 L 11.21875 44.316406 C 11.179688 44.40625 11.15625 44.488281 11.148438 44.5625 L 11.148438 46.949219 L 10.226562 46.949219 L 10.226562 41.453125 Z M 10.4375 41.453125 "/>
<path style=" stroke:none;fill-rule:nonzero;fill:rgb(0%,0%,0%);fill-opacity:1;" d="M 15.898438 42.949219 L 16.179688 42.949219 L 16.179688 43.984375 C 15.707031 43.914062 15.367188 44.089844 15.164062 44.515625 L 15.164062 44.5625 C 15.125 44.671875 15.109375 44.785156 15.113281 44.890625 L 15.113281 46.9375 L 14.195312 46.9375 L 14.195312 43.019531 L 15.113281 43.019531 L 15.113281 43.394531 C 15.328125 43.136719 15.574219 42.988281 15.847656 42.949219 Z M 15.898438 42.949219 "/>
<path style=" stroke:none;fill-rule:nonzero;fill:rgb(0%,0%,0%);fill-opacity:1;" d="M 18.714844 42.949219 L 18.996094 42.949219 L 18.996094 43.984375 C 18.523438 43.914062 18.183594 44.089844 17.980469 44.515625 L 17.980469 44.5625 C 17.941406 44.671875 17.925781 44.785156 17.929688 44.890625 L 17.929688 46.9375 L 17.011719 46.9375 L 17.011719 43.019531 L 17.929688 43.019531 L 17.929688 43.394531 C 18.144531 43.136719 18.390625 42.988281 18.664062 42.949219 Z M 18.714844 42.949219 "/>
<path style=" stroke:none;fill-rule:nonzero;fill:rgb(0%,0%,0%);fill-opacity:1;" d="M 20.941406 42.847656 C 21.5 42.804688 21.964844 42.96875 22.335938 43.335938 L 22.347656 43.367188 C 22.382812 43.414062 22.40625 43.460938 22.421875 43.511719 C 22.464844 43.585938 22.496094 43.652344 22.507812 43.710938 L 22.507812 43.769531 C 22.535156 43.863281 22.546875 43.945312 22.546875 44.015625 L 22.546875 45.425781 C 22.539062 45.660156 22.546875 45.859375 22.570312 46.015625 C 22.671875 46.136719 22.785156 46.214844 22.914062 46.246094 L 22.886719 46.289062 L 22.863281 46.359375 L 22.839844 46.417969 L 22.816406 46.503906 L 22.789062 46.546875 L 22.742188 46.691406 L 22.71875 46.734375 L 22.703125 46.777344 L 22.691406 46.820312 L 22.679688 46.847656 L 22.59375 47.066406 C 22.230469 47.066406 21.957031 46.933594 21.773438 46.664062 C 21.425781 47.070312 20.992188 47.171875 20.476562 46.964844 C 20 46.8125 19.722656 46.46875 19.644531 45.941406 C 19.648438 45.167969 19.957031 44.714844 20.574219 44.589844 C 20.605469 44.566406 20.640625 44.550781 20.671875 44.546875 L 20.707031 44.546875 C 20.722656 44.535156 20.734375 44.53125 20.746094 44.53125 L 20.78125 44.515625 L 21.003906 44.472656 L 21.101562 44.460938 L 21.136719 44.445312 L 21.34375 44.429688 C 21.457031 44.410156 21.546875 44.40625 21.613281 44.417969 C 21.644531 43.882812 21.398438 43.699219 20.867188 43.871094 L 20.832031 43.882812 L 20.734375 43.898438 L 20.648438 43.941406 L 20.609375 43.957031 L 20.488281 44 C 20.425781 44.050781 20.367188 44.082031 20.316406 44.101562 C 20.246094 44.164062 20.179688 44.207031 20.109375 44.230469 L 20.023438 44.042969 L 20 44.027344 L 19.988281 43.984375 L 19.960938 43.957031 L 19.949219 43.914062 C 19.898438 43.839844 19.859375 43.773438 19.839844 43.710938 C 19.808594 43.675781 19.785156 43.636719 19.777344 43.597656 C 19.726562 43.535156 19.691406 43.472656 19.679688 43.410156 L 19.703125 43.394531 L 19.742188 43.367188 L 19.765625 43.351562 C 19.820312 43.308594 19.871094 43.273438 19.914062 43.25 C 19.945312 43.222656 19.976562 43.210938 20.011719 43.207031 L 20.035156 43.179688 C 20.109375 43.136719 20.175781 43.109375 20.230469 43.09375 L 20.257812 43.0625 L 20.292969 43.0625 C 20.332031 43.035156 20.363281 43.015625 20.390625 43.007812 L 20.425781 43.007812 C 20.480469 42.972656 20.535156 42.953125 20.585938 42.949219 C 20.699219 42.894531 20.804688 42.863281 20.90625 42.863281 Z M 21.527344 45.222656 L 21.492188 45.222656 C 21.445312 45.238281 21.402344 45.25 21.371094 45.25 L 21.332031 45.25 C 21.320312 45.261719 21.308594 45.265625 21.296875 45.265625 L 21.246094 45.28125 L 21.210938 45.28125 L 21.160156 45.292969 L 21.089844 45.308594 C 21.078125 45.320312 21.0625 45.324219 21.050781 45.324219 L 21.003906 45.339844 L 20.964844 45.351562 C 20.851562 45.386719 20.761719 45.417969 20.695312 45.453125 C 20.609375 45.585938 20.585938 45.726562 20.625 45.871094 C 20.828125 46.207031 21.121094 46.265625 21.503906 46.042969 L 21.601562 45.871094 L 21.613281 45.8125 L 21.613281 45.207031 L 21.578125 45.207031 Z M 21.527344 45.222656 "/>
<path style=" stroke:none;fill-rule:nonzero;fill:rgb(0%,0%,0%);fill-opacity:1;" d="M 25.886719 41.453125 L 26.597656 41.453125 L 26.597656 46.9375 L 25.679688 46.9375 L 25.679688 46.691406 C 25.445312 46.902344 25.203125 47.015625 24.945312 47.035156 C 24.394531 47.089844 23.964844 46.886719 23.660156 46.433594 C 23.296875 45.8125 23.183594 45.125 23.316406 44.375 C 23.4375 43.640625 23.765625 43.167969 24.296875 42.949219 C 24.820312 42.765625 25.28125 42.84375 25.679688 43.179688 L 25.679688 41.453125 Z M 24.835938 43.8125 C 24.488281 43.921875 24.292969 44.167969 24.246094 44.546875 C 24.167969 44.933594 24.191406 45.289062 24.308594 45.613281 C 24.425781 45.886719 24.601562 46.039062 24.835938 46.070312 C 25.164062 46.097656 25.417969 45.957031 25.59375 45.65625 C 25.613281 45.582031 25.636719 45.519531 25.65625 45.46875 L 25.65625 45.425781 L 25.667969 45.351562 L 25.667969 44.515625 C 25.542969 44.011719 25.261719 43.777344 24.835938 43.8125 Z M 24.835938 43.8125 "/>
<path style=" stroke:none;fill-rule:nonzero;fill:rgb(0%,0%,0%);fill-opacity:1;" d="M 28.542969 42.890625 C 29.167969 42.847656 29.6875 43.042969 30.101562 43.480469 L 30.0625 43.523438 L 30.027344 43.566406 C 30 43.609375 29.976562 43.644531 29.953125 43.667969 L 29.902344 43.726562 L 29.867188 43.769531 C 29.832031 43.828125 29.792969 43.871094 29.757812 43.898438 L 29.746094 43.925781 L 29.71875 43.96875 L 29.695312 43.984375 L 29.535156 44.199219 C 29.003906 43.679688 28.589844 43.628906 28.300781 44.042969 C 28.296875 44.152344 28.316406 44.25 28.359375 44.332031 L 28.410156 44.34375 L 28.445312 44.375 L 28.484375 44.375 L 28.519531 44.386719 L 28.617188 44.402344 L 28.8125 44.460938 C 29.261719 44.464844 29.625 44.628906 29.902344 44.949219 C 30.136719 45.359375 30.1875 45.773438 30.050781 46.1875 C 29.917969 46.546875 29.707031 46.789062 29.425781 46.90625 C 28.511719 47.210938 27.742188 47.019531 27.125 46.332031 C 27.164062 46.269531 27.199219 46.222656 27.234375 46.1875 L 27.285156 46.160156 C 27.335938 46.078125 27.390625 46.015625 27.457031 45.972656 L 27.492188 45.914062 L 27.515625 45.886719 L 27.539062 45.855469 L 27.566406 45.828125 L 27.613281 45.796875 C 27.671875 45.710938 27.730469 45.644531 27.785156 45.597656 C 28.195312 46.070312 28.605469 46.234375 29.023438 46.085938 L 29.035156 46.058594 C 29.089844 46.015625 29.136719 45.960938 29.167969 45.898438 C 29.175781 45.753906 29.136719 45.644531 29.046875 45.570312 L 29.011719 45.570312 L 28.984375 45.539062 L 28.949219 45.539062 L 28.914062 45.523438 L 28.886719 45.496094 C 28.761719 45.472656 28.660156 45.445312 28.582031 45.410156 C 27.859375 45.371094 27.457031 44.996094 27.371094 44.289062 C 27.378906 43.433594 27.769531 42.96875 28.542969 42.890625 Z M 28.542969 42.890625 "/>
<path style=" stroke:none;fill-rule:nonzero;fill:rgb(0%,0%,0%);fill-opacity:1;" d="M 31.996094 41.4375 C 32.015625 41.457031 32.023438 41.484375 32.023438 41.507812 L 32.023438 42.976562 L 32.867188 42.976562 L 32.867188 43.882812 L 32.023438 43.882812 L 32.023438 45.84375 L 32.046875 45.929688 C 32.203125 46.117188 32.453125 46.132812 32.792969 45.984375 L 32.804688 46.042969 L 32.867188 46.273438 L 32.878906 46.316406 L 32.890625 46.433594 L 32.929688 46.53125 L 32.929688 46.574219 C 32.945312 46.636719 32.957031 46.6875 32.964844 46.734375 L 33 46.878906 C 32.492188 47.066406 32.011719 47.105469 31.558594 46.992188 C 31.417969 46.910156 31.308594 46.816406 31.226562 46.707031 C 31.167969 46.582031 31.125 46.476562 31.105469 46.390625 L 31.105469 46.289062 C 31.089844 46.234375 31.085938 46.1875 31.089844 46.144531 L 31.089844 43.882812 L 30.554688 43.882812 L 30.554688 42.976562 L 31.089844 42.976562 L 31.089844 41.753906 L 31.140625 41.738281 L 31.164062 41.726562 L 31.273438 41.695312 C 31.320312 41.671875 31.363281 41.65625 31.398438 41.652344 L 31.558594 41.59375 L 31.617188 41.582031 L 31.742188 41.523438 C 31.84375 41.5 31.929688 41.46875 31.996094 41.4375 Z M 31.996094 41.4375 "/>
<path style=" stroke:none;fill-rule:nonzero;fill:rgb(0%,0%,0%);fill-opacity:1;" d="M 35.292969 42.949219 L 35.574219 42.949219 L 35.574219 43.984375 C 35.101562 43.914062 34.761719 44.089844 34.554688 44.515625 L 34.554688 44.5625 C 34.519531 44.671875 34.503906 44.785156 34.507812 44.890625 L 34.507812 46.9375 L 33.589844 46.9375 L 33.589844 43.019531 L 34.507812 43.019531 L 34.507812 43.394531 C 34.722656 43.136719 34.96875 42.988281 35.242188 42.949219 Z M 35.292969 42.949219 "/>
<path style=" stroke:none;fill-rule:nonzero;fill:rgb(0%,0%,0%);fill-opacity:1;" d="M 37.519531 42.847656 C 38.078125 42.804688 38.542969 42.96875 38.914062 43.335938 L 38.925781 43.367188 C 38.960938 43.414062 38.984375 43.460938 39 43.511719 C 39.042969 43.585938 39.074219 43.652344 39.085938 43.710938 L 39.085938 43.769531 C 39.109375 43.863281 39.125 43.945312 39.125 44.015625 L 39.125 45.425781 C 39.113281 45.660156 39.125 45.859375 39.148438 46.015625 C 39.246094 46.136719 39.363281 46.214844 39.492188 46.246094 L 39.464844 46.289062 L 39.441406 46.359375 L 39.417969 46.417969 L 39.394531 46.503906 L 39.367188 46.546875 L 39.320312 46.691406 L 39.292969 46.734375 L 39.269531 46.820312 L 39.257812 46.847656 L 39.171875 47.066406 C 38.808594 47.066406 38.535156 46.933594 38.351562 46.664062 C 38.003906 47.070312 37.570312 47.171875 37.054688 46.964844 C 36.578125 46.8125 36.300781 46.46875 36.222656 45.941406 C 36.226562 45.167969 36.535156 44.714844 37.152344 44.589844 C 37.183594 44.566406 37.21875 44.550781 37.25 44.546875 L 37.285156 44.546875 C 37.300781 44.535156 37.3125 44.53125 37.324219 44.53125 L 37.359375 44.515625 L 37.582031 44.472656 L 37.679688 44.460938 L 37.714844 44.445312 L 37.921875 44.429688 C 38.035156 44.410156 38.125 44.40625 38.191406 44.417969 C 38.222656 43.882812 37.972656 43.699219 37.445312 43.871094 L 37.410156 43.882812 L 37.3125 43.898438 L 37.226562 43.941406 L 37.1875 43.957031 L 37.066406 44 C 37.003906 44.050781 36.945312 44.082031 36.894531 44.101562 C 36.824219 44.164062 36.757812 44.207031 36.6875 44.230469 L 36.601562 44.042969 L 36.578125 44.027344 L 36.566406 43.984375 L 36.539062 43.957031 L 36.527344 43.914062 C 36.476562 43.839844 36.4375 43.773438 36.417969 43.710938 C 36.386719 43.675781 36.363281 43.636719 36.355469 43.597656 C 36.304688 43.535156 36.269531 43.472656 36.257812 43.410156 L 36.28125 43.394531 L 36.320312 43.367188 L 36.34375 43.351562 C 36.398438 43.308594 36.449219 43.273438 36.492188 43.25 C 36.523438 43.222656 36.554688 43.210938 36.589844 43.207031 L 36.613281 43.179688 C 36.6875 43.136719 36.753906 43.109375 36.808594 43.09375 L 36.832031 43.0625 L 36.871094 43.0625 C 36.910156 43.035156 36.941406 43.015625 36.96875 43.007812 L 37.003906 43.007812 C 37.058594 42.972656 37.113281 42.953125 37.164062 42.949219 C 37.277344 42.894531 37.382812 42.863281 37.484375 42.863281 Z M 38.105469 45.222656 L 38.070312 45.222656 C 38.019531 45.238281 37.980469 45.25 37.949219 45.25 L 37.910156 45.25 C 37.898438 45.261719 37.886719 45.265625 37.875 45.265625 L 37.824219 45.28125 L 37.789062 45.28125 L 37.738281 45.292969 L 37.667969 45.308594 C 37.652344 45.320312 37.640625 45.324219 37.628906 45.324219 L 37.582031 45.339844 L 37.542969 45.351562 C 37.429688 45.386719 37.339844 45.417969 37.273438 45.453125 C 37.1875 45.585938 37.164062 45.726562 37.199219 45.871094 C 37.40625 46.207031 37.699219 46.265625 38.082031 46.042969 L 38.179688 45.871094 L 38.191406 45.8125 L 38.191406 45.207031 L 38.15625 45.207031 Z M 38.105469 45.222656 "/>
<path style=" stroke:none;fill-rule:nonzero;fill:rgb(0%,0%,0%);fill-opacity:1;" d="M 41.585938 41.4375 C 42.4375 41.316406 43.023438 41.613281 43.335938 42.328125 C 43.582031 43.011719 43.460938 43.554688 42.980469 43.957031 C 43.570312 44.304688 43.78125 44.882812 43.617188 45.699219 C 43.410156 46.554688 42.882812 46.972656 42.039062 46.949219 L 42.039062 45.871094 C 42.429688 45.796875 42.617188 45.53125 42.601562 45.078125 C 42.503906 44.738281 42.316406 44.550781 42.039062 44.515625 L 42.039062 43.652344 C 42.339844 43.554688 42.484375 43.328125 42.464844 42.976562 C 42.367188 42.667969 42.1875 42.515625 41.925781 42.515625 C 41.660156 42.519531 41.476562 42.652344 41.375 42.917969 L 41.363281 42.976562 L 41.375 43.0625 L 41.375 43.105469 C 41.367188 43.238281 41.363281 43.34375 41.363281 43.421875 L 41.363281 46.949219 L 40.359375 46.949219 L 40.359375 43.207031 C 40.359375 43.152344 40.363281 43.105469 40.371094 43.0625 C 40.359375 42.957031 40.359375 42.863281 40.371094 42.777344 L 40.371094 42.734375 L 40.382812 42.6875 L 40.445312 42.414062 C 40.664062 41.910156 40.988281 41.59375 41.414062 41.464844 C 41.480469 41.460938 41.539062 41.453125 41.585938 41.4375 Z M 41.585938 41.4375 "/>
<path style=" stroke:none;fill-rule:nonzero;fill:rgb(0%,0%,0%);fill-opacity:1;" d="M 45.441406 42.917969 C 46.4375 42.902344 47.007812 43.472656 47.144531 44.632812 L 47.179688 44.820312 L 47.179688 44.921875 C 47.195312 45.089844 47.199219 45.230469 47.191406 45.339844 L 47.15625 45.324219 L 44.976562 45.324219 C 45.019531 45.742188 45.203125 45.992188 45.527344 46.070312 C 45.929688 46.144531 46.261719 46.023438 46.53125 45.710938 L 46.628906 45.84375 C 46.667969 45.875 46.695312 45.90625 46.714844 45.941406 L 46.738281 45.957031 L 46.75 45.984375 C 46.792969 46.023438 46.824219 46.054688 46.847656 46.085938 L 46.875 46.128906 C 46.886719 46.140625 46.894531 46.148438 46.898438 46.160156 L 46.921875 46.171875 L 46.945312 46.203125 L 46.960938 46.230469 L 46.984375 46.246094 L 46.996094 46.273438 C 47.035156 46.308594 47.070312 46.34375 47.09375 46.375 C 46.707031 46.949219 46.179688 47.167969 45.503906 47.023438 C 44.675781 46.855469 44.207031 46.265625 44.09375 45.25 C 44.019531 43.964844 44.46875 43.1875 45.441406 42.917969 Z M 45.648438 43.8125 C 45.273438 43.882812 45.054688 44.117188 44.988281 44.515625 L 46.324219 44.515625 C 46.230469 44.085938 46.007812 43.851562 45.648438 43.8125 Z M 45.648438 43.8125 "/>
</g>
</svg>
