<?xml version="1.0" encoding="UTF-8"?>
<svg xmlns="http://www.w3.org/2000/svg" xmlns:xlink="http://www.w3.org/1999/xlink" width="50px" height="50px" viewBox="0 0 50 50" version="1.1">
<g id="surface1">
<path style=" stroke:none;fill-rule:evenodd;fill:rgb(100%,100%,100%);fill-opacity:1;" d="M 48.957031 25 C 48.957031 38.230469 38.230469 48.957031 25 48.957031 C 11.769531 48.957031 1.042969 38.230469 1.042969 25 C 1.042969 11.769531 11.769531 1.042969 25 1.042969 C 38.230469 1.042969 48.957031 11.769531 48.957031 25 Z M 48.957031 25 "/>
<path style=" stroke:none;fill-rule:nonzero;fill:rgb(0%,0%,0%);fill-opacity:1;" d="M 27.582031 29.945312 L 29.09375 29.945312 L 29.09375 30.671875 L 29.121094 30.671875 C 29.433594 30.199219 29.847656 29.859375 30.542969 29.859375 C 31.195312 29.859375 31.621094 30.242188 31.890625 30.613281 C 32.257812 30.199219 32.65625 29.859375 33.457031 29.859375 C 34.210938 29.859375 35.097656 30.347656 35.097656 31.691406 L 35.097656 37.445312 L 33.589844 37.445312 L 33.589844 32.253906 C 33.589844 31.707031 33.324219 31.367188 32.851562 31.367188 C 32.289062 31.367188 32.097656 31.738281 32.097656 32.402344 L 32.097656 37.445312 L 30.585938 37.445312 L 30.585938 32.253906 C 30.585938 31.707031 30.320312 31.367188 29.847656 31.367188 C 29.285156 31.367188 29.09375 31.738281 29.09375 32.402344 L 29.09375 37.445312 L 27.582031 37.445312 L 27.582031 29.945312 "/>
<path style=" stroke:none;fill-rule:nonzero;fill:rgb(0%,0%,0%);fill-opacity:1;" d="M 18.589844 33.863281 L 25.179688 19.5 L 25.175781 19.488281 C 25.449219 18.847656 25.601562 18.140625 25.601562 17.394531 C 25.601562 14.449219 23.210938 12.058594 20.261719 12.058594 C 17.316406 12.058594 14.925781 14.449219 14.925781 17.394531 L 18.457031 17.394531 C 18.457031 16.398438 19.265625 15.589844 20.261719 15.589844 C 21.261719 15.589844 22.066406 16.398438 22.066406 17.394531 C 22.066406 17.394531 22.222656 17.933594 21.957031 18.632812 L 15.007812 33.863281 L 15.007812 37.445312 L 25.824219 37.445312 L 25.824219 33.863281 L 18.589844 33.863281 "/>
<path style=" stroke:none;fill-rule:nonzero;fill:rgb(0%,0%,0%);fill-opacity:1;" d="M 36.640625 25 L 42.9375 31.296875 C 42.9375 31.296875 44.035156 28.066406 44.035156 25 C 44.035156 21.933594 42.9375 18.703125 42.9375 18.703125 L 36.640625 25 "/>
<path style=" stroke:none;fill-rule:nonzero;fill:rgb(0%,0%,0%);fill-opacity:1;" d="M 13.367188 25.011719 L 7.070312 31.308594 C 7.070312 31.308594 5.972656 28.078125 5.972656 25.011719 C 5.972656 21.945312 7.070312 18.710938 7.070312 18.710938 L 13.367188 25.011719 "/>
<path style=" stroke:none;fill-rule:nonzero;fill:rgb(93.333334%,10.980392%,13.725491%);fill-opacity:1;" d="M 0 25 C 0 11.191406 11.191406 0 25 0 C 38.808594 0 50 11.191406 50 25 C 50 38.808594 38.808594 50 25 50 C 11.191406 50 0 38.808594 0 25 Z M 25 43.539062 C 35.238281 43.539062 43.539062 35.238281 43.539062 25 C 43.539062 14.761719 35.238281 6.460938 25 6.460938 C 14.761719 6.460938 6.460938 14.761719 6.460938 25 C 6.460938 35.238281 14.761719 43.539062 25 43.539062 "/>
</g>
</svg>
