<?xml version="1.0" encoding="UTF-8"?>
<svg xmlns="http://www.w3.org/2000/svg" xmlns:xlink="http://www.w3.org/1999/xlink" width="50px" height="50px" viewBox="0 0 50 50" version="1.1">
<g id="surface1">
<path style=" stroke:none;fill-rule:nonzero;fill:rgb(9.019608%,43.529412%,75.686276%);fill-opacity:1;" d="M 0 25 C 0 11.195312 11.191406 0 25 0 C 38.808594 0 50 11.195312 50 25 C 50 38.804688 38.808594 50 25 50 C 11.191406 50 0 38.804688 0 25 "/>
<path style=" stroke:none;fill-rule:nonzero;fill:rgb(100%,100%,100%);fill-opacity:1;" d="M 40.605469 30.636719 C 41.09375 30.941406 41.824219 31.917969 41.824219 31.917969 C 41.703125 30.882812 40.96875 30.027344 40.96875 30.027344 C 39.992188 29.292969 40.359375 29.109375 39.566406 26.910156 C 38.773438 24.714844 39.992188 23.917969 37.488281 22.332031 C 36.457031 21.679688 35.375 21.570312 34.761719 21.570312 C 34.734375 21.539062 34.707031 21.507812 34.683594 21.476562 C 33.167969 19.777344 29.71875 20.085938 27.246094 20.257812 C 26.925781 19.578125 26.308594 18.257812 26.042969 17.660156 C 25.675781 16.835938 26.042969 15.769531 26.164062 15.25 C 26.285156 14.730469 26.4375 14.640625 26.5 12.929688 C 26.558594 11.304688 25.015625 10.644531 24.863281 10.582031 L 24.972656 10.546875 L 24.667969 10.058594 L 24.289062 10.230469 C 24.46875 9.773438 24.5 9.222656 24.421875 8.898438 C 24.195312 7.925781 23.691406 7.21875 22.699219 7.445312 C 22.199219 7.558594 21.839844 7.988281 21.707031 8.539062 L 21.707031 8.441406 C 21.707031 8.441406 21.644531 9.144531 21.1875 9.355469 C 21.1875 9.355469 20.941406 9.722656 21.1875 9.753906 L 21.695312 9.46875 C 21.703125 9.5 21.710938 9.527344 21.71875 9.5625 C 21.875 10.195312 22.285156 10.679688 22.769531 10.890625 L 22.410156 11.035156 L 22.542969 11.308594 C 22.523438 11.308594 22.476562 11.335938 22.378906 11.433594 C 22.164062 11.648438 21.277344 13.144531 21.035156 13.601562 C 20.789062 14.058594 20.941406 13.96875 20.515625 14.425781 C 20.160156 14.804688 18.269531 16.472656 17.636719 17.023438 C 14.695312 14.277344 14.199219 14.386719 13.003906 13.96875 C 11.988281 13.609375 11.222656 13.933594 11 14.050781 C 10.308594 13.742188 10.074219 13.417969 10.074219 13.417969 C 10.074219 13.417969 9.957031 13.828125 9.945312 14.171875 C 9.847656 14.121094 9.757812 14.0625 9.675781 13.996094 C 9.21875 13.632812 8.761719 13.660156 8.761719 13.660156 C 8.761719 13.660156 8.546875 13.660156 8.730469 13.875 C 8.914062 14.089844 8.988281 14.335938 9.371094 14.515625 C 9.804688 14.722656 9.835938 14.917969 9.808594 15.179688 C 9.449219 15.601562 9.128906 16.078125 9.066406 16.5 C 9.066406 16.5 9.003906 19.035156 8.914062 19.707031 C 8.914062 19.707031 8.640625 21.355469 8.488281 21.722656 C 8.488281 21.722656 8.179688 21.996094 8.578125 22.300781 C 8.578125 22.300781 8.976562 22.515625 9.402344 22.972656 C 9.402344 22.972656 9.554688 23.066406 9.859375 22.851562 C 9.859375 22.851562 9.707031 23.066406 10.164062 23.035156 C 10.625 23.003906 10.960938 22.914062 11.019531 22.394531 C 11.035156 22.273438 11.066406 22.125 11.113281 21.96875 C 11.71875 21.582031 12.421875 21.351562 13.125 21.140625 C 13.199219 21.117188 13.277344 21.097656 13.351562 21.082031 C 13.539062 21.691406 13.804688 22.308594 14.105469 22.882812 C 14.777344 24.164062 14.714844 24.898438 14.835938 25.933594 C 14.945312 26.851562 14.910156 28.867188 16.253906 29.617188 C 15.851562 30.457031 14.878906 32.390625 14.003906 33.484375 C 14.003906 33.484375 13.554688 33.6875 13.757812 34.542969 C 13.757812 34.542969 13.757812 34.542969 13.636719 34.953125 C 13.386719 35.777344 12.351562 38.078125 11.984375 38.527344 C 11.984375 38.527344 11.671875 38.832031 11.996094 39.035156 L 11.886719 39.390625 C 11.886719 39.390625 11.292969 40.015625 11.710938 41.085938 L 12.941406 40.539062 L 13.046875 40.480469 C 13.046875 40.480469 12.9375 39.941406 12.890625 39.648438 C 12.851562 39.394531 13.148438 39.511719 12.78125 39.308594 C 12.601562 39.207031 12.78125 38.980469 12.78125 38.980469 C 13.136719 38.839844 12.984375 38.453125 12.984375 38.453125 C 13.59375 36.824219 14.125 35.03125 14.613281 34.746094 C 15.101562 34.464844 15.101562 34.140625 15.101562 34.140625 C 15.101562 34.140625 15.023438 34.113281 15.140625 33.929688 C 15.257812 33.75 16.597656 32.441406 17.007812 32.066406 C 17.011719 32.074219 17.304688 31.78125 17.515625 31.40625 C 17.734375 31.019531 17.867188 30.550781 17.867188 30.558594 C 17.871094 30.578125 18.035156 30.707031 18.035156 30.707031 C 17.945312 30.851562 17.914062 31.242188 17.722656 31.53125 C 17.460938 31.921875 17.039062 32.207031 17.039062 32.21875 C 17.1875 32.898438 17.507812 33.820312 18.101562 35.0625 C 18.101562 35.0625 18.011719 35.460938 18.277344 35.644531 C 18.277344 35.644531 19.984375 38.003906 20.3125 38.65625 C 20.636719 39.308594 20.433594 39.226562 20.761719 39.265625 L 21.25 39.753906 L 21.355469 39.898438 L 21.628906 40.027344 C 21.628906 40.027344 21.71875 40.882812 22.796875 41.265625 L 23.1875 39.980469 L 23.21875 39.859375 C 23.21875 39.859375 22.734375 39.589844 22.484375 39.433594 C 22.265625 39.296875 22.546875 39.152344 22.152344 39.292969 C 21.960938 39.363281 21.816406 39.429688 21.816406 39.429688 L 21.554688 39.214844 C 21.554688 39.214844 22.226562 38.980469 20.882812 37.839844 C 19.539062 36.703125 19.496094 35.5625 19.496094 35.5625 C 19.742188 35.113281 19.292969 34.871094 19.292969 34.871094 C 19.464844 34.105469 19.210938 32.222656 19.089844 31.980469 C 18.96875 31.734375 19.089844 31.652344 19.171875 31.449219 C 19.390625 30.90625 19.382812 30.382812 19.300781 29.949219 C 20.679688 29.992188 21.953125 29.945312 23.03125 29.824219 C 23.289062 29.976562 23.609375 30.144531 23.933594 30.269531 C 24.730469 30.574219 24.363281 29.78125 24.363281 29.78125 C 24.363281 29.78125 25.277344 29.964844 25.890625 30.027344 C 26.238281 30.0625 26.207031 29.554688 26.117188 29.117188 C 26.914062 28.929688 27.109375 29.050781 27.109375 29.050781 C 27.050781 29.417969 27.375 29.757812 27.351562 30.070312 C 27.175781 32.324219 27.820312 33.097656 27.964844 33.527344 C 28.128906 34.015625 28.085938 35.238281 28.085938 35.238281 C 27.558594 36.5 26.417969 38.453125 26.253906 38.941406 C 26.09375 39.429688 26.296875 39.550781 26.296875 39.550781 L 26.050781 39.835938 C 25.359375 40.121094 24.953125 41.421875 24.953125 41.421875 L 26.742188 41.179688 C 27.355469 39.835938 26.660156 39.957031 26.660156 39.957031 L 26.90625 39.671875 C 27.558594 39.632812 27.597656 39.183594 27.597656 39.183594 C 27.882812 36.824219 29.796875 34.625 29.917969 34.21875 C 30.039062 33.8125 29.835938 33.8125 29.753906 33.609375 C 29.675781 33.40625 29.675781 32.753906 29.675781 32.753906 C 29.347656 30.148438 30.976562 29.375 31.304688 29.089844 C 31.628906 28.804688 31.382812 28.519531 31.382812 28.519531 C 30.976562 27.910156 30.855469 26.851562 30.855469 26.851562 L 31.140625 26.546875 C 31.140625 26.546875 31.8125 29.84375 33.886719 31.308594 C 33.886719 31.308594 36.085938 33.8125 36.878906 35.277344 C 37.671875 36.742188 37.183594 35.949219 37.367188 36.742188 C 37.550781 37.535156 38.027344 39.207031 38.40625 40.039062 C 38.792969 40.894531 40.015625 41.871094 40.015625 41.871094 L 40.707031 40.445312 C 40.707031 40.445312 40.542969 40 39.808594 40.160156 L 39.890625 39.796875 C 39.890625 39.796875 39.6875 40 39.28125 39.511719 C 39.28125 39.511719 39.117188 39.917969 39.222656 39.355469 C 39.328125 38.792969 38.914062 38.535156 38.914062 38.535156 C 38.140625 37.230469 38.019531 35.683594 38.019531 35.683594 C 38.101562 35.5625 38.101562 35.277344 38.101562 35.277344 C 38.007812 34.644531 37.9375 33.851562 37.367188 32.917969 C 36.582031 31.636719 36.148438 30.210938 36.148438 30.210938 C 36.253906 28.792969 36.558594 24.710938 35.238281 22.28125 C 37.183594 22.429688 37.59375 23.949219 37.308594 24.347656 C 37 24.773438 36.941406 25.8125 37.308594 26.179688 C 37.671875 26.546875 37.367188 26.972656 37.796875 28.011719 C 38.222656 29.050781 39.371094 30.398438 39.371094 30.398438 C 39.261719 30.324219 39.773438 30.820312 39.566406 30.453125 C 38.832031 29.171875 38.039062 27.09375 38.039062 27.09375 C 38.773438 28.011719 39.316406 29.570312 39.628906 30.238281 C 40.023438 31.09375 40.207031 31.339844 40.695312 31.765625 C 41.183594 32.195312 41.582031 32.773438 41.582031 32.773438 C 41.644531 32.285156 41.335938 31.796875 41.03125 31.492188 C 40.726562 31.1875 40.605469 30.636719 40.605469 30.636719 Z M 10.554688 14.414062 C 10.542969 14.410156 10.535156 14.410156 10.523438 14.40625 L 10.585938 14.386719 C 10.574219 14.398438 10.566406 14.40625 10.554688 14.414062 Z M 12.546875 20.746094 C 12.121094 20.898438 11.691406 21.082031 11.355469 21.386719 C 11.335938 21.398438 11.3125 21.414062 11.292969 21.425781 C 11.523438 20.792969 11.816406 20.164062 11.816406 20.164062 C 11.816406 20.164062 12.691406 19.769531 12.996094 18.839844 C 13.105469 18.507812 13.1875 17.785156 13.066406 18.945312 C 13.015625 19.429688 13.070312 19.976562 13.203125 20.539062 C 12.984375 20.597656 12.765625 20.664062 12.546875 20.746094 Z M 20.902344 19.386719 C 20.59375 19.238281 20.273438 19.066406 19.949219 18.863281 C 21.257812 18.199219 22.101562 17.355469 22.101562 17.355469 C 21.835938 17.957031 21.355469 18.71875 20.902344 19.386719 "/>
</g>
</svg>
