<?xml version="1.0" encoding="UTF-8"?>
<svg xmlns="http://www.w3.org/2000/svg" xmlns:xlink="http://www.w3.org/1999/xlink" width="40px" height="50px" viewBox="0 0 40 50" version="1.1">
<g id="surface1">
<path style=" stroke:none;fill-rule:nonzero;fill:rgb(0%,0%,0%);fill-opacity:1;" d="M 38.984375 50 C 39.253906 50 39.511719 49.894531 39.703125 49.703125 C 39.894531 49.511719 40 49.257812 40 48.988281 L 40 1.011719 C 40 0.742188 39.894531 0.488281 39.703125 0.296875 C 39.511719 0.105469 39.253906 0 38.984375 0 L 1.015625 0 C 0.457031 0 0 0.453125 0 1.011719 L 0 48.988281 C 0 49.257812 0.105469 49.511719 0.296875 49.703125 C 0.488281 49.894531 0.746094 50 1.015625 50 Z M 38.984375 50 "/>
<path style=" stroke:none;fill-rule:nonzero;fill:rgb(100%,100%,100%);fill-opacity:1;" d="M 1.015625 49.664062 C 0.835938 49.664062 0.664062 49.59375 0.535156 49.464844 C 0.40625 49.339844 0.335938 49.167969 0.335938 48.988281 L 0.335938 1.011719 C 0.335938 0.832031 0.40625 0.660156 0.535156 0.535156 C 0.664062 0.40625 0.835938 0.335938 1.015625 0.335938 L 38.984375 0.335938 C 39.164062 0.335938 39.335938 0.40625 39.464844 0.535156 C 39.59375 0.660156 39.664062 0.832031 39.664062 1.011719 L 39.664062 48.988281 C 39.664062 49.359375 39.359375 49.664062 38.984375 49.664062 L 1.015625 49.664062 "/>
<path style=" stroke:none;fill-rule:nonzero;fill:rgb(0%,0%,0%);fill-opacity:1;" d="M 28.628906 32.101562 C 28.628906 33.074219 29.472656 33.867188 30.515625 33.867188 C 31.558594 33.867188 32.40625 33.074219 32.40625 32.101562 L 32.40625 27.003906 C 32.40625 26.027344 31.558594 25.238281 30.515625 25.238281 C 29.472656 25.238281 28.628906 26.027344 28.628906 27.003906 Z M 31.144531 32.101562 C 31.144531 32.425781 30.863281 32.6875 30.515625 32.6875 C 30.167969 32.6875 29.886719 32.425781 29.886719 32.101562 L 29.886719 27.003906 C 29.886719 26.675781 30.167969 26.414062 30.515625 26.414062 C 30.863281 26.414062 31.144531 26.675781 31.144531 27.003906 L 31.144531 32.101562 "/>
<path style="fill-rule:nonzero;fill:rgb(0%,0%,0%);fill-opacity:1;stroke-width:2.1;stroke-linecap:butt;stroke-linejoin:miter;stroke:rgb(0%,0%,0%);stroke-opacity:1;stroke-miterlimit:4;" d="M 604.687439 778.03125 L 656.156189 665.90625 L 656.156189 665.8125 C 658.218689 660.75 659.437439 655.21875 659.437439 649.40625 C 659.437439 626.4375 640.781189 607.78125 617.812439 607.78125 C 594.749939 607.78125 576.093689 626.4375 576.093689 649.40625 L 603.656189 649.40625 C 603.656189 641.625 610.031189 635.34375 617.812439 635.34375 C 625.593689 635.34375 631.874939 641.625 631.874939 649.40625 C 631.874939 649.40625 633.093689 653.625 631.031189 659.0625 L 576.749939 778.03125 L 576.749939 806.0625 L 661.218689 806.0625 L 661.218689 778.03125 L 604.687439 778.03125 " transform="matrix(0.0416667,0,0,0.0416667,0.00000254313,0)"/>
<path style=" stroke:none;fill-rule:nonzero;fill:rgb(0%,0%,0%);fill-opacity:1;" d="M 13.289062 19.554688 C 14.0625 19.554688 14.691406 18.882812 14.691406 18.054688 C 14.691406 17.226562 14.0625 16.554688 13.289062 16.554688 C 12.515625 16.554688 11.890625 17.226562 11.890625 18.054688 C 11.890625 18.882812 12.515625 19.554688 13.289062 19.554688 "/>
<path style=" stroke:none;fill-rule:nonzero;fill:rgb(0%,0%,0%);fill-opacity:1;" d="M 11.253906 25.273438 L 11.253906 26.574219 L 8.859375 30.320312 C 8.859375 30.320312 8.613281 30.636719 8.785156 30.902344 C 8.960938 31.167969 9.527344 32.125 9.527344 32.125 C 9.527344 32.125 9.726562 32.308594 9.898438 32.125 C 10.074219 31.9375 9.925781 31.777344 9.925781 31.777344 L 9.777344 31.40625 L 12.523438 27.175781 L 12.523438 31.40625 C 12.523438 31.859375 12.722656 31.910156 12.722656 31.910156 L 13.933594 32.789062 L 14.253906 32.414062 L 13.785156 31.832031 L 13.785156 25.273438 L 11.253906 25.273438 "/>
<path style=" stroke:none;fill-rule:nonzero;fill:rgb(0%,0%,0%);fill-opacity:1;" d="M 13.785156 25.035156 L 13.785156 23.792969 L 14.996094 24.558594 C 14.996094 24.558594 15.691406 24.796875 15.988281 24.453125 C 16.285156 24.105469 16.359375 24 16.359375 24 C 16.359375 24 16.5 23.808594 16.257812 23.652344 C 16.074219 23.53125 14.53125 22.558594 13.785156 22.085938 L 13.785156 20.789062 C 13.785156 20.019531 13.167969 19.832031 13.167969 19.832031 L 12.449219 19.59375 C 12.152344 19.488281 11.980469 19.753906 11.980469 19.753906 C 11.980469 19.753906 9.28125 23.628906 8.910156 24.160156 C 8.539062 24.691406 8.8125 25.25 8.8125 25.25 L 9.230469 25.9375 L 11.253906 23.097656 L 11.253906 25.035156 L 13.785156 25.035156 "/>
<path style=" stroke:none;fill-rule:nonzero;fill:rgb(0%,0%,0%);fill-opacity:1;" d="M 13.273438 13.015625 C 12.378906 13.015625 10.476562 12.609375 10.226562 12.554688 L 10.226562 14.507812 C 10.226562 14.65625 10.117188 14.777344 9.980469 14.777344 L 8.671875 14.777344 C 8.535156 14.777344 8.425781 14.65625 8.425781 14.507812 L 8.425781 12.617188 C 8.121094 12.445312 7.980469 12.234375 7.824219 11.726562 C 7.46875 10.589844 7.824219 9.648438 7.988281 9.324219 C 8.09375 9.117188 8.644531 8.960938 9.03125 8.871094 L 10.589844 5.925781 L 16.007812 5.925781 L 17.570312 8.871094 C 17.957031 8.960938 18.507812 9.117188 18.613281 9.324219 C 18.777344 9.648438 19.128906 10.589844 18.777344 11.726562 C 18.621094 12.234375 18.480469 12.445312 18.175781 12.617188 L 18.175781 14.507812 C 18.175781 14.65625 18.066406 14.777344 17.929688 14.777344 L 16.621094 14.777344 C 16.484375 14.777344 16.375 14.65625 16.375 14.507812 L 16.375 12.554688 C 16.125 12.609375 14.21875 13.015625 13.328125 13.015625 Z M 17.027344 8.796875 L 15.753906 6.394531 L 10.847656 6.394531 L 9.574219 8.796875 Z M 9.078125 11.292969 C 9.550781 11.292969 9.929688 10.882812 9.929688 10.378906 C 9.929688 9.875 9.550781 9.46875 9.078125 9.46875 C 8.609375 9.46875 8.230469 9.875 8.230469 10.378906 C 8.230469 10.882812 8.609375 11.292969 9.078125 11.292969 Z M 18.371094 10.378906 C 18.371094 9.875 17.988281 9.46875 17.519531 9.46875 C 17.050781 9.46875 16.671875 9.875 16.671875 10.378906 C 16.671875 10.882812 17.050781 11.292969 17.519531 11.292969 C 17.988281 11.292969 18.371094 10.882812 18.371094 10.378906 "/>
<path style=" stroke:none;fill-rule:nonzero;fill:rgb(93.333334%,10.980392%,13.725491%);fill-opacity:1;" d="M 18.304688 29.632812 C 18.304688 24.660156 22.621094 20.628906 27.941406 20.628906 C 33.261719 20.628906 37.578125 24.660156 37.578125 29.632812 C 37.578125 34.605469 33.261719 38.636719 27.941406 38.636719 C 22.621094 38.636719 18.304688 34.605469 18.304688 29.632812 Z M 27.941406 36.308594 C 31.886719 36.308594 35.085938 33.320312 35.085938 29.632812 C 35.085938 25.945312 31.886719 22.957031 27.941406 22.957031 C 23.996094 22.957031 20.796875 25.945312 20.796875 29.632812 C 20.796875 33.320312 23.996094 36.308594 27.941406 36.308594 "/>
<path style=" stroke:none;fill-rule:evenodd;fill:rgb(9.019608%,43.529412%,75.686276%);fill-opacity:1;" d="M 1.671875 1.4375 L 38.445312 1.4375 L 38.445312 4.761719 L 1.671875 4.761719 Z M 1.671875 1.4375 "/>
<path style=" stroke:none;fill-rule:evenodd;fill:rgb(9.019608%,43.529412%,75.686276%);fill-opacity:1;" d="M 1.671875 1.4375 L 6.003906 1.4375 L 6.003906 48.328125 L 1.671875 48.328125 Z M 1.671875 1.4375 "/>
<path style=" stroke:none;fill-rule:evenodd;fill:rgb(9.019608%,43.529412%,75.686276%);fill-opacity:1;" d="M 34.171875 1.4375 L 38.503906 1.4375 L 38.503906 48.328125 L 34.171875 48.328125 Z M 34.171875 1.4375 "/>
<path style=" stroke:none;fill-rule:evenodd;fill:rgb(9.019608%,43.529412%,75.686276%);fill-opacity:1;" d="M 1.671875 36.4375 L 38.445312 36.4375 L 38.445312 48.425781 L 1.671875 48.425781 Z M 1.671875 36.4375 "/>
<path style=" stroke:none;fill-rule:nonzero;fill:rgb(100%,100%,100%);fill-opacity:1;" d="M 27.851562 43.617188 L 27.851562 44.289062 C 27.851562 44.636719 28.097656 44.832031 28.5 44.832031 C 29.007812 44.832031 29.125 44.589844 29.148438 44.355469 L 30.46875 44.355469 C 30.46875 44.808594 30.277344 45.15625 29.9375 45.445312 C 29.589844 45.75 29.109375 45.933594 28.5 45.933594 C 27.699219 45.933594 27.089844 45.621094 26.777344 45.144531 C 26.597656 44.863281 26.53125 44.472656 26.53125 44.03125 L 26.53125 42.226562 C 26.53125 41.78125 26.597656 41.394531 26.777344 41.113281 C 27.089844 40.636719 27.699219 40.324219 28.5 40.324219 C 29.71875 40.324219 30.46875 41.070312 30.46875 42.03125 L 30.46875 43.617188 Z M 27.851562 42.679688 L 29.148438 42.679688 L 29.148438 42.050781 C 29.148438 41.640625 28.902344 41.425781 28.5 41.425781 C 28.097656 41.425781 27.851562 41.640625 27.851562 42.050781 L 27.851562 42.679688 "/>
<path style=" stroke:none;fill-rule:nonzero;fill:rgb(100%,100%,100%);fill-opacity:1;" d="M 21.175781 40.414062 L 22.5 40.414062 L 22.5 40.679688 L 22.523438 40.679688 C 22.980469 40.300781 22.980469 40.300781 23.585938 40.300781 C 24.246094 40.300781 25.128906 40.703125 25.128906 41.6875 L 25.128906 45.894531 L 23.808594 45.894531 L 23.808594 42.097656 C 23.808594 41.699219 23.574219 41.449219 23.160156 41.449219 C 22.667969 41.449219 22.5 41.722656 22.5 42.207031 L 22.5 45.894531 L 21.175781 45.894531 L 21.175781 40.414062 "/>
<path style=" stroke:none;fill-rule:nonzero;fill:rgb(100%,100%,100%);fill-opacity:1;" d="M 15.867188 42.222656 C 15.867188 41.78125 15.929688 41.390625 16.113281 41.109375 C 16.421875 40.632812 17.078125 40.320312 17.878906 40.320312 C 18.683594 40.320312 19.335938 40.632812 19.648438 41.109375 C 19.828125 41.390625 19.894531 41.777344 19.894531 42.222656 L 19.894531 44.027344 C 19.894531 44.472656 19.828125 44.859375 19.648438 45.140625 C 19.335938 45.617188 18.683594 45.929688 17.878906 45.929688 C 17.078125 45.929688 16.421875 45.617188 16.113281 45.140625 C 15.929688 44.859375 15.867188 44.472656 15.867188 44.027344 Z M 17.1875 44.199219 C 17.1875 44.613281 17.476562 44.828125 17.878906 44.828125 C 18.28125 44.828125 18.570312 44.613281 18.570312 44.199219 L 18.570312 42.050781 C 18.570312 41.640625 18.28125 41.421875 17.878906 41.421875 C 17.476562 41.421875 17.1875 41.640625 17.1875 42.050781 L 17.1875 44.199219 "/>
<path style=" stroke:none;fill-rule:nonzero;fill:rgb(100%,100%,100%);fill-opacity:1;" d="M 10.449219 44.929688 L 13.429688 39.242188 L 10.847656 39.242188 L 10.847656 38.203125 L 14.867188 38.203125 L 14.867188 39.082031 L 11.835938 44.863281 L 15 44.863281 L 15 45.902344 L 10.449219 45.902344 L 10.449219 44.929688 "/>
<path style=" stroke:none;fill-rule:evenodd;fill:rgb(0%,0%,0%);fill-opacity:1;" d="M 27.710938 7.585938 C 27.140625 7.703125 26.914062 8.382812 27.300781 8.808594 C 27.585938 9.117188 28.050781 9.136719 28.359375 8.847656 C 28.890625 8.347656 28.421875 7.441406 27.710938 7.585938 M 28.554688 9.074219 C 28.199219 9.191406 28.019531 9.449219 28.015625 9.859375 L 28.011719 10.097656 L 27.8125 10.554688 L 27.617188 11.011719 L 27.304688 11.089844 C 27.136719 11.132812 26.777344 11.222656 26.511719 11.285156 C 26.003906 11.402344 25.941406 11.429688 25.890625 11.527344 L 25.859375 11.585938 L 25.488281 11.585938 C 25.113281 11.589844 24.976562 11.609375 24.9375 11.671875 C 24.902344 11.726562 24.964844 11.820312 25.070312 11.878906 C 25.34375 12.027344 25.375 12.152344 25.25 12.578125 C 25.1875 12.785156 24.835938 13.886719 24.828125 13.894531 C 24.824219 13.898438 24.726562 13.878906 24.605469 13.847656 C 23.136719 13.480469 21.832031 14.523438 21.886719 16.023438 C 21.933594 17.378906 23.160156 18.308594 24.53125 18.027344 C 26.066406 17.710938 26.730469 15.746094 25.707031 14.558594 C 25.621094 14.457031 25.523438 14.371094 25.136719 14.054688 L 25.082031 14.011719 L 25.160156 13.789062 C 25.203125 13.664062 25.25 13.566406 25.261719 13.566406 C 25.304688 13.566406 25.863281 14.164062 26.582031 14.980469 C 27.199219 15.6875 27.160156 15.636719 27.132812 15.710938 C 27.042969 15.96875 27.214844 16.40625 27.449219 16.53125 C 27.515625 16.566406 27.527344 16.582031 27.527344 16.648438 C 27.527344 16.742188 27.617188 16.925781 27.691406 16.980469 C 27.9375 17.152344 28.183594 17.023438 28.304688 16.65625 L 28.355469 16.511719 L 28.59375 16.507812 C 28.875 16.5 28.847656 16.480469 28.960938 16.757812 C 29.710938 18.589844 32.378906 18.484375 33.003906 16.59375 C 33.179688 16.074219 33.160156 15.570312 32.945312 15.070312 C 32.496094 14.015625 31.421875 13.554688 30.203125 13.890625 C 30.164062 13.898438 30.152344 13.882812 30.109375 13.78125 C 30.085938 13.714844 30 13.53125 29.921875 13.371094 C 29.84375 13.214844 29.777344 13.070312 29.777344 13.050781 C 29.777344 12.996094 30 12.761719 30.148438 12.660156 C 30.390625 12.5 30.46875 12.382812 30.511719 12.121094 C 30.554688 11.839844 30.535156 11.777344 30.128906 10.847656 C 30.007812 10.570312 29.828125 10.164062 29.730469 9.9375 C 29.480469 9.359375 29.394531 9.242188 29.148438 9.113281 C 29.015625 9.046875 28.703125 9.027344 28.554688 9.074219 M 28.636719 11.484375 C 28.761719 11.785156 28.859375 12.03125 28.855469 12.035156 C 28.851562 12.039062 28.535156 12.070312 28.152344 12.105469 C 27.21875 12.195312 27.1875 12.199219 27.113281 12.25 C 27 12.332031 26.945312 12.414062 26.945312 12.503906 L 26.945312 12.585938 L 25.570312 12.585938 L 25.601562 12.496094 C 25.644531 12.382812 25.644531 12.085938 25.601562 11.964844 L 25.570312 11.878906 L 25.738281 11.878906 C 25.875 11.878906 25.914062 11.886719 25.960938 11.921875 C 26.054688 11.988281 26.207031 11.976562 26.808594 11.847656 C 27.285156 11.742188 28.042969 11.585938 28.0625 11.585938 C 28.066406 11.585938 28.140625 11.4375 28.230469 11.253906 C 28.316406 11.070312 28.394531 10.925781 28.398438 10.929688 C 28.402344 10.933594 28.511719 11.183594 28.636719 11.484375 M 26.617188 12.917969 C 26.84375 12.925781 27.035156 12.941406 27.042969 12.953125 C 27.054688 12.960938 27.21875 13.363281 27.410156 13.839844 L 27.757812 14.710938 L 27.703125 15.296875 L 27.570312 15.335938 C 27.496094 15.355469 27.414062 15.378906 27.390625 15.386719 C 27.351562 15.398438 27.316406 15.371094 27.171875 15.207031 C 26.742188 14.726562 26.089844 14 25.972656 13.878906 C 25.902344 13.804688 25.738281 13.617188 25.601562 13.464844 L 25.355469 13.1875 L 25.410156 13.03125 L 25.46875 12.875 L 25.835938 12.886719 C 26.039062 12.894531 26.390625 12.910156 26.617188 12.917969 M 28.734375 12.949219 C 28.734375 12.957031 28.625 13.117188 28.492188 13.308594 L 28.25 13.65625 L 28.199219 13.59375 C 28.097656 13.464844 27.914062 13.027344 27.945312 12.992188 C 27.964844 12.972656 28.734375 12.929688 28.734375 12.949219 M 29.726562 13.679688 C 29.890625 14.078125 29.890625 14.03125 29.710938 14.167969 C 29.289062 14.488281 28.996094 14.882812 28.902344 15.265625 L 28.878906 15.355469 L 28.734375 15.359375 C 28.65625 15.363281 28.570312 15.363281 28.542969 15.363281 C 28.488281 15.367188 28.488281 15.382812 28.539062 14.941406 C 28.578125 14.617188 28.5625 14.652344 28.910156 14.179688 C 29.476562 13.414062 29.554688 13.3125 29.570312 13.332031 C 29.582031 13.339844 29.652344 13.496094 29.726562 13.679688 M 31.332031 14.242188 C 32.542969 14.570312 33.046875 15.890625 32.34375 16.910156 C 31.640625 17.9375 29.972656 17.8125 29.433594 16.6875 C 29.3125 16.433594 29.210938 16.46875 30.296875 16.386719 C 31.117188 16.324219 31.199219 16.300781 31.300781 16.101562 C 31.421875 15.863281 31.324219 15.652344 31.027344 15.5 C 30.957031 15.46875 30.890625 15.417969 30.875 15.390625 C 30.839844 15.335938 30.363281 14.308594 30.363281 14.289062 C 30.363281 14.28125 30.480469 14.246094 30.664062 14.203125 C 30.75 14.179688 31.210938 14.207031 31.332031 14.242188 M 24.394531 14.25 C 24.535156 14.269531 24.65625 14.292969 24.664062 14.300781 C 24.746094 14.382812 24.355469 15.300781 24.117188 15.59375 C 23.875 15.894531 23.847656 15.960938 23.929688 16.054688 C 24.085938 16.242188 24.527344 15.679688 24.785156 14.957031 C 24.890625 14.664062 24.960938 14.503906 24.976562 14.503906 C 25.011719 14.503906 25.207031 14.664062 25.3125 14.78125 C 26.148438 15.691406 25.734375 17.195312 24.546875 17.566406 C 24.296875 17.644531 23.707031 17.640625 23.484375 17.554688 C 22.039062 17.011719 21.90625 15.082031 23.265625 14.398438 C 23.640625 14.210938 23.894531 14.175781 24.394531 14.25 M 30.332031 14.921875 C 30.457031 15.199219 30.5625 15.433594 30.566406 15.445312 C 30.570312 15.457031 30.523438 15.460938 30.441406 15.453125 C 30.367188 15.445312 30.121094 15.429688 29.890625 15.417969 C 29.664062 15.40625 29.4375 15.390625 29.386719 15.386719 L 29.300781 15.375 L 29.335938 15.277344 C 29.425781 15.007812 29.945312 14.417969 30.089844 14.417969 C 30.097656 14.417969 30.203125 14.644531 30.332031 14.921875 M 28.792969 15.558594 C 28.8125 15.574219 28.8125 15.617188 28.792969 15.761719 C 28.777344 15.894531 28.777344 15.996094 28.789062 16.101562 C 28.816406 16.285156 28.820312 16.28125 28.542969 16.304688 C 28.375 16.316406 28.359375 16.316406 28.359375 16.28125 C 28.359375 16.234375 28.417969 15.734375 28.433594 15.621094 L 28.449219 15.542969 L 28.605469 15.542969 C 28.695312 15.542969 28.777344 15.550781 28.792969 15.558594 M 27.644531 15.632812 C 27.636719 15.667969 27.617188 15.816406 27.601562 15.960938 C 27.582031 16.101562 27.5625 16.242188 27.554688 16.269531 L 27.546875 16.320312 L 27.492188 16.269531 C 27.289062 16.082031 27.300781 15.800781 27.523438 15.632812 C 27.636719 15.546875 27.660156 15.546875 27.644531 15.632812 M 29.589844 15.625 C 29.746094 15.636719 30.105469 15.660156 30.394531 15.679688 C 31.050781 15.722656 31.132812 15.746094 31.132812 15.910156 C 31.132812 16.105469 31 16.148438 30.332031 16.171875 C 30.042969 16.179688 29.6875 16.195312 29.539062 16.207031 C 29.371094 16.21875 29.257812 16.21875 29.246094 16.207031 C 29.222656 16.183594 29.21875 15.699219 29.242188 15.640625 C 29.257812 15.601562 29.234375 15.601562 29.589844 15.625 "/>
</g>
</svg>
