<?xml version="1.0" encoding="UTF-8"?>
<svg xmlns="http://www.w3.org/2000/svg" xmlns:xlink="http://www.w3.org/1999/xlink" width="50px" height="50px" viewBox="0 0 50 50" version="1.1">
<g id="surface1">
<path style=" stroke:none;fill-rule:nonzero;fill:rgb(9.019608%,43.529412%,75.686276%);fill-opacity:1;" d="M 0 25 C 0 11.195312 11.191406 0 25 0 C 38.808594 0 50 11.195312 50 25 C 50 38.808594 38.808594 50 25 50 C 11.191406 50 0 38.808594 0 25 "/>
<path style=" stroke:none;fill-rule:nonzero;fill:rgb(100%,100%,100%);fill-opacity:1;" d="M 27.203125 34.0625 C 27.203125 37.492188 29.980469 40.273438 33.414062 40.273438 C 36.839844 40.273438 39.621094 37.492188 39.621094 34.0625 L 39.621094 16.121094 C 39.621094 12.691406 36.839844 9.910156 33.414062 9.910156 C 29.980469 9.910156 27.203125 12.691406 27.203125 16.121094 Z M 35.484375 34.0625 C 35.484375 35.203125 34.554688 36.132812 33.414062 36.132812 C 32.269531 36.132812 31.34375 35.203125 31.34375 34.0625 L 31.34375 16.121094 C 31.34375 14.976562 32.269531 14.050781 33.414062 14.050781 C 34.554688 14.050781 35.484375 14.976562 35.484375 16.121094 L 35.484375 34.0625 "/>
<path style=" stroke:none;fill-rule:nonzero;fill:rgb(100%,100%,100%);fill-opacity:1;" d="M 22.800781 25.511719 C 22.558594 25.109375 21.886719 24.851562 21.886719 24.851562 C 21.886719 24.851562 22.355469 24.636719 22.679688 24.292969 C 23.175781 23.757812 23.109375 23.144531 23.109375 23.144531 L 23.109375 16.121094 C 23.109375 12.691406 20.328125 9.910156 16.898438 9.910156 C 13.46875 9.910156 10.6875 12.691406 10.6875 16.121094 L 14.828125 16.121094 C 14.828125 14.976562 15.757812 14.050781 16.898438 14.050781 C 18.042969 14.050781 18.96875 14.976562 18.96875 16.121094 L 18.96875 22.273438 L 18.960938 22.273438 C 18.960938 22.65625 18.652344 22.964844 18.273438 22.964844 L 14.808594 22.964844 L 14.808594 26.835938 L 18.300781 26.835938 C 18.667969 26.851562 18.960938 27.152344 18.960938 27.523438 L 18.96875 27.523438 L 18.96875 34.0625 C 18.96875 35.203125 18.042969 36.132812 16.898438 36.132812 C 15.757812 36.132812 14.828125 35.203125 14.828125 34.0625 L 10.6875 34.0625 C 10.6875 37.492188 13.46875 40.273438 16.898438 40.273438 C 20.328125 40.273438 23.109375 37.492188 23.109375 34.0625 L 23.109375 26.875 C 23.109375 26.875 23.167969 26.121094 22.800781 25.511719 "/>
</g>
</svg>
