<?xml version="1.0" encoding="UTF-8"?>
<svg xmlns="http://www.w3.org/2000/svg" xmlns:xlink="http://www.w3.org/1999/xlink" width="50px" height="50px" viewBox="0 0 50 50" version="1.1">
<g id="surface1">
<path style=" stroke:none;fill-rule:nonzero;fill:rgb(93.333334%,10.980392%,13.725491%);fill-opacity:1;" d="M 0 25 C 0 11.195312 11.191406 0 25 0 C 38.808594 0 50 11.195312 50 25 C 50 38.804688 38.808594 50 25 50 C 11.191406 50 0 38.804688 0 25 Z M 0 25 "/>
<path style=" stroke:none;fill-rule:nonzero;fill:rgb(100%,100%,100%);fill-opacity:1;" d="M 25 43.535156 C 35.238281 43.535156 43.539062 35.238281 43.539062 25 C 43.539062 14.761719 35.238281 6.460938 25 6.460938 C 14.761719 6.460938 6.460938 14.761719 6.460938 25 C 6.460938 35.238281 14.761719 43.535156 25 43.535156 "/>
<path style=" stroke:none;fill-rule:nonzero;fill:rgb(100%,94.509804%,0%);fill-opacity:1;" d="M 19.65625 24.917969 L 30.296875 24.917969 L 30.296875 14.277344 L 19.65625 14.277344 Z M 19.65625 24.917969 "/>
<path style=" stroke:none;fill-rule:nonzero;fill:rgb(0%,0%,0%);fill-opacity:1;" d="M 17.027344 26.542969 L 18.230469 14.816406 C 18.230469 14.816406 18.269531 13.894531 18.769531 13.433594 C 19.429688 12.824219 20.589844 12.792969 20.589844 12.792969 L 29.21875 12.792969 C 29.21875 12.792969 30.378906 12.824219 31.035156 13.433594 C 31.535156 13.894531 31.578125 14.816406 31.578125 14.816406 L 32.78125 26.542969 Z M 19.65625 24.917969 L 30.296875 24.917969 L 30.296875 14.277344 L 19.65625 14.277344 Z M 19.65625 24.917969 "/>
<path style=" stroke:none;fill-rule:nonzero;fill:rgb(0%,0%,0%);fill-opacity:1;" d="M 33.964844 31.207031 L 33.964844 30.867188 C 33.964844 30.160156 33.394531 29.589844 32.6875 29.589844 L 32.3125 29.589844 C 31.605469 29.589844 31.035156 30.160156 31.035156 30.867188 L 31.035156 31.4375 L 30.15625 31.4375 L 30.15625 32.226562 L 28.757812 32.226562 L 28.757812 32.058594 L 26.027344 32.058594 C 25.757812 31.671875 25.335938 31.421875 24.855469 31.421875 C 24.378906 31.421875 23.953125 31.671875 23.6875 32.058594 L 20.957031 32.058594 L 20.957031 32.226562 L 19.558594 32.226562 L 19.558594 31.4375 L 18.679688 31.4375 L 18.679688 30.867188 C 18.679688 30.160156 18.105469 29.589844 17.398438 29.589844 L 17.027344 29.589844 C 16.320312 29.589844 15.746094 30.160156 15.746094 30.867188 L 15.746094 31.207031 C 15.59375 31.292969 15.488281 31.453125 15.488281 31.640625 L 15.488281 34.03125 C 15.488281 34.21875 15.59375 34.378906 15.746094 34.464844 L 15.746094 34.804688 C 15.746094 35.511719 16.320312 36.082031 17.027344 36.082031 L 17.398438 36.082031 C 18.105469 36.082031 18.679688 35.511719 18.679688 34.804688 L 18.679688 34.234375 L 19.558594 34.234375 L 19.558594 33.445312 L 20.957031 33.445312 L 20.957031 33.679688 C 20.957031 33.679688 22.871094 33.765625 23.863281 34.1875 C 23.867188 34.1875 23.867188 34.1875 23.867188 34.1875 C 23.871094 34.191406 23.875 34.195312 23.878906 34.199219 C 23.894531 34.214844 24.214844 34.617188 24.855469 34.609375 C 25.488281 34.601562 25.820312 34.214844 25.835938 34.199219 C 25.839844 34.195312 25.84375 34.191406 25.847656 34.1875 C 26.839844 33.765625 28.757812 33.679688 28.757812 33.679688 L 28.757812 33.445312 L 30.15625 33.445312 L 30.15625 34.234375 L 31.035156 34.234375 L 31.035156 34.804688 C 31.035156 35.511719 31.605469 36.082031 32.3125 36.082031 L 32.6875 36.082031 C 33.394531 36.082031 33.964844 35.511719 33.964844 34.804688 L 33.964844 34.464844 C 34.121094 34.378906 34.226562 34.21875 34.226562 34.03125 L 34.226562 31.640625 C 34.226562 31.453125 34.121094 31.292969 33.964844 31.207031 "/>
<path style=" stroke:none;fill-rule:nonzero;fill:rgb(0%,0%,0%);fill-opacity:1;" d="M 15.65625 29.132812 L 34.117188 29.132812 L 34.117188 27.328125 L 15.65625 27.328125 Z M 15.65625 29.132812 "/>
<path style=" stroke:none;fill-rule:nonzero;fill:rgb(96.470588%,51.372552%,42.352942%);fill-opacity:1;" d="M 19.65625 24.917969 L 30.296875 24.917969 L 30.296875 14.277344 L 19.65625 14.277344 Z M 19.65625 24.917969 "/>
</g>
</svg>
