<?xml version="1.0" encoding="UTF-8"?>
<svg xmlns="http://www.w3.org/2000/svg" xmlns:xlink="http://www.w3.org/1999/xlink" width="50px" height="50px" viewBox="0 0 50 50" version="1.1">
<g id="surface1">
<path style=" stroke:none;fill-rule:nonzero;fill:rgb(93.333334%,10.980392%,13.725491%);fill-opacity:1;" d="M 0 25 C 0 11.191406 11.191406 0 25 0 C 38.808594 0 50 11.191406 50 25 C 50 38.808594 38.808594 50 25 50 C 11.191406 50 0 38.808594 0 25 Z M 0 25 "/>
<path style=" stroke:none;fill-rule:nonzero;fill:rgb(100%,100%,100%);fill-opacity:1;" d="M 25 43.539062 C 35.238281 43.539062 43.539062 35.238281 43.539062 25 C 43.539062 14.761719 35.238281 6.460938 25 6.460938 C 14.761719 6.460938 6.460938 14.761719 6.460938 25 C 6.460938 35.238281 14.761719 43.539062 25 43.539062 "/>
<path style=" stroke:none;fill-rule:nonzero;fill:rgb(0%,0%,0%);fill-opacity:1;" d="M 38.839844 23.625 C 37.675781 22.464844 36.128906 21.824219 34.488281 21.824219 C 33.699219 21.824219 32.949219 21.972656 32.253906 22.242188 L 30.828125 19.074219 L 31.40625 18.160156 C 32.414062 18.367188 33.410156 18.5625 33.464844 18.5625 C 34.027344 18.5625 34.484375 18.109375 34.484375 17.542969 C 34.484375 16.980469 34.027344 16.523438 33.464844 16.523438 C 33.4375 16.523438 29.257812 16.527344 29.257812 16.527344 C 28.925781 16.527344 28.660156 16.792969 28.660156 17.121094 C 28.660156 17.453125 28.925781 17.71875 29.257812 17.71875 L 29.257812 17.726562 C 29.257812 17.726562 29.878906 17.851562 30.648438 18.007812 L 30.1875 18.742188 L 19.347656 18.742188 C 19.628906 17.898438 19.8125 17.34375 19.8125 17.34375 C 19.816406 17.332031 19.820312 17.324219 19.820312 17.3125 C 19.824219 17.304688 19.828125 17.292969 19.828125 17.28125 C 19.828125 17.273438 19.828125 17.261719 19.828125 17.25 C 19.828125 17.242188 19.832031 17.230469 19.828125 17.222656 C 19.828125 17.210938 19.828125 17.199219 19.824219 17.191406 C 19.824219 17.179688 19.824219 17.171875 19.820312 17.160156 C 19.816406 17.152344 19.8125 17.140625 19.808594 17.132812 C 19.804688 17.121094 19.804688 17.113281 19.796875 17.105469 C 19.792969 17.09375 19.789062 17.085938 19.78125 17.078125 C 19.777344 17.070312 19.773438 17.0625 19.765625 17.050781 C 19.761719 17.042969 19.753906 17.039062 19.746094 17.03125 C 19.738281 17.023438 19.734375 17.015625 19.726562 17.007812 C 19.71875 17 19.707031 16.996094 19.699219 16.988281 C 19.691406 16.984375 19.683594 16.976562 19.675781 16.972656 C 19.664062 16.964844 19.65625 16.960938 19.644531 16.957031 C 19.636719 16.953125 19.628906 16.949219 19.617188 16.945312 L 17.851562 16.332031 L 18.378906 14.941406 L 22.640625 14.894531 L 23.902344 16.035156 C 24.03125 16.152344 24.230469 16.140625 24.347656 16.011719 C 24.464844 15.882812 24.457031 15.683594 24.328125 15.566406 L 22.972656 14.34375 L 22.882812 14.257812 L 22.757812 14.261719 L 18.160156 14.3125 L 17.945312 14.3125 L 17.03125 16.714844 L 17.335938 16.820312 L 19.117188 17.4375 L 17.515625 22.242188 C 16.8125 21.96875 16.054688 21.824219 15.277344 21.824219 C 11.882812 21.824219 9.121094 24.582031 9.121094 27.976562 C 9.121094 29.621094 9.761719 31.164062 10.925781 32.328125 C 12.085938 33.488281 13.632812 34.128906 15.277344 34.128906 C 16.917969 34.128906 18.464844 33.488281 19.628906 32.328125 C 20.789062 31.164062 21.429688 29.621094 21.429688 27.976562 C 21.429688 26.332031 20.789062 24.789062 19.628906 23.625 C 19.167969 23.167969 18.652344 22.792969 18.09375 22.503906 C 18.242188 22.058594 18.394531 21.605469 18.542969 21.164062 L 23.222656 26.160156 C 22.898438 26.558594 22.707031 27.066406 22.707031 27.617188 C 22.707031 28.234375 22.945312 28.8125 23.382812 29.25 C 23.820312 29.6875 24.398438 29.925781 25.015625 29.925781 C 25.109375 29.925781 25.199219 29.917969 25.289062 29.910156 L 25.40625 30.421875 L 24.65625 30.421875 L 24.65625 31.144531 L 26.730469 31.144531 L 26.730469 30.421875 L 25.773438 30.421875 L 25.644531 29.839844 C 26.019531 29.734375 26.367188 29.535156 26.652344 29.25 C 26.992188 28.910156 27.210938 28.480469 27.292969 28.019531 L 28.335938 28.058594 C 28.355469 29.671875 28.992188 31.183594 30.136719 32.328125 C 31.296875 33.488281 32.84375 34.128906 34.488281 34.128906 C 36.128906 34.128906 37.675781 33.488281 38.839844 32.328125 C 40 31.164062 40.640625 29.621094 40.640625 27.976562 C 40.640625 26.332031 40 24.789062 38.839844 23.625 Z M 18.863281 24.390625 C 19.820312 25.347656 20.347656 26.621094 20.347656 27.976562 C 20.347656 30.773438 18.070312 33.046875 15.277344 33.046875 C 13.921875 33.046875 12.648438 32.519531 11.691406 31.5625 C 10.730469 30.605469 10.203125 29.332031 10.203125 27.976562 C 10.203125 26.621094 10.730469 25.347656 11.691406 24.390625 C 12.648438 23.433594 13.921875 22.90625 15.277344 22.90625 C 15.9375 22.90625 16.578125 23.03125 17.171875 23.273438 L 16.058594 26.613281 C 15.972656 26.84375 15.640625 27.503906 15.164062 27.679688 C 15.003906 27.742188 14.917969 27.921875 14.980469 28.085938 C 15.042969 28.25 15.222656 28.332031 15.386719 28.273438 C 16.234375 27.953125 16.636719 26.867188 16.65625 26.820312 C 16.65625 26.820312 17.148438 25.335938 17.746094 23.546875 C 18.148438 23.773438 18.523438 24.054688 18.863281 24.390625 Z M 31.679688 22.503906 C 29.847656 23.445312 28.550781 25.277344 28.359375 27.425781 L 27.316406 27.386719 C 27.265625 26.855469 27.035156 26.363281 26.652344 25.980469 C 26.617188 25.945312 26.578125 25.914062 26.539062 25.878906 L 30.425781 19.714844 Z M 32.121094 23.488281 L 33.988281 27.640625 L 29.441406 27.46875 C 29.554688 26.304688 30.0625 25.226562 30.902344 24.390625 C 31.265625 24.023438 31.679688 23.722656 32.121094 23.488281 Z M 24.566406 26.671875 L 24.058594 26.128906 C 24.167969 26.058594 24.285156 26 24.40625 25.953125 Z M 24.753906 25.867188 C 24.839844 25.855469 24.929688 25.84375 25.015625 25.84375 C 25.230469 25.84375 25.441406 25.886719 25.636719 25.957031 L 25 26.964844 Z M 26.246094 26.34375 C 26.253906 26.351562 26.261719 26.355469 26.269531 26.363281 C 26.542969 26.636719 26.714844 26.988281 26.765625 27.367188 L 25.628906 27.324219 Z M 19.109375 19.464844 L 29.730469 19.464844 L 25.929688 25.492188 C 25.644531 25.371094 25.335938 25.304688 25.015625 25.304688 C 24.886719 25.304688 24.761719 25.316406 24.636719 25.339844 L 24.378906 24.1875 L 25.199219 24.1875 L 25.199219 23.464844 L 23.121094 23.464844 L 23.121094 24.1875 L 24.011719 24.1875 L 24.289062 25.425781 C 24.070312 25.496094 23.867188 25.601562 23.683594 25.730469 L 18.769531 20.484375 C 18.886719 20.125 19 19.78125 19.109375 19.464844 Z M 25.015625 29.386719 C 24.542969 29.386719 24.097656 29.203125 23.765625 28.867188 C 23.429688 28.53125 23.246094 28.089844 23.246094 27.617188 C 23.246094 27.230469 23.371094 26.863281 23.597656 26.5625 L 24.785156 27.832031 L 24.835938 27.886719 L 25.171875 29.378906 C 25.121094 29.382812 25.070312 29.386719 25.015625 29.386719 Z M 25.527344 29.308594 L 25.21875 27.9375 L 26.746094 27.996094 C 26.605469 28.625 26.136719 29.125 25.527344 29.308594 Z M 34.488281 33.046875 C 33.132812 33.046875 31.859375 32.519531 30.902344 31.5625 C 29.972656 30.632812 29.449219 29.40625 29.417969 28.097656 L 34.476562 28.292969 L 34.789062 28.246094 L 34.773438 27.847656 L 32.699219 23.230469 C 33.261719 23.015625 33.867188 22.90625 34.488281 22.90625 C 35.839844 22.90625 37.113281 23.433594 38.074219 24.390625 C 39.03125 25.347656 39.558594 26.621094 39.558594 27.976562 C 39.558594 30.773438 37.285156 33.046875 34.488281 33.046875 "/>
</g>
</svg>
