<?xml version="1.0" encoding="UTF-8"?>
<svg xmlns="http://www.w3.org/2000/svg" xmlns:xlink="http://www.w3.org/1999/xlink" width="50px" height="50px" viewBox="0 0 50 50" version="1.1">
<g id="surface1">
<path style=" stroke:none;fill-rule:nonzero;fill:rgb(93.333334%,10.980392%,13.725491%);fill-opacity:1;" d="M 0 25 C 0 11.191406 11.191406 0 25 0 C 38.808594 0 50 11.191406 50 25 C 50 38.808594 38.808594 50 25 50 C 11.191406 50 0 38.808594 0 25 Z M 0 25 "/>
<path style=" stroke:none;fill-rule:nonzero;fill:rgb(100%,100%,100%);fill-opacity:1;" d="M 25 43.539062 C 35.238281 43.539062 43.539062 35.238281 43.539062 25 C 43.539062 14.761719 35.238281 6.460938 25 6.460938 C 14.761719 6.460938 6.460938 14.761719 6.460938 25 C 6.460938 35.238281 14.761719 43.539062 25 43.539062 "/>
<path style=" stroke:none;fill-rule:nonzero;fill:rgb(0%,0%,0%);fill-opacity:1;" d="M 38.160156 17.828125 L 20.527344 17.828125 C 20.035156 17.828125 19.429688 18.230469 19.429688 18.722656 L 19.425781 18.742188 L 16.269531 18.742188 C 16.191406 18.742188 15.523438 18.75 15.0625 19.097656 C 14.605469 19.441406 14.433594 19.929688 14.414062 19.984375 C 14.414062 19.980469 13.808594 21.691406 13.523438 22.496094 L 12.921875 22.496094 C 12.429688 22.496094 12.027344 22.894531 12.027344 23.390625 L 12.027344 28.191406 L 11.484375 28.191406 C 11.179688 28.191406 10.933594 28.441406 10.933594 28.746094 C 10.933594 29.046875 11.179688 29.296875 11.484375 29.296875 L 12.960938 29.296875 C 12.980469 30.757812 14.167969 31.941406 15.636719 31.941406 C 17.105469 31.941406 18.292969 30.757812 18.3125 29.296875 L 30.863281 29.296875 C 30.882812 30.757812 32.070312 31.941406 33.539062 31.941406 C 35.007812 31.941406 36.195312 30.757812 36.214844 29.296875 L 38.160156 29.296875 Z M 15.234375 20.265625 C 15.234375 20.257812 15.339844 19.972656 15.582031 19.792969 C 15.777344 19.644531 16.152344 19.609375 16.269531 19.605469 C 16.269531 19.605469 18.007812 19.605469 19.210938 19.605469 L 18.488281 22.496094 L 14.445312 22.496094 L 15.234375 20.265625 "/>
</g>
</svg>
