<?xml version="1.0" encoding="UTF-8"?>
<svg xmlns="http://www.w3.org/2000/svg" xmlns:xlink="http://www.w3.org/1999/xlink" width="50px" height="50px" viewBox="0 0 50 50" version="1.1">
<g id="surface1">
<path style=" stroke:none;fill-rule:evenodd;fill:rgb(88.627452%,2.352941%,7.450981%);fill-opacity:1;" d="M 25.003906 0 C 38.808594 0 50.003906 11.195312 50.003906 25.003906 C 50.003906 38.808594 38.808594 50.003906 25.003906 50.003906 C 11.195312 50.003906 0 38.808594 0 25.003906 C 0 11.195312 11.195312 0 25.003906 0 "/>
<path style=" stroke:none;fill-rule:evenodd;fill:rgb(100%,100%,100%);fill-opacity:1;" d="M 25.003906 6.382812 C 14.722656 6.382812 6.382812 14.722656 6.382812 25.003906 C 6.382812 35.28125 14.722656 43.621094 25.003906 43.621094 C 35.28125 43.621094 43.621094 35.28125 43.621094 25.003906 C 43.621094 14.722656 35.28125 6.382812 25.003906 6.382812 "/>
<path style=" stroke:none;fill-rule:evenodd;fill:rgb(11.372549%,11.372549%,10.588235%);fill-opacity:1;" d="M 37.03125 25.027344 C 37.03125 23.054688 36.941406 21.355469 36.730469 19.960938 C 36.515625 18.5625 36.210938 17.441406 35.789062 16.558594 C 35.332031 15.679688 34.785156 15.042969 34.089844 14.648438 C 33.390625 14.253906 32.570312 14.070312 31.601562 14.070312 C 30.597656 14.070312 29.777344 14.253906 29.078125 14.648438 C 28.382812 15.042969 27.835938 15.679688 27.410156 16.558594 C 26.953125 17.441406 26.652344 18.5625 26.4375 19.960938 C 26.226562 21.355469 26.136719 23.054688 26.136719 25.027344 C 26.136719 27 26.226562 28.699219 26.4375 30.066406 C 26.652344 31.464844 26.953125 32.585938 27.410156 33.46875 C 27.835938 34.347656 28.382812 34.953125 29.078125 35.347656 C 29.777344 35.738281 30.597656 35.921875 31.601562 35.921875 C 32.570312 35.921875 33.390625 35.738281 34.089844 35.347656 C 34.785156 34.953125 35.332031 34.347656 35.789062 33.46875 C 36.210938 32.585938 36.515625 31.464844 36.730469 30.066406 C 36.941406 28.699219 37.03125 27 37.03125 25.027344 M 33.90625 25.027344 C 33.90625 26.820312 33.875 28.246094 33.785156 29.335938 C 33.695312 30.460938 33.574219 31.3125 33.390625 31.917969 C 33.207031 32.554688 32.964844 32.949219 32.691406 33.164062 C 32.390625 33.375 32.023438 33.496094 31.601562 33.496094 C 31.171875 33.496094 30.8125 33.375 30.539062 33.101562 C 30.230469 32.859375 29.988281 32.40625 29.808594 31.765625 C 29.628906 31.128906 29.503906 30.25 29.414062 29.15625 C 29.320312 28.09375 29.292969 26.699219 29.292969 25.027344 C 29.292969 23.328125 29.320312 21.933594 29.414062 20.808594 C 29.503906 19.71875 29.628906 18.835938 29.808594 18.199219 C 29.988281 17.5625 30.230469 17.136719 30.539062 16.863281 C 30.8125 16.621094 31.171875 16.5 31.601562 16.5 C 31.996094 16.5 32.355469 16.621094 32.660156 16.832031 C 32.933594 17.046875 33.179688 17.46875 33.359375 18.105469 C 33.542969 18.746094 33.695312 19.59375 33.785156 20.6875 C 33.875 21.8125 33.90625 23.238281 33.90625 25.027344 Z M 23.648438 29.25 C 23.648438 28.304688 23.527344 27.546875 23.3125 26.910156 C 23.074219 26.273438 22.769531 25.757812 22.402344 25.363281 C 22.042969 24.96875 21.648438 24.632812 21.191406 24.421875 C 20.738281 24.207031 20.308594 24.058594 19.886719 23.964844 C 20.28125 23.84375 20.703125 23.664062 21.097656 23.390625 C 21.492188 23.144531 21.828125 22.84375 22.164062 22.449219 C 22.464844 22.085938 22.710938 21.660156 22.917969 21.144531 C 23.105469 20.628906 23.195312 20.078125 23.195312 19.445312 C 23.195312 18.378906 23.042969 17.5 22.769531 16.800781 C 22.464844 16.105469 22.070312 15.558594 21.613281 15.164062 C 21.132812 14.769531 20.585938 14.464844 19.976562 14.3125 C 19.371094 14.160156 18.761719 14.070312 18.125 14.070312 C 17.214844 14.070312 16.363281 14.222656 15.574219 14.554688 C 14.785156 14.890625 14.027344 15.316406 13.328125 15.890625 L 14.632812 17.925781 C 15.242188 17.46875 15.820312 17.136719 16.363281 16.953125 C 16.878906 16.773438 17.394531 16.679688 17.851562 16.679688 C 18.0625 16.679688 18.308594 16.710938 18.582031 16.742188 C 18.851562 16.773438 19.097656 16.894531 19.339844 17.074219 C 19.550781 17.289062 19.765625 17.558594 19.914062 17.957031 C 20.070312 18.351562 20.15625 18.894531 20.15625 19.59375 C 20.15625 20.75 19.914062 21.597656 19.460938 22.113281 C 18.976562 22.628906 18.371094 22.902344 17.609375 22.902344 L 16.789062 22.902344 L 16.789062 25.363281 L 17.761719 25.363281 C 18.125 25.363281 18.488281 25.390625 18.824219 25.484375 C 19.15625 25.574219 19.429688 25.757812 19.703125 26.03125 C 19.949219 26.300781 20.15625 26.699219 20.308594 27.214844 C 20.464844 27.730469 20.523438 28.398438 20.523438 29.25 C 20.523438 30.003906 20.429688 30.613281 20.28125 31.128906 C 20.097656 31.644531 19.855469 32.039062 19.582031 32.34375 C 19.28125 32.675781 18.945312 32.890625 18.550781 33.011719 C 18.15625 33.164062 17.761719 33.222656 17.367188 33.222656 C 16.757812 33.222656 16.183594 33.132812 15.667969 32.921875 C 15.152344 32.707031 14.695312 32.464844 14.332031 32.191406 L 12.996094 34.347656 C 13.449219 34.710938 14.089844 35.042969 14.878906 35.347656 C 15.636719 35.679688 16.578125 35.832031 17.667969 35.832031 C 18.488281 35.832031 19.246094 35.710938 19.976562 35.4375 C 20.675781 35.167969 21.3125 34.773438 21.859375 34.226562 C 22.402344 33.679688 22.832031 32.980469 23.164062 32.160156 C 23.5 31.34375 23.648438 30.371094 23.648438 29.25 Z M 23.648438 29.25 "/>
</g>
</svg>
