<?xml version="1.0" encoding="UTF-8"?>
<svg xmlns="http://www.w3.org/2000/svg" xmlns:xlink="http://www.w3.org/1999/xlink" width="50px" height="50px" viewBox="0 0 50 50" version="1.1">
<g id="surface1">
<path style=" stroke:none;fill-rule:nonzero;fill:rgb(93.333334%,10.980392%,13.725491%);fill-opacity:1;" d="M 25 0 C 11.191406 0 0 11.191406 0 25 C 0 38.808594 11.191406 50 25 50 C 38.808594 50 50 38.808594 50 25 C 50 11.191406 38.808594 0 25 0 Z M 25 0 "/>
<path style=" stroke:none;fill-rule:nonzero;fill:rgb(100%,100%,100%);fill-opacity:1;" d="M 25 6.460938 C 34.921875 6.460938 43.019531 14.253906 43.515625 24.054688 L 6.488281 24.054688 C 6.980469 14.253906 15.078125 6.460938 25 6.460938 Z M 25 6.460938 "/>
<path style=" stroke:none;fill-rule:nonzero;fill:rgb(100%,100%,100%);fill-opacity:1;" d="M 25 43.539062 C 15.078125 43.539062 6.980469 35.746094 6.488281 25.945312 L 43.515625 25.945312 C 43.019531 35.746094 34.921875 43.539062 25 43.539062 "/>
<path style=" stroke:none;fill-rule:nonzero;fill:rgb(0%,0%,0%);fill-opacity:1;" d="M 34.878906 36.191406 C 34.804688 35.542969 34.570312 34.941406 34.21875 34.429688 L 34.703125 33.71875 L 32.347656 32.113281 L 31.847656 32.84375 C 31.585938 32.785156 31.3125 32.753906 31.035156 32.753906 C 30.839844 32.753906 30.652344 32.769531 30.464844 32.796875 L 30.34375 31.84375 L 30.683594 31.660156 C 31.269531 31.738281 31.425781 31.738281 31.425781 31.738281 C 31.660156 30.644531 31.230469 29.355469 31.230469 29.355469 C 31.230469 29.355469 29.542969 29.320312 28.703125 31.226562 L 26.140625 30.140625 C 26.144531 30.128906 26.148438 30.117188 26.148438 30.109375 C 26.210938 29.84375 26.382812 29.609375 26.382812 29.609375 C 26.765625 29.550781 27.117188 29.765625 27.4375 29.53125 C 27.382812 29.296875 27.675781 29.140625 27.878906 29.199219 C 28.027344 29.054688 27.734375 28.820312 27.878906 28.671875 C 27.964844 28.613281 28.0625 28.644531 28.066406 28.613281 C 28.09375 28.320312 28.054688 28.058594 27.851562 27.824219 C 27.851562 27.824219 26.414062 26.09375 25.242188 28.46875 C 25.242188 28.46875 23.101562 28.234375 22.957031 28.554688 C 22.957031 28.554688 23.136719 28.9375 22.839844 28.90625 C 22.253906 28.847656 20.875 29.230469 20.875 29.230469 L 20.875 29.726562 C 20.875 29.726562 22.3125 29.464844 23.21875 29.640625 L 23.191406 29.757812 C 23.191406 29.757812 21.542969 30.746094 21.109375 31.132812 C 20.445312 31.726562 20.148438 32.496094 20.054688 32.765625 C 19.902344 32.734375 19.746094 32.71875 19.585938 32.71875 C 17.753906 32.71875 16.1875 34.476562 15.445312 36.820312 C 15.429688 36.867188 16.152344 36.726562 16.15625 36.78125 C 16.160156 36.898438 16.171875 37.015625 16.191406 37.132812 L 15.523438 37.132812 L 15.523438 37.679688 L 16.324219 37.679688 C 16.765625 38.992188 18.003906 39.9375 19.464844 39.9375 C 20.898438 39.9375 22.121094 39.03125 22.582031 37.757812 L 26.191406 37.757812 C 26.191406 37.757812 26.671875 37.785156 27.105469 37.234375 C 27.066406 37.617188 27.011719 38.09375 26.96875 38.382812 L 28.070312 38.105469 C 28.613281 39.191406 29.738281 39.9375 31.035156 39.9375 C 32.863281 39.9375 34.347656 38.453125 34.347656 36.625 C 34.347656 36.476562 34.339844 36.335938 34.320312 36.191406 Z M 24.890625 32.453125 C 24.960938 32.015625 25.351562 31.472656 25.519531 31.257812 L 26.929688 31.898438 C 25.933594 32.125 25.253906 32.34375 24.886719 32.476562 C 24.890625 32.46875 24.890625 32.460938 24.890625 32.453125 Z M 20.453125 34.472656 C 20.9375 34.699219 21.21875 34.953125 21.609375 35.578125 L 20.164062 35.585938 Z M 16.9375 36.859375 C 16.929688 36.78125 16.925781 36.703125 16.925781 36.625 C 16.925781 36.53125 17.078125 36.597656 17.085938 36.507812 C 17.222656 35.230469 18.160156 34.300781 19.359375 34.261719 L 19.140625 35.585938 L 18.882812 35.585938 C 18.378906 35.585938 17.972656 36.066406 17.972656 36.664062 C 17.972656 36.730469 17.976562 36.792969 17.988281 36.859375 Z M 19.464844 39.164062 C 18.46875 39.164062 17.609375 38.59375 17.191406 37.757812 L 21.742188 37.757812 C 21.324219 38.59375 20.460938 39.164062 19.464844 39.164062 Z M 27.441406 35.191406 L 26.976562 35.203125 C 27.09375 34.621094 27.503906 33.378906 28.941406 32.527344 L 29.023438 33.320312 C 28.3125 33.753906 27.753906 34.410156 27.441406 35.191406 Z M 31.035156 39.164062 C 29.628906 39.164062 28.492188 38.027344 28.492188 36.625 C 28.492188 35.777344 28.90625 35.03125 29.539062 34.570312 L 31.074219 37.289062 L 31.699219 37.054688 L 30.644531 34.203125 L 30.632812 34.113281 C 30.761719 34.09375 30.898438 34.082031 31.035156 34.082031 C 32.4375 34.082031 33.574219 35.21875 33.574219 36.625 C 33.574219 38.027344 32.4375 39.164062 31.035156 39.164062 "/>
<path style=" stroke:none;fill-rule:nonzero;fill:rgb(0%,0%,0%);fill-opacity:1;" d="M 32.84375 19.191406 L 32.84375 17.808594 C 32.84375 17.808594 32.753906 16.96875 32.386719 16.671875 C 32.113281 16.449219 31.789062 16.457031 31.511719 16.398438 L 31.511719 12.214844 C 31.511719 10.480469 30.101562 9.070312 28.367188 9.070312 L 21.632812 9.070312 C 19.902344 9.070312 18.492188 10.480469 18.492188 12.210938 L 18.492188 16.398438 C 18.210938 16.453125 17.890625 16.445312 17.617188 16.667969 C 17.25 16.96875 17.160156 17.804688 17.160156 17.804688 L 17.160156 19.1875 L 18.359375 19.1875 L 18.359375 19.882812 L 18.273438 19.882812 C 18.132812 19.882812 18.019531 19.996094 18.019531 20.136719 C 18.019531 20.28125 18.132812 20.394531 18.273438 20.394531 L 18.359375 20.394531 L 18.359375 21.710938 C 18.359375 22.136719 18.703125 22.484375 19.132812 22.484375 C 19.5625 22.484375 19.90625 22.136719 19.90625 21.710938 L 19.90625 20.394531 L 30.09375 20.394531 L 30.09375 21.710938 C 30.09375 22.140625 30.441406 22.484375 30.867188 22.484375 C 31.296875 22.484375 31.644531 22.140625 31.644531 21.710938 L 31.644531 20.394531 L 31.726562 20.394531 C 31.867188 20.394531 31.984375 20.28125 31.984375 20.140625 C 31.984375 20 31.867188 19.886719 31.726562 19.886719 L 31.644531 19.886719 L 31.644531 19.191406 Z M 22.144531 19.882812 L 19.90625 19.882812 L 19.90625 19.1875 L 21.746094 19.1875 L 22.144531 19.621094 Z M 22.144531 18.671875 C 21.957031 18.441406 21.703125 18.148438 21.417969 17.847656 C 21.625 17.765625 21.8125 17.640625 21.972656 17.480469 C 22.035156 17.417969 22.09375 17.347656 22.144531 17.273438 Z M 22.144531 15.296875 C 22.09375 15.222656 22.035156 15.152344 21.972656 15.089844 C 21.652344 14.769531 21.226562 14.59375 20.777344 14.59375 C 20.507812 14.59375 20.253906 14.660156 20.023438 14.769531 L 20.023438 12.210938 C 20.023438 11.78125 20.191406 11.378906 20.496094 11.074219 C 20.800781 10.769531 21.203125 10.601562 21.632812 10.601562 L 28.367188 10.605469 C 28.796875 10.605469 29.203125 10.773438 29.503906 11.074219 C 29.808594 11.378906 29.976562 11.785156 29.976562 12.214844 L 29.976562 14.773438 C 29.75 14.660156 29.496094 14.59375 29.226562 14.59375 C 28.773438 14.59375 28.347656 14.769531 28.03125 15.089844 C 27.964844 15.15625 27.90625 15.226562 27.855469 15.296875 L 27.855469 14.1875 L 25.289062 12.867188 L 25.289062 12.480469 L 24.714844 12.480469 L 24.714844 12.867188 L 22.144531 14.183594 Z M 28.03125 17.484375 C 28.191406 17.644531 28.378906 17.769531 28.582031 17.851562 C 28.300781 18.148438 28.042969 18.445312 27.855469 18.671875 L 27.855469 17.277344 C 27.90625 17.347656 27.964844 17.417969 28.03125 17.484375 Z M 30.09375 19.886719 L 27.855469 19.882812 L 27.855469 19.621094 L 28.257812 19.191406 L 30.09375 19.191406 Z M 23.042969 18.984375 L 26.945312 18.984375 L 26.945312 19.898438 L 23.042969 19.898438 Z M 23.042969 18.984375 "/>
<path style=" stroke:none;fill-rule:nonzero;fill:rgb(100%,100%,100%);fill-opacity:1;" d="M 19.890625 17.171875 C 19.652344 16.933594 19.523438 16.621094 19.523438 16.285156 C 19.523438 15.949219 19.652344 15.636719 19.890625 15.398438 C 20.128906 15.160156 20.441406 15.03125 20.777344 15.03125 C 21.109375 15.03125 21.425781 15.160156 21.660156 15.398438 C 21.898438 15.636719 22.03125 15.949219 22.03125 16.285156 C 22.03125 16.976562 21.46875 17.539062 20.777344 17.539062 C 20.441406 17.539062 20.128906 17.40625 19.890625 17.171875 Z M 19.890625 17.171875 "/>
<path style=" stroke:none;fill-rule:nonzero;fill:rgb(100%,100%,100%);fill-opacity:1;" d="M 30.113281 17.171875 C 29.875 17.410156 29.558594 17.539062 29.226562 17.539062 C 28.535156 17.539062 27.972656 16.976562 27.972656 16.285156 C 27.972656 15.953125 28.101562 15.636719 28.339844 15.402344 C 28.578125 15.164062 28.890625 15.035156 29.226562 15.035156 C 29.558594 15.035156 29.875 15.164062 30.113281 15.402344 C 30.347656 15.636719 30.476562 15.953125 30.476562 16.285156 C 30.476562 16.621094 30.347656 16.9375 30.113281 17.171875 Z M 30.113281 17.171875 "/>
</g>
</svg>
