<?xml version="1.0" encoding="UTF-8"?>
<svg xmlns="http://www.w3.org/2000/svg" xmlns:xlink="http://www.w3.org/1999/xlink" width="50px" height="50px" viewBox="0 0 50 50" version="1.1">
<g id="surface1">
<path style=" stroke:none;fill-rule:evenodd;fill:rgb(92.54902%,10.980392%,14.117648%);fill-opacity:1;" d="M 25.082031 0.164062 C 38.839844 0.164062 50 11.320312 50 25.082031 C 50 38.839844 38.839844 50 25.082031 50 C 11.320312 50 0.164062 38.839844 0.164062 25.082031 C 0.164062 11.320312 11.320312 0.164062 25.082031 0.164062 "/>
<path style=" stroke:none;fill-rule:evenodd;fill:rgb(100%,100%,100%);fill-opacity:1;" d="M 25.082031 6.523438 C 14.835938 6.523438 6.523438 14.835938 6.523438 25.082031 C 6.523438 35.328125 14.835938 43.636719 25.082031 43.636719 C 35.328125 43.636719 43.636719 35.328125 43.636719 25.082031 C 43.636719 14.835938 35.328125 6.523438 25.082031 6.523438 "/>
<path style=" stroke:none;fill-rule:evenodd;fill:rgb(13.725491%,12.156863%,12.54902%);fill-opacity:1;" d="M 25.074219 28.726562 L 22.332031 26.34375 L 24.046875 26.34375 L 24.046875 22.171875 L 26.097656 22.171875 L 26.097656 26.34375 L 27.816406 26.34375 Z M 25.074219 28.726562 "/>
<path style=" stroke:none;fill-rule:evenodd;fill:rgb(13.725491%,12.156863%,12.54902%);fill-opacity:1;" d="M 22.8125 31.503906 L 17.441406 31.503906 L 17.441406 29.667969 C 17.441406 29.375 17.203125 29.054688 17.015625 29.054688 L 16.695312 29.054688 L 16.695312 27.433594 C 16.695312 26.6875 16.054688 26.101562 15.285156 26.101562 L 15.234375 26.101562 C 14.460938 26.101562 13.824219 26.6875 13.824219 27.433594 L 13.824219 30.464844 L 13.796875 30.464844 C 13.421875 30.464844 13.132812 31.316406 13.132812 32.351562 C 13.132812 33.390625 13.421875 34.242188 13.796875 34.242188 L 13.824219 34.242188 L 13.824219 37.222656 C 13.824219 37.9375 14.460938 38.550781 15.234375 38.550781 L 15.285156 38.550781 C 16.054688 38.550781 16.695312 37.9375 16.695312 37.222656 L 16.695312 35.597656 L 16.828125 35.597656 C 17.121094 35.597656 17.441406 35.28125 17.441406 34.984375 L 17.441406 33.125 L 22.8125 33.125 C 23.132812 34.058594 24.011719 34.71875 25.050781 34.71875 C 26.085938 34.71875 26.988281 34.058594 27.308594 33.125 L 32.847656 33.125 L 32.847656 34.984375 C 32.847656 35.28125 33.136719 35.570312 33.40625 35.597656 L 33.40625 37.222656 C 33.40625 37.9375 34.042969 38.550781 34.816406 38.550781 L 34.867188 38.550781 C 35.636719 38.550781 36.277344 37.9375 36.277344 37.222656 L 36.277344 34.242188 C 36.277344 34.242188 36.304688 34.242188 36.332031 34.242188 C 36.703125 34.242188 36.996094 33.390625 36.996094 32.351562 C 36.996094 31.316406 36.703125 30.464844 36.332031 30.464844 C 36.304688 30.464844 36.277344 30.464844 36.277344 30.464844 L 36.277344 27.433594 C 36.277344 26.6875 35.636719 26.101562 34.867188 26.101562 L 34.816406 26.101562 C 34.042969 26.101562 33.40625 26.6875 33.40625 27.433594 L 33.40625 29.054688 L 33.273438 29.054688 C 33.058594 29.054688 32.847656 29.375 32.847656 29.667969 L 32.847656 31.503906 L 27.308594 31.503906 C 26.988281 30.597656 26.085938 29.933594 25.050781 29.933594 C 24.011719 29.933594 23.132812 30.597656 22.8125 31.503906 "/>
<path style=" stroke:none;fill-rule:evenodd;fill:rgb(13.725491%,12.156863%,12.54902%);fill-opacity:1;" d="M 32.144531 18.730469 C 32.144531 19.300781 32.277344 19.746094 32.550781 20.0625 C 32.832031 20.378906 33.265625 20.542969 33.859375 20.542969 C 34.085938 20.542969 34.332031 20.519531 34.558594 20.46875 C 34.777344 20.433594 35.007812 20.363281 35.222656 20.265625 L 34.921875 19.386719 C 34.765625 19.445312 34.617188 19.484375 34.484375 19.507812 C 34.355469 19.527344 34.21875 19.542969 34.085938 19.542969 C 33.820312 19.542969 33.628906 19.484375 33.53125 19.347656 C 33.421875 19.226562 33.375 19.046875 33.375 18.804688 L 33.375 15.347656 L 35.015625 15.347656 L 35.015625 14.382812 L 33.375 14.382812 L 33.375 12.8125 L 32.144531 12.8125 L 32.144531 14.382812 L 31.355469 14.382812 L 31.355469 15.347656 L 32.144531 15.347656 Z M 30.835938 18.46875 L 30.835938 17.4375 L 29.882812 17.4375 L 29.882812 15.738281 L 28.769531 15.738281 L 28.640625 17.4375 L 26.460938 17.4375 L 29.542969 11.953125 L 28.300781 11.953125 L 25.277344 17.292969 L 25.277344 18.46875 L 28.640625 18.46875 L 28.640625 20.421875 L 29.882812 20.421875 L 29.882812 18.46875 Z M 22.863281 19.648438 C 22.875 19.894531 22.933594 20.070312 23.039062 20.195312 C 23.132812 20.316406 23.230469 20.394531 23.296875 20.421875 L 22.523438 22.269531 L 23.40625 22.269531 L 24.46875 20.421875 C 24.5625 20.25 24.628906 20.097656 24.660156 19.964844 C 24.671875 19.839844 24.6875 19.730469 24.6875 19.648438 C 24.6875 19.390625 24.589844 19.171875 24.425781 19 C 24.25 18.835938 24.03125 18.738281 23.773438 18.738281 C 23.515625 18.738281 23.296875 18.835938 23.121094 19 C 22.960938 19.171875 22.863281 19.390625 22.863281 19.648438 Z M 18.214844 11.015625 C 18.699219 11 19.121094 11.105469 19.46875 11.316406 C 19.800781 11.542969 19.984375 11.964844 19.996094 12.585938 C 19.984375 13.207031 19.757812 13.734375 19.316406 14.171875 C 18.878906 14.609375 18.378906 15.046875 17.824219 15.488281 C 17.25 15.921875 16.75 16.453125 16.3125 17.070312 C 15.886719 17.6875 15.664062 18.492188 15.632812 19.488281 L 15.632812 20.421875 L 21.476562 20.421875 L 21.476562 19.078125 L 17.21875 19.078125 C 17.234375 18.398438 17.460938 17.828125 17.898438 17.375 C 18.320312 16.90625 18.820312 16.46875 19.394531 16.042969 C 19.953125 15.621094 20.453125 15.121094 20.886719 14.578125 C 21.3125 14.019531 21.539062 13.328125 21.570312 12.464844 C 21.554688 11.589844 21.269531 10.925781 20.691406 10.441406 C 20.132812 9.957031 19.335938 9.714844 18.292969 9.703125 C 17.671875 9.714844 17.128906 9.820312 16.660156 10.015625 C 16.191406 10.230469 15.796875 10.441406 15.484375 10.679688 L 16.132812 11.738281 C 16.460938 11.527344 16.796875 11.347656 17.128906 11.210938 C 17.445312 11.089844 17.808594 11.015625 18.214844 11.015625 Z M 18.214844 11.015625 "/>
</g>
</svg>
