<?xml version="1.0" encoding="UTF-8"?>
<svg xmlns="http://www.w3.org/2000/svg" xmlns:xlink="http://www.w3.org/1999/xlink" width="50px" height="50px" viewBox="0 0 50 50" version="1.1">
<g id="surface1">
<path style=" stroke:none;fill-rule:nonzero;fill:rgb(100%,100%,100%);fill-opacity:1;" d="M 48.730469 49.980469 C 49.070312 49.980469 49.386719 49.875 49.628906 49.683594 C 49.867188 49.492188 50 49.238281 50 48.96875 L 50 1.03125 C 50 0.761719 49.867188 0.507812 49.628906 0.316406 C 49.386719 0.125 49.070312 0.0195312 48.730469 0.0195312 L 1.269531 0.0195312 C 0.570312 0.0195312 0 0.472656 0 1.03125 L 0 48.96875 C 0 49.238281 0.132812 49.492188 0.371094 49.683594 C 0.613281 49.875 0.929688 49.980469 1.269531 49.980469 Z M 48.730469 49.980469 "/>
<path style=" stroke:none;fill-rule:nonzero;fill:rgb(9.019608%,43.529412%,75.686276%);fill-opacity:1;" d="M 1.269531 49.648438 C 1.042969 49.648438 0.828125 49.574219 0.667969 49.449219 C 0.507812 49.320312 0.417969 49.148438 0.417969 48.96875 L 0.417969 1.03125 C 0.417969 0.851562 0.507812 0.679688 0.667969 0.550781 C 0.828125 0.425781 1.042969 0.351562 1.269531 0.351562 L 48.730469 0.351562 C 48.957031 0.351562 49.171875 0.425781 49.332031 0.550781 C 49.492188 0.679688 49.582031 0.851562 49.582031 1.03125 L 49.582031 48.96875 C 49.582031 49.34375 49.199219 49.648438 48.730469 49.648438 L 1.269531 49.648438 "/>
<path style=" stroke:none;fill-rule:nonzero;fill:rgb(100%,100%,100%);fill-opacity:1;" d="M 22.78125 23.929688 C 21.964844 23.109375 20.882812 22.65625 19.730469 22.65625 C 19.179688 22.65625 18.652344 22.765625 18.167969 22.953125 L 17.167969 20.71875 L 17.570312 20.078125 C 18.277344 20.222656 18.976562 20.359375 19.015625 20.359375 C 19.410156 20.359375 19.730469 20.039062 19.730469 19.640625 C 19.730469 19.246094 19.410156 18.921875 19.015625 18.921875 C 18.996094 18.921875 16.066406 18.925781 16.066406 18.925781 C 15.835938 18.925781 15.648438 19.113281 15.648438 19.34375 C 15.648438 19.578125 15.835938 19.765625 16.066406 19.765625 L 16.066406 19.769531 C 16.066406 19.769531 16.503906 19.859375 17.039062 19.96875 L 16.71875 20.484375 L 9.125 20.484375 C 9.320312 19.890625 9.449219 19.5 9.449219 19.5 C 9.453125 19.492188 9.453125 19.488281 9.453125 19.480469 C 9.457031 19.472656 9.457031 19.464844 9.460938 19.457031 C 9.460938 19.449219 9.460938 19.441406 9.460938 19.433594 C 9.460938 19.429688 9.460938 19.421875 9.460938 19.414062 C 9.460938 19.40625 9.457031 19.398438 9.457031 19.390625 C 9.457031 19.386719 9.457031 19.378906 9.453125 19.371094 C 9.453125 19.363281 9.449219 19.359375 9.445312 19.351562 C 9.445312 19.34375 9.441406 19.335938 9.4375 19.332031 C 9.433594 19.324219 9.429688 19.320312 9.425781 19.3125 C 9.425781 19.308594 9.421875 19.300781 9.417969 19.296875 C 9.410156 19.289062 9.40625 19.285156 9.402344 19.28125 C 9.398438 19.273438 9.390625 19.269531 9.386719 19.261719 C 9.382812 19.257812 9.375 19.253906 9.371094 19.25 C 9.363281 19.246094 9.359375 19.242188 9.351562 19.238281 C 9.347656 19.234375 9.339844 19.230469 9.332031 19.226562 C 9.324219 19.226562 9.320312 19.222656 9.3125 19.21875 L 8.074219 18.785156 L 8.445312 17.804688 L 11.429688 17.773438 L 12.3125 18.578125 C 12.40625 18.660156 12.542969 18.652344 12.625 18.5625 C 12.707031 18.46875 12.703125 18.328125 12.613281 18.246094 L 11.664062 17.382812 L 11.597656 17.324219 L 11.511719 17.328125 L 8.289062 17.363281 L 8.140625 17.363281 L 7.5 19.054688 L 7.714844 19.132812 L 8.960938 19.566406 L 7.839844 22.953125 C 7.34375 22.761719 6.816406 22.65625 6.269531 22.65625 C 3.890625 22.65625 1.957031 24.605469 1.957031 26.996094 C 1.957031 28.15625 2.40625 29.246094 3.222656 30.066406 C 4.035156 30.882812 5.117188 31.335938 6.269531 31.335938 C 7.421875 31.335938 8.503906 30.882812 9.320312 30.066406 C 10.132812 29.246094 10.582031 28.15625 10.582031 26.996094 C 10.582031 25.839844 10.132812 24.75 9.320312 23.929688 C 9 23.605469 8.636719 23.34375 8.246094 23.140625 C 8.347656 22.824219 8.453125 22.503906 8.558594 22.195312 L 11.839844 25.71875 C 11.609375 25.996094 11.476562 26.355469 11.476562 26.742188 C 11.476562 27.179688 11.644531 27.585938 11.949219 27.894531 C 12.253906 28.203125 12.664062 28.371094 13.09375 28.371094 C 13.160156 28.371094 13.222656 28.367188 13.285156 28.359375 L 13.367188 28.722656 L 12.84375 28.722656 L 12.84375 29.230469 L 14.296875 29.230469 L 14.296875 28.722656 L 13.625 28.722656 L 13.535156 28.308594 C 13.796875 28.234375 14.039062 28.09375 14.238281 27.894531 C 14.480469 27.65625 14.632812 27.355469 14.6875 27.027344 L 15.417969 27.054688 C 15.433594 28.191406 15.882812 29.257812 16.679688 30.066406 C 17.496094 30.882812 18.578125 31.335938 19.730469 31.335938 C 20.882812 31.335938 21.964844 30.882812 22.78125 30.066406 C 23.59375 29.246094 24.042969 28.15625 24.042969 26.996094 C 24.042969 25.839844 23.59375 24.75 22.78125 23.929688 Z M 8.78125 24.46875 C 9.453125 25.144531 9.824219 26.042969 9.824219 26.996094 C 9.824219 28.96875 8.230469 30.570312 6.269531 30.570312 C 5.320312 30.570312 4.429688 30.199219 3.757812 29.523438 C 3.085938 28.851562 2.714844 27.953125 2.714844 26.996094 C 2.714844 26.042969 3.085938 25.144531 3.757812 24.46875 C 4.429688 23.792969 5.320312 23.421875 6.269531 23.421875 C 6.734375 23.421875 7.179688 23.511719 7.597656 23.679688 L 6.816406 26.035156 C 6.757812 26.199219 6.527344 26.664062 6.191406 26.789062 C 6.078125 26.832031 6.019531 26.960938 6.0625 27.074219 C 6.105469 27.191406 6.234375 27.25 6.347656 27.207031 C 6.941406 26.980469 7.226562 26.214844 7.234375 26.183594 C 7.238281 26.179688 7.582031 25.136719 8 23.875 C 8.285156 24.035156 8.546875 24.230469 8.78125 24.46875 Z M 17.761719 23.136719 C 16.480469 23.804688 15.570312 25.09375 15.4375 26.609375 L 14.707031 26.582031 C 14.671875 26.207031 14.507812 25.859375 14.238281 25.589844 C 14.214844 25.566406 14.1875 25.542969 14.160156 25.519531 L 16.886719 21.171875 Z M 18.074219 23.832031 L 19.382812 26.761719 L 16.195312 26.636719 C 16.273438 25.820312 16.632812 25.058594 17.21875 24.46875 C 17.472656 24.210938 17.761719 23.996094 18.074219 23.832031 Z M 12.777344 26.078125 L 12.421875 25.695312 C 12.5 25.644531 12.582031 25.605469 12.667969 25.570312 Z M 12.910156 25.507812 C 12.972656 25.5 13.03125 25.492188 13.09375 25.492188 C 13.246094 25.492188 13.390625 25.523438 13.527344 25.574219 L 13.082031 26.28125 Z M 13.957031 25.84375 C 13.960938 25.851562 13.964844 25.855469 13.972656 25.859375 C 14.164062 26.054688 14.285156 26.300781 14.320312 26.566406 L 13.523438 26.535156 Z M 8.953125 20.996094 L 16.398438 20.996094 L 13.734375 25.246094 C 13.535156 25.160156 13.320312 25.113281 13.09375 25.113281 C 13.003906 25.113281 12.917969 25.121094 12.828125 25.136719 L 12.648438 24.328125 L 13.222656 24.328125 L 13.222656 23.816406 L 11.765625 24.328125 L 12.390625 24.328125 L 12.582031 25.199219 C 12.429688 25.25 12.289062 25.320312 12.160156 25.414062 L 8.714844 21.714844 C 8.800781 21.460938 8.878906 21.21875 8.953125 20.996094 Z M 13.09375 27.992188 C 12.761719 27.992188 12.453125 27.859375 12.21875 27.625 C 11.984375 27.390625 11.855469 27.078125 11.855469 26.742188 C 11.855469 26.472656 11.941406 26.214844 12.097656 26 L 12.933594 26.894531 L 12.96875 26.933594 L 13.203125 27.984375 C 13.167969 27.988281 13.132812 27.992188 13.09375 27.992188 Z M 13.453125 27.9375 L 13.238281 26.972656 L 14.304688 27.011719 C 14.207031 27.453125 13.878906 27.808594 13.453125 27.9375 Z M 19.730469 30.570312 C 18.78125 30.570312 17.890625 30.199219 17.21875 29.523438 C 16.566406 28.871094 16.203125 28.003906 16.179688 27.082031 L 19.722656 27.21875 L 19.941406 27.1875 L 19.933594 26.90625 L 18.476562 23.652344 C 18.871094 23.5 19.296875 23.421875 19.730469 23.421875 C 20.679688 23.421875 21.570312 23.792969 22.242188 24.46875 C 22.914062 25.144531 23.28125 26.042969 23.28125 26.996094 C 23.28125 28.96875 21.691406 30.570312 19.730469 30.570312 "/>
<path style=" stroke:none;fill-rule:nonzero;fill:rgb(100%,100%,100%);fill-opacity:1;" d="M 46.648438 30.714844 C 46.648438 30.714844 46.648438 29.6875 46.394531 28.617188 C 46.203125 27.816406 45.753906 27.042969 45.535156 26.699219 C 45.511719 26.636719 45.472656 26.574219 45.414062 26.515625 L 45.019531 26.4375 C 45.578125 26.167969 45.964844 25.59375 45.964844 24.929688 C 45.964844 24.007812 45.222656 23.261719 44.308594 23.261719 C 43.390625 23.261719 42.652344 24.007812 42.652344 24.929688 C 42.652344 25.503906 42.757812 26.085938 43.199219 26.386719 C 43.34375 26.484375 43.554688 26.539062 43.773438 26.566406 L 43.457031 26.601562 C 43.457031 26.601562 43.480469 26.601562 43.4375 26.699219 C 43.21875 26.761719 42.734375 26.832031 41.835938 26.6875 C 40.960938 26.542969 40.648438 25.949219 40.535156 25.5625 C 40.605469 25.5 40.671875 25.425781 40.730469 25.34375 C 41.011719 24.945312 40.84375 24.371094 40.472656 24.117188 C 40.34375 24.027344 40.25 23.921875 40.175781 23.828125 C 40.324219 23.558594 40.390625 23.34375 40.390625 23.34375 C 40.078125 22.457031 39.308594 20.199219 39.308594 20.199219 C 39.109375 18.285156 39.109375 15.886719 39.109375 15.886719 C 39.109375 15.886719 39.164062 15.472656 38.601562 15.117188 C 37.25 14.253906 36.207031 13.90625 35.800781 13.789062 L 35.757812 13.246094 C 36.117188 12.953125 36.390625 12.480469 36.539062 11.96875 C 36.546875 11.945312 36.554688 11.917969 36.558594 11.890625 C 36.9375 11.949219 37.21875 11.984375 37.320312 11.984375 C 37.746094 11.984375 37.707031 11.644531 37.152344 11.34375 C 36.988281 11.253906 36.847656 11.191406 36.699219 11.136719 C 36.742188 10.898438 36.847656 10.289062 36.917969 9.949219 C 37.003906 9.523438 36.492188 9.414062 36.066406 9.523438 C 35.640625 9.628906 35.085938 9.371094 34.851562 9.222656 C 34.617188 9.070312 34.488281 9.136719 34.296875 9.351562 C 34.140625 9.527344 33.855469 10.363281 33.757812 10.660156 L 32.765625 10.613281 C 32.765625 10.613281 31.871094 10.914062 32.59375 11.128906 C 32.777344 11.183594 33.144531 11.265625 33.59375 11.355469 C 33.578125 11.425781 33.5625 11.492188 33.554688 11.5625 C 33.464844 12.234375 33.699219 12.859375 34.121094 13.222656 L 34.023438 13.609375 C 33.773438 13.722656 33.214844 13.988281 31.996094 14.601562 C 30.929688 15.140625 30.542969 15.511719 30.417969 15.738281 L 30.394531 15.6875 C 30.394531 15.6875 29.570312 19.285156 29.542969 21.257812 C 29.511719 23.230469 29.511719 25.085938 29.511719 25.085938 L 29.984375 25.085938 C 29.894531 25.5625 29.839844 26.039062 29.9375 26.515625 C 29.96875 26.714844 30.136719 26.945312 30.335938 27 C 30.59375 27.058594 30.59375 26.972656 30.847656 26.972656 C 30.847656 26.914062 31.261719 26.742188 31.273438 26.714844 C 31.359375 26.515625 31.445312 26.203125 31.160156 25.800781 C 31.003906 25.582031 30.960938 25.515625 30.875 25.257812 C 30.863281 25.207031 30.820312 25.148438 30.773438 25.085938 L 31.074219 25.085938 C 31.074219 25.085938 31.074219 24.945312 31.214844 22.742188 C 31.351562 20.625 31.359375 20.757812 31.816406 19.269531 L 31.898438 19.457031 C 32.777344 22.6875 32.070312 23.316406 31.757812 24.285156 C 31.695312 24.472656 31.585938 25.628906 31.839844 25.714844 C 31.929688 25.746094 32.03125 25.769531 32.148438 25.789062 C 32.113281 26.492188 32.117188 27.761719 32.296875 29.832031 C 32.609375 33.429688 33.175781 35.1875 33.0625 36.074219 C 33.0625 36.074219 31.472656 36.03125 31.871094 37.03125 C 32.265625 38.03125 33.175781 38.488281 33.175781 38.488281 L 33.402344 38.460938 L 33.515625 38.746094 L 34 39.03125 C 34 39.03125 34.398438 39.171875 34.625 38.859375 C 34.851562 38.546875 34.792969 38.316406 34.792969 38.316406 L 34.964844 37.574219 C 34.964844 37.574219 34.964844 34.316406 34.597656 32.429688 C 34.226562 30.542969 34.398438 29.515625 34.539062 28.714844 C 34.59375 28.417969 34.703125 28.195312 34.824219 28.035156 C 35.074219 28.605469 35.378906 29.234375 35.734375 29.882812 C 35.800781 31.1875 35.957031 34.496094 35.84375 35.859375 C 35.835938 35.957031 35.832031 36.046875 35.828125 36.128906 L 35.449219 36.417969 C 35.449219 36.417969 35.40625 36.886719 35.53125 36.972656 C 35.660156 37.058594 35.703125 37.402344 35.703125 37.402344 C 35.703125 37.402344 36.128906 37.832031 36.46875 38.386719 C 36.8125 38.945312 37.492188 38.902344 37.746094 38.816406 C 38.003906 38.730469 37.960938 39.074219 37.917969 38.214844 C 37.886719 37.582031 37.53125 36.949219 37.34375 36.664062 C 37.675781 36.621094 37.960938 36.566406 38.003906 36.488281 C 38.101562 36.3125 38.09375 31.554688 38.089844 30.339844 C 38.105469 30.324219 38.117188 30.316406 38.117188 30.316406 C 38.117188 30.316406 38.324219 27.328125 36.996094 25.46875 C 37.300781 25.414062 37.542969 25.382812 37.664062 25.257812 C 37.921875 24.988281 37.777344 24.574219 37.777344 24.574219 C 37.777344 24.574219 37.695312 24.46875 37.378906 23.488281 C 36.726562 21.457031 37.464844 19.230469 37.464844 19.230469 C 37.464844 19.230469 37.71875 21.113281 37.945312 21.828125 C 38.171875 22.542969 39.28125 24.714844 39.28125 24.714844 C 39.351562 24.683594 39.421875 24.648438 39.484375 24.605469 C 39.480469 24.75 39.472656 24.902344 39.453125 25.03125 C 39.394531 25.371094 39.394531 25.457031 39.679688 25.714844 C 39.726562 25.761719 39.78125 25.789062 39.839844 25.804688 C 39.808594 26.214844 39.824219 27.007812 40.304688 27.757812 C 40.542969 28.136719 41.410156 28.4375 42.09375 28.621094 C 40.785156 30.285156 39.496094 31.230469 39.496094 31.230469 C 39.496094 31.230469 39.753906 31.753906 40.367188 32.25 C 40.265625 33.179688 40.09375 35.0625 40.21875 35.945312 C 40.390625 37.144531 40.515625 36.246094 40.601562 36.84375 C 40.605469 36.859375 40.605469 36.875 40.609375 36.886719 C 40.460938 36.867188 40.320312 36.894531 40.214844 36.980469 C 39.957031 37.195312 40 37.671875 40.308594 38.046875 C 40.617188 38.417969 41.074219 38.550781 41.328125 38.335938 C 41.398438 38.277344 41.445312 38.203125 41.472656 38.113281 L 41.496094 38.128906 C 41.496094 38.128906 41.625 37.660156 41.539062 37.058594 C 41.457031 36.492188 41.339844 35.695312 42.046875 33.363281 C 42.066406 33.96875 42.128906 34.6875 42.304688 35.042969 C 42.648438 35.730469 42.859375 35.730469 43.113281 36.117188 C 43.292969 36.386719 43.261719 36.871094 43.230469 37.132812 C 42.863281 37.425781 42.695312 37.757812 42.773438 37.917969 C 43.042969 38.460938 43.472656 38.164062 43.910156 37.859375 C 44.195312 37.65625 44.378906 37.386719 44.417969 37.148438 L 44.433594 37.144531 C 44.433594 37.144531 45.074219 37.316406 44.136719 35.859375 C 43.585938 35.003906 43.625 34.617188 43.839844 33.84375 C 43.9375 33.480469 44.03125 33.203125 44.097656 33.011719 C 44.300781 32.972656 44.511719 32.921875 44.734375 32.859375 C 44.734375 32.859375 44.351562 31.875 44.476562 30.757812 C 44.527344 30.320312 44.675781 29.726562 44.835938 29.164062 C 45.484375 29.492188 45.617188 30.28125 45.5 30.671875 C 45.394531 31.023438 45.292969 31.316406 45.257812 31.410156 C 44.984375 31.5 44.78125 31.804688 44.78125 32.171875 C 44.78125 32.609375 45.066406 32.960938 45.414062 32.960938 C 45.765625 32.960938 46.046875 32.609375 46.046875 32.171875 C 46.046875 32.050781 46.023438 31.933594 45.984375 31.828125 C 46.570312 31.359375 46.648438 30.714844 46.648438 30.714844 "/>
<path style=" stroke:none;fill-rule:nonzero;fill:rgb(100%,100%,100%);fill-opacity:1;" d="M 25.402344 0.328125 L 25.402344 49.371094 C 25.402344 49.570312 25.5625 49.734375 25.761719 49.734375 C 25.957031 49.734375 26.117188 49.570312 26.117188 49.371094 L 26.117188 0.328125 C 26.117188 0.125 25.957031 -0.0351562 25.761719 -0.0351562 C 25.5625 -0.0351562 25.402344 0.125 25.402344 0.328125 "/>
</g>
</svg>
