<?xml version="1.0" encoding="UTF-8"?>
<svg xmlns="http://www.w3.org/2000/svg" xmlns:xlink="http://www.w3.org/1999/xlink" width="63px" height="50px" viewBox="0 0 63 50" version="1.1">
<g id="surface1">
<path style=" stroke:none;fill-rule:nonzero;fill:rgb(0%,0%,0%);fill-opacity:1;" d="M 0 48.726562 C 0 49.066406 0.132812 49.386719 0.375 49.628906 C 0.613281 49.867188 0.9375 50 1.277344 50 L 61.722656 50 C 62.425781 50 63 49.429688 63 48.726562 L 63 1.269531 C 63 0.929688 62.867188 0.613281 62.625 0.371094 C 62.386719 0.132812 62.0625 0 61.722656 0 L 1.277344 0 C 0.9375 0 0.613281 0.132812 0.375 0.371094 C 0.132812 0.613281 0 0.929688 0 1.269531 Z M 0 48.726562 "/>
<path style=" stroke:none;fill-rule:nonzero;fill:rgb(100%,100%,100%);fill-opacity:1;" d="M 0.421875 1.269531 C 0.421875 0.800781 0.804688 0.417969 1.277344 0.417969 L 61.722656 0.417969 C 61.953125 0.417969 62.167969 0.507812 62.328125 0.667969 C 62.488281 0.828125 62.578125 1.042969 62.578125 1.269531 L 62.578125 48.726562 C 62.578125 48.957031 62.488281 49.167969 62.328125 49.332031 C 62.167969 49.492188 61.953125 49.582031 61.722656 49.582031 L 1.277344 49.582031 C 1.046875 49.582031 0.832031 49.492188 0.671875 49.332031 C 0.511719 49.167969 0.421875 48.957031 0.421875 48.726562 L 0.421875 1.269531 "/>
<path style=" stroke:none;fill-rule:nonzero;fill:rgb(9.019608%,43.529412%,75.686276%);fill-opacity:1;" d="M 1.980469 1.964844 L 61.039062 1.964844 L 61.039062 48.042969 L 1.980469 48.042969 Z M 1.980469 1.964844 "/>
<path style=" stroke:none;fill-rule:nonzero;fill:rgb(100%,100%,100%);fill-opacity:1;" d="M 13.441406 18.433594 C 14.875 18.433594 16.039062 17.195312 16.039062 15.671875 C 16.039062 14.144531 14.875 12.90625 13.441406 12.90625 C 12.007812 12.90625 10.847656 14.144531 10.847656 15.671875 C 10.847656 17.195312 12.007812 18.433594 13.441406 18.433594 "/>
<path style=" stroke:none;fill-rule:nonzero;fill:rgb(100%,100%,100%);fill-opacity:1;" d="M 9.667969 28.957031 L 9.667969 31.351562 L 5.226562 38.238281 C 5.226562 38.238281 4.769531 38.824219 5.089844 39.3125 C 5.410156 39.800781 6.464844 41.558594 6.464844 41.558594 C 6.464844 41.558594 6.832031 41.898438 7.15625 41.558594 C 7.476562 41.214844 7.199219 40.921875 7.199219 40.921875 L 6.925781 40.238281 L 12.019531 32.453125 L 12.019531 40.238281 C 12.019531 41.070312 12.386719 41.167969 12.386719 41.167969 L 14.636719 42.78125 L 15.230469 42.09375 L 14.359375 41.019531 L 14.359375 28.957031 L 9.667969 28.957031 "/>
<path style=" stroke:none;fill-rule:nonzero;fill:rgb(100%,100%,100%);fill-opacity:1;" d="M 14.359375 28.515625 L 14.359375 26.226562 L 16.605469 27.636719 C 16.605469 27.636719 17.894531 28.078125 18.445312 27.441406 C 18.996094 26.808594 19.132812 26.613281 19.132812 26.613281 C 19.132812 26.613281 19.394531 26.257812 18.945312 25.96875 C 18.605469 25.75 15.746094 23.957031 14.359375 23.085938 L 14.359375 20.703125 C 14.359375 19.285156 13.210938 18.941406 13.210938 18.941406 L 11.882812 18.503906 C 11.332031 18.308594 11.007812 18.796875 11.007812 18.796875 C 11.007812 18.796875 6.007812 25.929688 5.320312 26.90625 C 4.628906 27.882812 5.136719 28.90625 5.136719 28.90625 L 5.914062 30.175781 L 9.667969 24.949219 L 9.667969 28.515625 L 14.359375 28.515625 "/>
<path style=" stroke:none;fill-rule:nonzero;fill:rgb(100%,100%,100%);fill-opacity:1;" d="M 25.007812 42.164062 C 26.082031 42.164062 26.953125 41.238281 26.953125 40.09375 C 26.953125 38.949219 26.082031 38.019531 25.007812 38.019531 C 23.929688 38.019531 23.058594 38.949219 23.058594 40.09375 C 23.058594 41.238281 23.929688 42.164062 25.007812 42.164062 "/>
<path style=" stroke:none;fill-rule:nonzero;fill:rgb(100%,100%,100%);fill-opacity:1;" d="M 35.929688 30.695312 C 36.933594 30.695312 37.746094 29.828125 37.746094 28.761719 C 37.746094 27.691406 36.933594 26.828125 35.929688 26.828125 C 34.925781 26.828125 34.113281 27.691406 34.113281 28.761719 C 34.113281 29.828125 34.925781 30.695312 35.929688 30.695312 "/>
<path style=" stroke:none;fill-rule:nonzero;fill:rgb(100%,100%,100%);fill-opacity:1;" d="M 31.652344 34.476562 L 34.351562 31.429688 C 34.351562 31.429688 34.667969 30.933594 35.25 30.933594 L 37.109375 30.933594 C 37.109375 30.933594 37.488281 30.96875 37.835938 31.363281 L 40.425781 34.40625 L 39.820312 35.84375 L 37.652344 33.296875 L 37.59375 35.148438 L 38.453125 37.382812 L 40.65625 37.453125 L 41.136719 39.140625 L 37.902344 38.992188 L 36.214844 37.308594 L 35.921875 42.363281 L 34.230469 42.488281 L 34.765625 33.222656 L 32.617188 35.648438 L 31.652344 34.476562 "/>
<path style=" stroke:none;fill-rule:nonzero;fill:rgb(100%,100%,100%);fill-opacity:1;" d="M 56.902344 41.65625 L 56.902344 38.089844 L 48.410156 30.46875 C 48.410156 30.46875 47.078125 29.445312 44.234375 25.636719 C 41.390625 21.824219 41.617188 17.625 41.617188 17.625 L 40.332031 17.625 C 40.332031 17.625 40.386719 23.382812 42.582031 26.660156 C 45.199219 30.566406 47.355469 32.523438 47.355469 32.523438 L 56.902344 41.65625 "/>
<path style=" stroke:none;fill-rule:nonzero;fill:rgb(100%,100%,100%);fill-opacity:1;" d="M 51.964844 7.828125 L 51.734375 7.664062 L 50.539062 8.515625 L 50.539062 7.609375 L 49.578125 7.609375 L 49.578125 9.203125 L 45.261719 12.277344 L 45.722656 13.007812 L 46.914062 12.15625 L 46.914062 24.21875 L 56.597656 24.21875 L 56.597656 12.191406 L 57.746094 13.007812 L 58.203125 12.277344 Z M 56.046875 23.632812 L 47.464844 23.632812 L 47.464844 11.765625 L 51.734375 8.722656 L 56.046875 11.796875 L 56.046875 23.632812 "/>
<path style=" stroke:none;fill-rule:nonzero;fill:rgb(100%,100%,100%);fill-opacity:1;" d="M 48.246094 16.304688 L 50.957031 16.304688 L 50.957031 12.59375 L 48.246094 12.59375 Z M 48.246094 16.304688 "/>
<path style=" stroke:none;fill-rule:nonzero;fill:rgb(100%,100%,100%);fill-opacity:1;" d="M 52.238281 16.304688 L 54.949219 16.304688 L 54.949219 12.59375 L 52.238281 12.59375 Z M 52.238281 16.304688 "/>
<path style=" stroke:none;fill-rule:nonzero;fill:rgb(100%,100%,100%);fill-opacity:1;" d="M 50.015625 23.996094 L 53.136719 23.996094 L 53.136719 18.183594 L 50.015625 18.183594 Z M 50.015625 23.996094 "/>
<path style=" stroke:none;fill-rule:nonzero;fill:rgb(100%,100%,100%);fill-opacity:1;" d="M 28.472656 15.546875 C 27.347656 15.546875 24.945312 15.039062 24.632812 14.96875 L 24.632812 17.414062 C 24.632812 17.597656 24.492188 17.746094 24.320312 17.746094 L 22.675781 17.746094 C 22.5 17.746094 22.363281 17.597656 22.363281 17.414062 L 22.363281 15.046875 C 21.980469 14.832031 21.804688 14.570312 21.605469 13.9375 C 21.160156 12.515625 21.605469 11.335938 21.8125 10.933594 C 21.941406 10.675781 22.640625 10.476562 23.125 10.367188 L 25.09375 6.683594 L 31.917969 6.683594 L 33.886719 10.367188 C 34.371094 10.476562 35.066406 10.675781 35.199219 10.933594 C 35.40625 11.335938 35.851562 12.515625 35.40625 13.9375 C 35.207031 14.570312 35.03125 14.832031 34.648438 15.046875 L 34.648438 17.414062 C 34.648438 17.597656 34.507812 17.746094 34.335938 17.746094 L 32.691406 17.746094 C 32.515625 17.746094 32.378906 17.597656 32.378906 17.414062 L 32.378906 14.96875 C 32.066406 15.039062 29.664062 15.546875 28.539062 15.546875 Z M 33.203125 10.269531 L 31.597656 7.269531 L 25.414062 7.269531 L 23.808594 10.269531 Z M 23.1875 13.390625 C 23.78125 13.390625 24.257812 12.882812 24.257812 12.25 C 24.257812 11.621094 23.78125 11.113281 23.1875 11.113281 C 22.597656 11.113281 22.117188 11.621094 22.117188 12.25 C 22.117188 12.882812 22.597656 13.390625 23.1875 13.390625 Z M 34.894531 12.25 C 34.894531 11.621094 34.414062 11.113281 33.824219 11.113281 C 33.230469 11.113281 32.753906 11.621094 32.753906 12.25 C 32.753906 12.882812 33.230469 13.390625 33.824219 13.390625 C 34.414062 13.390625 34.894531 12.882812 34.894531 12.25 "/>
</g>
</svg>
