<?xml version="1.0" encoding="UTF-8"?>
<svg xmlns="http://www.w3.org/2000/svg" xmlns:xlink="http://www.w3.org/1999/xlink" width="50px" height="50px" viewBox="0 0 50 50" version="1.1">
<g id="surface1">
<path style=" stroke:none;fill-rule:nonzero;fill:rgb(9.019608%,43.529412%,75.686276%);fill-opacity:1;" d="M 0 25 C 0 11.195312 11.195312 0 25 0 C 38.804688 0 50 11.195312 50 25 C 50 38.804688 38.804688 50 25 50 C 11.195312 50 0 38.804688 0 25 "/>
<path style=" stroke:none;fill-rule:nonzero;fill:rgb(100%,100%,100%);fill-opacity:1;" d="M 36.476562 10.464844 C 35.496094 9.480469 34.1875 8.941406 32.796875 8.941406 C 32.132812 8.941406 31.496094 9.066406 30.910156 9.296875 L 29.707031 6.617188 L 30.191406 5.84375 C 31.046875 6.019531 31.886719 6.183594 31.933594 6.183594 C 32.410156 6.183594 32.796875 5.800781 32.796875 5.324219 C 32.796875 4.847656 32.410156 4.460938 31.933594 4.460938 C 31.910156 4.460938 28.375 4.464844 28.375 4.464844 C 28.097656 4.464844 27.871094 4.6875 27.871094 4.96875 C 27.871094 5.246094 28.097656 5.46875 28.375 5.46875 L 28.375 5.476562 C 28.375 5.476562 28.902344 5.582031 29.550781 5.714844 L 29.160156 6.335938 L 19.996094 6.335938 C 20.234375 5.625 20.390625 5.152344 20.390625 5.152344 C 20.394531 5.144531 20.394531 5.136719 20.398438 5.128906 C 20.398438 5.121094 20.402344 5.109375 20.402344 5.101562 C 20.402344 5.09375 20.402344 5.082031 20.402344 5.074219 C 20.402344 5.066406 20.40625 5.058594 20.402344 5.050781 C 20.402344 5.039062 20.402344 5.03125 20.398438 5.023438 C 20.398438 5.015625 20.398438 5.007812 20.394531 5 C 20.394531 4.988281 20.390625 4.984375 20.386719 4.972656 C 20.382812 4.964844 20.382812 4.957031 20.378906 4.949219 C 20.375 4.941406 20.367188 4.9375 20.363281 4.929688 C 20.359375 4.921875 20.355469 4.914062 20.351562 4.90625 C 20.34375 4.902344 20.339844 4.894531 20.332031 4.886719 C 20.328125 4.882812 20.324219 4.875 20.316406 4.867188 C 20.308594 4.863281 20.300781 4.859375 20.292969 4.855469 C 20.289062 4.847656 20.28125 4.84375 20.273438 4.839844 C 20.265625 4.832031 20.257812 4.832031 20.25 4.828125 C 20.242188 4.824219 20.234375 4.820312 20.226562 4.816406 L 18.730469 4.296875 L 19.179688 3.121094 L 22.78125 3.082031 L 23.847656 4.046875 C 23.957031 4.144531 24.125 4.136719 24.226562 4.027344 C 24.324219 3.917969 24.316406 3.75 24.207031 3.652344 L 23.0625 2.617188 L 22.984375 2.546875 L 22.878906 2.546875 L 18.992188 2.589844 L 18.808594 2.589844 L 18.035156 4.621094 L 19.800781 5.234375 L 18.449219 9.296875 C 17.851562 9.0625 17.210938 8.941406 16.554688 8.941406 C 13.683594 8.941406 11.351562 11.273438 11.351562 14.144531 C 11.351562 15.535156 11.890625 16.839844 12.875 17.824219 C 13.855469 18.804688 15.164062 19.347656 16.554688 19.347656 C 17.945312 19.347656 19.25 18.804688 20.234375 17.824219 C 21.214844 16.839844 21.757812 15.535156 21.757812 14.144531 C 21.757812 12.753906 21.214844 11.449219 20.234375 10.464844 C 19.847656 10.078125 19.410156 9.761719 18.9375 9.515625 C 19.0625 9.140625 19.191406 8.757812 19.316406 8.382812 L 23.273438 12.609375 C 23 12.945312 22.835938 13.375 22.835938 13.839844 C 22.835938 14.359375 23.039062 14.851562 23.410156 15.21875 C 23.777344 15.589844 24.269531 15.792969 24.789062 15.792969 C 24.867188 15.792969 24.945312 15.785156 25.019531 15.777344 L 25.117188 16.214844 L 24.484375 16.214844 L 24.484375 16.824219 L 26.238281 16.824219 L 26.238281 16.214844 L 25.433594 16.214844 L 25.320312 15.71875 C 25.640625 15.628906 25.929688 15.460938 26.171875 15.21875 C 26.460938 14.933594 26.644531 14.570312 26.714844 14.179688 L 27.597656 14.214844 C 27.613281 15.578125 28.152344 16.855469 29.117188 17.824219 C 30.101562 18.804688 31.40625 19.347656 32.796875 19.347656 C 34.1875 19.347656 35.496094 18.804688 36.476562 17.824219 C 37.460938 16.839844 38 15.535156 38 14.144531 C 38 12.753906 37.460938 11.449219 36.476562 10.464844 Z M 19.585938 11.113281 C 20.394531 11.921875 20.84375 13 20.84375 14.144531 C 20.84375 16.507812 18.917969 18.433594 16.554688 18.433594 C 15.40625 18.433594 14.332031 17.984375 13.523438 17.175781 C 12.710938 16.367188 12.265625 15.289062 12.265625 14.144531 C 12.265625 13 12.710938 11.921875 13.523438 11.113281 C 14.332031 10.300781 15.40625 9.855469 16.554688 9.855469 C 17.113281 9.855469 17.65625 9.964844 18.15625 10.164062 L 17.214844 12.992188 C 17.144531 13.1875 16.863281 13.742188 16.460938 13.894531 C 16.320312 13.945312 16.253906 14.101562 16.304688 14.238281 C 16.355469 14.375 16.507812 14.445312 16.648438 14.394531 C 17.363281 14.125 17.707031 13.207031 17.71875 13.167969 C 17.722656 13.164062 18.136719 11.910156 18.644531 10.398438 C 18.984375 10.589844 19.300781 10.828125 19.585938 11.113281 Z M 30.425781 9.515625 C 28.875 10.3125 27.777344 11.863281 27.617188 13.679688 L 26.734375 13.644531 C 26.691406 13.195312 26.496094 12.78125 26.171875 12.457031 C 26.140625 12.425781 26.109375 12.398438 26.078125 12.371094 L 29.363281 7.160156 Z M 30.796875 10.347656 L 32.378906 13.859375 L 28.53125 13.714844 C 28.628906 12.730469 29.058594 11.820312 29.765625 11.113281 C 30.074219 10.800781 30.421875 10.546875 30.796875 10.347656 Z M 24.410156 13.042969 L 23.976562 12.582031 C 24.070312 12.519531 24.171875 12.472656 24.273438 12.433594 Z M 24.570312 12.359375 C 24.640625 12.347656 24.714844 12.34375 24.789062 12.34375 C 24.972656 12.34375 25.148438 12.375 25.3125 12.4375 L 24.777344 13.289062 Z M 25.828125 12.761719 C 25.835938 12.769531 25.84375 12.773438 25.847656 12.78125 C 26.082031 13.011719 26.226562 13.308594 26.269531 13.628906 L 25.308594 13.589844 Z M 19.792969 6.945312 L 28.777344 6.945312 L 25.5625 12.042969 C 25.320312 11.9375 25.058594 11.882812 24.789062 11.882812 C 24.679688 11.882812 24.574219 11.894531 24.46875 11.914062 L 24.253906 10.941406 L 24.941406 10.941406 L 24.941406 10.332031 L 23.1875 10.941406 L 23.9375 10.941406 L 24.171875 11.984375 C 23.988281 12.046875 23.816406 12.136719 23.664062 12.246094 L 19.507812 7.808594 C 19.605469 7.503906 19.703125 7.214844 19.792969 6.945312 Z M 24.789062 15.335938 C 24.390625 15.335938 24.015625 15.179688 23.730469 14.898438 C 23.449219 14.613281 23.292969 14.238281 23.292969 13.839844 C 23.292969 13.511719 23.398438 13.203125 23.589844 12.945312 L 24.59375 14.019531 L 24.640625 14.066406 L 24.921875 15.328125 C 24.878906 15.332031 24.835938 15.335938 24.789062 15.335938 Z M 25.222656 15.273438 L 24.960938 14.113281 L 26.25 14.160156 C 26.132812 14.691406 25.734375 15.117188 25.222656 15.273438 Z M 32.796875 18.433594 C 31.652344 18.433594 30.574219 17.984375 29.765625 17.175781 C 28.980469 16.390625 28.539062 15.355469 28.511719 14.246094 L 32.789062 14.410156 L 33.050781 14.371094 L 33.039062 14.035156 L 31.285156 10.128906 C 31.761719 9.949219 32.273438 9.855469 32.796875 9.855469 C 33.941406 9.855469 35.019531 10.300781 35.828125 11.113281 C 36.640625 11.921875 37.085938 13 37.085938 14.144531 C 37.085938 16.507812 35.164062 18.433594 32.796875 18.433594 "/>
<path style=" stroke:none;fill-rule:nonzero;fill:rgb(100%,100%,100%);fill-opacity:1;" d="M 35.425781 40.027344 C 35.425781 40.027344 35.425781 38.992188 35.167969 37.914062 C 34.976562 37.109375 34.515625 36.332031 34.296875 35.984375 C 34.273438 35.921875 34.234375 35.859375 34.175781 35.800781 L 33.773438 35.71875 C 34.339844 35.449219 34.730469 34.871094 34.730469 34.203125 C 34.730469 33.277344 33.980469 32.523438 33.054688 32.523438 C 32.125 32.523438 31.375 33.277344 31.375 34.203125 C 31.375 34.78125 31.484375 35.367188 31.929688 35.671875 C 32.074219 35.769531 32.289062 35.820312 32.511719 35.851562 L 32.191406 35.886719 C 32.191406 35.886719 32.214844 35.886719 32.171875 35.984375 C 31.949219 36.046875 31.460938 36.117188 30.550781 35.972656 C 29.660156 35.828125 29.34375 35.230469 29.230469 34.839844 C 29.304688 34.777344 29.371094 34.703125 29.429688 34.621094 C 29.714844 34.21875 29.542969 33.640625 29.167969 33.382812 C 29.039062 33.292969 28.941406 33.191406 28.867188 33.09375 C 29.015625 32.824219 29.082031 32.605469 29.082031 32.605469 C 28.765625 31.714844 27.988281 29.441406 27.988281 29.441406 C 27.789062 27.515625 27.789062 25.097656 27.789062 25.097656 C 27.789062 25.097656 27.839844 24.683594 27.269531 24.320312 C 25.902344 23.453125 24.847656 23.101562 24.4375 22.988281 L 24.390625 22.441406 C 24.753906 22.144531 25.03125 21.667969 25.183594 21.15625 C 25.191406 21.128906 25.199219 21.101562 25.203125 21.074219 C 25.589844 21.132812 25.875 21.171875 25.976562 21.171875 C 26.40625 21.171875 26.363281 20.824219 25.804688 20.523438 C 25.640625 20.433594 25.496094 20.367188 25.347656 20.316406 C 25.390625 20.074219 25.5 19.460938 25.566406 19.121094 C 25.652344 18.691406 25.132812 18.582031 24.703125 18.691406 C 24.273438 18.796875 23.710938 18.539062 23.472656 18.386719 C 23.234375 18.238281 23.105469 18.300781 22.914062 18.515625 C 22.753906 18.695312 22.464844 19.535156 22.363281 19.835938 L 21.359375 19.789062 C 21.359375 19.789062 20.453125 20.09375 21.1875 20.308594 C 21.371094 20.363281 21.742188 20.445312 22.199219 20.535156 C 22.183594 20.605469 22.167969 20.675781 22.160156 20.746094 C 22.066406 21.421875 22.304688 22.050781 22.734375 22.417969 L 22.632812 22.808594 C 22.382812 22.921875 21.8125 23.1875 20.582031 23.804688 C 19.5 24.34375 19.109375 24.71875 18.980469 24.949219 L 18.957031 24.898438 C 18.957031 24.898438 18.121094 28.523438 18.09375 30.507812 C 18.066406 32.492188 18.066406 34.363281 18.066406 34.363281 L 18.542969 34.363281 C 18.449219 34.839844 18.394531 35.320312 18.496094 35.800781 C 18.523438 36 18.699219 36.230469 18.898438 36.289062 C 19.15625 36.347656 19.15625 36.261719 19.417969 36.261719 C 19.417969 36.203125 19.835938 36.027344 19.847656 36 C 19.933594 35.800781 20.019531 35.484375 19.734375 35.082031 C 19.574219 34.859375 19.53125 34.792969 19.445312 34.535156 C 19.433594 34.480469 19.386719 34.421875 19.339844 34.363281 L 19.648438 34.363281 C 19.648438 34.363281 19.648438 34.21875 19.789062 32.003906 C 19.929688 29.871094 19.933594 30.003906 20.394531 28.503906 L 20.480469 28.695312 C 21.371094 31.945312 20.652344 32.578125 20.335938 33.554688 C 20.277344 33.742188 20.164062 34.910156 20.421875 34.996094 C 20.515625 35.023438 20.617188 35.050781 20.730469 35.070312 C 20.699219 35.777344 20.703125 37.054688 20.882812 39.136719 C 21.199219 42.761719 21.777344 44.53125 21.660156 45.421875 C 21.660156 45.421875 20.050781 45.378906 20.453125 46.386719 C 20.855469 47.394531 21.777344 47.855469 21.777344 47.855469 L 22.007812 47.824219 L 22.121094 48.113281 L 22.609375 48.402344 C 22.609375 48.402344 23.011719 48.542969 23.242188 48.226562 C 23.472656 47.910156 23.414062 47.683594 23.414062 47.683594 L 23.589844 46.933594 C 23.589844 46.933594 23.589844 43.652344 23.214844 41.753906 C 22.839844 39.855469 23.011719 38.820312 23.15625 38.015625 C 23.210938 37.714844 23.324219 37.492188 23.445312 37.328125 C 23.699219 37.902344 24.007812 38.535156 24.367188 39.191406 C 24.4375 40.503906 24.59375 43.835938 24.480469 45.207031 C 24.472656 45.308594 24.464844 45.398438 24.460938 45.480469 L 24.078125 45.769531 C 24.078125 45.769531 24.035156 46.242188 24.164062 46.328125 C 24.292969 46.414062 24.335938 46.761719 24.335938 46.761719 C 24.335938 46.761719 24.769531 47.191406 25.113281 47.753906 C 25.457031 48.3125 26.148438 48.269531 26.40625 48.183594 C 26.667969 48.097656 26.625 48.445312 26.578125 47.582031 C 26.546875 46.941406 26.1875 46.304688 26 46.015625 C 26.332031 45.976562 26.621094 45.917969 26.667969 45.839844 C 26.765625 45.664062 26.757812 40.875 26.753906 39.648438 C 26.769531 39.632812 26.78125 39.625 26.78125 39.625 C 26.78125 39.625 26.992188 36.617188 25.644531 34.746094 C 25.953125 34.691406 26.203125 34.65625 26.320312 34.535156 C 26.582031 34.261719 26.4375 33.84375 26.4375 33.84375 C 26.4375 33.84375 26.355469 33.738281 26.035156 32.75 C 25.371094 30.707031 26.121094 28.464844 26.121094 28.464844 C 26.121094 28.464844 26.378906 30.363281 26.609375 31.082031 C 26.839844 31.800781 27.960938 33.988281 27.960938 33.988281 C 28.035156 33.957031 28.101562 33.917969 28.167969 33.878906 C 28.164062 34.023438 28.15625 34.175781 28.132812 34.304688 C 28.074219 34.648438 28.074219 34.734375 28.363281 34.996094 C 28.414062 35.039062 28.46875 35.070312 28.527344 35.085938 C 28.496094 35.496094 28.511719 36.292969 28.996094 37.050781 C 29.242188 37.433594 30.117188 37.734375 30.808594 37.921875 C 29.484375 39.59375 28.175781 40.546875 28.175781 40.546875 C 28.175781 40.546875 28.441406 41.074219 29.0625 41.570312 C 28.960938 42.511719 28.785156 44.40625 28.910156 45.292969 C 29.082031 46.503906 29.210938 45.59375 29.296875 46.199219 C 29.300781 46.214844 29.304688 46.226562 29.304688 46.242188 C 29.15625 46.222656 29.015625 46.25 28.90625 46.339844 C 28.648438 46.554688 28.691406 47.03125 29 47.410156 C 29.3125 47.785156 29.777344 47.917969 30.035156 47.703125 C 30.105469 47.644531 30.152344 47.566406 30.179688 47.476562 L 30.203125 47.496094 C 30.203125 47.496094 30.335938 47.019531 30.246094 46.414062 C 30.167969 45.84375 30.046875 45.042969 30.765625 42.691406 C 30.78125 43.304688 30.84375 44.027344 31.023438 44.386719 C 31.371094 45.078125 31.585938 45.078125 31.84375 45.464844 C 32.027344 45.738281 31.996094 46.226562 31.960938 46.488281 C 31.589844 46.785156 31.421875 47.121094 31.5 47.277344 C 31.773438 47.828125 32.207031 47.53125 32.648438 47.222656 C 32.9375 47.019531 33.125 46.746094 33.164062 46.503906 L 33.183594 46.503906 C 33.183594 46.503906 33.832031 46.675781 32.878906 45.207031 C 32.324219 44.347656 32.363281 43.957031 32.578125 43.179688 C 32.679688 42.8125 32.773438 42.535156 32.839844 42.339844 C 33.046875 42.300781 33.261719 42.25 33.484375 42.1875 C 33.484375 42.1875 33.097656 41.195312 33.226562 40.074219 C 33.277344 39.632812 33.425781 39.035156 33.589844 38.46875 C 34.246094 38.796875 34.378906 39.589844 34.261719 39.984375 C 34.15625 40.335938 34.050781 40.632812 34.015625 40.730469 C 33.738281 40.816406 33.535156 41.128906 33.535156 41.496094 C 33.535156 41.933594 33.820312 42.289062 34.175781 42.289062 C 34.527344 42.289062 34.816406 41.933594 34.816406 41.496094 C 34.816406 41.371094 34.792969 41.253906 34.75 41.148438 C 35.34375 40.675781 35.425781 40.027344 35.425781 40.027344 "/>
</g>
</svg>
