<?xml version="1.0" encoding="UTF-8"?>
<svg xmlns="http://www.w3.org/2000/svg" xmlns:xlink="http://www.w3.org/1999/xlink" width="122px" height="80px" viewBox="0 0 122 80" version="1.1">
<g id="surface1">
<path style=" stroke:none;fill-rule:nonzero;fill:rgb(0%,0%,0%);fill-opacity:1;" d="M 120.484375 1.507812 C 119.503906 0.53125 118.207031 0 116.828125 0 L 5.179688 0 C 2.320312 0 0 2.300781 0 5.132812 L 0 74.867188 C 0 76.238281 0.539062 77.523438 1.515625 78.5 C 2.496094 79.46875 3.792969 80 5.179688 80 L 116.828125 80 C 118.207031 80 119.503906 79.46875 120.484375 78.5 C 121.460938 77.523438 122 76.238281 122 74.867188 L 122 5.132812 C 122 3.761719 121.460938 2.476562 120.484375 1.507812 Z M 120.484375 1.507812 "/>
<path style=" stroke:none;fill-rule:nonzero;fill:rgb(100%,100%,100%);fill-opacity:1;" d="M 120.910156 74.867188 C 120.910156 77.101562 119.078125 78.917969 116.828125 78.917969 L 5.179688 78.917969 C 4.082031 78.917969 3.058594 78.5 2.28125 77.730469 C 1.511719 76.96875 1.089844 75.949219 1.089844 74.867188 L 1.089844 5.132812 C 1.089844 4.050781 1.511719 3.03125 2.28125 2.269531 C 3.058594 1.5 4.082031 1.082031 5.179688 1.082031 L 116.828125 1.082031 C 117.917969 1.082031 118.941406 1.5 119.710938 2.269531 C 120.488281 3.03125 120.910156 4.050781 120.910156 5.132812 L 120.910156 74.867188 "/>
<path style=" stroke:none;fill-rule:nonzero;fill:rgb(0%,0%,0%);fill-opacity:1;" d="M 92.164062 46.042969 L 89.714844 41.832031 L 80.042969 47.367188 L 67.171875 40 L 80.042969 32.632812 L 89.714844 38.167969 L 92.164062 33.957031 L 84.949219 29.824219 L 91.984375 25.800781 L 88.898438 20.5 L 81.863281 24.53125 L 81.855469 16.269531 L 76.957031 16.269531 L 76.957031 27.332031 L 64.085938 34.699219 L 64.085938 19.96875 L 73.753906 14.429688 L 71.300781 10.226562 L 64.085938 14.355469 L 64.085938 6.300781 L 57.914062 6.300781 L 57.914062 14.355469 L 50.699219 10.226562 L 48.246094 14.429688 L 57.914062 19.96875 L 57.914062 34.699219 L 45.042969 27.332031 L 45.042969 16.269531 L 40.136719 16.269531 L 40.136719 24.53125 L 33.101562 20.5 L 30.015625 25.800781 L 37.050781 29.824219 L 29.835938 33.957031 L 32.285156 38.167969 L 41.957031 32.632812 L 54.828125 40 L 41.957031 47.367188 L 32.285156 41.832031 L 29.835938 46.042969 L 37.050781 50.175781 L 30.015625 54.199219 L 33.101562 59.5 L 40.144531 55.46875 L 40.144531 63.730469 L 45.042969 63.730469 L 45.042969 52.667969 L 57.914062 45.300781 L 57.914062 60.03125 L 48.246094 65.570312 L 50.699219 69.773438 L 57.914062 65.644531 L 57.914062 73.699219 L 64.085938 73.699219 L 64.085938 65.644531 L 71.300781 69.773438 L 73.753906 65.570312 L 64.085938 60.03125 L 64.085938 45.300781 L 76.957031 52.667969 L 76.957031 63.730469 L 81.863281 63.730469 L 81.863281 55.46875 L 88.898438 59.5 L 91.984375 54.199219 L 84.949219 50.175781 L 92.164062 46.042969 "/>
</g>
</svg>
