<?xml version="1.0" encoding="UTF-8"?>
<svg xmlns="http://www.w3.org/2000/svg" xmlns:xlink="http://www.w3.org/1999/xlink" width="37px" height="50px" viewBox="0 0 37 50" version="1.1">
<g id="surface1">
<path style=" stroke:none;fill-rule:evenodd;fill:rgb(100%,100%,100%);fill-opacity:1;" d="M 1.484375 0.425781 C 0.996094 0.535156 0.605469 0.886719 0.445312 1.363281 L 0.390625 1.53125 L 0.371094 24.871094 C 0.359375 42.535156 0.359375 48.25 0.378906 48.382812 C 0.457031 48.949219 0.859375 49.40625 1.402344 49.546875 C 1.597656 49.597656 35.242188 49.589844 35.496094 49.539062 C 35.964844 49.449219 36.398438 49.019531 36.507812 48.550781 C 36.558594 48.324219 36.5625 1.628906 36.511719 1.441406 C 36.382812 0.960938 36.007812 0.589844 35.515625 0.441406 C 35.351562 0.394531 1.703125 0.378906 1.484375 0.425781 M 34.996094 25.003906 C 35.003906 37.652344 35.007812 48.007812 35 48.023438 C 34.992188 48.046875 32.039062 48.050781 18.480469 48.050781 L 1.96875 48.050781 L 1.96875 37.449219 C 1.96875 31.621094 1.976562 21.257812 1.984375 14.425781 L 1.996094 2 L 18.488281 2.003906 L 34.976562 2.011719 L 34.996094 25.003906 M 16.363281 13.496094 C 11.820312 13.5 8.667969 13.511719 8.660156 13.523438 C 8.648438 13.53125 8.644531 18.195312 8.65625 25.035156 L 8.671875 36.527344 L 16.574219 36.527344 C 20.925781 36.527344 25.339844 36.523438 26.386719 36.515625 L 28.292969 36.5 L 28.292969 13.480469 L 26.171875 13.488281 C 25.003906 13.488281 20.589844 13.496094 16.363281 13.496094 M 14.160156 14.304688 C 15.105469 14.507812 15.402344 15.222656 14.976562 16.273438 C 14.789062 16.738281 14.785156 16.753906 14.777344 16.976562 C 14.773438 17.160156 14.777344 17.179688 14.8125 17.1875 C 15.027344 17.230469 15.878906 17.523438 16.074219 17.625 C 16.433594 17.808594 16.714844 18.230469 17.09375 19.160156 C 17.351562 19.789062 17.660156 20.4375 17.828125 20.699219 C 18.03125 21.019531 18.011719 21.347656 17.761719 21.816406 C 17.699219 21.9375 17.59375 22.140625 17.53125 22.265625 C 17.46875 22.390625 17.34375 22.644531 17.253906 22.828125 C 16.972656 23.40625 16.835938 23.785156 16.753906 24.226562 L 16.722656 24.398438 L 16.816406 24.664062 C 16.871094 24.8125 16.96875 25.085938 17.035156 25.273438 C 17.101562 25.460938 17.152344 25.621094 17.148438 25.628906 C 17.144531 25.636719 17 25.671875 16.835938 25.703125 L 16.53125 25.765625 L 16.542969 26.035156 C 16.558594 26.308594 16.625 27.054688 16.703125 27.734375 C 16.746094 28.125 16.847656 28.667969 16.960938 29.101562 C 17 29.25 17.050781 29.464844 17.074219 29.578125 C 17.285156 30.664062 17.582031 31.671875 17.972656 32.636719 C 17.984375 32.664062 17.9375 32.703125 17.765625 32.824219 C 17.425781 33.058594 17.441406 33.035156 17.542969 33.085938 C 17.636719 33.132812 17.84375 33.175781 18.230469 33.226562 C 18.625 33.277344 18.933594 33.484375 18.933594 33.691406 C 18.933594 33.703125 18.683594 33.792969 18.382812 33.894531 C 17.675781 34.128906 17.4375 34.144531 16.949219 33.996094 C 16.921875 33.988281 16.910156 34.003906 16.898438 34.078125 C 16.890625 34.132812 16.878906 34.171875 16.871094 34.171875 C 16.804688 34.171875 16.050781 34.089844 16.046875 34.082031 C 16.039062 34.074219 16.03125 33.925781 16.023438 33.753906 L 16.011719 33.433594 L 15.855469 33.417969 C 15.664062 33.398438 15.6875 33.4375 15.636719 33.03125 C 15.613281 32.839844 15.570312 32.535156 15.546875 32.351562 C 15.523438 32.167969 15.472656 31.8125 15.441406 31.558594 C 15.375 31.070312 15.226562 30.125 15.140625 29.640625 C 15.113281 29.480469 15.0625 29.183594 15.027344 28.976562 C 14.996094 28.773438 14.941406 28.515625 14.914062 28.40625 C 14.804688 27.992188 14.589844 27.222656 14.578125 27.203125 C 14.558594 27.171875 14.3125 28.96875 14.285156 29.320312 C 14.273438 29.496094 14.25 29.875 14.234375 30.164062 C 14.214844 30.449219 14.183594 30.96875 14.160156 31.320312 C 14.140625 31.667969 14.109375 32.367188 14.097656 32.867188 C 14.089844 33.371094 14.074219 33.789062 14.070312 33.796875 C 14.0625 33.804688 13.988281 33.824219 13.902344 33.839844 C 13.707031 33.875 13.710938 33.847656 13.789062 34.28125 C 13.875 34.773438 13.886719 34.722656 13.660156 34.828125 L 13.46875 34.917969 L 13.378906 34.847656 L 13.292969 34.773438 L 13.058594 34.996094 C 12.714844 35.316406 12.734375 35.308594 12.117188 35.308594 C 11.753906 35.304688 11.578125 35.296875 11.496094 35.277344 L 11.382812 35.246094 L 11.375 35.066406 C 11.367188 34.761719 11.476562 34.582031 11.703125 34.527344 C 11.875 34.488281 11.945312 34.441406 12.144531 34.25 L 12.328125 34.070312 L 12.089844 33.957031 C 11.957031 33.894531 11.847656 33.832031 11.847656 33.820312 C 11.847656 33.808594 11.882812 33.609375 11.929688 33.378906 C 12.179688 32.078125 12.300781 30.734375 12.300781 29.246094 C 12.300781 28.84375 12.3125 28.457031 12.324219 28.382812 C 12.332031 28.304688 12.355469 27.988281 12.375 27.671875 C 12.390625 27.355469 12.414062 26.941406 12.425781 26.746094 C 12.449219 26.429688 12.441406 25.660156 12.417969 25.636719 C 12.414062 25.632812 12.316406 25.59375 12.207031 25.550781 L 12 25.472656 L 12 25.246094 C 12 25.117188 12.007812 24.75 12.019531 24.421875 L 12.039062 23.828125 L 11.871094 23.640625 C 11.78125 23.539062 11.585938 23.34375 11.441406 23.210938 C 11.144531 22.9375 10.992188 22.773438 10.160156 21.832031 C 9.863281 21.5 9.765625 21.242188 9.828125 20.988281 C 9.90625 20.6875 10.472656 19.609375 11 18.753906 C 11.058594 18.65625 11.136719 18.53125 11.167969 18.476562 C 11.339844 18.1875 11.566406 17.933594 11.773438 17.804688 C 11.894531 17.730469 12.367188 17.523438 12.417969 17.523438 C 12.425781 17.523438 12.515625 17.484375 12.621094 17.4375 C 12.722656 17.386719 12.882812 17.328125 12.972656 17.304688 L 13.136719 17.257812 L 13.136719 17.074219 C 13.132812 16.769531 13.089844 16.632812 12.84375 16.195312 C 12.5625 15.695312 12.550781 15.347656 12.808594 14.835938 C 13.046875 14.355469 13.519531 14.167969 14.160156 14.304688 M 23.34375 16.441406 C 23.886719 16.609375 24.230469 17.070312 24.304688 17.730469 C 24.316406 17.835938 24.355469 18.050781 24.390625 18.203125 C 24.542969 18.890625 24.429688 19.277344 24.039062 19.425781 L 23.964844 19.453125 L 24.058594 19.507812 C 24.109375 19.539062 24.191406 19.574219 24.246094 19.585938 C 25.28125 19.863281 25.625 20.246094 26.058594 21.640625 C 26.417969 22.789062 26.472656 23.261719 26.300781 23.847656 C 26.261719 23.988281 26.195312 24.214844 26.15625 24.359375 C 26.113281 24.503906 25.996094 24.867188 25.894531 25.171875 C 25.792969 25.476562 25.703125 25.746094 25.699219 25.773438 C 25.6875 25.8125 25.703125 25.84375 25.777344 25.917969 C 25.828125 25.972656 25.90625 26.0625 25.949219 26.121094 C 26.085938 26.292969 26.414062 26.691406 26.585938 26.886719 C 26.671875 26.988281 26.746094 27.082031 26.746094 27.09375 C 26.746094 27.144531 26.472656 27.519531 26.304688 27.707031 L 26.1875 27.835938 L 26.25 28.007812 C 26.28125 28.101562 26.308594 28.183594 26.308594 28.1875 C 26.308594 28.199219 25.933594 28.382812 25.710938 28.476562 C 25.359375 28.621094 24.980469 28.742188 24.59375 28.828125 C 24.40625 28.871094 24.226562 28.914062 24.191406 28.921875 C 24.15625 28.933594 24.109375 28.945312 24.085938 28.945312 C 23.960938 28.945312 23.980469 29.003906 24.164062 29.179688 C 24.539062 29.542969 24.730469 30.230469 24.640625 30.910156 C 24.519531 31.847656 24.628906 32.515625 24.980469 32.984375 C 25.234375 33.328125 25.289062 33.488281 25.3125 33.984375 C 25.355469 34.902344 25.003906 34.957031 24.417969 34.128906 C 23.949219 33.457031 23.941406 33.421875 23.972656 32.746094 C 23.976562 32.621094 23.96875 32.574219 23.914062 32.421875 C 23.878906 32.324219 23.757812 31.980469 23.644531 31.652344 C 23.535156 31.324219 23.394531 30.933594 23.335938 30.777344 C 23.027344 29.980469 22.960938 29.695312 22.996094 29.316406 L 23.007812 29.15625 L 22.886719 29.140625 C 22.820312 29.132812 22.730469 29.117188 22.683594 29.109375 C 22.550781 29.078125 22.550781 29.078125 22.621094 29.253906 C 22.851562 29.800781 22.894531 30.226562 22.78125 30.859375 C 22.703125 31.3125 22.667969 31.753906 22.667969 32.277344 C 22.667969 32.953125 22.6875 33.046875 22.941406 33.417969 C 23.285156 33.917969 23.117188 34.382812 22.273438 35.253906 C 21.902344 35.640625 21.574219 35.710938 21.398438 35.449219 C 21.296875 35.292969 21.3125 35.113281 21.472656 34.710938 C 21.898438 33.640625 21.90625 33.554688 21.660156 32.4375 C 21.617188 32.234375 21.53125 31.8125 21.476562 31.5 C 21.417969 31.1875 21.335938 30.765625 21.289062 30.558594 C 21.199219 30.136719 21.082031 29.390625 21.027344 28.902344 L 20.992188 28.578125 L 20.773438 28.507812 C 20.609375 28.453125 20.128906 28.253906 20.097656 28.226562 C 20.089844 28.21875 20.183594 27.652344 20.246094 27.324219 C 20.316406 26.96875 20.464844 26.390625 20.582031 26.003906 C 20.617188 25.894531 20.691406 25.652344 20.75 25.460938 L 20.859375 25.117188 L 20.699219 24.847656 C 20.464844 24.449219 20.125 23.941406 19.847656 23.574219 C 19.523438 23.144531 19.535156 23.164062 19.535156 22.90625 C 19.53125 22.667969 19.523438 22.703125 19.8125 21.816406 C 20.308594 20.285156 20.410156 20.117188 21.019531 19.867188 C 21.152344 19.8125 21.300781 19.75 21.351562 19.722656 C 21.402344 19.695312 21.566406 19.625 21.714844 19.566406 C 22.035156 19.433594 22.019531 19.449219 21.929688 19.382812 C 21.496094 19.050781 21.441406 18.929688 21.476562 18.335938 C 21.527344 17.339844 21.636719 17.03125 22.027344 16.734375 C 22.460938 16.40625 22.90625 16.308594 23.34375 16.441406 M 15.734375 19.914062 C 15.785156 20.472656 16.082031 21.714844 16.164062 21.710938 C 16.171875 21.710938 16.269531 21.519531 16.378906 21.285156 C 16.613281 20.796875 16.613281 20.835938 16.429688 20.609375 C 16.378906 20.546875 16.273438 20.40625 16.195312 20.296875 C 16.046875 20.089844 15.753906 19.734375 15.730469 19.734375 C 15.722656 19.734375 15.726562 19.816406 15.734375 19.914062 M 11.980469 19.992188 C 11.957031 20.027344 11.8125 20.253906 11.664062 20.496094 L 11.390625 20.9375 L 11.71875 21.433594 L 12.042969 21.933594 L 12.046875 21.839844 C 12.050781 21.785156 12.046875 21.335938 12.039062 20.835938 L 12.023438 19.929688 L 11.980469 19.992188 M 24.632812 22.105469 C 24.546875 22.660156 24.652344 23.679688 24.851562 24.246094 L 24.878906 24.328125 L 24.890625 24.246094 C 24.914062 24.109375 24.941406 23.820312 24.957031 23.621094 C 24.964844 23.515625 24.988281 23.277344 25.011719 23.085938 C 25.0625 22.679688 25.070312 22.726562 24.84375 22.246094 C 24.660156 21.867188 24.667969 21.871094 24.632812 22.105469 M 21.140625 22.265625 C 21.035156 22.492188 20.96875 22.695312 20.917969 22.953125 L 20.875 23.171875 L 21.046875 23.421875 C 21.175781 23.609375 21.21875 23.660156 21.230469 23.632812 C 21.25 23.589844 21.25 22.539062 21.230469 22.285156 L 21.21875 22.101562 L 21.140625 22.265625 "/>
<path style=" stroke:none;fill-rule:evenodd;fill:rgb(10.980392%,29.019609%,59.607846%);fill-opacity:1;" d="M 0.769531 0.800781 C 0.722656 0.855469 0.683594 0.894531 0.691406 0.894531 C 0.695312 0.894531 0.742188 0.855469 0.792969 0.800781 C 0.84375 0.75 0.878906 0.707031 0.871094 0.707031 C 0.867188 0.707031 0.820312 0.75 0.769531 0.800781 M 36.386719 1.136719 C 36.40625 1.175781 36.425781 1.203125 36.429688 1.199219 C 36.441406 1.191406 36.375 1.0625 36.363281 1.0625 C 36.359375 1.0625 36.367188 1.09375 36.386719 1.136719 M 36.542969 1.625 C 36.542969 1.664062 36.546875 1.683594 36.554688 1.660156 C 36.558594 1.640625 36.558594 1.609375 36.554688 1.589844 C 36.546875 1.570312 36.542969 1.585938 36.542969 1.625 M 1.984375 14.425781 C 1.976562 21.257812 1.96875 31.621094 1.96875 37.449219 L 1.96875 48.050781 L 18.480469 48.050781 C 32.039062 48.050781 34.992188 48.046875 35 48.023438 C 35.007812 48.007812 35.003906 37.652344 34.996094 25.003906 L 34.976562 2.011719 L 18.488281 2.003906 L 1.996094 2 L 1.984375 14.425781 M 0.367188 15.691406 C 0.367188 22.984375 0.371094 25.96875 0.375 22.324219 C 0.375 18.675781 0.375 12.707031 0.375 9.058594 C 0.371094 5.410156 0.367188 8.394531 0.367188 15.691406 M 28.292969 24.992188 L 28.292969 36.5 L 26.386719 36.515625 C 25.339844 36.523438 20.925781 36.527344 16.574219 36.527344 L 8.671875 36.527344 L 8.65625 25.035156 C 8.644531 18.195312 8.648438 13.53125 8.660156 13.523438 C 8.667969 13.511719 11.820312 13.5 16.363281 13.496094 C 20.589844 13.496094 25.003906 13.488281 26.171875 13.488281 L 28.292969 13.480469 L 28.292969 24.992188 M 12.980469 14.558594 L 12.910156 14.636719 L 12.988281 14.566406 C 13.058594 14.5 13.074219 14.480469 13.058594 14.480469 C 13.054688 14.480469 13.019531 14.515625 12.980469 14.558594 M 15.007812 14.867188 C 15.007812 14.878906 15.023438 14.910156 15.039062 14.941406 C 15.054688 14.96875 15.070312 14.984375 15.070312 14.972656 C 15.070312 14.960938 15.054688 14.925781 15.039062 14.898438 C 15.023438 14.871094 15.007812 14.855469 15.007812 14.867188 M 22.980469 16.394531 C 23.003906 16.398438 23.042969 16.398438 23.0625 16.394531 C 23.082031 16.386719 23.058594 16.382812 23.015625 16.382812 C 22.96875 16.382812 22.953125 16.386719 22.980469 16.394531 M 13.121094 16.847656 C 13.128906 16.90625 13.136719 16.957031 13.140625 16.960938 C 13.15625 16.976562 13.144531 16.847656 13.125 16.796875 C 13.113281 16.761719 13.113281 16.777344 13.121094 16.847656 M 21.867188 16.875 L 21.796875 16.953125 L 21.875 16.878906 C 21.914062 16.839844 21.949219 16.804688 21.949219 16.800781 C 21.949219 16.785156 21.933594 16.800781 21.867188 16.875 M 14.765625 17.015625 C 14.765625 17.09375 14.769531 17.125 14.773438 17.082031 C 14.78125 17.039062 14.78125 16.972656 14.773438 16.933594 C 14.769531 16.898438 14.765625 16.933594 14.765625 17.015625 M 13.148438 17.144531 C 13.140625 17.214844 13.144531 17.265625 13.15625 17.253906 C 13.164062 17.246094 13.167969 17.1875 13.164062 17.125 L 13.15625 17.015625 L 13.148438 17.144531 M 16.339844 17.835938 C 16.386719 17.882812 16.425781 17.921875 16.433594 17.921875 C 16.4375 17.921875 16.40625 17.882812 16.363281 17.835938 C 16.316406 17.792969 16.277344 17.753906 16.269531 17.753906 C 16.265625 17.753906 16.296875 17.792969 16.339844 17.835938 M 11.527344 18.007812 L 11.402344 18.140625 L 11.53125 18.015625 C 11.601562 17.945312 11.660156 17.886719 11.660156 17.882812 C 11.660156 17.871094 11.640625 17.886719 11.527344 18.007812 M 24.433594 18.515625 C 24.4375 18.558594 24.441406 18.578125 24.445312 18.550781 C 24.449219 18.523438 24.449219 18.488281 24.445312 18.46875 C 24.4375 18.445312 24.433594 18.46875 24.433594 18.515625 M 16.828125 18.578125 C 16.828125 18.589844 16.839844 18.621094 16.855469 18.648438 C 16.875 18.679688 16.886719 18.691406 16.886719 18.679688 C 16.886719 18.667969 16.875 18.636719 16.855469 18.609375 C 16.839844 18.578125 16.828125 18.566406 16.828125 18.578125 M 21.703125 19.179688 C 21.777344 19.253906 21.839844 19.316406 21.847656 19.316406 C 21.851562 19.316406 21.796875 19.253906 21.722656 19.179688 C 21.648438 19.105469 21.585938 19.046875 21.578125 19.046875 C 21.574219 19.046875 21.628906 19.105469 21.703125 19.179688 M 15.875 19.890625 C 15.914062 19.929688 15.949219 19.960938 15.957031 19.960938 C 15.960938 19.960938 15.933594 19.929688 15.898438 19.890625 C 15.859375 19.847656 15.820312 19.816406 15.816406 19.816406 C 15.808594 19.816406 15.835938 19.847656 15.875 19.890625 M 17.503906 20.117188 C 17.53125 20.179688 17.5625 20.230469 17.566406 20.222656 C 17.574219 20.214844 17.46875 20.003906 17.457031 20.003906 C 17.449219 20.003906 17.472656 20.054688 17.503906 20.117188 M 25.320312 20.117188 C 25.355469 20.160156 25.394531 20.191406 25.398438 20.191406 C 25.40625 20.191406 25.378906 20.160156 25.339844 20.117188 C 25.300781 20.078125 25.265625 20.046875 25.257812 20.046875 C 25.253906 20.046875 25.28125 20.078125 25.320312 20.117188 M 16.101562 20.171875 C 16.128906 20.207031 16.152344 20.234375 16.15625 20.234375 C 16.164062 20.234375 16.148438 20.207031 16.125 20.171875 C 16.097656 20.136719 16.074219 20.109375 16.070312 20.109375 C 16.0625 20.109375 16.078125 20.136719 16.101562 20.171875 M 15.757812 20.210938 C 15.757812 20.253906 15.761719 20.269531 15.765625 20.25 C 15.769531 20.230469 15.769531 20.195312 15.765625 20.175781 C 15.761719 20.15625 15.757812 20.171875 15.757812 20.210938 M 12.042969 20.742188 C 12.042969 21.007812 12.042969 21.113281 12.046875 20.976562 C 12.050781 20.84375 12.050781 20.625 12.046875 20.496094 C 12.042969 20.371094 12.042969 20.480469 12.042969 20.742188 M 20.328125 20.421875 C 20.308594 20.457031 20.296875 20.492188 20.304688 20.496094 C 20.308594 20.5 20.328125 20.472656 20.34375 20.429688 C 20.386719 20.339844 20.375 20.335938 20.328125 20.421875 M 9.808594 21.148438 C 9.808594 21.203125 9.8125 21.222656 9.816406 21.195312 C 9.820312 21.171875 9.820312 21.128906 9.816406 21.101562 C 9.8125 21.078125 9.808594 21.097656 9.808594 21.148438 M 16.4375 21.160156 C 16.414062 21.210938 16.398438 21.253906 16.402344 21.253906 C 16.417969 21.253906 16.5 21.085938 16.492188 21.074219 C 16.488281 21.070312 16.460938 21.109375 16.4375 21.160156 M 19.988281 21.257812 C 19.976562 21.292969 19.96875 21.328125 19.976562 21.332031 C 19.980469 21.335938 19.992188 21.308594 20.007812 21.273438 C 20.019531 21.234375 20.027344 21.203125 20.019531 21.199219 C 20.015625 21.195312 20.003906 21.21875 19.988281 21.257812 M 16.304688 21.433594 C 16.253906 21.535156 16.261719 21.550781 16.3125 21.457031 C 16.335938 21.410156 16.351562 21.371094 16.347656 21.367188 C 16.339844 21.363281 16.320312 21.390625 16.304688 21.433594 M 12.058594 21.707031 C 12.054688 21.875 12.046875 21.921875 12.027344 21.910156 C 12.007812 21.898438 12.007812 21.898438 12.027344 21.921875 C 12.070312 21.96875 12.074219 21.9375 12.070312 21.710938 L 12.0625 21.492188 L 12.058594 21.707031 M 10.339844 22.035156 C 10.398438 22.097656 10.457031 22.152344 10.460938 22.152344 C 10.464844 22.152344 10.421875 22.097656 10.359375 22.035156 C 10.296875 21.972656 10.242188 21.921875 10.238281 21.921875 C 10.230469 21.921875 10.277344 21.972656 10.339844 22.035156 M 24.742188 22.035156 C 24.742188 22.046875 24.753906 22.082031 24.769531 22.109375 C 24.789062 22.136719 24.800781 22.152344 24.800781 22.140625 C 24.800781 22.128906 24.789062 22.097656 24.769531 22.066406 C 24.753906 22.039062 24.742188 22.023438 24.742188 22.035156 M 21.183594 22.128906 C 21.171875 22.15625 21.167969 22.179688 21.171875 22.183594 C 21.179688 22.191406 21.191406 22.171875 21.199219 22.148438 C 21.210938 22.109375 21.21875 22.140625 21.230469 22.265625 L 21.242188 22.433594 L 21.246094 22.273438 C 21.25 22.105469 21.226562 22.054688 21.183594 22.128906 M 17.53125 22.222656 C 17.496094 22.300781 17.503906 22.316406 17.542969 22.246094 C 17.558594 22.214844 17.570312 22.183594 17.566406 22.179688 C 17.558594 22.175781 17.546875 22.195312 17.53125 22.222656 M 24.601562 22.296875 C 24.601562 22.347656 24.605469 22.367188 24.609375 22.34375 C 24.613281 22.316406 24.613281 22.273438 24.609375 22.25 C 24.605469 22.222656 24.601562 22.246094 24.601562 22.296875 M 24.921875 22.410156 C 24.949219 22.472656 24.980469 22.519531 24.984375 22.515625 C 24.992188 22.507812 24.886719 22.296875 24.875 22.296875 C 24.867188 22.296875 24.890625 22.347656 24.921875 22.410156 M 19.628906 22.371094 C 19.621094 22.402344 19.617188 22.429688 19.621094 22.433594 C 19.628906 22.441406 19.636719 22.417969 19.644531 22.386719 C 19.652344 22.359375 19.65625 22.328125 19.648438 22.324219 C 19.644531 22.320312 19.636719 22.339844 19.628906 22.371094 M 24.582031 22.652344 C 24.582031 22.769531 24.585938 22.820312 24.589844 22.761719 C 24.59375 22.699219 24.59375 22.601562 24.589844 22.542969 C 24.585938 22.480469 24.582031 22.53125 24.582031 22.652344 M 17.378906 22.535156 C 17.328125 22.640625 17.335938 22.65625 17.386719 22.558594 C 17.410156 22.515625 17.425781 22.476562 17.421875 22.472656 C 17.414062 22.46875 17.398438 22.496094 17.378906 22.535156 M 10.875 22.636719 C 10.960938 22.726562 10.980469 22.742188 10.980469 22.726562 C 10.980469 22.722656 10.933594 22.679688 10.878906 22.628906 L 10.78125 22.535156 L 10.875 22.636719 M 21.257812 23.015625 C 21.257812 23.257812 21.261719 23.351562 21.261719 23.226562 C 21.265625 23.105469 21.265625 22.90625 21.261719 22.789062 C 21.261719 22.671875 21.257812 22.773438 21.257812 23.015625 M 11.15625 22.941406 C 11.234375 23.023438 11.300781 23.089844 11.308594 23.089844 C 11.3125 23.089844 11.253906 23.023438 11.175781 22.941406 C 11.097656 22.863281 11.027344 22.796875 11.019531 22.796875 C 11.015625 22.796875 11.074219 22.863281 11.15625 22.941406 M 24.601562 23.003906 C 24.601562 23.054688 24.605469 23.078125 24.609375 23.050781 C 24.613281 23.027344 24.613281 22.984375 24.609375 22.957031 C 24.605469 22.933594 24.601562 22.953125 24.601562 23.003906 M 11.476562 23.246094 C 11.511719 23.285156 11.550781 23.316406 11.554688 23.316406 C 11.5625 23.316406 11.535156 23.285156 11.496094 23.246094 C 11.457031 23.203125 11.421875 23.171875 11.414062 23.171875 C 11.410156 23.171875 11.4375 23.203125 11.476562 23.246094 M 26.378906 23.441406 C 26.378906 23.484375 26.382812 23.5 26.386719 23.480469 C 26.390625 23.457031 26.390625 23.425781 26.386719 23.40625 C 26.382812 23.386719 26.378906 23.402344 26.378906 23.441406 M 24.953125 23.722656 C 24.953125 23.792969 24.957031 23.816406 24.960938 23.78125 C 24.964844 23.742188 24.964844 23.6875 24.960938 23.65625 C 24.957031 23.625 24.953125 23.65625 24.953125 23.722656 M 19.96875 23.734375 C 19.992188 23.769531 20.015625 23.796875 20.023438 23.796875 C 20.027344 23.796875 20.011719 23.769531 19.988281 23.734375 C 19.964844 23.699219 19.9375 23.671875 19.933594 23.671875 C 19.925781 23.671875 19.941406 23.699219 19.96875 23.734375 M 12.007812 23.796875 C 12.019531 23.816406 12.035156 23.917969 12.039062 24.039062 L 12.042969 24.246094 L 12.050781 24.035156 C 12.050781 23.855469 12.046875 23.816406 12.015625 23.792969 C 11.984375 23.769531 11.984375 23.769531 12.007812 23.796875 M 24.929688 23.953125 C 24.929688 24 24.9375 24.015625 24.941406 23.988281 C 24.945312 23.964844 24.945312 23.925781 24.941406 23.90625 C 24.933594 23.886719 24.929688 23.90625 24.929688 23.953125 M 20.171875 24.027344 C 20.199219 24.058594 20.222656 24.089844 20.226562 24.089844 C 20.234375 24.089844 20.21875 24.058594 20.195312 24.027344 C 20.171875 23.992188 20.144531 23.964844 20.140625 23.964844 C 20.132812 23.964844 20.148438 23.992188 20.171875 24.027344 M 24.910156 24.128906 C 24.910156 24.171875 24.914062 24.1875 24.917969 24.167969 C 24.925781 24.148438 24.925781 24.113281 24.917969 24.09375 C 24.914062 24.074219 24.910156 24.089844 24.910156 24.128906 M 20.335938 24.265625 C 20.347656 24.289062 20.371094 24.324219 20.390625 24.347656 L 20.425781 24.390625 L 20.402344 24.347656 C 20.390625 24.324219 20.367188 24.289062 20.351562 24.265625 L 20.316406 24.222656 L 20.335938 24.265625 M 12.019531 24.589844 C 12.019531 24.664062 12.023438 24.695312 12.027344 24.65625 C 12.03125 24.617188 12.03125 24.558594 12.027344 24.519531 C 12.023438 24.484375 12.019531 24.515625 12.019531 24.589844 M 11.996094 25.121094 C 11.996094 25.175781 12 25.199219 12.007812 25.167969 C 12.011719 25.136719 12.011719 25.089844 12.003906 25.0625 C 12 25.035156 11.996094 25.0625 11.996094 25.121094 M 20.691406 25.632812 C 20.679688 25.679688 20.671875 25.722656 20.675781 25.726562 C 20.679688 25.730469 20.695312 25.695312 20.710938 25.648438 C 20.722656 25.601562 20.730469 25.558594 20.726562 25.554688 C 20.722656 25.550781 20.707031 25.585938 20.691406 25.632812 M 12.429688 25.746094 C 12.433594 25.8125 12.4375 25.839844 12.441406 25.800781 C 12.445312 25.765625 12.445312 25.707031 12.441406 25.675781 C 12.433594 25.644531 12.429688 25.675781 12.429688 25.746094 M 16.523438 25.859375 C 16.523438 25.921875 16.527344 25.949219 16.53125 25.917969 C 16.535156 25.886719 16.535156 25.832031 16.53125 25.800781 C 16.527344 25.769531 16.523438 25.796875 16.523438 25.859375 M 25.753906 25.90625 C 25.753906 25.910156 25.78125 25.941406 25.820312 25.976562 L 25.886719 26.035156 L 25.828125 25.96875 C 25.769531 25.90625 25.753906 25.890625 25.753906 25.90625 M 12.453125 26.246094 C 12.453125 26.359375 12.457031 26.402344 12.460938 26.34375 C 12.464844 26.28125 12.464844 26.1875 12.460938 26.136719 C 12.457031 26.082031 12.453125 26.128906 12.453125 26.246094 M 12.433594 26.734375 C 12.433594 26.820312 12.4375 26.855469 12.441406 26.8125 C 12.445312 26.769531 12.445312 26.699219 12.441406 26.65625 C 12.4375 26.613281 12.433594 26.648438 12.433594 26.734375 M 20.351562 26.828125 C 20.34375 26.859375 20.339844 26.890625 20.347656 26.894531 C 20.351562 26.898438 20.359375 26.878906 20.367188 26.847656 C 20.375 26.816406 20.378906 26.789062 20.375 26.785156 C 20.367188 26.777344 20.359375 26.800781 20.351562 26.828125 M 26.578125 26.90625 C 26.578125 26.910156 26.609375 26.941406 26.644531 26.976562 L 26.714844 27.035156 L 26.652344 26.96875 C 26.597656 26.90625 26.578125 26.890625 26.578125 26.90625 M 12.410156 27.058594 C 12.410156 27.113281 12.414062 27.136719 12.417969 27.105469 C 12.425781 27.074219 12.425781 27.027344 12.417969 27 C 12.414062 26.972656 12.410156 27 12.410156 27.058594 M 16.625 27.121094 C 16.625 27.167969 16.628906 27.183594 16.632812 27.15625 C 16.640625 27.128906 16.640625 27.09375 16.632812 27.074219 C 16.628906 27.054688 16.625 27.074219 16.625 27.121094 M 12.390625 27.339844 C 12.390625 27.414062 12.394531 27.445312 12.398438 27.40625 C 12.402344 27.371094 12.402344 27.308594 12.398438 27.269531 C 12.394531 27.234375 12.390625 27.265625 12.390625 27.339844 M 16.644531 27.328125 C 16.644531 27.375 16.648438 27.390625 16.65625 27.363281 C 16.660156 27.339844 16.660156 27.300781 16.65625 27.28125 C 16.648438 27.261719 16.644531 27.28125 16.644531 27.328125 M 14.515625 27.441406 C 14.515625 27.484375 14.519531 27.5 14.527344 27.480469 C 14.53125 27.460938 14.53125 27.425781 14.527344 27.40625 C 14.519531 27.386719 14.515625 27.402344 14.515625 27.441406 M 16.667969 27.515625 C 16.667969 27.5625 16.671875 27.578125 16.675781 27.550781 C 16.679688 27.527344 16.679688 27.488281 16.675781 27.46875 C 16.671875 27.449219 16.667969 27.46875 16.667969 27.515625 M 14.679688 27.546875 C 14.679688 27.566406 14.6875 27.597656 14.699219 27.621094 C 14.710938 27.648438 14.714844 27.652344 14.714844 27.628906 C 14.714844 27.613281 14.707031 27.582031 14.699219 27.558594 C 14.6875 27.53125 14.679688 27.527344 14.679688 27.546875 M 16.6875 27.691406 C 16.6875 27.734375 16.691406 27.75 16.695312 27.730469 C 16.699219 27.710938 16.699219 27.675781 16.695312 27.65625 C 16.691406 27.636719 16.6875 27.652344 16.6875 27.691406 M 12.371094 27.796875 C 12.371094 27.871094 12.375 27.902344 12.378906 27.867188 C 12.382812 27.828125 12.382812 27.765625 12.378906 27.730469 C 12.375 27.691406 12.371094 27.722656 12.371094 27.796875 M 25.410156 28.578125 C 25.359375 28.605469 25.359375 28.609375 25.402344 28.597656 C 25.460938 28.582031 25.527344 28.546875 25.496094 28.550781 C 25.484375 28.550781 25.445312 28.5625 25.410156 28.578125 M 21.003906 28.671875 C 21.003906 28.710938 21.007812 28.730469 21.015625 28.710938 C 21.019531 28.6875 21.019531 28.65625 21.015625 28.636719 C 21.007812 28.617188 21.003906 28.632812 21.003906 28.671875 M 21.027344 28.871094 C 21.027344 28.917969 21.03125 28.933594 21.035156 28.90625 C 21.039062 28.882812 21.039062 28.84375 21.035156 28.824219 C 21.03125 28.804688 21.027344 28.824219 21.027344 28.871094 M 21.046875 29.046875 C 21.046875 29.089844 21.050781 29.105469 21.054688 29.085938 C 21.0625 29.0625 21.0625 29.03125 21.054688 29.011719 C 21.050781 28.992188 21.046875 29.007812 21.046875 29.046875 M 24.070312 29.109375 C 24.113281 29.15625 24.152344 29.195312 24.160156 29.195312 C 24.164062 29.195312 24.132812 29.15625 24.089844 29.109375 C 24.042969 29.0625 24.003906 29.027344 24 29.027344 C 23.992188 29.027344 24.023438 29.0625 24.070312 29.109375 M 22.957031 29.144531 C 22.984375 29.152344 23.003906 29.171875 23.011719 29.207031 C 23.019531 29.25 23.019531 29.25 23.015625 29.199219 C 23.015625 29.152344 23.003906 29.140625 22.964844 29.140625 C 22.921875 29.136719 22.917969 29.140625 22.957031 29.144531 M 21.066406 29.214844 C 21.066406 29.253906 21.070312 29.269531 21.078125 29.25 C 21.082031 29.230469 21.082031 29.199219 21.078125 29.179688 C 21.070312 29.15625 21.066406 29.175781 21.066406 29.214844 M 22.992188 29.453125 C 22.992188 29.535156 22.996094 29.566406 23 29.519531 C 23.003906 29.476562 23.003906 29.414062 23 29.375 C 22.996094 29.339844 22.992188 29.375 22.992188 29.453125 M 36.546875 39.019531 C 36.546875 44.199219 36.550781 46.316406 36.554688 43.722656 C 36.558594 41.128906 36.558594 36.890625 36.554688 34.300781 C 36.550781 31.714844 36.546875 33.839844 36.546875 39.019531 M 14.25 29.757812 C 14.25 29.808594 14.253906 29.828125 14.257812 29.804688 C 14.261719 29.777344 14.261719 29.734375 14.257812 29.710938 C 14.253906 29.683594 14.25 29.703125 14.25 29.757812 M 23.007812 29.746094 C 23.011719 29.792969 23.015625 29.808594 23.019531 29.78125 C 23.023438 29.757812 23.023438 29.71875 23.019531 29.699219 C 23.011719 29.679688 23.007812 29.699219 23.007812 29.746094 M 22.828125 30.214844 C 22.828125 30.378906 22.828125 30.449219 22.832031 30.367188 C 22.835938 30.28125 22.835938 30.148438 22.832031 30.0625 C 22.828125 29.980469 22.828125 30.046875 22.828125 30.214844 M 14.226562 30.132812 C 14.226562 30.183594 14.234375 30.203125 14.238281 30.179688 C 14.242188 30.152344 14.242188 30.109375 14.238281 30.085938 C 14.234375 30.058594 14.226562 30.078125 14.226562 30.132812 M 12.289062 30.296875 C 12.289062 30.394531 12.292969 30.433594 12.296875 30.386719 C 12.300781 30.339844 12.300781 30.257812 12.296875 30.210938 C 12.292969 30.160156 12.289062 30.199219 12.289062 30.296875 M 14.207031 30.433594 C 14.207031 30.503906 14.210938 30.527344 14.21875 30.492188 C 14.222656 30.453125 14.222656 30.398438 14.21875 30.367188 C 14.210938 30.335938 14.207031 30.363281 14.207031 30.433594 M 22.804688 30.621094 C 22.804688 30.667969 22.808594 30.683594 22.8125 30.65625 C 22.816406 30.632812 22.816406 30.59375 22.8125 30.574219 C 22.808594 30.554688 22.804688 30.574219 22.804688 30.621094 M 14.1875 30.726562 C 14.1875 30.792969 14.191406 30.820312 14.195312 30.78125 C 14.199219 30.746094 14.199219 30.6875 14.195312 30.65625 C 14.191406 30.625 14.1875 30.65625 14.1875 30.726562 M 12.265625 30.734375 C 12.265625 30.796875 12.269531 30.824219 12.273438 30.792969 C 12.28125 30.761719 12.28125 30.710938 12.273438 30.679688 C 12.269531 30.648438 12.265625 30.671875 12.265625 30.734375 M 12.246094 31.015625 C 12.246094 31.074219 12.25 31.09375 12.253906 31.0625 C 12.257812 31.03125 12.257812 30.984375 12.253906 30.960938 C 12.25 30.933594 12.246094 30.960938 12.246094 31.015625 M 14.167969 31.039062 C 14.167969 31.105469 14.171875 31.132812 14.175781 31.09375 C 14.179688 31.058594 14.179688 31 14.175781 30.96875 C 14.171875 30.9375 14.167969 30.96875 14.167969 31.039062 M 24.601562 31.214844 C 24.601562 31.265625 24.605469 31.289062 24.609375 31.261719 C 24.613281 31.234375 24.613281 31.195312 24.609375 31.167969 C 24.605469 31.140625 24.601562 31.164062 24.601562 31.214844 M 12.222656 31.234375 C 12.222656 31.289062 12.226562 31.308594 12.234375 31.28125 C 12.238281 31.257812 12.238281 31.214844 12.234375 31.1875 C 12.226562 31.164062 12.222656 31.183594 12.222656 31.234375 M 12.203125 31.464844 C 12.203125 31.503906 12.207031 31.519531 12.210938 31.5 C 12.21875 31.480469 12.21875 31.449219 12.210938 31.429688 C 12.207031 31.410156 12.203125 31.425781 12.203125 31.464844 M 24.582031 31.589844 C 24.582031 31.6875 24.585938 31.726562 24.589844 31.679688 C 24.59375 31.628906 24.59375 31.550781 24.589844 31.5 C 24.585938 31.453125 24.582031 31.492188 24.582031 31.589844 M 22.679688 31.609375 C 22.679688 31.652344 22.683594 31.667969 22.6875 31.648438 C 22.691406 31.628906 22.691406 31.59375 22.6875 31.574219 C 22.683594 31.554688 22.679688 31.570312 22.679688 31.609375 M 23.667969 31.714844 C 23.667969 31.730469 23.679688 31.773438 23.695312 31.808594 C 23.734375 31.890625 23.734375 31.851562 23.695312 31.757812 C 23.679688 31.714844 23.667969 31.699219 23.667969 31.714844 M 22.660156 31.859375 C 22.660156 31.925781 22.664062 31.949219 22.667969 31.917969 C 22.671875 31.886719 22.671875 31.835938 22.667969 31.804688 C 22.664062 31.773438 22.660156 31.796875 22.660156 31.859375 M 24.601562 31.933594 C 24.601562 31.992188 24.605469 32.011719 24.609375 31.980469 C 24.613281 31.949219 24.613281 31.902344 24.609375 31.875 C 24.605469 31.851562 24.601562 31.875 24.601562 31.933594 M 22.640625 32.277344 C 22.640625 32.410156 22.644531 32.464844 22.648438 32.398438 C 22.652344 32.332031 22.652344 32.222656 22.648438 32.15625 C 22.644531 32.09375 22.640625 32.144531 22.640625 32.277344 M 14.105469 32.257812 C 14.105469 32.34375 14.109375 32.378906 14.113281 32.335938 C 14.117188 32.292969 14.117188 32.222656 14.113281 32.179688 C 14.109375 32.136719 14.105469 32.171875 14.105469 32.257812 M 22.660156 32.695312 C 22.660156 32.746094 22.664062 32.765625 22.667969 32.742188 C 22.671875 32.714844 22.671875 32.671875 22.667969 32.648438 C 22.664062 32.621094 22.660156 32.644531 22.660156 32.695312 M 15.613281 32.796875 C 15.613281 32.839844 15.617188 32.855469 15.621094 32.835938 C 15.625 32.816406 15.625 32.78125 15.621094 32.761719 C 15.617188 32.742188 15.613281 32.757812 15.613281 32.796875 M 14.085938 33.214844 C 14.085938 33.335938 14.089844 33.386719 14.09375 33.324219 C 14.097656 33.265625 14.097656 33.167969 14.09375 33.105469 C 14.089844 33.046875 14.085938 33.09375 14.085938 33.214844 M 17.96875 33.207031 C 17.988281 33.214844 18.019531 33.214844 18.039062 33.207031 C 18.058594 33.203125 18.042969 33.199219 18.003906 33.199219 C 17.964844 33.199219 17.949219 33.203125 17.96875 33.207031 M 15.8125 33.414062 C 15.886719 33.429688 16.015625 33.433594 16.007812 33.417969 C 16 33.410156 15.949219 33.402344 15.890625 33.40625 C 15.832031 33.40625 15.796875 33.410156 15.8125 33.414062 M 25.28125 33.757812 C 25.28125 33.796875 25.285156 33.8125 25.292969 33.792969 C 25.296875 33.773438 25.296875 33.742188 25.292969 33.71875 C 25.285156 33.699219 25.28125 33.71875 25.28125 33.757812 M 16.027344 33.871094 C 16.027344 33.917969 16.03125 33.933594 16.035156 33.90625 C 16.039062 33.882812 16.039062 33.84375 16.035156 33.824219 C 16.03125 33.804688 16.027344 33.824219 16.027344 33.871094 M 25.304688 34.089844 C 25.304688 34.222656 25.308594 34.277344 25.3125 34.210938 C 25.316406 34.144531 25.316406 34.035156 25.3125 33.972656 C 25.308594 33.90625 25.304688 33.957031 25.304688 34.089844 M 12.011719 33.921875 C 12.050781 33.945312 12.09375 33.964844 12.105469 33.964844 C 12.117188 33.964844 12.09375 33.945312 12.054688 33.921875 C 12.011719 33.902344 11.972656 33.882812 11.960938 33.882812 C 11.949219 33.882812 11.972656 33.902344 12.011719 33.921875 M 18.242188 33.921875 C 18.214844 33.933594 18.210938 33.941406 18.230469 33.941406 C 18.25 33.941406 18.28125 33.933594 18.304688 33.921875 C 18.328125 33.914062 18.332031 33.90625 18.3125 33.90625 C 18.296875 33.90625 18.265625 33.914062 18.242188 33.921875 M 24.367188 34.050781 C 24.390625 34.082031 24.417969 34.113281 24.421875 34.113281 C 24.429688 34.113281 24.414062 34.082031 24.390625 34.050781 C 24.363281 34.015625 24.339844 33.984375 24.335938 33.984375 C 24.328125 33.984375 24.34375 34.015625 24.367188 34.050781 M 17.667969 34.085938 C 17.695312 34.089844 17.730469 34.089844 17.75 34.085938 C 17.769531 34.078125 17.75 34.074219 17.703125 34.074219 C 17.660156 34.074219 17.644531 34.078125 17.667969 34.085938 M 16.179688 34.105469 C 16.207031 34.109375 16.246094 34.109375 16.273438 34.105469 C 16.300781 34.101562 16.277344 34.097656 16.226562 34.097656 C 16.175781 34.097656 16.15625 34.101562 16.179688 34.105469 M 16.386719 34.125 C 16.414062 34.132812 16.449219 34.132812 16.46875 34.125 C 16.488281 34.121094 16.46875 34.117188 16.421875 34.117188 C 16.378906 34.117188 16.363281 34.121094 16.386719 34.125 M 12.074219 34.316406 L 12 34.394531 L 12.078125 34.320312 C 12.152344 34.253906 12.167969 34.238281 12.148438 34.238281 C 12.148438 34.238281 12.113281 34.273438 12.074219 34.316406 M 25.28125 34.425781 C 25.28125 34.464844 25.285156 34.480469 25.292969 34.460938 C 25.296875 34.441406 25.296875 34.40625 25.292969 34.386719 C 25.285156 34.367188 25.28125 34.382812 25.28125 34.425781 M 24.71875 34.519531 C 24.78125 34.582031 24.835938 34.632812 24.84375 34.632812 C 24.847656 34.632812 24.800781 34.582031 24.738281 34.519531 C 24.679688 34.453125 24.625 34.402344 24.617188 34.402344 C 24.613281 34.402344 24.65625 34.453125 24.71875 34.519531 M 11.503906 34.636719 L 11.445312 34.707031 L 11.511719 34.644531 C 11.546875 34.609375 11.578125 34.578125 11.578125 34.578125 C 11.578125 34.558594 11.5625 34.574219 11.503906 34.636719 M 13.167969 34.878906 L 13.054688 34.996094 L 13.171875 34.882812 L 13.292969 34.769531 L 13.347656 34.820312 L 13.40625 34.871094 L 13.355469 34.816406 C 13.292969 34.742188 13.300781 34.738281 13.167969 34.878906 M 13.707031 34.789062 C 13.679688 34.804688 13.664062 34.816406 13.675781 34.816406 C 13.6875 34.816406 13.71875 34.804688 13.746094 34.789062 C 13.777344 34.773438 13.789062 34.757812 13.777344 34.757812 C 13.765625 34.757812 13.734375 34.773438 13.707031 34.789062 M 11.375 35.042969 C 11.371094 35.148438 11.378906 35.238281 11.386719 35.242188 C 11.394531 35.25 11.398438 35.191406 11.398438 35.113281 C 11.386719 34.875 11.378906 34.84375 11.375 35.042969 M 22.382812 35.128906 L 22.269531 35.246094 L 22.390625 35.132812 C 22.5 35.027344 22.519531 35.007812 22.503906 35.007812 C 22.5 35.007812 22.445312 35.0625 22.382812 35.128906 M 21.335938 35.195312 C 21.335938 35.246094 21.339844 35.265625 21.34375 35.242188 C 21.351562 35.214844 21.351562 35.171875 21.34375 35.148438 C 21.339844 35.121094 21.335938 35.144531 21.335938 35.195312 M 11.933594 35.316406 C 12.046875 35.316406 12.226562 35.316406 12.335938 35.316406 C 12.449219 35.3125 12.359375 35.308594 12.136719 35.308594 C 11.914062 35.308594 11.824219 35.3125 11.933594 35.316406 M 0.75 49.183594 C 0.835938 49.273438 0.855469 49.289062 0.855469 49.273438 C 0.855469 49.273438 0.808594 49.226562 0.757812 49.175781 L 0.65625 49.082031 L 0.75 49.183594 M 36.144531 49.191406 L 36.074219 49.269531 L 36.152344 49.199219 C 36.195312 49.160156 36.230469 49.125 36.230469 49.121094 C 36.230469 49.105469 36.210938 49.121094 36.144531 49.191406 M 1.632812 49.589844 C 1.695312 49.59375 1.789062 49.59375 1.839844 49.589844 C 1.894531 49.582031 1.847656 49.582031 1.730469 49.582031 C 1.617188 49.582031 1.574219 49.585938 1.632812 49.589844 M 19.765625 49.589844 C 22.628906 49.589844 27.304688 49.589844 30.160156 49.589844 C 33.015625 49.585938 30.671875 49.582031 24.957031 49.582031 C 19.242188 49.582031 16.90625 49.585938 19.765625 49.589844 "/>
<path style=" stroke:none;fill-rule:evenodd;fill:rgb(0%,0%,0%);fill-opacity:1;" d="M 1.359375 0.03125 C 0.703125 0.199219 0.207031 0.699219 0.0390625 1.351562 C -0.0195312 1.570312 -0.0078125 48.578125 0.046875 48.765625 C 0.226562 49.347656 0.640625 49.769531 1.226562 49.964844 L 1.359375 50.011719 L 18.480469 50.003906 L 35.597656 50 L 35.746094 49.945312 C 35.832031 49.914062 35.917969 49.875 35.945312 49.855469 C 35.96875 49.835938 36.003906 49.824219 36.019531 49.824219 C 36.171875 49.824219 36.808594 49.167969 36.808594 49.007812 C 36.808594 48.992188 36.816406 48.96875 36.828125 48.957031 C 36.859375 48.925781 36.945312 48.664062 36.972656 48.519531 C 36.988281 48.429688 36.992188 42.332031 36.988281 24.941406 L 36.984375 1.488281 L 36.9375 1.363281 C 36.800781 0.976562 36.675781 0.765625 36.457031 0.539062 C 36.332031 0.414062 36.027344 0.1875 35.984375 0.1875 C 35.972656 0.1875 35.90625 0.160156 35.832031 0.125 C 35.757812 0.09375 35.644531 0.0507812 35.574219 0.03125 C 35.402344 -0.0117188 1.535156 -0.015625 1.359375 0.03125 M 35.59375 0.453125 C 36.039062 0.625 36.324219 0.898438 36.480469 1.3125 L 36.550781 1.488281 L 36.554688 24.941406 C 36.558594 48.089844 36.558594 48.394531 36.519531 48.539062 C 36.371094 49.085938 35.984375 49.453125 35.453125 49.5625 C 35.304688 49.589844 33.796875 49.59375 18.367188 49.589844 L 1.441406 49.582031 L 1.324219 49.539062 C 0.824219 49.34375 0.503906 49 0.398438 48.542969 L 0.355469 48.355469 L 0.363281 24.972656 L 0.367188 1.59375 L 0.414062 1.429688 C 0.558594 0.921875 1.011719 0.492188 1.496094 0.410156 C 1.523438 0.40625 9.179688 0.402344 18.511719 0.402344 L 35.472656 0.40625 L 35.59375 0.453125 M 13.578125 14.28125 C 13.097656 14.421875 12.964844 14.527344 12.785156 14.910156 C 12.550781 15.402344 12.574219 15.703125 12.882812 16.253906 C 13.089844 16.617188 13.144531 16.789062 13.152344 17.054688 L 13.160156 17.261719 L 12.96875 17.316406 C 12.867188 17.347656 12.714844 17.402344 12.628906 17.445312 C 12.546875 17.488281 12.410156 17.542969 12.332031 17.566406 C 11.742188 17.757812 11.496094 17.96875 11.082031 18.640625 C 10.976562 18.8125 10.867188 18.988281 10.839844 19.03125 C 10.625 19.375 10.167969 20.226562 9.953125 20.691406 C 9.722656 21.1875 9.78125 21.417969 10.273438 21.945312 C 10.371094 22.054688 10.53125 22.234375 10.628906 22.347656 C 10.824219 22.574219 11.320312 23.089844 11.597656 23.351562 C 11.695312 23.441406 11.839844 23.589844 11.917969 23.675781 L 12.058594 23.839844 L 12.035156 24.4375 C 12.023438 24.765625 12.003906 25.128906 12 25.246094 L 11.984375 25.457031 L 12.210938 25.542969 L 12.441406 25.628906 L 12.453125 25.957031 C 12.464844 26.25 12.445312 26.894531 12.414062 27.152344 C 12.410156 27.203125 12.394531 27.441406 12.382812 27.683594 C 12.371094 27.925781 12.347656 28.226562 12.332031 28.351562 C 12.308594 28.519531 12.300781 28.8125 12.300781 29.453125 C 12.300781 30.605469 12.28125 30.910156 12.144531 32.039062 C 12.082031 32.550781 11.996094 33.105469 11.898438 33.609375 C 11.851562 33.84375 11.839844 33.824219 12.09375 33.945312 C 12.363281 34.074219 12.363281 34.054688 12.125 34.285156 C 11.949219 34.453125 11.925781 34.46875 11.761719 34.519531 C 11.464844 34.613281 11.386719 34.726562 11.394531 35.042969 L 11.402344 35.246094 L 11.546875 35.273438 C 11.644531 35.292969 11.84375 35.296875 12.175781 35.292969 C 12.761719 35.289062 12.734375 35.296875 13.066406 34.972656 L 13.292969 34.75 L 13.375 34.832031 L 13.457031 34.910156 L 13.648438 34.820312 C 13.753906 34.769531 13.84375 34.726562 13.84375 34.726562 C 13.851562 34.722656 13.792969 34.347656 13.75 34.113281 C 13.703125 33.855469 13.695312 33.875 13.902344 33.832031 C 13.992188 33.8125 14.066406 33.796875 14.070312 33.792969 C 14.070312 33.789062 14.082031 33.347656 14.09375 32.808594 C 14.117188 31.832031 14.125 31.679688 14.203125 30.484375 C 14.226562 30.136719 14.253906 29.695312 14.265625 29.507812 C 14.289062 29.109375 14.351562 28.558594 14.40625 28.214844 C 14.453125 27.945312 14.503906 27.582031 14.523438 27.382812 C 14.539062 27.21875 14.566406 27.128906 14.582031 27.171875 C 14.601562 27.222656 14.730469 27.675781 14.828125 28.046875 C 14.945312 28.472656 15.011719 28.785156 15.070312 29.152344 C 15.09375 29.308594 15.144531 29.605469 15.183594 29.820312 C 15.222656 30.03125 15.257812 30.257812 15.265625 30.320312 C 15.273438 30.382812 15.3125 30.625 15.351562 30.859375 C 15.390625 31.09375 15.445312 31.484375 15.472656 31.726562 C 15.5 31.964844 15.546875 32.3125 15.574219 32.496094 C 15.601562 32.679688 15.640625 32.949219 15.65625 33.097656 C 15.695312 33.414062 15.675781 33.390625 15.863281 33.402344 L 16.011719 33.414062 L 16.027344 33.734375 C 16.035156 33.914062 16.046875 34.0625 16.050781 34.066406 C 16.054688 34.070312 16.214844 34.089844 16.40625 34.113281 C 16.597656 34.132812 16.785156 34.15625 16.820312 34.160156 L 16.886719 34.171875 L 16.886719 34.078125 C 16.886719 34.027344 16.898438 33.984375 16.90625 33.984375 C 16.917969 33.984375 17.011719 34.003906 17.117188 34.027344 C 17.585938 34.121094 17.691406 34.109375 18.386719 33.878906 C 18.671875 33.785156 18.910156 33.707031 18.917969 33.703125 C 18.945312 33.6875 18.851562 33.527344 18.765625 33.445312 C 18.621094 33.304688 18.507812 33.261719 18.164062 33.226562 C 17.765625 33.1875 17.417969 33.089844 17.453125 33.03125 C 17.460938 33.023438 17.570312 32.941406 17.703125 32.851562 C 17.835938 32.761719 17.949219 32.683594 17.953125 32.671875 C 17.960938 32.660156 17.910156 32.503906 17.839844 32.324219 C 17.496094 31.414062 17.335938 30.855469 17.085938 29.695312 C 17.054688 29.550781 16.980469 29.222656 16.917969 28.964844 C 16.734375 28.191406 16.652344 27.574219 16.535156 26.070312 C 16.507812 25.726562 16.496094 25.75 16.707031 25.714844 C 16.789062 25.703125 16.925781 25.675781 17.007812 25.660156 L 17.15625 25.625 L 17.101562 25.488281 C 16.707031 24.441406 16.703125 24.417969 16.773438 24.085938 C 16.875 23.625 16.945312 23.4375 17.34375 22.621094 C 17.449219 22.402344 17.605469 22.085938 17.695312 21.921875 C 18 21.351562 18.03125 21.0625 17.828125 20.722656 C 17.667969 20.460938 17.175781 19.453125 17.175781 19.390625 C 17.175781 19.367188 16.917969 18.773438 16.800781 18.523438 C 16.613281 18.128906 16.386719 17.835938 16.164062 17.691406 C 15.972656 17.566406 15.230469 17.296875 14.8125 17.203125 L 14.753906 17.1875 L 14.765625 16.972656 C 14.777344 16.792969 14.789062 16.726562 14.851562 16.566406 C 14.890625 16.464844 14.957031 16.292969 15 16.1875 C 15.230469 15.589844 15.207031 15.15625 14.921875 14.726562 C 14.71875 14.425781 13.957031 14.171875 13.578125 14.28125 M 22.792969 16.402344 C 22.316406 16.46875 21.792969 16.851562 21.644531 17.242188 C 21.519531 17.570312 21.417969 18.617188 21.484375 18.851562 C 21.519531 18.96875 21.71875 19.203125 21.910156 19.351562 C 22.042969 19.453125 22.058594 19.433594 21.71875 19.574219 C 21.554688 19.644531 21.335938 19.738281 21.234375 19.789062 C 21.128906 19.839844 21.03125 19.878906 21.019531 19.878906 C 20.949219 19.878906 20.628906 20.066406 20.535156 20.160156 C 20.355469 20.339844 20.167969 20.769531 19.882812 21.632812 C 19.804688 21.875 19.695312 22.207031 19.644531 22.371094 C 19.472656 22.894531 19.484375 23.078125 19.714844 23.375 C 20.070312 23.832031 20.359375 24.261719 20.691406 24.816406 L 20.871094 25.117188 L 20.8125 25.296875 C 20.753906 25.480469 20.613281 25.941406 20.507812 26.308594 C 20.390625 26.703125 20.257812 27.289062 20.183594 27.730469 C 20.097656 28.265625 20.09375 28.222656 20.1875 28.261719 C 20.640625 28.449219 20.78125 28.503906 20.882812 28.527344 C 21.019531 28.558594 21 28.488281 21.074219 29.148438 C 21.125 29.605469 21.273438 30.488281 21.351562 30.800781 C 21.375 30.890625 21.410156 31.078125 21.433594 31.21875 C 21.484375 31.523438 21.644531 32.332031 21.703125 32.574219 C 21.753906 32.78125 21.824219 33.214844 21.839844 33.40625 C 21.859375 33.640625 21.746094 34.054688 21.441406 34.820312 C 21.269531 35.257812 21.359375 35.558594 21.671875 35.585938 C 21.875 35.601562 22.027344 35.507812 22.34375 35.171875 C 23.167969 34.285156 23.28125 33.875 22.855469 33.304688 C 22.605469 32.972656 22.574219 32.175781 22.757812 30.945312 C 22.863281 30.253906 22.835938 29.824219 22.664062 29.386719 C 22.53125 29.054688 22.53125 29.0625 22.617188 29.082031 C 22.652344 29.089844 22.757812 29.105469 22.847656 29.121094 L 23.007812 29.144531 L 23.015625 29.507812 L 23.019531 29.871094 L 23.105469 30.132812 C 23.15625 30.273438 23.21875 30.449219 23.246094 30.515625 C 23.351562 30.769531 23.671875 31.667969 23.925781 32.441406 C 24 32.660156 24 32.660156 23.976562 32.871094 C 23.9375 33.289062 23.988281 33.496094 24.222656 33.820312 C 24.289062 33.917969 24.414062 34.09375 24.5 34.214844 C 25.066406 35.03125 25.425781 34.773438 25.265625 33.660156 C 25.226562 33.371094 25.1875 33.28125 24.988281 33.015625 C 24.613281 32.515625 24.5 31.875 24.628906 30.980469 C 24.730469 30.28125 24.535156 29.546875 24.160156 29.195312 C 23.925781 28.972656 23.933594 28.953125 24.273438 28.890625 C 24.875 28.78125 25.640625 28.523438 26.164062 28.257812 C 26.308594 28.183594 26.308594 28.183594 26.230469 27.992188 L 26.171875 27.84375 L 26.261719 27.742188 C 26.382812 27.609375 26.574219 27.359375 26.667969 27.210938 L 26.742188 27.089844 L 26.59375 26.917969 C 26.425781 26.722656 26.222656 26.480469 26.007812 26.210938 C 25.929688 26.113281 25.824219 25.980469 25.769531 25.917969 L 25.671875 25.804688 L 25.792969 25.460938 C 25.972656 24.941406 26.277344 23.945312 26.339844 23.652344 C 26.445312 23.171875 26.351562 22.546875 26.015625 21.535156 C 25.578125 20.203125 25.289062 19.894531 24.199219 19.578125 C 23.988281 19.519531 23.929688 19.441406 24.0625 19.40625 C 24.414062 19.308594 24.519531 18.90625 24.378906 18.210938 C 24.347656 18.066406 24.3125 17.851562 24.292969 17.726562 C 24.1875 16.96875 23.746094 16.46875 23.132812 16.410156 C 23.066406 16.402344 22.992188 16.394531 22.964844 16.390625 C 22.933594 16.386719 22.859375 16.394531 22.792969 16.402344 M 15.832031 19.820312 C 15.964844 19.964844 16.09375 20.128906 16.214844 20.300781 C 16.265625 20.378906 16.359375 20.5 16.414062 20.570312 C 16.472656 20.644531 16.539062 20.738281 16.558594 20.78125 L 16.601562 20.859375 L 16.390625 21.289062 C 16.277344 21.527344 16.179688 21.726562 16.171875 21.734375 C 16.105469 21.800781 15.78125 20.542969 15.742188 20.078125 C 15.734375 19.996094 15.726562 19.882812 15.71875 19.820312 C 15.710938 19.761719 15.714844 19.710938 15.722656 19.710938 C 15.726562 19.710938 15.777344 19.761719 15.832031 19.820312 M 12.058594 21.164062 C 12.066406 21.59375 12.0625 21.941406 12.054688 21.941406 C 12.03125 21.941406 11.390625 20.972656 11.390625 20.9375 C 11.390625 20.914062 11.433594 20.84375 11.609375 20.566406 C 11.65625 20.492188 11.746094 20.351562 11.804688 20.253906 C 11.863281 20.15625 11.9375 20.039062 11.96875 19.996094 L 12.023438 19.914062 L 12.035156 20.152344 C 12.042969 20.28125 12.054688 20.738281 12.058594 21.164062 M 24.847656 22.230469 C 25.078125 22.710938 25.074219 22.683594 25 23.222656 C 24.984375 23.351562 24.96875 23.523438 24.96875 23.609375 C 24.96875 23.796875 24.910156 24.300781 24.882812 24.324219 C 24.84375 24.367188 24.699219 23.761719 24.625 23.246094 C 24.558594 22.808594 24.59375 21.898438 24.675781 21.902344 C 24.683594 21.902344 24.757812 22.046875 24.847656 22.230469 M 21.257812 22.640625 C 21.273438 23.140625 21.257812 23.691406 21.230469 23.691406 C 21.21875 23.691406 21.191406 23.65625 20.976562 23.339844 L 20.855469 23.160156 L 20.90625 22.941406 C 20.992188 22.566406 21.1875 22.058594 21.226562 22.101562 C 21.238281 22.109375 21.25 22.355469 21.257812 22.640625 "/>
</g>
</svg>
