<?xml version="1.0" encoding="UTF-8"?>
<svg xmlns="http://www.w3.org/2000/svg" xmlns:xlink="http://www.w3.org/1999/xlink" width="57px" height="50px" viewBox="0 0 57 50" version="1.1">
<g id="surface1">
<path style=" stroke:none;fill-rule:evenodd;fill:rgb(88.627452%,2.352941%,7.450981%);fill-opacity:1;" d="M 1.90625 49.996094 C 1.222656 49.996094 0.582031 49.851562 0.261719 49.261719 C 0.0078125 48.789062 0.0429688 48.230469 0.300781 47.769531 L 27.066406 1.019531 C 27.382812 0.464844 27.890625 0.0117188 28.546875 0.0195312 C 29.128906 0.0273438 29.636719 0.382812 29.925781 0.882812 L 56.699219 47.664062 C 56.945312 48.09375 57.148438 48.769531 56.851562 49.296875 C 56.578125 49.773438 56.039062 50 55.503906 50 Z M 1.90625 49.996094 "/>
<path style=" stroke:none;fill-rule:evenodd;fill:rgb(100%,100%,100%);fill-opacity:1;" d="M 9.4375 43.933594 L 47.734375 43.945312 L 28.570312 10.578125 Z M 9.4375 43.933594 "/>
<path style=" stroke:none;fill-rule:evenodd;fill:rgb(11.372549%,11.372549%,10.588235%);fill-opacity:1;" d="M 47.640625 43.894531 L 9.390625 43.90625 L 38.097656 27.257812 Z M 47.640625 43.894531 "/>
<path style=" stroke:none;fill-rule:evenodd;fill:rgb(11.372549%,11.372549%,10.588235%);fill-opacity:1;" d="M 35.457031 25.050781 C 35.210938 24.621094 34.945312 24.359375 34.660156 24.261719 C 34.375 24.160156 34.0625 24.214844 33.734375 24.40625 C 33.40625 24.59375 33.203125 24.84375 33.148438 25.140625 C 33.09375 25.433594 33.183594 25.796875 33.429688 26.226562 C 33.671875 26.652344 33.941406 26.910156 34.222656 27.011719 C 34.507812 27.113281 34.820312 27.058594 35.148438 26.867188 C 35.480469 26.675781 35.683594 26.429688 35.738281 26.132812 C 35.792969 25.835938 35.699219 25.476562 35.457031 25.050781 M 32.941406 28.050781 L 32.664062 21.328125 L 32.015625 21.703125 L 32.296875 28.425781 Z M 34.082031 25.847656 C 33.949219 25.617188 33.871094 25.425781 33.839844 25.269531 C 33.804688 25.121094 33.867188 24.996094 34.019531 24.90625 C 34.175781 24.816406 34.316406 24.824219 34.433594 24.921875 C 34.546875 25.035156 34.671875 25.199219 34.804688 25.425781 C 34.933594 25.65625 35.015625 25.847656 35.050781 25.992188 C 35.082031 26.152344 35.015625 26.277344 34.859375 26.367188 C 34.707031 26.457031 34.570312 26.449219 34.453125 26.335938 C 34.339844 26.238281 34.214844 26.074219 34.082031 25.847656 Z M 31.527344 23.53125 C 31.28125 23.101562 31.015625 22.84375 30.734375 22.742188 C 30.449219 22.644531 30.140625 22.695312 29.808594 22.886719 C 29.476562 23.078125 29.277344 23.324219 29.222656 23.621094 C 29.167969 23.917969 29.257812 24.277344 29.503906 24.707031 C 29.75 25.132812 30.015625 25.394531 30.296875 25.496094 C 30.582031 25.59375 30.894531 25.542969 31.226562 25.351562 C 31.554688 25.160156 31.753906 24.914062 31.8125 24.617188 C 31.863281 24.320312 31.777344 23.957031 31.527344 23.53125 Z M 30.15625 24.328125 C 30.023438 24.097656 29.945312 23.90625 29.914062 23.75 C 29.878906 23.601562 29.945312 23.476562 30.097656 23.386719 C 30.25 23.300781 30.394531 23.304688 30.507812 23.40625 C 30.621094 23.515625 30.742188 23.679688 30.875 23.910156 C 31.007812 24.136719 31.085938 24.328125 31.121094 24.476562 C 31.152344 24.632812 31.089844 24.761719 30.9375 24.851562 C 30.785156 24.9375 30.640625 24.929688 30.527344 24.820312 C 30.410156 24.71875 30.289062 24.554688 30.15625 24.328125 Z M 29.601562 26.558594 C 29.324219 26.078125 29.066406 25.679688 28.820312 25.371094 C 28.574219 25.058594 28.34375 24.828125 28.117188 24.671875 C 27.886719 24.523438 27.664062 24.445312 27.441406 24.449219 C 27.214844 24.449219 26.992188 24.519531 26.761719 24.65625 C 26.515625 24.796875 26.34375 24.957031 26.226562 25.152344 C 26.117188 25.34375 26.070312 25.574219 26.09375 25.847656 C 26.105469 26.128906 26.1875 26.441406 26.332031 26.8125 C 26.476562 27.179688 26.691406 27.605469 26.964844 28.085938 C 27.242188 28.566406 27.503906 28.964844 27.742188 29.269531 C 27.988281 29.578125 28.21875 29.808594 28.453125 29.957031 C 28.679688 30.109375 28.894531 30.179688 29.117188 30.179688 C 29.339844 30.175781 29.566406 30.105469 29.808594 29.964844 C 30.042969 29.828125 30.214844 29.667969 30.332031 29.476562 C 30.445312 29.28125 30.492188 29.058594 30.480469 28.78125 C 30.460938 28.507812 30.375 28.191406 30.230469 27.824219 C 30.089844 27.460938 29.875 27.035156 29.601562 26.558594 Z M 28.84375 26.996094 C 29.097656 27.429688 29.289062 27.777344 29.417969 28.058594 C 29.550781 28.34375 29.644531 28.566406 29.683594 28.742188 C 29.726562 28.925781 29.722656 29.050781 29.6875 29.140625 C 29.644531 29.234375 29.570312 29.316406 29.472656 29.375 C 29.367188 29.4375 29.261719 29.457031 29.160156 29.429688 C 29.050781 29.414062 28.929688 29.339844 28.796875 29.207031 C 28.660156 29.078125 28.511719 28.882812 28.335938 28.625 C 28.164062 28.382812 27.964844 28.050781 27.730469 27.644531 C 27.492188 27.230469 27.304688 26.886719 27.167969 26.597656 C 27.039062 26.320312 26.945312 26.089844 26.898438 25.910156 C 26.855469 25.730469 26.855469 25.589844 26.890625 25.484375 C 26.921875 25.386719 26.992188 25.304688 27.097656 25.246094 C 27.191406 25.191406 27.296875 25.171875 27.398438 25.175781 C 27.496094 25.191406 27.613281 25.261719 27.746094 25.390625 C 27.878906 25.519531 28.035156 25.707031 28.210938 25.957031 C 28.386719 26.21875 28.59375 26.558594 28.84375 26.996094 Z M 24.375 27.273438 L 26.851562 31.582031 L 27.597656 31.148438 L 24.632812 25.988281 L 23.855469 26.4375 L 23.265625 28 L 24.003906 28.265625 Z M 24.375 27.273438 "/>
</g>
</svg>
