<?xml version="1.0" encoding="UTF-8"?>
<svg xmlns="http://www.w3.org/2000/svg" xmlns:xlink="http://www.w3.org/1999/xlink" width="50px" height="50px" viewBox="0 0 50 50" version="1.1">
<g id="surface1">
<path style=" stroke:none;fill-rule:evenodd;fill:rgb(100%,100%,100%);fill-opacity:1;" d="M 48.957031 25 C 48.957031 38.230469 38.230469 48.957031 25 48.957031 C 11.769531 48.957031 1.042969 38.230469 1.042969 25 C 1.042969 11.769531 11.769531 1.042969 25 1.042969 C 38.230469 1.042969 48.957031 11.769531 48.957031 25 Z M 48.957031 25 "/>
<path style=" stroke:none;fill-rule:nonzero;fill:rgb(0%,0%,0%);fill-opacity:1;" d="M 19.566406 30.765625 L 21.648438 30.765625 L 21.648438 32.84375 L 19.566406 34.988281 L 19.566406 30.765625 "/>
<path style=" stroke:none;fill-rule:nonzero;fill:rgb(0%,0%,0%);fill-opacity:1;" d="M 25.839844 18.3125 C 24.160156 18.3125 22.6875 19.515625 22.6875 21.488281 L 22.6875 24.566406 C 22.6875 26.539062 24.160156 27.742188 25.839844 27.742188 C 26.203125 27.742188 26.570312 27.613281 26.878906 27.433594 L 26.878906 30.160156 C 26.878906 30.761719 26.441406 31.21875 25.839844 31.21875 C 25.238281 31.21875 24.804688 30.761719 24.804688 30.160156 L 22.6875 30.160156 C 22.6875 32.132812 24.160156 33.335938 25.839844 33.335938 C 27.523438 33.335938 28.996094 32.132812 28.996094 30.160156 L 28.996094 21.488281 C 28.996094 19.515625 27.523438 18.3125 25.839844 18.3125 Z M 25.839844 25.625 C 25.238281 25.625 24.804688 25.167969 24.804688 24.566406 L 24.804688 21.488281 C 24.804688 20.886719 25.238281 20.429688 25.839844 20.429688 C 26.441406 20.429688 26.878906 20.886719 26.878906 21.488281 L 26.878906 24.566406 C 26.878906 25.167969 26.441406 25.625 25.839844 25.625 "/>
<path style=" stroke:none;fill-rule:nonzero;fill:rgb(0%,0%,0%);fill-opacity:1;" d="M 25 13.359375 L 31.296875 7.0625 C 31.296875 7.0625 28.066406 5.964844 25 5.964844 C 21.933594 5.964844 18.703125 7.0625 18.703125 7.0625 L 25 13.359375 "/>
<path style=" stroke:none;fill-rule:nonzero;fill:rgb(0%,0%,0%);fill-opacity:1;" d="M 25.011719 36.632812 L 31.308594 42.929688 C 31.308594 42.929688 28.078125 44.027344 25.011719 44.027344 C 21.945312 44.027344 18.714844 42.929688 18.714844 42.929688 L 25.011719 36.632812 "/>
<path style=" stroke:none;fill-rule:nonzero;fill:rgb(93.333334%,10.980392%,13.725491%);fill-opacity:1;" d="M 25 50 C 11.195312 50 0 38.808594 0 25 C 0 11.191406 11.195312 0 25 0 C 38.804688 0 50 11.191406 50 25 C 50 38.808594 38.804688 50 25 50 Z M 43.535156 25 C 43.535156 14.761719 35.238281 6.460938 25 6.460938 C 14.761719 6.460938 6.460938 14.761719 6.460938 25 C 6.460938 35.238281 14.761719 43.539062 25 43.539062 C 35.238281 43.539062 43.535156 35.238281 43.535156 25 "/>
<path style=" stroke:none;fill-rule:nonzero;fill:rgb(0%,0%,0%);fill-opacity:1;" d="M 30.332031 23.855469 L 32.199219 23.855469 L 32.199219 24.753906 L 32.234375 24.753906 C 32.617188 24.167969 33.132812 23.746094 33.992188 23.746094 C 34.796875 23.746094 35.324219 24.222656 35.65625 24.679688 C 36.113281 24.167969 36.605469 23.746094 37.59375 23.746094 C 38.527344 23.746094 39.625 24.351562 39.625 26.015625 L 39.625 33.132812 L 37.761719 33.132812 L 37.761719 26.710938 C 37.761719 26.03125 37.429688 25.613281 36.84375 25.613281 C 36.148438 25.613281 35.910156 26.070312 35.910156 26.894531 L 35.910156 33.132812 L 34.046875 33.132812 L 34.046875 26.710938 C 34.046875 26.03125 33.714844 25.613281 33.132812 25.613281 C 32.4375 25.613281 32.199219 26.070312 32.199219 26.894531 L 32.199219 33.132812 L 30.332031 33.132812 L 30.332031 23.855469 "/>
<path style=" stroke:none;fill-rule:nonzero;fill:rgb(0%,0%,0%);fill-opacity:1;" d="M 13.132812 30.59375 L 17.777344 20.476562 L 17.773438 20.46875 C 17.964844 20.015625 18.074219 19.519531 18.074219 18.996094 C 18.074219 16.917969 16.390625 15.234375 14.3125 15.234375 C 12.238281 15.234375 10.554688 16.917969 10.554688 18.996094 L 13.042969 18.996094 C 13.042969 18.292969 13.613281 17.726562 14.3125 17.726562 C 15.015625 17.726562 15.585938 18.292969 15.585938 18.996094 C 15.585938 18.996094 15.695312 19.375 15.503906 19.867188 L 10.613281 30.59375 L 10.613281 33.117188 L 18.230469 33.117188 L 18.230469 30.59375 L 13.132812 30.59375 "/>
</g>
</svg>
