<?xml version="1.0" encoding="UTF-8"?>
<svg xmlns="http://www.w3.org/2000/svg" xmlns:xlink="http://www.w3.org/1999/xlink" width="50px" height="50px" viewBox="0 0 50 50" version="1.1">
<g id="surface1">
<path style=" stroke:none;fill-rule:evenodd;fill:rgb(92.54902%,10.980392%,14.117648%);fill-opacity:1;" d="M 25.082031 0.164062 C 38.839844 0.164062 50 11.320312 50 25.082031 C 50 38.84375 38.839844 50 25.082031 50 C 11.320312 50 0.164062 38.84375 0.164062 25.082031 C 0.164062 11.320312 11.320312 0.164062 25.082031 0.164062 "/>
<path style=" stroke:none;fill-rule:evenodd;fill:rgb(100%,100%,100%);fill-opacity:1;" d="M 25.082031 6.523438 C 14.835938 6.523438 6.523438 14.835938 6.523438 25.082031 C 6.523438 35.328125 14.835938 43.636719 25.082031 43.636719 C 35.328125 43.636719 43.636719 35.328125 43.636719 25.082031 C 43.636719 14.835938 35.328125 6.523438 25.082031 6.523438 "/>
<path style=" stroke:none;fill-rule:evenodd;fill:rgb(13.725491%,12.156863%,12.54902%);fill-opacity:1;" d="M 19.988281 37.355469 L 19.710938 37.945312 C 19.628906 38.113281 19.542969 38.277344 19.453125 38.441406 C 19.390625 38.550781 19.328125 38.65625 19.265625 38.761719 C 19.066406 38.726562 18.871094 38.683594 18.679688 38.632812 C 18.449219 38.578125 18.21875 38.511719 17.992188 38.433594 L 18.089844 38.046875 L 17.035156 38.15625 C 16.628906 37.992188 16.234375 37.796875 15.859375 37.574219 C 15.527344 37.382812 15.210938 37.167969 14.910156 36.9375 L 15.21875 36.507812 C 15.34375 36.566406 15.472656 36.613281 15.609375 36.644531 C 15.726562 36.675781 15.851562 36.695312 15.976562 36.699219 C 16.117188 36.707031 16.257812 36.683594 16.398438 36.667969 C 16.613281 36.644531 16.828125 36.609375 17.046875 36.578125 C 17.21875 36.5625 17.390625 36.539062 17.566406 36.511719 C 17.734375 36.488281 17.902344 36.460938 18.070312 36.425781 L 17.769531 36.148438 C 17.886719 35.878906 18.003906 35.609375 18.128906 35.34375 C 18.351562 34.925781 18.566406 34.5 18.773438 34.070312 C 18.878906 33.847656 18.980469 33.625 19.085938 33.398438 C 19.300781 32.921875 19.484375 32.425781 19.660156 31.933594 C 19.765625 31.636719 19.90625 31.347656 20.03125 31.054688 C 20.152344 30.769531 20.285156 30.492188 20.394531 30.199219 C 20.453125 30.039062 20.5 29.875 20.558594 29.714844 C 20.667969 29.394531 20.773438 29.078125 20.902344 28.765625 C 21.046875 28.414062 21.21875 28.070312 21.386719 27.730469 C 21.667969 27.167969 21.96875 26.617188 22.285156 26.070312 C 22.484375 25.726562 22.691406 25.390625 22.90625 25.050781 L 22.910156 25.035156 L 22.59375 22.925781 C 22.441406 22.0625 22.324219 21.191406 22.246094 20.316406 C 22.214844 19.984375 22.1875 19.652344 22.167969 19.320312 L 22.175781 19.3125 C 22.109375 19.390625 22.039062 19.464844 21.972656 19.539062 C 21.839844 19.671875 21.703125 19.800781 21.566406 19.925781 C 21.433594 20.054688 21.300781 20.175781 21.164062 20.296875 C 20.972656 20.46875 20.777344 20.625 20.585938 20.789062 L 20.074219 21.226562 C 19.953125 21.328125 19.832031 21.433594 19.710938 21.53125 C 19.527344 21.675781 19.339844 21.8125 19.15625 21.953125 C 19.023438 22.050781 18.890625 22.148438 18.765625 22.253906 C 18.664062 22.332031 18.566406 22.410156 18.46875 22.492188 L 18.101562 22.335938 L 17.199219 22.871094 L 17.367188 23.222656 C 17.246094 23.355469 17.105469 23.464844 16.953125 23.546875 C 16.769531 23.644531 16.578125 23.71875 16.371094 23.722656 C 16.21875 23.730469 16.066406 23.71875 15.925781 23.65625 C 15.828125 23.613281 15.742188 23.542969 15.660156 23.472656 C 15.550781 23.382812 15.433594 23.292969 15.378906 23.160156 C 15.339844 23.066406 15.332031 22.964844 15.335938 22.867188 C 15.339844 22.722656 15.375 22.578125 15.457031 22.453125 C 15.542969 22.324219 15.691406 22.261719 15.820312 22.175781 C 16.039062 22.035156 16.28125 21.929688 16.527344 21.832031 C 16.695312 21.761719 16.882812 21.742188 17.046875 21.652344 C 17.078125 21.632812 17.113281 21.625 17.140625 21.59375 C 17.175781 21.558594 17.191406 21.507812 17.195312 21.457031 L 17.207031 21.273438 L 19.757812 19.21875 L 20.007812 18.707031 C 20.167969 18.375 20.320312 18.039062 20.492188 17.714844 C 20.671875 17.371094 20.871094 17.03125 21.066406 16.695312 C 21.269531 16.355469 21.4375 15.992188 21.691406 15.6875 C 21.851562 15.488281 22.035156 15.304688 22.230469 15.140625 C 22.429688 14.996094 22.628906 14.855469 22.839844 14.726562 C 22.9375 14.664062 23.035156 14.605469 23.136719 14.546875 L 23.074219 14.277344 C 23.03125 14.285156 22.988281 14.289062 22.945312 14.292969 C 22.898438 14.296875 22.851562 14.300781 22.808594 14.289062 C 22.777344 14.28125 22.746094 14.269531 22.71875 14.25 C 22.691406 14.226562 22.675781 14.195312 22.65625 14.167969 C 22.617188 14.082031 22.582031 13.996094 22.546875 13.910156 C 22.5 13.789062 22.457031 13.667969 22.421875 13.539062 L 22.007812 13.585938 L 22.082031 12.789062 L 21.894531 12.703125 L 21.90625 12.265625 L 21.113281 12.269531 L 21.867188 11.492188 C 21.886719 11.292969 21.914062 11.09375 21.953125 10.898438 C 21.980469 10.78125 22.007812 10.667969 22.03125 10.550781 C 22.070312 10.367188 22.101562 10.179688 22.132812 9.988281 C 22.480469 9.921875 22.835938 9.882812 23.1875 9.863281 C 23.402344 9.855469 23.613281 9.851562 23.832031 9.855469 C 24.117188 9.859375 24.402344 9.875 24.6875 9.898438 L 24.785156 10.242188 L 24.855469 10.542969 L 24.980469 10.914062 L 25.503906 10.925781 C 25.53125 11.042969 25.550781 11.15625 25.566406 11.277344 C 25.578125 11.371094 25.585938 11.464844 25.59375 11.558594 L 25.125 11.730469 C 25.128906 11.875 25.128906 12.019531 25.121094 12.167969 C 25.117188 12.222656 25.128906 12.28125 25.105469 12.332031 C 25.082031 12.367188 25.054688 12.402344 25.027344 12.433594 C 25 12.464844 24.96875 12.488281 24.941406 12.511719 L 25.109375 13.652344 C 25.414062 13.785156 25.722656 13.894531 26.035156 13.992188 C 26.300781 14.074219 26.570312 14.132812 26.835938 14.203125 C 26.992188 14.246094 27.148438 14.273438 27.296875 14.335938 C 27.390625 14.375 27.484375 14.417969 27.574219 14.476562 C 27.675781 14.542969 27.765625 14.628906 27.859375 14.710938 C 27.988281 14.824219 28.101562 14.960938 28.238281 15.070312 C 28.324219 15.144531 28.414062 15.207031 28.503906 15.277344 C 28.625 15.367188 28.75 15.453125 28.867188 15.542969 C 29.308594 15.976562 29.738281 16.421875 30.164062 16.875 C 30.542969 17.289062 30.914062 17.710938 31.28125 18.140625 C 31.289062 18.214844 31.296875 18.289062 31.300781 18.363281 C 31.316406 18.582031 31.289062 18.800781 31.289062 19.015625 C 31.285156 19.277344 31.300781 19.539062 31.308594 19.800781 C 31.3125 20.0625 31.324219 20.320312 31.328125 20.582031 C 31.328125 20.75 31.320312 20.921875 31.328125 21.089844 L 31.4375 21.929688 L 31.519531 22.5 L 31.160156 22.621094 C 31.230469 22.835938 31.289062 23.054688 31.328125 23.273438 C 31.363281 23.46875 31.417969 23.664062 31.398438 23.863281 C 31.382812 24.015625 31.324219 24.160156 31.273438 24.300781 C 31.1875 24.535156 31.101562 24.769531 30.945312 24.964844 C 30.8125 25.128906 30.660156 25.277344 30.472656 25.371094 C 30.378906 25.421875 30.292969 25.507812 30.183594 25.480469 C 30.113281 25.464844 30.054688 25.425781 30.019531 25.363281 C 29.972656 25.296875 29.980469 25.210938 29.988281 25.132812 C 29.992188 25.046875 30.039062 24.96875 30.0625 24.882812 C 30.089844 24.792969 30.125 24.703125 30.140625 24.609375 C 30.164062 24.507812 30.167969 24.402344 30.148438 24.300781 C 30.128906 24.21875 30.097656 24.136719 30.046875 24.066406 C 30.066406 24.214844 30.015625 24.355469 29.910156 24.453125 C 29.871094 24.488281 29.835938 24.550781 29.78125 24.535156 C 29.742188 24.523438 29.722656 24.488281 29.707031 24.457031 C 29.65625 24.378906 29.691406 24.28125 29.691406 24.191406 C 29.6875 24.046875 29.691406 23.902344 29.714844 23.757812 C 29.738281 23.605469 29.792969 23.460938 29.832031 23.3125 C 29.886719 23.175781 29.921875 23.027344 29.945312 22.878906 C 29.964844 22.738281 29.972656 22.59375 29.96875 22.449219 L 29.53125 22.371094 C 29.550781 22.089844 29.566406 21.804688 29.570312 21.519531 C 29.578125 21.082031 29.570312 20.644531 29.539062 20.207031 C 29.5 19.6875 29.433594 19.171875 29.335938 18.65625 C 29.085938 18.484375 28.832031 18.320312 28.570312 18.167969 C 28.269531 17.996094 27.964844 17.835938 27.652344 17.691406 L 27.5625 20.785156 L 29.082031 25.222656 L 28.703125 25.4375 C 28.761719 25.820312 28.832031 26.199219 28.910156 26.578125 C 28.996094 27 29.097656 27.414062 29.203125 27.824219 C 29.292969 28.175781 29.386719 28.523438 29.492188 28.867188 C 29.554688 29.066406 29.609375 29.269531 29.6875 29.46875 C 29.746094 29.621094 29.808594 29.769531 29.878906 29.917969 C 29.988281 30.167969 30.117188 30.410156 30.25 30.648438 C 30.4375 30.992188 30.640625 31.332031 30.855469 31.660156 C 31.109375 32.050781 31.386719 32.429688 31.679688 32.792969 L 32.152344 33.449219 C 32.339844 33.742188 32.53125 34.035156 32.726562 34.324219 C 32.9375 34.640625 33.152344 34.953125 33.375 35.261719 L 33.0625 35.601562 L 32.714844 35.972656 C 32.789062 36.089844 32.855469 36.214844 32.914062 36.34375 L 33.0625 36.765625 L 33.285156 37.382812 L 32.886719 38.003906 L 32.488281 37.902344 C 32.433594 38.125 32.363281 38.339844 32.28125 38.550781 C 32.1875 38.777344 32.082031 38.992188 31.964844 39.199219 C 31.839844 39.222656 31.71875 39.238281 31.597656 39.25 C 31.324219 39.28125 31.050781 39.300781 30.777344 39.300781 L 29.710938 39.308594 L 29.714844 38.859375 C 29.773438 38.851562 29.832031 38.839844 29.890625 38.828125 C 30.015625 38.808594 30.136719 38.777344 30.257812 38.734375 C 30.351562 38.699219 30.445312 38.660156 30.535156 38.609375 L 31.257812 36.78125 L 30.730469 36.796875 C 30.664062 36.671875 30.59375 36.542969 30.523438 36.417969 C 30.390625 36.1875 30.238281 35.972656 30.101562 35.742188 C 30.023438 35.613281 29.953125 35.480469 29.875 35.347656 C 29.777344 35.195312 29.664062 35.050781 29.566406 34.894531 C 29.441406 34.664062 29.3125 34.429688 29.179688 34.203125 C 29.027344 33.933594 28.871094 33.671875 28.707031 33.410156 L 28.292969 32.789062 L 28.191406 32.605469 L 27.9375 32.164062 C 27.835938 31.988281 27.734375 31.8125 27.636719 31.632812 C 27.46875 31.324219 27.3125 31.007812 27.148438 30.699219 C 26.855469 30.164062 26.527344 29.644531 26.238281 29.105469 L 25.660156 27.960938 L 25.386719 27.410156 C 25.15625 27.734375 24.929688 28.054688 24.707031 28.378906 C 24.382812 28.855469 24.050781 29.324219 23.761719 29.824219 C 23.539062 30.203125 23.332031 30.59375 23.144531 30.992188 C 22.980469 31.351562 22.832031 31.710938 22.691406 32.078125 C 22.601562 32.300781 22.519531 32.523438 22.445312 32.746094 L 22.15625 33.394531 C 22.109375 33.523438 22.058594 33.648438 22.007812 33.773438 C 21.90625 34.023438 21.773438 34.261719 21.675781 34.511719 C 21.582031 34.746094 21.511719 34.988281 21.429688 35.230469 L 21.207031 35.90625 C 21.074219 36.257812 20.957031 36.617188 20.859375 36.980469 C 20.804688 37.167969 20.757812 37.355469 20.714844 37.542969 C 20.585938 37.523438 20.464844 37.5 20.34375 37.46875 C 20.21875 37.4375 20.101562 37.398438 19.988281 37.355469 "/>
</g>
</svg>
