<?xml version="1.0" encoding="UTF-8"?>
<svg xmlns="http://www.w3.org/2000/svg" xmlns:xlink="http://www.w3.org/1999/xlink" width="50px" height="50px" viewBox="0 0 50 50" version="1.1">
<g id="surface1">
<path style=" stroke:none;fill-rule:nonzero;fill:rgb(93.333334%,10.980392%,13.725491%);fill-opacity:1;" d="M 0 25 C 0 11.191406 11.191406 0 25 0 C 38.808594 0 50 11.191406 50 25 C 50 38.808594 38.808594 50 25 50 C 11.191406 50 0 38.808594 0 25 Z M 0 25 "/>
<path style=" stroke:none;fill-rule:nonzero;fill:rgb(100%,100%,100%);fill-opacity:1;" d="M 25 43.539062 C 35.238281 43.539062 43.539062 35.238281 43.539062 25 C 43.539062 14.761719 35.238281 6.460938 25 6.460938 C 14.761719 6.460938 6.460938 14.761719 6.460938 25 C 6.460938 35.238281 14.761719 43.539062 25 43.539062 "/>
<path style=" stroke:none;fill-rule:nonzero;fill:rgb(0%,0%,0%);fill-opacity:1;" d="M 26.464844 33.773438 L 27.25 33.773438 L 27.25 34.148438 L 27.265625 34.148438 C 27.425781 33.902344 27.640625 33.726562 28 33.726562 C 28.339844 33.726562 28.5625 33.925781 28.699219 34.117188 C 28.890625 33.902344 29.101562 33.726562 29.515625 33.726562 C 29.90625 33.726562 30.367188 33.980469 30.367188 34.679688 L 30.367188 37.667969 L 29.582031 37.667969 L 29.582031 34.96875 C 29.582031 34.6875 29.445312 34.507812 29.199219 34.507812 C 28.90625 34.507812 28.808594 34.703125 28.808594 35.046875 L 28.808594 37.667969 L 28.023438 37.667969 L 28.023438 34.96875 C 28.023438 34.6875 27.886719 34.507812 27.640625 34.507812 C 27.347656 34.507812 27.25 34.703125 27.25 35.046875 L 27.25 37.667969 L 26.464844 37.667969 L 26.464844 33.773438 "/>
<path style=" stroke:none;fill-rule:nonzero;fill:rgb(0%,0%,0%);fill-opacity:1;" d="M 20.625 31.257812 L 19.5 32.277344 L 19.5 30.855469 L 20.625 29.875 L 21.75 29.875 L 21.75 37.660156 L 20.625 37.660156 L 20.625 31.257812 "/>
<path style=" stroke:none;fill-rule:nonzero;fill:rgb(0%,0%,0%);fill-opacity:1;" d="M 22.46875 31.460938 C 22.46875 30.410156 23.25 29.769531 24.144531 29.769531 C 25.042969 29.769531 25.824219 30.410156 25.824219 31.460938 L 25.824219 36.074219 C 25.824219 37.125 25.042969 37.765625 24.144531 37.765625 C 23.25 37.765625 22.46875 37.125 22.46875 36.074219 Z M 23.59375 36.074219 C 23.59375 36.394531 23.824219 36.640625 24.144531 36.640625 C 24.464844 36.640625 24.699219 36.394531 24.699219 36.074219 L 24.699219 31.460938 C 24.699219 31.136719 24.464844 30.894531 24.144531 30.894531 C 23.824219 30.894531 23.59375 31.136719 23.59375 31.460938 L 23.59375 36.074219 "/>
<path style=" stroke:none;fill-rule:nonzero;fill:rgb(0%,0%,0%);fill-opacity:1;" d="M 19.15625 32.238281 L 15.140625 32.238281 L 15.140625 30.40625 L 10.855469 33.769531 L 15.140625 37.132812 L 15.140625 35.304688 L 19.15625 35.304688 L 19.15625 32.238281 "/>
<path style=" stroke:none;fill-rule:nonzero;fill:rgb(0%,0%,0%);fill-opacity:1;" d="M 30.777344 35.304688 L 34.792969 35.304688 L 34.792969 37.132812 L 39.078125 33.769531 L 34.792969 30.40625 L 34.792969 32.238281 L 30.777344 32.238281 L 30.777344 35.304688 "/>
<path style=" stroke:none;fill-rule:nonzero;fill:rgb(0%,0%,0%);fill-opacity:1;" d="M 37.164062 13.472656 L 19.535156 13.472656 C 19.039062 13.472656 18.4375 13.875 18.4375 14.367188 L 18.429688 14.386719 L 15.273438 14.386719 C 15.199219 14.386719 14.53125 14.394531 14.066406 14.742188 C 13.609375 15.085938 13.4375 15.574219 13.417969 15.628906 C 13.421875 15.625 12.816406 17.335938 12.53125 18.140625 L 11.925781 18.140625 C 11.433594 18.140625 11.035156 18.539062 11.035156 19.035156 L 11.035156 23.839844 L 10.488281 23.839844 C 10.183594 23.839844 9.9375 24.085938 9.9375 24.390625 C 9.9375 24.695312 10.183594 24.941406 10.488281 24.941406 L 11.964844 24.941406 C 11.984375 26.402344 13.175781 27.585938 14.640625 27.585938 C 16.109375 27.585938 17.296875 26.402344 17.316406 24.941406 L 29.871094 24.941406 C 29.890625 26.402344 31.078125 27.585938 32.546875 27.585938 C 34.011719 27.585938 35.203125 26.402344 35.21875 24.941406 L 37.164062 24.941406 Z M 14.238281 15.910156 C 14.242188 15.902344 14.34375 15.617188 14.585938 15.4375 C 14.78125 15.289062 15.160156 15.253906 15.273438 15.25 C 15.273438 15.25 17.015625 15.25 18.214844 15.25 L 17.496094 18.140625 L 13.449219 18.140625 L 14.238281 15.910156 "/>
</g>
</svg>
