<?xml version="1.0" encoding="UTF-8"?>
<svg xmlns="http://www.w3.org/2000/svg" xmlns:xlink="http://www.w3.org/1999/xlink" width="50px" height="50px" viewBox="0 0 50 50" version="1.1">
<g id="surface1">
<path style=" stroke:none;fill-rule:nonzero;fill:rgb(93.333334%,10.980392%,13.725491%);fill-opacity:1;" d="M 0 25 C 0 11.195312 11.191406 0 25 0 C 38.808594 0 50 11.195312 50 25 C 50 38.804688 38.808594 50 25 50 C 11.191406 50 0 38.804688 0 25 Z M 0 25 "/>
<path style=" stroke:none;fill-rule:nonzero;fill:rgb(100%,100%,100%);fill-opacity:1;" d="M 25 43.535156 C 35.238281 43.535156 43.539062 35.238281 43.539062 25 C 43.539062 14.761719 35.238281 6.460938 25 6.460938 C 14.761719 6.460938 6.460938 14.761719 6.460938 25 C 6.460938 35.238281 14.761719 43.535156 25 43.535156 "/>
<path style=" stroke:none;fill-rule:nonzero;fill:rgb(0%,0%,0%);fill-opacity:1;" d="M 36.625 28.597656 C 36.984375 28.820312 37.523438 29.539062 37.523438 29.539062 C 37.429688 28.773438 36.894531 28.148438 36.894531 28.148438 C 36.175781 27.609375 36.445312 27.472656 35.863281 25.859375 C 35.277344 24.246094 36.175781 23.660156 34.335938 22.496094 C 33.578125 22.015625 32.78125 21.933594 32.332031 21.933594 C 32.3125 21.910156 32.292969 21.890625 32.273438 21.867188 C 31.160156 20.617188 28.625 20.84375 26.808594 20.96875 C 26.574219 20.46875 26.121094 19.503906 25.925781 19.0625 C 25.65625 18.457031 25.925781 17.671875 26.015625 17.292969 C 26.105469 16.910156 26.21875 16.84375 26.261719 15.585938 C 26.304688 14.394531 25.171875 13.910156 25.0625 13.863281 L 25.140625 13.839844 L 24.917969 13.480469 L 24.640625 13.605469 C 24.769531 13.269531 24.792969 12.863281 24.738281 12.625 C 24.570312 11.910156 24.199219 11.394531 23.472656 11.558594 C 23.101562 11.640625 22.839844 11.957031 22.742188 12.359375 L 22.742188 12.289062 C 22.742188 12.289062 22.695312 12.804688 22.359375 12.960938 C 22.359375 12.960938 22.179688 13.230469 22.359375 13.253906 L 22.734375 13.042969 C 22.738281 13.066406 22.742188 13.089844 22.75 13.113281 C 22.863281 13.578125 23.164062 13.933594 23.519531 14.089844 L 23.257812 14.195312 L 23.355469 14.394531 C 23.339844 14.394531 23.304688 14.417969 23.234375 14.488281 C 23.078125 14.644531 22.425781 15.742188 22.246094 16.082031 C 22.066406 16.417969 22.179688 16.347656 21.867188 16.6875 C 21.605469 16.964844 20.214844 18.1875 19.75 18.59375 C 17.589844 16.578125 17.226562 16.65625 16.347656 16.347656 C 15.601562 16.089844 15.039062 16.324219 14.875 16.410156 C 14.367188 16.1875 14.195312 15.945312 14.195312 15.945312 C 14.195312 15.945312 14.109375 16.246094 14.101562 16.5 C 14.03125 16.460938 13.960938 16.417969 13.902344 16.371094 C 13.566406 16.101562 13.230469 16.125 13.230469 16.125 C 13.230469 16.125 13.074219 16.125 13.207031 16.28125 C 13.34375 16.4375 13.398438 16.621094 13.679688 16.753906 C 14 16.90625 14.019531 17.046875 14 17.242188 C 13.734375 17.550781 13.5 17.902344 13.453125 18.210938 C 13.453125 18.210938 13.410156 20.074219 13.34375 20.566406 C 13.34375 20.566406 13.140625 21.777344 13.027344 22.046875 C 13.027344 22.046875 12.804688 22.25 13.097656 22.472656 C 13.097656 22.472656 13.386719 22.628906 13.703125 22.964844 C 13.703125 22.964844 13.8125 23.035156 14.039062 22.875 C 14.039062 22.875 13.925781 23.035156 14.261719 23.011719 C 14.597656 22.988281 14.847656 22.921875 14.890625 22.539062 C 14.902344 22.453125 14.925781 22.34375 14.957031 22.226562 C 15.402344 21.945312 15.921875 21.777344 16.4375 21.621094 C 16.492188 21.601562 16.546875 21.589844 16.601562 21.574219 C 16.742188 22.023438 16.933594 22.476562 17.15625 22.898438 C 17.648438 23.839844 17.605469 24.378906 17.695312 25.140625 C 17.773438 25.816406 17.75 27.296875 18.734375 27.847656 C 18.4375 28.464844 17.722656 29.886719 17.082031 30.6875 C 17.082031 30.6875 16.75 30.839844 16.902344 31.46875 C 16.902344 31.46875 16.902344 31.46875 16.8125 31.765625 C 16.628906 32.371094 15.867188 34.0625 15.597656 34.390625 C 15.597656 34.390625 15.367188 34.617188 15.609375 34.765625 L 15.527344 35.027344 C 15.527344 35.027344 15.089844 35.484375 15.394531 36.269531 L 16.300781 35.871094 L 16.378906 35.828125 C 16.378906 35.828125 16.296875 35.429688 16.265625 35.214844 C 16.234375 35.027344 16.453125 35.113281 16.183594 34.964844 C 16.054688 34.894531 16.183594 34.726562 16.183594 34.726562 C 16.445312 34.625 16.332031 34.335938 16.332031 34.335938 C 16.78125 33.140625 17.171875 31.824219 17.53125 31.617188 C 17.886719 31.40625 17.890625 31.167969 17.890625 31.167969 C 17.890625 31.167969 17.832031 31.148438 17.917969 31.015625 C 18.003906 30.882812 18.984375 29.921875 19.289062 29.644531 C 19.289062 29.652344 19.507812 29.4375 19.664062 29.164062 C 19.820312 28.878906 19.917969 28.53125 19.917969 28.539062 C 19.921875 28.550781 20.042969 28.644531 20.042969 28.644531 C 19.976562 28.753906 19.953125 29.042969 19.8125 29.25 C 19.621094 29.539062 19.3125 29.75 19.3125 29.757812 C 19.421875 30.257812 19.65625 30.933594 20.09375 31.847656 C 20.09375 31.847656 20.027344 32.140625 20.222656 32.273438 C 20.222656 32.273438 21.476562 34.007812 21.714844 34.488281 C 21.957031 34.964844 21.804688 34.90625 22.046875 34.9375 L 22.402344 35.292969 L 22.484375 35.398438 L 22.683594 35.492188 C 22.683594 35.492188 22.75 36.125 23.542969 36.40625 L 23.832031 35.460938 L 23.851562 35.371094 C 23.851562 35.371094 23.496094 35.175781 23.3125 35.058594 C 23.148438 34.960938 23.359375 34.851562 23.070312 34.957031 C 22.929688 35.007812 22.824219 35.054688 22.824219 35.054688 L 22.628906 34.898438 C 22.628906 34.898438 23.121094 34.726562 22.136719 33.890625 C 21.148438 33.050781 21.117188 32.214844 21.117188 32.214844 C 21.296875 31.886719 20.96875 31.707031 20.96875 31.707031 C 21.09375 31.144531 20.910156 29.761719 20.820312 29.582031 C 20.730469 29.402344 20.820312 29.34375 20.878906 29.195312 C 21.039062 28.792969 21.035156 28.40625 20.972656 28.089844 C 21.988281 28.121094 22.921875 28.089844 23.714844 28 C 23.90625 28.113281 24.136719 28.234375 24.378906 28.328125 C 24.960938 28.550781 24.691406 27.96875 24.691406 27.96875 C 24.691406 27.96875 25.363281 28.101562 25.8125 28.148438 C 26.070312 28.171875 26.046875 27.800781 25.980469 27.476562 C 26.566406 27.339844 26.710938 27.429688 26.710938 27.429688 C 26.667969 27.703125 26.90625 27.949219 26.886719 28.179688 C 26.757812 29.835938 27.234375 30.402344 27.339844 30.71875 C 27.457031 31.078125 27.429688 31.976562 27.429688 31.976562 C 27.039062 32.902344 26.203125 34.335938 26.082031 34.695312 C 25.960938 35.054688 26.113281 35.144531 26.113281 35.144531 L 25.933594 35.355469 C 25.425781 35.5625 25.125 36.519531 25.125 36.519531 L 26.441406 36.339844 C 26.890625 35.355469 26.382812 35.445312 26.382812 35.445312 L 26.5625 35.234375 C 27.039062 35.203125 27.070312 34.875 27.070312 34.875 C 27.277344 33.140625 28.683594 31.527344 28.773438 31.226562 C 28.863281 30.929688 28.714844 30.929688 28.652344 30.777344 C 28.59375 30.628906 28.59375 30.152344 28.59375 30.152344 C 28.355469 28.238281 29.550781 27.667969 29.789062 27.460938 C 30.03125 27.25 29.851562 27.039062 29.851562 27.039062 C 29.550781 26.59375 29.460938 25.816406 29.460938 25.816406 L 29.671875 25.589844 C 29.671875 25.589844 30.164062 28.011719 31.691406 29.089844 C 31.691406 29.089844 33.304688 30.929688 33.886719 32.003906 C 34.46875 33.082031 34.113281 32.5 34.246094 33.082031 C 34.382812 33.664062 34.730469 34.890625 35.007812 35.503906 C 35.292969 36.132812 36.191406 36.847656 36.191406 36.847656 L 36.699219 35.804688 C 36.699219 35.804688 36.578125 35.472656 36.039062 35.59375 L 36.101562 35.324219 C 36.101562 35.324219 35.953125 35.472656 35.652344 35.113281 C 35.652344 35.113281 35.53125 35.414062 35.609375 35 C 35.6875 34.585938 35.382812 34.398438 35.382812 34.398438 C 34.8125 33.441406 34.726562 32.304688 34.726562 32.304688 C 34.785156 32.214844 34.785156 32.003906 34.785156 32.003906 C 34.71875 31.542969 34.664062 30.957031 34.246094 30.269531 C 33.667969 29.328125 33.347656 28.28125 33.347656 28.28125 C 33.429688 27.242188 33.652344 24.242188 32.683594 22.457031 C 34.109375 22.566406 34.410156 23.683594 34.203125 23.976562 C 33.976562 24.289062 33.933594 25.050781 34.203125 25.320312 C 34.46875 25.589844 34.246094 25.90625 34.5625 26.667969 C 34.875 27.429688 35.71875 28.417969 35.71875 28.417969 C 35.636719 28.367188 36.015625 28.730469 35.863281 28.460938 C 35.324219 27.519531 34.738281 25.992188 34.738281 25.992188 C 35.277344 26.667969 35.675781 27.8125 35.90625 28.304688 C 36.199219 28.933594 36.332031 29.113281 36.691406 29.425781 C 37.050781 29.738281 37.339844 30.164062 37.339844 30.164062 C 37.386719 29.808594 37.164062 29.449219 36.9375 29.222656 C 36.714844 29 36.625 28.597656 36.625 28.597656 Z M 14.546875 16.679688 C 14.539062 16.675781 14.53125 16.671875 14.523438 16.671875 L 14.570312 16.660156 C 14.5625 16.664062 14.554688 16.671875 14.546875 16.679688 Z M 16.011719 21.328125 C 15.699219 21.441406 15.382812 21.574219 15.136719 21.800781 C 15.121094 21.808594 15.105469 21.820312 15.089844 21.828125 C 15.257812 21.363281 15.472656 20.902344 15.472656 20.902344 C 15.472656 20.902344 16.117188 20.609375 16.34375 19.929688 C 16.421875 19.683594 16.484375 19.152344 16.394531 20.003906 C 16.355469 20.363281 16.398438 20.765625 16.496094 21.179688 C 16.332031 21.21875 16.171875 21.269531 16.011719 21.328125 Z M 22.148438 20.328125 C 21.921875 20.222656 21.6875 20.09375 21.449219 19.945312 C 22.410156 19.460938 23.03125 18.839844 23.03125 18.839844 C 22.835938 19.28125 22.484375 19.839844 22.148438 20.328125 "/>
</g>
</svg>
