<?xml version="1.0" encoding="UTF-8"?>
<svg xmlns="http://www.w3.org/2000/svg" xmlns:xlink="http://www.w3.org/1999/xlink" width="40px" height="50px" viewBox="0 0 40 50" version="1.1">
<g id="surface1">
<path style=" stroke:none;fill-rule:nonzero;fill:rgb(0%,0%,0%);fill-opacity:1;" d="M 37.9375 50 C 38.488281 50 39.003906 49.800781 39.394531 49.433594 C 39.785156 49.070312 40 48.585938 40 48.070312 L 40 1.929688 C 40 1.414062 39.785156 0.929688 39.394531 0.566406 C 39.003906 0.199219 38.488281 0 37.9375 0 L 2.0625 0 C 0.925781 0 0 0.867188 0 1.929688 L 0 48.070312 C 0 48.585938 0.214844 49.070312 0.605469 49.433594 C 0.996094 49.800781 1.511719 50 2.0625 50 Z M 37.9375 50 "/>
<path style=" stroke:none;fill-rule:nonzero;fill:rgb(100%,100%,100%);fill-opacity:1;" d="M 2.0625 49.570312 C 1.636719 49.570312 1.234375 49.414062 0.929688 49.132812 C 0.628906 48.847656 0.460938 48.472656 0.460938 48.070312 L 0.460938 1.929688 C 0.460938 1.527344 0.628906 1.152344 0.929688 0.867188 C 1.234375 0.585938 1.636719 0.429688 2.0625 0.429688 L 37.9375 0.429688 C 38.363281 0.429688 38.765625 0.585938 39.070312 0.867188 C 39.371094 1.152344 39.539062 1.527344 39.539062 1.929688 L 39.539062 48.070312 C 39.539062 48.898438 38.820312 49.570312 37.9375 49.570312 L 2.0625 49.570312 "/>
<path style=" stroke:none;fill-rule:nonzero;fill:rgb(93.333334%,10.980392%,13.725491%);fill-opacity:1;" d="M 4.222656 17.777344 C 4.222656 9.636719 11.285156 3.035156 20 3.035156 C 28.714844 3.035156 35.777344 9.636719 35.777344 17.777344 C 35.777344 25.917969 28.714844 32.515625 20 32.515625 C 11.285156 32.515625 4.222656 25.917969 4.222656 17.777344 Z M 20 28.707031 C 26.460938 28.707031 31.699219 23.8125 31.699219 17.777344 C 31.699219 11.742188 26.460938 6.847656 20 6.847656 C 13.539062 6.847656 8.300781 11.742188 8.300781 17.777344 C 8.300781 23.8125 13.539062 28.707031 20 28.707031 "/>
<path style=" stroke:none;fill-rule:nonzero;fill:rgb(0%,0%,0%);fill-opacity:1;" d="M 20.746094 21.664062 C 20.746094 23.160156 22.042969 24.371094 23.644531 24.371094 C 25.242188 24.371094 26.539062 23.160156 26.539062 21.664062 L 26.539062 13.839844 C 26.539062 12.347656 25.242188 11.132812 23.644531 11.132812 C 22.042969 11.132812 20.746094 12.347656 20.746094 13.839844 Z M 24.609375 21.664062 C 24.609375 22.164062 24.175781 22.566406 23.644531 22.566406 C 23.109375 22.566406 22.675781 22.164062 22.675781 21.664062 L 22.675781 13.839844 C 22.675781 13.34375 23.109375 12.9375 23.644531 12.9375 C 24.175781 12.9375 24.609375 13.34375 24.609375 13.839844 L 24.609375 21.664062 "/>
<path style=" stroke:none;fill-rule:nonzero;fill:rgb(0%,0%,0%);fill-opacity:1;" d="M 18.691406 17.9375 C 18.578125 17.761719 18.265625 17.648438 18.265625 17.648438 C 18.265625 17.648438 18.484375 17.554688 18.632812 17.40625 C 18.867188 17.171875 18.835938 16.90625 18.835938 16.90625 L 18.835938 13.839844 C 18.835938 12.347656 17.539062 11.132812 15.9375 11.132812 C 14.335938 11.132812 13.039062 12.347656 13.039062 13.839844 L 14.972656 13.839844 C 14.972656 13.34375 15.402344 12.9375 15.9375 12.9375 C 16.472656 12.9375 16.902344 13.34375 16.902344 13.839844 L 16.902344 16.527344 L 16.898438 16.527344 C 16.898438 16.691406 16.753906 16.828125 16.578125 16.828125 L 14.960938 16.828125 L 14.960938 18.515625 L 16.589844 18.515625 C 16.761719 18.519531 16.898438 18.652344 16.898438 18.8125 L 16.902344 18.8125 L 16.902344 21.664062 C 16.902344 22.164062 16.472656 22.566406 15.9375 22.566406 C 15.402344 22.566406 14.972656 22.164062 14.972656 21.664062 L 13.039062 21.664062 C 13.039062 23.160156 14.335938 24.371094 15.9375 24.371094 C 17.539062 24.371094 18.835938 23.160156 18.835938 21.664062 L 18.835938 18.53125 C 18.835938 18.53125 18.863281 18.203125 18.691406 17.9375 "/>
<path style=" stroke:none;fill-rule:nonzero;fill:rgb(0%,0%,0%);fill-opacity:1;" d="M 29.417969 43.539062 L 29.417969 44.496094 C 29.417969 44.992188 29.730469 45.265625 30.242188 45.265625 C 30.882812 45.265625 31.03125 44.925781 31.066406 44.589844 L 32.746094 44.589844 C 32.746094 45.234375 32.5 45.730469 32.070312 46.144531 C 31.625 46.578125 31.015625 46.839844 30.242188 46.839844 C 29.21875 46.839844 28.445312 46.390625 28.046875 45.714844 C 27.816406 45.3125 27.734375 44.757812 27.734375 44.128906 L 27.734375 41.554688 C 27.734375 40.921875 27.816406 40.367188 28.046875 39.96875 C 28.445312 39.289062 29.21875 38.84375 30.242188 38.84375 C 31.789062 38.84375 32.746094 39.90625 32.746094 41.277344 L 32.746094 43.539062 Z M 29.417969 42.203125 L 31.066406 42.203125 L 31.066406 41.308594 C 31.066406 40.722656 30.75 40.414062 30.242188 40.414062 C 29.730469 40.414062 29.417969 40.722656 29.417969 41.308594 L 29.417969 42.203125 "/>
<path style=" stroke:none;fill-rule:nonzero;fill:rgb(0%,0%,0%);fill-opacity:1;" d="M 20.917969 38.972656 L 22.601562 38.972656 L 22.597656 39.355469 L 22.632812 39.355469 C 23.214844 38.8125 23.210938 38.8125 23.984375 38.8125 C 24.828125 38.8125 25.945312 39.386719 25.945312 40.789062 L 25.945312 46.78125 L 24.265625 46.78125 L 24.265625 41.375 C 24.265625 40.804688 23.96875 40.453125 23.441406 40.453125 C 22.8125 40.453125 22.601562 40.835938 22.601562 41.527344 L 22.601562 46.78125 L 20.917969 46.78125 L 20.917969 38.972656 "/>
<path style=" stroke:none;fill-rule:nonzero;fill:rgb(0%,0%,0%);fill-opacity:1;" d="M 14.15625 41.550781 C 14.15625 40.917969 14.238281 40.363281 14.472656 39.964844 C 14.867188 39.285156 15.699219 38.839844 16.71875 38.839844 C 17.742188 38.839844 18.574219 39.285156 18.972656 39.964844 C 19.203125 40.363281 19.285156 40.917969 19.285156 41.550781 L 19.285156 44.125 C 19.285156 44.753906 19.203125 45.308594 18.972656 45.710938 C 18.574219 46.386719 17.742188 46.835938 16.71875 46.835938 C 15.699219 46.835938 14.867188 46.386719 14.472656 45.710938 C 14.238281 45.308594 14.15625 44.753906 14.15625 44.125 Z M 15.839844 44.371094 C 15.839844 44.957031 16.210938 45.265625 16.71875 45.265625 C 17.230469 45.265625 17.601562 44.957031 17.601562 44.371094 L 17.601562 41.304688 C 17.601562 40.71875 17.230469 40.410156 16.71875 40.410156 C 16.210938 40.410156 15.839844 40.71875 15.839844 41.304688 L 15.839844 44.371094 "/>
<path style=" stroke:none;fill-rule:nonzero;fill:rgb(0%,0%,0%);fill-opacity:1;" d="M 7.261719 45.40625 L 11.054688 37.304688 L 7.769531 37.304688 L 7.769531 35.824219 L 12.886719 35.824219 L 12.886719 37.074219 L 9.027344 45.316406 L 13.054688 45.316406 L 13.054688 46.792969 L 7.261719 46.792969 L 7.261719 45.40625 "/>
</g>
</svg>
