<?xml version="1.0" encoding="UTF-8"?>
<svg xmlns="http://www.w3.org/2000/svg" xmlns:xlink="http://www.w3.org/1999/xlink" width="38px" height="50px" viewBox="0 0 38 50" version="1.1">
<g id="surface1">
<path style=" stroke:none;fill-rule:nonzero;fill:rgb(100%,100%,100%);fill-opacity:1;" d="M 1.777344 0 C 0.796875 0 0 0.792969 0 1.773438 L 0 48.226562 C 0 49.207031 0.796875 50 1.777344 50 L 36.222656 50 C 37.203125 50 38 49.207031 38 48.226562 L 38 1.773438 C 38 0.792969 37.203125 0 36.222656 0 Z M 1.777344 0 "/>
<path style=" stroke:none;fill-rule:nonzero;fill:rgb(23.529412%,38.82353%,72.156864%);fill-opacity:1;" d="M 2.964844 1.1875 C 1.984375 1.1875 1.1875 1.980469 1.1875 2.960938 L 1.1875 47.039062 C 1.1875 48.019531 1.984375 48.8125 2.964844 48.8125 L 35.035156 48.8125 C 36.015625 48.8125 36.8125 48.019531 36.8125 47.039062 L 36.8125 2.960938 C 36.8125 1.980469 36.015625 1.1875 35.035156 1.1875 Z M 2.964844 1.1875 "/>
<path style=" stroke:none;fill-rule:nonzero;fill:rgb(100%,100%,100%);fill-opacity:1;" d="M 7.472656 44.265625 C 7.363281 44.238281 7.257812 44.195312 7.148438 44.148438 L 6.957031 44.503906 C 7.09375 44.574219 7.230469 44.625 7.375 44.660156 C 7.519531 44.699219 7.683594 44.714844 7.867188 44.714844 C 8.046875 44.714844 8.203125 44.691406 8.339844 44.644531 C 8.476562 44.597656 8.585938 44.535156 8.675781 44.457031 C 8.765625 44.375 8.832031 44.28125 8.875 44.167969 C 8.921875 44.058594 8.941406 43.9375 8.941406 43.808594 C 8.941406 43.660156 8.917969 43.53125 8.867188 43.425781 C 8.816406 43.320312 8.753906 43.230469 8.675781 43.15625 C 8.597656 43.085938 8.511719 43.023438 8.414062 42.976562 C 8.316406 42.929688 8.21875 42.886719 8.125 42.847656 C 8.054688 42.816406 7.984375 42.785156 7.914062 42.753906 C 7.847656 42.71875 7.785156 42.683594 7.730469 42.640625 C 7.679688 42.601562 7.632812 42.554688 7.601562 42.5 C 7.570312 42.449219 7.554688 42.386719 7.554688 42.316406 C 7.554688 42.183594 7.601562 42.082031 7.695312 42.007812 C 7.789062 41.9375 7.898438 41.902344 8.027344 41.902344 C 8.160156 41.902344 8.277344 41.917969 8.386719 41.949219 C 8.496094 41.980469 8.605469 42.019531 8.714844 42.066406 L 8.894531 41.71875 C 8.859375 41.699219 8.8125 41.679688 8.753906 41.65625 C 8.695312 41.632812 8.628906 41.613281 8.554688 41.59375 C 8.484375 41.574219 8.402344 41.558594 8.320312 41.542969 C 8.234375 41.527344 8.144531 41.519531 8.054688 41.519531 C 7.941406 41.519531 7.820312 41.535156 7.695312 41.5625 C 7.574219 41.589844 7.457031 41.636719 7.355469 41.699219 C 7.253906 41.765625 7.167969 41.847656 7.101562 41.953125 C 7.035156 42.054688 7.003906 42.183594 7.003906 42.335938 C 7.003906 42.46875 7.023438 42.582031 7.070312 42.671875 C 7.113281 42.761719 7.171875 42.839844 7.242188 42.902344 C 7.3125 42.96875 7.390625 43.023438 7.480469 43.0625 C 7.570312 43.105469 7.65625 43.144531 7.75 43.183594 C 7.828125 43.21875 7.90625 43.253906 7.980469 43.289062 C 8.054688 43.324219 8.121094 43.367188 8.179688 43.410156 C 8.238281 43.457031 8.285156 43.515625 8.320312 43.578125 C 8.355469 43.640625 8.375 43.71875 8.375 43.808594 C 8.375 43.992188 8.324219 44.121094 8.222656 44.199219 C 8.117188 44.273438 7.992188 44.3125 7.839844 44.3125 C 7.703125 44.3125 7.582031 44.296875 7.472656 44.265625 M 10.289062 44.324219 C 10.238281 44.308594 10.191406 44.273438 10.148438 44.21875 C 10.109375 44.160156 10.074219 44.082031 10.050781 43.972656 C 10.023438 43.867188 10.011719 43.722656 10.011719 43.542969 C 10.011719 43.363281 10.023438 43.21875 10.042969 43.109375 C 10.066406 43 10.09375 42.914062 10.132812 42.859375 C 10.171875 42.800781 10.21875 42.765625 10.269531 42.746094 C 10.324219 42.730469 10.382812 42.71875 10.449219 42.71875 C 10.519531 42.71875 10.589844 42.726562 10.652344 42.738281 C 10.714844 42.75 10.796875 42.777344 10.898438 42.816406 L 11.058594 42.484375 C 10.976562 42.449219 10.882812 42.417969 10.769531 42.390625 C 10.660156 42.367188 10.542969 42.351562 10.417969 42.351562 C 10.097656 42.351562 9.855469 42.445312 9.699219 42.636719 C 9.542969 42.824219 9.464844 43.125 9.464844 43.542969 C 9.464844 43.789062 9.488281 43.988281 9.539062 44.140625 C 9.585938 44.292969 9.652344 44.414062 9.738281 44.496094 C 9.824219 44.582031 9.921875 44.640625 10.039062 44.667969 C 10.152344 44.699219 10.277344 44.714844 10.410156 44.714844 C 10.539062 44.714844 10.65625 44.703125 10.761719 44.675781 C 10.871094 44.648438 10.96875 44.617188 11.058594 44.582031 L 10.898438 44.257812 C 10.796875 44.292969 10.714844 44.316406 10.652344 44.328125 C 10.589844 44.34375 10.519531 44.347656 10.445312 44.347656 C 10.390625 44.347656 10.335938 44.339844 10.289062 44.324219 M 12.144531 44.671875 L 12.144531 43.199219 C 12.144531 43.105469 12.15625 43.023438 12.1875 42.960938 C 12.214844 42.898438 12.25 42.84375 12.296875 42.804688 C 12.339844 42.765625 12.386719 42.738281 12.445312 42.722656 C 12.5 42.707031 12.554688 42.699219 12.609375 42.699219 C 12.703125 42.699219 12.777344 42.726562 12.832031 42.78125 C 12.890625 42.832031 12.917969 42.9375 12.917969 43.09375 L 12.917969 44.671875 L 13.445312 44.671875 L 13.445312 43.113281 C 13.445312 42.84375 13.382812 42.648438 13.261719 42.53125 C 13.136719 42.410156 12.957031 42.351562 12.722656 42.351562 C 12.484375 42.351562 12.292969 42.441406 12.144531 42.621094 L 12.144531 41.609375 L 11.613281 41.609375 L 11.613281 44.671875 Z M 14.171875 42.398438 L 14.171875 43.953125 C 14.171875 44.207031 14.226562 44.398438 14.339844 44.527344 C 14.453125 44.652344 14.640625 44.714844 14.902344 44.714844 C 15.027344 44.714844 15.140625 44.691406 15.246094 44.640625 C 15.351562 44.589844 15.4375 44.511719 15.507812 44.414062 L 15.597656 44.671875 L 15.964844 44.671875 L 15.964844 42.398438 L 15.4375 42.398438 L 15.4375 43.882812 C 15.4375 44.058594 15.394531 44.183594 15.3125 44.257812 C 15.226562 44.332031 15.125 44.371094 15.003906 44.371094 C 14.898438 44.371094 14.820312 44.339844 14.773438 44.277344 C 14.726562 44.214844 14.699219 44.097656 14.699219 43.933594 L 14.699219 42.398438 Z M 17.515625 44.300781 C 17.46875 44.3125 17.417969 44.316406 17.363281 44.316406 C 17.316406 44.316406 17.28125 44.304688 17.261719 44.28125 C 17.238281 44.257812 17.230469 44.210938 17.230469 44.144531 L 17.230469 41.609375 L 16.699219 41.609375 L 16.699219 44.175781 C 16.699219 44.363281 16.75 44.496094 16.851562 44.574219 C 16.957031 44.65625 17.078125 44.695312 17.222656 44.695312 C 17.289062 44.695312 17.351562 44.6875 17.417969 44.679688 C 17.484375 44.667969 17.550781 44.65625 17.617188 44.636719 Z M 19.171875 44.675781 C 19.28125 44.648438 19.378906 44.609375 19.464844 44.550781 C 19.546875 44.496094 19.617188 44.421875 19.667969 44.332031 C 19.722656 44.242188 19.746094 44.136719 19.746094 44.011719 C 19.746094 43.902344 19.726562 43.8125 19.683594 43.738281 C 19.644531 43.664062 19.589844 43.597656 19.523438 43.542969 C 19.457031 43.488281 19.382812 43.441406 19.300781 43.402344 C 19.21875 43.367188 19.140625 43.332031 19.066406 43.296875 C 18.949219 43.25 18.851562 43.203125 18.769531 43.15625 C 18.683594 43.109375 18.644531 43.046875 18.644531 42.96875 C 18.644531 42.894531 18.675781 42.832031 18.734375 42.785156 C 18.796875 42.738281 18.875 42.714844 18.96875 42.714844 C 19.058594 42.714844 19.148438 42.726562 19.238281 42.75 C 19.328125 42.769531 19.429688 42.808594 19.546875 42.859375 L 19.726562 42.53125 C 19.660156 42.496094 19.566406 42.453125 19.4375 42.414062 C 19.3125 42.375 19.152344 42.351562 18.957031 42.351562 C 18.867188 42.351562 18.773438 42.363281 18.671875 42.382812 C 18.574219 42.402344 18.484375 42.4375 18.402344 42.484375 C 18.316406 42.535156 18.25 42.597656 18.195312 42.679688 C 18.140625 42.757812 18.113281 42.859375 18.113281 42.984375 C 18.113281 43.082031 18.132812 43.167969 18.171875 43.238281 C 18.207031 43.308594 18.257812 43.367188 18.316406 43.417969 C 18.375 43.46875 18.441406 43.511719 18.515625 43.546875 C 18.585938 43.578125 18.660156 43.609375 18.730469 43.640625 C 18.792969 43.664062 18.851562 43.691406 18.90625 43.714844 C 18.960938 43.742188 19.011719 43.769531 19.054688 43.800781 C 19.097656 43.828125 19.132812 43.863281 19.15625 43.902344 C 19.183594 43.945312 19.195312 43.992188 19.195312 44.046875 C 19.195312 44.148438 19.160156 44.222656 19.089844 44.273438 C 19.019531 44.320312 18.925781 44.34375 18.804688 44.34375 C 18.722656 44.34375 18.636719 44.335938 18.542969 44.320312 C 18.453125 44.304688 18.347656 44.269531 18.234375 44.222656 L 18.058594 44.550781 C 18.132812 44.585938 18.234375 44.625 18.367188 44.660156 C 18.496094 44.699219 18.65625 44.714844 18.839844 44.714844 C 18.949219 44.714844 19.0625 44.703125 19.171875 44.675781 M 20.601562 44.101562 C 20.601562 44.28125 20.652344 44.429688 20.757812 44.542969 C 20.863281 44.660156 21.03125 44.714844 21.261719 44.714844 C 21.355469 44.714844 21.445312 44.707031 21.535156 44.691406 C 21.621094 44.671875 21.710938 44.648438 21.800781 44.617188 L 21.667969 44.300781 C 21.605469 44.320312 21.550781 44.335938 21.507812 44.34375 C 21.460938 44.347656 21.414062 44.351562 21.367188 44.351562 C 21.28125 44.351562 21.222656 44.328125 21.183594 44.28125 C 21.148438 44.234375 21.132812 44.171875 21.132812 44.085938 L 21.132812 42.746094 L 21.714844 42.746094 L 21.714844 42.398438 L 21.132812 42.398438 L 21.132812 41.914062 L 20.601562 41.914062 L 20.601562 42.398438 L 20.261719 42.398438 L 20.210938 42.746094 L 20.601562 42.746094 Z M 23.386719 42.773438 C 23.4375 42.78125 23.496094 42.796875 23.558594 42.820312 L 23.671875 42.40625 C 23.617188 42.390625 23.566406 42.378906 23.519531 42.367188 C 23.472656 42.359375 23.414062 42.351562 23.34375 42.351562 C 23.1875 42.351562 23.066406 42.390625 22.976562 42.46875 C 22.890625 42.546875 22.820312 42.640625 22.769531 42.75 L 22.683594 42.398438 L 22.316406 42.398438 L 22.316406 44.671875 L 22.84375 44.671875 L 22.84375 43.386719 C 22.84375 43.203125 22.875 43.054688 22.9375 42.9375 C 23 42.824219 23.101562 42.765625 23.25 42.765625 C 23.289062 42.765625 23.335938 42.769531 23.386719 42.773438 M 25.132812 42.734375 C 25.1875 42.742188 25.230469 42.757812 25.269531 42.785156 C 25.304688 42.8125 25.332031 42.851562 25.347656 42.902344 C 25.367188 42.953125 25.375 43.019531 25.375 43.105469 L 25.375 43.277344 L 25.089844 43.277344 C 24.738281 43.277344 24.484375 43.332031 24.320312 43.445312 C 24.15625 43.558594 24.074219 43.742188 24.074219 44 C 24.074219 44.136719 24.089844 44.25 24.128906 44.339844 C 24.167969 44.429688 24.21875 44.503906 24.289062 44.5625 C 24.355469 44.617188 24.4375 44.65625 24.53125 44.679688 C 24.625 44.703125 24.726562 44.714844 24.835938 44.714844 C 25 44.714844 25.132812 44.6875 25.226562 44.628906 C 25.324219 44.570312 25.394531 44.5 25.445312 44.414062 L 25.539062 44.671875 L 25.898438 44.671875 L 25.898438 43.078125 C 25.898438 42.832031 25.832031 42.648438 25.699219 42.53125 C 25.566406 42.410156 25.332031 42.351562 24.996094 42.351562 C 24.855469 42.351562 24.714844 42.367188 24.566406 42.390625 C 24.421875 42.417969 24.296875 42.449219 24.191406 42.484375 L 24.328125 42.816406 C 24.449219 42.78125 24.5625 42.757812 24.671875 42.742188 C 24.777344 42.726562 24.867188 42.71875 24.941406 42.71875 C 25.015625 42.71875 25.078125 42.726562 25.132812 42.734375 M 25.375 43.929688 C 25.375 43.972656 25.367188 44.019531 25.351562 44.070312 C 25.335938 44.121094 25.308594 44.167969 25.277344 44.210938 C 25.242188 44.253906 25.195312 44.289062 25.136719 44.316406 C 25.082031 44.347656 25.011719 44.363281 24.925781 44.363281 C 24.8125 44.363281 24.730469 44.328125 24.683594 44.265625 C 24.636719 44.199219 24.613281 44.101562 24.613281 43.972656 C 24.613281 43.832031 24.648438 43.730469 24.71875 43.671875 C 24.789062 43.609375 24.90625 43.578125 25.066406 43.578125 L 25.375 43.578125 Z M 28.59375 43.714844 C 28.550781 43.636719 28.5 43.570312 28.441406 43.515625 C 28.382812 43.457031 28.316406 43.40625 28.242188 43.363281 C 28.171875 43.320312 28.105469 43.277344 28.046875 43.238281 C 27.988281 43.199219 27.9375 43.160156 27.894531 43.121094 C 27.851562 43.082031 27.832031 43.035156 27.832031 42.988281 C 27.832031 42.910156 27.859375 42.84375 27.910156 42.796875 C 27.964844 42.75 28.019531 42.699219 28.082031 42.652344 C 28.140625 42.601562 28.199219 42.539062 28.25 42.46875 C 28.304688 42.398438 28.328125 42.296875 28.328125 42.171875 C 28.328125 41.972656 28.261719 41.808594 28.125 41.683594 C 27.988281 41.558594 27.785156 41.496094 27.511719 41.496094 C 27.390625 41.496094 27.277344 41.507812 27.171875 41.539062 C 27.0625 41.566406 26.972656 41.617188 26.890625 41.679688 C 26.8125 41.746094 26.75 41.832031 26.703125 41.933594 C 26.65625 42.035156 26.632812 42.15625 26.632812 42.300781 L 26.632812 44.671875 L 27.160156 44.671875 L 27.160156 42.3125 C 27.160156 42.210938 27.171875 42.128906 27.195312 42.070312 C 27.214844 42.011719 27.246094 41.964844 27.28125 41.933594 C 27.316406 41.90625 27.355469 41.882812 27.398438 41.875 C 27.441406 41.867188 27.484375 41.863281 27.523438 41.863281 C 27.644531 41.863281 27.726562 41.894531 27.777344 41.957031 C 27.828125 42.023438 27.855469 42.101562 27.855469 42.195312 C 27.855469 42.289062 27.828125 42.367188 27.769531 42.425781 C 27.714844 42.484375 27.652344 42.539062 27.589844 42.59375 C 27.523438 42.644531 27.464844 42.703125 27.40625 42.761719 C 27.351562 42.820312 27.324219 42.898438 27.324219 42.992188 C 27.324219 43.085938 27.34375 43.164062 27.382812 43.230469 C 27.421875 43.296875 27.472656 43.355469 27.53125 43.402344 C 27.585938 43.453125 27.648438 43.496094 27.71875 43.539062 C 27.789062 43.578125 27.851562 43.621094 27.910156 43.664062 C 27.964844 43.710938 28.015625 43.757812 28.054688 43.808594 C 28.09375 43.863281 28.113281 43.925781 28.113281 44.003906 C 28.113281 44.121094 28.089844 44.203125 28.039062 44.257812 C 27.992188 44.308594 27.921875 44.335938 27.828125 44.335938 C 27.757812 44.335938 27.699219 44.332031 27.644531 44.320312 C 27.589844 44.308594 27.53125 44.292969 27.46875 44.273438 L 27.324219 44.59375 C 27.394531 44.625 27.480469 44.652344 27.582031 44.671875 C 27.679688 44.691406 27.777344 44.703125 27.871094 44.703125 C 27.980469 44.703125 28.082031 44.691406 28.175781 44.664062 C 28.269531 44.640625 28.355469 44.601562 28.425781 44.542969 C 28.496094 44.484375 28.550781 44.410156 28.59375 44.320312 C 28.632812 44.226562 28.65625 44.117188 28.65625 43.984375 C 28.65625 43.878906 28.632812 43.789062 28.59375 43.714844 M 31.046875 43.679688 L 31.046875 43.429688 C 31.046875 43.257812 31.03125 43.105469 31.003906 42.96875 C 30.972656 42.835938 30.921875 42.722656 30.851562 42.628906 C 30.78125 42.539062 30.6875 42.46875 30.574219 42.421875 C 30.457031 42.375 30.316406 42.351562 30.144531 42.351562 C 29.808594 42.351562 29.566406 42.449219 29.410156 42.644531 C 29.253906 42.839844 29.179688 43.148438 29.179688 43.578125 C 29.179688 43.8125 29.207031 44.007812 29.265625 44.15625 C 29.328125 44.304688 29.40625 44.421875 29.503906 44.503906 C 29.597656 44.585938 29.710938 44.644531 29.835938 44.671875 C 29.964844 44.703125 30.09375 44.714844 30.226562 44.714844 C 30.378906 44.714844 30.523438 44.699219 30.660156 44.664062 C 30.796875 44.628906 30.90625 44.59375 30.988281 44.554688 L 30.832031 44.234375 C 30.625 44.316406 30.4375 44.355469 30.257812 44.355469 C 30.183594 44.355469 30.113281 44.351562 30.046875 44.34375 C 29.984375 44.332031 29.925781 44.304688 29.878906 44.257812 C 29.828125 44.214844 29.789062 44.144531 29.757812 44.054688 C 29.726562 43.964844 29.710938 43.839844 29.707031 43.679688 Z M 30.324219 42.730469 C 30.375 42.75 30.414062 42.785156 30.449219 42.835938 C 30.480469 42.882812 30.503906 42.953125 30.519531 43.042969 C 30.539062 43.132812 30.546875 43.242188 30.550781 43.375 L 29.710938 43.375 C 29.71875 43.226562 29.734375 43.109375 29.757812 43.019531 C 29.78125 42.925781 29.8125 42.859375 29.847656 42.8125 C 29.882812 42.765625 29.925781 42.734375 29.976562 42.71875 C 30.023438 42.707031 30.078125 42.699219 30.132812 42.699219 C 30.210938 42.699219 30.273438 42.707031 30.324219 42.730469 "/>
<path style="fill:none;stroke-width:0.171;stroke-linecap:butt;stroke-linejoin:miter;stroke:rgb(100%,100%,100%);stroke-opacity:1;stroke-miterlimit:5.104;" d="M 0.000831143 0.00727612 C -0.467063 0.12437 -0.918247 0.308374 -1.386142 0.509106 L -2.204957 -1.013111 C -1.620089 -1.314209 -1.035221 -1.531668 -0.416932 -1.682217 C 0.201357 -1.849494 0.903199 -1.916404 1.688593 -1.916404 C 2.457277 -1.916404 3.125698 -1.816038 3.710566 -1.615306 C 4.295434 -1.414575 4.763328 -1.146932 5.14767 -0.812379 C 5.532012 -0.461098 5.816091 -0.0596345 5.999907 0.425468 C 6.200433 0.893842 6.283985 1.412399 6.283985 1.964412 C 6.283985 2.600063 6.183722 3.152075 5.966486 3.603722 C 5.749249 4.055369 5.481881 4.440105 5.14767 4.75793 C 4.81346 5.059028 4.445829 5.326671 4.028066 5.527402 C 3.610303 5.728134 3.19254 5.912139 2.791487 6.079415 C 2.490698 6.213236 2.189909 6.347058 1.88912 6.480879 C 1.605041 6.631428 1.337672 6.781977 1.103725 6.965981 C 0.886489 7.133257 0.685962 7.333989 0.552278 7.568176 C 0.418594 7.785636 0.351752 8.053278 0.351752 8.354376 C 0.351752 8.923116 0.552278 9.358036 0.953331 9.675861 C 1.354383 9.976959 1.822277 10.127508 2.373724 10.127508 C 2.941882 10.127508 3.443198 10.060597 3.911092 9.926776 C 4.378986 9.792955 4.846881 9.625678 5.314775 9.424946 L 6.083459 10.913707 C 5.933064 10.997346 5.732538 11.080984 5.481881 11.18135 C 5.231223 11.281716 4.947144 11.365354 4.629644 11.448992 C 4.328855 11.532631 3.977934 11.599541 3.627013 11.666452 C 3.259382 11.733363 2.87504 11.766818 2.490698 11.766818 C 2.006093 11.766818 1.488067 11.699907 0.953331 11.582814 C 0.435305 11.46572 -0.0660109 11.264988 -0.500484 10.997346 C -0.934958 10.712976 -1.302589 10.361695 -1.586668 9.910048 C -1.870747 9.475129 -2.004431 8.923116 -2.004431 8.270738 C -2.004431 7.701998 -1.920878 7.216896 -1.720352 6.83216 C -1.536536 6.447423 -1.285879 6.11287 -0.985089 5.845228 C -0.6843 5.560858 -0.35009 5.326671 0.0342522 5.159394 C 0.418594 4.97539 0.786225 4.808113 1.187278 4.640837 C 1.521488 4.490288 1.855698 4.339739 2.173198 4.18919 C 2.490698 4.038641 2.774777 3.854637 3.025435 3.670633 C 3.276092 3.469901 3.476619 3.218986 3.627013 2.951343 C 3.777408 2.683701 3.86096 2.349148 3.86096 1.964412 C 3.86096 1.178212 3.643724 0.626199 3.20925 0.291646 C 2.758066 -0.0261792 2.22333 -0.193456 1.57162 -0.193456 C 0.986752 -0.193456 0.468726 -0.126545 0.000831143 0.00727612 Z M 12.049114 -0.243639 C 11.831877 -0.176728 11.631351 -0.0261792 11.447535 0.208008 C 11.28043 0.458923 11.130035 0.793476 11.029772 1.26185 C 10.912798 1.713497 10.862667 2.33242 10.862667 3.101892 C 10.862667 3.871365 10.912798 4.490288 10.996351 4.958662 C 11.096614 5.427036 11.213588 5.795045 11.380693 6.029232 C 11.547798 6.280147 11.748324 6.430696 11.965561 6.514334 C 12.199508 6.581245 12.450166 6.631428 12.734245 6.631428 C 13.035034 6.631428 13.335823 6.597972 13.603192 6.547789 C 13.87056 6.497606 14.221481 6.380513 14.655954 6.213236 L 15.341085 7.635087 C 14.990164 7.785636 14.589112 7.919457 14.104507 8.036551 C 13.636613 8.136917 13.135297 8.203827 12.600561 8.203827 C 11.230298 8.203827 10.194246 7.802364 9.525826 6.982708 C 8.857405 6.179781 8.523195 4.891752 8.523195 3.101892 C 8.523195 2.04805 8.623458 1.19494 8.840694 0.542561 C 9.041221 -0.109817 9.325299 -0.628375 9.692931 -0.979656 C 10.060562 -1.347664 10.478325 -1.598579 10.97964 -1.715672 C 11.464245 -1.849494 11.998982 -1.916404 12.56714 -1.916404 C 13.118587 -1.916404 13.619902 -1.866221 14.071086 -1.749128 C 14.53898 -1.632034 14.956743 -1.498213 15.341085 -1.347664 L 14.655954 0.0407314 C 14.221481 -0.109817 13.87056 -0.210183 13.603192 -0.260366 C 13.335823 -0.327277 13.035034 -0.344005 12.717534 -0.344005 C 12.483587 -0.344005 12.24964 -0.310549 12.049114 -0.243639 Z M 19.986609 -1.7324 L 19.986609 4.573926 C 19.986609 4.97539 20.03674 5.326671 20.170425 5.594313 C 20.287398 5.861956 20.437793 6.096143 20.638319 6.263419 C 20.822135 6.430696 21.022661 6.547789 21.273319 6.6147 C 21.507266 6.681611 21.741213 6.715066 21.97516 6.715066 C 22.376213 6.715066 22.693713 6.597972 22.92766 6.363785 C 23.178318 6.146326 23.295291 5.694679 23.295291 5.025573 L 23.295291 -1.7324 L 25.551211 -1.7324 L 25.551211 4.941934 C 25.551211 6.096143 25.283843 6.932525 24.765817 7.434355 C 24.23108 7.952912 23.462396 8.203827 22.459765 8.203827 C 21.440424 8.203827 20.621608 7.819091 19.986609 7.049619 L 19.986609 11.382082 L 17.713979 11.382082 L 17.713979 -1.7324 Z M 28.659367 8.003095 L 28.659367 1.345489 C 28.659367 0.258191 28.893314 -0.561464 29.377919 -1.113477 C 29.862524 -1.648762 30.664629 -1.916404 31.784233 -1.916404 C 32.31897 -1.916404 32.803575 -1.816038 33.254759 -1.598579 C 33.705943 -1.381119 34.073574 -1.046566 34.374364 -0.628375 L 34.758705 -1.7324 L 36.329494 -1.7324 L 36.329494 8.003095 L 34.073574 8.003095 L 34.073574 1.646586 C 34.073574 0.893842 33.889759 0.358557 33.538838 0.0407314 C 33.171206 -0.277094 32.736733 -0.444371 32.218707 -0.444371 C 31.767523 -0.444371 31.433313 -0.310549 31.232786 -0.0429068 C 31.03226 0.224736 30.915287 0.726565 30.915287 1.429127 L 30.915287 8.003095 Z M 42.963569 -0.143273 C 42.763043 -0.193456 42.545806 -0.210183 42.311859 -0.210183 C 42.111333 -0.210183 41.960938 -0.16 41.877385 -0.0596345 C 41.777122 0.0407314 41.743701 0.241463 41.743701 0.525833 L 41.743701 11.382082 L 39.471071 11.382082 L 39.471071 0.392012 C 39.471071 -0.410915 39.688308 -0.979656 40.122781 -1.314209 C 40.573965 -1.665489 41.091991 -1.832766 41.71028 -1.832766 C 41.994359 -1.832766 42.261727 -1.799311 42.545806 -1.765855 C 42.829885 -1.715672 43.113964 -1.665489 43.398042 -1.581851 Z M 50.048828 -1.749128 C 50.516722 -1.632034 50.934485 -1.464758 51.302117 -1.213843 C 51.653038 -0.979656 51.953827 -0.66183 52.171064 -0.277094 C 52.405011 0.107642 52.505274 0.559289 52.505274 1.094574 C 52.505274 1.562948 52.421721 1.947684 52.237906 2.26551 C 52.070801 2.583335 51.836853 2.867705 51.552774 3.101892 C 51.268696 3.33608 50.951196 3.536811 50.600275 3.704088 C 50.249354 3.854637 49.915144 4.005186 49.597644 4.155735 C 49.096329 4.356467 48.678566 4.557198 48.327645 4.75793 C 47.960013 4.958662 47.792908 5.226305 47.792908 5.560858 C 47.792908 5.878683 47.926592 6.146326 48.17725 6.347058 C 48.444618 6.547789 48.778829 6.648155 49.179881 6.648155 C 49.564223 6.648155 49.948565 6.597972 50.332907 6.497606 C 50.717249 6.413968 51.151722 6.246692 51.653038 6.029232 L 52.421721 7.434355 C 52.137643 7.584904 51.73659 7.768908 51.185143 7.936185 C 50.650407 8.103461 49.965275 8.203827 49.12975 8.203827 C 48.745408 8.203827 48.344355 8.153644 47.909882 8.070006 C 47.492119 7.986368 47.107777 7.835819 46.756856 7.635087 C 46.389225 7.417627 46.105146 7.149985 45.871199 6.798704 C 45.637252 6.464151 45.520278 6.029232 45.520278 5.493947 C 45.520278 5.075756 45.603831 4.707747 45.770936 4.40665 C 45.92133 4.105552 46.138567 3.854637 46.389225 3.637177 C 46.639883 3.419718 46.923961 3.235714 47.241461 3.085165 C 47.542251 2.951343 47.85975 2.817522 48.16054 2.683701 C 48.427908 2.583335 48.678566 2.466241 48.912513 2.365876 C 49.14646 2.248782 49.363697 2.131688 49.547513 1.997867 C 49.731328 1.880774 49.881723 1.730225 49.981986 1.562948 C 50.09896 1.378944 50.149091 1.178212 50.149091 0.944025 C 50.149091 0.509106 49.998696 0.19128 49.697907 -0.0261792 C 49.397118 -0.226911 48.996065 -0.327277 48.478039 -0.327277 C 48.127119 -0.327277 47.759487 -0.293822 47.358435 -0.226911 C 46.974093 -0.16 46.522909 -0.00945154 46.038304 0.19128 L 45.286331 -1.213843 C 45.603831 -1.364392 46.038304 -1.531668 46.606462 -1.682217 C 47.157909 -1.849494 47.84304 -1.916404 48.628434 -1.916404 C 49.096329 -1.916404 49.580934 -1.866221 50.048828 -1.749128 Z M 56.164877 0.709838 C 56.164877 -0.0596345 56.382114 -0.695285 56.833298 -1.180387 C 57.284482 -1.682217 58.003034 -1.916404 58.988954 -1.916404 C 59.390007 -1.916404 59.774349 -1.882949 60.15869 -1.816038 C 60.526322 -1.7324 60.910664 -1.632034 61.295006 -1.498213 L 60.726848 -0.143273 C 60.45948 -0.226911 60.225533 -0.293822 60.041717 -0.327277 C 59.841191 -0.344005 59.640664 -0.360732 59.440138 -0.360732 C 59.072507 -0.360732 58.821849 -0.260366 58.654744 -0.0596345 C 58.504349 0.141097 58.437507 0.40874 58.437507 0.776748 L 58.437507 6.514334 L 60.927374 6.514334 L 60.927374 8.003095 L 58.437507 8.003095 L 58.437507 10.077325 L 56.164877 10.077325 L 56.164877 8.003095 L 54.711062 8.003095 L 54.493825 6.514334 L 56.164877 6.514334 Z M 68.079475 6.397241 C 68.296712 6.363785 68.54737 6.296875 68.814738 6.196509 L 69.299343 7.96964 C 69.065396 8.036551 68.848159 8.086734 68.647633 8.136917 C 68.447107 8.170372 68.196449 8.203827 67.89566 8.203827 C 67.227239 8.203827 66.709213 8.036551 66.324871 7.701998 C 65.95724 7.367445 65.65645 6.965981 65.439214 6.497606 L 65.071582 8.003095 L 63.500794 8.003095 L 63.500794 -1.7324 L 65.756713 -1.7324 L 65.756713 3.770999 C 65.756713 4.557198 65.890398 5.192849 66.157766 5.694679 C 66.425134 6.179781 66.859608 6.430696 67.494607 6.430696 C 67.661712 6.430696 67.862239 6.413968 68.079475 6.397241 Z M 75.549076 6.564517 C 75.783023 6.531062 75.966839 6.464151 76.133944 6.347058 C 76.284339 6.229964 76.401312 6.062687 76.468155 5.845228 C 76.551707 5.627768 76.585128 5.343398 76.585128 4.97539 L 76.585128 4.239373 L 75.36526 4.239373 C 73.861314 4.239373 72.77513 4.005186 72.073289 3.520084 C 71.371447 3.034982 71.020526 2.248782 71.020526 1.144757 C 71.020526 0.559289 71.087368 0.0741867 71.254473 -0.310549 C 71.421579 -0.695285 71.638815 -1.013111 71.939605 -1.264026 C 72.223683 -1.498213 72.574604 -1.665489 72.975657 -1.765855 C 73.376709 -1.866221 73.811182 -1.916404 74.279077 -1.916404 C 74.980919 -1.916404 75.549076 -1.799311 75.950129 -1.548396 C 76.367891 -1.297481 76.668681 -0.996383 76.885917 -0.628375 L 77.28697 -1.7324 L 78.824337 -1.7324 L 78.824337 5.092483 C 78.824337 6.146326 78.540259 6.932525 77.972101 7.434355 C 77.403943 7.952912 76.401312 8.203827 74.964208 8.203827 C 74.362629 8.203827 73.761051 8.136917 73.126051 8.036551 C 72.507762 7.919457 71.973026 7.785636 71.521842 7.635087 L 72.10671 6.213236 C 72.624736 6.363785 73.109341 6.464151 73.577235 6.531062 C 74.028419 6.597972 74.412761 6.631428 74.730261 6.631428 C 75.047761 6.631428 75.315129 6.597972 75.549076 6.564517 Z M 76.585128 1.445854 C 76.585128 1.26185 76.551707 1.061118 76.484865 0.843659 C 76.418023 0.626199 76.301049 0.425468 76.167365 0.241463 C 76.016971 0.0574591 75.816444 -0.0930898 75.565787 -0.210183 C 75.331839 -0.344005 75.03105 -0.410915 74.663419 -0.410915 C 74.178814 -0.410915 73.827893 -0.260366 73.627367 0.00727612 C 73.426841 0.291646 73.326577 0.709838 73.326577 1.26185 C 73.326577 1.864046 73.476972 2.298965 73.777761 2.54988 C 74.078551 2.817522 74.579866 2.951343 75.264997 2.951343 L 76.585128 2.951343 Z M 90.354594 2.365876 C 90.170778 2.700429 89.953541 2.984799 89.702884 3.218986 C 89.452226 3.469901 89.168147 3.68736 88.850647 3.871365 C 88.549858 4.055369 88.265779 4.239373 88.015121 4.40665 C 87.764464 4.573926 87.547227 4.741203 87.363411 4.908479 C 87.179596 5.075756 87.096043 5.276488 87.096043 5.477219 C 87.096043 5.811773 87.213017 6.096143 87.430253 6.296875 C 87.664201 6.497606 87.898148 6.715066 88.165516 6.915798 C 88.416174 7.133257 88.666832 7.4009 88.884068 7.701998 C 89.118016 8.003095 89.218279 8.438014 89.218279 8.973299 C 89.218279 9.82641 88.9342 10.528971 88.349332 11.064256 C 87.764464 11.599541 86.895517 11.867184 85.725781 11.867184 C 85.207755 11.867184 84.72315 11.817001 84.271966 11.68318 C 83.804071 11.566086 83.419729 11.348627 83.068809 11.080984 C 82.734598 10.796614 82.46723 10.428605 82.266704 9.993686 C 82.066178 9.558767 81.965914 9.04021 81.965914 8.421287 L 81.965914 -1.7324 L 84.221834 -1.7324 L 84.221834 8.371104 C 84.221834 8.806023 84.271966 9.157304 84.372229 9.408218 C 84.455781 9.659133 84.589466 9.859865 84.73986 9.993686 C 84.890255 10.11078 85.05736 10.211146 85.241176 10.244601 C 85.424991 10.278057 85.608807 10.294784 85.775912 10.294784 C 86.293938 10.294784 86.644859 10.160963 86.862096 9.893321 C 87.079333 9.60895 87.196306 9.274397 87.196306 8.872934 C 87.196306 8.47147 87.079333 8.136917 86.828675 7.886002 C 86.594728 7.635087 86.327359 7.4009 86.059991 7.166713 C 85.775912 6.949253 85.525254 6.698338 85.274597 6.447423 C 85.04065 6.196509 84.923676 5.861956 84.923676 5.460492 C 84.923676 5.059028 85.007228 4.724475 85.174334 4.440105 C 85.341439 4.155735 85.558676 3.90482 85.809333 3.704088 C 86.043281 3.486628 86.310649 3.302624 86.611438 3.11862 C 86.912227 2.951343 87.179596 2.767339 87.430253 2.583335 C 87.664201 2.382603 87.881437 2.181871 88.048542 1.964412 C 88.215648 1.730225 88.2992 1.462582 88.2992 1.128029 C 88.2992 0.626199 88.198937 0.274919 87.9817 0.0407314 C 87.781174 -0.176728 87.480385 -0.293822 87.079333 -0.293822 C 86.778543 -0.293822 86.527885 -0.277094 86.293938 -0.226911 C 86.059991 -0.176728 85.809333 -0.109817 85.541965 -0.0261792 L 84.923676 -1.397847 C 85.224465 -1.531668 85.592097 -1.648762 86.02657 -1.7324 C 86.444333 -1.816038 86.862096 -1.866221 87.263148 -1.866221 C 87.731043 -1.866221 88.165516 -1.816038 88.566568 -1.698945 C 88.967621 -1.598579 89.335252 -1.431302 89.636042 -1.180387 C 89.936831 -0.929473 90.170778 -0.611647 90.354594 -0.226911 C 90.521699 0.174553 90.621962 0.642927 90.621962 1.211667 C 90.621962 1.663314 90.521699 2.04805 90.354594 2.365876 Z M 100.848798 2.516424 L 100.848798 3.586994 C 100.848798 4.323011 100.781956 4.97539 100.664982 5.560858 C 100.531298 6.129598 100.314062 6.6147 100.013272 7.016164 C 99.712483 7.4009 99.311431 7.701998 98.826826 7.90273 C 98.32551 8.103461 97.723932 8.203827 96.988669 8.203827 C 95.551564 8.203827 94.515512 7.785636 93.847092 6.949253 C 93.178671 6.11287 92.861171 4.791386 92.861171 2.951343 C 92.861171 1.947684 92.978145 1.111301 93.228803 0.47565 C 93.496171 -0.16 93.830381 -0.66183 94.248144 -1.013111 C 94.649196 -1.364392 95.133801 -1.615306 95.668538 -1.7324 C 96.219985 -1.866221 96.771432 -1.916404 97.33959 -1.916404 C 97.9913 -1.916404 98.609589 -1.849494 99.194457 -1.698945 C 99.779325 -1.548396 100.24722 -1.397847 100.59814 -1.23057 L 99.92972 0.141097 C 99.044062 -0.210183 98.241958 -0.37746 97.473274 -0.37746 C 97.155774 -0.37746 96.854985 -0.360732 96.570906 -0.327277 C 96.303538 -0.277094 96.05288 -0.16 95.852354 0.0407314 C 95.635117 0.224736 95.468012 0.525833 95.334328 0.91057 C 95.200644 1.295306 95.133801 1.830591 95.117091 2.516424 Z M 97.757353 6.581245 C 97.974589 6.497606 98.141694 6.347058 98.292089 6.129598 C 98.425773 5.928866 98.526036 5.627768 98.592878 5.243032 C 98.676431 4.858296 98.709852 4.389922 98.726563 3.821182 L 95.133801 3.821182 C 95.167223 4.456832 95.234065 4.958662 95.334328 5.343398 C 95.434591 5.744862 95.568275 6.029232 95.71867 6.229964 C 95.869064 6.430696 96.05288 6.564517 96.270117 6.631428 C 96.470643 6.681611 96.70459 6.715066 96.938537 6.715066 C 97.272748 6.715066 97.540116 6.681611 97.757353 6.581245 Z M 97.757353 6.581245 " transform="matrix(0.23376,0,0,-0.23352,7.472462,44.267324)"/>
<path style=" stroke:none;fill-rule:nonzero;fill:rgb(100%,100%,100%);fill-opacity:1;" d="M 6.828125 37.160156 L 31.171875 37.160156 L 31.171875 12.839844 L 6.828125 12.839844 Z M 6.828125 37.160156 "/>
<path style=" stroke:none;fill-rule:nonzero;fill:rgb(13.725491%,12.156863%,12.54902%);fill-opacity:1;" d="M 27.953125 33.992188 L 24.273438 33.992188 C 24.546875 33.925781 24.835938 33.804688 25.125 33.648438 C 25.125 33.648438 25.269531 33.503906 25.550781 33.453125 C 25.832031 33.40625 26.074219 33.1875 26.097656 33.003906 C 26.121094 32.824219 25.867188 32.410156 25.707031 32.238281 C 25.550781 32.070312 24.527344 31.238281 24.371094 30.851562 C 24.210938 30.46875 22.945312 28.617188 23.042969 27.558594 C 23.140625 26.503906 23.386719 26.125 23.386719 26.125 C 23.386719 26.125 24.523438 26.257812 24.910156 25.675781 C 24.984375 25.566406 25.027344 25.339844 25.050781 25.050781 L 25.121094 25.050781 C 25.21875 25.050781 25.4375 24.972656 25.4375 24.875 L 25.433594 24.863281 L 25.445312 24.867188 C 25.445312 24.867188 25.496094 24.847656 25.480469 24.421875 C 25.460938 23.996094 25.339844 23.464844 25.339844 23.464844 L 25.332031 23.460938 C 25.328125 23.367188 25.199219 23.292969 25.105469 23.292969 L 25.007812 23.292969 C 24.929688 22.265625 24.789062 21.292969 24.742188 21.21875 C 24.644531 21.074219 24.390625 20.609375 24.066406 20.636719 C 24.070312 20.601562 24.078125 20.566406 24.082031 20.527344 C 24.148438 19.910156 23.824219 19.761719 23.664062 19.949219 C 23.503906 20.128906 23.5 20.441406 23.5 20.453125 C 23.425781 20.5 23.335938 20.5625 23.335938 20.5625 C 23.335938 20.5625 23.195312 20.277344 22.875 20.035156 C 22.714844 19.914062 22.550781 19.882812 22.34375 19.792969 C 22.191406 19.726562 22.21875 19.492188 22.21875 19.492188 C 22.21875 19.492188 23.066406 18.800781 22.824219 17.746094 C 22.824219 17.746094 23.246094 17.371094 23.246094 18.3125 C 23.246094 18.523438 23.183594 18.835938 23.246094 19.140625 C 23.34375 19.597656 24.210938 19.578125 24.210938 19.578125 C 24.210938 19.578125 23.933594 19.445312 23.878906 18.714844 C 23.808594 17.714844 23.53125 17.046875 22.726562 17.464844 L 22.554688 17.253906 C 22.554688 17.253906 21.839844 16.851562 21.257812 16.878906 C 20.671875 16.902344 20.113281 17.078125 20.101562 18.253906 C 20.101562 18.253906 20.199219 18.507812 19.96875 18.664062 C 19.796875 18.777344 19.882812 18.898438 19.980469 18.941406 C 20.046875 18.96875 19.9375 19.113281 19.9375 19.113281 C 19.9375 19.113281 19.929688 19.203125 19.996094 19.226562 L 20.042969 19.242188 C 19.992188 19.253906 19.949219 19.335938 20.011719 19.402344 C 20.070312 19.460938 20.046875 19.515625 20.046875 19.601562 C 20.046875 19.683594 20.179688 19.859375 20.554688 19.816406 C 20.910156 19.773438 21.164062 19.757812 21.019531 19.992188 C 21.003906 20.011719 20.839844 20.105469 20.824219 20.128906 C 20.675781 20.367188 20.472656 20.558594 20.40625 20.996094 C 20.375 21.203125 20.34375 21.933594 20.320312 22.726562 L 19 22.902344 L 19.128906 25.832031 L 20.46875 25.667969 C 20.574219 25.898438 20.722656 26.136719 20.929688 26.214844 C 20.929688 26.214844 20.941406 26.757812 20.597656 27.597656 C 20.257812 28.433594 20.113281 28.980469 20.160156 29.394531 C 20.210938 29.808594 20.199219 29.976562 20.125 30.085938 C 20.050781 30.199219 19.746094 30.691406 19.589844 31.460938 C 19.429688 32.230469 19.285156 32.96875 19.273438 33.066406 C 19.261719 33.15625 18.863281 33.390625 18.496094 33.351562 L 18.621094 33.164062 L 18.6875 33.070312 C 18.6875 33.070312 19.171875 32.441406 18.824219 32.273438 C 18.476562 32.101562 18.183594 32.128906 17.957031 31.988281 C 17.730469 31.84375 16.75 30.316406 15.804688 30.183594 C 15.804688 30.183594 16.699219 28.695312 16.578125 27.875 C 16.5 27.3125 16.386719 26.882812 16.316406 26.496094 C 16.597656 26.726562 17.066406 26.914062 17.257812 26.804688 C 17.539062 26.652344 18.535156 24.664062 18.445312 24.238281 C 18.351562 23.808594 18.253906 23.984375 18.253906 23.984375 L 18.199219 23.832031 L 18.464844 24.050781 C 18.464844 24.050781 18.597656 22.023438 16.828125 22.644531 C 16.828125 22.644531 16.46875 22.445312 16.472656 22.28125 C 16.480469 22.117188 15.976562 22.144531 16.089844 22.390625 C 16.203125 22.640625 16.308594 22.71875 16.308594 22.71875 L 16.160156 22.699219 C 16.121094 22.585938 16.074219 22.480469 16.035156 22.414062 C 16 22.359375 15.839844 22.222656 15.753906 22.238281 C 15.53125 22.277344 15.613281 22.21875 15.613281 22.21875 L 15.625 21.832031 C 15.625 21.832031 16.289062 21.4375 16.230469 20.535156 C 16.171875 19.6875 15.539062 19.277344 14.488281 19.585938 C 13.492188 19.878906 13.632812 20.828125 13.757812 20.992188 C 13.808594 21.0625 13.859375 21.171875 13.8125 21.269531 C 13.730469 21.4375 13.65625 21.507812 13.683594 21.566406 C 13.707031 21.621094 13.746094 21.617188 13.78125 21.628906 C 13.871094 21.65625 13.78125 21.777344 13.824219 21.804688 C 13.867188 21.835938 13.902344 21.820312 13.902344 21.820312 L 13.894531 21.835938 C 13.894531 21.835938 13.835938 21.914062 13.933594 21.960938 C 14.023438 21.996094 13.941406 22.238281 14.109375 22.246094 C 14.28125 22.25 14.582031 22.210938 14.582031 22.210938 L 14.558594 22.359375 C 14.558594 22.359375 14.277344 22.339844 13.898438 22.707031 L 13.894531 22.714844 C 13.78125 22.789062 13.6875 22.878906 13.648438 22.984375 C 13.527344 23.347656 13.4375 23.804688 13.386719 23.902344 C 13.332031 24 13.09375 24.601562 12.867188 24.773438 C 12.644531 24.945312 12.160156 25.558594 11.96875 25.796875 C 11.777344 26.035156 11.453125 26.265625 11.308594 26.261719 C 11.160156 26.253906 10.875 26.449219 10.855469 26.609375 C 10.839844 26.769531 10.949219 26.757812 10.992188 26.859375 C 11.039062 26.960938 11.277344 27.128906 11.402344 26.972656 C 11.53125 26.816406 11.632812 26.710938 11.707031 26.710938 C 11.777344 26.714844 11.851562 26.691406 11.941406 26.574219 C 12.03125 26.457031 12.890625 25.855469 13.105469 25.640625 C 13.222656 25.527344 13.425781 25.261719 13.613281 24.996094 C 13.601562 25.386719 13.683594 26.503906 13.6875 26.695312 C 13.691406 26.902344 13.363281 27.570312 13.703125 27.617188 C 14.042969 27.667969 13.96875 27.679688 13.96875 27.679688 C 13.96875 27.679688 13.566406 28.820312 13.582031 29.0625 C 13.597656 29.308594 13.632812 30.691406 13.769531 31.34375 C 13.902344 31.992188 14.160156 33.070312 13.558594 33.21875 C 12.957031 33.367188 12.46875 33.398438 12.402344 33.554688 C 12.359375 33.65625 12.449219 33.867188 12.78125 33.992188 L 10.046875 33.992188 L 10.046875 34.523438 L 27.953125 34.523438 Z M 16.578125 22.769531 C 16.578125 22.769531 16.179688 22.457031 16.289062 22.367188 C 16.398438 22.277344 16.492188 22.65625 16.582031 22.710938 C 16.671875 22.761719 16.578125 22.769531 16.578125 22.769531 M 16.261719 24.890625 C 16.277344 24.070312 16.300781 23.128906 16.300781 23.128906 C 16.300781 23.128906 16.292969 23.097656 16.277344 23.042969 L 16.394531 23.074219 C 16.394531 23.074219 16.597656 23.101562 16.5625 23.257812 C 16.542969 23.339844 16.386719 24.144531 16.261719 24.890625 M 23.847656 20.273438 C 23.855469 20.390625 23.859375 20.511719 23.859375 20.617188 C 23.777344 20.589844 23.722656 20.542969 23.683594 20.5 C 23.710938 20.445312 23.734375 20.390625 23.734375 20.339844 C 23.734375 20.214844 23.824219 19.949219 23.847656 20.273438 M 17.550781 33.15625 C 17.492188 33.464844 17.269531 33.875 17.269531 33.875 C 17.269531 33.875 17.253906 33.921875 17.238281 33.992188 L 14.917969 33.992188 C 14.910156 33.792969 14.730469 33.441406 14.730469 33.027344 C 14.734375 32.578125 15.0625 31.605469 14.792969 31 L 14.871094 30.761719 C 14.871094 30.761719 16.308594 31.855469 16.996094 32.304688 C 17.6875 32.753906 17.613281 32.84375 17.550781 33.15625 M 18.128906 33.898438 C 18.191406 33.929688 18.257812 33.960938 18.328125 33.992188 L 18.0625 33.992188 Z M 23.566406 33.992188 L 20.515625 33.992188 C 20.546875 33.820312 20.582031 33.609375 20.597656 33.429688 C 20.636719 33.054688 21.539062 30.257812 21.78125 29.871094 C 22.023438 29.488281 21.929688 29.640625 21.929688 29.640625 C 21.929688 29.640625 23.082031 31.847656 23.6875 32.191406 C 24.296875 32.535156 24.199219 32.6875 24.199219 32.6875 C 24.199219 32.6875 24.601562 32.847656 24.359375 33.101562 C 24.117188 33.355469 24.03125 33.476562 23.847656 33.539062 C 23.675781 33.597656 23.261719 33.867188 23.566406 33.992188 "/>
</g>
</svg>
