<?xml version="1.0" encoding="UTF-8"?>
<svg xmlns="http://www.w3.org/2000/svg" xmlns:xlink="http://www.w3.org/1999/xlink" width="50px" height="50px" viewBox="0 0 50 50" version="1.1">
<g id="surface1">
<path style=" stroke:none;fill-rule:nonzero;fill:rgb(93.333334%,10.980392%,13.725491%);fill-opacity:1;" d="M 0 25 C 0 11.195312 11.191406 0 25 0 C 38.808594 0 50 11.195312 50 25 C 50 38.804688 38.808594 50 25 50 C 11.191406 50 0 38.804688 0 25 Z M 0 25 "/>
<path style=" stroke:none;fill-rule:nonzero;fill:rgb(100%,100%,100%);fill-opacity:1;" d="M 25 43.539062 C 35.238281 43.539062 43.539062 35.238281 43.539062 25 C 43.539062 14.761719 35.238281 6.460938 25 6.460938 C 14.761719 6.460938 6.460938 14.761719 6.460938 25 C 6.460938 35.238281 14.761719 43.539062 25 43.539062 "/>
<path style=" stroke:none;fill-rule:nonzero;fill:rgb(0%,0%,0%);fill-opacity:1;" d="M 30.015625 40.003906 L 30.007812 35.027344 L 29.445312 35.027344 L 29.445312 34.144531 L 30.007812 34.144531 L 30.007812 32.445312 L 31.128906 31.914062 L 31.132812 34.144531 L 31.824219 34.144531 L 31.824219 35.027344 L 31.132812 35.027344 L 31.140625 40.003906 L 30.015625 40.003906 "/>
<path style=" stroke:none;fill-rule:nonzero;fill:rgb(0%,0%,0%);fill-opacity:1;" d="M 26.304688 38.492188 C 26.304688 38.878906 26.546875 39.097656 26.878906 39.097656 C 27.210938 39.097656 27.410156 38.878906 27.410156 38.511719 L 27.410156 36.746094 C 27.410156 36.4375 27.1875 36.1875 26.878906 36.1875 C 26.492188 36.1875 26.371094 36.484375 26.304688 36.617188 L 25.238281 36.617188 L 25.238281 32.382812 L 28.191406 32.382812 L 28.191406 33.441406 L 26.304688 33.441406 L 26.304688 35.558594 C 26.515625 35.359375 26.847656 35.195312 27.242188 35.195312 C 28.003906 35.195312 28.535156 35.679688 28.535156 36.582031 L 28.535156 38.535156 C 28.535156 39.582031 27.75 40.222656 26.859375 40.222656 C 25.964844 40.222656 25.183594 39.542969 25.183594 38.496094 L 26.304688 38.492188 "/>
<path style=" stroke:none;fill-rule:nonzero;fill:rgb(0%,0%,0%);fill-opacity:1;" d="M 23.460938 38.878906 L 24.585938 38.878906 L 24.585938 40.003906 L 23.460938 41.160156 L 23.460938 38.878906 "/>
<path style=" stroke:none;fill-rule:nonzero;fill:rgb(0%,0%,0%);fill-opacity:1;" d="M 19.613281 38.015625 C 19.613281 38.507812 19.921875 38.789062 20.34375 38.789062 C 20.765625 38.789062 21.019531 38.507812 21.019531 38.046875 L 21.019531 35.796875 C 21.019531 35.40625 20.738281 35.082031 20.34375 35.082031 C 19.851562 35.082031 19.699219 35.460938 19.613281 35.628906 L 18.253906 35.628906 L 18.253906 30.238281 L 22.011719 30.238281 L 22.011719 31.585938 L 19.613281 31.585938 L 19.613281 34.28125 C 19.882812 34.027344 20.300781 33.820312 20.808594 33.820312 C 21.777344 33.820312 22.449219 34.4375 22.449219 35.585938 L 22.449219 38.074219 C 22.449219 39.40625 21.453125 40.222656 20.316406 40.222656 C 19.179688 40.222656 18.183594 39.359375 18.183594 38.023438 L 19.613281 38.015625 "/>
<path style=" stroke:none;fill-rule:nonzero;fill:rgb(0%,0%,0%);fill-opacity:1;" d="M 9.226562 28.46875 L 38.75 28.46875 L 38.75 27.746094 L 9.226562 27.746094 Z M 9.226562 28.46875 "/>
<path style=" stroke:none;fill-rule:nonzero;fill:rgb(0%,0%,0%);fill-opacity:1;" d="M 37.304688 13.703125 L 19.671875 13.703125 C 19.179688 13.703125 18.574219 14.105469 18.574219 14.597656 L 18.570312 14.613281 L 15.410156 14.613281 C 15.335938 14.613281 14.667969 14.625 14.203125 14.972656 C 13.75 15.3125 13.578125 15.804688 13.558594 15.859375 C 13.558594 15.851562 12.953125 17.566406 12.667969 18.371094 L 12.066406 18.371094 C 11.574219 18.371094 11.171875 18.769531 11.171875 19.261719 L 11.171875 24.066406 L 10.628906 24.066406 C 10.324219 24.066406 10.078125 24.3125 10.078125 24.617188 C 10.078125 24.921875 10.324219 25.167969 10.628906 25.167969 L 12.105469 25.167969 C 12.125 26.632812 13.3125 27.8125 14.78125 27.8125 C 16.25 27.8125 17.4375 26.632812 17.457031 25.167969 L 30.007812 25.167969 C 30.027344 26.632812 31.214844 27.8125 32.683594 27.8125 C 34.152344 27.8125 35.339844 26.632812 35.359375 25.167969 L 37.304688 25.167969 Z M 14.375 16.140625 C 14.378906 16.132812 14.480469 15.847656 14.722656 15.664062 C 14.921875 15.515625 15.296875 15.480469 15.414062 15.480469 C 15.410156 15.480469 17.152344 15.480469 18.355469 15.480469 L 17.632812 18.371094 L 13.585938 18.371094 L 14.375 16.140625 "/>
</g>
</svg>
