<?xml version="1.0" encoding="UTF-8"?>
<svg xmlns="http://www.w3.org/2000/svg" xmlns:xlink="http://www.w3.org/1999/xlink" width="122px" height="80px" viewBox="0 0 122 80" version="1.1">
<g id="surface1">
<path style=" stroke:none;fill-rule:nonzero;fill:rgb(0%,0%,0%);fill-opacity:1;" d="M 120.484375 1.5 C 119.503906 0.53125 118.207031 0 116.828125 0 L 5.171875 0 C 2.320312 0 0 2.300781 0 5.132812 L 0 74.867188 C 0 76.238281 0.539062 77.523438 1.515625 78.492188 C 2.496094 79.46875 3.792969 80 5.171875 80 L 116.828125 80 C 118.207031 80 119.503906 79.46875 120.484375 78.492188 C 121.460938 77.523438 122 76.238281 122 74.867188 L 122 5.132812 C 122 3.761719 121.460938 2.46875 120.484375 1.5 Z M 120.484375 1.5 "/>
<path style=" stroke:none;fill-rule:nonzero;fill:rgb(100%,100%,100%);fill-opacity:1;" d="M 120.910156 74.867188 C 120.910156 77.101562 119.078125 78.917969 116.828125 78.917969 L 5.171875 78.917969 C 4.082031 78.917969 3.058594 78.5 2.289062 77.730469 C 1.515625 76.96875 1.089844 75.949219 1.089844 74.867188 L 1.089844 5.132812 C 1.089844 4.050781 1.515625 3.03125 2.289062 2.269531 C 3.058594 1.5 4.082031 1.082031 5.171875 1.082031 L 116.828125 1.082031 C 117.917969 1.082031 118.941406 1.5 119.710938 2.269531 C 120.484375 3.03125 120.910156 4.050781 120.910156 5.132812 L 120.910156 74.867188 "/>
<path style=" stroke:none;fill-rule:nonzero;fill:rgb(0%,0%,0%);fill-opacity:1;" d="M 32.035156 46.613281 L 28.09375 44.78125 L 18.878906 64.25 L 22.824219 66.082031 L 32.035156 46.613281 "/>
<path style=" stroke:none;fill-rule:nonzero;fill:rgb(0%,0%,0%);fill-opacity:1;" d="M 40.859375 46.257812 L 36.914062 44.417969 L 27.539062 64.238281 L 31.484375 66.070312 L 40.859375 46.257812 "/>
<path style=" stroke:none;fill-rule:nonzero;fill:rgb(0%,0%,0%);fill-opacity:1;" d="M 47.886719 49.667969 L 43.945312 47.835938 L 36.207031 64.1875 L 40.152344 66.023438 L 47.886719 49.667969 "/>
<path style=" stroke:none;fill-rule:nonzero;fill:rgb(0%,0%,0%);fill-opacity:1;" d="M 54.691406 53.613281 L 50.746094 51.773438 L 44.808594 64.320312 L 48.753906 66.15625 L 54.691406 53.613281 "/>
<path style=" stroke:none;fill-rule:nonzero;fill:rgb(0%,0%,0%);fill-opacity:1;" d="M 63.601562 52.949219 L 59.65625 51.113281 L 53.394531 64.351562 L 57.339844 66.179688 L 63.601562 52.949219 "/>
<path style=" stroke:none;fill-rule:nonzero;fill:rgb(0%,0%,0%);fill-opacity:1;" d="M 74.105469 49.09375 L 70.15625 47.257812 L 62.089844 64.304688 L 66.035156 66.136719 L 74.105469 49.09375 "/>
<path style=" stroke:none;fill-rule:nonzero;fill:rgb(0%,0%,0%);fill-opacity:1;" d="M 82.722656 49.164062 L 78.777344 47.324219 L 70.714844 64.367188 L 74.65625 66.207031 L 82.722656 49.164062 "/>
<path style=" stroke:none;fill-rule:nonzero;fill:rgb(0%,0%,0%);fill-opacity:1;" d="M 91.242188 49.414062 L 87.296875 47.574219 L 79.398438 64.273438 L 83.34375 66.113281 L 91.242188 49.414062 "/>
<path style=" stroke:none;fill-rule:nonzero;fill:rgb(0%,0%,0%);fill-opacity:1;" d="M 42.289062 24.9375 L 38.34375 23.105469 L 29.132812 42.582031 L 33.078125 44.414062 L 42.289062 24.9375 "/>
<path style=" stroke:none;fill-rule:nonzero;fill:rgb(0%,0%,0%);fill-opacity:1;" d="M 51.054688 24.707031 L 47.109375 22.867188 L 37.898438 42.34375 L 41.84375 44.175781 L 51.054688 24.707031 "/>
<path style=" stroke:none;fill-rule:nonzero;fill:rgb(0%,0%,0%);fill-opacity:1;" d="M 55.796875 32.949219 L 52.890625 28.914062 L 45.253906 45.0625 L 49.199219 46.898438 L 55.796875 32.949219 "/>
<path style=" stroke:none;fill-rule:nonzero;fill:rgb(0%,0%,0%);fill-opacity:1;" d="M 62.960938 36.132812 L 58.855469 34.636719 L 51.5625 50.042969 L 55.507812 51.882812 L 62.960938 36.132812 "/>
<path style=" stroke:none;fill-rule:nonzero;fill:rgb(0%,0%,0%);fill-opacity:1;" d="M 72.015625 35.15625 L 73.960938 31.050781 L 67.03125 35.519531 L 60.804688 48.6875 L 64.75 50.523438 L 72.015625 35.15625 "/>
<path style=" stroke:none;fill-rule:nonzero;fill:rgb(0%,0%,0%);fill-opacity:1;" d="M 84.628906 26.851562 L 80.683594 25.019531 L 71.472656 44.488281 L 75.417969 46.320312 L 84.628906 26.851562 "/>
<path style=" stroke:none;fill-rule:nonzero;fill:rgb(0%,0%,0%);fill-opacity:1;" d="M 93.25 26.917969 L 89.300781 25.082031 L 80.085938 44.554688 L 84.03125 46.386719 L 93.25 26.917969 "/>
<path style=" stroke:none;fill-rule:nonzero;fill:rgb(0%,0%,0%);fill-opacity:1;" d="M 101.765625 27.167969 L 97.820312 25.332031 L 88.609375 44.804688 L 92.554688 46.636719 L 101.765625 27.167969 "/>
<path style=" stroke:none;fill-rule:nonzero;fill:rgb(100%,100%,100%);fill-opacity:1;" d="M 118.4375 13.230469 L 116.910156 13.230469 L 111.992188 13.226562 C 111.992188 13.226562 110.011719 13.226562 110.011719 13.226562 L 110.449219 14.96875 C 110.410156 15.363281 110.136719 16.019531 108.109375 16.019531 C 107.394531 16.019531 106.171875 15.917969 105.847656 15.289062 C 105.789062 14.9375 105.777344 14.769531 105.773438 14.726562 L 105.773438 13.226562 L 97.921875 13.226562 L 97.871094 14.707031 C 97.863281 14.882812 97.878906 15.15625 97.925781 15.988281 L 97.957031 16.507812 C 97.957031 16.507812 97.957031 16.539062 97.957031 16.539062 L 97.957031 16.5625 C 98.210938 19.144531 97.972656 22.488281 96.585938 24.136719 C 96.132812 24.667969 95.300781 25.375 93.222656 25.375 C 91.519531 25.375 90.277344 24.90625 89.316406 23.90625 C 86.898438 21.363281 86.835938 16.324219 86.847656 15.304688 C 86.859375 15.019531 86.859375 14.835938 86.859375 14.789062 L 86.871094 13.25 L 85.324219 13.242188 L 80.40625 13.226562 L 78.953125 13.21875 L 78.863281 14.664062 C 78.859375 14.730469 78.859375 14.789062 78.859375 14.863281 L 78.859375 15.1875 C 78.71875 18.179688 77.410156 32.757812 65.082031 32.757812 C 61.683594 32.757812 59.085938 31.757812 57.144531 29.707031 C 52.398438 24.699219 52.898438 14.945312 52.90625 14.851562 L 53.011719 13.226562 L 51.363281 13.226562 L 46.371094 13.238281 L 45.234375 13.238281 L 44.898438 14.3125 C 44.296875 16.230469 42.300781 20.695312 36.765625 20.695312 C 34.320312 20.695312 32.652344 19.875 31.667969 18.195312 C 30.839844 16.773438 30.757812 15.195312 30.75 14.738281 L 30.730469 13.226562 L 29.203125 13.226562 L 24.292969 13.230469 L 23 13.238281 L 22.773438 14.492188 C 22.585938 15.53125 21.722656 17.273438 18.066406 17.273438 C 14.367188 17.273438 13.398438 15.488281 13.148438 14.417969 L 12.878906 13.230469 L 11.644531 13.230469 L 6.671875 13.226562 L 5.023438 13.226562 L 5.128906 14.863281 C 5.398438 18.855469 9.148438 25.195312 18.066406 25.195312 C 20.976562 25.195312 23.484375 24.550781 25.546875 23.273438 C 28.03125 26.730469 31.949219 28.617188 36.765625 28.617188 C 40.292969 28.617188 43.511719 27.59375 46.195312 25.648438 C 47.28125 29.488281 48.992188 32.667969 51.304688 35.113281 C 54.792969 38.800781 59.425781 40.675781 65.082031 40.675781 C 73.347656 40.675781 79.628906 36.71875 83.386719 29.199219 C 83.417969 29.242188 83.453125 29.28125 83.492188 29.324219 C 85.996094 31.957031 89.269531 33.292969 93.222656 33.292969 C 97.195312 33.292969 100.484375 31.875 102.730469 29.195312 C 103.984375 27.699219 104.882812 25.851562 105.433594 23.6875 C 106.273438 23.851562 107.171875 23.9375 108.109375 23.9375 C 111.410156 23.9375 114.035156 22.957031 115.925781 21.011719 C 118.292969 18.574219 118.457031 15.605469 118.449219 14.75 L 118.4375 13.230469 "/>
<path style=" stroke:none;fill-rule:nonzero;fill:rgb(0%,0%,0%);fill-opacity:1;" d="M 116.910156 14.761719 L 111.992188 14.757812 C 112.003906 14.804688 112.003906 14.804688 112.003906 14.804688 C 112.003906 15.832031 111.496094 17.550781 108.109375 17.550781 C 105.628906 17.550781 104.6875 16.617188 104.355469 15.71875 C 104.230469 15 104.230469 14.757812 104.230469 14.757812 L 99.414062 14.757812 C 99.40625 14.898438 99.449219 15.523438 99.5 16.417969 C 99.726562 18.792969 99.664062 22.867188 97.769531 25.117188 C 96.753906 26.320312 95.269531 26.90625 93.222656 26.90625 C 91.09375 26.90625 89.441406 26.269531 88.195312 24.957031 C 85.40625 22.03125 85.28125 16.707031 85.304688 15.269531 C 85.3125 14.988281 85.316406 14.8125 85.316406 14.773438 L 80.402344 14.757812 C 80.402344 14.804688 80.402344 14.882812 80.402344 15.230469 C 80.261719 18.320312 78.878906 34.28125 65.082031 34.28125 C 61.238281 34.28125 58.273438 33.132812 56.019531 30.757812 C 50.777344 25.230469 51.363281 14.863281 51.367188 14.757812 L 46.378906 14.769531 C 45.8125 16.554688 43.5 22.226562 36.765625 22.226562 C 29.671875 22.226562 29.222656 16.007812 29.207031 14.757812 L 24.292969 14.761719 C 24.097656 15.8125 23.105469 18.804688 18.066406 18.804688 C 13.0625 18.804688 11.90625 15.886719 11.644531 14.761719 L 6.671875 14.757812 C 6.878906 17.78125 9.871094 23.664062 18.066406 23.664062 C 21.695312 23.664062 24.242188 22.554688 25.980469 21.0625 C 28.0625 24.949219 31.878906 27.085938 36.765625 27.085938 C 41.40625 27.085938 44.773438 25.226562 47.109375 22.851562 C 47.84375 26.554688 49.363281 30.820312 52.433594 34.070312 C 55.613281 37.4375 59.871094 39.144531 65.082031 39.144531 C 73.367188 39.144531 79.511719 34.824219 82.851562 26.648438 C 82.914062 26.492188 82.972656 26.335938 83.035156 26.1875 C 83.480469 26.925781 84.007812 27.632812 84.613281 28.273438 C 86.816406 30.585938 89.714844 31.761719 93.222656 31.761719 C 96.722656 31.761719 99.601562 30.539062 101.546875 28.210938 C 103.125 26.332031 103.902344 24 104.253906 21.78125 C 105.375 22.195312 106.667969 22.40625 108.109375 22.40625 C 110.976562 22.40625 113.226562 21.582031 114.8125 19.957031 C 116.808594 17.898438 116.910156 15.351562 116.910156 14.761719 "/>
</g>
</svg>
