<?xml version="1.0" encoding="UTF-8"?>
<svg xmlns="http://www.w3.org/2000/svg" xmlns:xlink="http://www.w3.org/1999/xlink" width="50px" height="50px" viewBox="0 0 50 50" version="1.1">
<g id="surface1">
<path style=" stroke:none;fill-rule:nonzero;fill:rgb(9.019608%,43.529412%,75.686276%);fill-opacity:1;" d="M 0 25 C 0 11.191406 11.191406 0 25 0 C 38.808594 0 50 11.191406 50 25 C 50 38.808594 38.808594 50 25 50 C 11.191406 50 0 38.808594 0 25 "/>
<path style=" stroke:none;fill-rule:nonzero;fill:rgb(100%,100%,100%);fill-opacity:1;" d="M 22.476562 24.125 C 21.640625 23.289062 20.527344 22.828125 19.34375 22.828125 C 18.777344 22.828125 18.238281 22.9375 17.738281 23.132812 L 16.710938 20.851562 L 17.125 20.191406 C 17.851562 20.339844 18.570312 20.484375 18.609375 20.484375 C 19.015625 20.484375 19.34375 20.152344 19.34375 19.746094 C 19.34375 19.34375 19.015625 19.011719 18.609375 19.011719 C 18.589844 19.011719 15.578125 19.015625 15.578125 19.015625 C 15.34375 19.015625 15.148438 19.207031 15.148438 19.445312 C 15.148438 19.683594 15.34375 19.875 15.578125 19.875 L 15.578125 19.878906 C 15.578125 19.878906 16.027344 19.96875 16.582031 20.082031 L 16.25 20.609375 L 8.445312 20.609375 C 8.648438 20.003906 8.78125 19.605469 8.78125 19.605469 C 8.78125 19.597656 8.785156 19.589844 8.785156 19.582031 C 8.789062 19.574219 8.789062 19.566406 8.789062 19.558594 C 8.792969 19.550781 8.789062 19.546875 8.792969 19.539062 C 8.792969 19.53125 8.792969 19.523438 8.792969 19.515625 C 8.792969 19.507812 8.789062 19.5 8.789062 19.492188 C 8.789062 19.484375 8.785156 19.480469 8.785156 19.472656 C 8.78125 19.464844 8.78125 19.457031 8.777344 19.453125 C 8.773438 19.445312 8.773438 19.4375 8.769531 19.429688 C 8.765625 19.425781 8.761719 19.417969 8.757812 19.414062 C 8.753906 19.40625 8.75 19.398438 8.746094 19.394531 C 8.742188 19.390625 8.738281 19.382812 8.730469 19.378906 C 8.726562 19.371094 8.722656 19.367188 8.714844 19.363281 C 8.710938 19.355469 8.703125 19.351562 8.699219 19.347656 C 8.691406 19.34375 8.6875 19.339844 8.679688 19.335938 C 8.675781 19.332031 8.667969 19.328125 8.660156 19.324219 C 8.652344 19.324219 8.648438 19.320312 8.640625 19.316406 L 7.367188 18.875 L 7.75 17.875 L 10.816406 17.839844 L 11.722656 18.660156 C 11.816406 18.746094 11.960938 18.738281 12.046875 18.644531 C 12.128906 18.550781 12.121094 18.410156 12.03125 18.324219 L 11.054688 17.441406 L 10.988281 17.382812 L 10.902344 17.382812 L 7.589844 17.421875 L 7.433594 17.421875 L 6.777344 19.148438 L 6.996094 19.226562 L 8.277344 19.671875 L 7.125 23.132812 C 6.617188 22.933594 6.074219 22.828125 5.511719 22.828125 C 3.070312 22.828125 1.082031 24.816406 1.082031 27.261719 C 1.082031 28.441406 1.542969 29.554688 2.378906 30.394531 C 3.21875 31.230469 4.328125 31.691406 5.511719 31.691406 C 6.695312 31.691406 7.808594 31.230469 8.644531 30.394531 C 9.484375 29.554688 9.945312 28.441406 9.945312 27.261719 C 9.945312 26.078125 9.484375 24.964844 8.644531 24.125 C 8.316406 23.796875 7.945312 23.527344 7.542969 23.320312 C 7.648438 22.996094 7.757812 22.671875 7.863281 22.355469 L 11.234375 25.953125 C 11 26.238281 10.863281 26.605469 10.863281 27 C 10.863281 27.445312 11.035156 27.863281 11.347656 28.175781 C 11.664062 28.492188 12.082031 28.664062 12.527344 28.664062 C 12.59375 28.664062 12.660156 28.660156 12.722656 28.652344 L 12.804688 29.023438 L 12.265625 29.023438 L 12.265625 29.542969 L 13.761719 29.542969 L 13.761719 29.023438 L 13.074219 29.023438 L 12.976562 28.601562 C 13.25 28.523438 13.5 28.382812 13.703125 28.175781 C 13.949219 27.933594 14.105469 27.625 14.164062 27.289062 L 14.914062 27.320312 C 14.929688 28.480469 15.390625 29.570312 16.210938 30.394531 C 17.046875 31.230469 18.160156 31.691406 19.34375 31.691406 C 20.527344 31.691406 21.640625 31.230469 22.476562 30.394531 C 23.316406 29.554688 23.777344 28.441406 23.777344 27.261719 C 23.777344 26.078125 23.316406 24.964844 22.476562 24.125 Z M 8.09375 24.675781 C 8.785156 25.367188 9.164062 26.285156 9.164062 27.261719 C 9.164062 29.273438 7.527344 30.910156 5.511719 30.910156 C 4.539062 30.910156 3.621094 30.53125 2.929688 29.839844 C 2.242188 29.152344 1.863281 28.234375 1.863281 27.261719 C 1.863281 26.285156 2.242188 25.367188 2.929688 24.675781 C 3.621094 23.988281 4.539062 23.609375 5.511719 23.609375 C 5.988281 23.609375 6.449219 23.699219 6.878906 23.871094 L 6.078125 26.277344 C 6.015625 26.445312 5.777344 26.917969 5.433594 27.046875 C 5.316406 27.089844 5.257812 27.222656 5.300781 27.339844 C 5.34375 27.457031 5.476562 27.515625 5.59375 27.472656 C 6.203125 27.242188 6.496094 26.460938 6.503906 26.429688 C 6.507812 26.425781 6.863281 25.359375 7.292969 24.070312 C 7.582031 24.234375 7.851562 24.4375 8.09375 24.675781 Z M 17.324219 23.320312 C 16.003906 24 15.070312 25.316406 14.933594 26.863281 L 14.183594 26.835938 C 14.144531 26.453125 13.980469 26.097656 13.703125 25.824219 C 13.675781 25.796875 13.648438 25.773438 13.621094 25.75 L 16.421875 21.3125 Z M 17.640625 24.027344 L 18.988281 27.019531 L 15.710938 26.894531 C 15.792969 26.058594 16.160156 25.28125 16.761719 24.675781 C 17.027344 24.414062 17.324219 24.195312 17.640625 24.027344 Z M 12.203125 26.320312 L 11.835938 25.929688 C 11.914062 25.878906 12 25.835938 12.085938 25.804688 Z M 12.339844 25.742188 C 12.402344 25.730469 12.464844 25.726562 12.527344 25.726562 C 12.679688 25.726562 12.832031 25.753906 12.972656 25.804688 L 12.515625 26.53125 Z M 13.410156 26.082031 C 13.417969 26.089844 13.421875 26.09375 13.425781 26.097656 C 13.625 26.296875 13.75 26.546875 13.785156 26.820312 L 12.964844 26.789062 Z M 8.273438 21.128906 L 15.921875 21.128906 L 13.183594 25.472656 C 12.980469 25.382812 12.757812 25.335938 12.527344 25.335938 C 12.433594 25.335938 12.34375 25.34375 12.253906 25.359375 L 12.066406 24.53125 L 12.65625 24.53125 L 12.65625 24.011719 L 11.164062 24.53125 L 11.800781 24.53125 L 12 25.421875 C 11.84375 25.472656 11.699219 25.550781 11.566406 25.644531 L 8.027344 21.863281 C 8.113281 21.609375 8.195312 21.359375 8.273438 21.128906 Z M 12.527344 28.273438 C 12.1875 28.273438 11.867188 28.140625 11.625 27.902344 C 11.386719 27.660156 11.253906 27.339844 11.253906 27 C 11.253906 26.722656 11.339844 26.460938 11.503906 26.242188 L 12.359375 27.15625 L 12.398438 27.195312 L 12.636719 28.269531 C 12.601562 28.273438 12.5625 28.273438 12.527344 28.273438 Z M 12.894531 28.21875 L 12.671875 27.234375 L 13.769531 27.273438 C 13.671875 27.726562 13.332031 28.089844 12.894531 28.21875 Z M 19.34375 30.910156 C 18.371094 30.910156 17.453125 30.53125 16.761719 29.839844 C 16.09375 29.171875 15.71875 28.289062 15.695312 27.347656 L 19.335938 27.488281 L 19.5625 27.453125 L 19.550781 27.167969 L 18.058594 23.84375 C 18.464844 23.6875 18.898438 23.609375 19.34375 23.609375 C 20.320312 23.609375 21.238281 23.988281 21.925781 24.675781 C 22.617188 25.367188 22.996094 26.285156 22.996094 27.261719 C 22.996094 29.273438 21.359375 30.910156 19.34375 30.910156 "/>
<path style=" stroke:none;fill-rule:nonzero;fill:rgb(100%,100%,100%);fill-opacity:1;" d="M 45.066406 31.390625 C 45.066406 31.390625 45.066406 30.289062 44.789062 29.140625 C 44.585938 28.285156 44.097656 27.457031 43.863281 27.089844 C 43.835938 27.019531 43.796875 26.953125 43.734375 26.890625 L 43.304688 26.804688 C 43.910156 26.519531 44.324219 25.90625 44.324219 25.191406 C 44.324219 24.207031 43.527344 23.40625 42.539062 23.40625 C 41.554688 23.40625 40.753906 24.207031 40.753906 25.191406 C 40.753906 25.808594 40.871094 26.433594 41.34375 26.753906 C 41.5 26.859375 41.726562 26.914062 41.964844 26.945312 L 41.621094 26.984375 C 41.621094 26.984375 41.648438 26.984375 41.601562 27.089844 C 41.363281 27.152344 40.84375 27.230469 39.875 27.074219 C 38.929688 26.921875 38.59375 26.285156 38.472656 25.871094 C 38.546875 25.800781 38.621094 25.722656 38.683594 25.636719 C 38.988281 25.207031 38.804688 24.59375 38.40625 24.320312 C 38.269531 24.222656 38.164062 24.113281 38.085938 24.007812 C 38.242188 23.722656 38.316406 23.492188 38.316406 23.492188 C 37.976562 22.542969 37.152344 20.125 37.152344 20.125 C 36.9375 18.074219 36.9375 15.503906 36.9375 15.503906 C 36.9375 15.503906 36.992188 15.0625 36.386719 14.675781 C 34.929688 13.753906 33.808594 13.378906 33.371094 13.257812 L 33.320312 12.675781 C 33.710938 12.359375 34.003906 11.851562 34.164062 11.304688 C 34.171875 11.277344 34.179688 11.25 34.1875 11.222656 C 34.597656 11.285156 34.898438 11.324219 35.007812 11.324219 C 35.46875 11.324219 35.421875 10.957031 34.824219 10.632812 C 34.648438 10.539062 34.496094 10.46875 34.339844 10.414062 C 34.382812 10.15625 34.5 9.507812 34.570312 9.144531 C 34.664062 8.683594 34.113281 8.570312 33.652344 8.683594 C 33.195312 8.796875 32.597656 8.523438 32.34375 8.363281 C 32.09375 8.199219 31.953125 8.269531 31.75 8.5 C 31.578125 8.6875 31.269531 9.582031 31.164062 9.902344 L 30.09375 9.855469 C 30.09375 9.855469 29.128906 10.175781 29.910156 10.40625 C 30.109375 10.464844 30.503906 10.550781 30.988281 10.648438 C 30.972656 10.722656 30.957031 10.796875 30.949219 10.871094 C 30.851562 11.589844 31.101562 12.261719 31.558594 12.648438 L 31.453125 13.0625 C 31.183594 13.183594 30.578125 13.46875 29.269531 14.125 C 28.117188 14.703125 27.699219 15.101562 27.5625 15.34375 L 27.539062 15.289062 C 27.539062 15.289062 26.652344 19.144531 26.621094 21.257812 C 26.589844 23.371094 26.589844 25.359375 26.589844 25.359375 L 27.097656 25.359375 C 27 25.871094 26.941406 26.378906 27.046875 26.890625 C 27.078125 27.105469 27.261719 27.351562 27.476562 27.410156 C 27.753906 27.472656 27.753906 27.382812 28.027344 27.382812 C 28.027344 27.320312 28.476562 27.132812 28.488281 27.105469 C 28.578125 26.890625 28.671875 26.554688 28.363281 26.125 C 28.199219 25.890625 28.152344 25.820312 28.058594 25.542969 C 28.042969 25.488281 27.996094 25.425781 27.949219 25.359375 L 28.273438 25.359375 C 28.273438 25.359375 28.273438 25.207031 28.425781 22.851562 C 28.574219 20.582031 28.578125 20.722656 29.070312 19.125 L 29.160156 19.328125 C 30.109375 22.789062 29.34375 23.460938 29.007812 24.503906 C 28.945312 24.699219 28.824219 25.941406 29.101562 26.035156 C 29.195312 26.066406 29.304688 26.09375 29.429688 26.113281 C 29.394531 26.867188 29.394531 28.222656 29.589844 30.441406 C 29.925781 34.300781 30.539062 36.183594 30.417969 37.132812 C 30.417969 37.132812 28.703125 37.085938 29.128906 38.15625 C 29.558594 39.230469 30.539062 39.71875 30.539062 39.71875 L 30.785156 39.6875 L 30.90625 39.996094 L 31.425781 40.300781 C 31.425781 40.300781 31.855469 40.453125 32.101562 40.117188 C 32.34375 39.78125 32.285156 39.535156 32.285156 39.535156 L 32.46875 38.738281 C 32.46875 38.738281 32.46875 35.25 32.070312 33.226562 C 31.671875 31.207031 31.855469 30.105469 32.007812 29.25 C 32.066406 28.929688 32.1875 28.691406 32.3125 28.519531 C 32.585938 29.128906 32.914062 29.804688 33.296875 30.5 C 33.371094 31.898438 33.539062 35.441406 33.417969 36.902344 C 33.40625 37.007812 33.402344 37.105469 33.398438 37.191406 L 32.988281 37.5 C 32.988281 37.5 32.941406 38.003906 33.078125 38.097656 C 33.21875 38.1875 33.261719 38.554688 33.261719 38.554688 C 33.261719 38.554688 33.722656 39.015625 34.089844 39.613281 C 34.457031 40.207031 35.191406 40.164062 35.46875 40.070312 C 35.742188 39.976562 35.699219 40.347656 35.652344 39.425781 C 35.617188 38.75 35.230469 38.070312 35.035156 37.761719 C 35.386719 37.71875 35.695312 37.660156 35.742188 37.574219 C 35.851562 37.390625 35.839844 32.289062 35.835938 30.988281 C 35.855469 30.96875 35.867188 30.960938 35.867188 30.960938 C 35.867188 30.960938 36.089844 27.761719 34.65625 25.769531 C 34.984375 25.710938 35.25 25.675781 35.375 25.542969 C 35.65625 25.253906 35.5 24.808594 35.5 24.808594 C 35.5 24.808594 35.410156 24.695312 35.070312 23.644531 C 34.367188 21.472656 35.160156 19.085938 35.160156 19.085938 C 35.160156 19.085938 35.4375 21.105469 35.683594 21.871094 C 35.925781 22.636719 37.121094 24.960938 37.121094 24.960938 C 37.199219 24.929688 37.273438 24.890625 37.339844 24.84375 C 37.335938 25 37.328125 25.164062 37.304688 25.300781 C 37.242188 25.667969 37.242188 25.757812 37.550781 26.035156 C 37.601562 26.082031 37.660156 26.113281 37.722656 26.132812 C 37.691406 26.566406 37.707031 27.417969 38.222656 28.222656 C 38.480469 28.628906 39.414062 28.949219 40.152344 29.148438 C 38.742188 30.929688 37.351562 31.941406 37.351562 31.941406 C 37.351562 31.941406 37.628906 32.5 38.292969 33.035156 C 38.183594 34.03125 37.996094 36.046875 38.132812 36.992188 C 38.316406 38.28125 38.453125 37.316406 38.542969 37.957031 C 38.546875 37.972656 38.550781 37.988281 38.550781 38.003906 C 38.390625 37.980469 38.242188 38.011719 38.128906 38.105469 C 37.851562 38.332031 37.894531 38.84375 38.226562 39.246094 C 38.558594 39.644531 39.050781 39.785156 39.328125 39.554688 C 39.402344 39.496094 39.453125 39.410156 39.480469 39.316406 L 39.507812 39.335938 C 39.507812 39.335938 39.648438 38.832031 39.554688 38.1875 C 39.46875 37.578125 39.339844 36.726562 40.101562 34.226562 C 40.121094 34.875 40.191406 35.644531 40.382812 36.027344 C 40.75 36.765625 40.976562 36.765625 41.253906 37.175781 C 41.449219 37.46875 41.414062 37.984375 41.378906 38.265625 C 40.980469 38.578125 40.800781 38.9375 40.886719 39.105469 C 41.179688 39.691406 41.640625 39.371094 42.109375 39.042969 C 42.417969 38.828125 42.617188 38.539062 42.660156 38.28125 L 42.675781 38.28125 C 42.675781 38.28125 43.367188 38.464844 42.355469 36.902344 C 41.761719 35.984375 41.804688 35.570312 42.035156 34.742188 C 42.140625 34.355469 42.242188 34.058594 42.3125 33.851562 C 42.535156 33.808594 42.761719 33.753906 43 33.6875 C 43 33.6875 42.585938 32.632812 42.722656 31.4375 C 42.777344 30.96875 42.9375 30.332031 43.109375 29.730469 C 43.808594 30.082031 43.953125 30.925781 43.824219 31.34375 C 43.710938 31.71875 43.601562 32.03125 43.5625 32.136719 C 43.269531 32.230469 43.050781 32.558594 43.050781 32.953125 C 43.050781 33.417969 43.355469 33.796875 43.734375 33.796875 C 44.109375 33.796875 44.414062 33.417969 44.414062 32.953125 C 44.414062 32.820312 44.390625 32.695312 44.347656 32.585938 C 44.980469 32.082031 45.066406 31.390625 45.066406 31.390625 "/>
<path style=" stroke:none;fill-rule:nonzero;fill:rgb(100%,100%,100%);fill-opacity:1;" d="M 24.640625 0.511719 L 24.640625 49.488281 C 24.640625 49.6875 24.800781 49.847656 25 49.847656 C 25.199219 49.847656 25.359375 49.6875 25.359375 49.488281 L 25.359375 0.511719 C 25.359375 0.3125 25.199219 0.148438 25 0.148438 C 24.800781 0.148438 24.640625 0.3125 24.640625 0.511719 "/>
</g>
</svg>
