<svg height="50pt" viewBox="0 0 66 50" width="66pt" xmlns="http://www.w3.org/2000/svg" xmlns:xlink="http://www.w3.org/1999/xlink"><clipPath id="a"><path d="m13.726562 6.929688h6.179688v9.421874h-6.179688zm0 0"/></clipPath><clipPath id="b"><path d="m21.003906 6.929688h1.507813v1.523437h-1.507813zm0 0"/></clipPath><clipPath id="c"><path d="m21.003906 9.5625h1.507813v6.789062h-1.507813zm0 0"/></clipPath><clipPath id="d"><path d="m24.160156 9.5625h5.628906v6.929688h-5.628906zm0 0"/></clipPath><clipPath id="e"><path d="m31 6.929688h3.453125v9.421874h-3.453125zm0 0"/></clipPath><clipPath id="f"><path d="m35.414062 9.5625h5.585938v6.929688h-5.585938zm0 0"/></clipPath><clipPath id="g"><path d="m42.691406 9.5625h4.53125v6.789062h-4.53125zm0 0"/></clipPath><clipPath id="h"><path d="m48.046875 11.917969h4.117187v1.523437h-4.117187zm0 0"/></clipPath><clipPath id="i"><path d="m10.296875 22.867188h6.039063v6.789062h-6.039063zm0 0"/></clipPath><clipPath id="j"><path d="m17.296875 22.867188h5.488281v6.925781h-5.488281zm0 0"/></clipPath><clipPath id="k"><path d="m24.570312 22.867188h4.53125v6.789062h-4.53125zm0 0"/></clipPath><clipPath id="l"><path d="m30 20.234375h5.828125v9.421875h-5.828125zm0 0"/></clipPath><clipPath id="m"><path d="m36.515625 22.867188h5.625v6.925781h-5.625zm0 0"/></clipPath><clipPath id="n"><path d="m43.789062 20.234375h5.492188v9.421875h-5.492188zm0 0"/></clipPath><clipPath id="o"><path d="m51.066406 22.867188h4.664063v6.789062h-4.664063zm0 0"/></clipPath><clipPath id="p"><path d="m23.746094 33.535156h3.433594v9.464844h-3.433594zm0 0"/></clipPath><clipPath id="q"><path d="m28.414062 36.167969h4.585938v6.832031h-4.585938zm0 0"/></clipPath><clipPath id="r"><path d="m33.632812 36.167969h5.488282v6.929687h-5.488282zm0 0"/></clipPath><clipPath id="s"><path d="m40.90625 33.535156h1.375v1.464844h-1.375zm0 0"/></clipPath><clipPath id="t"><path d="m40.90625 36.308594h1.375v6.691406h-1.375zm0 0"/></clipPath><path d="m4.417969.0546875c-2.40625 0-4.3632815 1.9765625-4.3632815 4.4062505v41.078124c0 2.429688 1.9570315 4.40625 4.3632815 4.40625h57.164062c2.40625 0 4.363281-1.976562 4.363281-4.40625v-41.078124c0-2.429688-1.957031-4.4062505-4.363281-4.4062505zm0 0" fill="#fff"/><path d="m4.417969 1.132812c-1.820313 0-3.296875 1.488282-3.296875 3.328126v41.078124c0 1.839844 1.476562 3.328126 3.296875 3.328126h57.164062c1.820313 0 3.296875-1.488282 3.296875-3.328126v-41.078124c0-1.839844-1.476562-3.328126-3.296875-3.328126zm0 1.664063h57.164062c.910157 0 1.648438.746094 1.648438 1.664063v41.078124c0 .921876-.738281 1.664063-1.648438 1.664063h-57.164062c-.910157 0-1.648438-.742187-1.648438-1.664063v-41.078124c0-.917969.738281-1.664063 1.648438-1.664063zm0 0"/><path d="m4.417969 0c-2.433594 0-4.417969 2-4.417969 4.460938v41.078124c0 2.457032 1.984375 4.460938 4.417969 4.460938h57.164062c2.433594 0 4.417969-2.003906 4.417969-4.460938v-41.078124c0-2.460938-1.984375-4.460938-4.417969-4.460938zm0 .0546875h57.164062c2.40625 0 4.363281 1.9765625 4.363281 4.4062505v41.078124c0 2.429688-1.957031 4.40625-4.363281 4.40625h-57.164062c-2.40625 0-4.3632815-1.976562-4.3632815-4.40625v-41.078124c0-2.429688 1.9570315-4.4062505 4.3632815-4.4062505zm0 0"/><g clip-path="url(#a)"><path d="m13.859375 16.324219v-9.328125h1.402344v7.996094h4.539062v1.332031" fill="#231f20"/></g><g clip-path="url(#b)"><path d="m21.117188 6.996094h1.320312v1.332031h-1.320312zm0 0" fill="#231f20"/></g><g clip-path="url(#c)"><path d="m21.117188 16.324219v-6.664063h1.320312v6.664063" fill="#231f20"/></g><g clip-path="url(#d)"><path d="m25.574219 12.324219h2.804687c0-.78125-.628906-1.414063-1.402344-1.414063-.773437 0-1.402343.632813-1.402343 1.414063zm4.125 1.167969h-4.125v.167968c0 .578125.351562 1.097656.882812 1.3125.730469.296875 1.570313.089844 2.085938-.515625l1 .867188c-.882813 1.039062-2.320313 1.394531-3.578125.886719-1.03125-.417969-1.710938-1.429688-1.710938-2.550782v-1.335937c0-1.515625 1.21875-2.746094 2.722656-2.746094 1.503907 0 2.722657 1.230469 2.722657 2.746094" fill="#231f20"/></g><g clip-path="url(#e)"><path d="m31.679688 16.324219v-5.582031h-.660157v-1.082032h.660157v-1c0-.917968.738281-1.664062 1.648437-1.664062h.992187v1.25h-.90625c-.230468 0-.414062.1875-.414062.414062v1h1.320312v1.082032h-1.320312v5.582031" fill="#231f20"/></g><g clip-path="url(#f)"><path d="m36.792969 12.324219h2.804687c0-.78125-.625-1.414063-1.402344-1.414063-.773437 0-1.402343.632813-1.402343 1.414063zm4.125 1.167969h-4.125v.167968c0 .578125.351562 1.097656.882812 1.3125.734375.296875 1.574219.089844 2.085938-.515625l1.003906.867188c-.882813 1.039062-2.320313 1.394531-3.578125.886719-1.035156-.417969-1.710938-1.429688-1.710938-2.550782v-1.335937c0-1.515625 1.214844-2.746094 2.71875-2.746094 1.503907 0 2.722657 1.230469 2.722657 2.746094" fill="#231f20"/></g><g clip-path="url(#g)"><path d="m42.734375 16.324219v-6.664063h1.320313v.753906c.773437-.96875 2.175781-1.117187 3.132812-.335937l-.9375 1.167969c-.542969-.488282-1.378906-.441406-1.863281.113281-.214844.242187-.332031.558594-.332031.882813v4.082031" fill="#231f20"/></g><g clip-path="url(#h)"><path d="m48.179688 11.992188h3.960937v1.332031h-3.960937zm0 0" fill="#231f20"/></g><g clip-path="url(#i)"><path d="m12.785156 29.648438-2.390625-6.660157h1.402344l1.566406 4.664063 1.566407-4.664063h1.402343l-2.390625 6.660157" fill="#231f20"/></g><g clip-path="url(#j)"><path d="m18.644531 25.652344h2.804688c0-.78125-.628907-1.414063-1.402344-1.414063s-1.402344.632813-1.402344 1.414063zm4.125 1.164062h-4.125v.167969c0 .582031.347657 1.101563.878907 1.3125.734374.296875 1.574218.089844 2.089843-.515625l1 .871094c-.878906 1.035156-2.320312 1.390625-3.578125.882812-1.035156-.417968-1.710937-1.425781-1.710937-2.550781v-1.332031c0-1.519532 1.21875-2.75 2.722656-2.75s2.722656 1.230468 2.722656 2.75" fill="#231f20"/></g><g clip-path="url(#k)"><path d="m24.585938 29.648438v-6.660157h1.316406v.75c.777344-.964843 2.175781-1.117187 3.136718-.335937v.003906l-.9375 1.167969c-.542968-.488281-1.378906-.441407-1.863281.109375-.214843.242187-.335937.558594-.335937.886718v4.078126" fill="#231f20"/></g><g clip-path="url(#l)"><path d="m30.027344 29.648438v-9.328126h1.324218v5.832032l2.554688-3.164063h1.570312l-2.230468 2.582031 2.558594 4.078126h-1.648438l-1.734375-3.082032-1.070313 1.167969v1.914063" fill="#231f20"/></g><g clip-path="url(#m)"><path d="m37.949219 25.652344h2.804687c0-.78125-.625-1.414063-1.402344-1.414063-.773437 0-1.402343.632813-1.402343 1.414063zm4.125 1.164062h-4.125v.167969c0 .582031.351562 1.101563.882812 1.3125.734375.296875 1.570313.089844 2.085938-.515625l1.003906.871094c-.886719 1.035156-2.324219 1.390625-3.582031.882812-1.03125-.417968-1.710938-1.425781-1.710938-2.550781v-1.332031c0-1.519532 1.21875-2.75 2.722656-2.75 1.503907 0 2.722657 1.230468 2.722657 2.75" fill="#231f20"/></g><g clip-path="url(#n)"><path d="m43.890625 29.648438v-9.328126h1.320313v3.417969c.773437-.964843 2.171874-1.117187 3.132812-.335937.519531.429687.824219 1.070312.824219 1.75v4.496094h-1.316407v-4.078126c0-.738281-.59375-1.332031-1.320312-1.332031-.730469 0-1.320312.59375-1.320312 1.332031v4.078126" fill="#231f20"/></g><g clip-path="url(#o)"><path d="m51.148438 29.648438v-6.660157h1.320312v.75c.773438-.964843 2.175781-1.117187 3.132812-.335937 0 0 0 .003906.003907.003906l-.9375 1.167969c-.546875-.488281-1.378907-.441407-1.863281.109375-.214844.242187-.335938.558594-.335938.886718v4.078126" fill="#231f20"/></g><g clip-path="url(#p)"><path d="m24.417969 42.976562v-5.582031h-.660157v-1.082031h.660157v-1c0-.917969.738281-1.664062 1.652343-1.664062h.988282v1.25h-.90625c-.226563 0-.414063.183593-.414063.414062v1h1.320313v1.082031h-1.320313v5.582031" fill="#231f20"/></g><g clip-path="url(#q)"><path d="m28.542969 42.976562v-6.664062h1.320312v.75c.773438-.960938 2.175781-1.113281 3.132813-.332031h.003906l-.9375 1.167969c-.546875-.488282-1.378906-.4375-1.863281.109374-.214844.246094-.335938.558594-.335938.886719v4.082031" fill="#231f20"/></g><g clip-path="url(#r)"><path d="m34.980469 38.980469h2.804687c0-.785157-.628906-1.417969-1.402344-1.417969-.773437 0-1.402343.632812-1.402343 1.417969zm4.125 1.164062h-4.125v.167969c0 .578125.347656 1.097656.882812 1.3125.730469.296875 1.570313.089844 2.085938-.515625l1 .867187c-.882813 1.039063-2.320313 1.394532-3.578125.886719-1.035156-.417969-1.710938-1.425781-1.710938-2.550781v-1.332031c0-1.519531 1.21875-2.75 2.722656-2.75 1.503907 0 2.722657 1.230469 2.722657 2.75" fill="#231f20"/></g><g clip-path="url(#s)"><path d="m40.917969 33.648438h1.320312v1.332031h-1.320312zm0 0" fill="#231f20"/></g><g clip-path="url(#t)"><path d="m40.917969 42.976562v-6.664062h1.320312v6.664062" fill="#231f20"/></g></svg>