<svg height="50pt" viewBox="0 0 66 50" width="66pt" xmlns="http://www.w3.org/2000/svg"><path d="m4.398438.03125c-2.40625 0-4.3632818 1.980469-4.3632818 4.414062v41.109376c0 2.433593 1.9570318 4.414062 4.3632818 4.414062h57.203124c2.40625 0 4.367188-1.980469 4.367188-4.414062v-41.109376c0-2.433593-1.960938-4.414062-4.367188-4.414062" fill="#fff"/><path d="m4.398438 49.933594c-2.390626 0-4.3320318-1.960938-4.3320318-4.378906v-41.109376c0-2.414062 1.9414058-4.3789058 4.3320318-4.3789058h57.203124c2.390626 0 4.332032 1.9648438 4.332032 4.3789058v41.109376c0 2.417968-1.941406 4.378906-4.332032 4.378906zm57.203124-49.933594h-57.203124c-2.429688 0-4.398438 1.988281-4.398438 4.445312v41.109376c0 2.457031 1.96875 4.445312 4.398438 4.445312h57.203124c2.429688 0 4.398438-1.988281 4.398438-4.445312v-41.109376c0-2.457031-1.96875-4.445312-4.398438-4.445312"/><path d="m4.398438 1.109375c-1.820313 0-3.296876 1.492187-3.296876 3.335937v41.109376c0 1.839843 1.476563 3.335937 3.296876 3.335937h57.203124c1.820313 0 3.300782-1.496094 3.300782-3.335937v-41.109376c0-1.84375-1.480469-3.335937-3.300782-3.335937zm0 1.667969h57.203124c.910157 0 1.648438.746094 1.648438 1.667968v41.109376c0 .921874-.738281 1.667968-1.648438 1.667968h-57.203124c-.910157 0-1.648438-.746094-1.648438-1.667968v-41.109376c0-.921874.738281-1.667968 1.648438-1.667968zm0 0"/><path d="m19.09375 6.167969c-.847656 0-1.597656.554687-1.847656 1.375l-1.40625 4.585937c-2.257813-.460937-4.523438.746094-5.421875 2.886719-1.039063 2.488281.113281 5.355469 2.574219 6.410156 2.460937 1.050781 5.300781-.109375 6.34375-2.597656 1.039062-2.488281-.109376-5.355469-2.570313-6.40625l.382813-1.257813 5.722656 6.414063c.183594.203125.445312.324219.71875.324219h2.035156c.035156.179687.085938.359375.140625.535156.828125 2.566406 3.558594 3.972656 6.101563 3.132812 2.542968-.835937 3.929687-3.597656 3.101562-6.164062s-3.558594-3.96875-6.101562-3.132812l-1.40625-3.175782.367187-.976562h1.085937v-.976563h-4.113281c-.109375 0-.210937.078125-.234375.1875-.03125.128907.046875.261719.175782.292969l2.050781.496094-.363281.976562h-8.648438l.390625-1.265625c.125-.410156.5-.6875.921875-.6875h1.59375v-.976562zm-1.613281 3.910156h8.585937l-2.523437 6.792969zm9.5.324219 1.003906 2.265625c-1.519531.867187-2.457031 2.496093-2.457031 4.253906h-.96875zm-12.078125 2.609375c.214844 0 .429687.019531.648437.058593l-1.132812 3.707032c-.082031.257812.0625.53125.316406.613281.257813.078125.527344-.066406.605469-.324219l1.136718-3.707031c1.949219.890625 2.8125 3.210937 1.929688 5.175781-.882812 1.96875-3.179688 2.839844-5.125 1.949219-1.949219-.890625-2.816406-3.207031-1.929688-5.179687.636719-1.421876 2.042969-2.304688 3.550782-2.292969zm15.132812.011719c1.796875-.15625 3.511719.972656 4.042969 2.785156.609375 2.070312-.558594 4.25-2.605469 4.863281-2.050781.613281-4.207031-.566406-4.816406-2.636719-.011719-.042968-.027344-.089844-.039062-.132812h3.992187c.269531 0 .484375-.222656.484375-.492188 0-.066406-.015625-.136718-.042969-.199218l-1.785156-4.039063c.253906-.078125.515625-.125.769531-.148437zm-1.65625.542968 1.484375 3.355469h-3.367187c0-1.375.714844-2.648437 1.882812-3.355469zm0 0"/><path d="m28.050781 39.25v-.839844h-1.074219v-.785156c0-.398438.191407-.632812.597657-.632812h.476562v-.9375h-.679687c-1.011719 0-1.480469.730468-1.480469 1.515624v.839844h-.617187v.839844h.617187v4.519531h1.085937v-4.519531zm0 0"/><path d="m33.003906 38.765625c-.371094-.375-.765625-.515625-1.285156-.515625-.609375 0-1.164062.269531-1.441406.65625v-.59375h-1.0625v5.457031h1.085937v-3.316406c0-.75.488281-1.226563 1.074219-1.226563.375 0 .566406.121094.808594.367188zm0 0"/><path d="m38.175781 41.359375v-.484375c0-1.550781-.839843-2.625-2.289062-2.625-1.386719 0-2.289063 1.019531-2.289063 2.785156 0 2.078125 1.074219 2.796875 2.425782 2.796875.949218 0 1.472656-.289062 2.023437-.847656l-.691406-.65625c-.382813.386719-.703125.558594-1.308594.558594-.886719 0-1.375-.59375-1.375-1.527344zm-1.074219-.765625h-2.429687c.011719-.332031.03125-.496094.140625-.742188.167969-.410156.5625-.6875 1.074219-.6875s.894531.277344 1.066406.6875c.105469.246094.136719.410157.148437.742188zm0 0"/><path d="m40.734375 37.238281v-1.160156h-1.152344v1.160156zm-.035156 6.53125v-5.457031h-1.085938v5.457031zm0 0"/><path d="m43.957031 21.75v-5.492188h-1.09375v3.34375c0 .847657-.515625 1.226563-1.125 1.226563-.613281 0-1.09375-.367187-1.09375-1.226563v-3.34375h-1.09375v3.507813c0 .617187.128907 1.136719.542969 1.550781.324219.3125.785156.496094 1.34375.496094.546875 0 1.070312-.207031 1.445312-.617188v.554688zm0 0"/><path d="m50.105469 21.75v-3.511719c0-.617187-.128907-1.136719-.546875-1.550781-.320313-.3125-.785156-.496094-1.339844-.496094-.546875 0-1.074219.207032-1.449219.617188v-.550782h-1.070312v5.492188h1.09375v-3.347656c0-.847656.511719-1.226563 1.125-1.226563.609375 0 1.09375.371094 1.09375 1.226563v3.347656zm0 0"/><path d="m55.964844 21.75v-7.714844h-1.09375v2.773438c-.394532-.476563-.847656-.617188-1.425782-.617188-.546874 0-1.019531.183594-1.320312.488282-.546875.550781-.609375 1.484374-.609375 2.316406 0 .835937.0625 1.777344.609375 2.328125.300781.304687.785156.488281 1.332031.488281.589844 0 1.027344-.152344 1.4375-.648438v.585938zm-1.09375-2.753906c0 .976562-.140625 1.832031-1.125 1.832031-.988282 0-1.136719-.855469-1.136719-1.832031 0-.976563.148437-1.820313 1.136719-1.820313.984375 0 1.125.84375 1.125 1.820313zm0 0"/><path d="m19.023438 32.742188-2.800782-7.710938h-.933594l-2.796874 7.710938h1.234374l.523438-1.546876h3.015625l.523437 1.546876zm-2.082032-2.542969h-2.347656l1.191406-3.425781zm0 0"/><path d="m24.386719 32.742188v-3.507813c0-.617187-.128907-1.140625-.546875-1.550781-.324219-.3125-.785156-.496094-1.34375-.496094-.546875 0-1.070313.203125-1.445313.617188v-.554688h-1.074219v5.492188h1.09375v-3.347657c0-.84375.515626-1.222656 1.128907-1.222656.609375 0 1.09375.367187 1.09375 1.222656v3.347657zm0 0"/><path d="m28.1875 32.742188v-.941407h-.484375c-.441406 0-.589844-.214843-.589844-.640625v-6.128906h-1.09375v6.195312c0 .8125.449219 1.515626 1.492188 1.515626zm0 0"/><path d="m30.507812 26.167969v-1.171875h-1.15625v1.171875zm-.03125 6.574219v-5.492188h-1.09375v5.492188zm0 0"/><path d="m36.542969 30.316406v-.488281c0-1.558594-.847657-2.640625-2.304688-2.640625-1.394531 0-2.308593 1.027344-2.308593 2.804688 0 2.089843 1.085937 2.816406 2.445312 2.816406.957031 0 1.480469-.292969 2.039062-.855469l-.699218-.660156c-.382813.386719-.707032.5625-1.316406.5625-.890626 0-1.382813-.597657-1.382813-1.539063zm-1.082031-.769531h-2.445313c.007813-.335937.03125-.496094.136719-.746094.171875-.414062.570312-.695312 1.085937-.695312.511719 0 .898438.28125 1.070313.695312.109375.25.140625.410157.152344.746094zm0 0"/><path d="m42.140625 32.710938v-5.460938h-1.0625v.585938c-.40625-.5-.847656-.648438-1.425781-.648438-.546875 0-1.007813.171875-1.308594.476562-.523438.527344-.609375 1.296876-.609375 2.230469 0 .929688.085937 1.699219.609375 2.230469.300781.304688.75.488281 1.296875.488281.558594 0 1.011719-.152343 1.40625-.628906v.703125c0 .738281-.351563 1.398438-1.277344 1.398438-.535156 0-.835937-.164063-1.179687-.488282l-.695313.707032c.566407.53125 1.09375.722656 1.917969.722656 1.449219 0 2.328125-.972656 2.328125-2.316406zm-1.09375-2.816407c0 .867188-.117187 1.722657-1.105469 1.722657-.984375 0-1.113281-.855469-1.113281-1.722657 0-.867187.128906-1.722656 1.113281-1.722656.988282 0 1.105469.855469 1.105469 1.722656zm0 0"/><path d="m48.210938 30.316406v-.488281c0-1.558594-.847657-2.640625-2.308594-2.640625-1.394532 0-2.304688 1.027344-2.304688 2.804688 0 2.089843 1.082032 2.816406 2.445313 2.816406.953125 0 1.480469-.292969 2.039062-.855469l-.699219-.660156c-.386718.386719-.707031.5625-1.316406.5625-.890625 0-1.386718-.597657-1.386718-1.539063zm-1.085938-.769531h-2.445312c.011718-.335937.035156-.496094.140624-.746094.171876-.414062.570313-.695312 1.082032-.695312.515625 0 .902344.28125 1.074218.695312.105469.25.136719.410157.148438.746094zm0 0"/><path d="m53.476562 27.707031c-.375-.378906-.773437-.519531-1.296874-.519531-.613282 0-1.171876.269531-1.449219.660156v-.597656h-1.074219v5.492188h1.09375v-3.335938c0-.757812.496094-1.234375 1.085938-1.234375.375 0 .566406.117187.8125.367187zm0 0"/></svg>