<svg height="50pt" viewBox="0 0 66 50" width="66pt" xmlns="http://www.w3.org/2000/svg"><path d="m4.398438.03125c-2.40625 0-4.3632818 1.980469-4.3632818 4.410156v41.113282c0 2.433593 1.9570318 4.410156 4.3632818 4.410156h57.203124c2.40625 0 4.367188-1.976563 4.367188-4.410156v-41.113282c0-2.429687-1.960938-4.410156-4.367188-4.410156" fill="#fff"/><path d="m4.398438 49.933594c-2.390626 0-4.3320318-1.964844-4.3320318-4.378906v-41.109376c0-2.414062 1.9414058-4.382812 4.3320318-4.382812h57.203124c2.390626 0 4.332032 1.96875 4.332032 4.382812v41.109376c0 2.414062-1.941406 4.378906-4.332032 4.378906zm57.203124-49.933594h-57.203124c-2.429688 0-4.398438 1.988281-4.398438 4.445312v41.109376c0 2.457031 1.96875 4.445312 4.398438 4.445312h57.203124c2.429688 0 4.398438-1.988281 4.398438-4.445312v-41.109376c0-2.457031-1.96875-4.445312-4.398438-4.445312"/><path d="m4.398438 48.886719c-1.820313 0-3.296876-1.492188-3.296876-3.332031v-41.113282c0-1.839844 1.476563-3.332031 3.296876-3.332031h57.203124c1.820313 0 3.300782 1.492187 3.300782 3.332031v41.113282c0 1.839843-1.480469 3.332031-3.300782 3.332031"/><path d="m4.398438 47.21875c-.910157 0-1.648438-.742188-1.648438-1.664062v-41.113282c0-.917968.738281-1.664062 1.648438-1.664062h57.203124c.910157 0 1.648438.746094 1.648438 1.664062v41.113282c0 .921874-.738281 1.664062-1.648438 1.664062" fill="#fff"/><path d="m13.109375 16.441406v-8.554687h3.632813v1.144531h-2.421876v2.597656h2.117188v1.148438h-2.117188v3.664062"/><path d="m18.554688 14.683594c0 .339844.273437.613281.605468.613281.335938 0 .605469-.273437.605469-.613281v-2.59375c0-.339844-.269531-.613282-.605469-.613282-.332031 0-.605468.273438-.605468.613282zm-1.207032 0v-2.59375c0-1.011719.808594-1.835938 1.8125-1.835938s1.816406.824219 1.816406 1.835938v2.59375c0 1.015625-.8125 1.835937-1.816406 1.835937s-1.8125-.820312-1.8125-1.835937"/><path d="m22.1875 16.441406v-6.109375h1.207031v.691407c.390625-.484376.972657-.769532 1.589844-.769532v1.285156c-.636719-.210937-1.320313.136719-1.527344.777344-.039062.125-.0625.253906-.0625.382813v3.742187"/><path d="m25.4375 14.683594h1.132812c0 .382812.308594.691406.683594.691406s.679688-.308594.679688-.691406c0-.269532-.160156-.515625-.40625-.625l-.980469-.363282c-.878906-.394531-1.273437-1.429687-.886719-2.316406.390625-.886718 1.417969-1.289062 2.296875-.894531.628907.28125 1.035157.910156 1.035157 1.605469h-1.136719c0-.339844-.269531-.613282-.601563-.613282-.335937 0-.605468.273438-.605468.613282 0 .242187.140624.460937.359374.558594l.980469.363281c.917969.40625 1.328125 1.492187.925781 2.417969-.40625.925781-1.480468 1.34375-2.398437.933593-.65625-.292969-1.078125-.953125-1.078125-1.679687"/><path d="m32.09375 16.441406h-.605469c-.753906 0-1.363281-.613281-1.363281-1.371094v-3.746093h-.601562v-.992188h.601562v-1.832031h1.210938v1.832031h.757812v.992188h-.757812v3.589843c0 .210938.167968.382813.378906.382813h.378906"/><path d="m34.136719 16.441406-1.4375-6.109375h1.285156l.753906 3.820313.679688-3.820313h.910156l.679687 3.820313.757813-3.820313h1.285156l-1.4375 6.109375h-1.058593l-.679688-3.664062-.683594 3.664062"/><path d="m41.015625 9.109375h-1.207031v-1.222656h1.207031zm-1.207031 7.332031v-6.109375h1.207031v6.109375"/><path d="m42.226562 16.441406v-6.109375h1.210938v.691407c.386719-.484376.972656-.769532 1.585938-.769532v1.285156c-.632813-.210937-1.320313.136719-1.527344.777344-.039063.125-.058594.253906-.058594.382813v3.742187"/><path d="m48.203125 16.441406h-.609375c-.75 0-1.359375-.613281-1.359375-1.371094v-3.746093h-.605469v-.992188h.605469v-1.832031h1.210937v1.832031h.757813v.992188h-.757813v3.589843c0 .210938.171876.382813.378907.382813h.378906"/><path d="m49.261719 12.46875h3.628906v1.222656h-3.628906zm0 0"/><path d="m9.746094 27.519531h1.132812c0 .378907.304688.6875.679688.6875.378906 0 .683594-.308593.683594-.6875 0-.273437-.160157-.519531-.40625-.628906l-.980469-.363281c-.878907-.390625-1.273438-1.429688-.886719-2.316406.390625-.886719 1.417969-1.289063 2.296875-.894532.628906.28125 1.035156.910156 1.035156 1.605469h-1.136719c0-.335937-.269531-.609375-.605468-.609375-.332032 0-.601563.273438-.601563.609375 0 .242187.140625.460937.359375.558594l.980469.363281c.917969.410156 1.328125 1.492188.921875 2.417969s-1.476562 1.34375-2.394531.933593c-.65625-.292968-1.078125-.949218-1.078125-1.675781"/><path d="m17.761719 27.445312v.074219c0 1.011719-.8125 1.832031-1.816407 1.832031-1 0-1.8125-.820312-1.8125-1.832031v-2.597656c0-1.011719.8125-1.832031 1.8125-1.832031 1.003907 0 1.816407.820312 1.816407 1.832031v.074219h-1.210938v-.074219c0-.335937-.269531-.609375-.605469-.609375-.332031 0-.605468.273438-.605468.609375v2.597656c0 .335938.273437.609375.605468.609375.335938 0 .605469-.273437.605469-.609375v-.074219"/><path d="m18.519531 29.277344v-8.554688h1.207031v3.054688c.335938-.632813 1.113282-.871094 1.742188-.535156.417969.222656.679688.667968.679688 1.144531v4.890625h-1.210938v-4.355469c0-.335937-.269531-.609375-.605469-.609375-.332031 0-.605469.273438-.605469.609375v4.355469"/><path d="m25.628906 26.601562h-.605468c-.335938 0-.605469.273438-.605469.613282v.304687c0 .339844.269531.613281.605469.613281.332031 0 .605468-.273437.605468-.613281zm1.207032 2.675782h-1.207032v-.613282c-.335937.632813-1.113281.875-1.742187.539063-.417969-.230469-.679688-.667969-.679688-1.148437v-.917969c0-.84375.675781-1.527344 1.511719-1.527344h.910156v-.6875c0-.335937-.273437-.609375-.605468-.609375-.335938 0-.605469.273438-.605469.609375h-1.210938c0-1.011719.8125-1.832031 1.816407-1.832031 1 0 1.8125.820312 1.8125 1.832031"/><path d="m28.195312 29.277344v-5.117188h-.601562v-.992187h.601562v-.917969c0-.84375.679688-1.527344 1.515626-1.527344h.605468v1.144532h-.53125c-.207031 0-.375.171874-.375.382812v.917969h.90625v.992187h-.90625v5.117188"/><path d="m33.492188 29.277344h-.605469c-.753907 0-1.363281-.617188-1.363281-1.375v-3.742188h-.601563v-.992187h.601563v-1.835938h1.210937v1.835938h.757813v.992187h-.757813v3.589844c0 .210938.171875.382812.378906.382812h.378907"/><path d="m36.214844 29.277344h-.453125c-.753907 0-1.363281-.617188-1.363281-1.375v-7.179688h1.210937v7.027344c0 .210938.171875.382812.378906.382812h.226563"/><path d="m38.484375 21.941406h-1.210937v-1.21875h1.210937zm-1.210937 7.335938v-6.109375h1.210937v6.109375"/><path d="m43.324219 27.445312v.074219c0 1.011719-.8125 1.832031-1.816407 1.832031-1.003906 0-1.8125-.820312-1.8125-1.832031v-2.597656c0-1.011719.808594-1.832031 1.8125-1.832031 1.003907 0 1.816407.820312 1.816407 1.832031v.074219h-1.210938v-.074219c0-.335937-.269531-.609375-.605469-.609375-.332031 0-.605468.273438-.605468.609375v2.597656c0 .335938.273437.609375.605468.609375.335938 0 .605469-.273437.605469-.609375v-.074219"/><path d="m44.078125 29.277344v-8.554688h1.210937v3.054688c.335938-.632813 1.113282-.871094 1.738282-.535156.421875.222656.683594.667968.683594 1.144531v4.890625h-1.210938v-4.355469c0-.335937-.273438-.609375-.605469-.609375-.335937 0-.605469.273438-.605469.609375v4.355469"/><path d="m49.976562 25.6875h1.210938v-.765625c0-.335937-.269531-.609375-.601562-.609375-.335938 0-.609376.273438-.609376.609375zm2.421876 1.832031c0 1.011719-.8125 1.832031-1.8125 1.832031-1.003907 0-1.816407-.820312-1.816407-1.832031v-2.597656c0-1.011719.8125-1.832031 1.816407-1.832031 1 0 1.8125.820312 1.8125 1.832031v1.757813h-2.421876v.839843c0 .339844.273438.613281.609376.613281.332031 0 .601562-.273437.601562-.613281"/><path d="m53.457031 29.277344v-6.109375h1.210938v.6875c.386719-.484375.972656-.765625 1.585937-.765625v1.28125c-.632812-.210938-1.316406.140625-1.523437.78125-.042969.121094-.0625.25-.0625.382812v3.742188"/><path d="m10.878906 42.109375-1.738281-8.554687h1.285156l.984375 5.957031.980469-5.957031h1.289063l-1.742188 8.554687"/><path d="m15.191406 38.519531h1.210938v-.761719c0-.339843-.273438-.613281-.605469-.613281-.335937 0-.605469.273438-.605469.613281zm2.417969 1.832031c0 1.015626-.8125 1.835938-1.8125 1.835938-1.003906 0-1.816406-.820312-1.816406-1.835938v-2.59375c0-1.015624.8125-1.835937 1.816406-1.835937 1 0 1.8125.820313 1.8125 1.835937v1.753907h-2.417969v.839843c0 .339844.269532.613282.605469.613282.332031 0 .605469-.273438.605469-.613282"/><path d="m18.667969 42.109375v-6.109375h1.210937v.6875c.386719-.484375.972656-.765625 1.589844-.765625v1.285156c-.636719-.210937-1.320312.136719-1.53125.777344-.039062.125-.058594.253906-.058594.382813v3.742187"/><path d="m22.222656 42.109375v-8.554687h1.210938v5.117187l1.511718-2.671875h1.210938l-1.4375 2.441406 1.738281 3.667969h-1.359375l-1.058594-2.597656-.605468.917969v1.679687"/><path d="m28.121094 38.519531h1.210937v-.761719c0-.339843-.269531-.613281-.605469-.613281-.332031 0-.605468.273438-.605468.613281zm2.421875 1.832031c0 1.015626-.8125 1.835938-1.816407 1.835938-1 0-1.8125-.820312-1.8125-1.835938v-2.59375c0-1.015624.8125-1.835937 1.8125-1.835937 1.003907 0 1.816407.820313 1.816407 1.835937v1.753907h-2.421875v.839843c0 .339844.273437.613282.605468.613282.335938 0 .605469-.273438.605469-.613282"/><path d="m31.601562 42.109375v-8.554687h1.210938v3.054687c.332031-.632813 1.109375-.871094 1.738281-.535156.417969.226562.679688.667969.679688 1.144531v4.890625h-1.210938v-4.351563c0-.339843-.269531-.613281-.601562-.613281-.335938 0-.605469.273438-.605469.613281v4.351563"/><path d="m36.441406 42.109375v-6.109375h1.210938v.6875c.386718-.484375.96875-.765625 1.589844-.765625v1.285156c-.636719-.210937-1.320313.136719-1.53125.777344-.039063.125-.058594.253906-.058594.382813v3.742187"/><path d="m44.683594 42.109375v-5.117187h-.605469v-.992188h.605469v-.917969c0-.84375.679687-1.527343 1.511718-1.527343h.609376v1.144531h-.53125c-.210938 0-.378907.171875-.378907.382812v.917969h.910157v.992188h-.910157v5.117187"/><path d="m47.710938 42.109375v-6.109375h1.207031v.6875c.390625-.484375.972656-.765625 1.589843-.765625v1.285156c-.632812-.210937-1.320312.136719-1.527343.777344-.039063.125-.0625.253906-.0625.382813v3.742187"/><path d="m52.171875 38.519531h1.210937v-.761719c0-.339843-.273437-.613281-.605468-.613281-.335938 0-.605469.273438-.605469.613281zm2.417969 1.832031c0 1.015626-.8125 1.835938-1.8125 1.835938-1.003906 0-1.816406-.820312-1.816406-1.835938v-2.59375c0-1.015624.8125-1.835937 1.816406-1.835937 1 0 1.8125.820313 1.8125 1.835937v1.753907h-2.417969v.839843c0 .339844.269531.613282.605469.613282.332031 0 .605468-.273438.605468-.613282"/><path d="m56.859375 34.777344h-1.210937v-1.222656h1.210937zm-1.210937 7.332031v-6.109375h1.210937v6.109375"/></svg>