<svg height="50pt" viewBox="0 0 90 50" width="90pt" xmlns="http://www.w3.org/2000/svg"><path d="m5.992188.0742188c-3.265626 0-5.9179692 2.6757812-5.9179692 5.9609372v37.914063c0 3.285156 2.6523432 5.957031 5.9179692 5.957031h77.964843c3.261719 0 5.914063-2.671875 5.914063-5.957031v-37.914063c0-3.285156-2.652344-5.9609372-5.914063-5.9609372zm0 0" fill="#fff"/><path d="m5.988281 46.222656h77.964844c1.234375 0 2.238281-1.007812 2.238281-2.25v-37.960937c0-1.242188-1.003906-2.25-2.238281-2.25h-77.964844c-1.234375 0-2.234375 1.007812-2.234375 2.25v37.960937c0 1.242188 1 2.25 2.234375 2.25zm.105469 2.144532c-2.46875 0-4.46875-2.015626-4.46875-4.503907v-37.742187c0-2.488282 2-4.503906 4.46875-4.503906h77.773438c2.472656 0 4.472656 2.015624 4.472656 4.503906v37.742187c0 2.488281-2 4.503907-4.472656 4.503907"/><path d="m5.992188 0c-3.304688 0-5.992188 2.707031-5.992188 6.035156v37.871094c0 3.324219 2.6875 6.03125 5.992188 6.03125h77.964843c3.300781 0 5.988281-2.707031 5.988281-6.03125v-37.871094c0-3.328125-2.683593-6.035156-5.988281-6.035156zm0 .0742188h77.964843c3.261719 0 5.914063 2.6757812 5.914063 5.9609372v37.871094c0 3.28125-2.652344 5.953125-5.914063 5.953125h-77.964843c-3.265626 0-5.9179692-2.671875-5.9179692-5.953125v-37.871094c0-3.285156 2.6523432-5.9609372 5.9179692-5.9609372zm0 0"/><path d="m72.40625 22.265625v-9.085937h1.800781v1.023437c1.050781-1.316406 2.964844-1.523437 4.265625-.457031.003906.003906.003906.003906.003906.003906l-1.277343 1.59375c-.742188-.667969-1.878907-.601562-2.539063.148438-.292968.332031-.453125.761718-.453125 1.207031v5.566406zm-8.09375-5.453125h3.820312c0-1.066406-.855468-1.929688-1.910156-1.929688-1.054687 0-1.910156.863282-1.910156 1.929688zm5.621094 1.589844h-5.621094v.230468c0 .789063.476562 1.5 1.199219 1.789063 1 .40625 2.144531.125 2.84375-.703125l1.367187 1.183594c-1.203125 1.417968-3.164062 1.902344-4.878906 1.210937-1.40625-.570312-2.332031-1.949219-2.332031-3.480469v-1.820312c0-2.070312 1.660156-3.746094 3.710937-3.746094 2.050782 0 3.710938 1.675782 3.710938 3.746094zm-11.695313.339844v-2.042969c0-1.003907-.804687-1.816407-1.796875-1.816407-.996094 0-1.800781.8125-1.800781 1.816407v2.042969c0 1.007812.804687 1.820312 1.800781 1.820312.992188 0 1.796875-.8125 1.796875-1.820312zm1.800781-5.5625v9.199218c0 1.378906-.769531 2.636719-1.988281 3.253906-1.722656.867188-3.804687.414063-5.015625-1.09375l1.394532-1.144531c.679687.84375 1.851562 1.097657 2.816406.613281.609375-.308593.992187-.941406.992187-1.628906v-1.136718c-1.050781 1.316406-2.964843 1.523437-4.269531.457031-.710938-.582031-1.125-1.460938-1.125-2.386719v-3.179688c0-1.695312 1.359375-3.066406 3.035156-3.066406.917969 0 1.785156.417969 2.359375 1.136719v-1.023437zm-15.066406 3.632812h3.820313c0-1.066406-.851563-1.929688-1.910157-1.929688-1.054687 0-1.910156.863282-1.910156 1.929688zm5.621094 1.589844h-5.621094v.230468c0 .789063.472656 1.5 1.203125 1.789063.996094.40625 2.140625.125 2.84375-.703125l1.363281 1.183594c-1.203124 1.417968-3.164062 1.902344-4.878906 1.210937-1.40625-.570312-2.332031-1.949219-2.332031-3.480469v-1.820312c0-2.070312 1.664063-3.746094 3.710937-3.746094 2.050782 0 3.710938 1.675782 3.710938 3.746094zm-9.894531-7.042969h-1.800781v-1.816406h1.800781zm0 10.90625h-1.800781v-9.085937h1.800781zm-4.046875 0h-1.125c-1.117188 0-2.023438-.914063-2.023438-2.042969v-10.679687h1.800782v10.453125c0 .3125.25.566406.558593.566406h.789063zm-12.816406 0v-9.085937h1.796874v1.023437c1.054688-1.316406 2.96875-1.523437 4.269532-.457031.714844.582031 1.128906 1.460937 1.128906 2.386718v6.132813h-1.800781v-5.566406c0-1.003907-.804688-1.816407-1.796875-1.816407-.996094 0-1.800782.8125-1.800782 1.816407v5.566406zm-8.828126-4.542969h3.714844l-1.859375-5.566406zm-3.539062 4.542969 4.609375-12.722656h1.574219l4.609375 12.722656h-2.023438l-.949219-2.839844h-4.851562l-.945312 2.839844"/><path d="m57.566406 29.535156h-1.800781v-1.816406h1.800781zm0 10.90625h-1.800781v-9.085937h1.800781zm-9.894531-5.453125h3.824219c0-1.066406-.859375-1.929687-1.914063-1.929687-1.054687 0-1.910156.863281-1.910156 1.929687zm5.621094 1.59375h-5.621094v.226563c0 .789062.476563 1.5 1.199219 1.792968 1 .402344 2.144531.121094 2.847656-.707031l1.363281 1.1875c-1.203125 1.414063-3.164062 1.898438-4.878906 1.207031-1.40625-.570312-2.332031-1.949218-2.332031-3.480468v-1.820313c0-2.070312 1.664062-3.746093 3.710937-3.746093 2.050781 0 3.710938 1.675781 3.710938 3.746093zm-14.394531 3.859375v-9.085937h1.800781v1.023437c1.054687-1.316406 2.964843-1.519531 4.269531-.457031 0 .003906.003906.003906.003906.003906l-1.277344 1.59375c-.742187-.667969-1.878906-.601562-2.539062.148438-.292969.332031-.457031.761719-.457031 1.207031v5.566406zm-5.617188 0v-7.609375h-.902344v-1.476562h.902344v-1.363281c0-1.253907 1.003906-2.273438 2.246094-2.273438h1.347656v1.703125h-1.234375c-.3125 0-.5625.253906-.5625.570313v1.363281h1.796875v1.476562h-1.796875v7.609375"/></svg>