<svg height="50pt" viewBox="0 0 66 50" width="66pt" xmlns="http://www.w3.org/2000/svg"><path d="m4.398438.03125c-2.40625 0-4.3632818 1.980469-4.3632818 4.414062v41.109376c0 2.433593 1.9570318 4.414062 4.3632818 4.414062h57.203124c2.40625 0 4.367188-1.980469 4.367188-4.414062v-41.109376c0-2.433593-1.960938-4.414062-4.367188-4.414062" fill="#fff"/><path d="m4.398438 49.933594c-2.390626 0-4.3320318-1.960938-4.3320318-4.378906v-41.109376c0-2.414062 1.9414058-4.3789058 4.3320318-4.3789058h57.203124c2.390626 0 4.332032 1.9648438 4.332032 4.3789058v41.109376c0 2.417968-1.941406 4.378906-4.332032 4.378906zm57.203124-49.933594h-57.203124c-2.429688 0-4.398438 1.988281-4.398438 4.445312v41.109376c0 2.457031 1.96875 4.445312 4.398438 4.445312h57.203124c2.429688 0 4.398438-1.988281 4.398438-4.445312v-41.109376c0-2.457031-1.96875-4.445312-4.398438-4.445312"/><path d="m4.398438 1.109375c-1.820313 0-3.296876 1.492187-3.296876 3.335937v41.109376c0 1.839843 1.476563 3.335937 3.296876 3.335937h57.203124c1.820313 0 3.300782-1.496094 3.300782-3.335937v-41.109376c0-1.84375-1.480469-3.335937-3.300782-3.335937zm0 1.667969h57.203124c.910157 0 1.648438.746094 1.648438 1.667968v41.109376c0 .921874-.738281 1.667968-1.648438 1.667968h-57.203124c-.910157 0-1.648438-.746094-1.648438-1.667968v-41.109376c0-.921874.738281-1.667968 1.648438-1.667968zm0 0"/><path d="m28.011719 7.835938c-1.199219 0-2.261719.785156-2.617188 1.945312l-1.988281 6.488281c-3.191406-.652343-6.394531 1.054688-7.664062 4.082031-1.472657 3.519532.15625 7.574219 3.636718 9.0625 3.480469 1.492188 7.5-.152343 8.972656-3.671874 1.472657-3.515626-.15625-7.574219-3.636718-9.0625l.542968-1.773438 8.09375 9.066406c.261719.292969.628907.460938 1.019532.460938h2.875c.054687.253906.121094.507812.199218.757812 1.175782 3.632813 5.039063 5.617188 8.632813 4.429688 3.59375-1.183594 5.558594-5.085938 4.386719-8.714844-1.171875-3.632812-5.035156-5.617188-8.628906-4.433594l-1.988282-4.488281.515625-1.386719h1.539063v-1.378906h-5.820313c-.15625 0-.296875.105469-.332031.261719-.046875.1875.066406.375.25.417969l2.898438.699218-.515626 1.386719h-12.230468l.550781-1.792969c.179687-.582031.707031-.972656 1.308594-.972656h2.25v-1.382812zm-2.28125 5.53125h12.140625l-3.566406 9.605468zm13.433593.460937 1.417969 3.203125c-2.144531 1.226562-3.472656 3.527344-3.472656 6.019531h-1.371094zm-17.085937 3.6875c.304687 0 .613281.027344.921875.085937l-1.605469 5.242188c-.113281.363281.085938.75.449219.863281s.742188-.089843.855469-.453125l1.609375-5.246094c2.753906 1.261719 3.976562 4.539063 2.726562 7.324219-1.246094 2.78125-4.492187 4.015625-7.25 2.753907-2.753906-1.257813-3.980468-4.539063-2.730468-7.324219.90625-2.011719 2.890624-3.261719 5.023437-3.246094zm21.410156.019531c2.535157-.222656 4.964844 1.375 5.71875 3.9375.859375 2.929688-.789062 6.011719-3.691406 6.878906-2.898437.871094-5.949219-.796874-6.808594-3.726562-.019531-.066406-.039062-.128906-.054687-.191406h5.644531c.382813 0 .6875-.3125.6875-.695313 0-.09375-.019531-.191406-.058594-.28125l-2.53125-5.714843c.363281-.105469.730469-.175782 1.09375-.207032zm-2.34375.765625 2.097657 4.75h-4.765626c0-1.949219 1.015626-3.75 2.667969-4.75zm0 0"/><path d="m26.988281 36.65625v-1.015625h-1.304687v-.957031c0-.480469.230468-.769532.722656-.769532h.582031v-1.136718h-.828125c-1.226562 0-1.796875.890625-1.796875 1.84375v1.019531h-.75v1.015625h.75v5.488281h1.320313v-5.488281zm0 0"/><path d="m33.003906 36.070312c-.453125-.457031-.929687-.628906-1.5625-.628906-.738281 0-1.410156.328125-1.746094.796875v-.71875h-1.292968v6.625h1.316406v-4.023437c0-.914063.597656-1.488282 1.308594-1.488282.449218 0 .683594.144532.980468.441407zm0 0"/><path d="m39.28125 39.21875v-.589844c0-1.878906-1.019531-3.1875-2.777344-3.1875-1.683594 0-2.78125 1.242188-2.78125 3.386719 0 2.519531 1.304688 3.394531 2.949219 3.394531 1.148437 0 1.785156-.351562 2.457031-1.03125l-.839844-.796875c-.46875.46875-.855468.679688-1.59375.679688-1.070312 0-1.667968-.71875-1.667968-1.855469zm-1.304688-.929688h-2.949218c.015625-.402343.039062-.597656.167968-.898437.207032-.496094.6875-.835937 1.308594-.835937s1.085938.339843 1.292969.835937c.128906.300781.167969.496094.179687.898437zm0 0"/><path d="m42.386719 34.214844v-1.410156h-1.394531v1.410156zm-.039063 7.929687v-6.625h-1.316406v6.625zm0 0"/></svg>