<svg height="50pt" viewBox="0 0 66 50" width="66pt" xmlns="http://www.w3.org/2000/svg" xmlns:xlink="http://www.w3.org/1999/xlink"><clipPath id="a"><path d="m13 7.761719h5v9.238281h-5zm0 0"/></clipPath><clipPath id="b"><path d="m27 7.761719h5v9.238281h-5zm0 0"/></clipPath><clipPath id="c"><path d="m39 7.761719h2v9.238281h-2zm0 0"/></clipPath><clipPath id="d"><path d="m9.058594 23h4.941406v7h-4.941406zm0 0"/></clipPath><clipPath id="e"><path d="m53 23h3.96875v7h-3.96875zm0 0"/></clipPath><clipPath id="f"><path d="m9.058594 33h4.941406v9.265625h-4.941406zm0 0"/></clipPath><clipPath id="g"><path d="m13 35h5v7.265625h-5zm0 0"/></clipPath><clipPath id="h"><path d="m18 35h4v7.265625h-4zm0 0"/></clipPath><clipPath id="i"><path d="m22 33h5v9.265625h-5zm0 0"/></clipPath><clipPath id="j"><path d="m26 35h5v7.265625h-5zm0 0"/></clipPath><clipPath id="k"><path d="m31 33h5v9.265625h-5zm0 0"/></clipPath><clipPath id="l"><path d="m36 35h4v7.265625h-4zm0 0"/></clipPath><clipPath id="m"><path d="m44 33h3v9.265625h-3zm0 0"/></clipPath><clipPath id="n"><path d="m47 35h4v7.265625h-4zm0 0"/></clipPath><clipPath id="o"><path d="m50 35h5v7.265625h-5zm0 0"/></clipPath><clipPath id="p"><path d="m55 33h1.96875v9.265625h-1.96875zm0 0"/></clipPath><path d="m4.417969.0546875c-2.40625 0-4.3632815 1.9765625-4.3632815 4.4062505v41.078124c0 2.429688 1.9570315 4.40625 4.3632815 4.40625h57.164062c2.40625 0 4.363281-1.976562 4.363281-4.40625v-41.078124c0-2.429688-1.957031-4.4062505-4.363281-4.4062505zm0 0" fill="#fff"/><path d="m4.417969 1.132812c-1.820313 0-3.296875 1.488282-3.296875 3.328126v41.078124c0 1.839844 1.476562 3.328126 3.296875 3.328126h57.164062c1.820313 0 3.296875-1.488282 3.296875-3.328126v-41.078124c0-1.839844-1.476562-3.328126-3.296875-3.328126zm0 1.664063h57.164062c.910157 0 1.648438.746094 1.648438 1.664063v41.078124c0 .921876-.738281 1.664063-1.648438 1.664063h-57.164062c-.910157 0-1.648438-.742187-1.648438-1.664063v-41.078124c0-.917969.738281-1.664063 1.648438-1.664063zm0 0"/><path d="m4.417969 0c-2.433594 0-4.417969 2-4.417969 4.460938v41.078124c0 2.457032 1.984375 4.460938 4.417969 4.460938h57.164062c2.433594 0 4.417969-2.003906 4.417969-4.460938v-41.078124c0-2.460938-1.984375-4.460938-4.417969-4.460938zm0 .0546875h57.164062c2.40625 0 4.363281 1.9765625 4.363281 4.4062505v41.078124c0 2.429688-1.957031 4.40625-4.363281 4.40625h-57.164062c-2.40625 0-4.3632815-1.976562-4.3632815-4.40625v-41.078124c0-2.429688 1.9570315-4.4062505 4.3632815-4.4062505zm0 0"/><g clip-path="url(#a)"><path d="m13.835938 16.398438v-8.5625h1.210937v7.339843h2.417969v1.222657zm0 0"/></g><path d="m21.699219 16.398438h-1.207031v-.609376c-.335938.632813-1.117188.871094-1.742188.53125-.417969-.222656-.679688-.667968-.679688-1.144531v-.917969c0-.847656.679688-1.53125 1.511719-1.53125h.910157v-.6875c0-.335937-.273438-.613281-.609376-.613281-.332031 0-.601562.277344-.601562.613281h-1.210938c0-1.011718.8125-1.832031 1.8125-1.832031 1.003907 0 1.816407.820313 1.816407 1.832031zm-1.207031-2.675782h-.609376c-.332031 0-.601562.273438-.601562.613282v.304687c0 .335937.269531.609375.601562.609375.335938 0 .609376-.273438.609376-.609375zm0 0"/><path d="m22.910156 16.398438v-6.117188h1.207032v.613281c.335937-.632812 1.113281-.875 1.738281-.539062.417969.230469.679687.667969.679687 1.148437v4.894532h-1.210937v-4.359376c0-.335937-.269531-.613281-.601563-.613281-.335937 0-.605468.277344-.605468.613281v4.359376zm0 0"/><g clip-path="url(#b)"><path d="m31.222656 16.398438h-1.210937v-.609376c-.332031.632813-1.109375.871094-1.738281.53125-.417969-.222656-.679688-.667968-.679688-1.144531v-3.671875c0-.71875.578125-1.296875 1.285156-1.296875.476563 0 .910156.261719 1.132813.6875v-3.058593h1.210937zm-1.210937-1.757813v-2.601563c0-.335937-.269531-.613281-.601563-.613281-.335937 0-.605468.277344-.605468.613281v2.601563c0 .335937.269531.609375.605468.609375.332032 0 .601563-.273438.601563-.609375"/></g><path d="m33.414062 16.398438-1.433593-6.117188h1.28125l.757812 3.824219.679688-3.824219h.910156l.679687 3.824219.753907-3.824219h1.285156l-1.4375 6.117188h-1.058594l-.679687-3.671876-.679688 3.671876zm0 0"/><g clip-path="url(#c)"><path d="m39.085938 10.28125h1.210937v6.117188h-1.210937zm0-2.445312h1.210937v1.222656h-1.210937zm0 0"/></g><path d="m41.503906 16.398438v-6.117188h1.210938v.691406c.386718-.484375.96875-.765625 1.585937-.765625v1.285157c-.636719-.214844-1.320312.136718-1.527343.777343-.039063.125-.058594.253907-.058594.382813v3.746094zm0 0"/><path d="m47.476562 16.398438h-.605468c-.75 0-1.363282-.617188-1.363282-1.375v-3.746094h-.601562v-.996094h.601562v-1.832031h1.210938v1.832031h.757812v.996094h-.757812v3.589844c0 .210937.171875.382812.378906.382812h.378906zm0 0"/><path d="m48.535156 12.421875h3.628906v1.222656h-3.628906zm0 0"/><g clip-path="url(#d)"><path d="m9.753906 27.484375h1.136719c0 .382813.300781.6875.679687.6875.375 0 .679688-.304687.679688-.6875 0-.273437-.160156-.515625-.40625-.628906l-.976562-.363281c-.878907-.390626-1.277344-1.429688-.886719-2.320313.390625-.886719 1.414062-1.289063 2.292969-.894531.628906.28125 1.035156.910156 1.035156 1.609375h-1.136719c0-.339844-.269531-.613281-.601563-.613281-.335937 0-.605468.273437-.605468.613281 0 .242187.140625.460937.359375.558593l.980469.363282c.914062.410156 1.328124 1.496094.921874 2.421875s-1.476562 1.34375-2.390624.933593c-.660157-.296874-1.082032-.953124-1.082032-1.679687"/></g><path d="m17.765625 27.410156v.074219c0 1.015625-.808594 1.835937-1.8125 1.835937-1 0-1.8125-.820312-1.8125-1.835937v-2.597656c0-1.015625.8125-1.835938 1.8125-1.835938 1.003906 0 1.8125.820313 1.8125 1.835938v.078125h-1.207031v-.078125c0-.339844-.269532-.613281-.605469-.613281-.332031 0-.605469.273437-.605469.613281v2.597656c0 .339844.273438.613281.605469.613281.335937 0 .605469-.273437.605469-.613281v-.074219zm0 0"/><path d="m18.523438 29.242188v-8.5625h1.210937v3.058593c.332031-.632812 1.113281-.875 1.738281-.535156.417969.226563.679688.667969.679688 1.148437v4.890626h-1.210938v-4.355469c0-.339844-.269531-.613281-.601562-.613281-.335938 0-.605469.273437-.605469.613281v4.355469zm0 0"/><path d="m26.839844 29.242188h-1.210938v-.609376c-.335937.632813-1.113281.871094-1.738281.535157-.417969-.226563-.679687-.667969-.679687-1.148438v-.917969c0-.84375.675781-1.527343 1.511718-1.527343h.90625v-.6875c0-.339844-.269531-.613281-.605468-.613281-.332032 0-.601563.273437-.601563.613281h-1.210937c0-1.015625.8125-1.835938 1.8125-1.835938 1.003906 0 1.816406.820313 1.816406 1.835938zm-1.210938-2.675782h-.605468c-.332032 0-.601563.277344-.601563.613282v.304687c0 .339844.269531.613281.601563.613281.335937 0 .605468-.273437.605468-.613281zm0 0"/><path d="m28.199219 29.242188v-5.121094h-.605469v-.992188h.605469v-.917968c0-.84375.675781-1.53125 1.511719-1.53125h.605468v1.148437h-.527344c-.210937 0-.378906.171875-.378906.382813v.917968h.90625v.992188h-.90625v5.121094zm0 0"/><path d="m33.492188 29.242188h-.605469c-.75 0-1.359375-.617188-1.359375-1.375v-3.746094h-.605469v-.992188h.605469v-1.835937h1.207031v1.835937h.757813v.992188h-.757813v3.59375c0 .210937.171875.382812.378906.382812h.378907zm0 0"/><path d="m36.210938 29.242188h-.453126c-.75 0-1.359374-.617188-1.359374-1.375v-7.1875h1.210937v7.035156c0 .210937.167969.382812.378906.382812h.222657zm0 0"/><path d="m37.269531 23.128906h1.210938v6.113282h-1.210938zm0-2.449218h1.210938v1.226562h-1.210938zm0 0"/><path d="m43.316406 27.410156v.074219c0 1.015625-.808594 1.835937-1.8125 1.835937-1 0-1.8125-.820312-1.8125-1.835937v-2.597656c0-1.015625.8125-1.835938 1.8125-1.835938 1.003906 0 1.8125.820313 1.8125 1.835938v.078125h-1.207031v-.078125c0-.339844-.269531-.613281-.605469-.613281-.332031 0-.605468.273437-.605468.613281v2.597656c0 .339844.273437.613281.605468.613281.335938 0 .605469-.273437.605469-.613281v-.074219zm0 0"/><path d="m44.074219 29.242188v-8.5625h1.210937v3.058593c.332032-.632812 1.109375-.875 1.738282-.535156.417968.226563.679687.667969.679687 1.148437v4.890626h-1.210937v-4.355469c0-.339844-.269532-.613281-.605469-.613281-.332031 0-.601563.273437-.601563.613281v4.355469zm0 0"/><path d="m52.390625 27.484375c0 1.015625-.8125 1.835937-1.816406 1.835937-1 0-1.8125-.820312-1.8125-1.835937v-2.597656c0-1.015625.8125-1.835938 1.8125-1.835938 1.003906 0 1.816406.820313 1.816406 1.835938v1.757812h-2.417969v.839844c0 .339844.269532.613281.601563.613281.335937 0 .605469-.273437.605469-.613281zm-2.417969-1.835937h1.207032v-.761719c0-.339844-.269532-.613281-.605469-.613281-.332031 0-.601563.273437-.601563.613281zm0 0"/><g clip-path="url(#e)"><path d="m53.445312 29.242188v-6.113282h1.210938v.6875c.386719-.484375.972656-.765625 1.585938-.765625v1.285157c-.632813-.214844-1.316407.136718-1.523438.777343-.042969.125-.0625.253907-.0625.382813v3.746094zm0 0"/></g><g clip-path="url(#f)"><path d="m10.890625 42.089844-1.738281-8.566406h1.28125l.984375 5.964843.984375-5.964843h1.28125l-1.738282 8.566406zm0 0"/></g><g clip-path="url(#g)"><path d="m17.617188 40.332031c0 1.011719-.8125 1.832031-1.816407 1.832031-1 0-1.8125-.820312-1.8125-1.832031v-2.601562c0-1.011719.8125-1.835938 1.8125-1.835938 1.003907 0 1.816407.824219 1.816407 1.835938v1.757812h-2.417969v.84375c0 .335938.269531.609375.601562.609375.335938 0 .605469-.273437.605469-.609375zm-2.417969-1.835937h1.207031v-.765625c0-.335938-.269531-.609375-.605469-.609375-.332031 0-.601562.273437-.601562.609375zm0 0"/></g><g clip-path="url(#h)"><path d="m18.675781 42.089844v-6.117188h1.210938v.691406c.382812-.488281.96875-.769531 1.585937-.769531v1.285157c-.636718-.210938-1.320312.136718-1.527344.78125-.039062.121093-.058593.25-.058593.382812v3.746094zm0 0"/></g><g clip-path="url(#i)"><path d="m22.226562 42.089844v-8.566406h1.210938v5.125l1.511719-2.675782h1.210937l-1.4375 2.445313 1.738282 3.671875h-1.359376l-1.058593-2.601563-.605469.917969v1.683594zm0 0"/></g><g clip-path="url(#j)"><path d="m30.542969 40.332031c0 1.011719-.8125 1.832031-1.816407 1.832031-1 0-1.8125-.820312-1.8125-1.832031v-2.601562c0-1.011719.8125-1.835938 1.8125-1.835938 1.003907 0 1.816407.824219 1.816407 1.835938v1.757812h-2.417969v.84375c0 .335938.269531.609375.601562.609375.335938 0 .605469-.273437.605469-.609375zm-2.417969-1.835937h1.207031v-.765625c0-.335938-.269531-.609375-.605469-.609375-.332031 0-.601562.273437-.601562.609375zm0 0"/></g><g clip-path="url(#k)"><path d="m31.601562 42.089844v-8.566406h1.210938v3.058593c.332031-.632812 1.109375-.871093 1.738281-.535156.417969.226563.679688.667969.679688 1.148437v4.894532h-1.210938v-4.359375c0-.335938-.269531-.609375-.605469-.609375-.332031 0-.601562.273437-.601562.609375v4.359375zm0 0"/></g><g clip-path="url(#l)"><path d="m36.4375 42.089844v-6.117188h1.210938v.691406c.386718-.488281.972656-.769531 1.585937-.769531v1.285157c-.632813-.210938-1.316406.136718-1.523437.78125-.042969.121093-.0625.25-.0625.382812v3.746094zm0 0"/></g><g clip-path="url(#m)"><path d="m44.679688 42.089844v-5.125h-.605469v-.992188h.605469v-.917968c0-.84375.675781-1.53125 1.511718-1.53125h.605469v1.148437h-.53125c-.207031 0-.375.171875-.375.382813v.917968h.90625v.992188h-.90625v5.125zm0 0"/></g><g clip-path="url(#n)"><path d="m47.703125 42.089844v-6.117188h1.210937v.691406c.382813-.488281.96875-.769531 1.585938-.769531v1.285157c-.636719-.210938-1.320312.136718-1.527344.78125-.039062.121093-.058594.25-.058594.382812v3.746094zm0 0"/></g><g clip-path="url(#o)"><path d="m54.582031 40.332031c0 1.011719-.8125 1.832031-1.816406 1.832031-1 0-1.8125-.820312-1.8125-1.832031v-2.601562c0-1.011719.8125-1.835938 1.8125-1.835938 1.003906 0 1.816406.824219 1.816406 1.835938v1.757812h-2.417969v.84375c0 .335938.269532.609375.601563.609375.335937 0 .605469-.273437.605469-.609375zm-2.417969-1.835937h1.207032v-.765625c0-.335938-.269532-.609375-.605469-.609375-.332031 0-.601563.273437-.601563.609375zm0 0"/></g><g clip-path="url(#p)"><path d="m55.640625 35.972656h1.210937v6.117188h-1.210937zm0-2.445312h1.210937v1.222656h-1.210937zm0 0"/></g></svg>