<svg height="50pt" viewBox="0 0 66 50" width="66pt" xmlns="http://www.w3.org/2000/svg"><path d="m4.398438.0351562c-2.40625 0-4.3632818 1.9765628-4.3632818 4.4101558v41.109376c0 2.433593 1.9570318 4.414062 4.3632818 4.414062h57.203124c2.40625 0 4.367188-1.980469 4.367188-4.414062v-41.109376c0-2.433593-1.960938-4.4101558-4.367188-4.4101558" fill="#fff"/><path d="m4.398438 49.933594c-2.390626 0-4.3320318-1.960938-4.3320318-4.378906v-41.109376c0-2.414062 1.9414058-4.3789058 4.3320318-4.3789058h57.203124c2.390626 0 4.332032 1.9648438 4.332032 4.3789058v41.109376c0 2.417968-1.941406 4.378906-4.332032 4.378906zm57.203124-49.933594h-57.203124c-2.429688 0-4.398438 1.988281-4.398438 4.445312v41.109376c0 2.457031 1.96875 4.445312 4.398438 4.445312h57.203124c2.429688 0 4.398438-1.988281 4.398438-4.445312v-41.109376c0-2.457031-1.96875-4.445312-4.398438-4.445312"/><path d="m4.398438 48.890625c-1.820313 0-3.296876-1.496094-3.296876-3.335937v-41.109376c0-1.84375 1.476563-3.335937 3.296876-3.335937h57.203124c1.820313 0 3.300782 1.492187 3.300782 3.335937v41.109376c0 1.839843-1.480469 3.335937-3.300782 3.335937"/><path d="m4.398438 47.222656c-.910157 0-1.648438-.746094-1.648438-1.667968v-41.109376c0-.921874.738281-1.667968 1.648438-1.667968h57.203124c.910157 0 1.648438.746094 1.648438 1.667968v41.109376c0 .921874-.738281 1.667968-1.648438 1.667968" fill="#fff"/><path d="m42.238281 34.539062h-1.316406v-1.332031h1.316406zm0 8h-1.316406v-6.667968h1.316406zm-7.257812-4h2.804687c0-.78125-.628906-1.417968-1.402344-1.417968-.773437 0-1.402343.636718-1.402343 1.417968zm4.125 1.167969h-4.125v.164063c0 .582031.347656 1.101562.882812 1.316406.734375.296875 1.570313.089844 2.085938-.519531l1.003906.871093c-.882813 1.039063-2.324219 1.394532-3.582031.886719-1.035156-.417969-1.710938-1.429687-1.710938-2.554687v-1.332032c0-1.519531 1.21875-2.75 2.722656-2.75 1.503907 0 2.722657 1.230469 2.722657 2.75zm-10.558594 2.832031v-6.667968h1.316406v.753906c.777344-.964844 2.175781-1.117188 3.132813-.335938h.003906l-.9375 1.167969c-.542969-.488281-1.378906-.4375-1.863281.113281-.214844.242188-.332031.558594-.332031.886719v4.082031zm-4.125 0v-5.582031h-.660156v-1.085937h.660156v-1c0-.917969.738281-1.664063 1.648437-1.664063h.992188v1.25h-.910156c-.226563 0-.410156.183594-.410156.414063v1h1.320312v1.085937h-1.320312v5.582031"/><path d="m10.628906 10.273438c-.261718 0-.476562.214843-.476562.476562v.964844c0 .226562.160156.421875.382812.46875.019532.003906.042969.011718.0625.019531.246094.089844.375.363281.289063.613281l-2.46875 6.984375c-.113281.3125-.167969.640625-.167969.972657v4.882812c0 .53125.425781.960938.953125.960938h5.710937c0-2.390626 1.917969-4.324219 4.285157-4.324219 2.363281 0 4.28125 1.933593 4.28125 4.324219h17.613281c0-2.390626 1.914062-4.324219 4.28125-4.324219s4.285156 1.933593 4.285156 4.324219h6.1875c1.050782 0 1.902344-.859376 1.902344-1.921876v-5.367187c0-.265625-.039062-.535156-.109375-.792969l-1.941406-6.867187c-.234375-.828125-.984375-1.394531-1.832031-1.394531zm1.933594 1.921874h3.828125c.394531 0 .710937.320313.710937.71875v5.289063c0 .398437-.316406.722656-.710937.722656h-5.699219c-.394531 0-.714844-.324219-.714844-.722656 0-.082031.015626-.164063.042969-.242187l1.867188-5.289063c.101562-.285156.371093-.476563.675781-.476563zm6.492188 0h3.507812c.316406 0 .597656.214844.6875.523438l1.492188 5.285156c.109374.386719-.109376.785156-.488282.894532-.066406.019531-.128906.027343-.195312.027343h-5.003906c-.394532 0-.714844-.324219-.714844-.722656v-5.289063c0-.398437.320312-.71875.714844-.71875zm6.230468 0h4.796875c.320313 0 .597657.214844.6875.523438l1.496094 5.285156c.109375.386719-.113281.785156-.492187.894532-.0625.019531-.128907.027343-.195313.027343h-4.796875c-.320312 0-.601562-.214843-.6875-.523437l-1.496094-5.289063c-.109375-.382812.113282-.78125.492188-.890625.0625-.019531.128906-.027344.195312-.027344zm7.519532 0h4.796874c.320313 0 .597657.214844.6875.523438l1.496094 5.285156c.105469.386719-.113281.785156-.492187.894532-.0625.019531-.128907.027343-.195313.027343h-4.796875c-.320312 0-.597656-.214843-.6875-.523437l-1.496093-5.289063c-.105469-.382812.113281-.78125.492187-.890625.0625-.019531.128906-.027344.195313-.027344zm7.519531 0h4.796875c.320312 0 .601562.214844.6875.523438l1.496094 5.285156c.109374.386719-.113282.785156-.488282.894532-.066406.019531-.132812.027343-.199218.027343h-4.796876c-.316406 0-.597656-.214843-.6875-.523437l-1.496093-5.289063c-.109375-.382812.113281-.78125.492187-.890625.0625-.019531.128906-.027344.195313-.027344zm7.519531 0h4.796875c.320313 0 .601563.214844.6875.523438l1.496094 5.285156c.109375.386719-.109375.785156-.492188.894532-.0625.019531-.125.027343-.191406.027343h-4.800781c-.320313 0-.597656-.214843-.6875-.523437l-1.492188-5.289063c-.109375-.382812.109375-.78125.488282-.890625.066406-.019531.128906-.027344.195312-.027344zm-28.644531 11.054688c-1.84375 0-3.332031 1.507812-3.332031 3.367188 0 1.859374 1.488281 3.367187 3.332031 3.367187 1.839843 0 3.328125-1.507813 3.328125-3.367187 0-1.859376-1.488282-3.367188-3.328125-3.367188zm26.175781 0c-1.839844 0-3.332031 1.507812-3.332031 3.367188 0 1.859374 1.492187 3.367187 3.332031 3.367187s3.332031-1.507813 3.332031-3.367187c0-1.859376-1.492187-3.367188-3.332031-3.367188zm0 0"/></svg>