<svg height="50pt" viewBox="0 0 50 50" width="50pt" xmlns="http://www.w3.org/2000/svg"><path d="m3.347656.0390625c-1.824218 0-3.3046872 1.4843755-3.3046872 3.3085935v43.304688c0 1.824218 1.4804692 3.304687 3.3046872 3.304687h43.304688c1.824218 0 3.304687-1.480469 3.304687-3.304687v-43.304688c0-1.824218-1.480469-3.3085935-3.304687-3.3085935zm0 0" fill="#fff"/><path d="m3.347656 0c-1.84375 0-3.347656 1.5-3.347656 3.347656v43.304688c0 1.84375 1.503906 3.347656 3.347656 3.347656h43.304688c1.84375 0 3.347656-1.503906 3.347656-3.347656v-43.304688c0-1.847656-1.503906-3.347656-3.347656-3.347656zm0 .0390625h43.304688c1.820312 0 3.304687 1.4882815 3.304687 3.3085935v43.304688c0 1.824218-1.484375 3.304687-3.304687 3.304687h-43.304688c-1.824218 0-3.3046872-1.480469-3.3046872-3.304687v-43.304688c0-1.820312 1.4804692-3.3085935 3.3046872-3.3085935zm0 0"/><path d="m3.347656.851562c-1.378906 0-2.5 1.117188-2.5 2.496094v43.304688c0 1.378906 1.121094 2.496094 2.5 2.496094h43.304688c1.378906 0 2.496094-1.117188 2.496094-2.496094v-43.304688c0-1.378906-1.117188-2.496094-2.496094-2.496094zm0 1.246094h43.304688c.6875 0 1.25.558594 1.25 1.25v43.304688c0 .691406-.5625 1.25-1.25 1.25h-43.304688c-.6875 0-1.25-.558594-1.25-1.25v-43.304688c0-.691406.5625-1.25 1.25-1.25zm0 0"/><path d="m8.34375 43.546875v-1.246094l.558594-.234375c1.191406-.496094 2.53125-.496094 3.722656 0l1.117188.46875c1.191406.492188 2.53125.492188 3.71875 0l1.117187-.46875c1.191406-.496094 2.53125-.496094 3.722656 0l1.117188.46875c1.191406.492188 2.53125.492188 3.722656 0l1.117187-.46875c1.191407-.496094 2.53125-.496094 3.722657 0l1.113281.46875c1.191406.492188 2.53125.492188 3.722656 0l1.117188-.46875c1.191406-.496094 2.53125-.496094 3.722656 0v1.25c-1.191406-.496094-2.53125-.496094-3.722656 0l-1.117188.464844c-1.191406.496094-2.53125.496094-3.722656 0l-1.113281-.464844c-1.191407-.496094-2.53125-.496094-3.722657 0l-1.117187.464844c-1.191406.496094-2.53125.496094-3.722656 0l-1.117188-.464844c-1.191406-.496094-2.53125-.496094-3.722656 0l-1.117187.464844c-1.1875.496094-2.527344.496094-3.71875 0l-1.117188-.464844c-1.191406-.496094-2.53125-.496094-3.722656 0"/><path d="m8.34375 41.050781v-1.25l.558594-.230469c1.191406-.496093 2.53125-.496093 3.722656 0l1.117188.464844c1.191406.496094 2.53125.496094 3.71875 0l1.117187-.464844c1.191406-.496093 2.53125-.496093 3.722656 0l1.117188.464844c1.191406.496094 2.53125.496094 3.722656 0l1.117187-.464844c1.191407-.496093 2.53125-.496093 3.722657 0l1.113281.464844c1.191406.496094 2.53125.496094 3.722656 0l1.117188-.464844c1.191406-.496093 2.53125-.496093 3.722656 0v1.246094c-1.191406-.492187-2.53125-.492187-3.722656 0l-1.117188.46875c-1.191406.496094-2.53125.496094-3.722656 0l-1.113281-.46875c-1.191407-.492187-2.53125-.492187-3.722657 0l-1.117187.46875c-1.191406.496094-2.53125.496094-3.722656 0l-1.117188-.46875c-1.191406-.492187-2.53125-.492187-3.722656 0l-1.117187.46875c-1.1875.496094-2.527344.496094-3.71875 0l-1.117188-.46875c-1.191406-.492187-2.53125-.492187-3.722656 0"/><path d="m17.476562 19.59375c-.621093 0-1.183593.371094-1.433593.941406l-2.46875 5.671875c-.175781.402344-.394531.78125-.65625 1.128907l-.375.5c-.242188.324218-.375.71875-.375 1.125v4.058593c0 .859375.699219 1.558594 1.5625 1.558594h23.097656c.863281 0 1.5625-.699219 1.5625-1.558594v-4.058593c0-.40625-.132813-.800782-.375-1.125l-.375-.5c-.261719-.347657-.484375-.726563-.65625-1.128907l-2.46875-5.671875c-.25-.570312-.8125-.941406-1.433594-.941406zm.375 1.5625h14.855469c.246094 0 .472657.148438.570313.375l2.148437 4.929688h-20.292969l2.144532-4.929688c.101562-.226562.328125-.375.574218-.375zm0 0"/><path d="m13.730469 35.203125h3.742187v3.433594c0 .515625-.417968.9375-.933594.9375h-1.875c-.515624 0-.933593-.421875-.933593-.9375"/><path d="m33.082031 35.203125h3.746094v3.433594c0 .515625-.417969.9375-.933594.9375h-1.875c-.515625 0-.9375-.421875-.9375-.9375"/><path d="m28.914062 4.933594h-.667968v-.664063h.667968zm0 4h-.667968v-3.332032h.667968zm-3.664062-2h1.414062c0-.390625-.316406-.707032-.707031-.707032s-.707031.316407-.707031.707032zm2.082031.582031h-2.082031v.082031c0 .292969.175781.550782.445312.660156.371094.148438.792969.042969 1.050782-.257812l.507812.433594c-.445312.515625-1.171875.695312-1.804687.441406-.523438-.207031-.867188-.714844-.867188-1.277344v-.664062c0-.757813.617188-1.375 1.375-1.375.761719 0 1.375.617187 1.375 1.375zm-5.582031.125c0 .367187.300781.667969.667969.667969.367187 0 .667969-.300782.667969-.667969v-.75c0-.367187-.300782-.664063-.667969-.664063-.367188 0-.667969.296876-.667969.664063zm-.664062 1.292969v-4.664063h.664062v1.707031c.390625-.484374 1.101562-.558593 1.582031-.167968.265625.214844.417969.535156.417969.875v1.164062c0 .621094-.503906 1.125-1.121094 1.125-.339844 0-.664062-.152344-.878906-.417968v.378906"/><path d="m34.160156 14.261719h1.945313c0-.535157-.433594-.972657-.972657-.972657-.535156 0-.972656.4375-.972656.972657zm2.863282.800781h-2.863282v.117188c0 .394531.242188.753906.613282.902343.507812.203125 1.089843.058594 1.449218-.355469l.691406.597657c-.609374.710937-1.609374.957031-2.480468.609375-.71875-.289063-1.1875-.984375-1.1875-1.753906v-.917969c0-1.042969.84375-1.890625 1.886718-1.890625 1.042969 0 1.890626.847656 1.890626 1.890625zm-8.703126 1.214844.648438-.652344c.53125.53125 1.328125.703125 2.03125.441406.238281-.089844.355469-.355468.269531-.59375-.066406-.167968-.21875-.28125-.402343-.292968l-.972657-.0625c-.757812-.046876-1.332031-.699219-1.285156-1.457032.039063-.601562.464844-1.109375 1.050781-1.25.855469-.207031 1.753906-.003906 2.4375.542969l-.570312.714844c-.464844-.371094-1.074219-.503907-1.652344-.367188-.246094.058594-.398438.304688-.339844.550781.046875.195313.214844.339844.417969.351563l.972656.0625c.757813.046875 1.332031.699219 1.285157 1.457031-.03125.539063-.382813 1.007813-.886719 1.199219-1.042969.390625-2.214844.140625-3.003907-.644531zm-4.695312 0 .648438-.652344c.53125.53125 1.328124.703125 2.03125.441406.238281-.089844.359374-.355468.269531-.59375-.0625-.167968-.21875-.28125-.398438-.292968l-.976562-.0625c-.757813-.046876-1.332031-.699219-1.285157-1.457032.039063-.601562.464844-1.109375 1.050782-1.25.855468-.207031 1.753906-.003906 2.441406.542969l-.574219.714844c-.464843-.371094-1.074219-.503907-1.652343-.367188-.246094.058594-.398438.304688-.339844.550781.046875.195313.21875.339844.417968.351563l.972657.0625c.757812.046875 1.332031.699219 1.285156 1.457031-.03125.539063-.382813 1.007813-.886719 1.199219-1.042968.390625-2.214844.140625-3.003906-.644531zm-1.488281-4.765625h-.914063v-.914063h.914063zm-1.832031 0h-.917969v-.914063h.917969zm1.375 3.496093h-1.316407c-.316406 0-.574219.253907-.574219.570313s.257813.574219.574219.574219h.746094c.3125 0 .570313-.257813.570313-.574219zm.914062 2h-.914062v-.472656c-.160157.292969-.46875.472656-.800782.472656h-.574218c-.757813 0-1.375-.613281-1.375-1.371093 0-.761719.617187-1.375 1.375-1.375h1.375v-.457031c0-.25-.179688-.464844-.425782-.507813-.324218-.058594-.65625-.058594-.980468 0-.160157.027344-.300782.128906-.371094.277344l-.726563-.574219c.21875-.320312.558594-.539062.941407-.605469.425781-.078125.863281-.078125 1.292968 0 .6875.117188 1.183594.714844 1.183594 1.410157zm-9.617188 0v-6.410156h.917969l2.917969 4.582032v-4.582032h.972656v6.410156h-.914062l-2.921875-4.578124v4.578124"/></svg>