<svg height="50pt" viewBox="0 0 66 50" width="66pt" xmlns="http://www.w3.org/2000/svg"><path d="m4.398438.03125c-2.40625 0-4.3632818 1.980469-4.3632818 4.414062v41.109376c0 2.433593 1.9570318 4.414062 4.3632818 4.414062h57.203124c2.40625 0 4.367188-1.980469 4.367188-4.414062v-41.109376c0-2.433593-1.960938-4.414062-4.367188-4.414062" fill="#fff"/><path d="m4.398438 49.933594c-2.390626 0-4.3320318-1.960938-4.3320318-4.378906v-41.109376c0-2.414062 1.9414058-4.3789058 4.3320318-4.3789058h57.203124c2.390626 0 4.332032 1.9648438 4.332032 4.3789058v41.109376c0 2.417968-1.941406 4.378906-4.332032 4.378906zm57.203124-49.933594h-57.203124c-2.429688 0-4.398438 1.988281-4.398438 4.445312v41.109376c0 2.457031 1.96875 4.445312 4.398438 4.445312h57.203124c2.429688 0 4.398438-1.988281 4.398438-4.445312v-41.109376c0-2.457031-1.96875-4.445312-4.398438-4.445312"/><path d="m4.398438 48.890625c-1.820313 0-3.296876-1.496094-3.296876-3.335937v-41.109376c0-1.84375 1.476563-3.335937 3.296876-3.335937h57.203124c1.820313 0 3.300782 1.492187 3.300782 3.335937v41.109376c0 1.839843-1.480469 3.335937-3.300782 3.335937"/><path d="m4.398438 47.222656c-.910157 0-1.648438-.746094-1.648438-1.667968v-41.109376c0-.921874.738281-1.667968 1.648438-1.667968h57.203124c.910157 0 1.648438.746094 1.648438 1.667968v41.109376c0 .921874-.738281 1.667968-1.648438 1.667968" fill="#fff"/><path d="m42.238281 34.554688h-1.316406v-1.332032h1.316406zm0 8h-1.316406v-6.664063h1.316406zm-7.257812-4h2.804687c0-.78125-.628906-1.414063-1.402344-1.414063-.777343 0-1.402343.632813-1.402343 1.414063zm4.125 1.167968h-4.125v.167969c0 .578125.347656 1.097656.882812 1.3125.214844.089844.449219.136719.683594.136719.539063 0 1.050781-.238282 1.402344-.652344l1.003906.867188c-.601563.707031-1.480469 1.117187-2.40625 1.117187-.402344 0-.800781-.078125-1.175781-.230469-1.035156-.417968-1.710938-1.425781-1.710938-2.550781v-1.335937c0-1.515626 1.21875-2.746094 2.722656-2.746094 1.503907 0 2.722657 1.230468 2.722657 2.746094zm-10.558594 2.832032v-6.664063h1.316406v.75c.425781-.527344 1.0625-.832031 1.734375-.832031.511719 0 1.003906.171875 1.402344.5l-.9375 1.167968c-.242188-.21875-.554688-.335937-.878906-.335937-.726563 0-1.320313.59375-1.320313 1.332031v4.082032zm-4.125 0v-5.582032h-.660156v-1.082031h.660156v-1c0-.921875.738281-1.667969 1.648437-1.667969h.992188v1.25h-.910156c-.226563 0-.410156.1875-.410156.417969v1h1.320312v1.082031h-1.320312v5.582032"/><path d="m23.5 11.589844-8.664062.546875c-.394532.027343-.738282.28125-.875.65625l-2.207032 5.941406c-.167968.453125-.253906.933594-.253906 1.417969v5.578125c0 .558593.449219 1.011719 1 1.011719h.5c0-2.511719 2.015625-4.546876 4.5-4.546876s4.5 2.035157 4.5 4.546876h18c0-1.375.613281-2.671876 1.671875-3.535157h-18.171875zm-3.5 1.765625v5.054687l-6.640625.789063h-.058594c-.273437 0-.496093-.226563-.496093-.507813 0-.058594.007812-.121094.03125-.175781l1.675781-4.515625c.066406-.183594.238281-.3125.433593-.324219zm0 0"/><path d="m54.5 22.195312h-29v-14.140624h29zm-3 4.546876h-2.5c0-1.375-.613281-2.671876-1.671875-3.535157h7.171875v2.523438zm-3.5 0c0 1.953124-1.566406 3.535156-3.5 3.535156s-3.5-1.582032-3.5-3.535156c0-1.953126 1.566406-3.535157 3.5-3.535157s3.5 1.582031 3.5 3.535157zm-27 0c0 1.953124-1.566406 3.535156-3.5 3.535156s-3.5-1.582032-3.5-3.535156c0-1.953126 1.566406-3.535157 3.5-3.535157s3.5 1.582031 3.5 3.535157"/></svg>