<svg height="50pt" viewBox="0 0 90 50" width="90pt" xmlns="http://www.w3.org/2000/svg"><path d="m6.054688.105469c-3.28125 0-5.949219 2.683593-5.949219 5.976562v37.835938c0 3.292969 2.667969 5.972656 5.949219 5.972656h77.890624c3.28125 0 5.945313-2.679687 5.945313-5.972656v-37.835938c0-3.292969-2.664063-5.976562-5.945313-5.976562zm0 0" fill="#fff"/><path d="m6.054688 0c-3.339844 0-6.054688 2.730469-6.054688 6.082031v37.835938c0 3.355469 2.714844 6.082031 6.054688 6.082031h77.890624c3.339844 0 6.054688-2.726562 6.054688-6.082031v-37.835938c0-3.351562-2.714844-6.082031-6.054688-6.082031zm0 .105469h77.890624c3.28125 0 5.945313 2.683593 5.945313 5.976562v37.835938c0 3.292969-2.664063 5.972656-5.945313 5.972656h-77.890624c-3.28125 0-5.949219-2.679687-5.949219-5.972656v-37.835938c0-3.292969 2.667969-5.976562 5.949219-5.976562zm0 0"/><path d="m6.050781 46.195312h77.894531c1.242188 0 2.246094-1.007812 2.246094-2.253906v-37.878906c0-1.25-1.003906-2.257812-2.246094-2.257812h-77.894531c-1.242187 0-2.246093 1.007812-2.246093 2.257812v37.878906c0 1.246094 1.003906 2.253906 2.246093 2.253906zm.105469 2.152344c-2.480469 0-4.492188-2.019531-4.492188-4.515625v-37.664062c0-2.492188 2.011719-4.511719 4.492188-4.511719h77.703125c2.480469 0 4.492187 2.019531 4.492187 4.511719v37.664062c0 2.496094-2.011718 4.515625-4.492187 4.515625"/><path d="m45.070312 32.269531v-8.910156h-1.054687v-1.625h1.054687v-1.390625c0-.980469.269532-1.703125.808594-2.167969.535156-.460937 1.214844-.691406 2.035156-.691406h1.359376v1.988281h-1.191407c-.609375 0-.914062.289063-.914062.871094v1.390625h2.105469v1.625h-2.105469v8.910156zm6.527344 0v-10.535156h2.105469v1.128906h.042969c.648437-.832031 1.554687-1.25 2.71875-1.25.765625 0 1.492187.269531 2.183594.8125l-1.519532 1.824219c-.457031-.34375-.917968-.515625-1.390625-.515625-.515625 0-.984375.175781-1.40625.523437-.417969.347657-.628906.90625-.628906 1.679688v6.332031zm16.6875-4.464843h-6.507812c0 .867187.234375 1.515624.703125 1.949218.464843.433594 1.0625.648438 1.785156.648438.867187 0 1.632813-.335938 2.296875-1.015625l1.519531 1.3125c-.515625.609375-1.097656 1.042969-1.746093 1.300781-.648438.261719-1.324219.394531-2.03125.394531-1.074219 0-2.113282-.351562-3.121094-1.054687-1.007813-.699219-1.511719-2.132813-1.511719-4.296875 0-2.050781.464844-3.46875 1.394531-4.253907.933594-.785156 1.902344-1.175781 2.917969-1.175781 1.148437 0 2.152344.402344 3.011719 1.203125.859375.800782 1.289062 1.882813 1.289062 3.242188zm-6.507812-1.746094h4.414062c-.035156-.792969-.257812-1.398438-.664062-1.816406-.410156-.417969-.925782-.628907-1.542969-.628907-.625 0-1.144531.210938-1.558594.628907-.410156.417968-.628906 1.023437-.648437 1.816406zm9.355468 6.210937v-10.535156h2.101563v10.535156zm0-12.664062v-2.121094h2.101563v2.121094zm0 0"/><path d="m22.183594 9.230469c0 1.503906-1.210938 2.726562-2.703125 2.726562-1.496094 0-2.707031-1.222656-2.707031-2.726562 0-1.507813 1.210937-2.726563 2.707031-2.726563 1.492187 0 2.703125 1.21875 2.703125 2.726563zm0 0"/><path d="m22.953125 11.816406c-1.445313.003906-2.636719 1.152344-2.699219 2.613282.019532 1.699218.605469 4.175781.910156 6.144531l-3.914062 3.636719c-.308594.246093-.488281.621093-.488281 1.019531 0 .71875.578125 1.300781 1.292969 1.300781.222656 0 .4375-.058594.632812-.167969l.023438.039063 5.269531-4.710938 1.597656 2.339844 4.128906-3.953125c.773438-2.1875.816407-2.320313 1.394531-4.03125.128907-.519531.097657-.859375-.675781-1.195313-3.222656-1.417968-3.242187-1.417968-6.550781-2.871093-.289062-.105469-.597656-.164063-.921875-.164063zm3.960937 4.339844 1.890626.59375-.523438 1.398438zm0 0"/><path d="m30.171875 20.890625s-6.953125 6.417969-7.578125 7.085937c-.625.667969-.742188 1.574219-.390625 3.03125.605469 2.308594.601563 2.320313 1.882813 6.734376.238281.59375.804687.980468 1.4375.980468.859374 0 1.554687-.703125 1.554687-1.566406 0-.148438-.019531-.292969-.058594-.433594-1.0625-4.09375-1.070312-4.09375-1.613281-6.109375 0 0 .945312-.886719 1.78125-1.671875.1875.691406.667969 2.492188.882812 3.21875.496094.703125.46875.703125 2.984376 3.914063.292968.332031.746093.523437 1.1875.523437.859374 0 1.554687-.703125 1.554687-1.566406 0-.398438-.148437-.777344-.417969-1.070312-1.671875-2.207032-1.578125-2.121094-2.328125-3.070313l-1.175781-4.453125c.226562-.210938.523438-.484375.582031-.535156.652344-.546875 1.277344-2.296875.652344-3.359375s-.9375-1.652344-.9375-1.652344zm0 0"/><path d="m22.023438 42.339844c0 .636718-.515626 1.15625-1.148438 1.15625s-1.148438-.519532-1.148438-1.15625c0-.636719.515626-1.15625 1.148438-1.15625s1.148438.519531 1.148438 1.15625zm0 0"/><path d="m24.996094 42.339844c0 .636718-.515625 1.15625-1.148438 1.15625-.632812 0-1.144531-.519532-1.144531-1.15625 0-.636719.511719-1.15625 1.144531-1.15625.632813 0 1.148438.519531 1.148438 1.15625zm0 0"/><path d="m27.96875 42.339844c0 .636718-.511719 1.15625-1.148438 1.15625-.632812 0-1.144531-.519532-1.144531-1.15625 0-.636719.511719-1.15625 1.144531-1.15625.636719 0 1.148438.519531 1.148438 1.15625zm0 0"/><path d="m20.5 39.1875c-.582031 0-.769531.058594-.777344.742188-.007812.683593.171875.765624.699219.765624 1.933594.019532 3.898437.011719 5.867187.015626l-.027343-.011719 1.019531-.003907c.527344 0 .707031-.082031.699219-.765624-.007813-.683594-.195313-.742188-.777344-.742188-2.234375.019531-4.46875 0-6.703125 0zm0 0" fill-rule="evenodd"/><path d="m32.230469 40.890625c.246093.589844-.027344 1.269531-.613281 1.515625-.582032.246094-1.257813-.027344-1.5-.617188-.246094-.589843.027343-1.265624.609374-1.511718.585938-.25 1.257813.027344 1.503907.613281zm0 0"/><path d="m34.96875 39.730469c.246094.585937-.027344 1.265625-.609375 1.511719-.585937.25-1.257813-.027344-1.503906-.617188-.242188-.585938.027343-1.265625.613281-1.511719.582031-.25 1.257812.027344 1.5.617188zm0 0"/><path d="m37.710938 38.566406c.246093.589844-.027344 1.265625-.609376 1.511719-.585937.25-1.257812-.027344-1.503906-.613281-.246094-.589844.027344-1.265625.613282-1.515625.582031-.246094 1.253906.027343 1.5.617187zm0 0"/><path d="m29.613281 38.582031c-.535156.226563-.6875.355469-.429687.988281.253906.628907.453125.636719.9375.429688 1.792968-.738281 3.597656-1.515625 5.414062-2.277344l-.03125-.003906.941406-.398438c.484376-.207031.617188-.355468.347657-.980468-.265625-.625-.464844-.605469-1-.378906-2.050781.894531-4.121094 1.746093-6.179688 2.621093zm0 0" fill-rule="evenodd"/></svg>