<svg height="50pt" viewBox="0 0 66 50" width="66pt" xmlns="http://www.w3.org/2000/svg"><path d="m4.398438 0c-2.40625 0-4.3632818 1.980469-4.3632818 4.417969v41.175781c0 2.433594 1.9570318 4.417969 4.3632818 4.417969h57.195312c2.40625 0 4.363281-1.984375 4.363281-4.417969v-41.175781c0-2.4375-1.957031-4.417969-4.363281-4.417969" fill="#fff"/><path d="m4.390625 49.980469c-2.382813 0-4.3242188-1.964844-4.3242188-4.378907v-41.113281c0-2.414062 1.9414058-4.378906 4.3242188-4.378906h57.109375c2.382812 0 4.324219 1.964844 4.324219 4.378906v41.113281c0 2.414063-1.941407 4.378907-4.324219 4.378907zm57.109375-49.9375002h-57.109375c-2.421875 0-4.390625 1.9921872-4.390625 4.4453122v41.113281c0 2.453126 1.96875 4.441407 4.390625 4.441407h57.109375c2.421875 0 4.390625-1.988281 4.390625-4.441407v-41.113281c0-2.453125-1.96875-4.4453122-4.390625-4.4453122"/><path d="m4.390625 1.152344c-1.816406 0-3.292969 1.496094-3.292969 3.335937v41.113281c0 1.839844 1.476563 3.332032 3.292969 3.332032h57.109375c1.816406 0 3.292969-1.492188 3.292969-3.332032v-41.113281c0-1.839843-1.476563-3.335937-3.292969-3.335937zm0 1.667968h57.109375c.90625 0 1.644531.746094 1.644531 1.667969v41.113281c0 .917969-.738281 1.664063-1.644531 1.664063h-57.109375c-.90625 0-1.644531-.746094-1.644531-1.664063v-41.113281c0-.921875.738281-1.667969 1.644531-1.667969zm0 0"/><path d="m42.222656 34.5625h-1.316406v-1.335938h1.316406zm0 8h-1.316406v-6.667969h1.316406zm-7.25-4h2.804688c0-.78125-.628906-1.417969-1.402344-1.417969s-1.402344.636719-1.402344 1.417969zm4.121094 1.167969h-4.121094v.164062c0 .582031.351563 1.101563.882813 1.316407.730469.296874 1.566406.089843 2.082031-.515626l1 .867188c-.878906 1.039062-2.316406 1.394531-3.574219.886719-1.03125-.417969-1.707031-1.429688-1.707031-2.554688v-1.332031c0-1.519531 1.214844-2.75 2.71875-2.75 1.5 0 2.71875 1.230469 2.71875 2.75zm-10.546875 2.832031v-6.667969h1.320313v.753907c.769531-.96875 2.171874-1.117188 3.128906-.335938v.003906l-.9375 1.167969c-.542969-.492187-1.375-.441406-1.859375.109375-.214844.242188-.332031.558594-.332031.886719v4.082031zm-4.117187 0v-5.582031h-.660157v-1.085938h.660157v-1c0-.921875.738281-1.667969 1.648437-1.667969h.988281v1.253907h-.90625c-.230468 0-.414062.183593-.414062.414062v1h1.320312v1.085938h-1.320312v5.582031"/><path d="m27.113281 7.5c-1.285156 0-2.433593.789062-2.914062 1.988281l-2.449219 6.160157c-3.058594-.769532-6.25.609374-7.820312 3.371093-1.945313 3.421875-.78125 7.789063 2.601562 9.757813 3.378906 1.964844 7.695312.785156 9.640625-2.632813 1.945313-3.421875.78125-7.789062-2.601563-9.753906l1.011719-2.539063 5.222657 7.597657c1.175781 1.703125 3.097656 2.722656 5.152343 2.722656h4.101563c.675781 3.003906 3.183594 5.230469 6.214844 5.523437 3.882812.375 7.328124-2.507812 7.699218-6.4375.367188-3.925781-2.480468-7.414062-6.363281-7.789062-3.882813-.371094-7.328125 2.511719-7.695313 6.4375l-4.601562.277344c-.25.011718-.503906-.011719-.75-.078125-1.253906-.339844-2-1.644531-1.664062-2.917969l.257812-.976562c.121094-.453126.039062-.933594-.226562-1.316407l-2.441407-3.554687c-.296875-.425782-.777343-.679688-1.289062-.679688h-3.144531l.964843-2.429687c.179688-.449219.609375-.746094 1.09375-.746094h3.136719v-1.984375zm18.839844 9.921875c.253906 0 .515625.023437.773437.0625 2.785157.4375 4.6875 3.078125 4.253907 5.894531-.433594 2.816406-3.042969 4.742188-5.824219 4.304688-1.902344-.304688-3.472656-1.660156-4.066406-3.511719h6.421875v-2.78125l-6.609375.394531c.394531-2.550781 2.574218-4.371094 5.050781-4.363281zm-25.898437 0c.316406 0 .636718.03125.953124.09375l-1.867187 4.695313c-.203125.511718.042969 1.089843.542969 1.292968.503906.203125 1.074218-.042968 1.277344-.550781l1.867187-4.699219c2.363281 1.554688 3.035156 4.75 1.5 7.140625-1.535156 2.386719-4.695313 3.070313-7.054687 1.515625-2.363282-1.550781-3.035157-4.746094-1.5-7.136718.953124-1.484376 2.574218-2.351563 4.28125-2.351563zm0 0"/><path d="m51.433594 12.660156v1.984375h-5.492188c-1.609375 0-3.179687.5-4.5 1.433594l-3.007812-1.972656c-.359375-.253907-.445313-.746094-.195313-1.105469.148438-.214844.386719-.339844.640625-.339844"/></svg>