<svg height="50pt" viewBox="0 0 66 50" width="66pt" xmlns="http://www.w3.org/2000/svg" xmlns:xlink="http://www.w3.org/1999/xlink"><clipPath id="a"><path d="m13 6.789062h7v10.210938h-7zm0 0"/></clipPath><clipPath id="b"><path d="m20 6.789062h2v10.210938h-2zm0 0"/></clipPath><clipPath id="c"><path d="m31 6.789062h2v10.210938h-2zm0 0"/></clipPath><clipPath id="d"><path d="m10.296875 22h6.703125v8h-6.703125zm0 0"/></clipPath><clipPath id="e"><path d="m51 22h4.730469v8h-4.730469zm0 0"/></clipPath><clipPath id="f"><path d="m33 36h7v7.097656h-7zm0 0"/></clipPath><path d="m4.417969.0546875c-2.40625 0-4.3632815 1.9765625-4.3632815 4.4062505v41.078124c0 2.429688 1.9570315 4.40625 4.3632815 4.40625h57.164062c2.40625 0 4.363281-1.976562 4.363281-4.40625v-41.078124c0-2.429688-1.957031-4.4062505-4.363281-4.4062505zm0 0" fill="#fff"/><path d="m4.417969 1.132812c-1.820313 0-3.296875 1.488282-3.296875 3.328126v41.078124c0 1.839844 1.476562 3.328126 3.296875 3.328126h57.164062c1.820313 0 3.296875-1.488282 3.296875-3.328126v-41.078124c0-1.839844-1.476562-3.328126-3.296875-3.328126zm0 1.664063h57.164062c.910157 0 1.648438.746094 1.648438 1.664063v41.078124c0 .921876-.738281 1.664063-1.648438 1.664063h-57.164062c-.910157 0-1.648438-.742187-1.648438-1.664063v-41.078124c0-.917969.738281-1.664063 1.648438-1.664063zm0 0"/><path d="m4.417969 0c-2.433594 0-4.417969 2-4.417969 4.460938v41.078124c0 2.457032 1.984375 4.460938 4.417969 4.460938h57.164062c2.433594 0 4.417969-2.003906 4.417969-4.460938v-41.078124c0-2.460938-1.984375-4.460938-4.417969-4.460938zm0 .0546875h57.164062c2.40625 0 4.363281 1.9765625 4.363281 4.4062505v41.078124c0 2.429688-1.957031 4.40625-4.363281 4.40625h-57.164062c-2.40625 0-4.3632815-1.976562-4.3632815-4.40625v-41.078124c0-2.429688 1.9570315-4.4062505 4.3632815-4.4062505zm0 0"/><g clip-path="url(#a)"><path d="m13.292969 16.269531v-9.34375h1.398437v8.007813h4.535156v1.335937zm0 0"/></g><g clip-path="url(#b)"><path d="m20.546875 9.59375h1.320313v6.675781h-1.320313zm0-2.667969h1.320313v1.335938h-1.320313zm0 0"/></g><path d="m23.847656 16.269531v-6.675781h1.320313v.753906c.773437-.96875 2.171875-1.117187 3.128906-.335937.523437.425781.828125 1.074219.828125 1.753906v4.503906h-1.320312v-4.089843c0-.738282-.589844-1.335938-1.316407-1.335938-.730469 0-1.320312.597656-1.320312 1.335938v4.089843zm0 0"/><g clip-path="url(#c)"><path d="m31.105469 9.59375h1.320312v6.675781h-1.320312zm0-2.667969h1.320312v1.335938h-1.320312zm0 0"/></g><path d="m39.679688 13.429688h-4.125v.167968c0 .582032.351562 1.101563.882812 1.316406.734375.296876 1.570312.089844 2.085938-.515624l1 .871093c-.878907 1.035157-2.320313 1.394531-3.574219.882813-1.035157-.414063-1.710938-1.429688-1.710938-2.554688v-1.332031c0-1.523437 1.21875-2.753906 2.71875-2.753906 1.503907 0 2.722657 1.230469 2.722657 2.753906zm-4.125-1.164063h2.804687c0-.785156-.625-1.421875-1.402344-1.421875-.773437 0-1.402343.636719-1.402343 1.421875"/><path d="m41.492188 16.269531v-6.675781h1.320312v.753906c.773438-.96875 2.175781-1.117187 3.132812-.335937.523438.425781.824219 1.074219.824219 1.753906v4.503906h-1.316406v-4.089843c0-.738282-.59375-1.335938-1.320313-1.335938-.726562 0-1.320312.597656-1.320312 1.335938v4.089843zm0 0"/><path d="m48.75 11.929688h3.957031v1.335937h-3.957031zm0 0"/><g clip-path="url(#d)"><path d="m12.796875 29.613281-2.390625-6.671875h1.402344l1.566406 4.671875 1.566406-4.671875h1.398438l-2.386719 6.671875zm0 0"/></g><path d="m22.773438 26.777344h-4.121094v.167968c0 .578126.347656 1.101563.878906 1.316407.734375.296875 1.574219.085937 2.089844-.515625l1 .867187c-.882813 1.039063-2.320313 1.394531-3.578125.886719-1.035157-.417969-1.710938-1.429688-1.710938-2.554688v-1.332031c0-1.523437 1.21875-2.757812 2.722657-2.757812 1.5 0 2.71875 1.234375 2.71875 2.757812zm-4.121094-1.164063h2.804687c0-.785156-.628906-1.421875-1.402343-1.421875-.777344 0-1.402344.636719-1.402344 1.421875"/><path d="m24.589844 29.613281v-6.671875h1.320312v.753906c.769532-.96875 2.171875-1.117187 3.128906-.335937h.003907l-.9375 1.171875c-.542969-.492188-1.378907-.445312-1.863281.109375-.214844.242187-.332032.558594-.332032.886719v4.085937zm0 0"/><path d="m30.03125 29.613281v-9.34375h1.320312v5.839844l2.554688-3.167969h1.566406l-2.222656 2.585938 2.554688 4.085937h-1.648438l-1.734375-3.085937-1.070313 1.167968v1.917969zm0 0"/><path d="m42.070312 26.777344h-4.121093v.167968c0 .578126.347656 1.101563.878906 1.316407.734375.296875 1.574219.085937 2.085937-.515625l1.003907.867187c-.882813 1.039063-2.320313 1.394531-3.578125.886719-1.035156-.417969-1.710938-1.429688-1.710938-2.554688v-1.332031c0-1.523437 1.21875-2.757812 2.722656-2.757812 1.5 0 2.71875 1.234375 2.71875 2.757812zm-4.121093-1.164063h2.800781c0-.785156-.625-1.421875-1.398438-1.421875-.777343 0-1.402343.636719-1.402343 1.421875"/><path d="m43.886719 29.613281v-9.34375h1.316406v3.425781c.773437-.96875 2.175781-1.117187 3.132813-.335937.523437.425781.828124 1.070313.828124 1.75v4.503906h-1.320312v-4.085937c0-.738282-.589844-1.335938-1.320312-1.335938-.726563 0-1.320313.597656-1.320313 1.335938v4.085937zm0 0"/><g clip-path="url(#e)"><path d="m51.144531 29.613281v-6.671875h1.316407v.753906c.773437-.96875 2.175781-1.117187 3.132812-.335937l-.9375 1.171875c-.542969-.492188-1.375-.445312-1.859375.109375-.214844.242187-.335937.558594-.335937.886719v4.085937zm0 0"/></g><path d="m24.425781 42.960938v-5.589844h-.660156v-1.082032h.660156v-1c0-.925781.738281-1.671874 1.648438-1.671874h.988281v1.253906h-.90625c-.226562 0-.414062.1875-.414062.417968v1h1.320312v1.082032h-1.320312v5.589844zm0 0"/><path d="m28.546875 42.960938v-6.671876h1.320313v.753907c.773437-.96875 2.175781-1.121094 3.132812-.339844v.003906l-.9375 1.167969c-.542969-.488281-1.378906-.4375-1.863281.113281-.214844.242188-.332031.558594-.332031.886719v4.085938zm0 0"/><g clip-path="url(#f)"><path d="m39.101562 40.125h-4.121093v.167969c0 .578125.347656 1.097656.878906 1.316406.734375.296875 1.574219.085937 2.089844-.519531l1 .867187c-.882813 1.042969-2.320313 1.398438-3.578125.890625-1.03125-.417968-1.710938-1.429687-1.710938-2.554687v-1.335938c0-1.519531 1.21875-2.753906 2.722656-2.753906 1.5 0 2.71875 1.234375 2.71875 2.753906zm-4.121093-1.167969h2.800781c0-.78125-.625-1.417969-1.398438-1.417969-.777343 0-1.402343.636719-1.402343 1.417969"/></g><path d="m40.917969 36.289062h1.320312v6.671876h-1.320312zm0-2.671874h1.320312v1.335937h-1.320312zm0 0"/></svg>