<svg height="50pt" viewBox="0 0 66 50" width="66pt" xmlns="http://www.w3.org/2000/svg"><path d="m4.398438 0c-2.40625 0-4.3632818 1.980469-4.3632818 4.417969v41.175781c0 2.433594 1.9570318 4.417969 4.3632818 4.417969h57.195312c2.40625 0 4.363281-1.984375 4.363281-4.417969v-41.175781c0-2.4375-1.957031-4.417969-4.363281-4.417969" fill="#fff"/><path d="m4.390625 49.980469c-2.382813 0-4.3242188-1.964844-4.3242188-4.378907v-41.113281c0-2.414062 1.9414058-4.378906 4.3242188-4.378906h57.109375c2.382812 0 4.324219 1.964844 4.324219 4.378906v41.113281c0 2.414063-1.941407 4.378907-4.324219 4.378907zm57.109375-49.9375002h-57.109375c-2.421875 0-4.390625 1.9921872-4.390625 4.4453122v41.113281c0 2.453126 1.96875 4.441407 4.390625 4.441407h57.109375c2.421875 0 4.390625-1.988281 4.390625-4.441407v-41.113281c0-2.453125-1.96875-4.4453122-4.390625-4.4453122"/><path d="m4.390625 1.152344c-1.816406 0-3.292969 1.496094-3.292969 3.335937v41.113281c0 1.839844 1.476563 3.332032 3.292969 3.332032h57.109375c1.816406 0 3.292969-1.492188 3.292969-3.332032v-41.113281c0-1.839843-1.476563-3.335937-3.292969-3.335937zm0 1.667968h57.109375c.90625 0 1.644531.746094 1.644531 1.667969v41.113281c0 .917969-.738281 1.664063-1.644531 1.664063h-57.109375c-.90625 0-1.644531-.746094-1.644531-1.664063v-41.113281c0-.921875.738281-1.667969 1.644531-1.667969zm0 0"/><path d="m41.316406 34.605469h-1.316406v-1.332031h1.316406zm0 8.003906h-1.316406v-6.667969h1.316406zm-7.25-4h2.800782c0-.785156-.625-1.417969-1.398438-1.417969s-1.402344.632813-1.402344 1.417969zm4.121094 1.164063h-4.121094v.167968c0 .578125.347656 1.101563.882813 1.316406.730469.296876 1.566406.089844 2.082031-.519531l1 .871094c-.878906 1.039063-2.316406 1.394531-3.574219.886719-1.03125-.417969-1.707031-1.429688-1.707031-2.554688v-1.332031c0-1.519531 1.214844-2.753906 2.71875-2.753906 1.5 0 2.71875 1.234375 2.71875 2.753906zm-10.546875 2.835937v-6.667969h1.320313v.75c.769531-.964844 2.171874-1.117187 3.128906-.335937v.003906l-.9375 1.167969c-.542969-.488282-1.375-.4375-1.859375.109375-.214844.246093-.332031.5625-.332031.886719v4.085937zm-4.117187 0v-5.585937h-.660157v-1.082032h.660157v-1c0-.921875.738281-1.667968 1.648437-1.667968h.988281v1.25h-.90625c-.230468 0-.414062.1875-.414062.417968v1h1.320312v1.082032h-1.320312v5.585937"/><path d="m22.578125 20.910156c-2.835937 0-5.136719 2.328125-5.136719 5.195313 0 2.871093 2.300782 5.195312 5.136719 5.195312 2.832031 0 5.132813-2.324219 5.132813-5.195312 0-2.867188-2.300782-5.195313-5.132813-5.195313zm0 1.835938c1.832031 0 3.320313 1.503906 3.320313 3.359375s-1.488282 3.363281-3.320313 3.363281c-1.835937 0-3.324219-1.507812-3.324219-3.363281s1.488282-3.359375 3.324219-3.359375zm0 0"/><path d="m43.414062 20.910156c-2.832031 0-5.132812 2.328125-5.132812 5.195313 0 2.871093 2.300781 5.195312 5.132812 5.195312 2.835938 0 5.136719-2.324219 5.136719-5.195312 0-2.867188-2.300781-5.195313-5.136719-5.195313zm0 1.835938c1.835938 0 3.324219 1.503906 3.324219 3.359375s-1.488281 3.363281-3.324219 3.363281c-1.832031 0-3.320312-1.507812-3.320312-3.363281s1.488281-3.359375 3.320312-3.359375zm0 0"/><path d="m38.097656 27.941406c-6.15625-.183594-9.359375.304688-9.976562-2.757812l-.128906-.582032c-.722657-2.667968-3.238282-4.421874-5.960938-4.152343-.964844-1.980469-1.933594-4.0625 4.589844-6.054688-.082032.347657-.121094.703125-.117188 1.058594l5.703125-4.351563c1.066407-.8125 2.582031-.597656 3.386719.480469l3.015625 4.050781-3.207031 2.441407-3.3125-4.445313-5.058594 3.855469c.59375 1.078125 1.609375 1.84375 2.796875 2.105469.050781-.632813.574219-1.121094 1.203125-1.121094h4.660156l3.207032-2.445312 1.179687 1.582031c.191406.257812.332031.550781.410156.863281h4.742188c.332031 0 .601562.433594.601562.976562 0 .539063-.269531.976563-.601562.976563h-1.816407c-3.101562 0-5.617187 2.542969-5.617187 5.683594 0 .625.105469 1.242187.300781 1.835937"/><path d="m35.214844 10.578125c-1.019532-.65625-2.332032-.601563-3.296875.132813l-.859375.65625-1.082032.15625v-1.714844l1.976563-.285156v-1.429688l-1.996094.289062c.3125-1.589843 1.835938-2.625 3.40625-2.308593 1.570313.3125 2.59375 1.855469 2.28125 3.445312-.070312.378907-.21875.738281-.429687 1.058594"/></svg>