<svg height="50pt" viewBox="0 0 90 50" width="90pt" xmlns="http://www.w3.org/2000/svg"><path d="m6.066406 49.925781c-3.308594 0-5.9921872-2.714843-5.9921872-6.0625v-37.722656c0-3.347656 2.6835932-6.0664062 5.9921872-6.0664062h77.871094c3.308594 0 5.988281 2.7187502 5.988281 6.0664062v37.722656c0 3.347657-2.679687 6.0625-5.988281 6.0625zm0 0" fill="#fff"/><path d="m6.066406 48.410156c-2.484375 0-4.492187-2.035156-4.492187-4.550781v-37.71875c0-2.511719 2.007812-4.546875 4.492187-4.546875h77.871094c2.476562 0 4.492188 2.035156 4.492188 4.546875v37.71875c0 2.515625-2.015626 4.550781-4.492188 4.550781zm0 0"/><path d="m6.066406 46.136719c-1.242187 0-2.25-1.019531-2.25-2.277344v-37.71875c0-1.253906 1.007813-2.273437 2.25-2.273437h77.871094c1.242188 0 2.242188 1.019531 2.242188 2.273437v37.71875c0 1.257813-1 2.277344-2.242188 2.277344zm0 0" fill="#fff"/><path d="m16.125 15.886719v-8.980469h2.058594c1.136718 0 2.058594.933594 2.058594 2.085938v.71875c0 .613281-.34375 1.175781-.890626 1.445312.546876.265625.890626.828125.890626 1.445312v1.203126c0 1.152343-.921876 2.082031-2.058594 2.082031zm1.269531-1.28125h.789063c.484375 0 .871094-.394531.871094-.882813v-1.121094c0-.488281-.386719-.882812-.871094-.882812h-.789063zm0-4.011719h.789063c.484375 0 .871094-.394531.871094-.882812v-.71875c0-.488282-.386719-.882813-.871094-.882813h-.789063zm7.765625 3.449219c0 1.0625-.855468 1.925781-1.902344 1.925781-1.050781 0-1.902343-.863281-1.902343-1.925781v-2.726563c0-1.0625.851562-1.925781 1.902343-1.925781 1.046876 0 1.902344.863281 1.902344 1.925781v1.84375h-2.539062v.882813c0 .355469.285156.640625.636718.640625.351563 0 .632813-.285156.632813-.640625zm-2.539062-1.925781h1.269531v-.800782c0-.355468-.28125-.644531-.632813-.644531-.351562 0-.636718.289063-.636718.644531zm5.867187 3.769531h-.636719c-.789062 0-1.425781-.644531-1.425781-1.441407v-3.929687h-.632812v-1.046875h.632812v-1.921875h1.265625v1.921875h.796875v1.046875h-.796875v3.769531c0 .21875.179688.398438.398438.398438h.398437zm1.105469 0v-6.417969h1.269531v.726562c.40625-.507812 1.019531-.804687 1.664063-.804687v1.347656c-.664063-.222656-1.382813.144531-1.597656.816407-.042969.128906-.066407.265624-.066407.402343v3.929688zm3.566406-6.417969h1.269532v6.417969h-1.269532zm0-2.5625h1.269532v1.28125h-1.269532zm6.339844 7.136719c0 1.0625-.851562 1.925781-1.902344 1.925781-1.050781 0-1.898437-.863281-1.898437-1.925781v-2.726563c0-1.0625.847656-1.925781 1.898437-1.925781 1.050782 0 1.902344.863281 1.902344 1.925781v1.84375h-2.535156v.882813c0 .355469.285156.640625.632812.640625.351563 0 .632813-.285156.632813-.640625zm-2.535156-1.925781h1.265625v-.800782c0-.355468-.28125-.644531-.632813-.644531-.347656 0-.632812.289063-.632812.644531zm3.644531 3.769531v-8.980469h1.269531v3.207031c.351563-.664062 1.164063-.917969 1.820313-.5625.441406.238281.714843.699219.714843 1.203125v3.851563c0 .75-.605468 1.363281-1.347656 1.363281-.496094 0-.953125-.277344-1.1875-.722656v.640625zm1.269531-1.84375c0 .355469.285156.640625.632813.640625.351562 0 .632812-.285156.632812-.640625v-2.726563c0-.355468-.28125-.644531-.632812-.644531-.347657 0-.632813.289063-.632813.644531zm3.328125 0h1.1875c0 .398437.320313.722656.714844.722656s.710937-.324219.710937-.722656c0-.285157-.164062-.542969-.421874-.660157l-1.027344-.378906c-.921875-.414062-1.335938-1.503906-.929688-2.433594.40625-.933593 1.484375-1.351562 2.40625-.941406.65625.296875 1.082032.957032 1.082032 1.6875h-1.1875c0-.355468-.285157-.644531-.632813-.644531-.351563 0-.636719.289063-.636719.644531 0 .253906.148438.484375.375.585938l1.03125.382812c.957032.429688 1.394532 1.566406.96875 2.539063-.425781.972656-1.550781 1.410156-2.507812.980469-.6875-.308594-1.132813-1-1.132813-1.761719m5.070313-2.324219h3.800781v1.285156h-3.800781zm12.679687 4.167969h-1.269531v-.640625c-.347656.664062-1.164062.917968-1.824219.5625-.433593-.234375-.710937-.699219-.710937-1.203125v-5.136719h1.265625v4.574219c0 .355469.285156.640625.636719.640625.351562 0 .632812-.285156.632812-.640625v-4.574219h1.269531zm1.265625 0v-6.417969h1.269532v.644531c.351562-.664062 1.164062-.917969 1.824218-.5625.4375.238281.710938.699219.710938 1.203125v5.132813h-1.269532v-4.570313c0-.355468-.28125-.644531-.632812-.644531-.347656 0-.632812.289063-.632812.644531v4.570313zm8.71875 0h-1.269531v-.640625c-.347656.664062-1.167969.917968-1.820313.5625-.441406-.234375-.714843-.699219-.714843-1.203125v-3.851563c0-.75.605469-1.363281 1.347656-1.363281.496094 0 .953125.277344 1.1875.722656v-3.207031h1.269531zm-1.269531-1.84375v-2.726563c0-.355468-.285156-.644531-.632813-.644531-.347656 0-.632812.289063-.632812.644531v2.726563c0 .355469.285156.640625.632812.640625.347657 0 .632813-.285156.632813-.640625"/><path d="m8.636719 28.617188-1.824219-8.984376h1.347656l1.03125 6.257813 1.03125-6.257813h1.34375l-1.820312 8.984376zm7.054687-1.847657c0 1.066407-.855468 1.925781-1.902344 1.925781-1.050781 0-1.90625-.859374-1.90625-1.925781v-2.726562c0-1.0625.855469-1.925781 1.90625-1.925781 1.046876 0 1.902344.863281 1.902344 1.925781v1.847656h-2.539062v.878906c0 .355469.28125.644531.636718.644531.347657 0 .632813-.289062.632813-.644531zm-2.539062-1.925781h1.269531v-.800781c0-.351563-.285156-.640625-.632813-.640625-.355468 0-.636718.289062-.636718.640625zm3.644531 3.773438v-6.417969h1.269531v.726562c.40625-.511719 1.019532-.808593 1.664063-.808593v1.347656c-.664063-.21875-1.382813.148437-1.601563.820312-.039062.128906-.0625.261719-.0625.402344v3.929688zm3.40625-1.847657h1.191406c0 .402344.316407.726563.710938.726563s.714843-.324219.714843-.726563c0-.285156-.167968-.542969-.421874-.660156l-1.03125-.378906c-.917969-.414063-1.332032-1.503907-.925782-2.433594.40625-.933594 1.484375-1.351563 2.402344-.9375.664062.292969 1.085938.953125 1.085938 1.683594h-1.1875c0-.351563-.285157-.640625-.636719-.640625-.347657 0-.632813.289062-.632813.640625 0 .253906.148438.484375.378906.585937l1.027344.382813c.960938.429687 1.390625 1.566406.96875 2.539062-.425781.972657-1.550781 1.410157-2.511718.980469-.6875-.308594-1.132813-1-1.132813-1.761719m4.597656 0v-2.726562c0-1.0625.851563-1.925781 1.902344-1.925781s1.902344.863281 1.902344 1.925781v2.726562c0 1.066407-.851563 1.925781-1.902344 1.925781s-1.902344-.859374-1.902344-1.925781m1.269531 0c0 .355469.28125.644531.632813.644531s.632813-.289062.632813-.644531v-2.726562c0-.351563-.28125-.640625-.632813-.640625s-.632813.289062-.632813.640625zm3.800782 1.847657v-6.417969h1.269531v.726562c.40625-.511719 1.019531-.808593 1.664063-.808593v1.347656c-.664063-.21875-1.382813.148437-1.601563.820312-.042969.128906-.0625.261719-.0625.402344v3.929688zm4.835937.722656c0 .351562.285157.636718.632813.636718s.632812-.285156.632812-.636718v-1.367188c-.347656.664063-1.164062.917969-1.820312.5625-.441406-.238281-.714844-.699218-.714844-1.203125v-3.847656c0-.753906.605469-1.367187 1.347656-1.367187.5 0 .953125.277343 1.1875.722656v-.640625h1.269532v7.140625c0 1.0625-.851563 1.921875-1.902344 1.921875-1.050782 0-1.902344-.859375-1.902344-1.921875zm1.265625-2.570313v-2.726562c0-.351563-.285156-.640625-.632812-.640625s-.632813.289062-.632813.640625v2.726562c0 .355469.285157.644531.632813.644531s.632812-.289062.632812-.644531m6.339844 1.847657h-1.265625v-.644532c-.351563.664063-1.167969.917969-1.824219.5625-.441406-.238281-.714844-.699218-.714844-1.203125v-5.132812h1.269532v4.570312c0 .355469.285156.644531.632812.644531.351563 0 .636719-.289062.636719-.644531v-4.570312h1.265625zm1.269531 0v-6.417969h1.265625v.640625c.351563-.664063 1.167969-.917969 1.824219-.558594.4375.234375.714844.695312.714844 1.203125v5.132813h-1.269531v-4.574219c0-.351563-.28125-.640625-.636719-.640625-.347657 0-.632813.289062-.632813.640625v4.574219zm6.179688.722656c0 .351562.285156.636718.636719.636718.347656 0 .632812-.285156.632812-.636718v-1.367188c-.351562.664063-1.167969.917969-1.824219.5625-.4375-.238281-.714843-.699218-.714843-1.203125v-3.847656c0-.753906.605468-1.367187 1.351562-1.367187.496094 0 .953125.277343 1.1875.722656v-.640625h1.269531v7.140625c0 1.0625-.855469 1.921875-1.902343 1.921875-1.050782 0-1.90625-.859375-1.90625-1.921875zm1.269531-2.570313v-2.726562c0-.351563-.285156-.640625-.632812-.640625-.351563 0-.636719.289062-.636719.640625v2.726562c0 .355469.285156.644531.636719.644531.347656 0 .632812-.289062.632812-.644531m2.214844 0h1.191406c0 .402344.320312.726563.710938.726563.398437 0 .714843-.324219.714843-.726563 0-.285156-.167969-.542969-.425781-.660156l-1.023438-.378906c-.921874-.414063-1.335937-1.503907-.929687-2.433594.40625-.933594 1.484375-1.351563 2.40625-.9375.65625.292969 1.082031.953125 1.082031 1.683594h-1.1875c0-.351563-.28125-.640625-.636718-.640625-.347657 0-.632813.289062-.632813.640625 0 .253906.148437.484375.378906.585937l1.027344.382813c.960937.429687 1.394531 1.566406.96875 2.539062-.425781.972657-1.550781 1.410157-2.511719.980469-.6875-.308594-1.132812-1-1.132812-1.761719m8.402344 1.847657h-1.265626v-.644532c-.351562.664063-1.167968.917969-1.824218.5625-.441406-.238281-.714844-.699218-.714844-1.203125v-3.847656c0-.753906.601562-1.367187 1.347656-1.367187.496094 0 .957032.277343 1.191406.722656v-3.207032h1.265626zm-1.265626-1.847657v-2.726562c0-.351563-.285156-.640625-.636718-.640625-.351563 0-.632813.289062-.632813.640625v2.726562c0 .355469.28125.644531.632813.644531.351562 0 .636718-.289062.636718-.644531m2.691407-4.570312h1.269531v6.417969h-1.269531zm0-2.566407h1.269531v1.28125h-1.269531zm6.339843 7.136719c0 1.066407-.851562 1.925781-1.902343 1.925781s-1.902344-.859374-1.902344-1.925781v-2.726562c0-1.0625.851563-1.925781 1.902344-1.925781s1.902343.863281 1.902343 1.925781v1.847656h-2.535156v.878906c0 .355469.285156.644531.632813.644531.351562 0 .636719-.289062.636719-.644531zm-2.535156-1.925781h1.269532v-.800781c0-.351563-.285157-.640625-.636719-.640625-.347657 0-.632813.289062-.632813.640625zm3.644532 3.773438v-6.417969h1.269531v.640625c.347656-.664063 1.164062-.917969 1.824219-.558594.433593.234375.710937.695312.710937 1.203125v5.132813h-1.269531v-4.574219c0-.351563-.28125-.640625-.632813-.640625-.351562 0-.632812.289062-.632812.640625v4.574219zm4.753906-1.847657h1.1875c0 .402344.320312.726563.714844.726563.394531 0 .710937-.324219.710937-.726563 0-.285156-.164063-.542969-.421875-.660156l-1.027344-.378906c-.921875-.414063-1.335937-1.503907-.929687-2.433594.410156-.933594 1.484375-1.351563 2.40625-.9375.660156.292969 1.085937.953125 1.085937 1.683594h-1.1875c0-.351563-.285156-.640625-.636718-.640625-.351563 0-.632813.289062-.632813.640625 0 .253906.144531.484375.375.585937l1.027344.382813c.960937.429687 1.394531 1.566406.96875 2.539062-.421875.972657-1.546875 1.410157-2.507813.980469-.691406-.308594-1.132812-1-1.132812-1.761719m6.972656 1.847657h-.632812c-.789063 0-1.425782-.648438-1.425782-1.445313v-3.929687h-.632812v-1.042969h.632812v-1.925781h1.265625v1.925781h.792969v1.042969h-.792969v3.769531c0 .21875.179688.402343.398438.402343h.394531zm0 0"/><path d="m36.65625 42.984375v-5.441406h-.640625v-1.058594h.640625v-.976563c0-.894531.71875-1.625 1.609375-1.625h.960937v1.21875h-.882812c-.222656 0-.402344.183594-.402344.40625v.976563h1.285156v1.058594h-1.285156v5.441406zm4.015625 0v-6.5h1.285156v.734375c.75-.941406 2.117188-1.089844 3.046875-.328125h.003906l-.914062 1.140625c-.53125-.476562-1.339844-.429688-1.8125.109375-.210938.238281-.324219.542969-.324219.863281v3.980469zm10.273437-2.761719h-4.015624v.160156c0 .566407.34375 1.074219.859374 1.285157.714844.285156 1.53125.085937 2.03125-.507813l.972657.847656c-.859375 1.015626-2.253907 1.363282-3.480469.863282-1.003906-.40625-1.667969-1.390625-1.667969-2.488282v-1.300781c0-1.476562 1.191407-2.679687 2.652344-2.679687 1.464844 0 2.648437 1.203125 2.648437 2.679687zm-4.015624-1.140625h2.730468c0-.761719-.609375-1.378906-1.363281-1.378906s-1.367187.617187-1.367187 1.378906m5.78125-2.597656h1.285156v6.5h-1.285156zm0-2.601563h1.285156v1.300782h-1.285156zm0 0"/><path d="m6.066406 0c-3.347656 0-6.066406 2.75-6.066406 6.140625v37.722656c0 3.386719 2.71875 6.136719 6.066406 6.136719h77.867188c3.347656 0 6.066406-2.75 6.066406-6.136719v-37.722656c0-3.390625-2.71875-6.140625-6.066406-6.140625zm0 .0742188h77.871094c3.308594 0 5.988281 2.7187502 5.988281 6.0664062v37.722656c0 3.347657-2.679687 6.0625-5.988281 6.0625h-77.871094c-3.308594 0-5.9921872-2.714843-5.9921872-6.0625v-37.722656c0-3.347656 2.6835932-6.0664062 5.9921872-6.0664062zm0 0"/></svg>