<svg height="50pt" viewBox="0 0 66 50" width="66pt" xmlns="http://www.w3.org/2000/svg"><path d="m4.398438.0351562c-2.40625 0-4.3632818 1.9765628-4.3632818 4.4101558v41.109376c0 2.433593 1.9570318 4.414062 4.3632818 4.414062h57.203124c2.40625 0 4.367188-1.980469 4.367188-4.414062v-41.109376c0-2.433593-1.960938-4.4101558-4.367188-4.4101558" fill="#fff"/><path d="m4.398438 49.933594c-2.390626 0-4.3320318-1.960938-4.3320318-4.378906v-41.109376c0-2.414062 1.9414058-4.3789058 4.3320318-4.3789058h57.203124c2.390626 0 4.332032 1.9648438 4.332032 4.3789058v41.109376c0 2.417968-1.941406 4.378906-4.332032 4.378906zm57.203124-49.933594h-57.203124c-2.429688 0-4.398438 1.988281-4.398438 4.445312v41.109376c0 2.457031 1.96875 4.445312 4.398438 4.445312h57.203124c2.429688 0 4.398438-1.988281 4.398438-4.445312v-41.109376c0-2.457031-1.96875-4.445312-4.398438-4.445312"/><path d="m4.398438 48.890625c-1.820313 0-3.296876-1.496094-3.296876-3.335937v-41.109376c0-1.839843 1.476563-3.332031 3.296876-3.332031h57.203124c1.820313 0 3.300782 1.492188 3.300782 3.332031v41.109376c0 1.839843-1.480469 3.335937-3.300782 3.335937"/><path d="m4.398438 47.222656c-.910157 0-1.648438-.746094-1.648438-1.667968v-41.109376c0-.921874.738281-1.667968 1.648438-1.667968h57.203124c.910157 0 1.648438.746094 1.648438 1.667968v41.109376c0 .921874-.738281 1.667968-1.648438 1.667968" fill="#fff"/><path d="m42.238281 34.222656h-1.316406v-1.332031h1.316406zm0 8h-1.316406v-6.667968h1.316406zm-7.257812-4h2.804687c0-.78125-.628906-1.417968-1.402344-1.417968-.773437 0-1.402343.636718-1.402343 1.417968zm4.125 1.167969h-4.125v.164063c0 .578124.347656 1.101562.882812 1.316406.734375.296875 1.570313.089844 2.085938-.515625l1.003906.867187c-.882813 1.039063-2.324219 1.394532-3.582031.886719-1.035156-.417969-1.710938-1.429687-1.710938-2.554687v-1.332032c0-1.519531 1.21875-2.75 2.722656-2.75 1.503907 0 2.722657 1.230469 2.722657 2.75zm-10.558594 2.832031v-6.667968h1.316406v.753906c.777344-.96875 2.175781-1.117188 3.132813-.335938h.003906l-.9375 1.167969c-.546875-.488281-1.378906-.4375-1.863281.109375-.214844.246094-.335938.5625-.335938.886719v4.085937h-1.320312zm-4.125 0v-5.582031h-.660156v-1.085937h.660156v-1c0-.917969.738281-1.664063 1.648437-1.664063h.992188v1.25h-.910156c-.226563 0-.410156.1875-.410156.414063v1h1.320312v1.085937h-1.320312v5.582031zm30.507813-15h-2.570313v-17.109375h2.570313zm-18.300782 0 5.246094-8.789062-4.941406-8.320313h3.023437l3.328125 5.957031 3.328125-5.957031h3.023438l-4.941407 8.320313 5.246094 8.789062h-3.027344l-3.628906-6.414062-3.628906 6.414062zm-11.269531-6.109375h4.996094l-2.5-7.488281zm-4.761719 6.109375 6.203125-17.109375h2.117188l6.199219 17.109375h-2.722657l-1.273437-3.820312h-6.527344l-1.273438 3.820312zm-6.351562 0v-14.820312h-4.6875v-2.289063h11.945312v2.289063h-4.6875v14.820312"/></svg>