<svg height="50pt" viewBox="0 0 56 50" width="56pt" xmlns="http://www.w3.org/2000/svg"><path d="m28.003906.0351562c-.621094 0-1.238281.2382818-1.714844.7187498-.15625.160156-.285156.332032-.386718.519532l-1.261719 2.195312h-.003906l-24.226563 42.679688c-.003906.007812-.007812.015624-.011718.023437-.121094.203125-.21875.425781-.28125.664063-.347657 1.316406.421874 2.667968 1.714843 3.019531.214844.058593.429688.085937.640625.085937h51.078125c1.339844 0 2.425781-1.105468 2.425781-2.464844 0-.445312-.117187-.867187-.320312-1.226562 0-.003906-.003906-.003906-.003906-.007812l-25.15625-44.390626c-.316406-.558593-.464844-.78125-.773438-1.097656-.476562-.480468-1.097656-.7187498-1.71875-.7187498zm0 0" fill="#fff"/><path d="m28.003906.652344c-.585937-.003906-1.234375.300781-1.550781.871094l-25.5625 45.019531c-.144531.308593-.207031.574219-.210937.878906 0 .542969.238281 1.0625.648437 1.414063.363281.285156.707031.433593 1.167969.433593h51.066406c.3125.003907.625-.074219.90625-.261719.535156-.328124.859375-.917968.863281-1.550781-.015625-.324219-.097656-.671875-.238281-.914062l-25.546875-45.023438c-.003906-.003906-.007813-.007812-.007813-.011719-.003906-.003906-.003906-.007812-.007812-.015624-.089844-.144532-.203125-.277344-.335938-.386719-.296874-.261719-.667968-.417969-1.058593-.445313-.042969-.003906-.085938-.007812-.132813-.007812zm-25.507812 48.617187h-.125.128906zm25.484375-39.695312 19.476562 34.320312h-38.984375zm0 0" fill="#c1121c"/><path d="m28.003906 0c-.628906 0-1.257812.242188-1.738281.734375-.15625.15625-.289063.335937-.394531.519531l-1.25 2.183594h-.003906l-24.234376 42.695312c-.003906.007813-.007812.015626-.011718.023438-.125.203125-.222656.429688-.2851565.671875-.3515625 1.332031.4257815 2.703125 1.7382815 3.0625.214843.058594.433593.085937.648437.085937h51.078125c1.359375 0 2.460938-1.121093 2.460938-2.5 0-.453124-.121094-.875-.328125-1.242187 0 0 0-.003906-.003906-.007813l-25.152344-44.390624c-.320313-.558594-.472656-.785157-.78125-1.101563-.480469-.492187-1.109375-.734375-1.738282-.734375zm0 .0351562c.621094 0 1.242188.2382818 1.71875.7187498.308594.316406.457032.539063.773438 1.097656l25.15625 44.390626c0 .003906.003906.003906.003906.007812.203125.359375.320312.78125.320312 1.226562 0 1.359376-1.085937 2.464844-2.425781 2.464844h-51.078125c-.210937 0-.425781-.027344-.640625-.085937-1.292969-.351563-2.0625-1.703125-1.714843-3.019531.0625-.238282.160156-.460938.28125-.664063.003906-.007813.007812-.015625.011718-.023437l24.226563-42.679688h.003906l1.261719-2.195312c.101562-.1875.230468-.359376.386718-.519532.476563-.480468 1.09375-.7187498 1.714844-.7187498zm0 0"/><path d="m46.308594 43.210938-9.207032-16.195313-27.597656 16.195313"/><path d="m23.21875 33.238281-2.953125-5.238281-.503906 1.148438-.53125-.941407.507812-1.140625.871094-.507812 3.480469 6.171875zm0 0"/><path d="m30.394531 29.042969-.628906-7.828125.59375-.34375.628906 7.820312zm-1.136719-5.554688c.242188.421875.097657.96875-.316406 1.214844-.417968.246094-.953125.097656-1.195312-.324219l-.433594-.769531c-.242188-.421875-.101562-.972656.320312-1.214844.414063-.246093.949219-.097656 1.191407.332031zm-.433593.253907-.433594-.769532c-.105469-.179687-.335937-.242187-.511719-.132812-.179687.101562-.238281.328125-.136718.511718l.433593.769532c.101563.183594.335938.242187.515625.140625.179688-.105469.242188-.332031.132813-.519531zm2.675781 2.671874.429688.769532c.242187.425781.78125.574218 1.195312.324218.421875-.242187.5625-.789062.320312-1.210937l-.4375-.765625c-.238281-.429688-.773437-.566406-1.195312-.324219-.410156.242188-.554688.785157-.3125 1.207031zm.429688-.253906c-.101563-.171875-.042969-.410156.136718-.515625.179688-.105469.410156-.039062.503906.140625l.445313.765625c.101563.183594.039063.417969-.140625.523438-.179688.101562-.40625.042969-.507812-.140625zm0 0"/><path d="m30.394531 29.042969-.628906-7.828125.59375-.34375.628906 7.820312zm-1.136719-5.554688c.242188.421875.097657.96875-.316406 1.214844-.417968.246094-.953125.097656-1.195312-.324219l-.433594-.769531c-.242188-.421875-.101562-.972656.320312-1.214844.414063-.246093.949219-.097656 1.191407.332031zm-.433593.253907-.433594-.769532c-.105469-.179687-.335937-.242187-.511719-.132812-.179687.101562-.238281.328125-.136718.511718l.433593.769532c.101563.183594.335938.242187.515625.140625.179688-.105469.242188-.332031.132813-.519531zm2.675781 2.671874.429688.769532c.242187.425781.78125.574218 1.195312.324218.421875-.242187.5625-.789062.320312-1.210937l-.4375-.765625c-.238281-.429688-.773437-.566406-1.195312-.324219-.410156.242188-.554688.785157-.3125 1.207031zm.429688-.253906c-.101563-.171875-.042969-.410156.136718-.515625.179688-.105469.410156-.039062.503906.140625l.445313.765625c.101563.183594.039063.417969-.140625.523438-.179688.101562-.40625.042969-.507812-.140625zm0 0"/><path d="m25.425781 31.886719-.464843-.824219.652343-4.367188c.023438-.171874.023438-.3125-.007812-.425781-.027344-.117187-.066407-.21875-.121094-.3125-.117187-.210937-.304687-.363281-.554687-.457031-.253907-.097656-.511719-.074219-.765626.078125-.234374.136719-.390624.332031-.464843.59375-.078125.25-.046875.519531.089843.804687l-.863281.507813c-.277343-.496094-.347656-1.011719-.210937-1.542969.136718-.535156.433594-.933594.886718-1.203125.5-.292969 1.011719-.363281 1.542969-.214843.527344.144531.929688.457031 1.203125.941406.234375.414062.320313.839844.25 1.28125l-.53125 3.601562 2.292969-1.34375.496094.871094zm0 0"/></svg>