<svg height="50pt" viewBox="0 0 90 50" width="90pt" xmlns="http://www.w3.org/2000/svg" xmlns:xlink="http://www.w3.org/1999/xlink"><clipPath id="a"><path d="m89.425781 0h.574219v50h-.574219zm0 0"/></clipPath><path d="m6 .046875c-3.285156 0-5.953125 2.699219-5.953125 6.015625v37.878906c0 3.316406 2.667969 6.011719 5.953125 6.011719h78c3.285156 0 5.953125-2.695313 5.953125-6.011719v-37.878906c0-3.316406-2.667969-6.015625-5.953125-6.015625" fill="#fff"/><path d="m6 49.910156c-3.261719 0-5.9101562-2.679687-5.9101562-5.96875v-37.878906c0-3.292969 2.6484372-5.9726562 5.9101562-5.9726562h78c3.261719 0 5.910156 2.6796872 5.910156 5.9726562v37.878906c0 3.289063-2.648437 5.96875-5.910156 5.96875zm78-49.910156h-78c-3.316406 0-6 2.714844-6 6.0625v37.878906c0 3.34375 2.683594 6.058594 6 6.058594h78c3.3125 0 6-2.714844 6-6.058594v-37.878906c0-3.347656-2.6875-6.0625-6-6.0625"/><path d="m6 46.210938h78c1.242188 0 2.25-1.015626 2.25-2.269532v-37.878906c0-1.257812-1.007812-2.273438-2.25-2.273438h-78c-1.242188 0-2.25 1.015626-2.25 2.273438v37.878906c0 1.253906 1.007812 2.269532 2.25 2.269532zm0 2.273437c-2.488281 0-4.5-2.035156-4.5-4.542969v-37.878906c0-2.511719 2.011719-4.546875 4.5-4.546875h78c2.488281 0 4.5 2.035156 4.5 4.546875v37.878906c0 2.507813-2.011719 4.542969-4.5 4.542969"/><path d="m34.773438 11.363281v19.285157h39.542968v-19.285157zm-2.726563 4.820313-11.816406.746094c-.539063.035156-1.003907.386718-1.191407.894531l-3.011718 8.101562c-.226563.617188-.34375 1.273438-.34375 1.933594v7.609375c0 .761719.609375 1.378906 1.363281 1.378906h.679687c0-3.425781 2.746094-6.199218 6.136719-6.199218s6.136719 2.773437 6.136719 6.199218h24.546875c0-1.871094.839844-3.640625 2.277344-4.820312h-24.777344zm-4.773437 2.414062v6.882813l-9.050782 1.078125c-.027344.003906-.054687.003906-.082031.003906-.375 0-.683594-.308594-.683594-.691406 0-.082032.019531-.160156.046875-.238282l2.285156-6.15625c.09375-.253906.324219-.429687.59375-.445312zm-3.410157 13.429688c-2.632812 0-4.769531 2.15625-4.769531 4.820312 0 2.660156 2.136719 4.820313 4.769531 4.820313 2.636719 0 4.773438-2.160157 4.773438-4.820313 0-2.664062-2.136719-4.820312-4.773438-4.820312zm36.820313 0c-2.632813 0-4.773438 2.15625-4.773438 4.820312 0 2.660156 2.140625 4.820313 4.773438 4.820313 2.636718 0 4.773437-2.160157 4.773437-4.820313 0-2.664062-2.136719-4.820312-4.773437-4.820312zm3.855468 0c1.441407 1.179687 2.28125 2.949218 2.28125 4.820312h3.40625l4.089844-1.378906v-3.441406zm0 0"/><g clip-path="url(#a)" fill="none" stroke-miterlimit="10"><path d="m476.791667 530.475v11.34375m-8.5-19.861875h-11.333334m615.125 8.518125v11.34375m8.5-19.861875h11.333334m-615.125-850.389375v-11.34375m-8.5 19.84125h-11.333334m615.125-8.4975v-11.34375m8.5 19.84125h11.333334" stroke="#fff" stroke-width=".5" transform="matrix(.1875 0 0 -.189394 0 50)"/><path d="m476.791667 530.475v11.34375m-8.5-19.861875h-11.333334m615.125 8.518125v11.34375m8.5-19.861875h11.333334m-615.125-850.389375v-11.34375m-8.5 19.84125h-11.333334m615.125-8.4975v-11.34375m8.5 19.84125h11.333334" stroke="#000" stroke-width=".25" transform="matrix(.1875 0 0 -.189394 0 50)"/><path d="m750.4375 542.47875h48m-48-882.915h48m-342.145833 465.465v-48.015m636.291666 48.015v-48.015m-318.145833 477.448125v-23.986875m0-858.9075v-24.0075m-330.145833 453.46125h24m612.291666 0h24m-330.145833 441.4575h6c0-3.320625-2.6875-6.001875-6-6.001875s-6 2.68125-6 6.001875c0 3.3 2.6875 5.98125 6 5.98125s6-2.68125 6-5.98125m-6-882.915h6c0-3.3-2.6875-6.001875-6-6.001875s-6 2.701875-6 6.001875c0 3.320625 2.6875 6.001875 6 6.001875s6-2.68125 6-6.001875m-324.145833 441.4575h6c0-3.320625-2.6875-6.001875-6-6.001875s-6 2.68125-6 6.001875 2.6875 6.001875 6 6.001875 6-2.68125 6-6.001875m630.291666 0h6c0-3.320625-2.6875-6.001875-6-6.001875s-6 2.68125-6 6.001875 2.6875 6.001875 6 6.001875 6-2.68125 6-6.001875" stroke="#fff" stroke-width=".5" transform="matrix(.1875 0 0 -.189394 0 50)"/><path d="m750.4375 542.47875h48m-48-882.915h48m-342.145833 465.465v-48.015m636.291666 48.015v-48.015m-318.145833 477.448125v-23.986875m0-858.9075v-24.0075m-330.145833 453.46125h24m612.291666 0h24m-330.145833 441.4575h6c0-3.320625-2.6875-6.001875-6-6.001875s-6 2.68125-6 6.001875c0 3.3 2.6875 5.98125 6 5.98125s6-2.68125 6-5.98125m-6-882.915h6c0-3.3-2.6875-6.001875-6-6.001875s-6 2.701875-6 6.001875c0 3.320625 2.6875 6.001875 6 6.001875s6-2.68125 6-6.001875m-324.145833 441.4575h6c0-3.320625-2.6875-6.001875-6-6.001875s-6 2.68125-6 6.001875 2.6875 6.001875 6 6.001875 6-2.68125 6-6.001875m630.291666 0h6c0-3.320625-2.6875-6.001875-6-6.001875s-6 2.68125-6 6.001875 2.6875 6.001875 6 6.001875 6-2.68125 6-6.001875" stroke="#000" stroke-width=".25" transform="matrix(.1875 0 0 -.189394 0 50)"/></g></svg>