<svg height="50pt" viewBox="0 0 50 50" width="50pt" xmlns="http://www.w3.org/2000/svg"><path d="m49.957031 25c0 13.785156-11.171875 24.957031-24.957031 24.957031s-24.9570312-11.171875-24.9570312-24.957031 11.1718752-24.9570312 24.9570312-24.9570312 24.957031 11.1718752 24.957031 24.9570312zm0 0" fill="#fff"/><path d="m25 0c-13.808594 0-25 11.191406-25 25 0 13.804688 11.191406 25 25 25 13.804688 0 25-11.195312 25-25 0-13.808594-11.195312-25-25-25zm0 .0429688c13.785156 0 24.957031 11.1718752 24.957031 24.9570312s-11.171875 24.957031-24.957031 24.957031-24.9570312-11.171875-24.9570312-24.957031 11.1718752-24.9570312 24.9570312-24.9570312zm0 0"/><path d="m25 .875c-13.285156 0-24.125 10.839844-24.125 24.125s10.839844 24.125 24.125 24.125 24.125-10.839844 24.125-24.125-10.839844-24.125-24.125-24.125zm0 6.6875c9.671875 0 17.4375 7.765625 17.4375 17.4375s-7.765625 17.4375-17.4375 17.4375-17.4375-7.765625-17.4375-17.4375 7.765625-17.4375 17.4375-17.4375zm0 0" fill="#c1121c"/><path d="m2.480469 2.527344v.003906h-.003907zm0 0"/><path d="m2.476562 2.527344h.003907v.003906h-.003907zm0 0"/><path d="m2.476562 2.53125v-.003906l.003907.003906zm.003907 0-.003907-.003906v.003906zm0 0"/><path d="m2.480469 2.53125h-.003907v-.003906zm0 0"/><path d="m2.476562 2.53125v-.003906.003906l.003907-.003906zm0 0"/><path d="m2.476562 2.527344h.003907v.003906h-.003907zm0 0"/><path d="m2.480469 2.527344v.003906h-.003907zm0 0"/><path d="m2.476562 2.527344h.003907v.003906h-.003907zm0 0"/><path d="m2.476562 2.53125v-.003906l.003907.003906zm.003907 0-.003907-.003906v.003906zm0 0"/><path d="m2.480469 2.53125h-.003907v-.003906zm0 0"/><path d="m2.476562 2.53125v-.003906.003906l.003907-.003906zm0 0"/><path d="m2.476562 2.527344h.003907v.003906h-.003907zm0 0"/><path d="m2.480469 2.527344v.003906h-.003907zm0 0"/><path d="m2.476562 2.527344h.003907v.003906h-.003907zm0 0"/><path d="m2.476562 2.53125v-.003906l.003907.003906zm.003907 0-.003907-.003906v.003906zm0 0"/><path d="m2.480469 2.53125h-.003907v-.003906zm0 0"/><path d="m2.476562 2.53125v-.003906.003906l.003907-.003906zm0 0"/><path d="m2.476562 2.527344h.003907v.003906h-.003907zm0 0"/><path d="m12.429688 25-3.503907 6.167969c-1.523437-3.96875-1.523437-8.367188 0-12.339844"/><path d="m37.570312 25 3.5-6.171875c1.527344 3.972656 1.527344 8.371094 0 12.339844"/><path d="m28.113281 36.941406v-7.269531h1.457031v.726563c.398438-.75 1.335938-1.035157 2.089844-.636719.238282.128906.441406.320312.585938.554687.550781-.78125 1.625-.96875 2.402344-.421875.460937.324219.734374.851563.734374 1.414063v5.632812h-1.453124v-5.179687c0-.402344-.324219-.726563-.726563-.726563s-.726563.324219-.726563.726563v5.179687h-1.453124v-5.179687c0-.402344-.324219-.726563-.726563-.726563s-.726563.324219-.726563.726563v5.179687zm-12.539062 0v-3.199218l6.433593-12.277344c.253907-.488282.386719-1.03125.386719-1.582032v-1.917968c0-.941406-.761719-1.707032-1.703125-1.707032-.945312 0-1.707031.765626-1.707031 1.707032v1.917968h-3.410156v-1.917968c0-2.828125 2.289062-5.121094 5.117187-5.121094 2.824219 0 5.117188 2.292969 5.117188 5.121094v1.917968c0 1.085938-.261719 2.160157-.757813 3.128907l-5.425781 10.515625h6.183594v3.414062"/></svg>