<svg height="50pt" viewBox="0 0 50 50" width="50pt" xmlns="http://www.w3.org/2000/svg"><path d="m49.957031 25c0 13.785156-11.171875 24.957031-24.957031 24.957031s-24.9570312-11.171875-24.9570312-24.957031 11.1718752-24.9570312 24.9570312-24.9570312 24.957031 11.1718752 24.957031 24.9570312zm0 0" fill="#fff"/><path d="m25 0c-13.808594 0-25 11.191406-25 25 0 13.804688 11.191406 25 25 25 13.804688 0 25-11.195312 25-25 0-13.808594-11.195312-25-25-25zm0 .0429688c13.785156 0 24.957031 11.1718752 24.957031 24.9570312s-11.171875 24.957031-24.957031 24.957031-24.9570312-11.171875-24.9570312-24.957031 11.1718752-24.9570312 24.9570312-24.9570312zm0 0"/><path d="m440.2325 240.395992c0-110.358625-89.473875-199.8325-199.8325-199.8325s-199.8325 89.473875-199.8325 199.8325 89.473875 199.8325 199.8325 199.8325 199.8325-89.473875 199.8325-199.8325zm0 0" fill="none" stroke="#c1121c" stroke-width="64.316834" transform="matrix(.103993 0 0 -.103993 0 49.999583)"/><path d="m2.480469 2.527344v.003906h-.003907zm0 0"/><path d="m2.476562 2.527344h.003907v.003906h-.003907zm0 0"/><path d="m2.476562 2.53125v-.003906l.003907.003906zm.003907 0-.003907-.003906v.003906zm0 0"/><path d="m2.480469 2.53125h-.003907v-.003906zm0 0"/><path d="m2.476562 2.53125v-.003906.003906l.003907-.003906zm0 0"/><path d="m2.476562 2.527344h.003907v.003906h-.003907zm0 0"/><path d="m2.480469 2.527344v.003906h-.003907zm0 0"/><path d="m2.476562 2.527344h.003907v.003906h-.003907zm0 0"/><path d="m2.476562 2.53125v-.003906l.003907.003906zm.003907 0-.003907-.003906v.003906zm0 0"/><path d="m2.480469 2.53125h-.003907v-.003906zm0 0"/><path d="m2.476562 2.53125v-.003906.003906l.003907-.003906zm0 0"/><path d="m2.476562 2.527344h.003907v.003906h-.003907zm0 0"/><path d="m2.480469 2.527344v.003906h-.003907zm0 0"/><path d="m2.476562 2.527344h.003907v.003906h-.003907zm0 0"/><path d="m2.476562 2.53125v-.003906l.003907.003906zm.003907 0-.003907-.003906v.003906zm0 0"/><path d="m2.480469 2.53125h-.003907v-.003906zm0 0"/><path d="m2.476562 2.53125v-.003906.003906l.003907-.003906zm0 0"/><path d="m2.476562 2.527344h.003907v.003906h-.003907zm0 0"/><path d="m14.871094 14.105469.035156 1.648437-3.230469 3.648438.808594.84375 3.683594-.773438 1.613281 2.773438c-.707031 1.695312-.101562 2.46875.28125 3.613281l-4 2.527344v5.578125l1.4375-.773438-.035156-3.789062 3.335937-1.824219 3.121094 7.089844-.273437 1.414062 1.433593.023438.210938-1.402344-2.496094-7.230469c2.375.671875 4.769531.796875 7.195313 0l2.351562 4.175782-2.390625 4.425781 1.652344.039062 2.492187-4.601562-.527344-3.511719 3.652344 2.878906-.808594 4.875 1.613282-.421875.773437-4.980469-2.070312-3.542968c.292969-1.808594-.085938-3.179688-.855469-4.109375l.734375-.636719c1.238281-.429688 1.988281.019531 2.421875 1.050781l.417969 2.550781 2.101562-1.082031-.5625-2.03125c-.695312-1.820312-2.785156-3.058593-5.125-1.398437 0 0-.746093.757812-.832031.792968-1.242188-.816406-2.949219-.933593-4.558594-.335937h-.28125c.507813-.257813.535156-.914063.363282-1.398437l-2.492188-4.316407c-.953125-1.117187-3.242188-.09375-2.804688 1.546875l.324219.601563-2.195312 1.035156c-1.113281-1.960937-2.277344-3.890625-5.394531-3.886719zm9.363281 5.191406.816406 1.367187-1.941406.96875h-.027344c-.347656-.375-.648437-.796874-.925781-1.238281zm0 0" fill-rule="evenodd"/><path d="m25.191406 13.644531c0 .898438-.726562 1.625-1.625 1.625-.898437 0-1.625-.726562-1.625-1.625 0-.898437.726563-1.625 1.625-1.625.898438 0 1.625.726563 1.625 1.625zm0 0"/></svg>