<svg height="50pt" viewBox="0 0 50 50" width="50pt" xmlns="http://www.w3.org/2000/svg"><g fill-rule="evenodd"><path d="m42.652344 7.355469c3.246094 3.246093 5.269531 6.746093 6.457031 11.183593 1.191406 4.441407 1.191406 8.484376 0 12.925782-1.1875 4.433594-3.210937 7.9375-6.460937 11.1875-3.246094 3.246094-6.75 5.269531-11.1875 6.457031s-8.484376 1.191406-12.921876 0c-4.4375-1.1875-7.9375-3.210937-11.183593-6.457031-3.25-3.25-5.273438-6.753906-6.464844-11.191406-1.1875-4.4375-1.1875-8.484376 0-12.921876 1.191406-4.4375 3.214844-7.9375 6.460937-11.183593 3.25-3.25 6.753907-5.273438 11.1875-6.460938 4.4375-1.191406 8.484376-1.191406 12.921876-.003906 4.4375 1.191406 7.941406 3.214844 11.191406 6.464844zm-.03125.027343c-3.242188-3.242187-6.738282-5.261718-11.167969-6.453124-4.433594-1.183594-8.46875-1.1875-12.902344.003906-4.429687 1.1875-7.925781 3.207031-11.167969 6.449218-3.246093 3.246094-5.261718 6.738282-6.453124 11.167969-1.183594 4.429688-1.183594 8.46875.003906 12.898438 1.1875 4.433593 3.207031 7.925781 6.453125 11.171875 3.242187 3.242187 6.734375 5.261718 11.164062 6.449218 4.433594 1.1875 8.46875 1.1875 12.902344 0 4.429687-1.1875 7.921875-3.207031 11.167969-6.449218 3.242187-3.242188 5.261718-6.738282 6.449218-11.167969 1.1875-4.433594 1.1875-8.46875 0-12.902344-1.1875-4.429687-3.203124-7.925781-6.449218-11.167969zm0 0"/><path d="m7.382812 7.382812c3.242188-3.242187 6.738282-5.261718 11.167969-6.449218 4.433594-1.191406 8.46875-1.1875 12.902344-.003906 4.429687 1.191406 7.925781 3.210937 11.167969 6.453124 3.246094 3.242188 5.261718 6.738282 6.449218 11.167969 1.1875 4.433594 1.1875 8.46875 0 12.902344-1.1875 4.429687-3.207031 7.925781-6.449218 11.167969-3.246094 3.242187-6.738282 5.261718-11.167969 6.449218-4.433594 1.1875-8.46875 1.1875-12.902344 0-4.429687-1.1875-7.921875-3.207031-11.164062-6.449218-3.246094-3.246094-5.265625-6.738282-6.453125-11.171875-1.1875-4.429688-1.1875-8.46875 0-12.898438 1.1875-4.429687 3.203125-7.921875 6.449218-11.167969zm0 0" fill="#fff"/><path d="m8.207031 8.203125c3.089844-3.089844 6.421875-5.015625 10.644531-6.144531 4.226563-1.132813 8.074219-1.132813 12.296876-.003906 4.226562 1.132812 7.558593 3.058593 10.652343 6.152343 3.089844 3.089844 5.011719 6.421875 6.144531 10.644531 1.128907 4.226563 1.128907 8.074219 0 12.296876-1.132812 4.222656-3.054687 7.558593-6.144531 10.648437-3.09375 3.09375-6.425781 5.019531-10.652343 6.148437-4.222657 1.132813-8.070313 1.132813-12.296876-.003906-4.222656-1.128906-7.554687-3.050781-10.644531-6.140625-3.09375-3.09375-5.019531-6.429687-6.148437-10.652343-1.132813-4.222657-1.132813-8.074219 0-12.296876 1.128906-4.222656 3.054687-7.554687 6.148437-10.648437zm0 0" fill="#154889"/></g><path d="m8.535156 31.253906h3.625c.492188 2.035156 2.546875 3.285156 4.582032 2.792969 1.703124-.410156 2.902343-1.9375 2.902343-3.6875v-.445313c0-2.097656-1.699219-3.796874-3.796875-3.796874h-1.5625v-3.125h1.5625c1.972656 0 3.574219-1.597657 3.574219-3.570313s-1.601563-3.574219-3.574219-3.574219c-1.710937 0-3.1875 1.21875-3.507812 2.902344h-3.601563c.367188-3.925781 3.851563-6.8125 7.78125-6.441406 3.667969.34375 6.472657 3.425781 6.472657 7.113281 0 2.03125-.988282 3.9375-2.652344 5.109375 1.796875 1.203125 2.875 3.222656 2.875 5.382812v.445313c0 4.066406-3.296875 7.363281-7.367188 7.363281-3.722656 0-6.859375-2.773437-7.3125-6.46875" fill="#fff"/><path d="m30.359375 30.582031c0 1.972657 1.597656 3.570313 3.570313 3.570313 1.972656 0 3.570312-1.597656 3.570312-3.570313v-11.160156c0-1.972656-1.597656-3.574219-3.570312-3.574219-1.972657 0-3.570313 1.601563-3.570313 3.574219zm-3.574219 0v-11.160156c0-3.945313 3.199219-7.144531 7.144532-7.144531 3.945312 0 7.144531 3.199218 7.144531 7.144531v11.160156c0 3.945313-3.199219 7.140625-7.144531 7.140625-3.945313 0-7.144532-3.195312-7.144532-7.140625" fill="#fff"/></svg>