<svg height="50pt" viewBox="0 0 50 50" width="50pt" xmlns="http://www.w3.org/2000/svg"><g fill-rule="evenodd"><path d="m42.652344 7.378906c3.246094 3.246094 5.269531 6.746094 6.457031 11.183594 1.191406 4.441406 1.191406 8.484375 0 12.921875-1.1875 4.4375-3.210937 7.941406-6.460937 11.191406-3.246094 3.246094-6.75 5.269531-11.1875 6.457031s-8.484376 1.191407-12.921876 0c-4.4375-1.191406-7.9375-3.210937-11.183593-6.457031-3.25-3.25-5.273438-6.753906-6.464844-11.191406-1.1875-4.4375-1.1875-8.484375 0-12.921875 1.191406-4.4375 3.214844-7.9375 6.460937-11.183594 3.25-3.25 6.753907-5.273437 11.1875-6.464844 4.4375-1.1875 8.484376-1.1875 12.921876 0 4.4375 1.191407 7.941406 3.214844 11.191406 6.464844zm-.03125.027344c-3.242188-3.242188-6.738282-5.261719-11.167969-6.453125-4.433594-1.183594-8.46875-1.1875-12.902344.003906-4.429687 1.1875-7.925781 3.207031-11.167969 6.449219-3.246093 3.242188-5.261718 6.738281-6.453124 11.167969-1.183594 4.429687-1.183594 8.46875.003906 12.898437 1.1875 4.433594 3.207031 7.925782 6.453125 11.171875 3.242187 3.242188 6.734375 5.261719 11.164062 6.449219 4.433594 1.1875 8.46875 1.183594 12.902344 0 4.429687-1.1875 7.921875-3.207031 11.167969-6.449219 3.242187-3.246093 5.261718-6.738281 6.449218-11.167969 1.1875-4.433593 1.1875-8.46875 0-12.902343-1.1875-4.429688-3.203124-7.925781-6.449218-11.167969zm0 0"/><path d="m7.382812 7.40625c3.242188-3.242188 6.738282-5.261719 11.167969-6.449219 4.433594-1.191406 8.46875-1.1875 12.902344-.003906 4.429687 1.191406 7.925781 3.210937 11.167969 6.453125 3.246094 3.242188 5.261718 6.738281 6.449218 11.167969 1.1875 4.433593 1.1875 8.46875 0 12.902343-1.1875 4.429688-3.207031 7.921876-6.449218 11.167969-3.246094 3.242188-6.738282 5.261719-11.167969 6.449219-4.433594 1.1875-8.46875 1.1875-12.902344 0-4.429687-1.1875-7.921875-3.207031-11.164062-6.449219-3.246094-3.246093-5.265625-6.738281-6.453125-11.171875-1.1875-4.429687-1.1875-8.46875 0-12.898437 1.1875-4.429688 3.203125-7.925781 6.449218-11.167969zm0 0" fill="#fff"/><path d="m8.207031 8.226562c3.089844-3.089843 6.421875-5.015624 10.644531-6.144531 4.226563-1.132812 8.074219-1.132812 12.296876-.003906 4.226562 1.128906 7.558593 3.058594 10.652343 6.152344 3.089844 3.089843 5.011719 6.421875 6.144531 10.644531 1.128907 4.226562 1.128907 8.074219 0 12.296875-1.132812 4.222656-3.054687 7.558594-6.144531 10.648437-3.09375 3.09375-6.425781 5.019532-10.652343 6.148438-4.222657 1.128906-8.070313 1.128906-12.296876-.003906-4.222656-1.128906-7.554687-3.050782-10.644531-6.140625-3.09375-3.09375-5.019531-6.429688-6.148437-10.652344-1.132813-4.222656-1.132813-8.074219 0-12.296875 1.128906-4.222656 3.054687-7.554688 6.148437-10.648438zm0 0" fill="#154889"/></g><path d="m25.265625 11.117188c0 1.121093-.90625 2.03125-2.03125 2.03125-1.121094 0-2.03125-.910157-2.03125-2.03125 0-1.121094.910156-2.03125 2.03125-2.03125 1.125 0 2.03125.910156 2.03125 2.03125zm-2.707031 10.496093 2.699218-1.355469-1.078124-1.917968-2.820313 1.410156zm-11.511719 15.910157v-7.109376l5.175781-3.386718-.273437-.625c-.582031-1.34375-.660157-2.855469-.21875-4.25l-1.972657-3.585938-4.742187 1.015625-1.015625-1.015625 4.0625-4.742187v-2.027344l1.355469 1.351563c2.300781 0 4.445312 1.171874 5.691406 3.109374l1.328125 2.0625 2.914062-1.460937-.195312-.347656c-.550781-.976563-.199219-2.214844.777344-2.765625.976562-.546875 2.21875-.199219 2.765625.777344l2.753906 4.90625c.417969.742187.21875 1.683593-.46875 2.1875l2.453125-.429688c1.367188-.242188 2.777344.054688 3.9375.820312l.898438-.898437c1.585937-1.585937 4.160156-1.585937 5.746093 0 .503907.503906.867188 1.128906 1.050781 1.820313l.648438 2.40625-2.539062 1.355468-.542969-3.089844c-.207031-1.195312-1.347657-1.996093-2.546875-1.785156-.445313.078125-.855469.289063-1.175782.609375l-.492187.492188c1.320313 1.484375 1.726563 3.570312 1.050781 5.441406l2.691406 4.445313-1.015624 6.429687-1.921876.660156 1.015626-6.433593-4.792969-3.738282.621093 4.753906-3.046874 5.757813h-2.03125l3.046874-5.757813-3.003906-5.308593c-3.066406.742187-6.261718.761719-9.332031.054687l3.195313 9.316406-.339844 1.695313h-1.695313l.339844-1.695313-4.0625-9.382812-4.398437 2.613281v4.738281" fill="#fff"/></svg>