<svg height="50pt" viewBox="0 0 50 50" width="50pt" xmlns="http://www.w3.org/2000/svg"><path d="m49.957031 25c0 13.785156-11.171875 24.957031-24.957031 24.957031s-24.9570312-11.171875-24.9570312-24.957031 11.1718752-24.9570312 24.9570312-24.9570312 24.957031 11.1718752 24.957031 24.9570312zm0 0" fill="#fff"/><path d="m25 0c-13.808594 0-25 11.191406-25 25 0 13.804688 11.191406 25 25 25 13.804688 0 25-11.195312 25-25 0-13.808594-11.195312-25-25-25zm0 .0429688c13.785156 0 24.957031 11.1718752 24.957031 24.9570312s-11.171875 24.957031-24.957031 24.957031-24.9570312-11.171875-24.9570312-24.957031 11.1718752-24.9570312 24.9570312-24.9570312zm0 0"/><path d="m440.2325 240.399998c0 110.358625-89.473875 199.8325-199.8325 199.8325s-199.8325-89.473875-199.8325-199.8325 89.473875-199.8325 199.8325-199.8325 199.8325 89.473875 199.8325 199.8325zm0 0" fill="none" stroke="#c1121c" stroke-width="64.316834" transform="scale(.103993)"/><path d="m2.480469 2.527344v.003906h-.003907zm0 0"/><path d="m2.476562 2.527344h.003907v.003906h-.003907zm0 0"/><path d="m2.476562 2.53125v-.003906l.003907.003906zm.003907 0-.003907-.003906v.003906zm0 0"/><path d="m2.480469 2.53125h-.003907v-.003906zm0 0"/><path d="m2.476562 2.53125v-.003906.003906l.003907-.003906zm0 0"/><path d="m2.476562 2.527344h.003907v.003906h-.003907zm0 0"/><path d="m2.480469 2.527344v.003906h-.003907zm0 0"/><path d="m2.476562 2.527344h.003907v.003906h-.003907zm0 0"/><path d="m2.476562 2.53125v-.003906l.003907.003906zm.003907 0-.003907-.003906v.003906zm0 0"/><path d="m2.480469 2.53125h-.003907v-.003906zm0 0"/><path d="m2.476562 2.53125v-.003906.003906l.003907-.003906zm0 0"/><path d="m2.476562 2.527344h.003907v.003906h-.003907zm0 0"/><path d="m2.480469 2.527344v.003906h-.003907zm0 0"/><path d="m2.476562 2.527344h.003907v.003906h-.003907zm0 0"/><path d="m2.476562 2.53125v-.003906l.003907.003906zm.003907 0-.003907-.003906v.003906zm0 0"/><path d="m2.480469 2.53125h-.003907v-.003906zm0 0"/><path d="m2.476562 2.53125v-.003906.003906l.003907-.003906zm0 0"/><path d="m2.476562 2.527344h.003907v.003906h-.003907zm0 0"/><path d="m191.981938 267.895748c0 23.58925-19.119313 42.671-42.671 42.671-23.58925 0-42.708563-19.08175-42.708563-42.671s19.119313-42.671 42.708563-42.671c23.551687 0 42.671 19.08175 42.671 42.671zm0 0" fill="none" stroke="#000" stroke-linecap="round" stroke-linejoin="round" stroke-width="12.375091" transform="scale(.103993)"/><g fill-rule="evenodd"><path d="m38.511719 20.738281h-9.320313c-.351562.136719-.601562.359375-.402344.976563l2.40625 1.554687c1.027344-.769531 2.09375-.898437 3.15625-1.054687l4.1875-.015625zm0 0"/><path d="m35.625 29.011719-9.699219-.011719c-2.027343-.0625-3.183593-1.742188-4.441406-3.558594-2.199219-3.179687-2.519531-3.210937-2.96875-4.6875l3.230469.003906c.214844.0625.429687.09375.644531.363282l1.945313 2.765625c.160156.6875.027343 1.242187-.144532 1.828125-.195312.679687.585938 1.886718 1.800782 1.835937l9.65625-.5625zm0 0"/><path d="m14.886719 27.519531c.078125-.238281 3.746093-9.179687 3.746093-9.179687.449219-.800782 1.074219-1.242188 1.890626-1.300782h2.515624l-.011718 1.480469h-2.429688c-.296875-.027343-.519531.160157-.703125.683594l-3.660156 8.933594c-.355469.828125-1.707031.535156-1.347656-.617188zm0 0"/></g><path d="m374.197625 268.045998c0 23.58925-19.119312 42.708563-42.708562 42.708563-23.551688 0-42.671-19.119313-42.671-42.708563 0-23.551687 19.119312-42.671 42.671-42.671 23.58925 0 42.708562 19.119313 42.708562 42.671zm0 0" fill="none" stroke="#000" stroke-linecap="round" stroke-linejoin="round" stroke-width="12.375091" transform="scale(.103993)"/></svg>