<svg height="50pt" viewBox="0 0 50 50" width="50pt" xmlns="http://www.w3.org/2000/svg"><path d="m49.957031 25c0 13.785156-11.171875 24.957031-24.957031 24.957031s-24.9570312-11.171875-24.9570312-24.957031 11.1718752-24.9570312 24.9570312-24.9570312 24.957031 11.1718752 24.957031 24.9570312zm0 0" fill="#fff"/><path d="m25 0c-13.808594 0-25 11.191406-25 25 0 13.804688 11.191406 25 25 25 13.804688 0 25-11.195312 25-25 0-13.808594-11.195312-25-25-25zm0 .0429688c13.785156 0 24.957031 11.1718752 24.957031 24.9570312s-11.171875 24.957031-24.957031 24.957031-24.9570312-11.171875-24.9570312-24.957031 11.1718752-24.9570312 24.9570312-24.9570312zm0 0"/><path d="m25 .875c-13.285156 0-24.125 10.839844-24.125 24.125s10.839844 24.125 24.125 24.125 24.125-10.839844 24.125-24.125-10.839844-24.125-24.125-24.125zm0 6.6875c9.671875 0 17.4375 7.765625 17.4375 17.4375s-7.765625 17.4375-17.4375 17.4375-17.4375-7.765625-17.4375-17.4375 7.765625-17.4375 17.4375-17.4375zm0 0" fill="#c1121c"/><path d="m2.480469 2.527344v.003906h-.003907zm0 0"/><path d="m2.476562 2.527344h.003907v.003906h-.003907zm0 0"/><path d="m2.476562 2.53125v-.003906l.003907.003906zm.003907 0-.003907-.003906v.003906zm0 0"/><path d="m2.480469 2.53125h-.003907v-.003906zm0 0"/><path d="m2.476562 2.53125v-.003906.003906l.003907-.003906zm0 0"/><path d="m2.476562 2.527344h.003907v.003906h-.003907zm0 0"/><path d="m2.480469 2.527344v.003906h-.003907zm0 0"/><path d="m2.476562 2.527344h.003907v.003906h-.003907zm0 0"/><path d="m2.476562 2.53125v-.003906l.003907.003906zm.003907 0-.003907-.003906v.003906zm0 0"/><path d="m2.480469 2.53125h-.003907v-.003906zm0 0"/><path d="m2.476562 2.53125v-.003906.003906l.003907-.003906zm0 0"/><path d="m2.476562 2.527344h.003907v.003906h-.003907zm0 0"/><path d="m2.480469 2.527344v.003906h-.003907zm0 0"/><path d="m2.476562 2.527344h.003907v.003906h-.003907zm0 0"/><path d="m2.476562 2.53125v-.003906l.003907.003906zm.003907 0-.003907-.003906v.003906zm0 0"/><path d="m2.480469 2.53125h-.003907v-.003906zm0 0"/><path d="m2.476562 2.53125v-.003906.003906l.003907-.003906zm0 0"/><path d="m2.476562 2.527344h.003907v.003906h-.003907zm0 0"/><path d="m21.402344 31.546875 2.222656-.011719v2.277344l-2.21875 1.636719zm0 0" fill-rule="evenodd"/><path d="m20.027344 14.734375h-7.785156v10.234375h2.398437c.160156-.320312.453125-1.039062 1.386719-1.039062.746094 0 1.28125.613281 1.28125 1.359374v4.449219c0 .878907-.480469 1.414063-1.28125 1.414063-.800782 0-1.386719-.535156-1.386719-1.464844v-.695312h-2.714844v.800781c0 2.53125 1.890625 4.078125 4.050781 4.078125 2.15625 0 4.050782-1.546875 4.050782-4.078125v-4.902344c0-2.1875-1.28125-3.359375-3.121094-3.359375-.957031 0-1.757812.398438-2.265625.878906v-5.117187h5.386719zm0 0"/><path d="m31.65625 18.894531h-6.089844v8.007813h1.878906c.125-.25.351563-.8125 1.082032-.8125.585937 0 1 .480468 1 1.0625v3.484375c0 .6875-.375 1.105469-1 1.105469s-1.082032-.417969-1.082032-1.148438v-.539062h-2.128906v.625c0 1.980468 1.480469 3.191406 3.171875 3.191406 1.6875 0 3.167969-1.210938 3.167969-3.191406v-3.839844c0-1.707032-1-2.625-2.441406-2.625-.75 0-1.375.3125-1.769532.6875v-4.003906h4.210938zm0 0"/><path d="m34.632812 23.171875h-1.0625v1.667969h1.0625v6.421875c0 1.128906.648438 2.484375 2.566407 2.484375h.875v-2.003906c-.9375 0-1.3125-.0625-1.3125-1.042969v-5.859375h1.3125v-1.667969h-1.3125v-3.214844h-2.128907zm0 0"/></svg>