<svg height="50pt" viewBox="0 0 50 50" width="50pt" xmlns="http://www.w3.org/2000/svg"><path d="m49.957031 25c0 13.785156-11.171875 24.957031-24.957031 24.957031s-24.9570312-11.171875-24.9570312-24.957031 11.1718752-24.9570312 24.9570312-24.9570312 24.957031 11.1718752 24.957031 24.9570312zm0 0" fill="#fff"/><path d="m25 0c-13.808594 0-25 11.191406-25 25 0 13.804688 11.191406 25 25 25 13.804688 0 25-11.195312 25-25 0-13.808594-11.195312-25-25-25zm0 .0429688c13.785156 0 24.957031 11.1718752 24.957031 24.9570312s-11.171875 24.957031-24.957031 24.957031-24.9570312-11.171875-24.9570312-24.957031 11.1718752-24.9570312 24.9570312-24.9570312zm0 0"/><path d="m25 .875c-13.285156 0-24.125 10.839844-24.125 24.125s10.839844 24.125 24.125 24.125 24.125-10.839844 24.125-24.125-10.839844-24.125-24.125-24.125zm0 6.6875c9.671875 0 17.4375 7.765625 17.4375 17.4375s-7.765625 17.4375-17.4375 17.4375-17.4375-7.765625-17.4375-17.4375 7.765625-17.4375 17.4375-17.4375zm0 0" fill="#c1121c"/><path d="m2.480469 2.527344v.003906h-.003907zm0 0"/><path d="m2.476562 2.527344h.003907v.003906h-.003907zm0 0"/><path d="m2.476562 2.53125v-.003906l.003907.003906zm.003907 0-.003907-.003906v.003906zm0 0"/><path d="m2.480469 2.53125h-.003907v-.003906zm0 0"/><path d="m2.476562 2.53125v-.003906.003906l.003907-.003906zm0 0"/><path d="m2.476562 2.527344h.003907v.003906h-.003907zm0 0"/><path d="m2.480469 2.527344v.003906h-.003907zm0 0"/><path d="m2.476562 2.527344h.003907v.003906h-.003907zm0 0"/><path d="m2.476562 2.53125v-.003906l.003907.003906zm.003907 0-.003907-.003906v.003906zm0 0"/><path d="m2.480469 2.53125h-.003907v-.003906zm0 0"/><path d="m2.476562 2.53125v-.003906.003906l.003907-.003906zm0 0"/><path d="m2.476562 2.527344h.003907v.003906h-.003907zm0 0"/><path d="m2.480469 2.527344v.003906h-.003907zm0 0"/><path d="m2.476562 2.527344h.003907v.003906h-.003907zm0 0"/><path d="m2.476562 2.53125v-.003906l.003907.003906zm.003907 0-.003907-.003906v.003906zm0 0"/><path d="m2.480469 2.53125h-.003907v-.003906zm0 0"/><path d="m2.476562 2.53125v-.003906.003906l.003907-.003906zm0 0"/><path d="m2.476562 2.527344h.003907v.003906h-.003907zm0 0"/><path d="m25 37.59375 6.183594 3.511719c-3.980469 1.527343-8.386719 1.527343-12.367188 0"/><path d="m25 12.40625-6.183594-3.511719c3.980469-1.527343 8.386719-1.527343 12.367188 0"/><path d="m30 32.917969v-8.484375h1.695312v.847656c.46875-.875 1.5625-1.207031 2.441407-.742188.277343.152344.515625.375.683593.644532.640626-.910156 1.894532-1.128906 2.808594-.488282.535156.378907.855469.992188.855469 1.648438v6.574219h-1.699219v-6.042969c0-.46875-.378906-.851562-.847656-.851562s-.847656.382812-.847656.851562v6.042969h-1.695313v-6.042969c0-.46875-.382812-.851562-.847656-.851562-.46875 0-.851563.382812-.851563.851562v6.042969zm-5.554688-7.742188c0 .46875.382813.847657.851563.847657.464844 0 .847656-.378907.847656-.847657v-1.695312c0-.46875-.382812-.847657-.847656-.847657-.46875 0-.851563.378907-.851563.847657zm0 5.300781c0 .46875.382813.851563.851563.851563.464844 0 .847656-.382813.847656-.851563v-2.332031c0-.46875-.382812-.847656-.847656-.847656-.46875 0-.851563.378906-.851563.847656zm-.84375-3.816406c-.53125-.351562-.851562-.949218-.851562-1.589844v-1.589843c0-1.40625 1.140625-2.542969 2.546875-2.542969 1.402344 0 2.542969 1.136719 2.542969 2.542969v1.589843c0 .640626-.320313 1.238282-.855469 1.589844.535156.355469.855469.949219.855469 1.589844v2.226562c0 1.40625-1.140625 2.546876-2.542969 2.546876-1.40625 0-2.546875-1.140626-2.546875-2.546876v-2.226562c0-.640625.320312-1.234375.851562-1.589844zm-4.101562 7.527344v-2.964844h1.695312v1.695313zm-8.25-6.089844h2.410156v1.355469c0 .664063.539063 1.203125 1.207032 1.203125.664062 0 1.203124-.539062 1.203124-1.203125v-3.015625c0-.664062-.539062-1.207031-1.203124-1.207031h-.753907v-2.105469h.753907c.664062 0 1.203124-.539062 1.203124-1.207031v-2.410157c0-.664062-.539062-1.207031-1.203124-1.207031-.667969 0-1.207032.542969-1.207032 1.207031v1.355469h-2.410156v-1.355469c0-1.996093 1.617188-3.617187 3.617188-3.617187 1.996093 0 3.617187 1.621094 3.617187 3.617187v2.257813c0 1.015625-.570313 1.945313-1.472656 2.410156.902343.46875 1.472656 1.398438 1.472656 2.414063v2.863281c0 1.996094-1.621094 3.613281-3.617187 3.613281-2 0-3.617188-1.617187-3.617188-3.613281"/></svg>