<svg height="50pt" viewBox="0 0 50 50" width="50pt" xmlns="http://www.w3.org/2000/svg"><g fill-rule="evenodd"><path d="m42.652344 7.355469c3.246094 3.246093 5.269531 6.746093 6.457031 11.183593 1.191406 4.441407 1.191406 8.484376 0 12.921876-1.1875 4.4375-3.210937 7.941406-6.460937 11.191406-3.246094 3.246094-6.75 5.269531-11.1875 6.460937-4.4375 1.183594-8.484376 1.1875-12.921876-.003906-4.433593-1.1875-7.9375-3.210937-11.183593-6.457031-3.25-3.25-5.273438-6.753906-6.464844-11.191406-1.1875-4.4375-1.1875-8.484376 0-12.917969 1.191406-4.441407 3.214844-7.941407 6.460937-11.1875 3.25-3.25 6.753907-5.273438 11.1875-6.464844 4.4375-1.1875 8.484376-1.1875 12.921876 0 4.4375 1.191406 7.941406 3.214844 11.191406 6.464844zm-.03125.027343c-3.242188-3.242187-6.738282-5.261718-11.171875-6.453124-4.429688-1.183594-8.46875-1.1875-12.898438.003906-4.429687 1.1875-7.925781 3.207031-11.167969 6.449218-3.246093 3.242188-5.261718 6.738282-6.453124 11.167969-1.183594 4.429688-1.183594 8.46875.003906 12.898438 1.1875 4.433593 3.207031 7.929687 6.453125 11.171875 3.242187 3.242187 6.734375 5.261718 11.164062 6.449218 4.433594 1.1875 8.46875 1.1875 12.898438 0 4.433593-1.1875 7.925781-3.207031 11.171875-6.449218 3.242187-3.242188 5.261718-6.738282 6.449218-11.167969 1.1875-4.433594 1.1875-8.46875 0-12.902344-1.1875-4.429687-3.203124-7.925781-6.449218-11.167969zm0 0"/><path d="m7.382812 7.382812c3.242188-3.242187 6.738282-5.261718 11.167969-6.449218 4.429688-1.191406 8.46875-1.1875 12.898438-.003906 4.433593 1.191406 7.929687 3.210937 11.171875 6.453124 3.246094 3.242188 5.261718 6.738282 6.449218 11.167969 1.1875 4.433594 1.1875 8.46875 0 12.902344-1.1875 4.429687-3.207031 7.925781-6.449218 11.167969-3.246094 3.242187-6.738282 5.261718-11.167969 6.449218-4.433594 1.1875-8.46875 1.1875-12.902344 0-4.429687-1.1875-7.921875-3.207031-11.164062-6.449218-3.246094-3.242188-5.265625-6.738282-6.453125-11.171875-1.1875-4.429688-1.1875-8.46875 0-12.898438 1.1875-4.429687 3.203125-7.925781 6.449218-11.167969zm0 0" fill="#fff"/><path d="m8.207031 8.203125c3.089844-3.089844 6.421875-5.015625 10.644531-6.144531 4.226563-1.132813 8.074219-1.132813 12.296876-.003906 4.226562 1.132812 7.558593 3.058593 10.652343 6.152343 3.089844 3.089844 5.011719 6.421875 6.144531 10.644531 1.128907 4.226563 1.128907 8.074219 0 12.300782-1.132812 4.21875-3.054687 7.554687-6.144531 10.644531-3.09375 3.09375-6.425781 5.019531-10.652343 6.148437-4.222657 1.132813-8.070313 1.132813-12.296876 0-4.222656-1.132812-7.554687-3.054687-10.644531-6.144531-3.09375-3.09375-5.019531-6.429687-6.148437-10.652343-1.132813-4.222657-1.132813-8.074219 0-12.296876 1.128906-4.222656 3.054687-7.554687 6.148437-10.648437zm0 0" fill="#154889"/></g><path d="m37.984375 34.914062c-3.085937.796876-6.234375-1.058593-7.03125-4.144531h5.949219c.101562 0 .199218-.019531.292968-.0625.363282-.160156.527344-.585937.363282-.953125l-2.660156-5.957031c.066406-.019531.132812-.039063.199218-.054687 3.085938-.796876 6.230469 1.058593 7.03125 4.144531.792969 3.085937-1.0625 6.230469-4.144531 7.027343zm-4.410156-10.535156 2.214843 4.949219h-5.019531c0-2.027344 1.066407-3.90625 2.804688-4.949219zm-4.246094 4.949219h-1.441406l3.605469-9.617187 1.492187 3.34375c-2.257813 1.277343-3.65625 3.675781-3.65625 6.273437zm-2.953125-.078125-9.03125-10.019531h12.789062zm-7.65625 2.460938c-1.316406 2.902343-4.734375 4.1875-7.636719 2.871093-2.902343-1.3125-4.191406-4.734375-2.875-7.636719 1.089844-2.398437 3.664063-3.757812 6.257813-3.296874l-1.691406 5.464843c-.117188.382813.09375.785157.476562.90625.378906.113281.785156-.097656.902344-.476562l1.691406-5.46875c2.902344 1.3125 4.1875 4.734375 2.875 7.636719zm24.679688-4.617188c-1.234376-3.789062-5.308594-5.855469-9.09375-4.621094l-2.09375-4.683594.542968-1.441406h1.625v-1.441406h-6.132812c-.167969 0-.3125.113281-.351563.273438-.046875.195312.074219.390624.269531.4375l3.050782.730468-.542969 1.441406h-12.882813l.578126-1.867187c.1875-.605469.746093-1.015625 1.378906-1.015625h2.371094v-1.441406h-2.371094c-1.265625 0-2.382813.820312-2.753906 2.03125l-2.097657 6.765625c-3.359375-.683594-6.738281 1.097656-8.074219 4.253906-1.550781 3.667969.164063 7.902344 3.832032 9.453125 3.667968 1.554688 7.898437-.160156 9.453125-3.828125 1.550781-3.667969-.164063-7.902344-3.832031-9.453125l.574218-1.851562 8.523438 9.457031c.273437.304687.664062.476562 1.070312.476562h3.035156c.050782.269531.121094.535157.207032.792969 1.234375 3.789062 5.304687 5.859375 9.09375 4.621094 3.785156-1.230469 5.851562-5.300782 4.621094-9.089844" fill="#fff"/></svg>