<svg height="50pt" viewBox="0 0 50 50" width="50pt" xmlns="http://www.w3.org/2000/svg"><g fill-rule="evenodd"><path d="m24.996094 0c-4.597656 0-8.511719 1.046875-12.496094 3.347656-3.984375 2.304688-6.847656 5.167969-9.152344 9.152344-2.300781 3.984375-3.347656 7.898438-3.347656 12.503906 0 4.597656 1.046875 8.511719 3.347656 12.496094 2.304688 3.984375 5.167969 6.851562 9.152344 9.152344 3.984375 2.300781 7.898438 3.347656 12.496094 3.347656 4.605468 0 8.519531-1.046875 12.503906-3.347656 3.984375-2.300782 6.851562-5.167969 9.152344-9.152344 2.300781-3.984375 3.347656-7.898438 3.347656-12.496094 0-4.605468-1.046875-8.519531-3.347656-12.503906-2.300782-3.984375-5.167969-6.851562-9.152344-9.152344-3.984375-2.300781-7.898438-3.347656-12.503906-3.347656zm0 .0429688c4.597656 0 8.503906 1.0429692 12.484375 3.3398432 3.980469 2.300782 6.839843 5.15625 9.136719 9.140626 2.296874 3.976562 3.339843 7.882812 3.339843 12.480468 0 4.59375-1.042969 8.496094-3.339843 12.476563-2.296876 3.980469-5.15625 6.839843-9.136719 9.136719-3.980469 2.296874-7.886719 3.339843-12.484375 3.339843-4.59375 0-8.496094-1.042969-12.472656-3.339843-3.984376-2.296876-6.839844-5.15625-9.140626-9.136719-2.296874-3.980469-3.3398432-7.882813-3.3398432-12.476563 0-4.597656 1.0429692-8.503906 3.3398432-12.480468 2.300782-3.984376 5.15625-6.839844 9.140626-9.140626 3.976562-2.296874 7.878906-3.3398432 12.472656-3.3398432zm0 0"/><path d="m49.957031 25.003906c0-4.597656-1.042969-8.503906-3.339843-12.480468-2.296876-3.984376-5.15625-6.839844-9.136719-9.140626-3.980469-2.296874-7.886719-3.3398432-12.484375-3.3398432-4.59375 0-8.496094 1.0429692-12.472656 3.3398432-3.984376 2.300782-6.839844 5.15625-9.140626 9.140626-2.296874 3.976562-3.3398432 7.882812-3.3398432 12.480468 0 4.59375 1.0429692 8.496094 3.3398432 12.476563 2.300782 3.980469 5.15625 6.839843 9.140626 9.136719 3.976562 2.296874 7.878906 3.339843 12.472656 3.339843 4.597656 0 8.503906-1.042969 12.484375-3.339843 3.980469-2.296876 6.839843-5.15625 9.136719-9.136719 2.296874-3.980469 3.339843-7.882813 3.339843-12.476563zm0 0" fill="#fff"/><path d="m48.792969 25c0-4.378906-.996094-8.101562-3.1875-11.894531-2.191407-3.792969-4.917969-6.523438-8.707031-8.710938-3.792969-2.191406-7.519532-3.1875-11.902344-3.1875-4.378906 0-8.097656 1-11.890625 3.1875-3.792969 2.191407-6.519531 4.917969-8.710938 8.710938-2.1875 3.792969-3.1875 7.515625-3.1875 11.894531 0 4.382812.996094 8.105469 3.1875 11.898438 2.1875 3.789062 4.917969 6.515624 8.710938 8.707031 3.792969 2.191406 7.511719 3.1875 11.890625 3.1875 4.382812 0 8.109375-.996094 11.902344-3.1875 3.789062-2.191407 6.515624-4.917969 8.707031-8.707031 2.191406-3.792969 3.1875-7.515626 3.1875-11.898438zm0 0" fill="#154889"/><g fill="#fff"><path d="m10.003906 30.105469 5.871094-5.972657-.027344-3.484374-4.324218 4.226562c-.140626-6.761719 5.679687-12.441406 11.148437-13.171875l-.484375-2.921875c-9.601562 1.898438-13.46875 9.402344-13.652344 16.066406l-4.363281-4.242187-.019531 3.625zm0 0"/><path d="m36.9375 35.441406-8.117188-2.066406-3 1.777344 5.828126 1.609375c-5.765626 3.527343-13.605469 1.355469-16.988282-3l-2.28125 1.890625c6.472656 7.339844 14.902344 6.898437 20.753906 3.703125l-1.46875 5.90625 3.144532-1.808594zm0 0"/><path d="m28.066406 9.523438 2.285156 8.058593 3.042969 1.699219-1.535156-5.847656c5.945313 3.21875 8.003906 11.085937 5.9375 16.199218l2.78125 1.023438c3.09375-9.28125-1.519531-16.351562-7.21875-19.808594l5.84375-1.695312-3.140625-1.808594zm0 0"/></g></g></svg>