<svg height="50pt" viewBox="0 0 50 50" width="50pt" xmlns="http://www.w3.org/2000/svg"><path d="m49.957031 25c0 13.785156-11.171875 24.957031-24.957031 24.957031s-24.9570312-11.171875-24.9570312-24.957031 11.1718752-24.9570312 24.9570312-24.9570312 24.957031 11.1718752 24.957031 24.9570312zm0 0" fill="#fff"/><path d="m25 0c-13.808594 0-25 11.191406-25 25 0 13.804688 11.191406 25 25 25 13.804688 0 25-11.195312 25-25 0-13.808594-11.195312-25-25-25zm0 .0429688c13.785156 0 24.957031 11.1718752 24.957031 24.9570312s-11.171875 24.957031-24.957031 24.957031-24.9570312-11.171875-24.9570312-24.957031 11.1718752-24.9570312 24.9570312-24.9570312zm0 0"/><path d="m25 .875c-13.285156 0-24.125 10.839844-24.125 24.125s10.839844 24.125 24.125 24.125 24.125-10.839844 24.125-24.125-10.839844-24.125-24.125-24.125zm0 6.6875c9.671875 0 17.4375 7.765625 17.4375 17.4375s-7.765625 17.4375-17.4375 17.4375-17.4375-7.765625-17.4375-17.4375 7.765625-17.4375 17.4375-17.4375zm0 0" fill="#c1121c"/><path d="m2.480469 2.527344v.003906h-.003907zm0 0"/><path d="m2.476562 2.527344h.003907v.003906h-.003907zm0 0"/><path d="m2.476562 2.53125v-.003906l.003907.003906zm.003907 0-.003907-.003906v.003906zm0 0"/><path d="m2.480469 2.53125h-.003907v-.003906zm0 0"/><path d="m2.476562 2.53125v-.003906.003906l.003907-.003906zm0 0"/><path d="m2.476562 2.527344h.003907v.003906h-.003907zm0 0"/><path d="m2.480469 2.527344v.003906h-.003907zm0 0"/><path d="m2.476562 2.527344h.003907v.003906h-.003907zm0 0"/><path d="m2.476562 2.53125v-.003906l.003907.003906zm.003907 0-.003907-.003906v.003906zm0 0"/><path d="m2.480469 2.53125h-.003907v-.003906zm0 0"/><path d="m2.476562 2.53125v-.003906.003906l.003907-.003906zm0 0"/><path d="m2.476562 2.527344h.003907v.003906h-.003907zm0 0"/><path d="m2.480469 2.527344v.003906h-.003907zm0 0"/><path d="m2.476562 2.527344h.003907v.003906h-.003907zm0 0"/><path d="m2.476562 2.53125v-.003906l.003907.003906zm.003907 0-.003907-.003906v.003906zm0 0"/><path d="m2.480469 2.53125h-.003907v-.003906zm0 0"/><path d="m2.476562 2.53125v-.003906.003906l.003907-.003906zm0 0"/><path d="m2.476562 2.527344h.003907v.003906h-.003907zm0 0"/><path d="m201.710625 272.891561c0 27.19525-22.011625 49.206875-49.206875 49.206875s-49.244437-22.011625-49.244437-49.206875 22.049187-49.244438 49.244437-49.244438 49.206875 22.049188 49.206875 49.244438zm0 0" fill="none" stroke="#000" stroke-width="12.229226" transform="scale(.103993)"/><path d="m377.503125 271.952498c0 27.19525-22.011625 49.244438-49.206875 49.244438s-49.206875-22.049188-49.206875-49.244438c0-27.157687 22.011625-49.206875 49.206875-49.206875s49.206875 22.049188 49.206875 49.206875zm0 0" fill="none" stroke="#000" stroke-width="12.229226" transform="scale(.103993)"/><path d="m22.679688 15.867188c-4.214844.039062-3.5-.4375-5.769532 6.851562-1.847656 5.824219-1.644531 5.1875-1.65625 5.597656-.007812.316406.25.566406.570313.589844.671875-.070312.390625.070312 2.710937-7.136719 8.480469 8.945313 5.296875 7.496094 9.863282 7.679688 5.996093-.058594 6.484374.3125 6.554687-.570313-.007813-.296875-.148437-.476562-4.265625-9.636718l.394531-1.082032 1.355469-.027344-.046875-1.132812h-5.054687c-.445313.609375.179687.609375 2.441406 1.109375l-.394532 1.109375-10.082031.023438c.679688-2.371094.296875-2.222657 3.351563-2.21875zm-3.667969 4.59375 9.863281-.019532-2.851562 7.660156zm11.050781.453124-2.796875 7.34375 6.121094.019532zm0 0" fill-rule="evenodd"/></svg>