<svg height="50pt" viewBox="0 0 50 50" width="50pt" xmlns="http://www.w3.org/2000/svg"><path d="m49.957031 25c0 13.785156-11.171875 24.957031-24.957031 24.957031s-24.9570312-11.171875-24.9570312-24.957031 11.1718752-24.9570312 24.9570312-24.9570312 24.957031 11.1718752 24.957031 24.9570312zm0 0" fill="#fff"/><path d="m25 0c-13.808594 0-25 11.191406-25 25 0 13.804688 11.191406 25 25 25 13.804688 0 25-11.195312 25-25 0-13.808594-11.195312-25-25-25zm0 .0429688c13.785156 0 24.957031 11.1718752 24.957031 24.9570312s-11.171875 24.957031-24.957031 24.957031-24.9570312-11.171875-24.9570312-24.957031 11.1718752-24.9570312 24.9570312-24.9570312zm0 0"/><path d="m25 .875c-13.285156 0-24.125 10.839844-24.125 24.125s10.839844 24.125 24.125 24.125 24.125-10.839844 24.125-24.125-10.839844-24.125-24.125-24.125zm0 6.6875c9.671875 0 17.4375 7.765625 17.4375 17.4375s-7.765625 17.4375-17.4375 17.4375-17.4375-7.765625-17.4375-17.4375 7.765625-17.4375 17.4375-17.4375zm0 0" fill="#c1121c"/><path d="m2.480469 2.527344v.003906h-.003907zm0 0"/><path d="m2.476562 2.527344h.003907v.003906h-.003907zm0 0"/><path d="m2.476562 2.53125v-.003906l.003907.003906zm.003907 0-.003907-.003906v.003906zm0 0"/><path d="m2.480469 2.53125h-.003907v-.003906zm0 0"/><path d="m2.476562 2.53125v-.003906.003906l.003907-.003906zm0 0"/><path d="m2.476562 2.527344h.003907v.003906h-.003907zm0 0"/><path d="m2.480469 2.527344v.003906h-.003907zm0 0"/><path d="m2.476562 2.527344h.003907v.003906h-.003907zm0 0"/><path d="m2.476562 2.53125v-.003906l.003907.003906zm.003907 0-.003907-.003906v.003906zm0 0"/><path d="m2.480469 2.53125h-.003907v-.003906zm0 0"/><path d="m2.476562 2.53125v-.003906.003906l.003907-.003906zm0 0"/><path d="m2.476562 2.527344h.003907v.003906h-.003907zm0 0"/><path d="m2.480469 2.527344v.003906h-.003907zm0 0"/><path d="m2.476562 2.527344h.003907v.003906h-.003907zm0 0"/><path d="m2.476562 2.53125v-.003906l.003907.003906zm.003907 0-.003907-.003906v.003906zm0 0"/><path d="m2.480469 2.53125h-.003907v-.003906zm0 0"/><path d="m2.476562 2.53125v-.003906.003906l.003907-.003906zm0 0"/><path d="m2.476562 2.527344h.003907v.003906h-.003907zm0 0"/><path d="m12.839844 25.757812c-.523438 1.054688-.789063 2.210938-.789063 3.476563 0 .957031.15625 1.820313.46875 2.601563.332031.777343.769531 1.449218 1.3125 2.015624.566407.5625 1.191407.992188 1.871094 1.285157.703125.292969 1.414063.4375 2.132813.4375.816406 0 1.585937-.125 2.308593-.378907.71875-.253906 1.371094-.652343 1.957031-1.199218.582032-.542969 1.042969-1.234375 1.371094-2.074219.332032-.855469.496094-1.859375.496094-3.007813 0-1.910156-.476562-3.347656-1.429688-4.324218-.933593-.972656-2.113281-1.460938-3.535156-1.460938-.601562 0-1.128906.089844-1.578125.265625h-.058593l4.382812-8.792969h-3.328125zm5.171875 0c.875 0 1.585937.292969 2.132812.878907.5625.582031.847657 1.429687.847657 2.539062 0 1.148438-.304688 2.007813-.90625 2.570313-.585938.566406-1.277344.847656-2.074219.847656-.933594 0-1.664063-.28125-2.191407-.847656-.527343-.582032-.789062-1.4375-.789062-2.570313 0-1.109375.273438-1.957031.820312-2.539062.5625-.585938 1.285157-.878907 2.160157-.878907zm0 0"/><path d="m34.96875 29.410156c0 .992188-.265625 1.773438-.789062 2.335938-.527344.566406-1.238282.847656-2.132813.847656s-1.605469-.28125-2.132813-.847656c-.527343-.5625-.789062-1.34375-.789062-2.335938v-8.820312c0-.992188.261719-1.773438.789062-2.335938.527344-.566406 1.238282-.847656 2.132813-.847656s1.605469.28125 2.132813.847656c.523437.5625.789062 1.34375.789062 2.335938zm-8.824219.175782c0 .933593.15625 1.773437.46875 2.511718.332031.742188.769531 1.375 1.316407 1.898438.5625.527344 1.195312.925781 1.898437 1.199218.699219.253907 1.4375.378907 2.21875.378907.777344 0 1.519531-.125 2.21875-.378907.722656-.273437 1.355469-.664062 1.898437-1.167968.546876-.527344.976563-1.160156 1.285157-1.898438.332031-.761718.5-1.609375.5-2.542968v-9.171876c0-.933593-.15625-1.773437-.46875-2.511718-.3125-.742188-.75-1.375-1.316407-1.898438-.5625-.527344-1.195312-.917968-1.898437-1.167968-.699219-.273438-1.441406-.410157-2.21875-.410157-.78125 0-1.527344.136719-2.25.410157-.699219.25-1.324219.640624-1.867187 1.167968-.546876.503906-.984376 1.136719-1.316407 1.898438-.3125.738281-.46875 1.578125-.46875 2.511718zm0 0"/></svg>