<svg height="50pt" viewBox="0 0 50 50" width="50pt" xmlns="http://www.w3.org/2000/svg"><path d="m49.957031 25c0 13.785156-11.171875 24.957031-24.957031 24.957031s-24.9570312-11.171875-24.9570312-24.957031 11.1718752-24.9570312 24.9570312-24.9570312 24.957031 11.1718752 24.957031 24.9570312zm0 0" fill="#fff"/><path d="m25 0c-13.808594 0-25 11.191406-25 25 0 13.804688 11.191406 25 25 25 13.804688 0 25-11.195312 25-25 0-13.808594-11.195312-25-25-25zm0 .0429688c13.785156 0 24.957031 11.1718752 24.957031 24.9570312s-11.171875 24.957031-24.957031 24.957031-24.9570312-11.171875-24.9570312-24.957031 11.1718752-24.9570312 24.9570312-24.9570312zm0 0"/><path d="m25 .875c-13.285156 0-24.125 10.839844-24.125 24.125s10.839844 24.125 24.125 24.125 24.125-10.839844 24.125-24.125-10.839844-24.125-24.125-24.125zm0 6.6875c9.671875 0 17.4375 7.765625 17.4375 17.4375s-7.765625 17.4375-17.4375 17.4375-17.4375-7.765625-17.4375-17.4375 7.765625-17.4375 17.4375-17.4375zm0 0" fill="#c1121c"/><path d="m2.480469 2.527344v.003906h-.003907zm0 0"/><path d="m2.476562 2.527344h.003907v.003906h-.003907zm0 0"/><path d="m2.476562 2.53125v-.003906l.003907.003906zm.003907 0-.003907-.003906v.003906zm0 0"/><path d="m2.480469 2.53125h-.003907v-.003906zm0 0"/><path d="m2.476562 2.53125v-.003906.003906l.003907-.003906zm0 0"/><path d="m2.476562 2.527344h.003907v.003906h-.003907zm0 0"/><path d="m2.480469 2.527344v.003906h-.003907zm0 0"/><path d="m2.476562 2.527344h.003907v.003906h-.003907zm0 0"/><path d="m2.476562 2.53125v-.003906l.003907.003906zm.003907 0-.003907-.003906v.003906zm0 0"/><path d="m2.480469 2.53125h-.003907v-.003906zm0 0"/><path d="m2.476562 2.53125v-.003906.003906l.003907-.003906zm0 0"/><path d="m2.476562 2.527344h.003907v.003906h-.003907zm0 0"/><path d="m2.480469 2.527344v.003906h-.003907zm0 0"/><path d="m2.476562 2.527344h.003907v.003906h-.003907zm0 0"/><path d="m2.476562 2.53125v-.003906l.003907.003906zm.003907 0-.003907-.003906v.003906zm0 0"/><path d="m2.480469 2.53125h-.003907v-.003906zm0 0"/><path d="m2.476562 2.53125v-.003906.003906l.003907-.003906zm0 0"/><path d="m2.476562 2.527344h.003907v.003906h-.003907zm0 0"/><path d="m19.847656 18.417969v9.226562h19.109375v-9.226562zm-1.316406 2.308593-5.710938.355469c-.257812.015625-.484374.183594-.574218.425781l-1.453125 3.875c-.113281.296876-.167969.613282-.167969.925782v3.640625c0 .363281.292969.660156.660156.660156h.328125c0-1.636719 1.328125-2.964844 2.964844-2.964844 1.640625 0 2.964844 1.328125 2.964844 2.964844h11.863281c0-.894531.402344-1.742187 1.097656-2.308594h-11.972656zm-2.304688 1.152344v3.296875l-4.375.511719c-.011718 0-.027343.003906-.039062.003906-.183594 0-.328125-.148437-.328125-.332031 0-.039063.007813-.078125.019531-.113281l1.105469-2.945313c.042969-.121093.15625-.203125.285156-.214843zm-1.648437 6.421875c-1.273437 0-2.304687 1.035157-2.304687 2.308594s1.03125 2.304687 2.304687 2.304687 2.304687-1.03125 2.304687-2.304687-1.03125-2.308594-2.304687-2.308594zm17.789063 0c-1.273438 0-2.304688 1.035157-2.304688 2.308594s1.03125 2.304687 2.304688 2.304687c1.273437 0 2.308593-1.03125 2.308593-2.304687s-1.035156-2.308594-2.308593-2.308594zm1.867187 0c.695313.566407 1.101563 1.414063 1.101563 2.308594h1.644531l1.976562-.660156v-1.648438zm0 0"/></svg>