<svg height="30pt" viewBox="0 0 81 30" width="81pt" xmlns="http://www.w3.org/2000/svg" xmlns:xlink="http://www.w3.org/1999/xlink"><clipPath id="a"><path d="m0 .0820312h81v29.9179688h-81zm0 0"/></clipPath><g clip-path="url(#a)"><path d="m4.082031 29.960938c-2.234375 0-4.0429685-1.78125-4.0429685-3.976563v-21.882813c0-2.199218 1.8085935-3.976562 4.0429685-3.976562h72.765625c2.230469 0 4.039063 1.777344 4.039063 3.976562v21.882813c0 2.195313-1.808594 3.976563-4.039063 3.976563" fill="#fff"/><path d="m4.082031.0820312c-2.25 0-4.082031 1.8046878-4.082031 4.0195308v21.882813c0 2.214844 1.832031 4.015625 4.082031 4.015625h72.765625c2.246094 0 4.078125-1.800781 4.078125-4.015625v-21.882813c0-2.214843-1.832031-4.0195308-4.078125-4.0195308zm0 .0429688h72.765625c2.230469 0 4.039063 1.777344 4.039063 3.976562v21.882813c0 2.195313-1.808594 3.976563-4.039063 3.976563h-72.765625c-2.234375 0-4.0429685-1.78125-4.0429685-3.976563v-21.882813c0-2.199218 1.8085935-3.976562 4.0429685-3.976562zm0 0"/></g><path d="m4.082031 28.46875c-1.394531 0-2.527343-1.113281-2.527343-2.484375v-21.882813c0-1.375 1.132812-2.488281 2.527343-2.488281h72.765625c1.394532 0 2.523438 1.113281 2.523438 2.488281v21.882813c0 1.371094-1.128906 2.484375-2.523438 2.484375" fill="#154889"/><path d="m77.792969 15.042969-19.140625 11.058593c-.726563.417969-1.652344.171876-2.070313-.554687-.199219-.347656-.253906-.761719-.152343-1.152344l1.152343-4.296875h-53.058593v-10.113281h53.058593l-1.152343-4.296875c-.214844-.808594.265624-1.644531 1.074218-1.859375.386719-.105469.800782-.050781 1.148438.152344" fill="#fff"/><path d="m6.847656 17.875v-5.667969h3.640625v.808594h-2.78125v1.621094h2.375v.757812h-2.375v1.667969h2.78125v.8125"/><path d="m12.40625 13.015625h-.808594v-.808594h.808594zm-.808594 4.859375v-4.046875h.808594v4.046875"/><path d="m13.621094 17.875v-4.046875h.808594v.457031c.472656-.585937 1.332031-.679687 1.917968-.207031.320313.261719.507813.652344.507813 1.0625v2.734375h-.808594v-2.480469c0-.445312-.363281-.808593-.808594-.808593-.449219 0-.808593.363281-.808593.808593v2.480469"/><path d="m18.875 16.304688c0 .445312.359375.808593.808594.808593.449218 0 .808594-.363281.808594-.808593v-.910157c0-.445312-.359376-.808593-.808594-.808593-.449219 0-.808594.363281-.808594.808593zm-.808594 1.570312v-5.667969h.808594v2.078125c.472656-.585937 1.332031-.679687 1.917969-.207031.320312.261719.507812.652344.507812 1.0625v1.417969c0 .753906-.609375 1.367187-1.363281 1.367187-.414062 0-.804688-.1875-1.0625-.507812v.457031"/><path d="m24.636719 16.101562h-1.164063c-.277344 0-.503906.226563-.503906.507813 0 .277344.226562.503906.503906.503906h.65625c.28125 0 .507813-.226562.507813-.503906zm.808593 1.773438h-.808593v-.417969c-.144531.257813-.414063.417969-.707031.417969h-.507813c-.667969 0-1.210937-.546875-1.210937-1.214844 0-.671875.542968-1.214844 1.210937-1.214844h1.214844v-.402343c0-.222657-.160157-.414063-.378907-.449219-.285156-.050781-.578124-.050781-.863281 0-.140625.023438-.261719.117188-.328125.246094l-.640625-.507813c.191407-.285156.492188-.476562.832031-.535156.375-.066406.761719-.066406 1.140626 0 .605468.105469 1.046874.628906 1.046874 1.246094"/><path d="m26.65625 17.875v-5.667969h.808594v2.078125c.472656-.585937 1.332031-.679687 1.917968-.207031.320313.261719.507813.652344.507813 1.0625v2.734375h-.808594v-2.480469c0-.445312-.359375-.808593-.808593-.808593-.445313 0-.808594.363281-.808594.808593v2.480469"/><path d="m31.105469 17.875v-4.046875h.808593v.457031c.472657-.585937 1.332032-.679687 1.917969-.207031.316407.261719.503907.652344.503907 1.0625v2.734375h-.808594v-2.480469c0-.445312-.359375-.808593-.808594-.808593-.445312 0-.804688.363281-.804688.808593v2.480469"/><path d="m35.246094 17.226562.570312-.574218c.472656.46875 1.171875.621094 1.796875.386718.207031-.082031.3125-.3125.234375-.523437-.054687-.144531-.191406-.25-.351562-.257813l-.859375-.054687c-.667969-.042969-1.175781-.621094-1.136719-1.289063.035156-.53125.410156-.980468.929688-1.105468.753906-.179688 1.546874-.003906 2.152343.480468l-.503906.632813c-.410156-.328125-.949219-.445313-1.460937-.324219-.214844.050782-.351563.269532-.296876.488282.039063.171874.191407.296874.367188.308593l.859375.054688c.667969.042969 1.175781.617187 1.132813 1.285156-.027344.476563-.335938.894531-.78125 1.0625-.921876.34375-1.957032.121094-2.652344-.570313"/><path d="m41.210938 17.875h-.507813c-.5 0-.910156-.410156-.910156-.914062v-2.476563h-.402344v-.65625h.402344v-1.214844h.808593v1.214844h.609376v.65625h-.609376v2.378906c0 .140625.117188.25.253907.25h.355469"/><path d="m42.320312 17.875v-4.046875h.808594v.457031c.472656-.585937 1.332032-.679687 1.917969-.207031.003906 0 .003906.003906.003906.003906l-.574219.707031c-.335937-.296874-.84375-.265624-1.144531.066407-.128906.148437-.203125.339843-.203125.539062v2.480469"/><path d="m47.878906 16.101562h-1.160156c-.28125 0-.507812.226563-.507812.507813 0 .277344.226562.503906.507812.503906h.65625c.277344 0 .503906-.226562.503906-.503906zm.808594 1.773438h-.808594v-.417969c-.140625.257813-.414062.417969-.707031.417969h-.503906c-.671875 0-1.214844-.546875-1.214844-1.214844 0-.671875.542969-1.214844 1.214844-1.214844h1.210937v-.402343c0-.222657-.160156-.414063-.375-.449219-.285156-.050781-.578125-.050781-.863281 0-.144531.023438-.265625.117188-.332031.246094l-.636719-.507813c.191406-.285156.488281-.476562.828125-.535156.378906-.066406.765625-.066406 1.140625 0 .609375.105469 1.046875.628906 1.046875 1.246094"/><path d="m49.902344 17.875v-4.453125c0-.523437.332031-.984375.828125-1.152344.511719-.167969 1.0625-.167969 1.574219 0 .496093.167969.828124.628907.828124 1.152344v.152344c0 .363281-.226562.6875-.566406.808593.339844.125.566406.445313.566406.808594v1.570313c0 .613281-.496093 1.113281-1.109374 1.113281h-.503907v-.761719h.402344c.222656 0 .40625-.179687.40625-.402343v-1.519532c0-.222656-.183594-.402344-.40625-.402344h-.503906v-.757812h.503906c.222656 0 .40625-.183594.40625-.40625v-.203125c0-.175781-.113281-.328125-.277344-.382813-.347656-.113281-.71875-.113281-1.066406 0-.164063.054688-.273437.207032-.273437.382813v4.453125"/><path d="m55.054688 15.445312h1.71875c0-.476562-.386719-.859374-.859376-.859374-.472656 0-.859374.382812-.859374.859374zm2.527343.707032h-2.527343v.101562c0 .351563.214843.667969.542968.796875.445313.179688.960938.054688 1.277344-.3125l.613281.527344c-.542969.632813-1.421875.847656-2.195312.539063-.632813-.253907-1.046875-.867188-1.046875-1.550782v-.808594c0-.921874.746094-1.667968 1.667968-1.667968.921876 0 1.667969.746094 1.667969 1.667968"/></svg>