<svg height="50pt" viewBox="0 0 50 50" width="50pt" xmlns="http://www.w3.org/2000/svg"><g fill-rule="evenodd"><path d="m42.652344 7.355469c3.246094 3.246093 5.269531 6.746093 6.457031 11.183593 1.191406 4.441407 1.191406 8.484376 0 12.921876-1.1875 4.4375-3.210937 7.941406-6.460937 11.191406-3.246094 3.246094-6.75 5.269531-11.1875 6.460937-4.4375 1.183594-8.484376 1.1875-12.921876-.003906-4.433593-1.1875-7.9375-3.210937-11.183593-6.457031-3.25-3.25-5.273438-6.753906-6.464844-11.191406-1.1875-4.4375-1.1875-8.484376 0-12.917969 1.191406-4.441407 3.214844-7.941407 6.460937-11.1875 3.25-3.25 6.753907-5.273438 11.1875-6.464844 4.4375-1.1875 8.484376-1.1875 12.921876 0 4.4375 1.191406 7.941406 3.214844 11.191406 6.464844zm-.03125.027343c-3.242188-3.242187-6.738282-5.261718-11.171875-6.453124-4.429688-1.183594-8.46875-1.1875-12.898438.003906-4.429687 1.1875-7.925781 3.207031-11.171875 6.449218-3.242187 3.242188-5.257812 6.738282-6.449218 11.167969-1.183594 4.429688-1.183594 8.46875.003906 12.898438 1.1875 4.433593 3.207031 7.929687 6.453125 11.171875 3.242187 3.242187 6.734375 5.261718 11.164062 6.449218 4.433594 1.1875 8.46875 1.1875 12.898438 0 4.433593-1.1875 7.925781-3.207031 11.171875-6.449218 3.242187-3.242188 5.261718-6.738282 6.449218-11.167969 1.1875-4.433594 1.1875-8.46875 0-12.902344-1.1875-4.429687-3.203124-7.925781-6.449218-11.167969zm0 0"/><path d="m7.378906 7.382812c3.246094-3.242187 6.742188-5.261718 11.171875-6.449218 4.429688-1.191406 8.46875-1.1875 12.898438-.003906 4.433593 1.191406 7.929687 3.210937 11.171875 6.453124 3.246094 3.242188 5.261718 6.738282 6.449218 11.167969 1.1875 4.433594 1.1875 8.46875 0 12.902344-1.1875 4.429687-3.207031 7.925781-6.449218 11.167969-3.246094 3.242187-6.738282 5.261718-11.167969 6.449218-4.433594 1.1875-8.46875 1.1875-12.902344 0-4.429687-1.1875-7.921875-3.207031-11.164062-6.449218-3.246094-3.242188-5.265625-6.738282-6.453125-11.171875-1.1875-4.429688-1.1875-8.46875 0-12.898438 1.1875-4.429687 3.203125-7.925781 6.445312-11.167969zm0 0" fill="#fff"/><path d="m8.207031 8.203125c3.089844-3.089844 6.421875-5.015625 10.644531-6.144531 4.226563-1.132813 8.074219-1.132813 12.296876-.003906 4.226562 1.132812 7.558593 3.058593 10.652343 6.152343 3.089844 3.089844 5.011719 6.421875 6.144531 10.644531 1.128907 4.226563 1.128907 8.074219 0 12.300782-1.132812 4.21875-3.054687 7.554687-6.144531 10.644531-3.09375 3.09375-6.425781 5.019531-10.652343 6.148437-4.222657 1.132813-8.070313 1.132813-12.296876 0-4.222656-1.132812-7.554687-3.054687-10.644531-6.144531-3.09375-3.09375-5.019531-6.429687-6.148437-10.652343-1.132813-4.222657-1.132813-8.074219 0-12.296876 1.128906-4.222656 3.054687-7.554687 6.148437-10.648437zm0 0" fill="#154889"/></g><path d="m4.164062 25.835938h41.671876v.828124h-41.671876zm0 0" fill="#fff"/><path d="m30.128906 13.355469c0-.773438-.628906-1.402344-1.402344-1.402344-.773437 0-1.402343.628906-1.402343 1.402344 0 .777343.628906 1.402343 1.402343 1.402343.773438 0 1.402344-.625 1.402344-1.402343zm-6.8125-8.210938c0 .882813-.714844 1.601563-1.601562 1.601563-.882813 0-1.601563-.71875-1.601563-1.601563 0-.886719.71875-1.605469 1.601563-1.605469.886718 0 1.601562.71875 1.601562 1.605469zm-3.203125 8.171875.28125-.273437c.078125-.078125.117188-.179688.117188-.285157v-3.007812c0-.109375-.085938-.199219-.199219-.199219-.109375 0-.199219.089844-.199219.199219zm-2.40625 4.648438c.230469-1.535156.898438-2.972656 1.921875-4.136719-.460937-.515625-.71875-1.183594-.71875-1.875v-1.601563c0-1.546874 1.257813-2.804687 2.804688-2.804687 1.046875 0 2.003906.582031 2.488281 1.507813l1.664063 3.199218c.242187.464844.15625 1.03125-.210938 1.402344l1.652344 1.390625c.5625.46875 1.320312.628906 2.023437.429687l.296875-.085937c.304688-.085937.636719.015625.839844.261719l2.035156 2.476562c.347656.421875.292969 1.042969-.121094 1.398438l-1.851562-2.164063.601562 3.003907-.769531.113281.460938 2.914062c.042969.273438-.144531.53125-.417969.574219-.265625.042969-.515625-.136719-.566406-.398438l-.570313-2.925781-.648437.097657-.296875 3.179687c-.023438.273437-.269531.476563-.542969.449219-.269531-.023438-.472656-.257813-.457031-.527344l.402343-6.878906-2.855468-2.699219c-.265625-.371094-.242188-.878906.050781-1.226563l-1.777344-3.414062c-.027343-.058594-.105469-.082031-.164062-.050781-.039063.019531-.0625.0625-.0625.105469v3.074218c0 .109375.042969.210938.117187.289063l.355469.347656c1.253906 1.234375 2.070313 2.835937 2.332031 4.574219zm4.207031.402344h1.203126v5.40625c0 .332031-.265626.601562-.601563.601562-.328125 0-.601563-.269531-.601563-.601562zm-1.601562 0h1.203125v4.207031c0 .328125-.269531.597656-.601563.597656-.332031 0-.601562-.269531-.601562-.597656" fill="#fff"/><path d="m33.789062 42.839844c-2.035156.605468-4.175781-.558594-4.785156-2.59375-.011718-.042969-.023437-.089844-.035156-.132813h3.964844c.265625 0 .480468-.214843.480468-.480469 0-.066406-.015624-.136718-.042968-.195312l-1.773438-3.972656c2.035156-.605469 4.175782.554687 4.78125 2.589844.605469 2.039062-.554687 4.179687-2.589844 4.785156zm-3.070312-6.988282 1.476562 3.300782h-3.347656c0-1.351563.710938-2.605469 1.871094-3.300782zm-2.832031 3.300782h-.960938l2.402344-6.410156.996094 2.226562c-1.507813.851562-2.4375 2.453125-2.4375 4.183594zm-1.96875-.054688-6.023438-6.675781h8.527344zm-5.105469 1.640625c-.878906 1.933594-3.15625 2.792969-5.09375 1.917969-1.933594-.878906-2.789062-3.15625-1.914062-5.09375.726562-1.597656 2.441406-2.503906 4.171874-2.199219l-1.125 3.644531c-.082031.253907.0625.523438.3125.601563.257813.078125.527344-.0625.605469-.316406l1.125-3.644531c1.9375.875 2.792969 3.15625 1.917969 5.089843zm16.453125-3.078125c-.824219-2.523437-3.539063-3.902344-6.0625-3.082031l-1.394531-3.121094.359375-.960937h1.082031v-.960938h-4.085938c-.109374 0-.207031.078125-.234374.183594-.03125.128906.050781.257812.179687.289062l2.03125.488282-.359375.960937h-8.585938l.382813-1.246093c.125-.402344.5-.675782.917969-.675782h1.582031v-.960937h-1.582031c-.839844 0-1.585938.546875-1.835938 1.355469l-1.394531 4.507812c-2.242187-.453125-4.492187.734375-5.386719 2.839844-1.03125 2.445312.109375 5.265625 2.554688 6.300781 2.445312 1.035156 5.265625-.109375 6.300781-2.550781 1.035156-2.445313-.105469-5.269532-2.550781-6.304688l.382812-1.234375 5.683594 6.304688c.179688.203125.441406.320312.710938.320312h2.023437c.035156.179688.082031.355469.136719.527344.824218 2.527344 3.539062 3.90625 6.0625 3.082031 2.523437-.824218 3.902344-3.539062 3.082031-6.0625" fill="#fff"/></svg>