<svg height="50pt" viewBox="0 0 50 50" width="50pt" xmlns="http://www.w3.org/2000/svg"><path d="m49.957031 25c0 13.785156-11.171875 24.957031-24.957031 24.957031s-24.9570312-11.171875-24.9570312-24.957031 11.1718752-24.9570312 24.9570312-24.9570312 24.957031 11.1718752 24.957031 24.9570312zm0 0" fill="#fff"/><path d="m25 0c-13.808594 0-25 11.191406-25 25 0 13.804688 11.191406 25 25 25 13.804688 0 25-11.195312 25-25 0-13.808594-11.195312-25-25-25zm0 .0429688c13.785156 0 24.957031 11.1718752 24.957031 24.9570312s-11.171875 24.957031-24.957031 24.957031-24.9570312-11.171875-24.9570312-24.957031 11.1718752-24.9570312 24.9570312-24.9570312zm0 0"/><path d="m25 .875c-13.285156 0-24.125 10.839844-24.125 24.125s10.839844 24.125 24.125 24.125 24.125-10.839844 24.125-24.125-10.839844-24.125-24.125-24.125zm0 6.6875c9.671875 0 17.4375 7.765625 17.4375 17.4375s-7.765625 17.4375-17.4375 17.4375-17.4375-7.765625-17.4375-17.4375 7.765625-17.4375 17.4375-17.4375zm0 0" fill="#c1121c"/><path d="m2.480469 2.527344v.003906h-.003907zm0 0"/><path d="m2.476562 2.527344h.003907v.003906h-.003907zm0 0"/><path d="m2.476562 2.53125v-.003906l.003907.003906zm.003907 0-.003907-.003906v.003906zm0 0"/><path d="m2.480469 2.53125h-.003907v-.003906zm0 0"/><path d="m2.476562 2.53125v-.003906.003906l.003907-.003906zm0 0"/><path d="m2.476562 2.527344h.003907v.003906h-.003907zm0 0"/><path d="m2.480469 2.527344v.003906h-.003907zm0 0"/><path d="m2.476562 2.527344h.003907v.003906h-.003907zm0 0"/><path d="m2.476562 2.53125v-.003906l.003907.003906zm.003907 0-.003907-.003906v.003906zm0 0"/><path d="m2.480469 2.53125h-.003907v-.003906zm0 0"/><path d="m2.476562 2.53125v-.003906.003906l.003907-.003906zm0 0"/><path d="m2.476562 2.527344h.003907v.003906h-.003907zm0 0"/><path d="m2.480469 2.527344v.003906h-.003907zm0 0"/><path d="m2.476562 2.527344h.003907v.003906h-.003907zm0 0"/><path d="m2.476562 2.53125v-.003906l.003907.003906zm.003907 0-.003907-.003906v.003906zm0 0"/><path d="m2.480469 2.53125h-.003907v-.003906zm0 0"/><path d="m2.476562 2.53125v-.003906.003906l.003907-.003906zm0 0"/><path d="m2.476562 2.527344h.003907v.003906h-.003907zm0 0"/><path d="m27.382812 26.554688 1.089844-2.503907c.054688-.117187.167969-.191406.292969-.191406h7.550781c.128906 0 .242188.074219.292969.191406l1.089844 2.503907" fill="#fff"/><path d="m26.933594 16.152344c-.890625-.5625-2.03125-.515625-2.871094.117187l-.746094.5625-.945312.132813v-1.472656l1.722656-.246094v-1.230469l-1.738281.25c.269531-1.367187 1.597656-2.257813 2.964843-1.988281 1.367188.269531 2.257813 1.597656 1.988282 2.964844-.066406.324218-.191406.632812-.375.910156zm2.507812 14.941406c-5.363281-.160156-8.148437.261719-8.6875-2.371094l-.109375-.5c-.628906-2.296875-2.820312-3.808594-5.1875-3.578125-.84375-1.703125-1.683593-3.492187 3.996094-5.207031-.074219.296875-.109375.605469-.105469.910156l4.96875-3.742187c.925782-.699219 2.246094-.515625 2.941406.414062l2.628907 3.480469-2.792969 2.105469-2.882812-3.828125-4.402344 3.320312c.515625.925782 1.398437 1.585938 2.433594 1.8125.042968-.546875.5-.96875 1.046874-.96875h4.058594l2.789063-2.105468 1.027343 1.363281c.167969.222656.289063.472656.359376.742187h4.125c.292968 0 .527343.375.527343.839844s-.234375.84375-.527343.84375h-1.578126c-2.699218 0-4.890624 2.1875-4.890624 4.890625 0 .535156.089843 1.070313.261718 1.578125zm7.523438-1.578125c0-1.597656-1.296875-2.894531-2.894532-2.894531-1.597656 0-2.890624 1.296875-2.890624 2.894531s1.292968 2.890625 2.890624 2.890625c1.597657 0 2.894532-1.292969 2.894532-2.890625zm1.578125 0c0 2.46875-2.003907 4.46875-4.472657 4.46875s-4.46875-2-4.46875-4.46875 2-4.472656 4.46875-4.472656 4.472657 2.003906 4.472657 4.472656zm-19.722657 0c0-1.597656-1.292968-2.894531-2.894531-2.894531-1.59375 0-2.890625 1.296875-2.890625 2.894531s1.296875 2.890625 2.890625 2.890625c1.601563 0 2.894531-1.292969 2.894531-2.890625zm1.578126 0c0 2.46875-2 4.46875-4.472657 4.46875-2.464843 0-4.46875-2-4.46875-4.46875s2.003907-4.472656 4.46875-4.472656c2.472657 0 4.472657 2.003906 4.472657 4.472656"/></svg>