<svg height="50pt" viewBox="0 0 50 50" width="50pt" xmlns="http://www.w3.org/2000/svg"><path d="m49.957031 25c0 13.785156-11.171875 24.957031-24.957031 24.957031s-24.9570312-11.171875-24.9570312-24.957031 11.1718752-24.9570312 24.9570312-24.9570312 24.957031 11.1718752 24.957031 24.9570312zm0 0" fill="#fff"/><path d="m25 0c-13.808594 0-25 11.191406-25 25 0 13.804688 11.191406 25 25 25 13.804688 0 25-11.195312 25-25 0-13.808594-11.195312-25-25-25zm0 .0429688c13.785156 0 24.957031 11.1718752 24.957031 24.9570312s-11.171875 24.957031-24.957031 24.957031-24.9570312-11.171875-24.9570312-24.957031 11.1718752-24.9570312 24.9570312-24.9570312zm0 0"/><path d="m25 .875c-13.285156 0-24.125 10.839844-24.125 24.125s10.839844 24.125 24.125 24.125 24.125-10.839844 24.125-24.125-10.839844-24.125-24.125-24.125zm0 6.6875c9.671875 0 17.4375 7.765625 17.4375 17.4375s-7.765625 17.4375-17.4375 17.4375-17.4375-7.765625-17.4375-17.4375 7.765625-17.4375 17.4375-17.4375zm0 0" fill="#c1121c"/><path d="m2.480469 2.527344v.003906h-.003907zm0 0"/><path d="m2.476562 2.527344h.003907v.003906h-.003907zm0 0"/><path d="m2.476562 2.53125v-.003906l.003907.003906zm.003907 0-.003907-.003906v.003906zm0 0"/><path d="m2.480469 2.53125h-.003907v-.003906zm0 0"/><path d="m2.476562 2.53125v-.003906.003906l.003907-.003906zm0 0"/><path d="m2.476562 2.527344h.003907v.003906h-.003907zm0 0"/><path d="m2.480469 2.527344v.003906h-.003907zm0 0"/><path d="m2.476562 2.527344h.003907v.003906h-.003907zm0 0"/><path d="m2.476562 2.53125v-.003906l.003907.003906zm.003907 0-.003907-.003906v.003906zm0 0"/><path d="m2.480469 2.53125h-.003907v-.003906zm0 0"/><path d="m2.476562 2.53125v-.003906.003906l.003907-.003906zm0 0"/><path d="m2.476562 2.527344h.003907v.003906h-.003907zm0 0"/><path d="m2.480469 2.527344v.003906h-.003907zm0 0"/><path d="m2.476562 2.527344h.003907v.003906h-.003907zm0 0"/><path d="m2.476562 2.53125v-.003906l.003907.003906zm.003907 0-.003907-.003906v.003906zm0 0"/><path d="m2.480469 2.53125h-.003907v-.003906zm0 0"/><path d="m2.476562 2.53125v-.003906.003906l.003907-.003906zm0 0"/><path d="m2.476562 2.527344h.003907v.003906h-.003907zm0 0"/><path d="m17.558594 15.476562c-.589844 0-1.125.351563-1.363282.894532l-2.355468 5.410156c-.164063.382812-.375.742188-.628906 1.074219l-.355469.476562c-.230469.308594-.355469.6875-.355469 1.070313v3.871094c0 .820312.664062 1.488281 1.488281 1.488281h22.023438c.820312 0 1.488281-.667969 1.488281-1.488281v-3.871094c0-.382813-.125-.761719-.355469-1.070313l-.359375-.476562c-.25-.332031-.457031-.691407-.625-1.074219l-2.355468-5.410156c-.234376-.542969-.773438-.894532-1.363282-.894532zm.359375 1.488282h14.164062c.234375 0 .449219.136718.546875.355468l2.042969 4.703126h-19.34375l2.042969-4.703126c.097656-.21875.3125-.355468.546875-.355468zm-2.144531 6.546875c.988281 0 1.785156.800781 1.785156 1.785156 0 .988281-.796875 1.785156-1.785156 1.785156-.984376 0-1.785157-.796875-1.785157-1.785156 0-.984375.800781-1.785156 1.785157-1.785156zm18.453124 0c.988282 0 1.785157.800781 1.785157 1.785156 0 .988281-.796875 1.785156-1.785157 1.785156-.984374 0-1.785156-.796875-1.785156-1.785156 0-.984375.800782-1.785156 1.785156-1.785156zm-20.238281 6.84375v3.273437c0 .496094.398438.894532.890625.894532h1.785156c.496094 0 .894532-.398438.894532-.894532v-3.273437zm18.453125 0v3.273437c0 .496094.398438.894532.894532.894532h1.785156c.492187 0 .890625-.398438.890625-.894532v-3.273437zm0 0"/></svg>