<svg height="50pt" viewBox="0 0 50 50" width="50pt" xmlns="http://www.w3.org/2000/svg"><path d="m49.957031 25c0 13.785156-11.171875 24.957031-24.957031 24.957031s-24.9570312-11.171875-24.9570312-24.957031 11.1718752-24.9570312 24.9570312-24.9570312 24.957031 11.1718752 24.957031 24.9570312zm0 0" fill="#fff"/><path d="m25 0c-13.808594 0-25 11.191406-25 25 0 13.804688 11.191406 25 25 25 13.804688 0 25-11.195312 25-25 0-13.808594-11.195312-25-25-25zm0 .0429688c13.785156 0 24.957031 11.1718752 24.957031 24.9570312s-11.171875 24.957031-24.957031 24.957031-24.9570312-11.171875-24.9570312-24.957031 11.1718752-24.9570312 24.9570312-24.9570312zm0 0"/><path d="m25 .875c-13.285156 0-24.125 10.839844-24.125 24.125s10.839844 24.125 24.125 24.125 24.125-10.839844 24.125-24.125-10.839844-24.125-24.125-24.125zm0 6.6875c9.671875 0 17.4375 7.765625 17.4375 17.4375s-7.765625 17.4375-17.4375 17.4375-17.4375-7.765625-17.4375-17.4375 7.765625-17.4375 17.4375-17.4375zm0 0" fill="#c1121c"/><path d="m2.480469 2.527344v.003906h-.003907zm0 0"/><path d="m2.476562 2.527344h.003907v.003906h-.003907zm0 0"/><path d="m2.476562 2.53125v-.003906l.003907.003906zm.003907 0-.003907-.003906v.003906zm0 0"/><path d="m2.480469 2.53125h-.003907v-.003906zm0 0"/><path d="m2.476562 2.53125v-.003906.003906l.003907-.003906zm0 0"/><path d="m2.476562 2.527344h.003907v.003906h-.003907zm0 0"/><path d="m2.480469 2.527344v.003906h-.003907zm0 0"/><path d="m2.476562 2.527344h.003907v.003906h-.003907zm0 0"/><path d="m2.476562 2.53125v-.003906l.003907.003906zm.003907 0-.003907-.003906v.003906zm0 0"/><path d="m2.480469 2.53125h-.003907v-.003906zm0 0"/><path d="m2.476562 2.53125v-.003906.003906l.003907-.003906zm0 0"/><path d="m2.476562 2.527344h.003907v.003906h-.003907zm0 0"/><path d="m2.480469 2.527344v.003906h-.003907zm0 0"/><path d="m2.476562 2.527344h.003907v.003906h-.003907zm0 0"/><path d="m2.476562 2.53125v-.003906l.003907.003906zm.003907 0-.003907-.003906v.003906zm0 0"/><path d="m2.480469 2.53125h-.003907v-.003906zm0 0"/><path d="m2.476562 2.53125v-.003906.003906l.003907-.003906zm0 0"/><path d="m2.476562 2.527344h.003907v.003906h-.003907zm0 0"/><path d="m8.539062 24.582031v-.832031h32.917969v.832031zm0 0"/><path d="m26.25 11.394531c-.574219-.363281-1.3125-.332031-1.855469.074219l-.484375.363281-.609375.089844v-.953125l1.113281-.160156v-.792969l-1.125.160156c.175782-.886719 1.035157-1.460937 1.917969-1.285156.882813.175781 1.460938 1.03125 1.285157 1.917969-.042969.207031-.125.410156-.242188.585937zm1.621094 9.652344c-3.464844-.101563-5.265625.171875-5.613282-1.53125l-.070312-.324219c-.410156-1.480468-1.824219-2.457031-3.355469-2.308594-.542969-1.101562-1.085937-2.257812 2.582031-3.367187-.046874.195313-.070312.390625-.066406.589844l3.210938-2.417969c.597656-.453125 1.449218-.332031 1.902344.265625l1.695312 2.253906-1.800781 1.355469-1.867188-2.46875-2.84375 2.140625c.332031.597656.90625 1.027344 1.574219 1.171875.027344-.355469.324219-.625.675781-.625h2.621094l1.804687-1.359375.664063.882813c.105469.140624.1875.304687.230469.476562h2.667968c.1875 0 .339844.242188.339844.542969s-.152344.542969-.339844.542969h-1.019531c-1.746093 0-3.164062 1.414062-3.164062 3.160156 0 .347656.058593.691406.171875 1.019531zm4.859375-1.019531c0-1.03125-.835938-1.867188-1.867188-1.867188-1.035156 0-1.871093.835938-1.871093 1.867188 0 1.035156.835937 1.871094 1.871093 1.871094 1.03125 0 1.867188-.835938 1.867188-1.871094zm1.019531 0c0 1.597656-1.292969 2.890625-2.886719 2.890625-1.597656 0-2.890625-1.292969-2.890625-2.890625 0-1.59375 1.292969-2.886719 2.890625-2.886719 1.59375 0 2.886719 1.292969 2.886719 2.886719zm-12.742188 0c0-1.03125-.839843-1.867188-1.871093-1.867188s-1.867188.835938-1.867188 1.867188c0 1.035156.835938 1.871094 1.867188 1.871094s1.871093-.835938 1.871093-1.871094zm1.019532 0c0 1.597656-1.292969 2.890625-2.890625 2.890625-1.59375 0-2.886719-1.292969-2.886719-2.890625 0-1.59375 1.292969-2.886719 2.886719-2.886719 1.597656 0 2.890625 1.292969 2.890625 2.886719"/><path d="m20.039062 26.667969c-.394531 0-.75.230469-.910156.59375l-1.570312 3.609375c-.109375.253906-.246094.496094-.414063.714844l-.238281.320312c-.15625.203125-.238281.453125-.238281.710938v2.582031c0 .546875.441406.992187.988281.992187h14.6875c.546875 0 .992188-.445312.992188-.992187v-2.582031c0-.257813-.085938-.507813-.238282-.710938l-.242187-.320312c-.164063-.21875-.304688-.460938-.417969-.714844l-1.566406-3.609375c-.160156-.363281-.515625-.59375-.910156-.59375zm.242188.988281h9.4375c.160156 0 .304688.097656.367188.242188l1.363281 3.132812h-12.898438l1.367188-3.132812c.0625-.144532.203125-.242188.363281-.242188zm-1.433594 4.367188c.660156 0 1.191406.535156 1.191406 1.191406s-.53125 1.191406-1.191406 1.191406c-.65625 0-1.191406-.535156-1.191406-1.191406s.535156-1.191406 1.191406-1.191406zm12.304688 0c.65625 0 1.191406.535156 1.191406 1.191406s-.535156 1.191406-1.191406 1.191406c-.660156 0-1.191406-.535156-1.191406-1.191406s.53125-1.191406 1.191406-1.191406zm-13.496094 4.5625v2.183593c0 .328125.265625.597657.597656.597657h1.191406c.328126 0 .59375-.269532.59375-.597657v-2.183593zm12.304688 0v2.183593c0 .328125.265624.597657.59375.597657h1.191406c.328125 0 .597656-.269532.597656-.597657v-2.183593zm0 0"/></svg>