<svg height="50pt" viewBox="0 0 50 50" width="50pt" xmlns="http://www.w3.org/2000/svg"><path d="m49.957031 25c0 13.785156-11.171875 24.957031-24.957031 24.957031s-24.9570312-11.171875-24.9570312-24.957031 11.1718752-24.9570312 24.9570312-24.9570312 24.957031 11.1718752 24.957031 24.9570312zm0 0" fill="#fff"/><path d="m25 0c-13.808594 0-25 11.191406-25 25 0 13.804688 11.191406 25 25 25 13.804688 0 25-11.195312 25-25 0-13.808594-11.195312-25-25-25zm0 .0429688c13.785156 0 24.957031 11.1718752 24.957031 24.9570312s-11.171875 24.957031-24.957031 24.957031-24.9570312-11.171875-24.9570312-24.957031 11.1718752-24.9570312 24.9570312-24.9570312zm0 0"/><path d="m25 .875c-13.285156 0-24.125 10.839844-24.125 24.125s10.839844 24.125 24.125 24.125 24.125-10.839844 24.125-24.125-10.839844-24.125-24.125-24.125zm0 6.6875c9.671875 0 17.4375 7.765625 17.4375 17.4375s-7.765625 17.4375-17.4375 17.4375-17.4375-7.765625-17.4375-17.4375 7.765625-17.4375 17.4375-17.4375zm0 0" fill="#c1121c"/><path d="m2.480469 2.527344v.003906h-.003907zm0 0"/><path d="m2.476562 2.527344h.003907v.003906h-.003907zm0 0"/><path d="m2.476562 2.53125v-.003906l.003907.003906zm.003907 0-.003907-.003906v.003906zm0 0"/><path d="m2.480469 2.53125h-.003907v-.003906zm0 0"/><path d="m2.476562 2.53125v-.003906.003906l.003907-.003906zm0 0"/><path d="m2.476562 2.527344h.003907v.003906h-.003907zm0 0"/><path d="m2.480469 2.527344v.003906h-.003907zm0 0"/><path d="m2.476562 2.527344h.003907v.003906h-.003907zm0 0"/><path d="m2.476562 2.53125v-.003906l.003907.003906zm.003907 0-.003907-.003906v.003906zm0 0"/><path d="m2.480469 2.53125h-.003907v-.003906zm0 0"/><path d="m2.476562 2.53125v-.003906.003906l.003907-.003906zm0 0"/><path d="m2.476562 2.527344h.003907v.003906h-.003907zm0 0"/><path d="m2.480469 2.527344v.003906h-.003907zm0 0"/><path d="m2.476562 2.527344h.003907v.003906h-.003907zm0 0"/><path d="m2.476562 2.53125v-.003906l.003907.003906zm.003907 0-.003907-.003906v.003906zm0 0"/><path d="m2.480469 2.53125h-.003907v-.003906zm0 0"/><path d="m2.476562 2.53125v-.003906.003906l.003907-.003906zm0 0"/><path d="m2.476562 2.527344h.003907v.003906h-.003907zm0 0"/><path d="m34.894531 35.601562c-.386719 0-.703125-.316406-.703125-.707031v-7.066406c0-.390625.316406-.707031.703125-.707031h2.121094c.390625 0 .707031.316406.707031.707031v7.066406c0 .390625-.316406.707031-.707031.707031zm-17.667969 0c-.394531 0-.710937-.316406-.710937-.707031v-7.066406c0-.390625.316406-.707031.710937-.707031h2.117188c.390625 0 .707031.316406.707031.707031v1.941406c0 .394531.316407.710938.707031.710938h1.34375c.363282 0 .710938-.140625.976563-.394531l.457031-.433594c.820313-.78125 2.109375-.78125 2.925782 0l.460937.433594c.265625.253906.613281.394531.976563.394531h1.34375c.390624 0 .707031-.316407.707031-.710938v-1.941406c0-.390625.316406-.707031.707031-.707031h2.121094c.386718 0 .707031.316406.707031.707031v7.066406c0 .390625-.320313.707031-.707031.707031h-2.121094c-.390625 0-.707031-.316406-.707031-.707031v-1.941406c0-.390625-.316407-.707031-.707031-.707031h-1.34375c-.363282 0-.710938.140625-.976563.390625l-.460937.4375c-.816407.78125-2.105469.78125-2.925782 0l-.457031-.4375c-.265625-.25-.613281-.390625-.976563-.390625h-1.34375c-.390624 0-.707031.316406-.707031.707031v1.941406c0 .390625-.316406.707031-.707031.707031zm-4.242187 0c-.390625 0-.707031-.316406-.707031-.707031v-7.066406c0-.390625.316406-.707031.707031-.707031h2.121094c.386719 0 .703125.316406.703125.707031v7.066406c0 .390625-.316406.707031-.703125.707031"/><path d="m25 27.757812-2.785156-2.785156v-1.546875l2.167968 2.164063v-3.398438h1.234376v3.398438l2.167968-2.164063v1.546875"/><path d="m30.378906 20.757812h-.949218c-.941407 0-1.703126-.761718-1.703126-1.703124v-4.636719h-.757812v-1.234375h.757812v-2.269532h1.515626v2.269532h1.136718v1.234375h-1.136718v4.445312c0 .261719.210937.476563.472656.476563h.664062zm-10.035156-7.667968c0 .835937.675781 1.515625 1.511719 1.515625.835937 0 1.515625-.679688 1.515625-1.515625 0-.835938-.679688-1.515625-1.515625-1.515625-.835938 0-1.511719.679687-1.511719 1.515625zm-.191406 4.546875c0 .9375.761718 1.703125 1.703125 1.703125.941406 0 1.707031-.765625 1.707031-1.703125 0-.941407-.765625-1.707031-1.707031-1.707031-.941407 0-1.703125.765624-1.703125 1.707031zm-.28125-2.390625c-.660156-.523438-1.042969-1.316406-1.042969-2.15625 0-1.671875 1.355469-3.027344 3.027344-3.027344 1.675781 0 3.03125 1.355469 3.03125 3.027344 0 .839844-.386719 1.632812-1.042969 2.15625.773438.546875 1.234375 1.441406 1.234375 2.390625 0 1.777343-1.445313 3.214843-3.222656 3.214843-1.777344 0-3.21875-1.4375-3.21875-3.214843 0-.949219.460937-1.84375 1.234375-2.390625"/></svg>