<svg height="50pt" viewBox="0 0 50 50" width="50pt" xmlns="http://www.w3.org/2000/svg"><path d="m49.957031 25c0 13.785156-11.171875 24.957031-24.957031 24.957031s-24.9570312-11.171875-24.9570312-24.957031 11.1718752-24.9570312 24.9570312-24.9570312 24.957031 11.1718752 24.957031 24.9570312zm0 0" fill="#fff"/><path d="m25 0c-13.808594 0-25 11.191406-25 25 0 13.804688 11.191406 25 25 25 13.804688 0 25-11.195312 25-25 0-13.808594-11.195312-25-25-25zm0 .0429688c13.785156 0 24.957031 11.1718752 24.957031 24.9570312s-11.171875 24.957031-24.957031 24.957031-24.9570312-11.171875-24.9570312-24.957031 11.1718752-24.9570312 24.9570312-24.9570312zm0 0"/><path d="m25 .875c-13.285156 0-24.125 10.839844-24.125 24.125s10.839844 24.125 24.125 24.125 24.125-10.839844 24.125-24.125-10.839844-24.125-24.125-24.125zm0 6.6875c9.671875 0 17.4375 7.765625 17.4375 17.4375s-7.765625 17.4375-17.4375 17.4375-17.4375-7.765625-17.4375-17.4375 7.765625-17.4375 17.4375-17.4375zm0 0" fill="#c1121c"/><path d="m2.480469 2.527344v.003906h-.003907zm0 0"/><path d="m2.476562 2.527344h.003907v.003906h-.003907zm0 0"/><path d="m2.476562 2.53125v-.003906l.003907.003906zm.003907 0-.003907-.003906v.003906zm0 0"/><path d="m2.480469 2.53125h-.003907v-.003906zm0 0"/><path d="m2.476562 2.53125v-.003906.003906l.003907-.003906zm0 0"/><path d="m2.476562 2.527344h.003907v.003906h-.003907zm0 0"/><path d="m2.480469 2.527344v.003906h-.003907zm0 0"/><path d="m2.476562 2.527344h.003907v.003906h-.003907zm0 0"/><path d="m2.476562 2.53125v-.003906l.003907.003906zm.003907 0-.003907-.003906v.003906zm0 0"/><path d="m2.480469 2.53125h-.003907v-.003906zm0 0"/><path d="m2.476562 2.53125v-.003906.003906l.003907-.003906zm0 0"/><path d="m2.476562 2.527344h.003907v.003906h-.003907zm0 0"/><path d="m2.480469 2.527344v.003906h-.003907zm0 0"/><path d="m2.476562 2.527344h.003907v.003906h-.003907zm0 0"/><path d="m2.476562 2.53125v-.003906l.003907.003906zm.003907 0-.003907-.003906v.003906zm0 0"/><path d="m2.480469 2.53125h-.003907v-.003906zm0 0"/><path d="m2.476562 2.53125v-.003906.003906l.003907-.003906zm0 0"/><path d="m2.476562 2.527344h.003907v.003906h-.003907zm0 0"/><g fill-rule="evenodd"><path d="m32.359375 12.980469-14.707031.015625c-.675782 0-1.4375.769531-1.4375 1.300781l-.011719 14.835937h17.597656l.003907-14.785156c0-.515625-.796876-1.367187-1.445313-1.367187zm-13.707031 1.957031 12.75.023438v12.28125h-12.75zm0 0"/><path d="m18.652344 14.9375v12.304688h12.75v-12.28125zm0 0" fill="#ec7c25"/><path d="m15.199219 29.5625.007812 1.070312 19.585938-.007812.007812-1.058594zm0 0"/><path d="m16.449219 31.058594h2.011719l.246093.367187.007813 5.167969-.378906.367188-1.816407.019531-.3125-.3125.015625-5.355469zm0 0"/><path d="m19.386719 31.09375-.230469.253906-.015625 5.355469.3125.316406 1.816406-.023437.378907-.367188-.003907-1.691406.210938-.21875 1.429687-.007812.003906.066406.199219-.003906c.007813.144531.800781.875 1.535157.875v-.007813c.730468 0 1.523437-.726563 1.527343-.867187l.203125.003906.003906-.070313 1.433594.007813.195313.207031-.003907 1.78125.3125.316406 1.816407-.023437.378906-.367188-.007813-5.167968-.246093-.367188h-2.011719l-.226562.253906-.003907 1.691406-.289062.296876-1.351563-.003907.003906-.070312h-.21875c0-.207031-.785156-.859375-1.519531-.859375-.730469.003906-1.515625.65625-1.515625.863281h-.21875v.070313l-1.347656.003906-.296875-.304688v-1.574218l-.242187-.367188zm0 0"/><path d="m31.539062 31.050781h2.011719l.242188.371094.007812 5.164063-.378906.367187-1.816406.023437-.308594-.3125.011719-5.355468zm0 0"/></g></svg>