<svg height="50pt" viewBox="0 0 50 50" width="50pt" xmlns="http://www.w3.org/2000/svg"><path d="m3.171875.0234375c-3.1523438 0-3.1484375 3.1406245-3.1484375 3.1406245v43.671876s-.0039063 3.140624 3.1484375 3.140624h43.65625c3.152344 0 3.148437-3.140624 3.148437-3.140624v-43.671876s.003907-3.1406245-3.148437-3.1406245zm0 0" fill="#fff"/><path d="m3.105469.847656c-2.257813-.003906-2.25 2.25-2.25 2.25v43.804688s-.007813 2.253906 2.25 2.25h43.789062c2.257813.003906 2.25-2.25 2.25-2.25v-43.804688s.007813-2.253906-2.25-2.25zm0 1.25h43.789062s.996094.039063 1 1v43.804688c-.003906.960937-1 1-1 1h-43.789062s-.996094-.039063-1-1v-43.804688c.003906-.960937 1-1 1-1zm0 0"/><path d="m3.171875 0c-1.585937 0-2.382813.792969-2.777344 1.582031-.39843725.792969-.394531 1.582031-.394531 1.582031v43.671876s-.00390625.789062.394531 1.582031c.394531.789062 1.191407 1.582031 2.777344 1.582031h43.65625c1.585937 0 2.382813-.792969 2.777344-1.582031.398437-.792969.394531-1.582031.394531-1.582031v-43.671876s.003906-.789062-.394531-1.582031c-.394531-.789062-1.191407-1.582031-2.777344-1.582031zm0 .0234375h43.65625c3.152344 0 3.148437 3.1406245 3.148437 3.1406245v43.671876s.003907 3.140624-3.148437 3.140624h-43.65625c-3.1523438 0-3.1484375-3.140624-3.1484375-3.140624v-43.671876s-.0039063-3.1406245 3.1484375-3.1406245zm0 0"/><path d="m32.074219 44.910156v-7.007812h4.507812v1h-3.441406v2.003906h2.941406v.9375h-2.941406v2.066406h3.441406v1zm-6.878907 0v-7.007812h1l3.191407 5.003906v-5.003906h1.0625v7.007812h-1l-3.191407-5.003906v5.003906zm-5.316406-2.441406c0 .796875.640625 1.441406 1.4375 1.441406s1.4375-.644531 1.4375-1.441406v-2.125c0-.792969-.640625-1.441406-1.4375-1.441406s-1.4375.648437-1.4375 1.441406zm-1.066406 0v-2.125c0-1.382812 1.121094-2.503906 2.503906-2.503906 1.382813 0 2.503906 1.121094 2.503906 2.503906v2.125c0 1.382812-1.121093 2.503906-2.503906 2.503906-1.382812 0-2.503906-1.121094-2.503906-2.503906zm-5.503906 2.441406v-.875l3.191406-5.195312h-3.066406v-.9375h4.378906v.8125l-3.191406 5.195312h3.191406v1"/><path d="m39.960938 20.015625c0 8.285156-6.714844 15-15 15-8.285157 0-15-6.714844-15-15s6.714843-15 15-15c8.285156 0 15 6.714844 15 15zm0 0" fill="#154889"/><path d="m10.960938 6.195312v.003907h-.003907zm0 0"/><path d="m10.957031 6.195312h.003907v.003907h-.003907zm0 0"/><path d="m10.957031 6.199219v-.003907l.003907.003907zm.003907 0-.003907-.003907v.003907zm0 0"/><path d="m10.960938 6.199219h-.003907v-.003907zm0 0"/><path d="m10.957031 6.199219v-.003907.003907l.003907-.003907zm0 0"/><path d="m10.957031 6.195312h.003907v.003907h-.003907zm0 0"/><path d="m10.960938 6.195312v.003907h-.003907zm0 0"/><path d="m10.957031 6.195312h.003907v.003907h-.003907zm0 0"/><path d="m10.957031 6.199219v-.003907l.003907.003907zm.003907 0-.003907-.003907v.003907zm0 0"/><path d="m10.960938 6.199219h-.003907v-.003907zm0 0"/><path d="m10.957031 6.199219v-.003907.003907l.003907-.003907zm0 0"/><path d="m10.957031 6.195312h.003907v.003907h-.003907zm0 0"/><path d="m10.960938 6.195312v.003907h-.003907zm0 0"/><path d="m10.957031 6.195312h.003907v.003907h-.003907zm0 0"/><path d="m10.957031 6.199219v-.003907l.003907.003907zm.003907 0-.003907-.003907v.003907zm0 0"/><path d="m10.960938 6.199219h-.003907v-.003907zm0 0"/><path d="m10.957031 6.199219v-.003907.003907l.003907-.003907zm0 0"/><path d="m10.957031 6.195312h.003907v.003907h-.003907zm0 0"/><path d="m30.507812 19.335938c0-.875-.707031-1.585938-1.585937-1.585938-.875 0-1.582031.710938-1.582031 1.585938s.707031 1.585937 1.582031 1.585937c.878906 0 1.585937-.710937 1.585937-1.585937zm-7.699218-9.285157c0 1-.8125 1.8125-1.8125 1.8125s-1.8125-.8125-1.8125-1.8125.8125-1.8125 1.8125-1.8125 1.8125.8125 1.8125 1.8125zm-3.625 9.242188.320312-.3125c.085938-.085938.132813-.203125.132813-.324219v-3.398438c0-.125-.097657-.222656-.226563-.222656-.121094 0-.226562.097656-.226562.222656zm-2.714844 5.25c.261719-1.734375 1.011719-3.355469 2.167969-4.675781-.519531-.582032-.808594-1.335938-.808594-2.117188v-1.8125c0-1.75 1.417969-3.167969 3.167969-3.167969 1.183594 0 2.265625.65625 2.8125 1.707031l1.882812 3.613282c.273438.523437.175782 1.164062-.238281 1.582031l1.867187 1.570313c.636719.535156 1.492188.714843 2.289063.488281l.335937-.09375c.34375-.101563.714844.015625.945313.292969l2.304687 2.800781c.390626.476562.332032 1.179687-.136718 1.578125l-2.097656-2.445313.679687 3.398438-.867187.128906.519531 3.292969c.050781.308594-.160157.597656-.46875.648437-.300781.046875-.585938-.152343-.644531-.449219l-.644532-3.308593-.730468.109375-.335938 3.59375c-.027344.3125-.304688.539062-.617188.511718-.300781-.027343-.53125-.292968-.511718-.597656l.453125-7.78125-3.226563-3.046875c-.300781-.421875-.277344-.992187.054688-1.386719l-2.007813-3.859374c-.035156-.066407-.117187-.09375-.183593-.058594-.046876.023437-.074219.070312-.074219.121094v3.476562c0 .121094.050781.238281.136719.324219l.402343.394531c1.414063 1.390625 2.335938 3.207031 2.632813 5.167969zm4.753906.453125h1.359375v6.117187c0 .375-.304687.679688-.679687.679688s-.679688-.304688-.679688-.679688zm-1.8125 0h1.359375v4.757812c0 .375-.304687.679688-.675781.679688-.378906 0-.683594-.304688-.683594-.679688" fill="#fff"/></svg>