<svg height="50pt" viewBox="0 0 50 50" width="50pt" xmlns="http://www.w3.org/2000/svg"><path d="m3.375 49.949219c-1.835938 0-3.3242188-1.488281-3.3242188-3.328125v-43.246094c0-1.835938 1.4882808-3.3242188 3.3242188-3.3242188h43.25c1.835938 0 3.324219 1.4882808 3.324219 3.3242188v43.246094c0 1.839844-1.488281 3.328125-3.324219 3.328125" fill="#fff"/><path d="m3.375 0c-1.859375 0-3.375 1.515625-3.375 3.375v43.246094c0 1.863281 1.515625 3.378906 3.375 3.378906h43.25c1.859375 0 3.375-1.515625 3.375-3.378906v-43.246094c0-1.859375-1.515625-3.375-3.375-3.375zm0 .0507812h43.25c1.835938 0 3.324219 1.4882808 3.324219 3.3242188v43.246094c0 1.839844-1.488281 3.328125-3.324219 3.328125h-43.25c-1.835938 0-3.3242188-1.488281-3.3242188-3.328125v-43.246094c0-1.835938 1.4882808-3.3242188 3.3242188-3.3242188zm0 0"/><path d="m3.375.882812c-1.375 0-2.492188 1.117188-2.492188 2.492188v43.246094c0 1.378906 1.117188 2.496094 2.492188 2.496094h43.25c1.375 0 2.492188-1.117188 2.492188-2.496094v-43.246094c0-1.375-1.117188-2.492188-2.492188-2.492188zm0 1.246094h43.25c.6875 0 1.246094.558594 1.246094 1.246094v43.246094c0 .691406-.558594 1.25-1.246094 1.25h-43.25c-.6875 0-1.246094-.558594-1.246094-1.25v-43.246094c0-.6875.558594-1.246094 1.246094-1.246094zm0 0"/><path d="m25 4.429688c-8.746094 0-15.832031 7.089843-15.832031 15.832031 0 8.746093 7.085937 15.835937 15.832031 15.835937s15.835938-7.089844 15.835938-15.835937c0-8.742188-7.089844-15.832031-15.835938-15.832031zm0 4.167968c6.445312 0 11.667969 5.222656 11.667969 11.664063 0 6.445312-5.222657 11.667969-11.667969 11.667969-6.441406 0-11.667969-5.222657-11.667969-11.667969 0-6.441407 5.226563-11.664063 11.667969-11.664063zm0 0" fill="#c1121c"/><path d="m16.035156 23.667969h1.972656c.269532 1.105469 1.386719 1.789062 2.496094 1.519531.925782-.222656 1.578125-1.054688 1.578125-2.007812v-.242188c0-1.140625-.921875-2.066406-2.066406-2.066406h-.847656v-1.703125h.847656c1.074219 0 1.945313-.867188 1.945313-1.945313 0-1.070312-.871094-1.941406-1.945313-1.941406-.929687 0-1.734375.664062-1.90625 1.578125h-1.964844c.203125-2.136719 2.097657-3.707031 4.238281-3.507813 1.996094.191407 3.523438 1.867188 3.523438 3.871094 0 1.109375-.539062 2.148438-1.441406 2.785156.976562.652344 1.5625 1.753907 1.5625 2.929688v.242188c0 2.214843-1.792969 4.011718-4.011719 4.011718-2.023437 0-3.734375-1.511718-3.980469-3.523437"/><path d="m27.914062 23.300781c0 1.074219.871094 1.945313 1.945313 1.945313s1.945313-.871094 1.945313-1.945313v-6.078125c0-1.070312-.871094-1.941406-1.945313-1.941406s-1.945313.871094-1.945313 1.941406zm-1.941406 0v-6.078125c0-2.144531 1.742188-3.886718 3.886719-3.886718 2.148437 0 3.890625 1.742187 3.890625 3.886718v6.078125c0 2.148438-1.742188 3.890625-3.890625 3.890625-2.144531 0-3.886719-1.742187-3.886719-3.890625"/><path d="m32.125 45.570312v-7h4.5v.996094h-3.4375v2.003906h2.9375v.9375h-2.9375v2.0625h3.4375v1zm-6.875 0v-7h1l3.1875 4.996094v-4.996094h1.0625v7h-1l-3.1875-5v5zm-5.3125-2.4375c0 .792969.644531 1.4375 1.4375 1.4375s1.4375-.644531 1.4375-1.4375v-2.128906c0-.792968-.644531-1.4375-1.4375-1.4375s-1.4375.644532-1.4375 1.4375zm-1.0625 0v-2.128906c0-1.378906 1.121094-2.5 2.5-2.5s2.5 1.121094 2.5 2.5v2.128906c0 1.378907-1.121094 2.496094-2.5 2.496094s-2.5-1.117187-2.5-2.496094zm-5.5 2.4375v-.875l3.1875-5.1875h-3.0625v-.9375h4.375v.808594l-3.1875 5.191406h3.1875v1"/></svg>