<svg height="50pt" viewBox="0 0 50 50" width="50pt" xmlns="http://www.w3.org/2000/svg"><path d="m3.171875.0234375c-3.1523438 0-3.1484375 3.1406245-3.1484375 3.1406245v43.671876s-.0039063 3.140624 3.1484375 3.140624h43.65625c3.152344 0 3.148437-3.140624 3.148437-3.140624v-43.671876s.003907-3.1406245-3.148437-3.1406245zm0 0" fill="#fff"/><path d="m3.105469.847656c-2.257813-.003906-2.25 2.25-2.25 2.25v43.804688s-.007813 2.253906 2.25 2.25h43.789062c2.257813.003906 2.25-2.25 2.25-2.25v-43.804688s.007813-2.253906-2.25-2.25zm0 1.25h43.789062s.996094.039063 1 1v43.804688c-.003906.960937-1 1-1 1h-43.789062s-.996094-.039063-1-1v-43.804688c.003906-.960937 1-1 1-1zm0 0"/><path d="m3.171875 0c-1.585937 0-2.382813.792969-2.777344 1.582031-.39843725.792969-.394531 1.582031-.394531 1.582031v43.671876s-.00390625.789062.394531 1.582031c.394531.789062 1.191407 1.582031 2.777344 1.582031h43.65625c1.585937 0 2.382813-.792969 2.777344-1.582031.398437-.792969.394531-1.582031.394531-1.582031v-43.671876s.003906-.789062-.394531-1.582031c-.394531-.789062-1.191407-1.582031-2.777344-1.582031zm0 .0234375h43.65625c3.152344 0 3.148437 3.1406245 3.148437 3.1406245v43.671876s.003907 3.140624-3.148437 3.140624h-43.65625c-3.1523438 0-3.1484375-3.140624-3.1484375-3.140624v-43.671876s-.0039063-3.1406245 3.1484375-3.1406245zm0 0"/><path d="m4.324219 44.90625v-4.660156h2.996093v.667968h-2.289062v1.371094h1.953125v.625h-1.953125v1.996094zm5.910156 0h-.667969v-.34375l-.019531.035156-.046875.066406-.050781.058594-.058594.046875-.066406.042969-.078125.042969-.066406.023437-.082032.019532-.074218.007812h-.519532l-.125-.019531-.125-.023438-.117187-.050781-.105469-.058594-.101562-.074218-.09375-.082032-.074219-.101562-.066407-.109375-.058593-.109375-.03125-.113282-.027344-.128906-.007813-.125.007813-.125.027344-.125.03125-.117187.058593-.117188.066407-.105469.074219-.09375.09375-.082031.101562-.074219.105469-.070312.117187-.039062.125-.035157.125-.015625h1.0625v-.351562l-.007812-.050782-.011719-.039062-.015625-.042969-.015625-.035156-.027344-.039063-.023437-.035156-.035156-.023437-.03125-.027344-.042969-.023437-.039063-.015626-.042968-.007812-.015626-.007812-.09375-.019532-.175781-.007812h-.175781l-.183594.007812-.082031.019532-.023437.007812-.042969.007812-.042969.015626-.03125.023437-.042969.027344-.023437.03125-.035156.035156-.023438.03125-.011719.019531-.523437-.417968.03125-.042969.085937-.089844.082031-.085937.101563-.066407.101563-.058593.105468-.050782.175782-.046875.117187-.019531.234375-.015625h.234375l.242187.015625.117188.019531.054688.015625.117187.03125.109375.050782.109375.058593.089844.078125.09375.082032.074219.089843.066406.101563.058594.109375.042968.109375.023438.125.019531.117187zm-.667969-1.453125v.441406l-.007812.050781-.011719.050782-.015625.039062-.023438.050782-.035156.042968-.03125.035156-.035156.03125-.042969.027344-.039062.023438-.101563.03125-.050781.007812h-.589844l-.050781-.007812-.101562-.03125-.042969-.023438-.082031-.070312-.035157-.039063-.023437-.042969-.023438-.050781-.019531-.050781-.007813-.050781v-.097657l.007813-.058593.019531-.050781.023438-.042969.023437-.046875.078125-.078125.039063-.023438.042969-.027343.050781-.023438.101562-.015625zm1.660156 1.453125v-4.660156h.667969v1.710937l.042969-.046875.097656-.09375.101563-.082031.117187-.066406.117188-.058594.125-.035156.132812-.023438.125-.011719h.132813l.132812.027344.128907.03125.113281.050782.117187.066406.109375.085937.09375.082031.082031.101563.074219.109375.058594.125.050781.113281.023438.136719.019531.125.007813.066406v2.246094h-.667969v-2.078125l-.015625-.085937-.019532-.082032-.03125-.074218-.042968-.078126-.050782-.066406-.050781-.058594-.066406-.050781-.074219-.046875-.074218-.035156-.074219-.023438-.085938-.015624-.082031-.011719-.082031.011719-.085938.015624-.074219.023438-.074218.035156-.074219.046875-.070313.050781-.046874.058594-.050782.066406-.042968.078126-.03125.074218-.019532.082032-.015625.085937v2.078125zm3.664063 0v-3.324219h.667969v.375l.042968-.046875.089844-.09375.09375-.074218.109375-.066407.117188-.058593.113281-.035157.125-.03125.128906-.011719h.121094l.128906.019532.125.023437.117188.042969.113281.058594.101563.066406.050781.042969-.46875.582031-.03125-.03125-.066407-.042969-.070312-.042969-.074219-.023437-.082031-.015625-.074219-.007812h-.085937l-.082032.007812-.074218.015625-.074219.023437-.078125.042969-.058594.042969-.066406.058594-.050781.058594-.046875.066406-.035156.066406-.023438.074219-.027344.082031-.007812.078125v2.078125zm2.746094 0v-3.324219h.667969v.375l.042968-.046875.089844-.09375.09375-.074218.109375-.066407.117187-.058593.113282-.035157.128906-.03125.125-.011719h.121094l.128906.019532.125.023437.117188.042969.117187.058594.097656.066406.050781.042969-.46875.582031-.03125-.03125-.066406-.042969-.070312-.042969-.074219-.023437-.082031-.015625-.074219-.007812h-.085937l-.082032.007812-.074218.015625-.074219.023437-.078125.042969-.058594.042969-.066406.058594-.046875.058594-.050781.066406-.035157.066406-.023437.074219-.027344.082031-.007812.078125v2.078125zm5.242187 0h-.660156v-.34375l-.023438.035156-.042968.066406-.058594.058594-.058594.046875-.132812.085938-.074219.023437-.074219.019532-.085937.007812h-.515625l-.125-.019531-.117188-.023438-.117187-.050781-.109375-.058594-.097656-.074218-.09375-.082032-.082032-.101562-.070312-.109375-.046875-.109375-.042969-.113282-.023438-.128906-.007812-.125.007812-.125.023438-.125.042969-.117187.046875-.117188.070312-.105469.082032-.09375.09375-.082031.097656-.074219.109375-.070312.117187-.039062.117188-.035157.125-.015625h1.066406v-.335937l-.007812-.015625v-.050782l-.007813-.039062-.015625-.042969-.027344-.035156-.015625-.039063-.03125-.035156-.070312-.050781-.03125-.023437-.042969-.015626-.039062-.007812-.027344-.007812-.082032-.019532-.183593-.007812h-.175781l-.175782.007812-.089844.019532-.019531.007812-.039062.007812-.042969.015626-.042969.023437-.03125.027344-.035156.03125-.023437.035156-.027344.03125-.007813.019531-.523437-.417968.03125-.042969.074218-.089844.09375-.085937.089844-.066407.109375-.058593.109375-.050782.109375-.03125.058594-.015625.117187-.019531.238282-.015625h.234375l.234375.015625.117187.019531.175781.046875.109376.050782.105468.058593.101563.078125.085937.082032.082032.089843.066406.101563.050781.109375.039063.109375.027343.125.015625.117187zm-.660156-1.453125v.417969l-.007812.023437v.050781l-.015626.050782-.015624.039062-.027344.050782-.023438.042968-.035156.035156-.039062.03125-.042969.027344-.042969.023438-.050781.015625-.039063.015625-.050781.007812h-.59375l-.050781-.007812-.058594-.015625-.039062-.015625-.050782-.023438-.042968-.035156-.03125-.035156-.035157-.039063-.03125-.042969-.019531-.050781-.03125-.101562v-.097657l.015625-.058593.015625-.050781.019531-.042969.03125-.046875.035157-.035156.03125-.042969.042968-.023438.050782-.027343.039062-.023438.058594-.007812.050781-.007813zm4.234375 1.453125h-.667969v-.375l-.042968.046875-.089844.09375-.109375.082031-.109375.066406-.125.058594-.125.035156-.125.023438-.125.007812h-.132813l-.125-.023437-.125-.035156-.125-.046875-.117187-.070313-.203125-.164062-.082031-.101563-.074219-.109375-.058594-.125-.042969-.117187-.03125-.132813-.019531-.125v-1.300781l.019531-.125.03125-.136719.042969-.113281.058594-.125.074219-.109375.082031-.101563.101562-.082031.101563-.085937.117187-.066406.125-.050782.125-.03125.125-.027344h.132813l.125.011719.125.023438.125.035156.125.058594.109375.066406.109375.082031.089844.09375.042968.046875v-1.710937h.667969zm-.667969-1.285156v.039062l-.007812.085938-.027344.082031-.023438.074219-.042968.074218-.050782.070313-.058593.058594-.066407.046875-.066406.050781-.074218.035156-.082032.023438-.085937.015625-.082031.007812-.082032-.007812-.070312-.015625-.082032-.023438-.074218-.035156-.066406-.050781-.066407-.046875-.058593-.058594-.050782-.070313-.042968-.074218-.023438-.074219-.027344-.082031-.007812-.085938v-.832031l.007812-.085937.027344-.082032.023438-.074218.042968-.078126.050782-.066406.058593-.058594.066407-.050781.066406-.046875.074218-.035156.082032-.023438.070312-.015624.082032-.011719.082031.011719.085937.015624.082032.023438.074218.035156.066406.046875.066407.050781.058593.058594.050782.066406.042968.078126.023438.074218.027344.082032.007812.085937zm1.5.757812.085938.074219.183594.152344.199218.125.21875.097656.214844.078125.234375.050781.234375.015625h.234375l.234375-.035156.234375-.058594.105469-.03125.058594-.027344.101562-.050781.097656-.066406.09375-.082031.074219-.082032.066406-.101562.058594-.101562.042969-.105469.035156-.117188.015625-.117187.007813-.117188-.015626-.117187-.027343-.117188-.03125-.109375-.050781-.109375-.066407-.097656-.074219-.09375-.085937-.082031-.089844-.066406-.101562-.066407-.109375-.042969-.117188-.03125-.105468-.027343-.070313-.007813-.699219-.042968h-.023437l-.035157-.007813-.042968-.007813-.03125-.015624-.035156-.027344-.03125-.023438-.027344-.027344-.023438-.03125-.027344-.035156-.015624-.03125-.007813-.035156-.007813-.039062-.007812-.042969.007812-.035157v-.039062l.007813-.042969.015625-.035156.027344-.03125.015625-.035156.035156-.023438.023437-.023437.03125-.027344.035157-.015625.042969-.015625.015624-.007812.074219-.011719.160157-.023438h.15625l.160156.015625.160156.035156.148438.050782.140624.074218.136719.082032.066407.050781.417968-.527344-.101562-.066406-.191406-.125-.21875-.097656-.214844-.085938-.234375-.050781-.234375-.023438-.234375.007813-.234375.023437-.117188.027344-.058594.015625-.105468.042969-.101563.050781-.101562.066407-.089844.074218-.085937.09375-.066407.089844-.058593.109375-.039063.109375-.035156.105469-.015625.117187v.125l.007812.117188.023438.109375.035156.117187.050781.109375.066407.097657.074218.09375.085938.082031.089844.066406.101562.066406.109375.042969.113281.035156.117188.023438.058594.007812.710937.042969h.015625l.035156.007813.039063.007812.035156.015625.035156.027344.03125.023437.027344.027344.046875.066406.019531.03125.007813.035156.015625.082032v.035156l-.007813.039062-.007812.035157-.019532.042969-.015624.03125-.023438.035156-.027344.023437-.03125.027344-.035156.023437-.03125.015626-.019531.011718-.074219.023438-.15625.039062-.160156.019532-.160156.007812-.15625-.015625-.152344-.035156-.15625-.050781-.144532-.074219-.132812-.082031-.125-.09375-.058594-.058594zm4.910156.527344h-.460937l-.089844-.007812-.09375-.027344-.082031-.03125-.074219-.042969-.074219-.050781-.066406-.058594-.070312-.066406-.046875-.074219-.042969-.085937-.035156-.082032-.015625-.082031-.015625-.09375v-2.085937h-.335938v-.535157h.335938v-1h.667968v1h.5v.535157h-.5v1.996093l.015626.050781.015624.023438.007813.015625.019531.019531.023438.015625.015625.015625.027343.007813.023438.007812.027344.007813.023437.007812h.300781zm.917969 0v-3.324219h.660157v.375l.042968-.046875.089844-.09375.101562-.074218.109376-.066407.105468-.058593.125-.035157.117188-.03125.125-.011719h.132812l.128906.019532.113282.023437.117187.042969.117188.058594.109375.066406.050781.042969-.476563.582031-.03125-.03125-.070312-.042969-.066406-.042969-.074219-.023437-.074219-.015625-.082031-.007812h-.085937l-.074219.007812-.082031.015625-.078126.023437-.132812.085938-.117188.117188-.042968.066406-.039063.066406-.027343.074219-.015626.082031-.015624.078125v2.078125zm5.242188 0h-.667969v-.34375l-.015625.035156-.050781.066406-.050782.058594-.066406.046875-.058594.042969-.074218.042969-.074219.023437-.074219.019532-.078125.007812h-.515625l-.125-.019531-.125-.023438-.117187-.050781-.109375-.058594-.101563-.074218-.089843-.082032-.085938-.101562-.066406-.109375-.050782-.109375-.039062-.113282-.019531-.128906-.007813-.125.007813-.125.019531-.125.039062-.117187.050782-.117188.066406-.105469.085938-.09375.089843-.082031.101563-.074219.109375-.070312.117187-.039062.125-.035157.125-.015625h1.058594v-.351562l-.007812-.050782-.007813-.039062-.015625-.042969-.019531-.035156-.023438-.039063-.023437-.035156-.070313-.050781-.039062-.023437-.042969-.015626-.042969-.007812-.015625-.007812-.089844-.019532-.175781-.007812h-.183593l-.175782.007812-.085937.019532-.023438.007812-.042969.007812-.039062.015626-.035156.023437-.042969.027344-.023437.03125-.03125.035156-.027344.03125-.007813.019531-.527343-.417968.035156-.042969.074218-.089844.09375-.085937.097657-.066407.101562-.058593.109375-.050782.117188-.03125.054687-.015625.117188-.019531.234375-.015625h.234375l.242187.015625.117188.019531.175781.046875.109375.050782.097656.058593.101563.078125.089843.082032.078126.089843.066406.101563.050781.109375.039063.109375.035156.125.007812.117187.007813.054688zm-.667969-1.453125v.441406l-.015625.101563-.015625.039062-.027344.050782-.03125.042968-.066406.066406-.042969.027344-.042969.023438-.097656.03125-.050781.007812h-.59375l-.050781-.007812-.101563-.03125-.039062-.023438-.050781-.035156-.03125-.035156-.035157-.039063-.027343-.042969-.023438-.050781-.015625-.050781-.007813-.050781-.011718-.046875.011718-.050782.007813-.058593.015625-.050781.023438-.042969.027343-.046875.035157-.035156.03125-.042969.050781-.023438.039062-.027343.050781-.023438.101563-.015625zm1.660156 1.453125v-3.65625l.011719-.058594.007813-.117187.023437-.109375.042969-.109375.050781-.097657.058594-.09375.066406-.089843.082031-.078125.089844-.074219.09375-.058594.109375-.039062.050781-.027344.105469-.035156.210937-.039063.222657-.023437h.21875l.21875.023437.214843.039063.109376.035156.050781.027344.097656.039062.101563.058594.09375.074219.074218.078125.074219.089843.058594.09375.050781.097657.042969.109375.023437.109375.007813.117187v.214844l-.007813.085938-.015625.074218-.027343.074219-.03125.066406-.042969.066407-.050781.066406-.058594.058594-.058594.042968-.066406.050782-.066406.03125-.042969.011718.042969.015625.066406.03125.066406.042969.058594.050781.058594.058594.050781.058594.042969.066406.03125.074219.027343.074218.015625.078126.007813.074218v1.386719l-.007813.105469-.066406.21875-.050781.089844-.066407.09375-.074218.082031-.085938.074219-.089844.070312-.09375.046875-.214843.070313-.109375.007812h-.46875v-.621094h.351562l.042969-.007812.039063-.007813.070312-.03125.03125-.027343.035156-.023438.023438-.035156.023437-.03125.035157-.066406.015624-.085938v-1.285156l-.015624-.082032-.035157-.066406-.023437-.035156-.023438-.03125-.035156-.027344-.03125-.023437-.035156-.015625-.035156-.019532-.039063-.007812-.042969-.007812h-.433594v-.617188h.417969l.015625-.007812h.042969l.039063-.007813.070312-.035156.03125-.023438.035156-.027343.023438-.03125.023437-.035157.019531-.03125.015626-.035156.015624-.082031v-.210938l-.015624-.066406-.015626-.039062-.007812-.035157-.027344-.035156-.023437-.023437-.027344-.023438-.03125-.027344-.027344-.015625-.058593-.023437-.066407-.027344-.148437-.023438-.140625-.019531h-.152344l-.152344.019531-.140625.023438-.074218.027344-.015626.007812-.035156.015625-.03125.015625-.027344.027344-.03125.023438-.019531.023437-.023437.035156-.015625.035157-.007813.039062-.011718.035156-.007813.03125v3.683594zm6.328125-1.414062h-2.078125v.128906l.007813.082031.027343.082031.023438.078125.042969.074219.039062.066406.058594.066406.058594.058594.078125.050782.066406.042968.039062.015625.050782.015625.101562.023438.109375.019531.097657.007813.109374-.007813.101563-.027344.097656-.023437.101563-.042969.089844-.058594.085937-.058593.109375-.109376.507812.4375-.066406.066407-.125.117187-.152344.105469-.148437.09375-.167969.066406-.175781.058594-.175781.035156-.183594.007813-.175781-.007813-.183594-.027343-.164063-.050782-.09375-.023437-.074218-.035157-.140625-.082031-.136719-.09375-.113281-.105469-.109375-.125-.09375-.136718-.074219-.148438-.058594-.152344-.035156-.15625-.023437-.160156v-.832031l.023437-.175781.042969-.167969.066406-.160156.085938-.148438.097656-.140625.117187-.125.132813-.109375.144531-.09375.15625-.074219.167969-.050781.167968-.03125.175782-.011719.164062.011719.167969.03125.167969.050781.15625.074219.144531.09375.132813.109375.117187.125.101563.140625.082031.148438.066406.160156.042969.167969.023437.175781zm-2.078125-.582032v-.042968l.007813-.089844.027343-.085938.03125-.082031.042969-.074219.050781-.074218.066407-.070313.066406-.046875.074219-.050781.074218-.042969.085938-.023438.089844-.015624.09375-.011719.082031.011719.089844.015624.085937.023438.074219.042969.074219.050781.078125.046875.058593.070313.046876.074218.042968.074219.035156.082031.023438.085938.007812.089844v.042968zm0 0" fill-rule="evenodd"/><path d="m40.625 21.148438c0 8.628906-6.996094 15.625-15.625 15.625s-15.625-6.996094-15.625-15.625c0-8.628907 6.996094-15.625 15.625-15.625s15.625 6.996093 15.625 15.625zm0 0" fill="#154889"/><path d="m23.078125 13.476562h-1.683594l-.21875.027344-.214843.046875-.210938.078125-.199219.097656-.183593.117188-.175782.144531-.148437.164063-.136719.175781-.105469.191406-.09375.203125-.03125.105469-1.402343 4.5-.292969-.050781-.59375-.039063-.59375.023438-.582031.109375-.578126.167968-.542968.25-.507813.308594-.46875.367188-.414062.425781-.359375.464844-.300782.519531-.234374.542969-.167969.574219-.089844.585937-.027344.601563.058594.589843.125.578125.203125.558594.265625.535156.324219.492188.394531.449218.441406.402344.484375.34375.523438.273438.5625.207031.574218.144531.59375.066406h.601563l.582031-.082031.578125-.152343.558594-.226563.515625-.28125.484375-.351563.4375-.410156.375-.457031.316406-.503906.257813-.539063.183594-.570312.117187-.574219.042969-.59375-.027344-.59375-.105469-.582031-.175781-.570313-.25-.539062-.308594-.511719-.371094-.464844-.433593-.417968-.464844-.359376-.519531-.300781-.273438-.125.382813-1.226562 5.667969 6.292969.035156.03125.074218.070312.082032.066406.082031.050782.09375.03125.101563.035156.097656.023437.101562.007813h2.0625l.066406.285156.191407.558594.257812.535156.328125.5.375.457031.433594.402344.484375.351563.515625.285156.550781.214844.578125.152343.59375.082031h.589844l.585938-.066406.574218-.144531.558594-.207031.527344-.273438.484375-.34375.441406-.402344.386719-.441406.332031-.5.265625-.527344.203125-.558593.125-.574219.058594-.585938-.019531-.601562-.089844-.582031-.167969-.570313-.234375-.550781-.289062-.507813-.359376-.476562-.417968-.425781-.460938-.367188-.507812-.316406-.542969-.242187-.558594-.175782-.585937-.109375-.601563-.03125-.582031.039063-.585938.109375-.28125.082031-1.394531-3.113281.359375-.957031h1.074219v-.960938h-4.121094l-.027343.007812-.023438.007813-.035156.015625-.015625.019531-.023438.015625-.019531.023438-.015625.027344-.015625.023437-.007812.027344-.011719.023437v.09375l.011719.023438.007812.023437.03125.050781.019531.027344.046875.03125.027344.015625.023438.011719h.015624l2.03125.492188-.359374.957031h-8.574219l.382812-1.242188.027344-.058593.042969-.101563.058594-.089844.066406-.09375.074218-.074219.082032-.074218.09375-.058594.097656-.050781.109375-.042969.109375-.023438.109375-.007812h1.625zm-3.171875 3.839844 6.003906 6.671875 2.503906-6.671875zm-1.917969 2.9375-.234375-.03125-.46875-.023437-.472656.03125-.460938.09375-.449218.148437-.425782.199219-.402343.25-.367188.300781-.324219.34375-.285156.375-.234375.417969-.175781.433594-.125.460937-.066406.464844-.015625.46875.050781.476562.109375.449219.15625.441407.21875.417968.257813.394532.308593.355468.359375.320313.382813.265625.417969.226562.441406.167969.460937.105469.46875.058594.472657-.007813.46875-.058594.460937-.125.441406-.167969.40625-.222656.386719-.285156.351562-.316406.296876-.359375.261718-.402344.207032-.417969.160156-.441406.089844-.457031.042968-.476563-.015625-.46875-.078125-.464844-.132812-.460937-.183594-.433594-.242188-.402343-.28125-.375-.335937-.339844-.367187-.292969-.398438-.25-.21875-.101563-1.128906 3.640626-.007813.023437-.023437.058594-.035156.050781-.03125.050781-.050782.039063-.042968.035156-.058594.035156-.046875.015625-.058594.015625-.058594.007813h-.125l-.058593-.015625-.058594-.023438-.050782-.027344-.050781-.03125-.042969-.042968-.039062-.050782-.035156-.050781-.023438-.050781-.035156-.113281v-.117188l.007812-.070312.007813-.023438zm8.929688 3.78125h.960937l.007813-.28125.058593-.558594.136719-.542968.191407-.527344.257812-.507812.308594-.46875.367187-.425782.410157-.382812.449218-.335938.242188-.140625-.992188-2.230469zm1.921875 0h3.339844l-1.480469-3.296875-.179688.117188-.351562.269531-.308594.308594-.285156.339844-.242188.367187-.191406.394531-.152344.417969-.097656.425781-.050781.441406zm.117187.960938.066407.21875.175781.433594.214843.410156.277344.382812.308594.34375.359375.308594.382813.257812.425781.207032.433593.160156.460938.097656.464844.050782.46875-.007813.460937-.066406.449219-.125.433594-.175781.410156-.222657.375-.277343.34375-.324219.300781-.351563.25-.394531.207031-.425781.152344-.433594.097656-.449219.042969-.46875-.015625-.464843-.078125-.46875-.125-.441407-.183593-.4375-.230469-.40625-.277344-.367187-.324219-.34375-.359375-.292969-.394531-.25-.425781-.199219-.441407-.148437-.457031-.09375-.46875-.03125-.46875.015625-.457031.082031-.226562.058594 1.769531 3.964843.007812.023438.015625.058594.019532.050781v.117187l-.007813.050782-.019531.058594-.023438.050781-.027344.050781-.03125.039062-.082031.085938-.050781.023438-.101562.050781-.050782.007812-.058594.007813zm0 0" fill="#fff" fill-rule="evenodd"/></svg>