<svg height="50pt" viewBox="0 0 50 50" width="50pt" xmlns="http://www.w3.org/2000/svg"><g fill-rule="evenodd"><path d="m42.652344 7.355469c3.246094 3.246093 5.269531 6.746093 6.457031 11.183593 1.191406 4.441407 1.191406 8.484376 0 12.921876-1.1875 4.4375-3.210937 7.941406-6.460937 11.191406-3.246094 3.246094-6.75 5.269531-11.1875 6.460937-4.4375 1.183594-8.484376 1.1875-12.921876-.003906-4.433593-1.1875-7.9375-3.210937-11.183593-6.457031-3.25-3.25-5.273438-6.753906-6.464844-11.191406-1.1875-4.4375-1.1875-8.484376 0-12.917969 1.191406-4.441407 3.214844-7.941407 6.460937-11.1875 3.25-3.25 6.753907-5.273438 11.1875-6.464844 4.4375-1.1875 8.484376-1.1875 12.921876 0 4.4375 1.191406 7.941406 3.214844 11.191406 6.464844zm-.03125.027343c-3.242188-3.242187-6.738282-5.261718-11.171875-6.453124-4.429688-1.183594-8.46875-1.1875-12.898438.003906-4.429687 1.1875-7.925781 3.207031-11.171875 6.449218-3.242187 3.242188-5.257812 6.738282-6.449218 11.167969-1.183594 4.429688-1.183594 8.46875.003906 12.898438 1.1875 4.433593 3.207031 7.929687 6.453125 11.171875 3.242187 3.242187 6.734375 5.261718 11.164062 6.449218 4.433594 1.1875 8.46875 1.1875 12.898438 0 4.433593-1.1875 7.925781-3.207031 11.171875-6.449218 3.242187-3.242188 5.261718-6.738282 6.449218-11.167969 1.1875-4.433594 1.1875-8.46875 0-12.902344-1.1875-4.429687-3.203124-7.925781-6.449218-11.167969zm0 0"/><path d="m7.378906 7.382812c3.246094-3.242187 6.742188-5.261718 11.171875-6.449218 4.429688-1.191406 8.46875-1.1875 12.898438-.003906 4.433593 1.191406 7.929687 3.210937 11.171875 6.453124 3.246094 3.242188 5.261718 6.738282 6.449218 11.167969 1.1875 4.433594 1.1875 8.46875 0 12.902344-1.1875 4.429687-3.207031 7.925781-6.449218 11.167969-3.246094 3.242187-6.738282 5.261718-11.167969 6.449218-4.433594 1.1875-8.46875 1.1875-12.902344 0-4.429687-1.1875-7.921875-3.207031-11.164062-6.449218-3.246094-3.242188-5.265625-6.738282-6.453125-11.171875-1.1875-4.429688-1.1875-8.46875 0-12.898438 1.1875-4.429687 3.203125-7.925781 6.445312-11.167969zm0 0" fill="#fff"/><path d="m8.207031 8.203125c3.089844-3.089844 6.421875-5.015625 10.644531-6.144531 4.226563-1.132813 8.074219-1.132813 12.296876-.003906 4.226562 1.132812 7.558593 3.058593 10.652343 6.152343 3.089844 3.089844 5.011719 6.421875 6.144531 10.644531 1.128907 4.226563 1.128907 8.074219 0 12.300782-1.132812 4.21875-3.054687 7.554687-6.144531 10.644531-3.09375 3.09375-6.425781 5.019531-10.652343 6.148437-4.222657 1.132813-8.070313 1.132813-12.296876 0-4.222656-1.132812-7.554687-3.054687-10.644531-6.144531-3.09375-3.09375-5.019531-6.429687-6.148437-10.652343-1.132813-4.222657-1.132813-8.074219 0-12.296876 1.128906-4.222656 3.054687-7.554687 6.148437-10.648437zm0 0" fill="#154889"/></g><path d="m237.037506 413.863246v-376.261767" fill="none" stroke="#fff" stroke-miterlimit="10" stroke-width="7.520522" transform="matrix(.110742 0 0 .110742 0 .000001)"/><path d="m21.011719 31.730469c-1.730469.515625-3.550781-.46875-4.066407-2.203125-.007812-.035156-.019531-.074219-.03125-.113282h3.371094c.226563 0 .40625-.179687.40625-.40625 0-.058593-.007812-.117187-.035156-.167968l-1.507812-3.375c1.730468-.515625 3.550781.472656 4.066406 2.203125.511718 1.730469-.472656 3.550781-2.203125 4.0625zm-2.609375-5.9375 1.253906 2.804687h-2.84375c0-1.148437.601562-2.214844 1.589844-2.804687zm-2.410156 2.804687h-.8125l2.039062-5.449218.847656 1.894531c-1.28125.726562-2.074218 2.082031-2.074218 3.554687zm-1.671876-.042968-5.117187-5.675782h7.246094zm-4.339843 1.390624c-.742188 1.648438-2.679688 2.375-4.328125 1.628907-1.644532-.742188-2.371094-2.679688-1.625-4.324219.617187-1.359375 2.074218-2.132812 3.546875-1.871094l-.960938 3.097656c-.066406.21875.054688.445313.269531.511719.214844.066407.445313-.054687.511719-.269531l.960938-3.097656c1.640625.746094 2.371093 2.683594 1.625 4.324218zm13.988281-2.613281c-.703125-2.144531-3.007812-3.320312-5.15625-2.621093l-1.183594-2.652344.304688-.816406h.921875v-.816407h-3.472657c-.097656 0-.179687.0625-.199218.15625-.027344.109375.039062.21875.148437.246094l1.730469.414063-.304688.816406h-7.300781l.328125-1.058594c.105469-.339844.421875-.574219.78125-.574219h1.339844v-.816406h-1.339844c-.71875 0-1.351562.464844-1.5625 1.148437l-1.1875 3.835938c-1.90625-.386719-3.820312.621094-4.574218 2.410156-.882813 2.082032.089843 4.480469 2.167968 5.359375 2.078125.878907 4.476563-.09375 5.355469-2.171875.882813-2.078125-.089844-4.476562-2.167969-5.355468l.324219-1.050782 4.832031 5.359375c.152344.171875.375.269531.605469.269531h1.71875c.03125.152344.070313.304688.117187.453126.699219 2.140624 3.007813 3.316406 5.152344 2.617187 2.144532-.699219 3.320313-3.007813 2.621094-5.152344" fill="#fff"/><path d="m42.617188 24.398438c0-.773438-.628907-1.402344-1.402344-1.402344-.773438 0-1.402344.628906-1.402344 1.402344 0 .773437.628906 1.402343 1.402344 1.402343.773437 0 1.402344-.628906 1.402344-1.402343zm-6.808594-8.210938c0 .882812-.71875 1.601562-1.605469 1.601562-.882813 0-1.601563-.71875-1.601563-1.601562 0-.886719.71875-1.605469 1.601563-1.605469.886719 0 1.605469.71875 1.605469 1.605469zm-3.207032 8.171875.28125-.277344c.078126-.074219.121094-.175781.121094-.285156v-3.003906c0-.109375-.089844-.199219-.203125-.199219-.109375 0-.199219.089844-.199219.199219zm-2.402343 4.648437c.226562-1.535156.894531-2.972656 1.914062-4.136718-.460937-.515625-.714843-1.183594-.714843-1.875v-1.601563c0-1.550781 1.257812-2.804687 2.804687-2.804687 1.046875 0 2.003906.582031 2.488281 1.507812l1.664063 3.199219c.242187.464844.15625 1.03125-.210938 1.402344l1.652344 1.386719c.5625.472656 1.320313.632812 2.023437.429687l.296876-.082031c.304687-.085938.636718.015625.839843.261718l2.035157 2.476563c.347656.421875.296874 1.042969-.121094 1.394531l-1.851563-2.160156.597657 3.003906-.765626.113282.460938 2.914062c.042969.273438-.144531.53125-.414062.574219-.265626.039062-.519532-.136719-.570313-.398438l-.570313-2.925781-.648437.09375-.296875 3.183594c-.023438.273437-.269531.476562-.546875.449218-.265625-.023437-.46875-.257812-.453125-.527343l.402344-6.882813-2.851563-2.695312c-.265625-.371094-.25-.878906.046875-1.226563l-1.777344-3.414062c-.03125-.058594-.101562-.082031-.160156-.050781-.039062.019531-.066406.0625-.066406.105468v3.074219c0 .109375.042969.210937.121094.285156l.355468.351563c1.25 1.230468 2.066407 2.835937 2.328126 4.574218zm4.207031.398438h1.199219v5.410156c0 .332032-.265625.601563-.601563.601563-.332031 0-.597656-.269531-.597656-.601563zm-1.605469 0h1.203125v4.207031c0 .332031-.269531.601563-.601562.601563-.332032 0-.601563-.269532-.601563-.601563" fill="#fff"/></svg>