<svg height="50pt" viewBox="0 0 50 50" width="50pt" xmlns="http://www.w3.org/2000/svg"><path d="m49.957031 25c0 13.785156-11.171875 24.957031-24.957031 24.957031s-24.9570312-11.171875-24.9570312-24.957031 11.1718752-24.9570312 24.9570312-24.9570312 24.957031 11.1718752 24.957031 24.9570312zm0 0" fill="#fff"/><path d="m25 0c-13.808594 0-25 11.191406-25 25 0 13.804688 11.191406 25 25 25 13.804688 0 25-11.195312 25-25 0-13.808594-11.195312-25-25-25zm0 .0429688c13.785156 0 24.957031 11.1718752 24.957031 24.9570312s-11.171875 24.957031-24.957031 24.957031-24.9570312-11.171875-24.9570312-24.957031 11.1718752-24.9570312 24.9570312-24.9570312zm0 0"/><path d="m25 .875c-13.285156 0-24.125 10.839844-24.125 24.125s10.839844 24.125 24.125 24.125 24.125-10.839844 24.125-24.125-10.839844-24.125-24.125-24.125zm0 6.6875c9.671875 0 17.4375 7.765625 17.4375 17.4375s-7.765625 17.4375-17.4375 17.4375-17.4375-7.765625-17.4375-17.4375 7.765625-17.4375 17.4375-17.4375zm0 0" fill="#c1121c"/><path d="m2.480469 2.527344v.003906h-.003907zm0 0"/><path d="m2.476562 2.527344h.003907v.003906h-.003907zm0 0"/><path d="m2.476562 2.53125v-.003906l.003907.003906zm.003907 0-.003907-.003906v.003906zm0 0"/><path d="m2.480469 2.53125h-.003907v-.003906zm0 0"/><path d="m2.476562 2.53125v-.003906.003906l.003907-.003906zm0 0"/><path d="m2.476562 2.527344h.003907v.003906h-.003907zm0 0"/><path d="m2.480469 2.527344v.003906h-.003907zm0 0"/><path d="m2.476562 2.527344h.003907v.003906h-.003907zm0 0"/><path d="m2.476562 2.53125v-.003906l.003907.003906zm.003907 0-.003907-.003906v.003906zm0 0"/><path d="m2.480469 2.53125h-.003907v-.003906zm0 0"/><path d="m2.476562 2.53125v-.003906.003906l.003907-.003906zm0 0"/><path d="m2.476562 2.527344h.003907v.003906h-.003907zm0 0"/><path d="m2.480469 2.527344v.003906h-.003907zm0 0"/><path d="m2.476562 2.527344h.003907v.003906h-.003907zm0 0"/><path d="m2.476562 2.53125v-.003906l.003907.003906zm.003907 0-.003907-.003906v.003906zm0 0"/><path d="m2.480469 2.53125h-.003907v-.003906zm0 0"/><path d="m2.476562 2.53125v-.003906.003906l.003907-.003906zm0 0"/><path d="m2.476562 2.527344h.003907v.003906h-.003907zm0 0"/><path d="m33.675781 26.503906c0 1.199219-.972656 2.171875-2.167969 2.171875-1.199218 0-2.171874-.972656-2.171874-2.171875 0-1.199218.972656-2.171875 2.171874-2.171875 1.195313 0 2.167969.972657 2.167969 2.171875zm-16.742187 0c0 1.199219-.972656 2.171875-2.171875 2.171875s-2.167969-.972656-2.167969-2.171875c0-1.199218.96875-2.171875 2.167969-2.171875s2.171875.972657 2.171875 2.171875zm20.777344-2.789062h-17.988282v-8.683594h17.988282zm-1.863282 2.789062h-1.550781c0-.84375-.378906-1.640625-1.035156-2.171875h4.449219v1.550781zm-17.363281-9.300781v7.128906h11.265625c-.652344.53125-1.035156 1.328125-1.035156 2.171875h-11.160156c0-1.539062-1.25-2.789062-2.792969-2.789062-1.539063 0-2.789063 1.25-2.789063 2.789062h-.3125c-.339844 0-.617187-.277344-.617187-.621094v-3.425781c0-.296875.050781-.589843.15625-.871093l1.367187-3.644532c.085938-.230468.300782-.386718.542969-.402344"/><path d="m16.3125 21.390625-4.117188.484375c-.167968.019531-.324218-.105469-.34375-.273438-.003906-.050781 0-.097656.019532-.144531l1.035156-2.773437c.046875-.113282.152344-.191406.273438-.199219l3.132812-.195313" fill="#fff"/><path d="m12.292969 33.050781 2.914062-2.917969h1.621094l-2.265625 2.269532h4.394531v1.292968h-4.394531l2.265625 2.269532h-1.621094"/><path d="m38.957031 33.050781-2.917969 2.914063h-1.617187l2.269531-2.269532h-4.398437v-1.292968h4.398437l-2.269531-2.269532h1.617187"/><path d="m26.328125 35.550781v-3.570312h.714844v.402343c.417969-.519531 1.179687-.597656 1.695312-.179687.082031.0625.152344.136719.214844.222656.46875-.574219 1.3125-.65625 1.882813-.191406.3125.253906.492187.636719.492187 1.039063v2.277343h-.714844v-2.1875c0-.394531-.320312-.714843-.714843-.714843-.390626 0-.710938.320312-.710938.714843v2.1875h-.714844v-2.1875c0-.394531-.320312-.714843-.714844-.714843-.394531 0-.714843.320312-.714843.714843v2.1875zm-3.105469-1.386719c0 .394532.320313.714844.714844.714844s.714844-.320312.714844-.714844v-2.230468c0-.394532-.320313-.714844-.714844-.714844s-.714844.320312-.714844.714844zm-.714844 0v-2.230468c0-.789063.640626-1.429688 1.429688-1.429688s1.429688.640625 1.429688 1.429688v2.230468c0 .789063-.640626 1.429688-1.429688 1.429688s-1.429688-.640625-1.429688-1.429688zm-2.585937-2.320312v-.757812l.714844-.535157h.710937v5h-.710937v-4.242187"/></svg>