<svg height="50pt" viewBox="0 0 50 50" width="50pt" xmlns="http://www.w3.org/2000/svg"><path d="m49.957031 25c0 13.785156-11.171875 24.957031-24.957031 24.957031s-24.9570312-11.171875-24.9570312-24.957031 11.1718752-24.9570312 24.9570312-24.9570312 24.957031 11.1718752 24.957031 24.9570312zm0 0" fill="#fff"/><path d="m25 0c-13.808594 0-25 11.191406-25 25 0 13.804688 11.191406 25 25 25 13.804688 0 25-11.195312 25-25 0-13.808594-11.195312-25-25-25zm0 .0429688c13.785156 0 24.957031 11.1718752 24.957031 24.9570312s-11.171875 24.957031-24.957031 24.957031-24.9570312-11.171875-24.9570312-24.957031 11.1718752-24.9570312 24.9570312-24.9570312zm0 0"/><path d="m440.2325 240.395992c0-110.358625-89.473875-199.8325-199.8325-199.8325s-199.8325 89.473875-199.8325 199.8325 89.473875 199.8325 199.8325 199.8325 199.8325-89.473875 199.8325-199.8325zm0 0" fill="none" stroke="#c1121c" stroke-width="64.316834" transform="matrix(.103993 0 0 -.103993 0 49.999583)"/><path d="m2.480469 2.527344v.003906h-.003907zm0 0"/><path d="m2.476562 2.527344h.003907v.003906h-.003907zm0 0"/><path d="m2.476562 2.53125v-.003906l.003907.003906zm.003907 0-.003907-.003906v.003906zm0 0"/><path d="m2.480469 2.53125h-.003907v-.003906zm0 0"/><path d="m2.476562 2.53125v-.003906.003906l.003907-.003906zm0 0"/><path d="m2.476562 2.527344h.003907v.003906h-.003907zm0 0"/><path d="m2.480469 2.527344v.003906h-.003907zm0 0"/><path d="m2.476562 2.527344h.003907v.003906h-.003907zm0 0"/><path d="m2.476562 2.53125v-.003906l.003907.003906zm.003907 0-.003907-.003906v.003906zm0 0"/><path d="m2.480469 2.53125h-.003907v-.003906zm0 0"/><path d="m2.476562 2.53125v-.003906.003906l.003907-.003906zm0 0"/><path d="m2.476562 2.527344h.003907v.003906h-.003907zm0 0"/><path d="m2.480469 2.527344v.003906h-.003907zm0 0"/><path d="m2.476562 2.527344h.003907v.003906h-.003907zm0 0"/><path d="m2.476562 2.53125v-.003906l.003907.003906zm.003907 0-.003907-.003906v.003906zm0 0"/><path d="m2.480469 2.53125h-.003907v-.003906zm0 0"/><path d="m2.476562 2.53125v-.003906.003906l.003907-.003906zm0 0"/><path d="m2.476562 2.527344h.003907v.003906h-.003907zm0 0"/></svg>