<svg height="50pt" viewBox="0 0 50 50" width="50pt" xmlns="http://www.w3.org/2000/svg"><path d="m49.957031 25c0 13.785156-11.171875 24.957031-24.957031 24.957031s-24.9570312-11.171875-24.9570312-24.957031 11.1718752-24.9570312 24.9570312-24.9570312 24.957031 11.1718752 24.957031 24.9570312zm0 0" fill="#fff"/><path d="m25 0c-13.808594 0-25 11.191406-25 25 0 13.804688 11.191406 25 25 25 13.804688 0 25-11.195312 25-25 0-13.808594-11.195312-25-25-25zm0 .0429688c13.785156 0 24.957031 11.1718752 24.957031 24.9570312s-11.171875 24.957031-24.957031 24.957031-24.9570312-11.171875-24.9570312-24.957031 11.1718752-24.9570312 24.9570312-24.9570312zm0 0"/><path d="m25 .875c-13.285156 0-24.125 10.839844-24.125 24.125s10.839844 24.125 24.125 24.125 24.125-10.839844 24.125-24.125-10.839844-24.125-24.125-24.125zm0 6.6875c9.671875 0 17.4375 7.765625 17.4375 17.4375s-7.765625 17.4375-17.4375 17.4375-17.4375-7.765625-17.4375-17.4375 7.765625-17.4375 17.4375-17.4375zm0 0" fill="#c1121c"/><path d="m15.308594 36.179688c.992187-.375 2.011718-.65625 4.144531 0 1.140625.347656 2.335937.375 3.59375 0 1.253906-.441407 2.566406-.535157 3.976563 0 1.214843.433593 2.648437.261718 4.019531-.09375 1.359375-.472657 2.460937-.234376 3.71875.09375v1.089843c-1.375-.554687-2.75-.433593-4.121094 0-1.429687.558594-2.492187.316407-3.523437 0-1.535157-.6875-2.882813-.445312-4.191407 0-1.496093.558594-2.5625.269531-3.640625 0-1.800781-.636719-2.902344-.320312-4 0zm0-2.007813c.992187-.378906 2.011718-.660156 4.144531 0 1.140625.34375 2.335937.371094 3.59375 0 1.253906-.445313 2.566406-.539063 3.976563 0 1.214843.429687 2.648437.257813 4.019531-.097656 1.359375-.472657 2.460937-.234375 3.71875.097656v1.089844c-1.375-.558594-2.75-.4375-4.121094 0-1.429687.554687-2.492187.3125-3.523437 0-1.535157-.691407-2.882813-.449219-4.191407 0-1.496093.554687-2.5625.265625-3.640625 0-1.800781-.640625-2.902344-.324219-4 0zm0 0" fill="#154889" fill-rule="evenodd"/><path d="m15.238281 23.609375v2.980469h19.503907l.011718-2.980469h-2.6875c-3.984375 2.414063-10.097656 2.359375-14.125 0zm16.304688 3.347656h2.007812l.242188.367188.007812 5.160156-.378906.367187-1.8125.023438-.3125-.3125.015625-5.351562zm-12.128907.042969-.226562.253906-.015625 5.351563.3125.3125 1.8125-.023438.375-.367187v-1.6875l.207031-.21875 1.429688-.007813.003906.066407.199219-.003907c.003906.144531.796875.871094 1.527343.871094v-.003906c.730469 0 1.519532-.726563 1.527344-.867188l.199219.003907.003906-.070313 1.433594.007813.195313.207031-.003907 1.78125.3125.3125 1.808594-.023438.378906-.367187-.007812-5.160156-.242188-.367188h-2.007812l-.230469.253906-.003906 1.691406-.285156.292969-1.347657-.003906v-.066406l-.214843-.003907c0-.207031-.785157-.859374-1.515626-.859374v.003906c-.730468 0-1.511718.65625-1.511718.859375h-.21875v.070312l-1.347656.003907-.292969-.304688-.003907-1.570312-.242187-.367188zm-2.929687-.035156h2.007813l.242187.367187.007813 5.160157-.375.367187-1.8125.023437-.3125-.3125.015624-5.351562zm0 0"/><path d="m327.807938 180.562936c.45075 30.80125-38.726938 55.893-87.182563 55.893-48.493187 0-87.633312-25.09175-87.220125-55.893-.413187-30.80125 38.726938-55.893 87.220125-55.893 48.455625 0 87.633313 25.09175 87.182563 55.893zm0 0" fill="#ec7c25" stroke="#000" stroke-width="10.950249" transform="scale(.103993)"/></svg>