<svg height="50pt" viewBox="0 0 50 50" width="50pt" xmlns="http://www.w3.org/2000/svg"><g fill-rule="evenodd"><path d="m42.652344 7.378906c3.246094 3.246094 5.269531 6.746094 6.457031 11.183594 1.191406 4.441406 1.191406 8.484375 0 12.921875-1.1875 4.4375-3.210937 7.941406-6.460937 11.191406-3.246094 3.246094-6.75 5.269531-11.1875 6.457031s-8.484376 1.191407-12.921876 0c-4.4375-1.191406-7.9375-3.210937-11.183593-6.457031-3.25-3.25-5.273438-6.753906-6.464844-11.191406-1.1875-4.4375-1.1875-8.484375 0-12.921875 1.191406-4.4375 3.214844-7.9375 6.460937-11.183594 3.25-3.25 6.753907-5.273437 11.1875-6.464844 4.4375-1.1875 8.484376-1.1875 12.921876 0 4.4375 1.191407 7.941406 3.214844 11.191406 6.464844zm-.03125.027344c-3.242188-3.242188-6.738282-5.261719-11.167969-6.453125-4.433594-1.183594-8.46875-1.1875-12.902344.003906-4.429687 1.1875-7.925781 3.207031-11.167969 6.449219-3.246093 3.242188-5.261718 6.738281-6.453124 11.167969-1.183594 4.429687-1.183594 8.46875.003906 12.898437 1.1875 4.433594 3.207031 7.925782 6.453125 11.171875 3.242187 3.242188 6.734375 5.261719 11.164062 6.449219 4.433594 1.1875 8.46875 1.183594 12.902344 0 4.429687-1.1875 7.921875-3.207031 11.167969-6.449219 3.242187-3.246093 5.261718-6.738281 6.449218-11.167969 1.1875-4.433593 1.1875-8.46875 0-12.902343-1.1875-4.429688-3.203124-7.925781-6.449218-11.167969zm0 0"/><path d="m7.382812 7.40625c3.242188-3.242188 6.738282-5.261719 11.167969-6.449219 4.433594-1.191406 8.46875-1.1875 12.902344-.003906 4.429687 1.191406 7.925781 3.210937 11.167969 6.453125 3.246094 3.242188 5.261718 6.738281 6.449218 11.167969 1.1875 4.433593 1.1875 8.46875 0 12.902343-1.1875 4.429688-3.207031 7.921876-6.449218 11.167969-3.246094 3.242188-6.738282 5.261719-11.167969 6.449219-4.433594 1.1875-8.46875 1.1875-12.902344 0-4.429687-1.1875-7.921875-3.207031-11.164062-6.449219-3.246094-3.246093-5.265625-6.738281-6.453125-11.171875-1.1875-4.429687-1.1875-8.46875 0-12.898437 1.1875-4.429688 3.203125-7.925781 6.449218-11.167969zm0 0" fill="#fff"/><path d="m8.207031 8.226562c3.089844-3.089843 6.421875-5.015624 10.644531-6.144531 4.226563-1.132812 8.074219-1.132812 12.296876-.003906 4.226562 1.128906 7.558593 3.058594 10.652343 6.152344 3.089844 3.089843 5.011719 6.421875 6.144531 10.644531 1.128907 4.226562 1.128907 8.074219 0 12.296875-1.132812 4.222656-3.054687 7.558594-6.144531 10.648437-3.09375 3.09375-6.425781 5.019532-10.652343 6.148438-4.222657 1.128906-8.070313 1.128906-12.296876-.003906-4.222656-1.128906-7.554687-3.050782-10.644531-6.140625-3.09375-3.09375-5.019531-6.429688-6.148437-10.652344-1.132813-4.222656-1.132813-8.074219 0-12.296875 1.128906-4.222656 3.054687-7.554688 6.148437-10.648438zm0 0" fill="#154889"/></g><path d="m33.734375 23.964844c0-1.359375-1.105469-2.464844-2.46875-2.464844s-2.464844 1.105469-2.464844 2.464844c0 1.363281 1.101563 2.472656 2.464844 2.472656s2.46875-1.109375 2.46875-2.472656zm-11.984375-14.453125c0 1.554687-1.265625 2.820312-2.824219 2.820312-1.554687 0-2.820312-1.265625-2.820312-2.820312 0-1.558594 1.265625-2.820313 2.820312-2.820313 1.558594 0 2.824219 1.261719 2.824219 2.820313zm-5.644531 14.386719.496093-.488282c.132813-.132812.210938-.3125.210938-.5v-5.289062c0-.195313-.160156-.351563-.355469-.351563-.191406 0-.351562.15625-.351562.351563zm-4.230469 8.175781c.40625-2.699219 1.578125-5.226563 3.375-7.28125-.808594-.90625-1.257812-2.078125-1.257812-3.292969v-2.820312c0-2.726563 2.207031-4.9375 4.933593-4.9375 1.84375 0 3.53125 1.023437 4.378907 2.65625l2.929687 5.628906c.425781.816406.273437 1.8125-.371094 2.464844l2.910157 2.445312c.988281.828125 2.320312 1.113281 3.558593.757812l.523438-.148437c.539062-.152344 1.117187.027344 1.476562.460937l3.585938 4.359376c.609375.742187.515625 1.835937-.214844 2.457031l-3.261719-3.804688 1.058594 5.289063-1.355469.199218.816407 5.125c.074218.480469-.253907.933594-.734376 1.011719-.46875.070313-.914062-.238281-1.003906-.703125l-1-5.148437-1.144531.167969-.519531 5.597656c-.042969.484375-.472656.839844-.960938.796875-.472656-.042969-.824218-.457031-.796875-.929688l.703125-12.113281-5.019531-4.746094c-.46875-.65625-.433594-1.542968.082031-2.160156l-3.125-6.007812c-.054687-.101563-.179687-.144532-.285156-.089844-.070312.039062-.113281.109375-.113281.1875v5.414062c0 .1875.074219.367188.210937.5l.625.617188c2.203125 2.167968 3.640625 4.992187 4.101563 8.046875zm7.40625.707031h2.113281v9.519531c0 .582031-.472656 1.058594-1.058593 1.058594-.582032 0-1.054688-.476563-1.054688-1.058594zm-2.824219 0h2.117188v7.402344c0 .585937-.472657 1.058594-1.058594 1.058594-.582031 0-1.058594-.472657-1.058594-1.058594" fill="#fff"/></svg>