<svg height="50pt" viewBox="0 0 50 50" width="50pt" xmlns="http://www.w3.org/2000/svg"><path d="m3.035156.0429688c-2.9999998-.0039063-2.9921872 2.9921872-2.9921872 2.9921872v43.929688s-.0078126 2.996094 2.9921872 2.992187h43.929688c3.019531.003907 2.992187-2.992187 2.992187-2.992187v-43.929688s.027344-3.003906-2.992187-2.9921872zm0 0" fill="#fff"/><path d="m3.035156 1.039062c-1.101562 0-1.996094.894532-1.996094 1.996094v43.929688c0 1.101562.894532 1.996094 1.996094 1.996094h43.929688c1.101562 0 1.996094-.894532 1.996094-1.996094v-43.929688c0-1.101562-.894532-1.996094-1.996094-1.996094zm5.078125 7.074219h33.773438v33.773438h-33.773438zm0 0" fill="#154889"/><path d="m3.035156 0c-1.511718 0-2.28125.761719-2.660156 1.519531-.37890625.761719-.375 1.519531-.375 1.519531v43.925782s-.00390625.757812.375 1.515625c.378906.757812 1.148438 1.519531 2.660156 1.519531h43.929688c1.523437 0 2.289062-.761719 2.667968-1.519531.375-.757813.367188-1.515625.367188-1.515625v-43.929688s.007812-.757812-.371094-1.519531c-.375-.757813-1.140625-1.51953125-2.664062-1.515625zm0 .0429688h43.929688c3.019531-.0117188 2.992187 2.9921872 2.992187 2.9921872v43.929688s.027344 2.996094-2.992187 2.992187h-43.929688c-2.9999998.003907-2.9921872-2.992187-2.9921872-2.992187v-43.929688s-.0078126-2.9960935 2.9921872-2.9921872zm0 0"/><path d="m9.816406 36.496094v-10.933594l2.34375-5.550781 4.335938-4.164063 5.640625-2.34375h5.8125l5.550781 2.34375 4.339844 4.164063 2.34375 5.550781v10.933594zm2.515625-.433594h-2.082031v-4.339844h2.082031zm-2.082031-4.773438v-5.414062l2.238281.828125c-.003906.019531-.003906.039063-.007812.058594-.023438.136719-.042969.277343-.058594.414062-.015625.132813-.03125.265625-.039063.398438-.015624.128906-.023437.261719-.03125.394531-.003906.105469-.011718.210938-.011718.320312-.003906.113282-.007813.226563-.007813.339844v2.660156zm.085938-5.839843 2.105468-4.984375 1.816406 1.507812c-.023437.039063-.046874.078125-.070312.117188-.171875.277344-.332031.5625-.480469.855468-.140625.273438-.269531.554688-.386719.839844-.121093.285156-.230468.574219-.328124.871094-.082032.234375-.152344.472656-.21875.710938-.070313.253906-.128907.511718-.183594.769531-.007813.046875-.015625.089843-.027344.136719zm2.347656-5.34375 3.898437-3.734375 1.152344 1.9375c-.035156.027344-.074219.054687-.113281.078125-.265625.191406-.523438.390625-.769532.601562-.238281.199219-.46875.40625-.691406.625-.222656.214844-.433594.4375-.640625.671875-.164062.183594-.320312.375-.476562.570313-.164063.207031-.320313.417969-.46875.636719-.027344.039062-.050781.078124-.082031.113281zm4.261718-3.976563 5.070313-2.105468.355469 2.273437c-.046875.007813-.09375.019531-.136719.027344-.320313.074219-.636719.15625-.945313.253906-.296874.085937-.589843.191406-.878906.304687-.289062.109376-.574218.230469-.851562.367188-.226563.105469-.445313.21875-.664063.335938-.230469.128906-.457031.261718-.679687.402343-.039063.027344-.078125.050781-.121094.078125zm5.492188-2.191406h5.121094l-.355469 2.277344c-.023437-.003906-.042969-.007813-.066406-.011719-.152344-.027344-.304688-.050781-.460938-.070313-.144531-.019531-.292969-.039062-.4375-.050781-.148437-.015625-.296875-.027343-.441406-.035156-.117187-.007813-.238281-.015625-.351563-.019531-.128906-.003906-.253906-.007813-.378906-.007813h-.132812c-.046875 0-.089844 0-.132813 0-.113281.003907-.222656.007813-.332031.011719-.148438.007812-.296875.015625-.445312.027344-.144532.011718-.292969.023437-.4375.039062-.117188.015625-.238282.027344-.355469.046875-.121094.015625-.246094.035157-.371094.058594-.019531.003906-.042969.007813-.0625.011719zm17.3125 22.125h-2.082031v-4.339844h2.082031zm0-4.773438h-2.082031v-2.660156c0-.140625-.003907-.28125-.011719-.417968-.003906-.136719-.011719-.269532-.019531-.398438-.011719-.136719-.023438-.265625-.035157-.398438-.011718-.105468-.023437-.210937-.035156-.316406-.015625-.113281-.03125-.226562-.046875-.335937-.003906-.019531-.007812-.039063-.011719-.058594l2.242188-.828125zm-2.191406-10.824218 2.101562 4.984375-2.226562.824219c-.007813-.046876-.019532-.089844-.027344-.136719-.066406-.320313-.144531-.636719-.234375-.949219-.085937-.296875-.179687-.59375-.289063-.882812-.105468-.289063-.222656-.578126-.351562-.859376-.105469-.226562-.210938-.449218-.328125-.667968-.125-.230469-.253906-.464844-.390625-.6875-.023438-.039063-.046875-.078125-.074219-.117188zm-4.140625-4.09375 3.894531 3.734375-1.808594 1.5c-.027344-.035157-.054687-.074219-.078125-.113281-.1875-.269532-.378906-.53125-.585937-.78125-.195313-.246094-.402344-.476563-.613282-.699219-.210937-.230469-.433593-.445313-.660156-.65625-.183594-.167969-.371094-.328125-.5625-.484375-.207031-.167969-.414062-.328125-.628906-.484375-.035156-.023438-.074219-.050781-.113281-.078125zm-5.433594-2.347656 5.070313 2.105468-1.152344 1.9375c-.039063-.027344-.078125-.050781-.121094-.078125-.273438-.171875-.554688-.335937-.84375-.488281-.273438-.148438-.550781-.28125-.835938-.40625-.28125-.125-.570312-.242188-.859374-.34375-.238282-.082031-.472657-.15625-.710938-.226562-.253906-.074219-.511719-.140626-.765625-.199219-.046875-.007813-.09375-.019531-.136719-.027344z" fill="#0c0b09" fill-rule="evenodd"/></svg>