<svg height="50pt" viewBox="0 0 74 50" width="74pt" xmlns="http://www.w3.org/2000/svg" xmlns:xlink="http://www.w3.org/1999/xlink"><clipPath id="a"><path d="m0 .0195312h74v49.9531248h-74zm0 0"/></clipPath><g clip-path="url(#a)"><path d="m3.332031 49.910156c-1.8125 0-3.2812498-1.488281-3.2812498-3.324218v-43.191407c0-1.835937 1.4687498-3.3242185 3.2812498-3.3242185h67.34375c1.8125 0 3.285157 1.4882815 3.285157 3.3242185v43.191407c0 1.835937-1.472657 3.324218-3.285157 3.324218" fill="#fff"/><path d="m3.332031.0195312c-1.835937 0-3.332031 1.5156248-3.332031 3.3749998v43.191407c0 1.859374 1.496094 3.375 3.332031 3.375h67.34375c1.835938 0 3.332031-1.515626 3.332031-3.375v-43.191407c0-1.859375-1.496093-3.3749998-3.332031-3.3749998zm0 .0507813h67.34375c1.8125 0 3.285157 1.4882815 3.285157 3.3242185v43.191407c0 1.835937-1.472657 3.324218-3.285157 3.324218h-67.34375c-1.8125 0-3.2812498-1.488281-3.2812498-3.324218v-43.191407c0-1.835937 1.4687498-3.3242185 3.2812498-3.3242185zm0 0"/></g><path d="m3.332031 48.664062c-1.132812 0-2.050781-.929687-2.050781-2.078124v-43.191407c0-1.148437.917969-2.078125 2.050781-2.078125h67.34375c1.132813 0 2.054688.929688 2.054688 2.078125v43.191407c0 1.148437-.921875 2.078124-2.054688 2.078124" fill="#154889"/><g fill="#fff"><path d="m15.9375 30.101562v15.324219c-1.453125 0-2.632812-1.195312-2.632812-2.667969v-9.324218l-6.585938 10.65625c-1.234375-.777344-1.609375-2.421875-.839844-3.667969l4.792969-7.753906v-2.566407"/><path d="m15.9375 29.4375h-5.265625v-5.027344l-3.519531 5.691406c-1.078125-.679687-1.40625-2.121093-.730469-3.210937l4.652344-7.527344c.769531-1.246093 2.394531-1.625 3.628906-.847656.769531.488281 1.234375 1.339844 1.234375 2.261719v2.996094l4.941406 2.996093c-.65625 1.105469-2.070312 1.464844-3.160156.800781l-1.78125-1.078124"/><path d="m17.585938 14.449219c0 1.472656-1.179688 2.664062-2.632813 2.664062-1.457031 0-2.636719-1.191406-2.636719-2.664062 0-1.472657 1.179688-2.667969 2.636719-2.667969 1.453125 0 2.632813 1.195312 2.632813 2.667969"/><path d="m31.402344 43.492188c0 1.066406-.855469 1.933593-1.910156 1.933593-1.054688 0-1.910157-.867187-1.910157-1.933593 0-1.070313.855469-1.933594 1.910157-1.933594 1.054687 0 1.910156.863281 1.910156 1.933594"/><path d="m40.574219 35.375-2.402344 2.015625c-.535156.445313-1.3125.410156-1.800781-.082031l4.238281-4.289063c.882813.378907 1.890625.28125 2.691406-.25l2.828125.632813c.113282.027344.207032.097656.257813.203125l1.449219 2.929687c-.660157.332032-1.464844.0625-1.796876-.605468l-.6875-1.328126h-1.339843l1.148437 4.636719 2.585938.199219c.695312.050781 1.234375.640625 1.234375 1.347656h-4.378907c-.128906 0-.25-.066406-.320312-.171875l-.648438-.988281-1.339843.386719v4.0625c0 .722656-.5625 1.316406-1.277344 1.351562"/><path d="m43.632812 30.347656c0 1.070313-.855468 1.933594-1.910156 1.933594-1.058594 0-1.914062-.863281-1.914062-1.933594 0-1.066406.855468-1.929687 1.914062-1.929687 1.054688 0 1.910156.863281 1.910156 1.929687"/><path d="m28.691406 6.546875c-.367187 0-.703125.222656-.847656.5625l-1.460938 3.402344c-.105468.238281-.238281.464843-.390624.675781l-.222657.296875c-.140625.195313-.21875.429687-.21875.671875v2.433594c0 .511718.410157.929687.921875.929687h13.671875c.511719 0 .925781-.417969.925781-.929687v-2.433594c0-.242188-.078124-.476562-.222656-.671875l-.222656-.296875c-.15625-.210938-.285156-.4375-.386719-.675781l-1.464843-3.402344c-.144532-.339844-.480469-.5625-.847657-.5625zm.222656.9375h8.789063c.148437 0 .28125.089844.339844.226563l1.273437 2.949218h-12.011718l1.269531-2.949218c.058593-.136719.191406-.226563.339843-.226563zm-1.332031 4.113281c.613281 0 1.109375.5 1.109375 1.121094 0 .617188-.496094 1.121094-1.109375 1.121094s-1.109375-.503906-1.109375-1.121094c0-.621094.496094-1.121094 1.109375-1.121094zm11.453125 0c.613282 0 1.109375.5 1.109375 1.121094 0 .617188-.496093 1.121094-1.109375 1.121094-.609375 0-1.109375-.503906-1.109375-1.121094 0-.621094.5-1.121094 1.109375-1.121094zm0 0"/><path d="m26.472656 15.894531h2.214844v2.054688c0 .3125-.246094.5625-.554688.5625h-1.105468c-.308594 0-.554688-.25-.554688-.5625"/><path d="m37.929688 15.894531h2.214843v2.054688c0 .3125-.246093.5625-.554687.5625h-1.105469c-.308594 0-.554687-.25-.554687-.5625"/><path d="m59.917969 4.972656-1.988281 1.316406v-.914062h-1.992188v2.226562l-6.367188 4.210938h3.582032v14.09375h13.53125v-14.09375h3.582031zm0 1.207032 5.574219 4.628906v13.886718h-3.984376v-6.035156h-3.183593v6.035156h-3.976563v-13.886718zm0 0"/><path d="m55.933594 11.816406h3.1875v4.023438h-3.1875zm0 0"/><path d="m60.710938 11.816406h3.1875v4.023438h-3.1875zm0 0"/><path d="m66.566406 42.433594-13.65625-9.992188c-4.417968-3.230468-7.035156-8.414062-7.035156-13.929687h1.660156c0 4.976562 2.363282 9.652343 6.351563 12.570312l12.679687 9.328125"/></g></svg>