<svg height="50pt" viewBox="0 0 90 50" width="90pt" xmlns="http://www.w3.org/2000/svg"><path d="m38.791667 4.978125c-18.438802 0-28.817275 7.150781-28.817275 28.223438l-.31901 203.596875c0 21.072656 10.378472 28.223437 28.817274 28.223437l412.735677-.042187c18.438802 0 28.817275-7.129688 28.817275-28.223438l.31901-203.5125c0-21.09375-10.378472-28.223437-28.817274-28.223437zm0 0" fill="#fff" fill-rule="evenodd" stroke="#000" stroke-width="2" transform="scale(.183673 .185185)"/><path d="m453.313802 17.803125-416.542535.021094c-8.421875 0-13.355902 6.011719-13.355902 14.871093v204.672657c0 8.859375 4.934027 14.871094 13.355902 14.871094l416.5-.042188c8.443143 0 13.37717-5.990625 13.37717-14.871094v-204.651562c0-8.880469-4.91276-14.871094-13.334635-14.871094zm0 0" fill="none" stroke="#000" stroke-width="10.050908" transform="scale(.183673 .185185)"/><path d="m48.679688 33.164062v-10.105468h-1.214844v-1.84375h1.214844v-1.574219c0-1.113281.308593-1.933594.925781-2.460937.617187-.523438 1.394531-.785157 2.335937-.785157h1.558594v2.253907h-1.363281c-.699219 0-1.050781.332031-1.050781.992187v1.574219h2.414062v1.84375h-2.414062v10.105468zm6.1875 0v-11.949218h2.414062v1.28125h.046875c.75-.945313 1.789063-1.417969 3.121094-1.417969.878906 0 1.714843.308594 2.511719.921875l-1.746094 2.070312c-.523438-.390624-1.058594-.585937-1.597656-.585937-.59375 0-1.128907.199219-1.613282.59375-.480468.394531-.722656 1.03125-.722656 1.902344v7.183593zm18.5-5.0625h-7.46875c0 .980469.265624 1.71875.800781 2.210938.535156.488281 1.21875.734375 2.054687.734375.992188 0 1.871094-.382813 2.632813-1.152344l1.746093 1.488281c-.59375.6875-1.261718 1.183594-2.003906 1.476563-.746094.296875-1.519531.445313-2.332031.445313-1.230469 0-2.425781-.398438-3.582031-1.191407-1.15625-.796875-1.734375-2.421875-1.734375-4.875 0-2.328125.535156-3.933593 1.601562-4.824219 1.066407-.890624 2.183594-1.335937 3.347657-1.335937 1.316406 0 2.46875.453125 3.457031 1.363281.984375.910156 1.480469 2.136719 1.480469 3.679688zm-7.46875-1.980468h5.0625c-.039063-.898438-.292969-1.585938-.761719-2.0625-.472657-.472656-1.0625-.710938-1.769531-.710938-.71875 0-1.3125.238282-1.789063.710938-.472656.476562-.722656 1.164062-.742187 2.0625zm10.082031 7.042968v-11.949218h2.414062v11.949218zm0-14.363281v-2.40625h2.414062v2.40625zm0 0"/><path d="m-554.882439 121.930802h349.214138" fill="none" stroke="#000" stroke-width="9.798565" transform="matrix(.0752471 0 0 .0758664 55.042345 15.628456)"/><path d="m17.394531 35.398438c-.042969-3.339844-.222656-.464844 1.773438-5.421876 1.445312-3.367187-.019531-2.460937 7.460937-2.582031 6.65625.136719 5.3125-.835937 6.84375 2.738281 1.914063 4.582032 1.765625 2.183594 1.753906 5.171876-.074218 3.277343 1.128907 2.433593-8.945312 2.542968-9.996094-.132812-8.816406.71875-8.886719-2.449218zm2.023438-3.222657 1.371093-3.1875c.253907-.566406.171876-.484375.769532-.488281h9.566406c.519531.003906.445312-.03125.65625.464844l1.363281 3.171875zm-.976563 6.039063 2.558594-.007813c-.007812 3.242188.257812 3.0625-1.136719 3.082031-1.664062-.007812-1.398437.164063-1.421875-3.074218zm13.179688.023437h2.5625c-.015625 3.246094.21875 3.023438-1.234375 3.03125-1.5-.019531-1.308594.21875-1.328125-3.03125zm0 0" fill-rule="evenodd"/><path d="m20.960938 34.558594c0 .695312-.558594 1.261718-1.25 1.261718-.6875 0-1.246094-.566406-1.246094-1.261718 0-.695313.558594-1.261719 1.246094-1.261719.691406 0 1.25.566406 1.25 1.261719zm0 0" fill="#fff"/><path d="m34.117188 34.558594c0 .695312-.558594 1.261718-1.25 1.261718-.6875 0-1.25-.566406-1.25-1.261718 0-.695313.5625-1.261719 1.25-1.261719.691406 0 1.25.566406 1.25 1.261719zm0 0" fill="#fff"/><g fill-rule="evenodd"><path d="m29.546875 21.621094c-1.933594-.097656-4.78125.246094-5.734375-.972656-.4375-2.324219-1.6875-3.492188-3.832031-3.515626-1.320313-2.566406 1.074219-2.96875 2.707031-3.628906.105469 1.195313.042969 2.433594 1.910156 3.128906.078125-.367187.230469-.667968.722656-.679687l2.765626.011719 1.957031-1.542969c.3125.507813.941406 1.15625.941406 1.519531l2.96875.011719c.214844.1875.398437.679687-.035156 1.167969-1.777344-.054688-5.007813.140625-4.371094 4.5zm0 0"/><path d="m24.722656 11.808594.007813-1.054688 1.171875-.160156v-.839844l-1.195313.199219c.085938-.753906.570313-1.300781 1.628907-1.460937.667968.050781 1.367187.085937 1.765624 1.34375.117188.496093.042969 1-.265624 1.4375-.992188-.550782-1.738282-.175782-2.414063.441406zm0 0"/><path d="m22.675781 14.09375 3.496094-2.664062c.472656-.25.988281-.300782 1.609375.082031.53125.484375 1.425781 1.828125 2.136719 2.742187l-1.992188 1.5-1.910156-2.679687-3.023437 2.335937c-.234376-.410156-.289063-.890625-.316407-1.316406zm0 0"/></g><path d="m-428.008743 64.418102c0 18.432897-14.950747 33.364574-33.379618 33.364574-18.376959 0-33.327706-14.931677-33.327706-33.364574s14.950747-33.364574 33.327706-33.364574c18.428871 0 33.379618 14.931677 33.379618 33.364574zm0 0" fill="none" stroke="#000" stroke-linecap="round" stroke-linejoin="round" stroke-width="13.956994" transform="matrix(.0752471 0 0 .0758664 55.042345 15.628456)"/><path d="m-262.719934 64.469591c0 18.381408-14.898835 33.313085-33.327706 33.313085-18.428872 0-33.327706-14.931677-33.327706-33.313085 0-18.432898 14.898834-33.364574 33.327706-33.364574 18.428871 0 33.327706 14.931676 33.327706 33.364574zm0 0" fill="none" stroke="#000" stroke-linecap="round" stroke-linejoin="round" stroke-width="13.956994" transform="matrix(.0752471 0 0 .0758664 55.042345 15.628456)"/></svg>