<?xml version="1.0" encoding="UTF-8" standalone="no"?>
<!-- Created with Inkscape (http://www.inkscape.org/) -->
<svg
   xmlns:svg="http://www.w3.org/2000/svg"
   xmlns="http://www.w3.org/2000/svg"
   version="1.0"
   width="24"
   height="24"
   id="svg2">
  <defs
     id="defs4" />
  <g
     id="layer1">
    <path
       d="M 1.1364216,0.89276048 L 11.402097,8.4689046 L 17.235728,20.085659 L 23.422912,23.431789"
       id="path3154"
       style="fill:none;fill-rule:evenodd;stroke:#ff0000;stroke-width:1px;stroke-linecap:round;stroke-linejoin:miter;stroke-opacity:1" />
    <path
       d="M 18.24588,6.0697923 A 0.063134536,0.063134536 0 1 1 18.11961,6.0697923 A 0.063134536,0.063134536 0 1 1 18.24588,6.0697923 z"
       transform="matrix(34.999999,0,0,34.999999,-625.37277,-203.94857)"
       id="path3168"
       style="opacity:1;fill:#ff0000;fill-opacity:1;fill-rule:nonzero;stroke:none;stroke-width:5;stroke-linecap:butt;stroke-linejoin:miter;marker:none;marker-start:none;marker-mid:none;marker-end:none;stroke-miterlimit:4;stroke-dasharray:none;stroke-dashoffset:0;stroke-opacity:1;visibility:visible;display:inline;overflow:visible;enable-background:accumulate" />
    <path
       d="M 18.24588,6.0697923 A 0.063134536,0.063134536 0 1 1 18.11961,6.0697923 A 0.063134536,0.063134536 0 1 1 18.24588,6.0697923 z"
       transform="matrix(34.999999,0,0,34.999999,-619.53913,-192.73587)"
       id="path3170"
       style="opacity:1;fill:#ff0000;fill-opacity:1;fill-rule:nonzero;stroke:none;stroke-width:5;stroke-linecap:butt;stroke-linejoin:miter;marker:none;marker-start:none;marker-mid:none;marker-end:none;stroke-miterlimit:4;stroke-dasharray:none;stroke-dashoffset:0;stroke-opacity:1;visibility:visible;display:inline;overflow:visible;enable-background:accumulate" />
    <path
       d="M 11.338963,8.4689046 L 7.323606,18.696699"
       id="path3174"
       style="fill:none;fill-rule:evenodd;stroke:#ff0000;stroke-width:1px;stroke-linecap:butt;stroke-linejoin:miter;stroke-opacity:1" />
    <path
       d="M 3.9459087,0.92432786 L 19.57802,8.0459033 L 6.8879779,18.601998 L 1.7993341,21.506186"
       id="path3172"
       style="fill:none;fill-rule:evenodd;stroke:#008000;stroke-width:1px;stroke-linecap:round;stroke-linejoin:miter;stroke-opacity:1" />
    <path
       d="M 18.24588,6.0697923 A 0.063134536,0.063134536 0 1 1 18.11961,6.0697923 A 0.063134536,0.063134536 0 1 1 18.24588,6.0697923 z"
       transform="matrix(34.999999,0,0,34.999999,-617.00113,-204.40314)"
       id="path3164"
       style="opacity:1;fill:#008000;fill-opacity:1;fill-rule:nonzero;stroke:none;stroke-width:5;stroke-linecap:butt;stroke-linejoin:miter;marker:none;marker-start:none;marker-mid:none;marker-end:none;stroke-miterlimit:4;stroke-dasharray:none;stroke-dashoffset:0;stroke-opacity:1;visibility:visible;display:inline;overflow:visible;enable-background:accumulate" />
    <path
       d="M 18.24588,6.0697923 A 0.063134536,0.063134536 0 1 1 18.11961,6.0697923 A 0.063134536,0.063134536 0 1 1 18.24588,6.0697923 z"
       transform="matrix(34.999999,0,0,34.999999,-629.32499,-193.80916)"
       id="path3166"
       style="opacity:1;fill:#008000;fill-opacity:1;fill-rule:nonzero;stroke:none;stroke-width:5;stroke-linecap:butt;stroke-linejoin:miter;marker:none;marker-start:none;marker-mid:none;marker-end:none;stroke-miterlimit:4;stroke-dasharray:none;stroke-dashoffset:0;stroke-opacity:1;visibility:visible;display:inline;overflow:visible;enable-background:accumulate" />
  </g>
</svg>
