<?xml version="1.0" encoding="UTF-8" standalone="no"?>
<!-- Created with Inkscape (http://www.inkscape.org/) -->
<svg
   xmlns:dc="http://purl.org/dc/elements/1.1/"
   xmlns:cc="http://web.resource.org/cc/"
   xmlns:rdf="http://www.w3.org/1999/02/22-rdf-syntax-ns#"
   xmlns:svg="http://www.w3.org/2000/svg"
   xmlns="http://www.w3.org/2000/svg"
   xmlns:sodipodi="http://sodipodi.sourceforge.net/DTD/sodipodi-0.dtd"
   xmlns:inkscape="http://www.inkscape.org/namespaces/inkscape"
   version="1.0"
   width="490"
   height="360"
   id="svg2"
   sodipodi:version="0.32"
   inkscape:version="0.44"
   sodipodi:docname="Zusatzzeichen 1026-33.svg"
   sodipodi:docbase="C:\Dokumente und Einstellungen\Internet\Desktop\Wiki\SVG sonstiges (fertig)">
  <metadata
     id="metadata10">
    <rdf:RDF>
      <cc:Work
         rdf:about="">
        <dc:format>image/svg+xml</dc:format>
        <dc:type
           rdf:resource="http://purl.org/dc/dcmitype/StillImage" />
      </cc:Work>
    </rdf:RDF>
  </metadata>
  <sodipodi:namedview
     inkscape:window-height="749"
     inkscape:window-width="1024"
     inkscape:pageshadow="2"
     inkscape:pageopacity="0.0"
     guidetolerance="10.0"
     gridtolerance="10.0"
     objecttolerance="10.0"
     borderopacity="1.0"
     bordercolor="#666666"
     pagecolor="#ffffff"
     id="base"
     inkscape:zoom="0.74246212"
     inkscape:cx="245"
     inkscape:cy="191.38167"
     inkscape:window-x="-4"
     inkscape:window-y="-4"
     inkscape:current-layer="svg2"
     showguides="true"
     inkscape:guide-bbox="true" />
  <defs
     id="defs4" />
  <path
     d="M 38.78125,4.6190618 C 20.35689,4.6190483 9.96875,14.244672 9.96875,42.683954 L 9.65625,317.31604 C 9.65625,345.75531 20.04439,355.38094 38.46875,355.38094 L 451.21875,355.33878 C 469.64311,355.33878 480.03124,345.71316 480.03125,317.27389 L 480.34375,42.726108 C 480.34375,14.286826 469.95561,4.6612021 451.53125,4.6612156 L 38.78125,4.6190618 z "
     style="fill:white;fill-opacity:1;fill-rule:evenodd;stroke:black;stroke-width:3;stroke-linecap:butt;stroke-linejoin:miter;stroke-miterlimit:4;stroke-dasharray:none;stroke-opacity:1"
     id="path1881" />
  <path
     d="M 453.23342,19.074797 L 36.79782,19.117707 C 28.375505,19.117707 23.425891,27.356247 23.425891,39.539027 L 23.425891,320.50387 C 23.425891,332.68661 28.375515,340.9252 36.79782,340.9252 L 453.20218,340.88229 C 461.62449,340.88228 466.57411,332.64373 466.57411,320.46097 L 466.57411,39.496127 C 466.57411,27.313347 461.65573,19.074797 453.23342,19.074797 z "
     style="fill:none;fill-opacity:1;fill-rule:evenodd;stroke:black;stroke-width:12;stroke-linecap:butt;stroke-linejoin:miter;stroke-miterlimit:4;stroke-dasharray:none;stroke-opacity:1"
     id="path3976" />
  <g
     id="g5002"
     transform="translate(239.6125,-408.6088)">
    <path
       id="text1982"
       d="M -49.386346,713.78852 L -49.386346,674.7691 L -54.052678,674.7691 L -54.052678,667.6585 L -49.386346,667.6585 L -49.386346,661.57004 C -49.386354,657.27411 -48.201255,654.11138 -45.831046,652.08184 C -43.460859,650.05242 -40.468484,649.03767 -36.853912,649.03761 L -30.854342,649.03761 L -30.854342,657.7481 L -36.098411,657.7481 C -38.794532,657.74815 -40.142582,659.02213 -40.142565,661.57004 L -40.142565,667.6585 L -30.854342,667.6585 L -30.854342,674.7691 L -40.142565,674.7691 L -40.142565,713.78852 L -49.386346,713.78852 z M -25.610274,713.78852 L -25.610274,667.6585 L -16.322051,667.6585 L -16.322051,672.59148 L -16.144286,672.59148 C -13.270437,668.94734 -9.2707279,667.12525 -4.1451472,667.1252 C -0.76764258,667.12525 2.4469384,668.31035 5.4986055,670.6805 L -1.2120242,678.67993 C -3.226723,677.16896 -5.2710188,676.41346 -7.3449176,676.41342 C -9.6262576,676.41346 -11.692774,677.17637 -13.544473,678.70215 C -15.396208,680.228 -16.322067,682.67967 -16.322051,686.05718 L -16.322051,713.78852 L -25.610274,713.78852 z M 45.495737,694.23437 L 16.786685,694.23437 C 16.786672,698.0267 17.816226,700.87094 19.875352,702.76709 C 21.934445,704.66326 24.563884,705.61134 27.763675,705.61133 C 31.585595,705.61134 34.963127,704.12996 37.896282,701.1672 L 44.606911,706.90013 C 42.325555,709.56661 39.755371,711.47017 36.896353,712.61083 C 34.037269,713.75149 31.052301,714.32182 27.94144,714.32182 C 23.20102,714.32182 18.608761,712.78859 14.164651,709.72215 C 9.7205189,706.65571 7.4984583,700.38209 7.4984621,690.90127 C 7.4984583,681.92417 9.5501609,675.71722 13.653576,672.28039 C 17.756971,668.84364 22.045548,667.12525 26.51932,667.1252 C 31.585595,667.12525 36.014903,668.88068 39.807256,672.39149 C 43.599536,675.90239 45.495695,680.63538 45.495737,686.59047 L 45.495737,694.23437 z M 16.786685,686.59047 L 36.251955,686.59047 C 36.103785,683.12408 35.126079,680.47243 33.318832,678.63549 C 31.511527,676.79862 29.245025,675.88017 26.51932,675.88013 C 23.763942,675.88017 21.47522,676.79862 19.653146,678.63549 C 17.83104,680.47243 16.875554,683.12408 16.786685,686.59047 L 16.786685,686.59047 z M 55.539457,713.78852 L 55.539457,667.6585 L 64.827679,667.6585 L 64.827679,713.78852 L 55.539457,713.78852 z M 55.539457,658.32583 L 55.539457,649.03761 L 64.827679,649.03761 L 64.827679,658.32583 L 55.539457,658.32583 z "
       style="font-size:91.01569366px;font-style:normal;font-variant:normal;font-weight:normal;font-stretch:normal;text-align:center;line-height:100%;writing-mode:lr-tb;text-anchor:middle;fill:black;fill-opacity:1;stroke:none;stroke-width:1px;stroke-linecap:butt;stroke-linejoin:miter;stroke-opacity:1;font-family:DIN 1451 Mittelschrift" />
    <path
       id="text1947"
       d="M -145.44663,527.64686 L -145.44663,462.89573 L -104.02724,462.89573 L -104.02724,472.18398 L -135.62508,472.18398 L -135.62508,490.62717 L -108.69359,490.62717 L -108.69359,499.38212 L -135.62508,499.38212 L -135.62508,518.40305 L -104.02724,518.40305 L -104.02724,527.64686 L -145.44663,527.64686 z M -95.316727,527.64686 L -95.316727,481.51668 L -86.028473,481.51668 L -86.028473,527.64686 L -95.316727,527.64686 z M -95.316727,472.18398 L -95.316727,462.89573 L -86.028473,462.89573 L -86.028473,472.18398 L -95.316727,472.18398 z M -73.718206,527.64686 L -73.718206,481.51668 L -64.429952,481.51668 L -64.429952,486.44968 L -64.252186,486.44968 C -61.378327,482.80552 -57.378605,480.98343 -52.253007,480.98338 C -48.668098,480.98343 -45.209079,482.3463 -41.875939,485.07199 C -38.542874,487.79777 -36.876323,491.76787 -36.87628,496.98229 L -36.87628,527.64686 L -46.164534,527.64686 L -46.164534,500.18207 C -46.164568,497.0712 -47.031174,494.64174 -48.764356,492.89368 C -50.497601,491.14569 -52.653007,490.27167 -55.230581,490.27164 C -57.897087,490.27167 -60.096935,491.14569 -61.83013,492.89368 C -63.563361,494.64174 -64.429967,497.0712 -64.429952,500.18207 L -64.429952,527.64686 L -73.718206,527.64686 z M -29.943416,519.9585 L -23.454971,513.55893 C -19.425628,517.49941 -14.58152,519.46965 -8.922631,519.46964 C -6.2857989,519.46965 -4.1081722,518.97339 -2.3897444,517.98085 C -0.67137364,516.98834 0.18782601,515.51437 0.18785712,513.55893 C 0.18782601,510.86284 -1.6935249,509.35183 -5.4562014,509.02591 L -13.63342,508.27041 C -17.455394,507.97415 -20.625545,506.71498 -23.143881,504.49289 C -25.662232,502.27084 -26.921404,499.17476 -26.9214,495.20463 C -26.921404,490.52351 -25.277074,486.98301 -21.988404,484.58314 C -18.699753,482.18335 -14.611147,480.98343 -9.7225763,480.98338 C -5.6932475,480.98343 -2.2416351,481.55376 0.63227118,482.69438 C 3.5061143,483.83508 6.0837133,485.3535 8.3650758,487.24962 L 2.6321344,494.00471 C 0.79519128,492.76039 -1.1009735,491.73824 -3.0563655,490.93826 C -5.0118133,490.13835 -7.2338813,489.73838 -9.7225763,489.73834 C -12.685355,489.73838 -14.744471,490.26427 -15.899932,491.31601 C -17.055422,492.36782 -17.63316,493.69366 -17.633147,495.29352 C -17.63316,496.30088 -17.20356,497.23415 -16.344346,498.09332 C -15.485161,498.95255 -13.885272,499.47104 -11.544674,499.64877 L -3.9007522,500.18207 C 0.86926022,500.508 4.291245,501.98197 6.3652125,504.60399 C 8.4391054,507.22605 9.4760705,510.35917 9.4761109,514.00335 C 9.4760705,518.53638 7.6243471,522.03243 3.9209352,524.49152 C 0.21745359,526.95061 -4.3007515,528.18015 -9.6336935,528.18016 C -17.307257,528.18015 -24.077157,525.4396 -29.943416,519.9585 L -29.943416,519.9585 z M 43.118258,527.64686 L 43.118258,523.55825 L 42.896051,523.55825 C 41.029484,526.63952 37.237155,528.18015 31.519052,528.18016 C 26.363835,528.18015 22.364112,526.83951 19.519872,524.15821 C 16.675618,521.47692 15.253495,518.12159 15.253497,514.09223 C 15.253495,510.44805 16.512667,507.26309 19.031017,504.53733 C 21.549354,501.81161 25.297242,500.44875 30.274692,500.44872 L 43.118258,500.44872 L 43.118258,495.64905 C 43.118228,491.70861 39.962892,489.73838 33.652239,489.73834 C 29.267337,489.73838 26.349021,490.90867 24.897282,493.24921 L 17.608892,487.73848 C 20.838292,483.23512 26.023118,480.98343 33.163384,480.98338 C 38.851858,480.98343 43.473759,482.09446 47.029102,484.31649 C 50.584377,486.5386 52.362031,490.49388 52.362071,496.18234 L 52.362071,527.64686 L 43.118258,527.64686 z M 43.118258,511.47019 L 43.118258,508.09264 L 32.007907,508.09264 C 26.645297,508.09266 23.964001,509.94438 23.964013,513.64782 C 23.964001,515.21809 24.638029,516.58096 25.986097,517.73642 C 27.334138,518.89191 29.578427,519.46965 32.71897,519.46964 C 36.570534,519.46965 39.266644,519.04005 40.807305,518.18084 C 42.347911,517.32165 43.118228,515.08477 43.118258,511.47019 L 43.118258,511.47019 z M 64.938985,481.51668 L 64.938985,467.51764 L 74.227239,467.51764 L 74.227239,481.51668 L 80.982332,481.51668 L 80.982332,488.6273 L 74.227239,488.6273 L 74.227239,515.46991 C 74.227223,517.78088 75.323443,518.93635 77.515903,518.93634 L 80.982332,518.93634 L 80.982332,527.64686 L 76.138219,527.64686 C 72.908796,527.64686 70.234907,526.66915 68.116545,524.71373 C 65.998164,522.75831 64.938978,519.9585 64.938985,516.3143 L 64.938985,488.6273 L 60.317079,488.6273 L 60.317079,481.51668 L 64.938985,481.51668 z M 86.626394,527.64686 L 86.626394,520.31403 L 109.73592,489.73834 L 87.915195,489.73834 L 87.915195,481.51668 L 121.02404,481.51668 L 121.02404,488.89395 L 97.914511,518.93634 L 121.02404,518.93634 L 121.02404,527.64686 L 86.626394,527.64686 z M 128.80127,507.11493 L 128.80127,497.82668 L 156.22162,497.82668 L 156.22162,507.11493 L 128.80127,507.11493 z "
       style="font-size:91.01599884px;font-style:normal;font-variant:normal;font-weight:normal;font-stretch:normal;text-align:center;line-height:100%;writing-mode:lr-tb;text-anchor:middle;fill:black;fill-opacity:1;stroke:none;stroke-width:1px;stroke-linecap:butt;stroke-linejoin:miter;stroke-opacity:1;font-family:DIN 1451 Mittelschrift" />
    <path
       id="text1951"
       d="M -177.93328,618.75813 L -177.93328,579.73857 L -182.59962,579.73857 L -182.59962,572.62795 L -177.93328,572.62795 L -177.93328,566.53947 C -177.93328,562.24353 -176.74818,559.08078 -174.37796,557.05123 C -172.00777,555.02181 -169.01539,554.00706 -165.4008,554.007 L -159.40121,554.007 L -159.40121,562.71751 L -164.6453,562.71751 C -167.34143,562.71757 -168.68948,563.99155 -168.68947,566.53947 L -168.68947,572.62795 L -159.40121,572.62795 L -159.40121,579.73857 L -168.68947,579.73857 L -168.68947,618.75813 L -177.93328,618.75813 z M -129.93656,618.75813 L -129.93656,614.66952 L -130.15877,614.66952 C -132.02533,617.75079 -135.81766,619.29142 -141.53577,619.29142 C -146.69098,619.29142 -150.69071,617.95077 -153.53495,615.26948 C -156.3792,612.58818 -157.80132,609.23286 -157.80132,605.2035 C -157.80132,601.55932 -156.54215,598.37435 -154.0238,595.64859 C -151.50546,592.92288 -147.75758,591.56001 -142.78013,591.55999 L -129.93656,591.55999 L -129.93656,586.76031 C -129.93659,582.81988 -133.09193,580.84964 -139.40258,580.84961 C -143.78748,580.84964 -146.7058,582.01993 -148.15754,584.36048 L -155.44593,578.84974 C -152.21653,574.34639 -147.0317,572.0947 -139.89143,572.09465 C -134.20296,572.0947 -129.58106,573.20573 -126.02572,575.42775 C -122.47044,577.64987 -120.69279,581.60515 -120.69275,587.29361 L -120.69275,618.75813 L -129.93656,618.75813 z M -129.93656,602.58145 L -129.93656,599.20391 L -141.04691,599.20391 C -146.40952,599.20393 -149.09082,601.05565 -149.09081,604.75908 C -149.09082,606.32936 -148.41679,607.69223 -147.06872,608.84769 C -145.72068,610.00318 -143.47639,610.58091 -140.33585,610.58091 C -136.48428,610.58091 -133.78817,610.15132 -132.24751,609.29211 C -130.70691,608.43292 -129.93659,606.19603 -129.93656,602.58145 L -129.93656,602.58145 z M -108.64913,618.75813 L -108.64913,554.007 L -99.360873,554.007 L -99.360873,577.56094 L -99.183107,577.56094 C -96.309248,573.91679 -92.309526,572.0947 -87.183928,572.09465 C -83.599019,572.0947 -80.139999,573.45756 -76.806859,576.18326 C -73.473795,578.90904 -71.807244,582.87913 -71.807201,588.09356 L -71.807201,618.75813 L -81.095455,618.75813 L -81.095455,591.29334 C -81.095489,588.18247 -81.962095,585.75301 -83.695277,584.00495 C -85.428521,582.25695 -87.583927,581.38294 -90.161502,581.3829 C -92.828008,581.38294 -95.027855,582.25695 -96.761051,584.00495 C -98.494282,585.75301 -99.360888,588.18247 -99.360873,591.29334 L -99.360873,618.75813 L -108.64913,618.75813 z M -59.763583,618.75813 L -59.763583,572.62795 L -50.475329,572.62795 L -50.475329,577.56094 L -50.297563,577.56094 C -47.423704,573.91679 -43.423982,572.0947 -38.298384,572.09465 C -34.920868,572.0947 -31.706276,573.2798 -28.654599,575.64996 L -35.365251,583.64941 C -37.379957,582.13844 -39.424259,581.38294 -41.498165,581.3829 C -43.779513,581.38294 -45.846036,582.14585 -47.697741,583.67164 C -49.549483,585.19749 -50.475344,587.64917 -50.475329,591.02669 L -50.475329,618.75813 L -59.763583,618.75813 z M -27.410232,618.75813 L -27.410232,611.42529 L -4.3007012,580.84961 L -26.121431,580.84961 L -26.121431,572.62795 L 6.9874158,572.62795 L 6.9874158,580.00522 L -16.122115,610.04761 L 6.9874158,610.04761 L 6.9874158,618.75813 L -27.410232,618.75813 z M 51.695457,599.20391 L 22.986309,599.20391 C 22.986296,602.99626 24.015854,605.8405 26.074986,607.73666 C 28.134087,609.63283 30.763534,610.58091 33.963336,610.58091 C 37.785269,610.58091 41.162812,609.09954 44.095976,606.13677 L 50.806629,611.86971 C 48.525265,614.5362 45.955072,616.43977 43.096045,617.58043 C 40.236951,618.72109 37.251973,619.29142 34.141102,619.29142 C 29.400665,619.29142 24.808391,617.75819 20.364266,614.69174 C 15.920119,611.62529 13.698051,605.35165 13.698055,595.8708 C 13.698051,586.89367 15.749761,580.68669 19.85319,577.24985 C 23.956599,573.8131 28.24519,572.0947 32.718977,572.09465 C 37.785269,572.0947 42.214591,573.85013 46.006957,577.36096 C 49.79925,580.87186 51.695415,585.60487 51.695457,591.55999 L 51.695457,599.20391 z M 22.986309,591.55999 L 42.451644,591.55999 C 42.303474,588.09359 41.325764,585.44192 39.518512,583.60497 C 37.7112,581.7681 35.444691,580.84964 32.718977,580.84961 C 29.963589,580.84964 27.674859,581.7681 25.852779,583.60497 C 24.030668,585.44192 23.075178,588.09359 22.986309,591.55999 L 22.986309,591.55999 z M 61.472577,603.29252 L 61.472577,572.62795 L 70.760831,572.62795 L 70.760831,600.13718 C 70.760816,603.27772 71.627422,605.71459 73.360654,607.44779 C 75.093849,609.18101 77.293696,610.04762 79.960202,610.04761 C 82.537777,610.04762 84.693183,609.18101 86.426427,607.44779 C 88.159609,605.71459 89.026215,603.27772 89.026249,600.13718 L 89.026249,572.62795 L 98.314503,572.62795 L 98.314503,618.75813 L 89.026249,618.75813 L 89.026249,613.86957 L 88.848483,613.86957 C 85.974575,617.48414 82.00448,619.29142 76.938187,619.29142 C 73.293973,619.29142 69.805327,617.93596 66.472236,615.22503 C 63.139122,612.51411 61.472571,608.53661 61.472577,603.29252 L 61.472577,603.29252 z M 136.26746,618.71368 L 136.26746,613.95845 C 133.03802,617.51377 129.06793,619.29142 124.35716,619.29142 C 121.33513,619.29142 118.80938,618.69146 116.7799,617.49155 C 114.7504,616.29163 113.21718,615.02505 112.18022,613.69181 C 110.84697,611.97341 109.93592,610.15132 109.44707,608.22551 C 108.95821,606.29973 108.71378,602.13706 108.71379,595.73748 C 108.71378,589.33794 108.95821,585.17527 109.44707,583.24944 C 109.93592,581.32369 110.84697,579.48678 112.18022,577.73871 C 113.21718,576.43514 114.7504,575.16856 116.7799,573.93897 C 118.80938,572.70947 121.33513,572.0947 124.35716,572.09465 C 128.86054,572.0947 132.83063,573.91679 136.26746,577.56094 L 136.26746,572.62795 L 145.55571,572.62795 L 145.55571,617.69153 C 145.55567,624.62439 143.53359,629.73514 139.48946,633.02382 C 135.44526,636.31246 130.80114,637.95679 125.55708,637.95681 C 122.5943,637.95679 119.6908,637.24573 116.84657,635.82363 C 114.00231,634.40148 111.55803,632.53495 109.51373,630.22401 L 116.71324,624.49107 C 117.83908,625.61691 119.17973,626.59462 120.73519,627.4242 C 122.29062,628.25376 123.95717,628.66855 125.73485,628.66856 C 128.81609,628.66855 131.34184,627.80935 133.31211,626.09096 C 135.28231,624.37255 136.26743,621.91346 136.26746,618.71368 L 136.26746,618.71368 z M 118.00204,595.73748 C 118.00203,599.44095 118.09832,601.90004 118.29091,603.11475 C 118.48348,604.3295 118.99455,605.45534 119.82414,606.4923 C 120.4463,607.32188 121.36476,608.12183 122.57951,608.89213 C 123.79422,609.66246 125.33485,610.04762 127.20141,610.04761 C 129.00867,610.04762 130.51227,609.66246 131.71222,608.89213 C 132.91211,608.12183 133.83797,607.32188 134.4898,606.4923 C 135.28972,605.45534 135.78598,604.3295 135.97859,603.11475 C 136.17114,601.90004 136.26743,599.44095 136.26746,595.73748 C 136.26743,592.03405 136.17114,589.57496 135.97859,588.3602 C 135.78598,587.1455 135.28972,586.00484 134.4898,584.93822 C 133.83797,584.13831 132.91211,583.34577 131.71222,582.5606 C 130.51227,581.77551 129.00867,581.38294 127.20141,581.3829 C 125.33485,581.38294 123.79422,581.77551 122.57951,582.5606 C 121.36476,583.34577 120.4463,584.13831 119.82414,584.93822 C 118.99455,586.00484 118.48348,587.1455 118.29091,588.3602 C 118.09832,589.57496 118.00203,592.03405 118.00204,595.73748 L 118.00204,595.73748 z M 193.37466,599.20391 L 164.66551,599.20391 C 164.66549,602.99626 165.69505,605.8405 167.75419,607.73666 C 169.81329,609.63283 172.44273,610.58091 175.64254,610.58091 C 179.46447,610.58091 182.84201,609.09954 185.77518,606.13677 L 192.48583,611.86971 C 190.20446,614.5362 187.63427,616.43977 184.77524,617.58043 C 181.91615,618.72109 178.93117,619.29142 175.8203,619.29142 C 171.07986,619.29142 166.48759,617.75819 162.04347,614.69174 C 157.59932,611.62529 155.37725,605.35165 155.37725,595.8708 C 155.37725,586.89367 157.42896,580.68669 161.53239,577.24985 C 165.6358,573.8131 169.92439,572.0947 174.39818,572.09465 C 179.46447,572.0947 183.89379,573.85013 187.68616,577.36096 C 191.47845,580.87186 193.37461,585.60487 193.37466,591.55999 L 193.37466,599.20391 z M 164.66551,591.55999 L 184.13084,591.55999 C 183.98267,588.09359 183.00496,585.44192 181.19771,583.60497 C 179.3904,581.7681 177.12389,580.84964 174.39818,580.84961 C 171.64279,580.84964 169.35406,581.7681 167.53198,583.60497 C 165.70987,585.44192 164.75438,588.09359 164.66551,591.55999 L 164.66551,591.55999 z "
       style="font-size:91.01599884px;font-style:normal;font-variant:normal;font-weight:normal;font-stretch:normal;text-align:center;line-height:100%;writing-mode:lr-tb;text-anchor:middle;fill:black;fill-opacity:1;stroke:none;stroke-width:1px;stroke-linecap:butt;stroke-linejoin:miter;stroke-opacity:1;font-family:DIN 1451 Mittelschrift" />
  </g>
</svg>
