<?xml version="1.0" encoding="UTF-8" standalone="no"?>
<!-- Created with Inkscape (http://www.inkscape.org/) -->
<svg
   xmlns:dc="http://purl.org/dc/elements/1.1/"
   xmlns:cc="http://web.resource.org/cc/"
   xmlns:rdf="http://www.w3.org/1999/02/22-rdf-syntax-ns#"
   xmlns:svg="http://www.w3.org/2000/svg"
   xmlns="http://www.w3.org/2000/svg"
   xmlns:sodipodi="http://sodipodi.sourceforge.net/DTD/sodipodi-0.dtd"
   xmlns:inkscape="http://www.inkscape.org/namespaces/inkscape"
   version="1.0"
   width="490"
   height="360"
   id="svg2"
   sodipodi:version="0.32"
   inkscape:version="0.44"
   sodipodi:docname="Zusatzzeichen 1022-10.svg"
   sodipodi:docbase="C:\Dokumente und Einstellungen\Internet\Desktop\Wiki\SVG sonstiges (fertig)">
  <metadata
     id="metadata10">
    <rdf:RDF>
      <cc:Work
         rdf:about="">
        <dc:format>image/svg+xml</dc:format>
        <dc:type
           rdf:resource="http://purl.org/dc/dcmitype/StillImage" />
      </cc:Work>
    </rdf:RDF>
  </metadata>
  <sodipodi:namedview
     inkscape:window-height="749"
     inkscape:window-width="1024"
     inkscape:pageshadow="2"
     inkscape:pageopacity="0.0"
     guidetolerance="10.0"
     gridtolerance="10.0"
     objecttolerance="10.0"
     borderopacity="1.0"
     bordercolor="#666666"
     pagecolor="#ffffff"
     id="base"
     inkscape:zoom="1.05"
     inkscape:cx="416.64094"
     inkscape:cy="108.23622"
     inkscape:window-x="-4"
     inkscape:window-y="-4"
     inkscape:current-layer="svg2"
     showguides="true"
     inkscape:guide-bbox="true" />
  <defs
     id="defs4" />
  <path
     d="M 38.78125,4.6190618 C 20.35689,4.6190483 9.96875,14.244672 9.96875,42.683954 L 9.65625,317.31604 C 9.65625,345.75531 20.04439,355.38094 38.46875,355.38094 L 451.21875,355.33878 C 469.64311,355.33878 480.03124,345.71316 480.03125,317.27389 L 480.34375,42.726108 C 480.34375,14.286826 469.95561,4.6612021 451.53125,4.6612156 L 38.78125,4.6190618 z "
     style="fill:white;fill-opacity:1;fill-rule:evenodd;stroke:black;stroke-width:3;stroke-linecap:butt;stroke-linejoin:miter;stroke-miterlimit:4;stroke-dasharray:none;stroke-opacity:1"
     id="path1881" />
  <path
     d="M 453.23342,19.074797 L 36.79782,19.117707 C 28.375505,19.117707 23.425891,27.356247 23.425891,39.539027 L 23.425891,320.50387 C 23.425891,332.68661 28.375515,340.9252 36.79782,340.9252 L 453.20218,340.88229 C 461.62449,340.88228 466.57411,332.64373 466.57411,320.46097 L 466.57411,39.496127 C 466.57411,27.313347 461.65573,19.074797 453.23342,19.074797 z "
     style="fill:none;fill-opacity:1;fill-rule:evenodd;stroke:black;stroke-width:12;stroke-linecap:butt;stroke-linejoin:miter;stroke-miterlimit:4;stroke-dasharray:none;stroke-opacity:1"
     id="path3976" />
  <g
     id="g5674"
     transform="translate(276.4897,-456.8417)">
    <path
       id="text5654"
       d="M -91.856923,763.33719 L -91.856923,720.33319 L -96.999769,720.33319 L -96.999769,712.49648 L -91.856923,712.49648 L -91.856923,705.78629 C -91.856931,701.05166 -90.550813,697.56596 -87.938564,695.32916 C -85.326339,693.0925 -82.02839,691.97414 -78.044706,691.97407 L -71.432475,691.97407 L -71.432475,701.57405 L -77.212055,701.57405 C -80.183498,701.57411 -81.669207,702.97819 -81.669189,705.78629 L -81.669189,712.49648 L -71.432475,712.49648 L -71.432475,720.33319 L -81.669189,720.33319 L -81.669189,763.33719 L -91.856923,763.33719 z M -65.652895,763.33719 L -65.652895,712.49648 L -55.416182,712.49648 L -55.416182,717.9332 L -55.220264,717.9332 C -52.052944,713.91693 -47.644794,711.90877 -41.995801,711.90872 C -38.273394,711.90877 -34.730548,713.21489 -31.367252,715.82708 L -38.763155,724.64339 C -40.98359,722.97813 -43.236644,722.14548 -45.522325,722.14544 C -48.03663,722.14548 -50.314174,722.98629 -52.354964,724.66788 C -54.395794,726.34955 -55.416199,729.05158 -55.416182,732.77399 L -55.416182,763.33719 L -65.652895,763.33719 z M 12.714294,741.78621 L -18.926457,741.78621 C -18.926472,745.96581 -17.791781,749.1005 -15.522383,751.19027 C -13.25302,753.28008 -10.355069,754.32497 -6.8285231,754.32496 C -2.6163176,754.32497 1.10612,752.69232 4.3388008,749.42701 L 11.734704,755.74537 C 9.2203809,758.68414 6.3877365,760.78209 3.2367623,762.03923 C 0.085714918,763.29637 -3.2040709,763.92494 -6.6326051,763.92494 C -11.857106,763.92494 -16.918315,762.23515 -21.816247,758.85556 C -26.714203,755.47599 -29.163175,748.56172 -29.163171,738.11275 C -29.163175,728.21893 -26.901958,721.37813 -22.379511,717.59034 C -17.857087,713.80265 -13.130571,711.90877 -8.1999488,711.90872 C -2.6163176,711.90877 2.2653001,713.84346 6.444919,717.71279 C 10.624458,721.58221 12.714248,726.79852 12.714294,733.36174 L 12.714294,741.78621 z M -18.926457,733.36174 L 2.5265597,733.36174 C 2.363259,729.54137 1.2857112,726.61893 -0.70608672,724.59441 C -2.69795,722.56997 -5.1959016,721.55772 -8.1999488,721.55768 C -11.236699,721.55772 -13.759141,722.56997 -15.76728,724.59441 C -17.775455,726.61893 -18.828513,729.54137 -18.926457,733.36174 L -18.926457,733.36174 z M 23.783659,763.33719 L 23.783659,712.49648 L 34.020372,712.49648 L 34.020372,763.33719 L 23.783659,763.33719 z M 23.783659,702.21078 L 23.783659,691.97407 L 34.020372,691.97407 L 34.020372,702.21078 L 23.783659,702.21078 z "
       style="font-size:100.30999756px;font-style:normal;font-variant:normal;font-weight:normal;font-stretch:normal;text-align:center;line-height:100%;writing-mode:lr-tb;text-anchor:middle;fill:black;fill-opacity:1;stroke:none;stroke-width:1px;stroke-linecap:butt;stroke-linejoin:miter;stroke-opacity:1;font-family:DIN 1451 Mittelschrift" />
    <circle
       transform="matrix(0.276135,0,0,0.276135,-170.2475,505.4875)"
       sodipodi:ry="161"
       sodipodi:rx="161"
       sodipodi:cy="409"
       sodipodi:cx="215"
       cx="215"
       cy="409"
       r="161"
       style="fill:none;stroke:black;stroke-width:40px"
       id="circle2026" />
    <circle
       transform="matrix(0.276135,0,0,0.276135,-170.2475,505.4875)"
       sodipodi:ry="161"
       sodipodi:rx="161"
       sodipodi:cy="406"
       sodipodi:cx="790"
       cx="790"
       cy="406"
       r="161"
       style="fill:none;stroke:black;stroke-width:40px"
       id="circle2028" />
    <path
       d="M -51.651833,509.75851 C -88.258076,510.1153 -82.05,505.97658 -101.74459,569.27042 C -117.78872,619.84214 -116.04113,614.32711 -116.12504,617.87445 C -116.18385,620.63033 -113.95922,622.81536 -111.16374,623.00239 C -105.3501,622.41456 -107.79545,623.63114 -87.639649,561.04055 C -13.99109,638.73269 -41.622182,626.13418 -1.9872224,627.71196 C 50.103533,627.21246 54.337395,630.42354 54.955824,622.78832 C 54.884465,620.19567 53.671396,618.6496 17.921437,539.08632 L 21.346583,529.66717 L 33.120521,529.4531 L 32.692379,519.60581 L -11.192301,519.60581 C -15.069375,524.91002 -9.6224407,524.88624 10.000789,529.23903 L 6.5756439,538.87225 L -80.979643,539.08632 C -75.080781,518.48788 -78.410784,519.77231 -51.865904,519.81988 L -51.651833,509.75851 z M -83.509589,549.64428 L 2.1649865,549.49238 L -22.595572,616.02689 L -83.509589,549.64428 z M 12.494545,553.59382 L -11.8103,617.39403 L 41.356545,617.54594 L 12.494545,553.59382 z "
       style="fill:black;fill-rule:evenodd;stroke:none"
       id="path2030" />
  </g>
</svg>
