<?xml version="1.0" encoding="UTF-8" standalone="no"?>
<!-- Created with Inkscape (http://www.inkscape.org/) -->
<svg
   xmlns:svg="http://www.w3.org/2000/svg"
   xmlns="http://www.w3.org/2000/svg"
   version="1.0"
   width="490"
   height="270"
   id="svg2">
  <defs
     id="defs4" />
  <path
     d="M 38.78125,4.984375 C 20.356889,4.9843748 9.96875,12.12016 9.96875,33.203125 L 9.65625,236.79688 C 9.65625,257.87984 20.044391,265.01563 38.46875,265.01563 L 451.21875,264.98438 C 469.64311,264.98438 480.03124,257.84859 480.03125,236.76563 L 480.34375,33.234375 C 480.34375,12.15141 469.95561,5.0156248 451.53125,5.015625 L 38.78125,4.984375 z "
     style="fill:white;fill-opacity:1;fill-rule:evenodd;stroke:black;stroke-width:2;stroke-linecap:butt;stroke-linejoin:miter;stroke-miterlimit:4;stroke-dasharray:none;stroke-opacity:1"
     id="path1881" />
  <path
     d="M 453.3125,17.796875 L 36.78125,17.828125 C 28.356999,17.828125 23.40625,23.829135 23.40625,32.703125 L 23.40625,237.35938 C 23.406249,246.23335 28.35701,252.23438 36.78125,252.23438 L 453.28125,252.20313 C 461.70549,252.20312 466.65625,246.20211 466.65625,237.32813 L 466.65625,32.671875 C 466.65625,23.797885 461.73674,17.796875 453.3125,17.796875 z "
     style="fill:none;fill-opacity:1;fill-rule:evenodd;stroke:black;stroke-width:10.05090809;stroke-linecap:butt;stroke-linejoin:miter;stroke-miterlimit:4;stroke-dasharray:none;stroke-opacity:1"
     id="path3976" />
  <path
     d="M 37.10863,487.51009 L 37.10863,541.80186 L 50.66977,541.80186 L 50.66977,488.38108 L 37.10863,487.51009 z "
     style="color:black;fill:white;fill-opacity:1;fill-rule:nonzero;stroke:none;stroke-width:1;stroke-linecap:round;stroke-linejoin:miter;marker:none;marker-start:none;marker-mid:none;marker-end:none;stroke-miterlimit:4;stroke-dasharray:none;stroke-dashoffset:0;stroke-opacity:1;visibility:visible;display:inline;overflow:visible"
     id="path5404" />
  <path
     d="M 91.06256,486.09351 L 91.06256,540.38528 L 104.6237,540.38528 L 104.6237,486.9645 L 91.06256,486.09351 z "
     style="color:black;fill:white;fill-opacity:1;fill-rule:nonzero;stroke:none;stroke-width:1;stroke-linecap:round;stroke-linejoin:miter;marker:none;marker-start:none;marker-mid:none;marker-end:none;stroke-miterlimit:4;stroke-dasharray:none;stroke-dashoffset:0;stroke-opacity:1;visibility:visible;display:inline;overflow:visible"
     id="path5425" />
  <g
     transform="translate(464.4842,93.08128)"
     id="g3385">
    <path
       d="M -350.4152,99.11503 L -328.91882,99.11503 C -328.91882,64.22852 -274.90618,64.33667 -274.90618,99.11503 L -178.06468,99.11503 C -178.06468,64.46823 -124.17913,64.57405 -124.17913,99.11503 L -112.61927,99.11503 L -83.62933,89.32113 L -83.62933,-22.200388 C -83.62933,-24.217088 -85.25544,-25.855147 -87.45053,-25.855147 L -158.45473,-25.855147 L -176.86727,-36.040804 L -322.99228,-36.040804 L -353.54925,-15.277733 C -356.04851,-13.269998 -355.8201,-6.687074 -353.54925,-3.916808 L -342.97183,5.877094 L -270.13668,5.877094 L -270.10521,10.96992 L -299.48691,16.06275 L -322.60052,50.53728 L -354.33276,61.50645 L -354.33276,96.37274 C -354.33276,98.04948 -352.97545,99.11503 -350.4152,99.11503 z "
       style="color:black;fill:black;fill-opacity:1;fill-rule:nonzero;stroke:none;stroke-width:1;stroke-linecap:round;stroke-linejoin:miter;marker:none;marker-start:none;marker-mid:none;marker-end:none;stroke-miterlimit:4;stroke-dasharray:none;stroke-dashoffset:0;stroke-opacity:1;visibility:visible;display:inline;overflow:visible"
       id="path2091" />
    <path
       d="M -281.07435,99.506798 C -281.07428,110.73759 -290.16361,119.8499 -301.39436,119.87818 C -312.62511,119.90646 -321.76023,110.84004 -321.81672,99.6094 C -321.87321,88.378746 -312.82977,79.220895 -301.59929,79.136193 C -290.36883,79.05149 -281.18829,88.071904 -281.07538,99.302128"
       style="fill:black;fill-opacity:1;fill-rule:evenodd;stroke:none;stroke-width:1px;stroke-linecap:butt;stroke-linejoin:miter;stroke-opacity:1"
       id="path2085" />
    <path
       d="M -131.03175,99.506798 C -131.03168,110.73759 -140.12101,119.8499 -151.35176,119.87818 C -162.58251,119.90646 -171.71763,110.84004 -171.77412,99.6094 C -171.83061,88.378746 -162.78717,79.220895 -151.55669,79.136193 C -140.32623,79.05149 -131.14569,88.071904 -131.03278,99.302128"
       style="fill:black;fill-opacity:1;fill-rule:evenodd;stroke:none;stroke-width:1px;stroke-linecap:butt;stroke-linejoin:miter;stroke-opacity:1"
       id="path2089" />
    <path
       d="M -315.70161,51.76516 L -272.23732,50.2401 C -271.22002,50.2401 -270.2039,49.04746 -270.2039,47.9525 L -270.2039,21.51808 C -270.2039,20.58229 -271.73916,19.73884 -272.74567,19.73884 L -295.62161,19.73884 L -315.44743,47.9525 L -315.70161,51.76516 z "
       style="color:black;fill:white;fill-opacity:1;fill-rule:nonzero;stroke:none;stroke-width:1;stroke-linecap:round;stroke-linejoin:miter;marker:none;marker-start:none;marker-mid:none;marker-end:none;stroke-miterlimit:4;stroke-dasharray:none;stroke-dashoffset:0;stroke-opacity:1;visibility:visible;display:inline;overflow:visible"
       id="path2095" />
    <path
       d="M -234.85141,7.021787 L -234.85141,87.12311 C -234.85141,88.28848 -234.06211,89.53916 -232.99291,89.53916 L -188.38893,89.53916 C -187.24879,89.53916 -186.34458,88.5308 -186.34458,86.75141 L -186.34458,7.57934 C -186.34458,6.457247 -187.28046,5.163288 -188.76063,5.163288 L -232.62121,5.163288 C -234.18998,5.187979 -234.85141,6.141607 -234.85141,7.021787 z "
       style="color:black;fill:white;fill-opacity:1;fill-rule:nonzero;stroke:none;stroke-width:1;stroke-linecap:round;stroke-linejoin:miter;marker:none;marker-start:none;marker-mid:none;marker-end:none;stroke-miterlimit:4;stroke-dasharray:none;stroke-dashoffset:0;stroke-opacity:1;visibility:visible;display:inline;overflow:visible"
       id="path2097" />
    <path
       d="M -166.66121,6.610992 L -166.66121,35.6558 C -166.66574,36.61701 -166.18837,37.36432 -165.10801,37.36432 L -126.27806,37.36432 C -125.33455,37.36432 -124.56954,36.53925 -124.56954,35.50048 L -124.56954,6.688652 C -124.56954,5.839157 -125.37095,4.980134 -126.35572,4.980134 L -165.10801,4.980134 C -166.0877,4.980134 -166.66121,5.769524 -166.66121,6.610992 z "
       style="color:black;fill:white;fill-opacity:1;fill-rule:nonzero;stroke:none;stroke-width:1;stroke-linecap:round;stroke-linejoin:miter;marker:none;marker-start:none;marker-mid:none;marker-end:none;stroke-miterlimit:4;stroke-dasharray:none;stroke-dashoffset:0;stroke-opacity:1;visibility:visible;display:inline;overflow:visible"
       id="path2099" />
    <path
       d="M -313.39076,-24.80339 L -313.39076,-6.969289 C -313.39076,-6.090269 -312.99649,-5.102929 -311.73178,-5.102929 L -272.53823,-5.102929 C -271.5831,-5.102929 -270.98293,-5.986124 -270.98293,-6.969289 L -270.98293,-25.010763 C -270.98293,-25.969075 -272.04234,-26.566063 -272.84929,-26.566063 L -311.52441,-26.566063 C -312.6129,-26.566063 -313.39076,-25.734258 -313.39076,-24.80339 z "
       style="color:black;fill:white;fill-opacity:1;fill-rule:nonzero;stroke:none;stroke-width:1;stroke-linecap:round;stroke-linejoin:miter;marker:none;marker-start:none;marker-mid:none;marker-end:none;stroke-miterlimit:4;stroke-dasharray:none;stroke-dashoffset:0;stroke-opacity:1;visibility:visible;display:inline;overflow:visible"
       id="path1886" />
  </g>
</svg>
