<?xml version="1.0" encoding="UTF-8" standalone="no"?>
<!-- Created with Inkscape (http://www.inkscape.org/) -->
<svg
   xmlns:svg="http://www.w3.org/2000/svg"
   xmlns="http://www.w3.org/2000/svg"
   version="1.0"
   width="490"
   height="270"
   id="svg2">
  <defs
     id="defs4" />
  <path
     d="M 38.78125,4.984375 C 20.356889,4.9843748 9.96875,12.12016 9.96875,33.203125 L 9.65625,236.79688 C 9.65625,257.87984 20.044391,265.01563 38.46875,265.01563 L 451.21875,264.98438 C 469.64311,264.98438 480.03124,257.84859 480.03125,236.76563 L 480.34375,33.234375 C 480.34375,12.15141 469.95561,5.0156248 451.53125,5.015625 L 38.78125,4.984375 z "
     style="fill:white;fill-opacity:1;fill-rule:evenodd;stroke:black;stroke-width:2;stroke-linecap:butt;stroke-linejoin:miter;stroke-miterlimit:4;stroke-dasharray:none;stroke-opacity:1"
     id="path1881" />
  <path
     d="M 453.3125,17.796875 L 36.78125,17.828125 C 28.356999,17.828125 23.40625,23.829135 23.40625,32.703125 L 23.40625,237.35938 C 23.406249,246.23335 28.35701,252.23438 36.78125,252.23438 L 453.28125,252.20313 C 461.70549,252.20312 466.65625,246.20211 466.65625,237.32813 L 466.65625,32.671875 C 466.65625,23.797885 461.73674,17.796875 453.3125,17.796875 z "
     style="fill:none;fill-opacity:1;fill-rule:evenodd;stroke:black;stroke-width:10.05090809;stroke-linecap:butt;stroke-linejoin:miter;stroke-miterlimit:4;stroke-dasharray:none;stroke-opacity:1"
     id="path3976" />
  <path
     d="M 37.10863,487.51009 L 37.10863,541.80186 L 50.66977,541.80186 L 50.66977,488.38108 L 37.10863,487.51009 z "
     style="color:black;fill:white;fill-opacity:1;fill-rule:nonzero;stroke:none;stroke-width:1;stroke-linecap:round;stroke-linejoin:miter;marker:none;marker-start:none;marker-mid:none;marker-end:none;stroke-miterlimit:4;stroke-dasharray:none;stroke-dashoffset:0;stroke-opacity:1;visibility:visible;display:inline;overflow:visible"
     id="path5404" />
  <path
     d="M 91.06256,486.09351 L 91.06256,540.38528 L 104.6237,540.38528 L 104.6237,486.9645 L 91.06256,486.09351 z "
     style="color:black;fill:white;fill-opacity:1;fill-rule:nonzero;stroke:none;stroke-width:1;stroke-linecap:round;stroke-linejoin:miter;marker:none;marker-start:none;marker-mid:none;marker-end:none;stroke-miterlimit:4;stroke-dasharray:none;stroke-dashoffset:0;stroke-opacity:1;visibility:visible;display:inline;overflow:visible"
     id="path5425" />
  <g
     transform="matrix(0.472523,0,0,0.472523,126.8692,40.4954)"
     id="g3475">
    <g
       transform="translate(10.1636,8.029761)"
       id="g4548">
      <path
         d="M 295.23238,14.905561 C 279.95549,17.514001 272.29797,24.966621 266.23238,33.436811 L 248.45113,141.12431 L 37.388633,141.12431 C 14.754659,144.54201 19.232383,154.82662 19.232383,163.09306 L 36.388633,268.15556 L 51.513633,268.15556 C 63.437389,228.50231 144.25279,229.9376 156.82613,268.15556 L 247.51363,268.15556 C 243.13571,198.86951 342.7846,101.24363 443.48238,196.40556 L 443.48238,139.49931 L 443.73238,139.49931 L 443.73238,14.905561 L 295.23238,14.905561 z M 289.23238,42.499311 L 399.60738,42.499311 L 399.91988,139.87431 L 270.07613,140.93681 L 286.01363,47.999311 C 286.56907,46.102541 286.84967,44.193071 289.23238,42.499311 z "
         style="fill:black;fill-opacity:1;fill-rule:evenodd;stroke:none;stroke-width:1px;stroke-linecap:butt;stroke-linejoin:miter;stroke-opacity:1"
         id="path1882" />
      <path
         d="M 665.82779,917.76086 C 665.82779,960.38146 631.27697,994.93228 588.65637,994.93228 C 546.03577,994.93228 511.48495,960.38146 511.48495,917.76086 C 511.48495,875.14026 546.03577,840.58944 588.65637,840.58944 C 631.27697,840.58944 665.82779,875.14026 665.82779,917.76086 z "
         transform="translate(-230.0275,-650.8975)"
         style="opacity:1;fill:none;fill-opacity:1;fill-rule:nonzero;stroke:black;stroke-width:50;stroke-linecap:round;stroke-linejoin:round;stroke-miterlimit:4;stroke-dasharray:none;stroke-dashoffset:0;stroke-opacity:1"
         id="path1887" />
      <path
         d="M 665.82779,917.76086 C 665.82779,960.38146 631.27697,994.93228 588.65637,994.93228 C 546.03577,994.93228 511.48495,960.38146 511.48495,917.76086 C 511.48495,875.14026 546.03577,840.58944 588.65637,840.58944 C 631.27697,840.58944 665.82779,875.14026 665.82779,917.76086 z "
         transform="matrix(0.591604,0,0,0.591604,-244.0191,-234.3611)"
         style="opacity:1;fill:none;fill-opacity:1;fill-rule:nonzero;stroke:black;stroke-width:50;stroke-linecap:round;stroke-linejoin:round;stroke-miterlimit:4;stroke-dasharray:none;stroke-dashoffset:0;stroke-opacity:1"
         id="path2776" />
    </g>
  </g>
</svg>
