<?xml version="1.0" encoding="UTF-8" standalone="no"?>
<!-- Created with Inkscape (http://www.inkscape.org/) -->
<svg
   xmlns:svg="http://www.w3.org/2000/svg"
   xmlns="http://www.w3.org/2000/svg"
   version="1.0"
   width="490"
   height="490"
   id="svg2">
  <defs
     id="defs4" />
  <path
     d="M 38.781255,9.665355 C 20.356895,9.665345 9.968755,19.290965 9.968755,47.730255 L 9.656255,442.26975 C 9.656255,470.70902 20.044395,480.33465 38.468755,480.33465 L 451.21875,480.29249 C 469.6431,480.29249 480.03124,470.66687 480.03125,442.2276 L 480.34375,47.772405 C 480.34375,19.333125 469.9556,9.707495 451.53125,9.707515 L 38.781255,9.665355 z "
     style="fill:white;fill-opacity:1;fill-rule:evenodd;stroke:black;stroke-width:3;stroke-linecap:butt;stroke-linejoin:miter;stroke-miterlimit:4;stroke-dasharray:none;stroke-opacity:1"
     id="path1881" />
  <path
     d="M 453.23342,24.769243 L 36.797822,24.812153 C 28.375507,24.812153 23.425893,33.050693 23.425893,45.233473 L 23.425893,444.80943 C 23.425893,456.99217 28.375517,465.23076 36.797822,465.23076 L 453.20218,465.18785 C 461.62449,465.18784 466.57411,456.94929 466.57411,444.76653 L 466.57411,45.190573 C 466.57411,33.007793 461.65573,24.769243 453.23342,24.769243 z "
     style="fill:none;fill-opacity:1;fill-rule:evenodd;stroke:black;stroke-width:12;stroke-linecap:butt;stroke-linejoin:miter;stroke-miterlimit:4;stroke-dasharray:none;stroke-opacity:1"
     id="path3976" />
  <g
     transform="translate(-82.2419,-339.9924)"
     id="g1905">
    <path
       d="M 202.8033,651.98188 C 202.1743,605.61348 199.65815,645.51187 227.60501,576.76802 C 247.82379,530.04018 227.33543,542.62074 331.93391,540.91338 C 425.03014,542.80047 406.24915,529.32129 427.63612,578.92469 C 454.41477,642.45659 452.34797,609.20792 452.16825,650.63396 C 451.17977,696.10375 467.98383,684.42178 327.0814,685.94942 C 187.25731,684.06234 203.79175,695.92402 202.8033,651.98188 z M 231.10959,607.23098 L 250.25004,563.01925 C 253.82119,555.16582 252.68184,556.32514 261.03339,556.27966 L 394.85342,556.26524 C 402.09778,556.29186 401.03498,555.82147 404.01925,562.73525 L 423.0532,606.69181 L 231.10959,607.23098 z M 217.42074,691.02159 L 253.21546,690.94171 C 253.10563,735.88232 256.82988,733.37619 237.31002,733.66574 C 214.06591,733.57588 217.74025,735.92226 217.42074,691.02159 z M 401.75609,691.3411 L 437.61072,691.3411 C 437.37109,736.35159 440.64603,733.27634 420.35736,733.39616 C 399.37975,733.11659 402.04563,736.43147 401.75609,691.3411 z "
       style="fill:black;fill-opacity:1;fill-rule:evenodd;stroke:none"
       id="Car" />
    <path
       d="M 190.30768,729.18441 C 181.02903,729.20372 174.18448,731.74585 167.45411,734.71566 L 167.14735,750.02816 C 180.39679,745.51715 193.72552,741.07975 215.46195,750.02816 C 228.48004,753.77242 241.35742,757.83586 259.40523,750.02816 C 275.17283,743.76846 291.42359,740.36591 309.98218,750.02816 C 322.3961,754.44907 335.2037,757.84334 352.46835,750.02816 C 360.27048,747.15739 368.09496,745.26554 375.89709,744.87191 C 382.75832,744.84573 390.4969,746.20406 399.78598,750.02816 C 412.80408,753.77242 425.68143,757.83586 443.72925,750.02816 C 457.66069,744.49741 471.99924,741.19712 487.95059,747.168 C 487.95059,747.168 488.76412,732.93914 488.76412,732.93914 C 473.4098,727.43504 459.0164,729.05589 445.18636,734.71566 C 430.13888,739.92898 415.86454,739.59517 402.20171,734.84066 L 402.20171,734.71566 C 401.0585,734.36455 399.95131,734.04771 398.82735,733.71566 C 375.13299,725.8483 363.30339,729.64699 351.81648,734.71566 L 351.81648,734.93441 C 336.99331,738.80693 321.8779,740.1195 308.83183,734.71566 C 291.80446,727.16206 275.97612,728.51484 260.82399,734.71566 C 245.63751,739.97714 231.23349,739.59657 217.45589,734.71566 C 206.19816,730.67782 197.52441,729.16939 190.30768,729.18441 z "
       style="fill:black;fill-opacity:1;fill-rule:evenodd;stroke:none;stroke-width:1px;stroke-linecap:butt;stroke-linejoin:miter;stroke-opacity:1"
       id="path5597" />
    <path
       d="M 188.9727,753.30988 C 179.65692,753.32919 172.78498,755.87132 166.02767,758.84113 L 165.71968,774.15363 C 179.02214,769.64262 192.40422,765.20522 214.22763,774.15363 C 227.29782,777.89789 240.22674,781.96133 258.34677,774.15363 C 274.17747,767.89393 290.49327,764.49138 309.12613,774.15363 C 321.58973,778.57454 334.44858,781.96881 351.78233,774.15363 C 359.61568,771.28286 367.47148,769.39101 375.30483,768.99738 C 382.19352,768.9712 389.96307,770.32953 399.28932,774.15363 C 412.35951,777.89789 425.2884,781.96133 443.40846,774.15363 C 457.33588,768.64652 471.66854,765.35084 487.60152,771.21743 C 487.60152,771.21743 488.26199,756.93676 488.26199,756.93676 C 472.98175,751.58611 458.64816,753.22563 444.87139,758.84113 C 429.7637,764.05445 415.43222,763.72064 401.71472,758.96613 L 401.71472,758.84113 C 400.56694,758.49002 399.45531,758.17318 398.32686,757.84113 C 374.53767,749.97377 362.66073,753.77246 351.12785,758.84113 L 351.12785,759.05988 C 336.24535,762.9324 321.06946,764.24497 307.97117,758.84113 C 290.87565,751.28753 274.98398,752.64031 259.77121,758.84113 C 244.52396,764.10261 230.06229,763.72204 216.22955,758.84113 C 204.92677,754.80329 196.2183,753.29486 188.9727,753.30988 z "
       style="fill:black;fill-opacity:1;fill-rule:evenodd;stroke:none;stroke-width:1px;stroke-linecap:butt;stroke-linejoin:miter;stroke-opacity:1"
       id="path5633" />
    <path
       d="M 289.74471,438.80382 L 289.74471,391.15741 L 296.57937,391.15741 L 296.57937,408.48932 C 297.84383,407.29029 299.17914,406.32014 300.58533,405.57887 C 301.99149,404.83766 303.57752,404.46704 305.34343,404.46701 C 307.41452,404.46704 309.20221,404.88672 310.70652,405.72603 C 312.21077,406.5654 313.45343,407.61731 314.43451,408.88174 C 315.37193,410.10264 316.00961,411.52516 316.34756,413.14932 C 316.68545,414.77353 316.85441,417.65673 316.85444,421.79892 C 316.85441,425.98476 316.68545,428.90066 316.34756,430.54663 C 316.00961,432.19263 315.37193,433.61515 314.43451,434.81421 C 313.45343,436.10048 312.21077,437.15238 310.70652,437.96993 C 309.20221,438.78747 307.41452,439.19624 305.34343,439.19624 C 301.85523,439.19624 298.93388,437.88817 296.57937,435.27203 L 296.57937,438.80382 L 289.74471,438.80382 z M 303.28323,411.30167 C 300.07844,411.3017 298.15994,412.44626 297.52772,414.73535 C 296.89548,417.02449 296.57936,419.37902 296.57937,421.79892 C 296.57936,424.28427 296.89548,426.67149 297.52772,428.9606 C 298.15994,431.24973 300.07844,432.39429 303.28323,432.39428 C 306.48797,432.39429 308.41192,431.29333 309.05508,429.09141 C 309.69819,426.8895 310.01976,424.45868 310.01978,421.79892 C 310.01976,419.20461 309.69819,416.80648 309.05508,414.60454 C 308.41192,412.40265 306.48797,411.3017 303.28323,411.30167 L 303.28323,411.30167 z M 350.83153,424.41506 L 329.70622,424.41506 C 329.70621,427.20562 330.4638,429.29853 331.97899,430.69379 C 333.49415,432.08907 335.429,432.78671 337.78354,432.7867 C 340.59587,432.78671 343.0812,431.69665 345.23953,429.51653 L 350.17749,433.73505 C 348.49878,435.69716 346.60753,437.09788 344.50375,437.93722 C 342.39991,438.77657 340.20345,439.19624 337.91435,439.19624 C 334.42615,439.19624 331.04698,438.06803 327.77681,435.81161 C 324.50664,433.5552 322.87155,428.93881 322.87156,421.96243 C 322.87155,415.35671 324.38128,410.78937 327.40074,408.26041 C 330.42019,405.73151 333.57591,404.46704 336.86789,404.46701 C 340.59587,404.46704 343.85514,405.75876 346.64571,408.34216 C 349.43623,410.92563 350.8315,414.40836 350.83153,418.79037 L 350.83153,424.41506 z M 329.70622,418.79037 L 344.02957,418.79037 C 343.92054,416.23965 343.2011,414.28845 341.87126,412.93676 C 340.54137,411.58511 338.87358,410.90928 336.86789,410.90925 C 334.84037,410.90928 333.15623,411.58511 331.81548,412.93676 C 330.4747,414.28845 329.77161,416.23965 329.70622,418.79037 L 329.70622,418.79037 z M 358.22212,438.80382 L 358.22212,404.85943 L 365.05678,404.85943 L 365.05678,438.80382 L 358.22212,438.80382 z M 358.22212,397.99207 L 358.22212,391.15741 L 365.05678,391.15741 L 365.05678,397.99207 L 358.22212,397.99207 z "
       style="font-size:66.97312927px;font-style:normal;font-variant:normal;font-weight:normal;font-stretch:normal;text-align:center;line-height:100%;writing-mode:lr-tb;text-anchor:middle;fill:black;fill-opacity:1;stroke:none;stroke-width:1px;stroke-linecap:butt;stroke-linejoin:miter;stroke-opacity:1;font-family:DIN 1451 Mittelschrift"
       id="text1944" />
    <path
       d="M 210.59909,518.40083 L 210.59909,452.66888 L 220.02803,452.66888 L 249.75854,499.40759 L 249.939,499.40759 L 249.939,452.66888 L 259.95444,452.66888 L 259.95444,518.40083 L 250.52549,518.40083 L 220.79498,471.66212 L 220.56941,471.66212 L 220.56941,518.40083 L 210.59909,518.40083 z M 297.53488,518.40083 L 297.53488,514.25029 L 297.30931,514.25029 C 295.41447,517.37823 291.5647,518.9422 285.75998,518.9422 C 280.52667,518.9422 276.46636,517.58125 273.57904,514.85933 C 270.6917,512.13743 269.24804,508.73128 269.24804,504.64088 C 269.24804,500.9415 270.52628,497.70829 273.08278,494.94125 C 275.63926,492.17424 279.44392,490.79073 284.49677,490.7907 L 297.53488,490.7907 L 297.53488,485.91833 C 297.53485,481.91821 294.33172,479.91813 287.92548,479.91809 C 283.47416,479.91813 280.51163,481.10614 279.0379,483.48214 L 271.63911,477.88793 C 274.91743,473.31637 280.18079,471.03057 287.42922,471.03052 C 293.20386,471.03057 297.89577,472.15843 301.50497,474.41411 C 305.11409,476.66988 306.91868,480.68508 306.91872,486.4597 L 306.91872,518.40083 L 297.53488,518.40083 z M 297.53488,501.97912 L 297.53488,498.55041 L 286.25624,498.55041 C 280.8124,498.55043 278.09049,500.4302 278.0905,504.18973 C 278.09049,505.7838 278.77472,507.16731 280.14321,508.34028 C 281.51167,509.51326 283.78996,510.09975 286.97807,510.09974 C 290.88798,510.09975 293.62493,509.66365 295.18892,508.79142 C 296.75287,507.91922 297.53485,505.64845 297.53488,501.97912 L 297.53488,501.97912 z M 293.06854,464.30845 L 293.06854,454.33812 L 303.03886,454.33812 L 303.03886,464.30845 L 293.06854,464.30845 z M 276.82729,464.30845 L 276.82729,454.33812 L 286.79761,454.33812 L 286.79761,464.30845 L 276.82729,464.30845 z M 313.95659,510.59601 L 320.54332,504.09951 C 324.6337,508.09968 329.55118,510.09975 335.29579,510.09974 C 337.97256,510.09975 340.18317,509.59597 341.92763,508.58841 C 343.67203,507.58086 344.54424,506.08456 344.54428,504.09951 C 344.54424,501.36257 342.6344,499.82868 338.81472,499.49782 L 330.51364,498.73087 C 326.63377,498.43013 323.4156,497.15188 320.85912,494.89613 C 318.30262,492.64043 317.02438,489.49745 317.02438,485.46718 C 317.02438,480.71515 318.69362,477.12103 322.0321,474.6848 C 325.37057,472.24866 329.5211,471.03057 334.48372,471.03052 C 338.57409,471.03057 342.07798,471.60954 344.99542,472.76743 C 347.9128,473.92541 350.52944,475.46683 352.84536,477.39167 L 347.02558,484.24909 C 345.16081,482.98592 343.23592,481.94828 341.25091,481.13618 C 339.26584,480.32416 337.01012,479.91813 334.48372,479.91809 C 331.47607,479.91813 329.38576,480.45198 328.2128,481.51966 C 327.0398,482.58741 326.45332,483.93332 326.45333,485.55741 C 326.45332,486.58004 326.88942,487.52745 327.76165,488.39963 C 328.63385,489.27188 330.25797,489.79821 332.63403,489.97864 L 340.39373,490.52002 C 345.236,490.85088 348.70982,492.34718 350.8152,495.00892 C 352.92051,497.6707 353.97318,500.85127 353.97322,504.55065 C 353.97318,509.15235 352.09341,512.70136 348.3339,515.19769 C 344.57432,517.69403 339.98768,518.9422 334.57395,518.9422 C 326.78416,518.9422 319.91171,516.16014 313.95659,510.59601 L 313.95659,510.59601 z M 358.34934,510.59601 L 364.93607,504.09951 C 369.02644,508.09968 373.94393,510.09975 379.68853,510.09974 C 382.36531,510.09975 384.57592,509.59597 386.32038,508.58841 C 388.06478,507.58086 388.93699,506.08456 388.93702,504.09951 C 388.93699,501.36257 387.02714,499.82868 383.20747,499.49782 L 374.90639,498.73087 C 371.02652,498.43013 367.80835,497.15188 365.25187,494.89613 C 362.69537,492.64043 361.41712,489.49745 361.41713,485.46718 C 361.41712,480.71515 363.08636,477.12103 366.42485,474.6848 C 369.76331,472.24866 373.91385,471.03057 378.87647,471.03052 C 382.96683,471.03057 386.47073,471.60954 389.38817,472.76743 C 392.30554,473.92541 394.92219,475.46683 397.2381,477.39167 L 391.41832,484.24909 C 389.55356,482.98592 387.62867,481.94828 385.64366,481.13618 C 383.65859,480.32416 381.40286,479.91813 378.87647,479.91809 C 375.86881,479.91813 373.77851,480.45198 372.60554,481.51966 C 371.43255,482.58741 370.84606,483.93332 370.84608,485.55741 C 370.84606,486.58004 371.28217,487.52745 372.1544,488.39963 C 373.0266,489.27188 374.65072,489.79821 377.02677,489.97864 L 384.78648,490.52002 C 389.62875,490.85088 393.10257,492.34718 395.20795,495.00892 C 397.31326,497.6707 398.36593,500.85127 398.36597,504.55065 C 398.36593,509.15235 396.48616,512.70136 392.72665,515.19769 C 388.96707,517.69403 384.38042,518.9422 378.9667,518.9422 C 371.1769,518.9422 364.30445,516.16014 358.34934,510.59601 L 358.34934,510.59601 z M 444.20238,498.55041 L 415.05836,498.55041 C 415.05835,502.40021 416.1035,505.28754 418.19383,507.21241 C 420.28412,509.13731 422.95339,510.09975 426.20166,510.09974 C 430.08149,510.09975 433.51019,508.59594 436.48779,505.58829 L 443.30009,511.40807 C 440.98417,514.11495 438.37505,516.04735 435.47271,517.20529 C 432.57031,518.36323 429.54012,518.9422 426.38212,518.9422 C 421.56988,518.9422 416.90805,517.38575 412.3966,514.27284 C 407.88514,511.15994 405.62941,504.79128 405.62942,495.16682 C 405.62941,486.05371 407.7122,479.75271 411.87778,476.26381 C 416.04335,472.77499 420.3969,471.03057 424.93846,471.03052 C 430.08149,471.03057 434.57791,472.81259 438.42772,476.3766 C 442.27745,479.94069 444.20234,484.74538 444.20238,490.7907 L 444.20238,498.55041 z M 415.05836,490.7907 L 434.81855,490.7907 C 434.66813,487.2718 433.67561,484.57996 431.84099,482.71519 C 430.0063,480.8505 427.70546,479.91813 424.93846,479.91809 C 422.14133,479.91813 419.81793,480.8505 417.96825,482.71519 C 416.11854,484.57996 415.14858,487.2718 415.05836,490.7907 L 415.05836,490.7907 z "
       style="font-size:92.39466095px;font-style:normal;font-variant:normal;font-weight:normal;font-stretch:normal;text-align:center;line-height:100%;writing-mode:lr-tb;text-anchor:middle;fill:black;fill-opacity:1;stroke:none;stroke-width:1px;stroke-linecap:butt;stroke-linejoin:miter;stroke-opacity:1;font-family:DIN 1451 Mittelschrift"
       id="text1948" />
  </g>
</svg>
