<?xml version="1.0" encoding="UTF-8" standalone="no"?>
<!-- Created with Inkscape (http://www.inkscape.org/) -->
<svg
   xmlns:dc="http://purl.org/dc/elements/1.1/"
   xmlns:cc="http://web.resource.org/cc/"
   xmlns:rdf="http://www.w3.org/1999/02/22-rdf-syntax-ns#"
   xmlns:svg="http://www.w3.org/2000/svg"
   xmlns="http://www.w3.org/2000/svg"
   xmlns:sodipodi="http://sodipodi.sourceforge.net/DTD/sodipodi-0.dtd"
   xmlns:inkscape="http://www.inkscape.org/namespaces/inkscape"
   version="1.0"
   width="490"
   height="360"
   id="svg2"
   sodipodi:version="0.32"
   inkscape:version="0.44"
   sodipodi:docname="Zusatzzeichen 1024-14.svg"
   sodipodi:docbase="C:\Dokumente und Einstellungen\Internet\Desktop\Wiki\SVG sonstiges (fertig)">
  <metadata
     id="metadata10">
    <rdf:RDF>
      <cc:Work
         rdf:about="">
        <dc:format>image/svg+xml</dc:format>
        <dc:type
           rdf:resource="http://purl.org/dc/dcmitype/StillImage" />
      </cc:Work>
    </rdf:RDF>
  </metadata>
  <sodipodi:namedview
     inkscape:window-height="749"
     inkscape:window-width="1024"
     inkscape:pageshadow="2"
     inkscape:pageopacity="0.0"
     guidetolerance="10.0"
     gridtolerance="10.0"
     objecttolerance="10.0"
     borderopacity="1.0"
     bordercolor="#666666"
     pagecolor="#ffffff"
     id="base"
     inkscape:zoom="0.74246212"
     inkscape:cx="245"
     inkscape:cy="-86.706583"
     inkscape:window-x="-4"
     inkscape:window-y="-4"
     inkscape:current-layer="svg2"
     showguides="true"
     inkscape:guide-bbox="true" />
  <defs
     id="defs4" />
  <path
     d="M 38.78125,4.6190618 C 20.35689,4.6190483 9.96875,14.244672 9.96875,42.683954 L 9.65625,317.31604 C 9.65625,345.75531 20.04439,355.38094 38.46875,355.38094 L 451.21875,355.33878 C 469.64311,355.33878 480.03124,345.71316 480.03125,317.27389 L 480.34375,42.726108 C 480.34375,14.286826 469.95561,4.6612021 451.53125,4.6612156 L 38.78125,4.6190618 z "
     style="fill:white;fill-opacity:1;fill-rule:evenodd;stroke:black;stroke-width:3;stroke-linecap:butt;stroke-linejoin:miter;stroke-miterlimit:4;stroke-dasharray:none;stroke-opacity:1"
     id="path1881" />
  <path
     d="M 453.23342,19.074797 L 36.79782,19.117707 C 28.375505,19.117707 23.425891,27.356247 23.425891,39.539027 L 23.425891,320.50387 C 23.425891,332.68661 28.375515,340.9252 36.79782,340.9252 L 453.20218,340.88229 C 461.62449,340.88228 466.57411,332.64373 466.57411,320.46097 L 466.57411,39.496127 C 466.57411,27.313347 461.65573,19.074797 453.23342,19.074797 z "
     style="fill:none;fill-opacity:1;fill-rule:evenodd;stroke:black;stroke-width:12;stroke-linecap:butt;stroke-linejoin:miter;stroke-miterlimit:4;stroke-dasharray:none;stroke-opacity:1"
     id="path3976" />
  <g
     id="g5324"
     transform="translate(201.0649,-476.0947)">
    <path
       id="text1982"
       d="M -16.432122,774.11215 L -16.432122,731.10816 L -21.574969,731.10816 L -21.574969,723.27144 L -16.432122,723.27144 L -16.432122,716.56125 C -16.43213,711.82663 -15.126012,708.34092 -12.513763,706.10413 C -9.9015381,703.86747 -6.603589,702.7491 -2.6199056,702.74903 L 3.9923257,702.74903 L 3.9923257,712.34901 L -1.7872542,712.34901 C -4.7586967,712.34907 -6.2444064,713.75315 -6.2443879,716.56125 L -6.2443879,723.27144 L 3.9923257,723.27144 L 3.9923257,731.10816 L -6.2443879,731.10816 L -6.2443879,774.11215 L -16.432122,774.11215 z M 9.7719054,774.11215 L 9.7719054,723.27144 L 20.008619,723.27144 L 20.008619,728.70816 L 20.204537,728.70816 C 23.371857,724.69189 27.780007,722.68374 33.429,722.68369 C 37.151407,722.68374 40.694253,723.98986 44.057549,726.60204 L 36.661646,735.41835 C 34.441211,733.75309 32.188157,732.92044 29.902476,732.9204 C 27.388171,732.92044 25.110627,733.76125 23.069837,735.44284 C 21.029007,737.12451 20.008602,739.82654 20.008619,743.54895 L 20.008619,774.11215 L 9.7719054,774.11215 z M 88.139095,752.56117 L 56.498343,752.56117 C 56.498329,756.74078 57.633019,759.87546 59.902418,761.96524 C 62.171781,764.05504 65.069731,765.09993 68.596278,765.09992 C 72.808483,765.09993 76.530921,763.46729 79.763602,760.20198 L 87.159505,766.52033 C 84.645182,769.4591 81.812537,771.55706 78.661563,772.81419 C 75.510516,774.07133 72.22073,774.6999 68.792196,774.6999 C 63.567695,774.6999 58.506486,773.01011 53.608554,769.63053 C 48.710598,766.25095 46.261626,759.33669 46.26163,748.88771 C 46.261626,738.99389 48.522843,732.1531 53.045289,728.36531 C 57.567714,724.57761 62.29423,722.68374 67.224852,722.68369 C 72.808483,722.68374 77.690101,724.61842 81.86972,728.48776 C 86.049259,732.35718 88.139049,737.57349 88.139095,744.1367 L 88.139095,752.56117 z M 56.498343,744.1367 L 77.951361,744.1367 C 77.78806,740.31634 76.710512,737.3939 74.718714,735.36937 C 72.726851,733.34493 70.228899,732.33269 67.224852,732.33265 C 64.188101,732.33269 61.66566,733.34493 59.657521,735.36937 C 57.649346,737.3939 56.596288,740.31634 56.498343,744.1367 L 56.498343,744.1367 z M 99.20846,774.11215 L 99.20846,723.27144 L 109.44517,723.27144 L 109.44517,774.11215 L 99.20846,774.11215 z M 99.20846,712.98575 L 99.20846,702.74903 L 109.44517,702.74903 L 109.44517,712.98575 L 99.20846,712.98575 z "
       style="font-size:100.30999756px;font-style:normal;font-variant:normal;font-weight:normal;font-stretch:normal;text-align:center;line-height:100%;writing-mode:lr-tb;text-anchor:middle;fill:black;fill-opacity:1;stroke:none;stroke-width:1px;stroke-linecap:butt;stroke-linejoin:miter;stroke-opacity:1;font-family:DIN 1451 Mittelschrift" />
    <g
       id="layer1"
       transform="matrix(0.549144,0,0,0.549144,-142.6758,536.1839)">
      <path
         id="path1966"
         style="fill:black;fill-opacity:1;fill-rule:evenodd;stroke:none;stroke-width:1px;stroke-linecap:butt;stroke-linejoin:miter;stroke-opacity:1"
         d="M 31.761217,26.619391 L 31.306216,5.7140301 C 31.754181,4.3093648 31.994305,2.6968585 33.909231,2.7591539 L 628.71325,2.3775139 C 655.69631,7.7477606 661.04445,77.952922 675,117.14286 L 675,202.14286 C 668.20192,218.11846 660.86056,219.42544 653.57143,222.14286 L 565,221.42857 C 565,144.20059 447.85714,144.63084 447.85714,221.42857 L 210,221.42857 C 210,144.48294 95.714286,144.46188 95.714286,221.42857 L 13.571429,221.42857 C 9.6780696,220.28672 7.0245746,216.66514 4.6428571,212.5 L 5.5969572,136.28675 L 40.376483,35.905105 C 41.587822,29.237159 34.6359,29.712067 31.761217,26.619391 z " />
      <path
         id="path2856"
         style="opacity:1;fill:black;fill-opacity:1;fill-rule:nonzero;stroke:none;stroke-width:2;stroke-linecap:round;stroke-linejoin:round;stroke-miterlimit:4;stroke-dasharray:8, 2;stroke-dashoffset:0;stroke-opacity:1"
         transform="matrix(1.08125,0,0,1.08125,-58.95434,-28.22524)"
         d="M 566.16677,231.14012 C 566.17704,254.99373 546.84274,274.33634 522.98914,274.33634 C 499.13553,274.33634 479.80123,254.99373 479.8115,231.14012 C 479.80123,207.28651 499.13553,187.9439 522.98914,187.9439 C 546.84274,187.9439 566.17704,207.28651 566.16677,231.14012 L 566.16677,231.14012 z " />
      <path
         id="path3745"
         style="opacity:1;fill:black;fill-opacity:1;fill-rule:nonzero;stroke:none;stroke-width:2;stroke-linecap:round;stroke-linejoin:round;stroke-miterlimit:4;stroke-dasharray:8, 2;stroke-dashoffset:0;stroke-opacity:1"
         transform="matrix(1.08125,0,0,1.08125,-412.2014,-27.95538)"
         d="M 566.16677,231.14012 C 566.17704,254.99373 546.84274,274.33634 522.98914,274.33634 C 499.13553,274.33634 479.80123,254.99373 479.8115,231.14012 C 479.80123,207.28651 499.13553,187.9439 522.98914,187.9439 C 546.84274,187.9439 566.17704,207.28651 566.16677,231.14012 L 566.16677,231.14012 z " />
      <path
         id="path3747"
         style="fill:white;fill-opacity:1;fill-rule:evenodd;stroke:none;stroke-width:1px;stroke-linecap:butt;stroke-linejoin:miter;stroke-opacity:1"
         d="M 531.61675,40.718007 L 552.142,110.69117 C 553.35031,113.54485 554.53622,116.41596 557.8805,117.60833 L 629.04027,117.43371 C 631.87882,114.96101 634.80496,112.64856 635.25102,107.54413 L 615.09087,37.58684 C 613.44354,32.067784 611.173,30.495693 608.80472,29.542611 L 536.28374,29.633887 C 532.7483,31.744775 531.50679,35.690805 531.61675,40.718007 z " />
      <path
         id="path4634"
         style="fill:white;fill-opacity:1;fill-rule:evenodd;stroke:none;stroke-width:1px;stroke-linecap:butt;stroke-linejoin:miter;stroke-opacity:1"
         d="M 429.39705,40.58628 L 449.9223,110.55944 C 451.13061,113.41312 452.31652,116.28423 455.6608,117.4766 L 526.82057,117.30198 C 529.65912,114.82928 532.58526,112.51683 533.03132,107.4124 L 512.87117,37.455113 C 511.22384,31.936057 508.9533,30.363966 506.58502,29.410884 L 434.06404,29.50216 C 430.5286,31.613048 429.28709,35.559078 429.39705,40.58628 z " />
      <path
         id="path4636"
         style="fill:white;fill-opacity:1;fill-rule:evenodd;stroke:none;stroke-width:1px;stroke-linecap:butt;stroke-linejoin:miter;stroke-opacity:1"
         d="M 327.98862,40.586273 L 348.51387,110.55944 C 349.72218,113.41312 350.90809,116.28423 354.25237,117.4766 L 425.41214,117.30198 C 428.25069,114.82928 431.17683,112.51683 431.62289,107.4124 L 411.46274,37.455106 C 409.81541,31.93605 407.54487,30.363959 405.17659,29.410877 L 332.65561,29.502153 C 329.12017,31.613041 327.87866,35.559071 327.98862,40.586273 z " />
      <path
         id="path4638"
         style="fill:white;fill-opacity:1;fill-rule:evenodd;stroke:none;stroke-width:1px;stroke-linecap:butt;stroke-linejoin:miter;stroke-opacity:1"
         d="M 227.1726,40.586276 L 247.69785,110.55944 C 248.90616,113.41312 250.09207,116.28423 253.43635,117.4766 L 324.59612,117.30198 C 327.43467,114.82928 330.36081,112.51683 330.80687,107.4124 L 310.64672,37.455109 C 308.99939,31.936053 306.72885,30.363962 304.36057,29.41088 L 231.83959,29.502156 C 228.30415,31.613044 227.06264,35.559074 227.1726,40.586276 z " />
      <path
         id="path4640"
         style="fill:white;fill-opacity:1;fill-rule:evenodd;stroke:none;stroke-width:1px;stroke-linecap:butt;stroke-linejoin:miter;stroke-opacity:1"
         d="M 142.51433,35.694816 L 142.50232,110.96203 C 143.71063,113.81571 145.80931,116.50427 149.15359,117.69664 L 223.05166,117.43074 C 225.89021,114.95804 228.81635,112.64559 229.26241,107.54116 L 209.10226,37.583869 C 207.45493,32.064813 205.18439,30.492722 202.81611,29.53964 L 148.00281,29.448363 C 144.46737,31.559251 143.68225,31.580382 142.51433,35.694816 z " />
      <path
         id="path4642"
         style="fill:white;fill-opacity:1;fill-rule:evenodd;stroke:none;stroke-width:1px;stroke-linecap:butt;stroke-linejoin:miter;stroke-opacity:1"
         d="M 124.8189,37.998446 L 124.68904,110.81147 C 123.48073,113.66515 122.29482,116.53626 118.95054,117.72863 L 35.269552,117.29584 C 32.431002,114.82314 29.504862,112.51069 29.058802,107.40626 L 54.124173,37.707145 C 55.771503,32.188089 58.04204,30.615998 60.41032,29.662916 L 120.15191,29.883276 C 123.68735,31.994164 124.92886,32.971244 124.8189,37.998446 z " />
    </g>
  </g>
</svg>
