<?xml version="1.0" encoding="UTF-8" standalone="no"?>
<!-- Created with Inkscape (http://www.inkscape.org/) -->
<svg
   xmlns:dc="http://purl.org/dc/elements/1.1/"
   xmlns:cc="http://web.resource.org/cc/"
   xmlns:rdf="http://www.w3.org/1999/02/22-rdf-syntax-ns#"
   xmlns:svg="http://www.w3.org/2000/svg"
   xmlns="http://www.w3.org/2000/svg"
   xmlns:sodipodi="http://sodipodi.sourceforge.net/DTD/sodipodi-0.dtd"
   xmlns:inkscape="http://www.inkscape.org/namespaces/inkscape"
   version="1.0"
   width="490"
   height="360"
   id="svg2"
   sodipodi:version="0.32"
   inkscape:version="0.44"
   sodipodi:docname="Zusatzzeichen 1028-34.svg"
   sodipodi:docbase="C:\Dokumente und Einstellungen\Internet\Desktop\Wiki\SVG sonstiges (fertig)">
  <metadata
     id="metadata10">
    <rdf:RDF>
      <cc:Work
         rdf:about="">
        <dc:format>image/svg+xml</dc:format>
        <dc:type
           rdf:resource="http://purl.org/dc/dcmitype/StillImage" />
      </cc:Work>
    </rdf:RDF>
  </metadata>
  <sodipodi:namedview
     inkscape:window-height="749"
     inkscape:window-width="1024"
     inkscape:pageshadow="2"
     inkscape:pageopacity="0.0"
     guidetolerance="10.0"
     gridtolerance="10.0"
     objecttolerance="10.0"
     borderopacity="1.0"
     bordercolor="#666666"
     pagecolor="#ffffff"
     id="base"
     inkscape:zoom="0.74246212"
     inkscape:cx="245"
     inkscape:cy="104.07398"
     inkscape:window-x="-4"
     inkscape:window-y="-4"
     inkscape:current-layer="svg2"
     showguides="true"
     inkscape:guide-bbox="true" />
  <defs
     id="defs4" />
  <path
     d="M 38.78125,4.6190618 C 20.35689,4.6190483 9.96875,14.244672 9.96875,42.683954 L 9.65625,317.31604 C 9.65625,345.75531 20.04439,355.38094 38.46875,355.38094 L 451.21875,355.33878 C 469.64311,355.33878 480.03124,345.71316 480.03125,317.27389 L 480.34375,42.726108 C 480.34375,14.286826 469.95561,4.6612021 451.53125,4.6612156 L 38.78125,4.6190618 z "
     style="fill:white;fill-opacity:1;fill-rule:evenodd;stroke:black;stroke-width:3;stroke-linecap:butt;stroke-linejoin:miter;stroke-miterlimit:4;stroke-dasharray:none;stroke-opacity:1"
     id="path1881" />
  <path
     d="M 453.23342,19.074797 L 36.79782,19.117707 C 28.375505,19.117707 23.425891,27.356247 23.425891,39.539027 L 23.425891,320.50387 C 23.425891,332.68661 28.375515,340.9252 36.79782,340.9252 L 453.20218,340.88229 C 461.62449,340.88228 466.57411,332.64373 466.57411,320.46097 L 466.57411,39.496127 C 466.57411,27.313347 461.65573,19.074797 453.23342,19.074797 z "
     style="fill:none;fill-opacity:1;fill-rule:evenodd;stroke:black;stroke-width:12;stroke-linecap:butt;stroke-linejoin:miter;stroke-miterlimit:4;stroke-dasharray:none;stroke-opacity:1"
     id="path3976" />
  <g
     id="g3877"
     transform="translate(1.216565,-381.0272)">
    <path
       id="text1982"
       d="M 180.03386,696.04556 L 180.03386,650.63207 L 174.60286,650.63207 L 174.60286,642.35627 L 180.03386,642.35627 L 180.03386,635.27011 C 180.03385,630.27021 181.41315,626.5892 184.17176,624.22708 C 186.93035,621.8651 190.41308,620.68407 194.61996,620.684 L 201.60268,620.684 L 201.60268,630.82186 L 195.49927,630.82186 C 192.36134,630.82193 190.79238,632.30467 190.7924,635.27011 L 190.7924,642.35627 L 201.60268,642.35627 L 201.60268,650.63207 L 190.7924,650.63207 L 190.7924,696.04556 L 180.03386,696.04556 z M 207.70608,696.04556 L 207.70608,642.35627 L 218.51635,642.35627 L 218.51635,648.09761 L 218.72325,648.09761 C 222.06803,643.85631 226.72317,641.73563 232.68867,641.73558 C 236.61965,641.73563 240.361,643.11493 243.91274,645.87348 L 236.10244,655.18377 C 233.7576,653.4252 231.37831,652.5459 228.96456,652.54585 C 226.30938,652.5459 223.90423,653.43382 221.74909,655.20963 C 219.59391,656.98552 218.51634,659.83894 218.51635,663.76991 L 218.51635,696.04556 L 207.70608,696.04556 z M 290.46415,673.28709 L 257.05058,673.28709 C 257.05057,677.70087 258.24883,681.01119 260.64539,683.21806 C 263.0419,685.42495 266.10222,686.52839 269.82636,686.52838 C 274.27457,686.52839 278.20558,684.80427 281.61938,681.356 L 289.42968,688.02837 C 286.77448,691.1318 283.78312,693.3473 280.4556,694.67488 C 277.128,696.00246 273.65389,696.66624 270.03325,696.66624 C 264.51603,696.66624 259.17124,694.88178 253.99888,691.31283 C 248.82649,687.7439 246.24031,680.44223 246.24031,669.40781 C 246.24031,658.95964 248.62822,651.73556 253.40406,647.73554 C 258.17987,643.73562 263.17121,641.73563 268.37809,641.73558 C 274.27457,641.73563 279.42971,643.77872 283.84351,647.86485 C 288.25722,651.95107 290.4641,657.45965 290.46415,664.3906 L 290.46415,673.28709 z M 257.05058,664.3906 L 279.7056,664.3906 C 279.53315,660.35618 278.39523,657.27 276.29183,655.13204 C 274.18837,652.99417 271.55046,651.92521 268.37809,651.92517 C 265.1712,651.92521 262.50742,652.99417 260.38677,655.13204 C 258.26608,657.27 257.15402,660.35618 257.05058,664.3906 L 257.05058,664.3906 z M 302.15372,696.04556 L 302.15372,642.35627 L 312.964,642.35627 L 312.964,696.04556 L 302.15372,696.04556 z M 302.15372,631.49427 L 302.15372,620.684 L 312.964,620.684 L 312.964,631.49427 L 302.15372,631.49427 z "
       style="font-size:105.93032074px;font-style:normal;font-variant:normal;font-weight:normal;font-stretch:normal;text-align:center;line-height:100%;writing-mode:lr-tb;text-anchor:middle;fill:black;fill-opacity:1;stroke:none;stroke-width:1px;stroke-linecap:butt;stroke-linejoin:miter;stroke-opacity:1;font-family:DIN 1451 Mittelschrift" />
    <path
       id="text1888"
       d="M 125.02597,500.74942 L 125.02597,425.38808 L 173.2324,425.38808 L 173.2324,436.19832 L 136.45689,436.19832 L 136.45689,458.38776 L 167.80142,458.38776 L 167.80142,468.57732 L 136.45689,468.57732 L 136.45689,500.74942 L 125.02597,500.74942 z M 209.18032,500.74942 L 209.18032,495.99084 L 208.9217,495.99084 C 206.74928,499.57702 202.33553,501.3701 195.68045,501.3701 C 189.6805,501.3701 185.02537,499.80977 181.71507,496.68911 C 178.40476,493.56846 176.7496,489.66333 176.7496,484.97371 C 176.7496,480.73239 178.2151,477.02553 181.14611,473.85313 C 184.07711,470.68077 188.43913,469.09458 194.23219,469.09455 L 209.18032,469.09455 L 209.18032,463.5084 C 209.18029,458.92228 205.50791,456.6292 198.16319,456.62916 C 193.05977,456.6292 189.66325,457.99126 187.97363,460.71532 L 179.49096,454.30159 C 183.24953,449.06032 189.28395,446.43966 197.59423,446.4396 C 204.21482,446.43966 209.59407,447.73275 213.732,450.31887 C 217.86985,452.9051 219.93879,457.5085 219.93884,464.12908 L 219.93884,500.74942 L 209.18032,500.74942 z M 209.18032,481.92201 L 209.18032,477.99102 L 196.24941,477.99102 C 190.00808,477.99104 186.88742,480.14619 186.88744,484.45647 C 186.88742,486.28405 187.6719,487.87024 189.24086,489.21505 C 190.80979,490.55987 193.42184,491.23228 197.07699,491.23227 C 201.55968,491.23228 204.69758,490.73228 206.49069,489.73228 C 208.28374,488.7323 209.18029,486.12888 209.18032,481.92201 L 209.18032,481.92201 z M 204.05968,438.73278 L 204.05968,427.30186 L 215.4906,427.30186 L 215.4906,438.73278 L 204.05968,438.73278 z M 185.43917,438.73278 L 185.43917,427.30186 L 196.8701,427.30186 L 196.8701,438.73278 L 185.43917,438.73278 z M 233.95594,500.74942 L 233.95594,425.38808 L 244.76618,425.38808 L 244.76618,452.80161 L 244.97307,452.80161 C 248.31785,448.56032 252.97297,446.43966 258.93845,446.4396 C 263.11079,446.43966 267.13661,448.02585 271.01592,451.19818 C 274.89515,454.37061 276.83478,458.99125 276.83483,465.06011 L 276.83483,500.74942 L 266.02459,500.74942 L 266.02459,468.78421 C 266.02455,465.16359 265.01594,462.33604 262.99876,460.30154 C 260.9815,458.26712 258.47291,457.24988 255.47297,457.24984 C 252.36953,457.24988 249.80921,458.26712 247.79201,460.30154 C 245.77477,462.33604 244.76616,465.16359 244.76618,468.78421 L 244.76618,500.74942 L 233.95594,500.74942 z M 290.85193,500.74942 L 290.85193,447.06029 L 301.66217,447.06029 L 301.66217,452.80161 L 301.86907,452.80161 C 305.21384,448.56032 309.86896,446.43966 315.83445,446.4396 C 319.76541,446.43966 323.50675,447.81895 327.05848,450.57749 L 319.24821,459.88775 C 316.90337,458.12919 314.52409,457.24988 312.11035,457.24984 C 309.45517,457.24988 307.05003,458.13781 304.8949,459.91361 C 302.73973,461.68949 301.66216,464.54291 301.66217,468.47387 L 301.66217,500.74942 L 290.85193,500.74942 z M 330.62741,476.8531 L 330.62741,466.04286 L 362.54089,466.04286 L 362.54089,476.8531 L 330.62741,476.8531 z "
       style="font-size:105.93000031px;font-style:normal;font-variant:normal;font-weight:normal;font-stretch:normal;text-align:center;line-height:100%;writing-mode:lr-tb;text-anchor:middle;fill:black;fill-opacity:1;stroke:none;stroke-width:1px;stroke-linecap:butt;stroke-linejoin:miter;stroke-opacity:1;font-family:DIN 1451 Mittelschrift" />
    <path
       id="text1892"
       d="M 50.13016,595.53512 L 50.13016,520.17379 L 60.940399,520.17379 L 60.940399,547.58731 C 62.94036,545.69083 65.052406,544.15636 67.276544,542.98391 C 69.500634,541.81156 72.009228,541.22536 74.802333,541.22531 C 78.078128,541.22536 80.905684,541.88915 83.285009,543.21667 C 85.664253,544.54429 87.629749,546.20807 89.181503,548.208 C 90.664199,550.13906 91.672809,552.38903 92.207335,554.95793 C 92.741763,557.52691 93.009002,562.08721 93.009052,568.63883 C 93.009002,575.25948 92.741763,579.8715 92.207335,582.4749 C 91.672809,585.07834 90.664199,587.32831 89.181503,589.22484 C 87.629749,591.25931 85.664253,592.92308 83.285009,594.21617 C 80.905684,595.50926 78.078128,596.1558 74.802333,596.15581 C 69.285119,596.1558 64.664479,594.08686 60.940399,589.94897 L 60.940399,595.53512 L 50.13016,595.53512 z M 71.543744,552.03555 C 66.474805,552.03559 63.440354,553.84592 62.440385,557.46653 C 61.440376,561.08722 60.940381,564.81131 60.940399,568.63883 C 60.940381,572.56985 61.440376,576.34567 62.440385,579.96631 C 63.440354,583.58697 66.474805,585.3973 71.543744,585.39729 C 76.612626,585.3973 79.655697,583.65594 80.672965,580.1732 C 81.690158,576.6905 82.198773,572.84571 82.198812,568.63883 C 82.198773,564.53546 81.690158,560.74239 80.672965,557.25963 C 79.655697,553.77695 76.612626,552.03559 71.543744,552.03555 L 71.543744,552.03555 z M 146.74991,572.77672 L 113.33644,572.77672 C 113.33643,577.19049 114.53469,580.5008 116.93123,582.70766 C 119.32774,584.91455 122.38805,586.01798 126.11218,586.01797 C 130.56038,586.01798 134.49137,584.29386 137.90517,580.84561 L 145.71544,587.51796 C 143.06024,590.62138 140.0689,592.83688 136.74138,594.16445 C 133.4138,595.49202 129.9397,596.1558 126.31907,596.15581 C 120.80186,596.1558 115.45709,594.37134 110.28475,590.80241 C 105.11238,587.23349 102.5262,579.93184 102.5262,568.89745 C 102.5262,558.44931 104.9141,551.22525 109.68992,547.22525 C 114.46572,543.22534 119.45705,541.22536 124.66392,541.22531 C 130.56038,541.22536 135.7155,543.26844 140.12928,547.35456 C 144.54299,551.44077 146.74986,556.94933 146.74991,563.88026 L 146.74991,572.77672 z M 113.33644,563.88026 L 135.99139,563.88026 C 135.81894,559.84585 134.68102,556.75968 132.57763,554.62173 C 130.47417,552.48386 127.83627,551.41491 124.66392,551.41486 C 121.45703,551.41491 118.79326,552.48386 116.67262,554.62173 C 114.55193,556.75968 113.43987,559.84585 113.33644,563.88026 L 113.33644,563.88026 z M 158.12911,595.53512 L 158.12911,541.84599 L 168.93935,541.84599 L 168.93935,547.58731 L 169.14624,547.58731 C 172.49101,543.34603 177.14614,541.22536 183.11162,541.22531 C 187.28396,541.22536 191.30978,542.81155 195.18909,545.98388 C 199.06831,549.15631 201.00795,553.77695 201.008,559.84582 L 201.008,595.53512 L 190.19776,595.53512 L 190.19776,563.56992 C 190.19772,559.9493 189.18911,557.12174 187.17193,555.08724 C 185.15467,553.05282 182.64608,552.03559 179.64614,552.03555 C 176.54269,552.03559 173.98238,553.05282 171.96518,555.08724 C 169.94794,557.12174 168.93933,559.9493 168.93935,563.56992 L 168.93935,595.53512 L 158.12911,595.53512 z M 215.0251,577.5353 L 215.0251,541.84599 L 225.83534,541.84599 L 225.83534,573.86292 C 225.83532,577.51807 226.84393,580.35425 228.86118,582.37146 C 230.87837,584.38869 233.43869,585.3973 236.54213,585.39729 C 239.54207,585.3973 242.05067,584.38869 244.06792,582.37146 C 246.08511,580.35425 247.09372,577.51807 247.09376,573.86292 L 247.09376,541.84599 L 257.90399,541.84599 L 257.90399,595.53512 L 247.09376,595.53512 L 247.09376,589.84552 L 246.88686,589.84552 C 243.54203,594.05238 238.92139,596.1558 233.02493,596.15581 C 228.78357,596.1558 224.72327,594.57824 220.84401,591.42309 C 216.96473,588.26796 215.0251,583.6387 215.0251,577.5353 L 215.0251,577.5353 z M 272.54178,541.84599 L 272.54178,525.55305 L 283.35202,525.55305 L 283.35202,541.84599 L 291.21401,541.84599 L 291.21401,550.12177 L 283.35202,550.12177 L 283.35202,581.36285 C 283.352,584.05249 284.62785,585.3973 287.17957,585.39729 L 291.21401,585.39729 L 291.21401,595.53512 L 285.57614,595.53512 C 281.81754,595.53512 278.7055,594.3972 276.24002,592.12136 C 273.77452,589.84553 272.54178,586.58694 272.54178,582.3456 L 272.54178,550.12177 L 267.16253,550.12177 L 267.16253,541.84599 L 272.54178,541.84599 z M 297.78292,595.53512 L 297.78292,587.00072 L 324.67921,551.41486 L 299.28291,551.41486 L 299.28291,541.84599 L 337.81701,541.84599 L 337.81701,550.43211 L 310.92072,585.39729 L 337.81701,585.39729 L 337.81701,595.53512 L 297.78292,595.53512 z M 389.85097,572.77672 L 356.4375,572.77672 C 356.43749,577.19049 357.63575,580.5008 360.0323,582.70766 C 362.4288,584.91455 365.48912,586.01798 369.21324,586.01797 C 373.66144,586.01798 377.59243,584.29386 381.00623,580.84561 L 388.8165,587.51796 C 386.16131,590.62138 383.16996,592.83688 379.84245,594.16445 C 376.51486,595.49202 373.04076,596.1558 369.42014,596.15581 C 363.90293,596.1558 358.55816,594.37134 353.38581,590.80241 C 348.21344,587.23349 345.62726,579.93184 345.62726,568.89745 C 345.62726,558.44931 348.01517,551.22525 352.79099,547.22525 C 357.56679,543.22534 362.55811,541.22536 367.76498,541.22531 C 373.66144,541.22536 378.81656,543.26844 383.23035,547.35456 C 387.64405,551.44077 389.85092,556.94933 389.85097,563.88026 L 389.85097,572.77672 z M 356.4375,563.88026 L 379.09245,563.88026 C 378.92001,559.84585 377.78209,556.75968 375.6787,554.62173 C 373.57524,552.48386 370.93733,551.41491 367.76498,551.41486 C 364.55809,551.41491 361.89433,552.48386 359.77368,554.62173 C 357.65299,556.75968 356.54094,559.84585 356.4375,563.88026 L 356.4375,563.88026 z M 401.23017,595.53512 L 401.23017,541.84599 L 412.04041,541.84599 L 412.04041,547.58731 L 412.2473,547.58731 C 415.59207,543.34603 420.2472,541.22536 426.21268,541.22531 C 430.14364,541.22536 433.88498,542.60466 437.43671,545.3632 L 429.62644,554.67345 C 427.2816,552.91489 424.90232,552.03559 422.48858,552.03555 C 419.83341,552.03559 417.42826,552.92351 415.27313,554.69931 C 413.11796,556.4752 412.04039,559.32862 412.04041,563.25958 L 412.04041,595.53512 L 401.23017,595.53512 z "
       style="font-size:105.93000031px;font-style:normal;font-variant:normal;font-weight:normal;font-stretch:normal;text-align:center;line-height:100%;writing-mode:lr-tb;text-anchor:middle;fill:black;fill-opacity:1;stroke:none;stroke-width:1px;stroke-linecap:butt;stroke-linejoin:miter;stroke-opacity:1;font-family:DIN 1451 Mittelschrift" />
  </g>
</svg>
