<?xml version="1.0" encoding="UTF-8" standalone="no"?>
<!-- Created with Inkscape (http://www.inkscape.org/) -->
<svg
   xmlns:dc="http://purl.org/dc/elements/1.1/"
   xmlns:cc="http://web.resource.org/cc/"
   xmlns:rdf="http://www.w3.org/1999/02/22-rdf-syntax-ns#"
   xmlns:svg="http://www.w3.org/2000/svg"
   xmlns="http://www.w3.org/2000/svg"
   xmlns:sodipodi="http://sodipodi.sourceforge.net/DTD/sodipodi-0.dtd"
   xmlns:inkscape="http://www.inkscape.org/namespaces/inkscape"
   version="1.0"
   width="490"
   height="360"
   id="svg2"
   sodipodi:version="0.32"
   inkscape:version="0.44"
   sodipodi:docname="Zusatzzeichen 1026-35.svg"
   sodipodi:docbase="C:\Dokumente und Einstellungen\Internet\Desktop\Wiki\SVG sonstiges (fertig)">
  <metadata
     id="metadata10">
    <rdf:RDF>
      <cc:Work
         rdf:about="">
        <dc:format>image/svg+xml</dc:format>
        <dc:type
           rdf:resource="http://purl.org/dc/dcmitype/StillImage" />
      </cc:Work>
    </rdf:RDF>
  </metadata>
  <sodipodi:namedview
     inkscape:window-height="749"
     inkscape:window-width="1024"
     inkscape:pageshadow="2"
     inkscape:pageopacity="0.0"
     guidetolerance="10.0"
     gridtolerance="10.0"
     objecttolerance="10.0"
     borderopacity="1.0"
     bordercolor="#666666"
     pagecolor="#ffffff"
     id="base"
     inkscape:zoom="0.74246212"
     inkscape:cx="245"
     inkscape:cy="191.38167"
     inkscape:window-x="-4"
     inkscape:window-y="-4"
     inkscape:current-layer="svg2"
     showguides="true"
     inkscape:guide-bbox="true" />
  <defs
     id="defs4" />
  <path
     d="M 38.78125,4.6190618 C 20.35689,4.6190483 9.96875,14.244672 9.96875,42.683954 L 9.65625,317.31604 C 9.65625,345.75531 20.04439,355.38094 38.46875,355.38094 L 451.21875,355.33878 C 469.64311,355.33878 480.03124,345.71316 480.03125,317.27389 L 480.34375,42.726108 C 480.34375,14.286826 469.95561,4.6612021 451.53125,4.6612156 L 38.78125,4.6190618 z "
     style="fill:white;fill-opacity:1;fill-rule:evenodd;stroke:black;stroke-width:3;stroke-linecap:butt;stroke-linejoin:miter;stroke-miterlimit:4;stroke-dasharray:none;stroke-opacity:1"
     id="path1881" />
  <path
     d="M 453.23342,19.074797 L 36.79782,19.117707 C 28.375505,19.117707 23.425891,27.356247 23.425891,39.539027 L 23.425891,320.50387 C 23.425891,332.68661 28.375515,340.9252 36.79782,340.9252 L 453.20218,340.88229 C 461.62449,340.88228 466.57411,332.64373 466.57411,320.46097 L 466.57411,39.496127 C 466.57411,27.313347 461.65573,19.074797 453.23342,19.074797 z "
     style="fill:none;fill-opacity:1;fill-rule:evenodd;stroke:black;stroke-width:12;stroke-linecap:butt;stroke-linejoin:miter;stroke-miterlimit:4;stroke-dasharray:none;stroke-opacity:1"
     id="path3976" />
  <g
     id="g4039"
     transform="translate(55.09133,-395.1993)">
    <path
       style="font-size:101.63775635px;font-style:normal;font-variant:normal;font-weight:normal;font-stretch:normal;text-align:center;line-height:100%;writing-mode:lr-tb;text-anchor:middle;fill:black;fill-opacity:1;stroke:none;stroke-width:1px;stroke-linecap:butt;stroke-linejoin:miter;stroke-opacity:1;font-family:DIN 1451 Mittelschrift"
       d="M 129.01275,706.92426 L 129.01275,663.35104 L 123.80183,663.35104 L 123.80183,655.41059 L 129.01275,655.41059 L 129.01275,648.61158 C 129.01274,643.81429 130.33615,640.28245 132.98297,638.01605 C 135.62978,635.74978 138.97138,634.61661 143.00779,634.61654 L 149.70755,634.61654 L 149.70755,644.34359 L 143.85147,644.34359 C 140.84069,644.34365 139.33532,645.76632 139.33533,648.61158 L 139.33533,655.41059 L 149.70755,655.41059 L 149.70755,663.35104 L 139.33533,663.35104 L 139.33533,706.92426 L 129.01275,706.92426 z M 155.56363,706.92426 L 155.56363,655.41059 L 165.93584,655.41059 L 165.93584,660.91928 L 166.13435,660.91928 C 169.3436,656.84985 173.8101,654.81511 179.53386,654.81506 C 183.30554,654.81511 186.89528,656.13852 190.3031,658.78529 L 182.8093,667.71829 C 180.55947,666.03099 178.27659,665.18731 175.96066,665.18727 C 173.41307,665.18731 171.10538,666.03926 169.03758,667.74311 C 166.96974,669.44703 165.93582,672.18483 165.93584,675.95651 L 165.93584,706.92426 L 155.56363,706.92426 z M 234.96813,685.08802 L 202.90856,685.08802 C 202.90855,689.32295 204.05826,692.49913 206.3577,694.61656 C 208.6571,696.73403 211.59341,697.79275 215.16663,697.79274 C 219.43459,697.79275 223.2063,696.13849 226.48177,692.82996 L 233.97557,699.23195 C 231.42797,702.20962 228.55783,704.33535 225.36515,705.60912 C 222.17239,706.88291 218.83906,707.51979 215.36514,707.5198 C 210.07149,707.51979 204.94329,705.80764 199.98052,702.38332 C 195.01773,698.95901 192.53635,691.95322 192.53635,681.36594 C 192.53635,671.34116 194.82749,664.40981 199.4098,660.57189 C 203.99209,656.73405 208.78117,654.81511 213.77705,654.81506 C 219.43459,654.81511 224.38083,656.77541 228.61577,660.69596 C 232.85063,664.6166 234.96808,669.90195 234.96813,676.55204 L 234.96813,685.08802 z M 202.90856,676.55204 L 224.64554,676.55204 C 224.48008,672.68111 223.38827,669.71998 221.37011,667.66866 C 219.35188,665.61742 216.82086,664.59178 213.77705,664.59174 C 210.70011,664.59178 208.14428,665.61742 206.10956,667.66866 C 204.0748,669.71998 203.0078,672.68111 202.90856,676.55204 L 202.90856,676.55204 z M 246.18401,706.92426 L 246.18401,655.41059 L 256.55623,655.41059 L 256.55623,706.92426 L 246.18401,706.92426 z M 246.18401,644.98875 L 246.18401,634.61654 L 256.55623,634.61654 L 256.55623,644.98875 L 246.18401,644.98875 z "
       id="text1982" />
    <path
       style="font-size:100.74059296px;font-style:normal;font-variant:normal;font-weight:normal;font-stretch:normal;text-align:center;line-height:100%;writing-mode:lr-tb;text-anchor:middle;fill:black;fill-opacity:1;stroke:none;stroke-width:1px;stroke-linecap:butt;stroke-linejoin:miter;stroke-opacity:1;font-family:DIN 1451 Mittelschrift"
       d="M 48.847317,514.54827 L 48.847317,442.87882 L 59.71825,442.87882 L 59.71825,504.31681 L 94.692157,504.31681 L 94.692157,514.54827 L 48.847317,514.54827 z M 104.33335,514.54827 L 104.33335,463.48932 L 114.614,463.48932 L 114.614,514.54827 L 104.33335,514.54827 z M 104.33335,453.15948 L 104.33335,442.87882 L 114.614,442.87882 L 114.614,453.15948 L 104.33335,453.15948 z M 167.78811,492.90479 L 136.01154,492.90479 C 136.01152,497.10233 137.15108,500.25047 139.43022,502.34922 C 141.70933,504.44799 144.61972,505.49737 148.1614,505.49736 C 152.39169,505.49737 156.13011,503.85771 159.37667,500.57839 L 166.80432,506.92386 C 164.2792,509.87525 161.4344,511.98221 158.2699,513.24475 C 155.10532,514.50728 151.80141,515.13855 148.35816,515.13855 C 143.11124,515.13855 138.0283,513.44151 133.10934,510.04741 C 128.19036,506.65333 125.73088,499.70938 125.73088,489.21556 C 125.73088,479.27926 128.0018,472.4091 132.54366,468.60505 C 137.0855,464.8011 141.8323,462.8991 146.78409,462.89904 C 152.39169,462.8991 157.29426,464.84209 161.49182,468.72803 C 165.6893,472.61406 167.78806,477.85276 167.78811,484.44415 L 167.78811,492.90479 z M 136.01154,484.44415 L 157.55664,484.44415 C 157.39264,480.60739 156.31047,477.6724 154.31012,475.63919 C 152.30971,473.60605 149.80103,472.58947 146.78409,472.58942 C 143.7343,472.58947 141.20104,473.60605 139.18428,475.63919 C 137.16748,477.6724 136.1099,480.60739 136.01154,484.44415 L 136.01154,484.44415 z M 180.23311,514.54827 L 180.23311,471.35968 L 175.06819,471.35968 L 175.06819,463.48932 L 180.23311,463.48932 L 180.23311,456.75033 C 180.2331,451.99538 181.54483,448.49471 184.16829,446.24832 C 186.79173,444.00206 190.10384,442.87889 194.10462,442.87882 L 200.74523,442.87882 L 200.74523,452.52001 L 194.94085,452.52001 C 191.95665,452.52007 190.46456,453.93018 190.46458,456.75033 L 190.46458,463.48932 L 200.74523,463.48932 L 200.74523,471.35968 L 190.46458,471.35968 L 190.46458,514.54827 L 180.23311,514.54827 z M 246.09818,492.90479 L 214.3216,492.90479 C 214.32159,497.10233 215.46115,500.25047 217.74029,502.34922 C 220.0194,504.44799 222.92979,505.49737 226.47147,505.49736 C 230.70176,505.49737 234.44017,503.85771 237.68673,500.57839 L 245.11438,506.92386 C 242.58927,509.87525 239.74446,511.98221 236.57996,513.24475 C 233.41539,514.50728 230.11148,515.13855 226.66823,515.13855 C 221.4213,515.13855 216.33837,513.44151 211.41941,510.04741 C 206.50043,506.65333 204.04094,499.70938 204.04095,489.21556 C 204.04094,479.27926 206.31187,472.4091 210.85373,468.60505 C 215.39556,464.8011 220.14237,462.8991 225.09416,462.89904 C 230.70176,462.8991 235.60433,464.84209 239.80189,468.72803 C 243.99937,472.61406 246.09813,477.85276 246.09818,484.44415 L 246.09818,492.90479 z M 214.3216,484.44415 L 235.86671,484.44415 C 235.70271,480.60739 234.62054,477.6724 232.62019,475.63919 C 230.61977,473.60605 228.1111,472.58947 225.09416,472.58942 C 222.04437,472.58947 219.5111,473.60605 217.49434,475.63919 C 215.47755,477.6724 214.41997,480.60739 214.3216,484.44415 L 214.3216,484.44415 z M 256.91992,514.54827 L 256.91992,463.48932 L 267.20058,463.48932 L 267.20058,468.94938 L 267.39734,468.94938 C 270.57826,464.91587 275.00533,462.8991 280.67857,462.89904 C 284.41696,462.8991 287.97501,464.21082 291.35274,466.83422 L 283.92509,475.68838 C 281.69513,474.01597 279.4324,473.17974 277.13691,473.1797 C 274.61181,473.17974 272.32449,474.02417 270.27494,475.71297 C 268.22535,477.40186 267.20056,480.11549 267.20058,483.85387 L 267.20058,514.54827 L 256.91992,514.54827 z M 294.74685,491.82261 L 294.74685,481.54196 L 325.09692,481.54196 L 325.09692,491.82261 L 294.74685,491.82261 z "
       id="text1983" />
    <path
       style="font-size:100.73999786px;font-style:normal;font-variant:normal;font-weight:normal;font-stretch:normal;text-align:center;line-height:100%;writing-mode:lr-tb;text-anchor:middle;fill:black;fill-opacity:1;stroke:none;stroke-width:1px;stroke-linecap:butt;stroke-linejoin:miter;stroke-opacity:1;font-family:DIN 1451 Mittelschrift"
       d="M 42.266536,611.05261 L 23.574545,559.99396 L 34.445413,559.99396 L 46.39845,595.75469 L 46.595208,595.75469 L 58.597434,559.99396 L 69.468303,559.99396 L 50.727122,611.05261 L 42.266536,611.05261 z M 115.01774,589.40925 L 83.241352,589.40925 C 83.241337,593.60677 84.380892,596.75489 86.660019,598.85362 C 88.93911,600.95238 91.849483,602.00176 95.391146,602.00175 C 99.621408,602.00176 103.3598,600.36211 106.60634,597.0828 L 114.03395,603.42824 C 111.50885,606.37961 108.66406,608.48656 105.49958,609.74909 C 102.33502,611.01162 99.031136,611.64288 95.587904,611.64288 C 90.341008,611.64288 85.258103,609.94585 80.339174,606.55177 C 75.420222,603.15771 72.960752,596.2138 72.960756,585.72004 C 72.960752,575.78381 75.231663,568.91369 79.773495,565.10966 C 84.315306,561.30572 89.062083,559.40373 94.013842,559.40368 C 99.621408,559.40373 104.52395,561.34672 108.72149,565.23263 C 112.91894,569.11864 115.01769,574.35731 115.01774,580.94866 L 115.01774,589.40925 z M 83.241352,580.94866 L 104.78633,580.94866 C 104.62233,577.11192 103.54016,574.17695 101.53983,572.14375 C 99.539426,570.11063 97.030767,569.09405 94.013842,569.094 C 90.964074,569.09405 88.430819,570.11063 86.414071,572.14375 C 84.397288,574.17695 83.339716,577.11192 83.241352,580.94866 L 83.241352,580.94866 z M 125.83942,611.05261 L 125.83942,559.99396 L 136.12002,559.99396 L 136.12002,565.45399 L 136.31677,565.45399 C 139.49767,561.4205 143.92472,559.40373 149.59793,559.40368 C 153.33629,559.40373 156.89432,560.71545 160.27204,563.33884 L 152.84443,572.19294 C 150.61448,570.52054 148.35176,569.68432 146.05629,569.68428 C 143.5312,569.68432 141.2439,570.52874 139.19436,572.21754 C 137.14478,573.90641 136.12,576.62003 136.12002,580.35839 L 136.12002,611.05261 L 125.83942,611.05261 z M 164.99422,611.05261 L 164.99422,539.38358 L 175.27482,539.38358 L 175.27482,583.99841 L 175.47157,583.99841 L 195.09817,559.99396 L 207.39553,559.99396 L 189.78571,579.96487 L 209.80581,611.05261 L 196.91818,611.05261 L 183.34189,587.19572 L 175.27482,596.39415 L 175.27482,611.05261 L 164.99422,611.05261 z M 256.88011,589.40925 L 225.10373,589.40925 C 225.10371,593.60677 226.24327,596.75489 228.52239,598.85362 C 230.80148,600.95238 233.71186,602.00176 237.25352,602.00175 C 241.48378,602.00176 245.22218,600.36211 248.46871,597.0828 L 255.89632,603.42824 C 253.37122,606.37961 250.52643,608.48656 247.36195,609.74909 C 244.1974,611.01162 240.89351,611.64288 237.45028,611.64288 C 232.20338,611.64288 227.12048,609.94585 222.20155,606.55177 C 217.2826,603.15771 214.82313,596.2138 214.82313,585.72004 C 214.82313,575.78381 217.09404,568.91369 221.63587,565.10966 C 226.17768,561.30572 230.92446,559.40373 235.87622,559.40368 C 241.48378,559.40373 246.38633,561.34672 250.58386,565.23263 C 254.78132,569.11864 256.88006,574.35731 256.88011,580.94866 L 256.88011,589.40925 z M 225.10373,580.94866 L 246.64871,580.94866 C 246.4847,577.11192 245.40254,574.17695 243.4022,572.14375 C 241.4018,570.11063 238.89314,569.09405 235.87622,569.094 C 232.82645,569.09405 230.29319,570.11063 228.27644,572.14375 C 226.25966,574.17695 225.20209,577.11192 225.10373,580.94866 L 225.10373,580.94866 z M 267.7018,611.05261 L 267.7018,539.38358 L 277.9824,539.38358 L 277.9824,565.45399 L 278.17916,565.45399 C 281.36005,561.4205 285.7871,559.40373 291.46031,559.40368 C 295.42822,559.40373 299.2568,560.91221 302.94604,563.92911 C 306.63521,566.94611 308.47981,571.34036 308.47986,577.11189 L 308.47986,611.05261 L 298.19926,611.05261 L 298.19926,580.65353 C 298.19923,577.2103 297.24003,574.52128 295.32168,572.58646 C 293.40326,570.65171 291.01757,569.68432 288.16461,569.68428 C 285.21322,569.68432 282.77835,570.65171 280.85998,572.58646 C 278.94157,574.52128 277.98238,577.2103 277.9824,580.65353 L 277.9824,611.05261 L 267.7018,611.05261 z M 321.81019,611.05261 L 321.81019,559.99396 L 332.09078,559.99396 L 332.09078,565.45399 L 332.28754,565.45399 C 335.46844,561.4205 339.89548,559.40373 345.56869,559.40368 C 349.30705,559.40373 352.86509,560.71545 356.2428,563.33884 L 348.81519,572.19294 C 346.58524,570.52054 344.32253,569.68432 342.02705,569.68428 C 339.50197,569.68432 337.21466,570.52874 335.16512,572.21754 C 333.11554,573.90641 332.09076,576.62003 332.09078,580.35839 L 332.09078,611.05261 L 321.81019,611.05261 z "
       id="text1987" />
  </g>
</svg>
