<?xml version="1.0" encoding="UTF-8" standalone="no"?>
<!-- Created with Inkscape (http://www.inkscape.org/) -->
<svg
   xmlns:svg="http://www.w3.org/2000/svg"
   xmlns="http://www.w3.org/2000/svg"
   version="1.0"
   width="490"
   height="270"
   id="svg2">
  <defs
     id="defs4" />
  <path
     d="M 38.78125,4.984375 C 20.356889,4.9843748 9.96875,12.12016 9.96875,33.203125 L 9.65625,236.79688 C 9.65625,257.87984 20.044391,265.01563 38.46875,265.01563 L 451.21875,264.98438 C 469.64311,264.98438 480.03124,257.84859 480.03125,236.76563 L 480.34375,33.234375 C 480.34375,12.15141 469.95561,5.0156248 451.53125,5.015625 L 38.78125,4.984375 z "
     style="fill:white;fill-opacity:1;fill-rule:evenodd;stroke:black;stroke-width:2;stroke-linecap:butt;stroke-linejoin:miter;stroke-miterlimit:4;stroke-dasharray:none;stroke-opacity:1"
     id="path1881" />
  <path
     d="M 453.3125,17.796875 L 36.78125,17.828125 C 28.356999,17.828125 23.40625,23.829135 23.40625,32.703125 L 23.40625,237.35938 C 23.406249,246.23335 28.35701,252.23438 36.78125,252.23438 L 453.28125,252.20313 C 461.70549,252.20312 466.65625,246.20211 466.65625,237.32813 L 466.65625,32.671875 C 466.65625,23.797885 461.73674,17.796875 453.3125,17.796875 z "
     style="fill:none;fill-opacity:1;fill-rule:evenodd;stroke:black;stroke-width:10.05090809;stroke-linecap:butt;stroke-linejoin:miter;stroke-miterlimit:4;stroke-dasharray:none;stroke-opacity:1"
     id="path3976" />
  <g
     transform="matrix(1.044287,0,0,1.044287,198.2878,-460.0883)"
     id="g2404">
    <path
       d="M -10.809143,647.00423 L -10.809143,607.43878 L -15.540774,607.43878 L -15.540774,600.22867 L -10.809143,600.22867 L -10.809143,594.05502 C -10.80915,589.69897 -9.6074673,586.49198 -7.2040901,584.43404 C -4.8007354,582.37622 -1.7664859,581.34728 1.8986675,581.34721 L 7.9821937,581.34721 L 7.9821937,590.17959 L 2.6647412,590.17959 C -0.069108711,590.17965 -1.4360231,591.47146 -1.4360061,594.05502 L -1.4360061,600.22867 L 7.9821937,600.22867 L 7.9821937,607.43878 L -1.4360061,607.43878 L -1.4360061,647.00423 L -10.809143,647.00423 z M 13.299646,647.00423 L 13.299646,600.22867 L 22.717846,600.22867 L 22.717846,605.23068 L 22.898098,605.23068 C 25.812164,601.53555 29.867844,599.68796 35.065151,599.68792 C 38.489919,599.68796 41.749484,600.88965 44.843856,603.29297 L 38.039319,611.40434 C 35.996427,609.87223 33.923524,609.10615 31.820603,609.10612 C 29.507339,609.10615 27.411904,609.87974 25.534293,611.42687 C 23.656645,612.97407 22.71783,615.46005 22.717846,618.88482 L 22.717846,647.00423 L 13.299646,647.00423 z M 85.400699,627.17644 L 56.2899,627.17644 C 56.289887,631.02185 57.333849,633.90589 59.42179,635.82857 C 61.509697,637.75127 64.175932,638.71262 67.4205,638.71261 C 71.295903,638.71262 74.7207,637.21051 77.6949,634.20629 L 84.499436,640.01944 C 82.186155,642.72323 79.580005,644.65344 76.680979,645.81006 C 73.781885,646.96668 70.755146,647.54499 67.600753,647.54499 C 62.793996,647.54499 58.137475,645.99031 53.631174,642.88095 C 49.124852,639.7716 46.871697,633.41019 46.871701,623.7967 C 46.871697,614.69398 48.95211,608.40017 53.112948,604.91524 C 57.273765,601.4304 61.622355,599.68796 66.158732,599.68792 C 71.295903,599.68796 75.787193,601.46796 79.632615,605.0279 C 83.477964,608.58793 85.400657,613.38715 85.400699,619.42558 L 85.400699,627.17644 z M 56.2899,619.42558 L 76.027563,619.42558 C 75.87732,615.91068 74.885931,613.22192 73.053395,611.35927 C 71.220798,609.4967 68.922579,608.5654 66.158732,608.56536 C 63.364796,608.5654 61.044045,609.4967 59.196474,611.35927 C 57.34887,613.22192 56.380013,615.91068 56.2899,619.42558 L 56.2899,619.42558 z M 95.584969,647.00423 L 95.584969,600.22867 L 105.00317,600.22867 L 105.00317,647.00423 L 95.584969,647.00423 z M 95.584969,590.76541 L 95.584969,581.34721 L 105.00317,581.34721 L 105.00317,590.76541 L 95.584969,590.76541 z "
       style="font-size:92.28934479px;font-style:normal;font-variant:normal;font-weight:normal;font-stretch:normal;text-align:center;line-height:100%;writing-mode:lr-tb;text-anchor:middle;fill:black;fill-opacity:1;stroke:none;stroke-width:1px;stroke-linecap:butt;stroke-linejoin:miter;stroke-opacity:1;font-family:DIN 1451 Mittelschrift"
       id="text1982" />
    <path
       d="M -63.569464,556.27539 L -63.569464,492.15752 L -54.372048,492.15752 L -35.977218,533.96396 L -17.978448,492.15752 L -8.7810323,492.15752 L -8.7810323,556.27539 L -18.506529,556.27539 L -18.506529,516.27323 L -18.682556,516.27323 L -32.104622,547.12198 L -40.201868,547.12198 L -53.623933,516.27323 L -53.843967,516.27323 L -53.843967,556.27539 L -63.569464,556.27539 z M 1.6925766,533.39187 C 1.6925728,528.49248 2.0739644,524.83992 2.8367527,522.43418 C 3.599531,520.02852 4.8610572,517.85752 6.6213351,515.92118 C 7.8828526,514.54234 9.6211183,513.22214 11.836138,511.96057 C 14.051129,510.69909 16.948239,510.06833 20.527475,510.06828 C 24.047991,510.06833 26.923097,510.69909 29.152803,511.96057 C 31.382446,513.22214 33.128046,514.54234 34.389608,515.92118 C 36.149841,517.85752 37.411367,520.02852 38.174191,522.43418 C 38.936934,524.83992 39.318326,528.49248 39.318367,533.39187 C 39.318326,538.37932 38.936934,542.07589 38.174191,544.48158 C 37.411367,546.88729 36.149841,549.05829 34.389608,550.99458 C 33.128046,552.4028 31.382446,553.723 29.152803,554.95519 C 26.923097,556.18738 24.047991,556.80347 20.527475,556.80347 C 16.948239,556.80347 14.051129,556.18738 11.836138,554.95519 C 9.6211183,553.723 7.8828526,552.4028 6.6213351,550.99458 C 4.8610572,549.05829 3.599531,546.88729 2.8367527,544.48158 C 2.0739644,542.07589 1.6925728,538.37932 1.6925766,533.39187 L 1.6925766,533.39187 z M 30.164958,533.47988 C 30.164926,530.16473 29.996234,527.83238 29.65888,526.48281 C 29.321464,525.1333 28.742042,523.84243 27.920613,522.61021 C 26.307003,520.38057 23.842626,519.26573 20.527475,519.2657 C 17.153603,519.26573 14.689227,520.38057 13.134337,522.61021 C 12.254188,523.84243 11.660097,525.1333 11.352063,526.48281 C 11.044003,527.83238 10.889979,530.13539 10.889992,533.39187 C 10.889979,536.7364 11.044003,539.09076 11.352063,540.45496 C 11.660097,541.81918 12.254188,543.10271 13.134337,544.30555 C 14.689227,546.53524 17.153603,547.65007 20.527475,547.65006 C 23.842626,547.65007 26.307003,546.53524 27.920613,544.30555 C 28.742042,543.10271 29.321464,541.82652 29.65888,540.47696 C 29.996234,539.12744 30.164926,536.79508 30.164958,533.47988 L 30.164958,533.47988 z M 50.45208,556.27539 L 50.45208,517.63744 L 45.831369,517.63744 L 45.831369,510.59636 L 50.45208,510.59636 L 50.45208,504.56743 C 50.452073,500.3135 51.625586,497.18169 53.972622,495.17199 C 56.319637,493.16241 59.282756,492.15759 62.86199,492.15752 L 68.802904,492.15752 L 68.802904,500.78285 L 63.610105,500.78285 C 60.940343,500.78291 59.605472,502.04443 59.605489,504.56743 L 59.605489,510.59636 L 68.802904,510.59636 L 68.802904,517.63744 L 59.605489,517.63744 L 59.605489,556.27539 L 50.45208,556.27539 z M 97.97939,556.27539 L 97.97939,552.22677 L 97.759356,552.22677 C 95.911043,555.27791 92.155803,556.80347 86.493622,556.80347 C 81.388823,556.80347 77.428218,555.47594 74.611794,552.82086 C 71.795356,550.16579 70.387141,546.84328 70.387143,542.85333 C 70.387141,539.24479 71.633998,536.09097 74.127719,533.39187 C 76.621428,530.69281 80.332662,529.34327 85.261433,529.34325 L 97.97939,529.34325 L 97.97939,524.59051 C 97.97936,520.68862 94.854882,518.73765 88.605947,518.73761 C 84.263929,518.73765 81.374154,519.8965 79.936613,522.21415 L 72.719502,516.75731 C 75.91732,512.298 81.051438,510.06833 88.121873,510.06828 C 93.754714,510.06833 98.331414,511.16849 101.85199,513.36879 C 105.37249,515.56917 107.13276,519.48577 107.1328,525.1186 L 107.1328,556.27539 L 97.97939,556.27539 z M 97.97939,540.25693 L 97.97939,536.91241 L 86.977697,536.91241 C 81.667532,536.91243 79.01246,538.74604 79.012471,542.41326 C 79.01246,543.96818 79.679895,545.31772 81.014779,546.46188 C 82.349637,547.60607 84.571976,548.17815 87.681805,548.17814 C 91.495702,548.17815 94.165443,547.75275 95.691038,546.90195 C 97.216576,546.05116 97.97936,543.83616 97.97939,540.25693 L 97.97939,540.25693 z M 113.99786,548.66222 L 120.42285,542.32524 C 124.41279,546.22719 129.20952,548.17815 134.81307,548.17814 C 137.42411,548.17815 139.58044,547.68674 141.28206,546.70392 C 142.98363,545.72111 143.83442,544.26155 143.83445,542.32524 C 143.83442,539.65552 141.97147,538.15929 138.24559,537.83655 L 130.14835,537.08844 C 126.36375,536.79508 123.22461,535.54822 120.7309,533.34786 C 118.23718,531.14755 116.99032,528.08175 116.99032,524.15045 C 116.99032,519.5151 118.61857,516.00923 121.87507,513.63283 C 125.13156,511.25651 129.18018,510.06833 134.02094,510.06828 C 138.01087,510.06833 141.42872,510.63308 144.27452,511.76254 C 147.12026,512.89209 149.67265,514.39565 151.9317,516.27323 L 146.25483,522.96226 C 144.43585,521.73011 142.55823,520.71795 140.62196,519.9258 C 138.68564,519.13371 136.4853,518.73765 134.02094,518.73761 C 131.08714,518.73765 129.04816,519.2584 127.904,520.29985 C 126.75981,521.34138 126.18773,522.65425 126.18774,524.23846 C 126.18773,525.23598 126.61312,526.16012 127.46393,527.01089 C 128.31472,527.86171 129.89896,528.37513 132.21667,528.55112 L 139.78583,529.07921 C 144.50919,529.40195 147.89771,530.86151 149.9514,533.45788 C 152.00501,536.0543 153.03183,539.15677 153.03187,542.76531 C 153.03183,547.25401 151.19822,550.71587 147.53102,553.15091 C 143.86376,555.58595 139.38974,556.80347 134.10896,556.80347 C 126.51044,556.80347 119.80675,554.08972 113.99786,548.66222 L 113.99786,548.66222 z "
       style="font-size:90.12586975px;font-style:normal;font-variant:normal;font-weight:normal;font-stretch:normal;text-align:center;line-height:100%;writing-mode:lr-tb;text-anchor:middle;fill:black;fill-opacity:1;stroke:none;stroke-width:1px;stroke-linecap:butt;stroke-linejoin:miter;stroke-opacity:1;font-family:DIN 1451 Mittelschrift"
       id="text2056" />
  </g>
</svg>
