<?xml version="1.0" encoding="UTF-8" standalone="no"?>
<!-- Created with Inkscape (http://www.inkscape.org/) -->
<svg
   xmlns:dc="http://purl.org/dc/elements/1.1/"
   xmlns:cc="http://web.resource.org/cc/"
   xmlns:rdf="http://www.w3.org/1999/02/22-rdf-syntax-ns#"
   xmlns:svg="http://www.w3.org/2000/svg"
   xmlns="http://www.w3.org/2000/svg"
   xmlns:sodipodi="http://sodipodi.sourceforge.net/DTD/sodipodi-0.dtd"
   xmlns:inkscape="http://www.inkscape.org/namespaces/inkscape"
   version="1.0"
   width="490"
   height="360"
   id="svg2"
   sodipodi:version="0.32"
   inkscape:version="0.44"
   sodipodi:docname="Zusatzzeichen 1020-12.svg"
   sodipodi:docbase="C:\Dokumente und Einstellungen\Internet\Desktop\Wiki\SVG sonstiges (fertig)">
  <metadata
     id="metadata10">
    <rdf:RDF>
      <cc:Work
         rdf:about="">
        <dc:format>image/svg+xml</dc:format>
        <dc:type
           rdf:resource="http://purl.org/dc/dcmitype/StillImage" />
      </cc:Work>
    </rdf:RDF>
  </metadata>
  <sodipodi:namedview
     inkscape:window-height="749"
     inkscape:window-width="1024"
     inkscape:pageshadow="2"
     inkscape:pageopacity="0.0"
     guidetolerance="10.0"
     gridtolerance="10.0"
     objecttolerance="10.0"
     borderopacity="1.0"
     bordercolor="#666666"
     pagecolor="#ffffff"
     id="base"
     inkscape:zoom="1.05"
     inkscape:cx="416.64094"
     inkscape:cy="108.23622"
     inkscape:window-x="-4"
     inkscape:window-y="-4"
     inkscape:current-layer="svg2"
     showguides="true"
     inkscape:guide-bbox="true" />
  <defs
     id="defs4" />
  <path
     d="M 38.78125,4.6190618 C 20.35689,4.6190483 9.96875,14.244672 9.96875,42.683954 L 9.65625,317.31604 C 9.65625,345.75531 20.04439,355.38094 38.46875,355.38094 L 451.21875,355.33878 C 469.64311,355.33878 480.03124,345.71316 480.03125,317.27389 L 480.34375,42.726108 C 480.34375,14.286826 469.95561,4.6612021 451.53125,4.6612156 L 38.78125,4.6190618 z "
     style="fill:white;fill-opacity:1;fill-rule:evenodd;stroke:black;stroke-width:3;stroke-linecap:butt;stroke-linejoin:miter;stroke-miterlimit:4;stroke-dasharray:none;stroke-opacity:1"
     id="path1881" />
  <path
     d="M 453.23342,19.074797 L 36.79782,19.117707 C 28.375505,19.117707 23.425891,27.356247 23.425891,39.539027 L 23.425891,320.50387 C 23.425891,332.68661 28.375515,340.9252 36.79782,340.9252 L 453.20218,340.88229 C 461.62449,340.88228 466.57411,332.64373 466.57411,320.46097 L 466.57411,39.496127 C 466.57411,27.313347 461.65573,19.074797 453.23342,19.074797 z "
     style="fill:none;fill-opacity:1;fill-rule:evenodd;stroke:black;stroke-width:12;stroke-linecap:butt;stroke-linejoin:miter;stroke-miterlimit:4;stroke-dasharray:none;stroke-opacity:1"
     id="path3976" />
  <g
     id="g5738"
     transform="translate(-340.163,-124.3555)">
    <g
       id="g1918"
       transform="matrix(0.200056,0,0,0.200056,409.2681,162.2679)">
      <circle
         id="circle1907"
         style="fill:none;stroke:black;stroke-width:40px"
         r="161"
         cy="409"
         cx="215"
         sodipodi:cx="215"
         sodipodi:cy="409"
         sodipodi:rx="161"
         sodipodi:ry="161" />
      <circle
         id="circle1909"
         style="fill:none;stroke:black;stroke-width:40px"
         r="161"
         cy="406"
         cx="790"
         sodipodi:cx="790"
         sodipodi:cy="406"
         sodipodi:rx="161"
         sodipodi:ry="161" />
      <path
         id="path1911"
         style="fill:black;fill-rule:evenodd;stroke:none"
         d="M 429.48437,15.467118 C 296.9179,16.75919 319.39993,1.7711686 248.07762,230.98455 C 189.97511,414.12586 196.30387,394.15363 196,407 C 195.78704,416.98022 203.84333,424.89312 213.96694,425.57043 C 235.02054,423.44166 226.16492,427.84741 299.15748,201.18078 C 565.86963,482.5364 465.80592,436.91194 609.34064,442.62576 C 797.98299,440.81686 813.31557,452.4455 815.55516,424.79518 C 815.29674,415.40613 810.90371,409.80716 681.4382,121.67535 L 693.84208,87.564675 L 736.48042,86.789433 L 734.92994,51.128275 L 576.00521,51.128275 C 561.96471,70.337063 581.69033,70.250925 652.75423,86.01419 L 640.35035,120.9001 L 323.27614,121.67535 C 344.63838,47.079788 332.57905,51.731243 428.70913,51.903518 L 429.48437,15.467118 z M 314.11415,159.91012 L 624.37752,159.36001 L 534.70921,400.30922 L 314.11415,159.91012 z M 661.78516,174.21304 L 573.76718,405.26023 L 766.3065,405.81034 L 661.78516,174.21304 z " />
    </g>
    <path
       id="text1923"
       d="M 635.9187,266.6518 L 635.9187,239.69482 L 644.08393,239.69482 L 644.08393,263.87797 C 644.08392,266.6388 644.84575,268.78103 646.36942,270.30467 C 647.89306,271.82834 649.82693,272.59016 652.17103,272.59016 C 654.43696,272.59016 656.33176,271.82834 657.85544,270.30467 C 659.37907,268.78103 660.14089,266.6388 660.14092,263.87797 L 660.14092,239.69482 L 668.30616,239.69482 L 668.30616,280.2475 L 660.14092,280.2475 L 660.14092,275.95001 L 659.98465,275.95001 C 657.45822,279.12755 653.96814,280.71632 649.5144,280.71632 C 646.3108,280.71632 643.24396,279.52474 640.31386,277.14159 C 637.38375,274.75844 635.9187,271.26185 635.9187,266.6518 L 635.9187,266.6518 z M 678.89361,280.2475 L 678.89361,239.69482 L 687.05885,239.69482 L 687.05885,244.03138 L 687.21512,244.03138 C 689.74151,240.82783 693.25763,239.22604 697.7635,239.226 C 700.91497,239.22604 703.95577,240.42413 706.88591,242.82026 C 709.81598,245.21648 711.28103,248.70656 711.28107,253.29051 L 711.28107,280.2475 L 703.11583,280.2475 L 703.11583,256.10342 C 703.1158,253.36868 702.35398,251.23296 700.83035,249.69625 C 699.30667,248.1596 697.41187,247.39126 695.14594,247.39123 C 692.80184,247.39126 690.86797,248.1596 689.34433,249.69625 C 687.82066,251.23296 687.05883,253.36868 687.05885,256.10342 L 687.05885,280.2475 L 678.89361,280.2475 z M 746.09074,280.2475 L 746.09074,276.02815 C 743.25177,279.1536 739.76169,280.71632 735.62049,280.71632 C 733.12012,280.71632 730.97138,280.22797 729.17426,279.25127 C 727.37711,278.27457 725.90555,277.01788 724.75956,275.48119 C 723.61356,274.0487 722.84522,272.34924 722.45454,270.38281 C 722.06386,268.41639 721.86852,264.93282 721.86852,259.93209 C 721.86852,254.98349 722.06386,251.53899 722.45454,249.59858 C 722.84522,247.65823 723.61356,245.95877 724.75956,244.50019 C 725.90555,242.9896 727.37711,241.73291 729.17426,240.73012 C 730.97138,239.72741 733.12012,239.22604 735.62049,239.226 C 737.7041,239.22604 739.59239,239.66881 741.28537,240.55431 C 742.97829,241.4399 744.58008,242.59892 746.09074,244.03138 L 746.09074,223.32528 L 754.25598,223.32528 L 754.25598,280.2475 L 746.09074,280.2475 z M 738.12085,247.39123 C 734.26612,247.39126 731.95459,248.70656 731.18626,251.33711 C 730.41791,253.96772 730.03374,256.83271 730.03376,259.93209 C 730.03374,263.10965 730.41791,266.01371 731.18626,268.64428 C 731.95459,271.27487 734.26612,272.59016 738.12085,272.59016 C 741.89741,272.59016 744.16987,271.22278 744.93824,268.48801 C 745.70655,265.75325 746.09072,262.90128 746.09074,259.93209 C 746.09072,257.04108 745.70655,254.22818 744.93824,251.49338 C 744.16987,248.75865 741.89741,247.39126 738.12085,247.39123 L 738.12085,247.39123 z "
       style="font-size:80.01146698px;font-style:normal;font-variant:normal;font-weight:normal;font-stretch:normal;text-align:center;line-height:100%;writing-mode:lr-tb;text-anchor:middle;fill:black;fill-opacity:1;stroke:none;stroke-width:1px;stroke-linecap:butt;stroke-linejoin:miter;stroke-opacity:1;font-family:DIN 1451 Mittelschrift" />
    <path
       id="text1927"
       d="M 437.17487,361.01831 L 458.84291,301.63482 L 466.25567,301.63482 L 487.92372,361.01831 L 478.47449,361.01831 L 473.9128,347.61833 L 451.38943,347.61833 L 446.66482,361.01831 L 437.17487,361.01831 z M 454.03684,339.6761 L 471.22466,339.6761 C 469.97559,336.01047 468.99129,333.13905 468.27177,331.06183 C 467.55219,328.98466 466.92767,327.14505 466.39822,325.54299 C 465.86871,323.941 465.33244,322.31183 464.78941,320.65546 C 464.24632,318.99917 463.52677,316.75906 462.63075,313.93511 C 461.68037,316.86767 460.92009,319.20961 460.3499,320.96093 C 459.77967,322.71233 459.22982,324.4026 458.70036,326.03174 C 458.17086,327.66095 457.55992,329.4802 456.86754,331.48948 C 456.17512,333.49883 455.23155,336.2277 454.03684,339.6761 L 454.03684,339.6761 z M 494.64407,361.05904 L 494.64407,318.78191 L 503.15652,318.78191 L 503.15652,323.30287 L 503.31944,323.30287 C 505.95325,319.9631 509.6189,318.2932 514.31638,318.29315 C 517.60185,318.2932 520.77196,319.54223 523.8267,322.04026 C 526.88136,324.53837 528.40872,328.17686 528.40875,332.95574 L 528.40875,361.05904 L 519.89631,361.05904 L 519.89631,335.88826 C 519.89628,333.03723 519.10205,330.81069 517.51364,329.20864 C 515.92516,327.60665 513.94979,326.80564 511.58751,326.8056 C 509.14372,326.80564 507.12762,327.60665 505.53919,329.20864 C 503.95073,330.81069 503.1565,333.03723 503.15652,335.88826 L 503.15652,361.05904 L 494.64407,361.05904 z M 539.44642,350.83596 L 539.44642,301.71628 L 547.95887,301.71628 L 547.95887,350.14356 C 547.95886,352.09858 549.01782,353.07608 551.13576,353.07607 L 554.02755,353.07607 L 554.02755,361.05904 L 550.28045,361.05904 C 547.185,361.05904 544.60547,360.30555 542.54186,358.79856 C 540.47823,357.29157 539.44642,354.63738 539.44642,350.83596 L 539.44642,350.83596 z M 561.19593,361.05904 L 561.19593,318.78191 L 569.70838,318.78191 L 569.70838,361.05904 L 561.19593,361.05904 z M 561.19593,310.22873 L 561.19593,301.71628 L 569.70838,301.71628 L 569.70838,310.22873 L 561.19593,310.22873 z M 613.73688,343.1381 L 587.42568,343.1381 C 587.42566,346.61369 588.36923,349.22037 590.25637,350.95815 C 592.14348,352.69594 594.5533,353.56483 597.48584,353.56483 C 600.98855,353.56483 604.08398,352.20719 606.77215,349.49189 L 612.92229,354.74598 C 610.83148,357.18975 608.47596,358.93432 605.85574,359.97971 C 603.23545,361.0251 600.49979,361.54779 597.64876,361.54779 C 593.30427,361.54779 589.09557,360.14263 585.02264,357.3323 C 580.94969,354.52198 578.91323,348.77235 578.91323,340.08339 C 578.91323,331.85608 580.79356,326.16754 584.55425,323.01777 C 588.31492,319.86807 592.24531,318.2932 596.34542,318.29315 C 600.98855,318.2932 605.04791,319.90201 608.52351,323.11959 C 611.99905,326.33725 613.73684,330.67493 613.73688,336.13264 L 613.73688,343.1381 z M 587.42568,336.13264 L 605.26516,336.13264 C 605.12937,332.95577 604.23332,330.52559 602.57702,328.84207 C 600.92066,327.15862 598.84347,326.31688 596.34542,326.31685 C 593.82018,326.31688 591.72261,327.15862 590.05272,328.84207 C 588.3828,330.52559 587.50712,332.95577 587.42568,336.13264 L 587.42568,336.13264 z M 646.4426,361.01831 L 646.4426,356.66026 C 643.4829,359.91862 639.84441,361.54779 635.52712,361.54779 C 632.7575,361.54779 630.44272,360.99795 628.58275,359.89825 C 626.72277,358.79856 625.3176,357.63777 624.36726,356.41589 C 623.14537,354.84102 622.31042,353.17112 621.8624,351.40617 C 621.41437,349.64124 621.19036,345.82625 621.19037,339.9612 C 621.19036,334.09619 621.41437,330.28121 621.8624,328.51624 C 622.31042,326.75133 623.14537,325.06785 624.36726,323.46579 C 625.3176,322.2711 626.72277,321.11031 628.58275,319.98343 C 630.44272,318.85662 632.7575,318.2932 635.52712,318.29315 C 639.65434,318.2932 643.29283,319.9631 646.4426,323.30287 L 646.4426,318.78191 L 654.95505,318.78191 L 654.95505,360.08153 C 654.95501,366.43532 653.10183,371.1192 649.39548,374.13318 C 645.68908,377.14714 641.43286,378.65413 636.62681,378.65415 C 633.9115,378.65413 631.25052,378.00246 628.64385,376.69914 C 626.03716,375.39578 623.79704,373.68515 621.92349,371.56723 L 628.52166,366.31313 C 629.55346,367.34494 630.78213,368.24099 632.20767,369.00128 C 633.63318,369.76155 635.16054,370.14169 636.78973,370.1417 C 639.61361,370.14169 641.9284,369.35426 643.7341,367.77939 C 645.53974,366.20452 646.44257,363.95083 646.4426,361.01831 L 646.4426,361.01831 z M 629.70281,339.9612 C 629.7028,343.35534 629.79105,345.60903 629.96755,346.72229 C 630.14403,347.83557 630.61242,348.86738 631.37272,349.81772 C 631.94292,350.57801 632.78466,351.31114 633.89794,352.01711 C 635.0112,352.72309 636.42315,353.07608 638.1338,353.07607 C 639.79011,353.07608 641.16812,352.72309 642.26784,352.01711 C 643.36751,351.31114 644.21603,350.57801 644.81343,349.81772 C 645.54653,348.86738 646.00134,347.83557 646.17786,346.72229 C 646.35433,345.60903 646.44257,343.35534 646.4426,339.9612 C 646.44257,336.56711 646.35433,334.31342 646.17786,333.20012 C 646.00134,332.08688 645.54653,331.04149 644.81343,330.06396 C 644.21603,329.33086 643.36751,328.60452 642.26784,327.88493 C 641.16812,327.16541 639.79011,326.80564 638.1338,326.8056 C 636.42315,326.80564 635.0112,327.16541 633.89794,327.88493 C 632.78466,328.60452 631.94292,329.33086 631.37272,330.06396 C 630.61242,331.04149 630.14403,332.08688 629.96755,333.20012 C 629.79105,334.31342 629.7028,336.56711 629.70281,339.9612 L 629.70281,339.9612 z M 698.77989,343.1381 L 672.46869,343.1381 C 672.46868,346.61369 673.41224,349.22037 675.29939,350.95815 C 677.1865,352.69594 679.59632,353.56483 682.52886,353.56483 C 686.03156,353.56483 689.12699,352.20719 691.81516,349.49189 L 697.9653,354.74598 C 695.87449,357.18975 693.51898,358.93432 690.89875,359.97971 C 688.27846,361.0251 685.54281,361.54779 682.69177,361.54779 C 678.34729,361.54779 674.13858,360.14263 670.06566,357.3323 C 665.99271,354.52198 663.95624,348.77235 663.95624,340.08339 C 663.95624,331.85608 665.83658,326.16754 669.59727,323.01777 C 673.35794,319.86807 677.28832,318.2932 681.38843,318.29315 C 686.03156,318.2932 690.09092,319.90201 693.56653,323.11959 C 697.04207,326.33725 698.77985,330.67493 698.77989,336.13264 L 698.77989,343.1381 z M 672.46869,336.13264 L 690.30817,336.13264 C 690.17238,332.95577 689.27633,330.52559 687.62003,328.84207 C 685.96368,327.15862 683.88648,326.31688 681.38843,326.31685 C 678.86319,326.31688 676.76563,327.15862 675.09574,328.84207 C 673.42582,330.52559 672.55014,332.95577 672.46869,336.13264 L 672.46869,336.13264 z M 707.74035,361.05904 L 707.74035,318.78191 L 716.2528,318.78191 L 716.2528,323.30287 L 716.41572,323.30287 C 719.04954,319.9631 722.71518,318.2932 727.41266,318.29315 C 730.50807,318.2932 733.45416,319.37931 736.25094,321.55151 L 730.1008,328.8828 C 728.25438,327.49804 726.38082,326.80564 724.48014,326.8056 C 722.38935,326.80564 720.49543,327.50482 718.79839,328.90317 C 717.10131,330.30157 716.25279,332.54848 716.2528,335.64389 L 716.2528,361.05904 L 707.74035,361.05904 z "
       style="font-size:83.41384125px;font-style:normal;font-variant:normal;font-weight:normal;font-stretch:normal;text-align:center;line-height:100%;writing-mode:lr-tb;text-anchor:middle;fill:black;fill-opacity:1;stroke:none;stroke-width:1px;stroke-linecap:butt;stroke-linejoin:miter;stroke-opacity:1;font-family:DIN 1451 Mittelschrift" />
    <path
       id="text1931"
       d="M 536.5138,442.86002 L 536.5138,407.09952 L 532.23721,407.09952 L 532.23721,400.58281 L 536.5138,400.58281 L 536.5138,395.00287 C 536.5138,391.06573 537.59991,388.16715 539.77216,386.30712 C 541.94439,384.4472 544.68684,383.51721 547.99952,383.51715 L 553.498,383.51715 L 553.498,391.50013 L 548.69192,391.50013 C 546.22098,391.50018 544.98552,392.66776 544.98554,395.00287 L 544.98554,400.58281 L 553.498,400.58281 L 553.498,407.09952 L 544.98554,407.09952 L 544.98554,442.86002 L 536.5138,442.86002 z M 558.30408,442.86002 L 558.30408,400.58281 L 566.81655,400.58281 L 566.81655,405.10378 L 566.97946,405.10378 C 569.61329,401.764 573.27894,400.09409 577.97643,400.09405 C 581.07184,400.09409 584.01794,401.18021 586.81473,403.35241 L 580.66457,410.68372 C 578.81814,409.29895 576.94459,408.60655 575.0439,408.60652 C 572.9531,408.60655 571.05918,409.30574 569.36214,410.70408 C 567.66506,412.10249 566.81653,414.3494 566.81655,417.44482 L 566.81655,442.86002 L 558.30408,442.86002 z M 623.47127,424.93904 L 597.16002,424.93904 C 597.16001,428.41464 598.10357,431.02133 599.99072,432.75911 C 601.87784,434.49691 604.28766,435.3658 607.22021,435.36579 C 610.72292,435.3658 613.81835,434.00815 616.50653,431.29284 L 622.65668,436.54695 C 620.56587,438.99072 618.21035,440.7353 615.59012,441.78069 C 612.96982,442.82608 610.23416,443.34877 607.38312,443.34877 C 603.03863,443.34877 598.82992,441.94361 594.75698,439.13327 C 590.68403,436.32294 588.64755,430.5733 588.64756,421.88433 C 588.64755,413.657 590.5279,407.96846 594.28859,404.81867 C 598.04927,401.66897 601.97966,400.09409 606.07978,400.09405 C 610.72292,400.09409 614.78228,401.70291 618.2579,404.9205 C 621.73344,408.13816 623.47123,412.47585 623.47127,417.93357 L 623.47127,424.93904 z M 597.16002,417.93357 L 614.99954,417.93357 C 614.86374,414.7567 613.9677,412.32651 612.31139,410.64299 C 610.65503,408.95954 608.57783,408.1178 606.07978,408.11776 C 603.55453,408.1178 601.45697,408.95954 599.78707,410.64299 C 598.11715,412.32651 597.24147,414.7567 597.16002,417.93357 L 597.16002,417.93357 z M 632.67614,442.86002 L 632.67614,400.58281 L 641.1886,400.58281 L 641.1886,442.86002 L 632.67614,442.86002 z M 632.67614,392.02961 L 632.67614,383.51715 L 641.1886,383.51715 L 641.1886,392.02961 L 632.67614,392.02961 z "
       style="font-size:83.41400146px;font-style:normal;font-variant:normal;font-weight:normal;font-stretch:normal;text-align:center;line-height:100%;writing-mode:lr-tb;text-anchor:middle;fill:black;fill-opacity:1;stroke:none;stroke-width:1px;stroke-linecap:butt;stroke-linejoin:miter;stroke-opacity:1;font-family:DIN 1451 Mittelschrift" />
  </g>
</svg>
