<?xml version="1.0" encoding="UTF-8" standalone="no"?>
<!-- Created with Inkscape (http://www.inkscape.org/) -->
<svg
   xmlns:dc="http://purl.org/dc/elements/1.1/"
   xmlns:cc="http://web.resource.org/cc/"
   xmlns:rdf="http://www.w3.org/1999/02/22-rdf-syntax-ns#"
   xmlns:svg="http://www.w3.org/2000/svg"
   xmlns="http://www.w3.org/2000/svg"
   xmlns:sodipodi="http://sodipodi.sourceforge.net/DTD/sodipodi-0.dtd"
   xmlns:inkscape="http://www.inkscape.org/namespaces/inkscape"
   version="1.0"
   width="490"
   height="360"
   id="svg2"
   sodipodi:version="0.32"
   inkscape:version="0.44"
   sodipodi:docname="Zusatzzeichen 1026-38.svg"
   sodipodi:docbase="C:\Dokumente und Einstellungen\Internet\Desktop\Wiki\SVG sonstiges (fertig)">
  <metadata
     id="metadata10">
    <rdf:RDF>
      <cc:Work
         rdf:about="">
        <dc:format>image/svg+xml</dc:format>
        <dc:type
           rdf:resource="http://purl.org/dc/dcmitype/StillImage" />
      </cc:Work>
    </rdf:RDF>
  </metadata>
  <sodipodi:namedview
     inkscape:window-height="749"
     inkscape:window-width="1024"
     inkscape:pageshadow="2"
     inkscape:pageopacity="0.0"
     guidetolerance="10.0"
     gridtolerance="10.0"
     objecttolerance="10.0"
     borderopacity="1.0"
     bordercolor="#666666"
     pagecolor="#ffffff"
     id="base"
     inkscape:zoom="0.74246212"
     inkscape:cx="245"
     inkscape:cy="83.429599"
     inkscape:window-x="-4"
     inkscape:window-y="-4"
     inkscape:current-layer="svg2"
     showguides="true"
     inkscape:guide-bbox="true" />
  <defs
     id="defs4" />
  <path
     d="M 38.78125,4.6190618 C 20.35689,4.6190483 9.96875,14.244672 9.96875,42.683954 L 9.65625,317.31604 C 9.65625,345.75531 20.04439,355.38094 38.46875,355.38094 L 451.21875,355.33878 C 469.64311,355.33878 480.03124,345.71316 480.03125,317.27389 L 480.34375,42.726108 C 480.34375,14.286826 469.95561,4.6612021 451.53125,4.6612156 L 38.78125,4.6190618 z "
     style="fill:white;fill-opacity:1;fill-rule:evenodd;stroke:black;stroke-width:3;stroke-linecap:butt;stroke-linejoin:miter;stroke-miterlimit:4;stroke-dasharray:none;stroke-opacity:1"
     id="path1881" />
  <path
     d="M 453.23342,19.074797 L 36.79782,19.117707 C 28.375505,19.117707 23.425891,27.356247 23.425891,39.539027 L 23.425891,320.50387 C 23.425891,332.68661 28.375515,340.9252 36.79782,340.9252 L 453.20218,340.88229 C 461.62449,340.88228 466.57411,332.64373 466.57411,320.46097 L 466.57411,39.496127 C 466.57411,27.313347 461.65573,19.074797 453.23342,19.074797 z "
     style="fill:none;fill-opacity:1;fill-rule:evenodd;stroke:black;stroke-width:12;stroke-linecap:butt;stroke-linejoin:miter;stroke-miterlimit:4;stroke-dasharray:none;stroke-opacity:1"
     id="path3976" />
  <g
     id="g3957"
     transform="translate(114.6911,-384.6562)">
    <path
       id="text1874"
       style="font-size:96.77400208px;font-style:normal;font-variant:normal;font-weight:normal;font-stretch:normal;text-align:center;line-height:100%;writing-mode:lr-tb;text-anchor:middle;fill:black;fill-opacity:1;stroke:none;stroke-width:1px;stroke-linecap:butt;stroke-linejoin:miter;stroke-opacity:1;font-family:DIN 1451 Engschrift"
       d="M -29.025092,688.15074 L -42.185033,623.60324 L -32.509996,623.60324 L -25.055846,668.40788 L -17.412684,623.60324 L -7.63723,623.60324 L -21.089553,688.15074 L -29.025092,688.15074 z M 9.89065,679.34398 C 11.24719,679.34399 12.34434,678.92462 13.18211,678.08587 C 14.01985,677.24714 14.53618,676.15048 14.73112,674.79588 L 23.92477,674.79588 L 23.92477,675.85907 C 23.92474,677.27864 23.61809,678.6982 23.00482,680.11775 C 22.39148,681.53731 21.11713,683.328 19.18176,685.48981 C 17.24633,687.65163 14.21427,688.73254 10.08557,688.73255 C 7.43939,688.73254 5.00341,688.02277 2.77761,686.60321 C 0.55179,685.18366 -0.98048,683.6189 -1.81922,681.90893 C -2.65796,680.19897 -3.19005,678.65045 -3.41548,677.26337 C -3.64092,675.87631 -3.75364,674.50549 -3.75363,673.15089 L -3.75363,655.63482 C -3.75364,651.82903 -2.38281,648.5228 0.35885,645.71613 C 3.10049,642.90955 6.37522,641.50624 10.18303,641.50619 C 14.11878,641.50624 17.39301,642.87707 20.00573,645.61868 C 22.6184,648.36037 23.92474,651.69908 23.92477,655.63482 L 23.92477,668.40788 L 5.53747,668.40788 L 5.53747,675.28023 C 5.53746,676.24695 6.00507,677.16592 6.9403,678.03714 C 7.8755,678.90837 8.85895,679.34399 9.89065,679.34398 L 9.89065,679.34398 z M 10.08557,650.60238 C 8.85895,650.60242 7.79428,651.02179 6.89157,651.86049 C 5.98883,652.69927 5.53746,654.18281 5.53747,656.31113 L 5.53747,660.85922 L 14.63366,660.85922 L 14.63366,656.31113 C 14.63364,654.63368 14.27875,653.26286 13.569,652.19865 C 12.8592,651.13451 11.69806,650.60242 10.08557,650.60238 L 10.08557,650.60238 z M 52.52166,641.50619 L 52.52166,650.98927 C 52.07076,650.86133 51.6194,650.76485 51.16757,650.69984 C 50.71569,650.63491 50.29582,650.60242 49.90798,650.60238 C 46.8759,650.60242 44.55361,651.6346 42.94113,653.69893 C 41.3286,655.76332 40.52235,658.24754 40.52237,661.1516 L 40.52237,688.15074 L 31.23126,688.15074 L 31.23126,642.08504 L 40.52237,642.08504 L 40.52237,647.02297 C 42.13486,645.02264 44.11849,643.60309 46.47328,642.7643 C 48.82803,641.92561 50.84415,641.50624 52.52166,641.50619 L 52.52166,641.50619 z M 58.25993,688.15074 L 58.25993,623.60324 L 67.55104,623.60324 L 67.55104,662.02283 L 79.16344,642.08504 L 88.35709,642.08504 L 77.42099,660.37783 L 90.58389,688.15074 L 80.22959,688.15074 L 72.19659,668.50534 L 67.55104,675.37769 L 67.55104,688.15074 L 58.25993,688.15074 z M 107.98773,679.34398 C 109.34427,679.34399 110.44142,678.92462 111.27919,678.08587 C 112.11693,677.24714 112.63326,676.15048 112.8282,674.79588 L 122.02185,674.79588 L 122.02185,675.85907 C 122.02182,677.27864 121.71517,678.6982 121.1019,680.11775 C 120.48856,681.53731 119.21421,683.328 117.27884,685.48981 C 115.34341,687.65163 112.31135,688.73254 108.18265,688.73255 C 105.53647,688.73254 103.10049,688.02277 100.87469,686.60321 C 98.64887,685.18366 97.1166,683.6189 96.27786,681.90893 C 95.43912,680.19897 94.90703,678.65045 94.6816,677.26337 C 94.45616,675.87631 94.34344,674.50549 94.34345,673.15089 L 94.34345,655.63482 C 94.34344,651.82903 95.71427,648.5228 98.45593,645.71613 C 101.19757,642.90955 104.4723,641.50624 108.28011,641.50619 C 112.21586,641.50624 115.49009,642.87707 118.10281,645.61868 C 120.71548,648.36037 122.02182,651.69908 122.02185,655.63482 L 122.02185,668.40788 L 103.63455,668.40788 L 103.63455,675.28023 C 103.63454,676.24695 104.10215,677.16592 105.03738,678.03714 C 105.97258,678.90837 106.95603,679.34399 107.98773,679.34398 L 107.98773,679.34398 z M 108.18265,650.60238 C 106.95603,650.60242 105.89136,651.02179 104.98865,651.86049 C 104.08591,652.69927 103.63454,654.18281 103.63455,656.31113 L 103.63455,660.85922 L 112.73074,660.85922 L 112.73074,656.31113 C 112.73072,654.63368 112.37583,653.26286 111.66608,652.19865 C 110.95628,651.13451 109.79514,650.60242 108.18265,650.60238 L 108.18265,650.60238 z M 147.61817,641.50619 C 149.29563,641.50624 150.87663,641.9576 152.36119,642.86029 C 153.84569,643.76306 154.91035,644.81148 155.55519,646.00556 C 156.19996,647.19972 156.60309,648.21615 156.76457,649.05485 C 156.92598,649.89363 157.00671,650.99029 157.00674,652.34484 L 157.00674,688.15074 L 147.71563,688.15074 L 147.71563,655.82679 C 147.71561,654.27929 147.36072,653.02167 146.65096,652.05393 C 145.94116,651.08627 144.81251,650.60242 143.265,650.60238 C 141.9104,650.60242 140.79749,651.13451 139.92628,652.19865 C 139.05504,653.26286 138.61943,654.47224 138.61944,655.82679 L 138.61944,688.15074 L 129.32833,688.15074 L 129.32833,623.60324 L 138.61944,623.60324 L 138.61944,646.53863 C 140.74778,643.18372 143.74735,641.50624 147.61817,641.50619 L 147.61817,641.50619 z M 186.53096,641.50619 L 186.53096,650.98927 C 186.08007,650.86133 185.6287,650.76485 185.17687,650.69984 C 184.72499,650.63491 184.30513,650.60242 183.91729,650.60238 C 180.8852,650.60242 178.56292,651.6346 176.95043,653.69893 C 175.33791,655.76332 174.53166,658.24754 174.53167,661.1516 L 174.53167,688.15074 L 165.24057,688.15074 L 165.24057,642.08504 L 174.53167,642.08504 L 174.53167,647.02297 C 176.14417,645.02264 178.1278,643.60309 180.48259,642.7643 C 182.83734,641.92561 184.85346,641.50624 186.53096,641.50619 L 186.53096,641.50619 z M 211.31218,688.15074 L 211.31218,649.44173 L 206.76408,649.44173 L 206.76408,642.08504 L 211.31218,642.08504 L 211.31218,635.69999 C 211.31217,632.08717 212.21539,629.4095 214.02184,627.66699 C 215.82827,625.9246 217.50574,624.8117 219.05427,624.32828 C 220.60278,623.84498 222.31323,623.6033 224.18565,623.60324 L 227.37817,623.60324 L 227.37817,632.11763 L 223.99073,632.11763 C 221.73242,632.11768 220.60327,633.3118 220.60328,635.69999 L 220.60328,642.08504 L 227.37817,642.08504 L 227.37817,649.44173 L 220.60328,649.44173 L 220.60328,688.15074 L 211.31218,688.15074 z M 253.25211,641.50619 L 253.25211,650.98927 C 252.80121,650.86133 252.34985,650.76485 251.89802,650.69984 C 251.44614,650.63491 251.02628,650.60242 250.63843,650.60238 C 247.60635,650.60242 245.28407,651.6346 243.67158,653.69893 C 242.05906,655.76332 241.25281,658.24754 241.25282,661.1516 L 241.25282,688.15074 L 231.96171,688.15074 L 231.96171,642.08504 L 241.25282,642.08504 L 241.25282,647.02297 C 242.86531,645.02264 244.84895,643.60309 247.20374,642.7643 C 249.55848,641.92561 251.57461,641.50624 253.25211,641.50619 L 253.25211,641.50619 z M 271.86088,679.34398 C 273.21742,679.34399 274.31457,678.92462 275.15235,678.08587 C 275.99008,677.24714 276.50642,676.15048 276.70136,674.79588 L 285.89501,674.79588 L 285.89501,675.85907 C 285.89497,677.27864 285.58832,678.6982 284.97505,680.11775 C 284.36172,681.53731 283.08737,683.328 281.15199,685.48981 C 279.21657,687.65163 276.18451,688.73254 272.0558,688.73255 C 269.40962,688.73254 266.97364,688.02277 264.74784,686.60321 C 262.52202,685.18366 260.98975,683.6189 260.15102,681.90893 C 259.31227,680.19897 258.78019,678.65045 258.55475,677.26337 C 258.32932,675.87631 258.2166,674.50549 258.2166,673.15089 L 258.2166,655.63482 C 258.2166,651.82903 259.58742,648.5228 262.32908,645.71613 C 265.07073,642.90955 268.34545,641.50624 272.15326,641.50619 C 276.08902,641.50624 279.36325,642.87707 281.97597,645.61868 C 284.58863,648.36037 285.89497,651.69908 285.89501,655.63482 L 285.89501,668.40788 L 267.50771,668.40788 L 267.50771,675.28023 C 267.5077,676.24695 267.9753,677.16592 268.91053,678.03714 C 269.84573,678.90837 270.82918,679.34399 271.86088,679.34398 L 271.86088,679.34398 z M 272.0558,650.60238 C 270.82918,650.60242 269.76451,651.02179 268.8618,651.86049 C 267.95906,652.69927 267.5077,654.18281 267.50771,656.31113 L 267.50771,660.85922 L 276.6039,660.85922 L 276.6039,656.31113 C 276.60388,654.63368 276.24899,653.26286 275.53923,652.19865 C 274.82943,651.13451 273.66829,650.60242 272.0558,650.60238 L 272.0558,650.60238 z M 293.20149,688.15074 L 293.20149,642.08504 L 302.4926,642.08504 L 302.4926,688.15074 L 293.20149,688.15074 z M 293.20149,632.69943 L 293.20149,623.60324 L 302.4926,623.60324 L 302.4926,632.69943 L 293.20149,632.69943 z " />
    <path
       id="text1880"
       style="font-size:96.77400208px;font-style:normal;font-variant:normal;font-weight:normal;font-stretch:normal;text-align:center;line-height:100%;writing-mode:lr-tb;text-anchor:middle;fill:black;fill-opacity:1;stroke:none;stroke-width:1px;stroke-linecap:butt;stroke-linejoin:miter;stroke-opacity:1;font-family:DIN 1451 Engschrift"
       d="M -49.432413,595.7366 L -49.432413,557.02759 L -53.980507,557.02759 L -53.980507,549.6709 L -49.432413,549.6709 L -49.432413,543.28585 C -49.432419,539.67303 -48.5292,536.99536 -46.722752,535.25285 C -44.916323,533.51046 -43.238846,532.39756 -41.690315,531.91414 C -40.141813,531.43084 -38.431357,531.18917 -36.558942,531.1891 L -33.366416,531.1891 L -33.366416,539.70349 L -36.753861,539.70349 C -39.012174,539.70354 -40.141321,540.89766 -40.141305,543.28585 L -40.141305,549.6709 L -33.366416,549.6709 L -33.366416,557.02759 L -40.141305,557.02759 L -40.141305,595.7366 L -49.432413,595.7366 z M -26.458629,554.41392 C -25.104053,552.73648 -23.507299,551.43014 -21.668363,550.49488 C -19.82945,549.55971 -17.845813,549.0921 -15.717447,549.09206 C -13.33119,549.0921 -11.2186,549.52771 -9.37965,550.39889 C -7.54075,551.27016 -5.81454,552.76995 -4.20102,554.89826 C -2.58756,557.02665 -1.78082,559.80079 -1.78079,563.22068 L -1.78079,581.60798 C -1.78082,585.09092 -2.55508,587.88081 -4.10356,589.97765 C -5.65211,592.07451 -7.39407,593.65551 -9.32944,594.72067 C -11.26486,595.78583 -13.23275,596.31841 -15.233105,596.31841 C -18.00726,596.31841 -20.53972,595.62487 -22.83049,594.2378 C -25.121281,592.85073 -26.702283,591.30222 -27.573503,589.59225 C -28.444733,587.88229 -28.97682,586.46273 -29.169766,585.33358 C -29.362719,584.20444 -29.459194,582.96258 -29.45919,581.60798 L -29.45919,563.22068 C -29.459194,559.73581 -28.459008,556.80023 -26.458629,554.41392 L -26.458629,554.41392 z M -15.525482,558.09079 C -16.943086,558.09082 -18.071249,558.57467 -18.909974,559.54234 C -19.748726,560.51007 -20.168095,561.73619 -20.168083,563.22068 L -20.168083,581.60798 C -20.168095,583.09252 -19.764969,584.36687 -18.958703,585.43104 C -18.152465,586.49522 -17.008059,587.02731 -15.525482,587.0273 C -13.52513,587.02731 -12.28277,586.44649 -11.79841,585.28485 C -11.31409,584.12322 -11.07192,582.83263 -11.07189,581.41306 L -11.07189,563.22068 C -11.07192,561.80116 -11.47504,560.59129 -12.28127,559.59107 C -13.08755,558.59092 -14.16895,558.09082 -15.525482,558.09079 L -15.525482,558.09079 z M 26.90765,549.09206 L 26.90765,558.57513 C 26.45676,558.44719 26.00539,558.35071 25.55356,558.2857 C 25.10168,558.22077 24.68182,558.18828 24.29398,558.18824 C 21.26189,558.18828 18.93961,559.22046 17.32712,561.28479 C 15.7146,563.34918 14.90835,565.8334 14.90836,568.73746 L 14.90836,595.7366 L 5.61725,595.7366 L 5.61725,549.6709 L 14.90836,549.6709 L 14.90836,554.60883 C 16.52085,552.6085 18.50449,551.18895 20.85928,550.35016 C 23.21403,549.51147 25.23015,549.0921 26.90765,549.09206 L 26.90765,549.09206 z M 44.45325,587.60615 C 45.87279,587.60616 47.09841,587.15479 48.13012,586.25206 C 49.16179,585.34934 49.67763,584.1882 49.67765,582.76863 C 49.67763,581.09116 49.24251,579.8493 48.37229,579.04303 C 47.50203,578.23679 46.13071,577.51077 44.25833,576.86497 L 42.42138,576.18866 C 40.48596,575.47792 38.87297,574.78389 37.58238,574.10658 C 36.29178,573.42931 34.90471,572.20368 33.42117,570.42971 C 31.93762,568.65578 31.19585,566.09133 31.19585,562.73634 C 31.19585,558.93055 32.51844,555.70504 35.16362,553.05982 C 37.80879,550.41469 41.06678,549.0921 44.93759,549.09206 C 48.48548,549.0921 51.48506,550.44668 53.93632,553.15581 C 56.38754,555.86502 57.61316,558.92956 57.61319,562.34946 L 49.09881,562.34946 C 49.09878,560.99491 48.66317,559.882 47.79197,559.01074 C 46.92072,558.13955 45.77533,557.70394 44.35579,557.7039 C 43.06617,557.70394 42.00199,558.18779 41.16327,559.15545 C 40.32451,560.12319 39.90515,561.28433 39.90516,562.63888 C 39.90515,564.05847 40.32451,565.15562 41.16327,565.93034 C 42.00199,566.70512 43.22761,567.38291 44.84013,567.96369 L 47.8407,568.92943 C 49.58313,569.57524 50.95395,570.18855 51.95318,570.76934 C 52.95236,571.35018 53.95205,572.22091 54.95226,573.38154 C 55.95242,574.54221 56.77541,575.89679 57.42123,577.44529 C 58.06699,578.99383 58.38988,580.63931 58.38991,582.38174 C 58.38988,586.12458 57.05105,589.39881 54.37341,592.20445 C 51.69572,595.01009 48.48548,596.41291 44.74268,596.41291 C 42.48437,596.41291 40.21032,595.8001 37.92053,594.57448 C 35.63073,593.34886 33.85678,591.68762 32.59867,589.59077 C 31.34056,587.49393 30.71151,585.12341 30.71151,582.4792 L 39.32336,582.4792 C 39.32334,583.89877 39.82344,585.10815 40.82364,586.10734 C 41.82381,587.10655 43.03368,587.60616 44.45325,587.60615 L 44.45325,587.60615 z M 78.42811,586.92984 L 80.55745,586.92984 L 80.55745,595.7366 L 77.65435,595.7366 C 75.91188,595.7366 74.36336,595.55941 73.00879,595.20501 C 71.6542,594.85061 70.33161,594.12459 69.04102,593.02694 C 67.75042,591.9293 66.8472,590.71943 66.33136,589.39733 C 65.81551,588.07524 65.55759,586.44649 65.5576,584.51108 L 65.5576,556.93014 L 61.0095,556.93014 L 61.0095,549.6709 L 65.5576,549.6709 L 65.5576,535.7372 L 74.8487,535.7372 L 74.8487,549.6709 L 80.55745,549.6709 L 80.55745,556.93014 L 74.8487,556.93014 L 74.8487,582.86609 C 74.84869,584.41363 75.05837,585.47781 75.47776,586.05861 C 75.89711,586.63944 76.88056,586.92985 78.42811,586.92984 L 78.42811,586.92984 z M 113.29782,595.7366 L 108.07342,568.0582 L 102.84606,595.7366 L 94.81602,595.7366 L 83.78246,549.6709 L 93.55791,549.6709 L 99.36411,578.31799 L 104.58851,549.6709 L 111.3634,549.6709 L 116.68526,578.31799 L 122.39696,549.6709 L 132.16946,549.6709 L 121.23336,595.7366 L 113.29782,595.7366 z M 136.41337,595.7366 L 136.41337,549.6709 L 145.70447,549.6709 L 145.70447,595.7366 L 136.41337,595.7366 z M 136.41337,540.28529 L 136.41337,531.1891 L 145.70447,531.1891 L 145.70447,540.28529 L 136.41337,540.28529 z M 175.09285,549.09206 L 175.09285,558.57513 C 174.64195,558.44719 174.19059,558.35071 173.73876,558.2857 C 173.28688,558.22077 172.86702,558.18828 172.47917,558.18824 C 169.44709,558.18828 167.12481,559.22046 165.51232,561.28479 C 163.8998,563.34918 163.09354,565.8334 163.09356,568.73746 L 163.09356,595.7366 L 153.80245,595.7366 L 153.80245,549.6709 L 163.09356,549.6709 L 163.09356,554.60883 C 164.70605,552.6085 166.68969,551.18895 169.04447,550.35016 C 171.39922,549.51147 173.41535,549.0921 175.09285,549.09206 L 175.09285,549.09206 z M 194.67032,586.92984 L 196.79966,586.92984 L 196.79966,595.7366 L 193.89656,595.7366 C 192.15409,595.7366 190.60557,595.55941 189.251,595.20501 C 187.89641,594.85061 186.57382,594.12459 185.28323,593.02694 C 183.99263,591.9293 183.08941,590.71943 182.57357,589.39733 C 182.05772,588.07524 181.7998,586.44649 181.79981,584.51108 L 181.79981,556.93014 L 177.25171,556.93014 L 177.25171,549.6709 L 181.79981,549.6709 L 181.79981,535.7372 L 191.09091,535.7372 L 191.09091,549.6709 L 196.79966,549.6709 L 196.79966,556.93014 L 191.09091,556.93014 L 191.09091,582.86609 C 191.0909,584.41363 191.30058,585.47781 191.71997,586.05861 C 192.13932,586.63944 193.12277,586.92985 194.67032,586.92984 L 194.67032,586.92984 z M 215.50887,587.60615 C 216.92841,587.60616 218.15403,587.15479 219.18574,586.25206 C 220.21741,585.34934 220.73325,584.1882 220.73327,582.76863 C 220.73325,581.09116 220.29813,579.8493 219.42791,579.04303 C 218.55765,578.23679 217.18633,577.51077 215.31395,576.86497 L 213.47699,576.18866 C 211.54158,575.47792 209.92858,574.78389 208.638,574.10658 C 207.34739,573.42931 205.96033,572.20368 204.47679,570.42971 C 202.99324,568.65578 202.25147,566.09133 202.25147,562.73634 C 202.25147,558.93055 203.57406,555.70504 206.21924,553.05982 C 208.86441,550.41469 212.1224,549.0921 215.99321,549.09206 C 219.5411,549.0921 222.54067,550.44668 224.99194,553.15581 C 227.44316,555.86502 228.66878,558.92956 228.66881,562.34946 L 220.15442,562.34946 C 220.1544,560.99491 219.71879,559.882 218.84758,559.01074 C 217.97634,558.13955 216.83095,557.70394 215.41141,557.7039 C 214.12178,557.70394 213.05761,558.18779 212.21888,559.15545 C 211.38013,560.12319 210.96076,561.28433 210.96078,562.63888 C 210.96076,564.05847 211.38013,565.15562 212.21888,565.93034 C 213.05761,566.70512 214.28323,567.38291 215.89575,567.96369 L 218.89631,568.92943 C 220.63875,569.57524 222.00957,570.18855 223.0088,570.76934 C 224.00797,571.35018 225.00767,572.22091 226.00788,573.38154 C 227.00804,574.54221 227.83103,575.89679 228.47685,577.44529 C 229.12261,578.99383 229.4455,580.63931 229.44553,582.38174 C 229.4455,586.12458 228.10667,589.39881 225.42903,592.20445 C 222.75134,595.01009 219.5411,596.41291 215.79829,596.41291 C 213.53998,596.41291 211.26594,595.8001 208.97615,594.57448 C 206.68635,593.34886 204.91239,591.68762 203.65429,589.59077 C 202.39618,587.49393 201.76712,585.12341 201.76713,582.4792 L 210.37897,582.4792 C 210.37896,583.89877 210.87906,585.10815 211.87925,586.10734 C 212.87943,587.10655 214.0893,587.60616 215.50887,587.60615 L 215.50887,587.60615 z M 262.54917,582.4792 C 262.54914,586.28504 261.16207,589.54303 258.38796,592.25318 C 255.6138,594.96333 252.32283,596.31841 248.51505,596.31841 C 246.45166,596.31841 244.40354,595.78583 242.3707,594.72067 C 240.33783,593.65551 238.80555,592.38116 237.77387,590.89761 C 236.74218,589.41407 236.01665,587.89804 235.59728,586.34951 C 235.17791,584.80101 234.96823,583.2205 234.96823,581.60798 L 234.96823,563.60756 C 234.96823,559.80177 236.27457,556.43107 238.88727,553.49544 C 241.49995,550.55989 244.7417,549.0921 248.61251,549.09206 C 252.61324,549.0921 255.9362,550.51117 258.5814,553.34925 C 261.22655,556.18742 262.54914,559.60685 262.54917,563.60756 L 253.35553,563.60756 C 253.3555,562.18804 252.95238,560.92993 252.14615,559.83324 C 251.33987,558.73661 250.22697,558.18828 248.80743,558.18824 C 247.96868,558.18828 247.24265,558.36548 246.62937,558.71984 C 246.01605,559.07427 245.46772,559.6226 244.98437,560.36483 C 244.501,561.10713 244.25932,562.18804 244.25934,563.60756 L 244.25934,581.60798 C 244.25932,583.28547 244.61421,584.60806 245.324,585.57575 C 246.03377,586.54346 247.22641,587.02731 248.90194,587.0273 C 250.25847,587.02731 251.33987,586.52721 252.14615,585.52702 C 252.95238,584.52684 253.3555,583.31697 253.35553,581.8974 L 262.54917,581.8974 L 262.54917,582.4792 z M 287.20043,549.09206 C 288.87788,549.0921 290.45888,549.54347 291.94344,550.44615 C 293.42794,551.34892 294.49261,552.39734 295.13744,553.59142 C 295.78222,554.78558 296.18534,555.80201 296.34682,556.64071 C 296.50824,557.47949 296.58896,558.57615 296.58899,559.9307 L 296.58899,595.7366 L 287.29789,595.7366 L 287.29789,563.41265 C 287.29786,561.86515 286.94297,560.60753 286.23322,559.6398 C 285.52342,558.67213 284.39476,558.18828 282.84725,558.18824 C 281.49265,558.18828 280.37975,558.72037 279.50854,559.78451 C 278.6373,560.84872 278.20168,562.0581 278.2017,563.41265 L 278.2017,595.7366 L 268.91059,595.7366 L 268.91059,531.1891 L 278.2017,531.1891 L 278.2017,554.12449 C 280.33003,550.76958 283.32961,549.0921 287.20043,549.09206 L 287.20043,549.09206 z M 305.40462,595.7366 L 305.40462,586.54296 L 314.59827,586.54296 L 314.59827,595.7366 L 305.40462,595.7366 z " />
    <path
       id="text1886"
       style="font-size:96.77368927px;font-style:normal;font-variant:normal;font-weight:normal;font-stretch:normal;text-align:center;line-height:100%;writing-mode:lr-tb;text-anchor:middle;fill:black;fill-opacity:1;stroke:none;stroke-width:1px;stroke-linecap:butt;stroke-linejoin:miter;stroke-opacity:1;font-family:DIN 1451 Engschrift"
       d="M 11.1449,505.12715 L -16.338493,505.12715 L -16.338493,440.57986 L -7.14487,440.57986 L -7.14487,495.83608 L 11.1449,495.83608 L 11.1449,505.12715 z M 17.47678,500.28965 C 17.02393,499.51392 16.73304,498.65845 16.60408,497.72323 C 16.47511,496.78803 16.41063,495.73961 16.41064,494.57797 L 16.41064,489.35359 C 16.41063,485.93369 17.26561,483.38499 18.97558,481.70749 C 20.68553,480.03005 22.23404,478.88515 23.62112,478.27281 C 25.00817,477.66052 26.6694,477.35436 28.60481,477.35433 L 34.79787,477.35433 L 34.79787,473.3851 C 34.79785,472.48142 34.74962,471.73965 34.65316,471.15979 C 34.55667,470.57999 34.15354,469.83822 33.44379,468.93448 C 32.73399,468.03081 31.7658,467.57895 30.53922,467.57891 C 29.24959,467.57895 28.15294,467.99832 27.24924,468.83702 C 26.34552,469.67579 25.79719,470.77245 25.60426,472.12699 L 16.41064,472.12699 C 16.41063,468.38619 17.74946,465.17694 20.42712,462.49924 C 23.10477,459.82163 26.3465,458.4828 30.15234,458.48276 C 33.89513,458.4828 37.1536,459.80539 39.92775,462.45051 C 42.70186,465.09572 44.08892,468.32121 44.08895,472.12699 L 44.08895,505.12715 L 34.79787,505.12715 L 34.79787,500.48161 C 33.83114,502.09412 32.62177,503.36847 31.16975,504.30466 C 29.71769,505.24086 28.08796,505.70895 26.28056,505.70895 C 22.21681,505.70895 19.28222,503.90252 17.47678,500.28965 L 17.47678,500.28965 z M 25.70171,489.25613 L 25.70171,491.57742 C 25.7017,492.80403 26.13731,493.91743 27.00855,494.9176 C 27.87976,495.91779 29.02416,496.41788 30.44176,496.41788 C 31.21747,496.41788 31.94398,496.22444 32.62129,495.83755 C 33.29856,495.45068 33.81441,494.91859 34.16882,494.24129 C 34.5232,493.56402 34.71664,492.69279 34.74914,491.62763 C 34.78161,490.56248 34.79785,489.80447 34.79787,489.35359 L 34.79787,484.90001 L 31.31298,484.90001 C 29.63549,484.90003 28.28091,485.22293 27.24924,485.86869 C 26.21754,486.5145 25.7017,487.64364 25.70171,489.25613 L 25.70171,489.25613 z M 78.37675,463.2228 C 78.89453,463.99857 79.24991,464.93477 79.44289,466.03139 C 79.63581,467.12808 79.73228,468.22474 79.73231,469.32136 L 79.73231,505.12715 L 70.44124,505.12715 L 70.44124,472.70879 C 70.44121,469.28891 68.92519,467.57895 65.89316,467.57891 C 64.53856,467.57895 63.4419,468.09529 62.60318,469.12792 C 61.76443,470.16062 61.34506,471.35425 61.34508,472.70879 L 61.34508,505.12715 L 52.054,505.12715 L 52.054,459.0616 L 61.34508,459.0616 L 61.34508,463.51518 C 63.4104,460.16027 66.28199,458.4828 69.95985,458.48276 C 73.70067,458.4828 76.5063,460.06282 78.37675,463.2228 L 78.37675,463.2228 z M 105.97237,505.12715 L 105.97237,500.38416 C 105.06864,501.93366 103.87502,503.2085 102.3915,504.20868 C 100.90794,505.20886 99.26246,505.70895 97.45506,505.70895 C 93.26136,505.70895 90.61619,504.56357 89.51954,502.27279 C 88.42288,499.98202 87.82631,498.33654 87.72984,497.33635 C 87.63337,496.33618 87.58513,494.99735 87.58513,493.31987 L 87.58513,468.45014 C 87.58513,465.67605 88.52034,463.32128 90.39077,461.38585 C 92.26118,459.4505 94.61594,458.4828 97.45506,458.48276 C 99.19749,458.4828 100.82672,458.93416 102.34277,459.83684 C 103.85877,460.73961 105.06864,461.93324 105.97237,463.41772 L 105.97237,440.57986 L 115.26345,440.57986 L 115.26345,505.12715 L 105.97237,505.12715 z M 105.29311,469.8057 C 104.39135,468.25624 103.06926,467.48149 101.32683,467.48146 C 100.42311,467.48149 99.60061,467.72366 98.85935,468.20797 C 98.11806,468.69235 97.61797,469.27316 97.35907,469.95041 C 97.10016,470.62774 96.95495,471.33751 96.92346,472.07974 C 96.89195,472.82204 96.8762,473.38612 96.87621,473.77198 L 96.87621,490.31931 C 96.8762,490.96512 96.89195,491.6109 96.92346,492.25668 C 96.95495,492.90248 97.26111,493.74121 97.84194,494.77289 C 98.42274,495.80458 99.61686,496.32043 101.42429,496.32042 C 103.29469,496.32043 104.52031,495.80458 105.10115,494.77289 C 105.68194,493.74121 105.97235,492.70854 105.97237,491.67488 L 105.97237,490.31931 L 105.97237,473.77198 C 105.97235,473.12623 105.9561,472.46469 105.92364,471.78737 C 105.89113,471.11011 105.68096,470.44956 105.29311,469.8057 L 105.29311,469.8057 z M 124.09086,484.32116 L 124.09086,475.12755 L 151.67171,475.12755 L 151.67171,484.32116 L 124.09086,484.32116 z M 196.13953,505.12715 L 196.13953,500.48161 C 195.04285,502.15909 193.83298,503.44968 192.50992,504.35339 C 191.18683,505.2571 189.59008,505.70895 187.71967,505.70895 C 185.84924,505.70895 184.09153,505.19262 182.44656,504.15995 C 180.80156,503.12728 179.65618,501.9499 179.01039,500.6278 C 178.3646,499.30572 177.99347,498.2253 177.897,497.38656 C 177.80052,496.54783 177.75228,495.32123 177.75229,493.70675 L 177.75229,459.0616 L 187.04337,459.0616 L 187.04337,490.22481 C 187.04335,490.93361 187.0596,491.65914 187.0921,492.40139 C 187.12457,493.14366 187.47946,493.99864 188.15676,494.96633 C 188.83403,495.93404 190.01141,496.41788 191.6889,496.41788 C 192.52762,496.41788 193.30139,496.19196 194.0102,495.74009 C 194.71897,495.28825 195.21857,494.75616 195.509,494.14384 C 195.79938,493.53153 195.97707,492.87048 196.04207,492.1607 C 196.10702,491.45093 196.1395,490.80564 196.13953,490.22481 L 196.13953,459.0616 L 205.4306,459.0616 L 205.4306,505.12715 L 196.13953,505.12715 z M 239.79223,463.2228 C 240.31001,463.99857 240.66539,464.93477 240.85837,466.03139 C 241.05129,467.12808 241.14776,468.22474 241.14779,469.32136 L 241.14779,505.12715 L 231.85672,505.12715 L 231.85672,472.70879 C 231.8567,469.28891 230.34067,467.57895 227.30864,467.57891 C 225.95404,467.57895 224.85738,468.09529 224.01866,469.12792 C 223.17991,470.16062 222.76054,471.35425 222.76056,472.70879 L 222.76056,505.12715 L 213.46948,505.12715 L 213.46948,459.0616 L 222.76056,459.0616 L 222.76056,463.51518 C 224.82588,460.16027 227.69747,458.4828 231.37533,458.48276 C 235.11615,458.4828 237.92178,460.06282 239.79223,463.2228 L 239.79223,463.2228 z M 267.38785,505.12715 L 267.38785,500.38416 C 266.48412,501.93366 265.2905,503.2085 263.80698,504.20868 C 262.32342,505.20886 260.67794,505.70895 258.87054,505.70895 C 254.67684,505.70895 252.03168,504.56357 250.93503,502.27279 C 249.83836,499.98202 249.2418,498.33654 249.14533,497.33635 C 249.04885,496.33618 249.00061,494.99735 249.00061,493.31987 L 249.00061,468.45014 C 249.00061,465.67605 249.93582,463.32128 251.80625,461.38585 C 253.67666,459.4505 256.03142,458.4828 258.87054,458.48276 C 260.61297,458.4828 262.2422,458.93416 263.75825,459.83684 C 265.27425,460.73961 266.48412,461.93324 267.38785,463.41772 L 267.38785,440.57986 L 276.67893,440.57986 L 276.67893,505.12715 L 267.38785,505.12715 z M 266.70859,469.8057 C 265.80683,468.25624 264.48474,467.48149 262.74231,467.48146 C 261.83859,467.48149 261.01609,467.72366 260.27483,468.20797 C 259.53354,468.69235 259.03345,469.27316 258.77456,469.95041 C 258.51564,470.62774 258.37043,471.33751 258.33894,472.07974 C 258.30743,472.82204 258.29168,473.38612 258.29169,473.77198 L 258.29169,490.31931 C 258.29168,490.96512 258.30743,491.6109 258.33894,492.25668 C 258.37043,492.90248 258.67659,493.74121 259.25742,494.77289 C 259.83822,495.80458 261.03234,496.32043 262.83977,496.32042 C 264.71017,496.32043 265.93579,495.80458 266.51663,494.77289 C 267.09742,493.74121 267.38783,492.70854 267.38785,491.67488 L 267.38785,490.31931 L 267.38785,473.77198 C 267.38783,473.12623 267.37159,472.46469 267.33912,471.78737 C 267.30661,471.11011 267.09644,470.44956 266.70859,469.8057 L 266.70859,469.8057 z " />
  </g>
</svg>
