<?xml version="1.0" encoding="UTF-8" standalone="no"?>
<!-- Created with Inkscape (http://www.inkscape.org/) -->
<svg
   xmlns:dc="http://purl.org/dc/elements/1.1/"
   xmlns:cc="http://web.resource.org/cc/"
   xmlns:rdf="http://www.w3.org/1999/02/22-rdf-syntax-ns#"
   xmlns:svg="http://www.w3.org/2000/svg"
   xmlns="http://www.w3.org/2000/svg"
   xmlns:sodipodi="http://sodipodi.sourceforge.net/DTD/sodipodi-0.dtd"
   xmlns:inkscape="http://www.inkscape.org/namespaces/inkscape"
   version="1.0"
   width="490"
   height="360"
   id="svg2"
   sodipodi:version="0.32"
   inkscape:version="0.44"
   sodipodi:docname="Zusatzzeichen 1026-34.svg"
   sodipodi:docbase="C:\Dokumente und Einstellungen\Internet\Desktop\Wiki\SVG sonstiges (fertig)">
  <metadata
     id="metadata10">
    <rdf:RDF>
      <cc:Work
         rdf:about="">
        <dc:format>image/svg+xml</dc:format>
        <dc:type
           rdf:resource="http://purl.org/dc/dcmitype/StillImage" />
      </cc:Work>
    </rdf:RDF>
  </metadata>
  <sodipodi:namedview
     inkscape:window-height="749"
     inkscape:window-width="1024"
     inkscape:pageshadow="2"
     inkscape:pageopacity="0.0"
     guidetolerance="10.0"
     gridtolerance="10.0"
     objecttolerance="10.0"
     borderopacity="1.0"
     bordercolor="#666666"
     pagecolor="#ffffff"
     id="base"
     inkscape:zoom="0.74246212"
     inkscape:cx="245"
     inkscape:cy="56.694665"
     inkscape:window-x="-4"
     inkscape:window-y="-4"
     inkscape:current-layer="svg2"
     showguides="true"
     inkscape:guide-bbox="true" />
  <defs
     id="defs4" />
  <path
     d="M 38.78125,4.6190618 C 20.35689,4.6190483 9.96875,14.244672 9.96875,42.683954 L 9.65625,317.31604 C 9.65625,345.75531 20.04439,355.38094 38.46875,355.38094 L 451.21875,355.33878 C 469.64311,355.33878 480.03124,345.71316 480.03125,317.27389 L 480.34375,42.726108 C 480.34375,14.286826 469.95561,4.6612021 451.53125,4.6612156 L 38.78125,4.6190618 z "
     style="fill:white;fill-opacity:1;fill-rule:evenodd;stroke:black;stroke-width:3;stroke-linecap:butt;stroke-linejoin:miter;stroke-miterlimit:4;stroke-dasharray:none;stroke-opacity:1"
     id="path1881" />
  <path
     d="M 453.23342,19.074797 L 36.79782,19.117707 C 28.375505,19.117707 23.425891,27.356247 23.425891,39.539027 L 23.425891,320.50387 C 23.425891,332.68661 28.375515,340.9252 36.79782,340.9252 L 453.20218,340.88229 C 461.62449,340.88228 466.57411,332.64373 466.57411,320.46097 L 466.57411,39.496127 C 466.57411,27.313347 461.65573,19.074797 453.23342,19.074797 z "
     style="fill:none;fill-opacity:1;fill-rule:evenodd;stroke:black;stroke-width:12;stroke-linecap:butt;stroke-linejoin:miter;stroke-miterlimit:4;stroke-dasharray:none;stroke-opacity:1"
     id="path3976" />
  <g
     id="g4967"
     transform="translate(258.4687,-263.4318)">
    <path
       id="text4949"
       d="M -68.242547,568.32655 L -68.242547,529.30712 L -72.908879,529.30712 L -72.908879,522.19652 L -68.242547,522.19652 L -68.242547,516.10807 C -68.242554,511.81214 -67.057455,508.6494 -64.687246,506.61986 C -62.317059,504.59044 -59.324684,503.5757 -55.710112,503.57563 L -49.710543,503.57563 L -49.710543,512.28612 L -54.954611,512.28612 C -57.650732,512.28618 -58.998782,513.56016 -58.998765,516.10807 L -58.998765,522.19652 L -49.710543,522.19652 L -49.710543,529.30712 L -58.998765,529.30712 L -58.998765,568.32655 L -68.242547,568.32655 z M -44.466474,568.32655 L -44.466474,522.19652 L -35.178252,522.19652 L -35.178252,527.1295 L -35.000487,527.1295 C -32.126637,523.48536 -28.126928,521.66327 -23.001347,521.66323 C -19.623843,521.66327 -16.409262,522.84837 -13.357595,525.21853 L -20.068224,533.21795 C -22.082923,531.70699 -24.127219,530.95149 -26.201118,530.95145 C -28.482458,530.95149 -30.548974,531.71439 -32.400673,533.24017 C -34.252408,534.76602 -35.178267,537.2177 -35.178252,540.5952 L -35.178252,568.32655 L -44.466474,568.32655 z M 26.639536,548.77239 L -2.0695155,548.77239 C -2.0695286,552.56473 -1.0399738,555.40897 1.0191519,557.30511 C 3.0782452,559.20128 5.7076836,560.14936 8.9074749,560.14935 C 12.729395,560.14936 16.106927,558.66799 19.040081,555.70523 L 25.750711,561.43815 C 23.469355,564.10463 20.899171,566.0082 18.040153,567.14885 C 15.181069,568.28951 12.196101,568.85984 9.08524,568.85984 C 4.3448197,568.85984 -0.24743888,567.32662 -4.6915496,564.26017 C -9.1356813,561.19373 -11.357742,554.92011 -11.357738,545.4393 C -11.357742,536.4622 -9.3060393,530.25524 -5.2026241,526.81841 C -1.0992288,523.38167 3.1893482,521.66327 7.6631197,521.66323 C 12.729395,521.66327 17.158703,523.4187 20.951055,526.92952 C 24.743336,530.44041 26.639495,535.1734 26.639536,541.1285 L 26.639536,548.77239 z M -2.0695155,541.1285 L 17.395755,541.1285 C 17.247585,537.66211 16.269878,535.01045 14.462632,533.17351 C 12.655326,531.33664 10.388825,530.41819 7.6631197,530.41815 C 4.9077417,530.41819 2.6190193,531.33664 0.79694558,533.17351 C -1.0251601,535.01045 -1.9806462,537.66211 -2.0695155,541.1285 L -2.0695155,541.1285 z M 36.683257,568.32655 L 36.683257,522.19652 L 45.971479,522.19652 L 45.971479,568.32655 L 36.683257,568.32655 z M 36.683257,512.86386 L 36.683257,503.57563 L 45.971479,503.57563 L 45.971479,512.86386 L 36.683257,512.86386 z "
       style="font-size:91.01569366px;font-style:normal;font-variant:normal;font-weight:normal;font-stretch:normal;text-align:center;line-height:100%;writing-mode:lr-tb;text-anchor:middle;fill:black;fill-opacity:1;stroke:none;stroke-width:1px;stroke-linecap:butt;stroke-linejoin:miter;stroke-opacity:1;font-family:DIN 1451 Mittelschrift" />
    <path
       id="text1965"
       d="M -190.61215,382.75483 L -190.61215,318.0037 L -180.7906,318.0037 L -180.7906,351.3792 L -180.56839,351.3792 L -153.94799,318.0037 L -142.2599,318.0037 L -163.01403,343.55751 L -140.08227,382.75483 L -151.72592,382.75483 L -169.4136,351.11255 L -180.7906,363.02285 L -180.7906,382.75483 L -190.61215,382.75483 z M -133.9938,382.75483 L -133.9938,336.62465 L -124.70554,336.62465 L -124.70554,341.55765 L -124.52778,341.55765 C -121.65392,337.9135 -117.65419,336.0914 -112.5286,336.09135 C -109.15108,336.0914 -105.93649,337.2765 -102.88481,339.64667 L -109.59546,347.64612 C -111.61017,346.13515 -113.65447,345.37964 -115.72838,345.37961 C -118.00972,345.37964 -120.07625,346.14255 -121.92795,347.66834 C -123.77969,349.19419 -124.70556,351.64588 -124.70554,355.02339 L -124.70554,382.75483 L -133.9938,382.75483 z M -74.39787,382.75483 L -74.39787,378.66622 L -74.620077,378.66622 C -76.486645,381.74749 -80.278974,383.28813 -85.997077,383.28813 C -91.152294,383.28813 -95.152016,381.94748 -97.996257,379.26618 C -100.84051,376.58489 -102.26263,373.22956 -102.26263,369.2002 C -102.26263,365.55602 -101.00346,362.37106 -98.485112,359.6453 C -95.966775,356.91958 -92.218887,355.55672 -87.241437,355.55669 L -74.39787,355.55669 L -74.39787,350.75702 C -74.397901,346.81658 -77.553237,344.84635 -83.86389,344.84631 C -88.248792,344.84635 -91.167108,346.01664 -92.618847,348.35718 L -99.907237,342.84645 C -96.677836,338.3431 -91.493011,336.0914 -84.352745,336.09135 C -78.664271,336.0914 -74.04237,337.20243 -70.487027,339.42446 C -66.931752,341.64657 -65.154098,345.60185 -65.154058,351.29031 L -65.154058,382.75483 L -74.39787,382.75483 z M -74.39787,366.57816 L -74.39787,363.20061 L -85.508222,363.20061 C -90.870832,363.20063 -93.552127,365.05235 -93.552116,368.75579 C -93.552127,370.32606 -92.8781,371.68893 -91.530032,372.8444 C -90.181991,373.99988 -87.937702,374.57762 -84.797159,374.57761 C -80.945595,374.57762 -78.249485,374.14802 -76.708823,373.28881 C -75.168218,372.42962 -74.397901,370.19274 -74.39787,366.57816 L -74.39787,366.57816 z M -53.110441,382.75483 L -53.110441,336.62465 L -43.822187,336.62465 L -43.822187,341.55765 L -43.644421,341.55765 C -40.770562,337.9135 -36.77084,336.0914 -31.645242,336.09135 C -28.060333,336.0914 -24.601314,337.45427 -21.268174,340.17996 C -17.935109,342.90574 -16.268558,346.87584 -16.268516,352.09026 L -16.268516,382.75483 L -25.556769,382.75483 L -25.556769,355.29004 C -25.556803,352.17917 -26.423409,349.74971 -28.156592,348.00165 C -29.889836,346.25366 -32.045242,345.37964 -34.622816,345.37961 C -37.289322,345.37964 -39.48917,346.25366 -41.222365,348.00165 C -42.955596,349.74971 -43.822202,352.17917 -43.822187,355.29004 L -43.822187,382.75483 L -53.110441,382.75483 z M -4.224897,382.75483 L -4.224897,318.0037 L 5.0633568,318.0037 L 5.0633568,358.31206 L 5.2411224,358.31206 L 22.973243,336.62465 L 34.083595,336.62465 L 18.173571,354.66786 L 36.261224,382.75483 L 24.617575,382.75483 L 12.351747,361.20075 L 5.0633568,369.51129 L 5.0633568,382.75483 L -4.224897,382.75483 z M 78.791653,363.20061 L 50.082505,363.20061 C 50.082492,366.99296 51.11205,369.83721 53.171183,371.73336 C 55.230283,373.62954 57.85973,374.57762 61.059532,374.57761 C 64.881465,374.57762 68.259009,373.09624 71.192173,370.13347 L 77.902825,375.86641 C 75.621461,378.5329 73.051269,380.43647 70.192241,381.57713 C 67.333147,382.7178 64.348169,383.28813 61.237298,383.28813 C 56.496862,383.28813 51.904588,381.7549 47.460462,378.68844 C 43.016315,375.62199 40.794247,369.34835 40.794251,359.86751 C 40.794247,350.89037 42.845957,344.6834 46.949386,341.24656 C 51.052795,337.8098 55.341386,336.0914 59.815173,336.09135 C 64.881465,336.0914 69.310787,337.84683 73.103153,341.35766 C 76.895446,344.86857 78.791611,349.60157 78.791653,355.55669 L 78.791653,363.20061 z M 50.082505,355.55669 L 69.547841,355.55669 C 69.39967,352.09029 68.42196,349.43862 66.614708,347.60168 C 64.807396,345.7648 62.540887,344.84635 59.815173,344.84631 C 57.059785,344.84635 54.771055,345.7648 52.948976,347.60168 C 51.126864,349.43862 50.171374,352.09029 50.082505,355.55669 L 50.082505,355.55669 z M 88.568774,382.75483 L 88.568774,336.62465 L 97.857027,336.62465 L 97.857027,341.55765 L 98.034793,341.55765 C 100.90865,337.9135 104.90837,336.0914 110.03397,336.09135 C 113.61888,336.0914 117.0779,337.45427 120.41104,340.17996 C 123.7441,342.90574 125.41066,346.87584 125.4107,352.09026 L 125.4107,382.75483 L 116.12245,382.75483 L 116.12245,355.29004 C 116.12241,352.17917 115.2558,349.74971 113.52262,348.00165 C 111.78938,346.25366 109.63397,345.37964 107.0564,345.37961 C 104.38989,345.37964 102.19004,346.25366 100.45685,348.00165 C 98.723619,349.74971 97.857012,352.17917 97.857027,355.29004 L 97.857027,382.75483 L 88.568774,382.75483 z M 136.25438,362.2229 L 136.25438,352.93465 L 163.67473,352.93465 L 163.67473,362.2229 L 136.25438,362.2229 z "
       style="font-size:91.01599884px;font-style:normal;font-variant:normal;font-weight:normal;font-stretch:normal;text-align:center;line-height:100%;writing-mode:lr-tb;text-anchor:middle;fill:black;fill-opacity:1;stroke:none;stroke-width:1px;stroke-linecap:butt;stroke-linejoin:miter;stroke-opacity:1;font-family:DIN 1451 Mittelschrift" />
    <path
       id="text1969"
       d="M -196.78948,473.79612 L -196.78948,434.77657 L -201.45583,434.77657 L -201.45583,427.66594 L -196.78948,427.66594 L -196.78948,421.57747 C -196.78949,417.28152 -195.60438,414.11878 -193.23417,412.08923 C -190.86397,410.0598 -187.87159,409.04506 -184.257,409.04499 L -178.25741,409.04499 L -178.25741,417.75551 L -183.5015,417.75551 C -186.19763,417.75556 -187.54568,419.02955 -187.54567,421.57747 L -187.54567,427.66594 L -178.25741,427.66594 L -178.25741,434.77657 L -187.54567,434.77657 L -187.54567,473.79612 L -196.78948,473.79612 z M -148.79276,473.79612 L -148.79276,469.70751 L -149.01497,469.70751 C -150.88154,472.78878 -154.67386,474.32942 -160.39197,474.32942 C -165.54718,474.32942 -169.54691,472.98877 -172.39115,470.30747 C -175.2354,467.62618 -176.65752,464.27085 -176.65752,460.24149 C -176.65752,456.59731 -175.39835,453.41235 -172.88,450.68659 C -170.36167,447.96088 -166.61378,446.59801 -161.63633,446.59798 L -148.79276,446.59798 L -148.79276,441.79831 C -148.79279,437.85787 -151.94813,435.88764 -158.25878,435.8876 C -162.64368,435.88764 -165.562,437.05793 -167.01374,439.39847 L -174.30213,433.88774 C -171.07273,429.38439 -165.8879,427.13269 -158.74764,427.13264 C -153.05916,427.13269 -148.43726,428.24372 -144.88192,430.46575 C -141.32664,432.68786 -139.54899,436.64314 -139.54895,442.3316 L -139.54895,473.79612 L -148.79276,473.79612 z M -148.79276,457.61945 L -148.79276,454.2419 L -159.90311,454.2419 C -165.26572,454.24192 -167.94702,456.09364 -167.94701,459.79708 C -167.94702,461.36735 -167.27299,462.73022 -165.92492,463.88569 C -164.57688,465.04117 -162.33259,465.61891 -159.19205,465.6189 C -155.34049,465.61891 -152.64438,465.18931 -151.10371,464.3301 C -149.56311,463.47091 -148.79279,461.23403 -148.79276,457.61945 L -148.79276,457.61945 z M -127.50533,473.79612 L -127.50533,409.04499 L -118.21707,409.04499 L -118.21707,432.59894 L -118.03931,432.59894 C -115.16545,428.95479 -111.16573,427.13269 -106.04013,427.13264 C -102.45522,427.13269 -98.996201,428.49556 -95.663061,431.22125 C -92.329996,433.94703 -90.663445,437.91713 -90.663402,443.13155 L -90.663402,473.79612 L -99.951656,473.79612 L -99.951656,446.33133 C -99.95169,443.22046 -100.8183,440.791 -102.55148,439.04294 C -104.28472,437.29495 -106.44013,436.42094 -109.0177,436.4209 C -111.68421,436.42094 -113.88406,437.29495 -115.61725,439.04294 C -117.35048,440.791 -118.21709,443.22046 -118.21707,446.33133 L -118.21707,473.79612 L -127.50533,473.79612 z M -78.619784,473.79612 L -78.619784,427.66594 L -69.33153,427.66594 L -69.33153,432.59894 L -69.153765,432.59894 C -66.279905,428.95479 -62.280183,427.13269 -57.154585,427.13264 C -53.777069,427.13269 -50.562477,428.31779 -47.5108,430.68796 L -54.221452,438.68741 C -56.236158,437.17644 -58.28046,436.42094 -60.354366,436.4209 C -62.635714,436.42094 -64.702237,437.18385 -66.553942,438.70963 C -68.405684,440.23549 -69.331546,442.68717 -69.33153,446.06468 L -69.33153,473.79612 L -78.619784,473.79612 z M -46.266433,473.79612 L -46.266433,466.46329 L -23.156902,435.8876 L -44.977633,435.8876 L -44.977633,427.66594 L -11.868785,427.66594 L -11.868785,435.04321 L -34.978316,465.0856 L -11.868785,465.0856 L -11.868785,473.79612 L -46.266433,473.79612 z M 32.839256,454.2419 L 4.1301075,454.2419 C 4.1300944,458.03425 5.1596526,460.8785 7.2187852,462.77465 C 9.2778854,464.67083 11.907333,465.61891 15.107135,465.6189 C 18.929068,465.61891 22.306611,464.13753 25.239775,461.17476 L 31.950428,466.9077 C 29.669063,469.57419 27.098871,471.47776 24.239844,472.61842 C 21.380749,473.75909 18.395771,474.32942 15.2849,474.32942 C 10.544464,474.32942 5.9521902,472.79619 1.5080646,469.72973 C -2.936082,466.66328 -5.1581501,460.38964 -5.1581462,450.9088 C -5.1581501,441.93166 -3.1064406,435.72469 0.99698845,432.28785 C 5.1003975,428.85109 9.3889889,427.13269 13.862775,427.13264 C 18.929068,427.13269 23.35839,428.88812 27.150756,432.39895 C 30.943049,435.90986 32.839214,440.64286 32.839256,446.59798 L 32.839256,454.2419 z M 4.1301075,446.59798 L 23.595443,446.59798 C 23.447273,443.13158 22.469563,440.47991 20.66231,438.64297 C 18.854999,436.80609 16.588489,435.88764 13.862775,435.8876 C 11.107388,435.88764 8.818658,436.80609 6.9965782,438.64297 C 5.1744664,440.47991 4.2189772,443.13158 4.1301075,446.59798 L 4.1301075,446.59798 z M 42.616376,458.33051 L 42.616376,427.66594 L 51.90463,427.66594 L 51.90463,455.17517 C 51.904615,458.31571 52.771221,460.75258 54.504452,462.48578 C 56.237647,464.21901 58.437495,465.08561 61.104001,465.0856 C 63.681575,465.08561 65.836981,464.21901 67.570226,462.48578 C 69.303408,460.75258 70.170014,458.31571 70.170048,455.17517 L 70.170048,427.66594 L 79.458302,427.66594 L 79.458302,473.79612 L 70.170048,473.79612 L 70.170048,468.90757 L 69.992282,468.90757 C 67.118374,472.52213 63.148279,474.32942 58.081985,474.32942 C 54.437772,474.32942 50.949125,472.97395 47.616034,470.26303 C 44.282921,467.55211 42.61637,463.57461 42.616376,458.33051 L 42.616376,458.33051 z M 117.41126,473.75168 L 117.41126,468.99645 C 114.18182,472.55176 110.21173,474.32942 105.50096,474.32942 C 102.47893,474.32942 99.95318,473.72946 97.923703,472.52954 C 95.894202,471.32962 94.360975,470.06305 93.324018,468.7298 C 91.990769,467.01141 91.079721,465.18931 90.590871,463.26351 C 90.102011,461.33772 89.857584,457.17505 89.857588,450.77547 C 89.857584,444.37594 90.102011,440.21326 90.590871,438.28744 C 91.079721,436.36168 91.990769,434.52477 93.324018,432.7767 C 94.360975,431.47313 95.894202,430.20655 97.923703,428.97696 C 99.95318,427.74746 102.47893,427.13269 105.50096,427.13264 C 110.00433,427.13269 113.97443,428.95479 117.41126,432.59894 L 117.41126,427.66594 L 126.69951,427.66594 L 126.69951,472.72953 C 126.69947,479.66238 124.67739,484.77314 120.63326,488.06181 C 116.58906,491.35046 111.94494,492.99479 106.70088,492.99481 C 103.7381,492.99479 100.8346,492.28373 97.990365,490.86162 C 95.146106,489.43948 92.701831,487.57294 90.657533,485.262 L 97.857041,479.52906 C 98.982877,480.6549 100.32352,481.63261 101.87899,482.46219 C 103.43442,483.29176 105.10097,483.70654 106.87865,483.70655 C 109.95989,483.70654 112.48564,482.84734 114.45591,481.12895 C 116.42611,479.41055 117.41123,476.95146 117.41126,473.75168 L 117.41126,473.75168 z M 99.145842,450.77547 C 99.145828,454.47894 99.242118,456.93803 99.434711,458.15275 C 99.627276,459.36749 100.13835,460.49334 100.96794,461.53029 C 101.5901,462.35988 102.50856,463.15982 103.72331,463.93013 C 104.93802,464.70045 106.47865,465.08561 108.34521,465.0856 C 110.15247,465.08561 111.65607,464.70045 112.85602,463.93013 C 114.0559,463.15982 114.98177,462.35988 115.6336,461.53029 C 116.43352,460.49334 116.92978,459.36749 117.12239,458.15275 C 117.31494,456.93803 117.41123,454.47894 117.41126,450.77547 C 117.41123,447.07205 117.31494,444.61296 117.12239,443.3982 C 116.92978,442.1835 116.43352,441.04284 115.6336,439.97621 C 114.98177,439.1763 114.0559,438.38376 112.85602,437.59859 C 111.65607,436.8135 110.15247,436.42094 108.34521,436.4209 C 106.47865,436.42094 104.93802,436.8135 103.72331,437.59859 C 102.50856,438.38376 101.5901,439.1763 100.96794,439.97621 C 100.13835,441.04284 99.627276,442.1835 99.434711,443.3982 C 99.242118,444.61296 99.145828,447.07205 99.145842,450.77547 L 99.145842,450.77547 z M 174.51845,454.2419 L 145.80931,454.2419 C 145.80929,458.03425 146.83885,460.8785 148.89798,462.77465 C 150.95708,464.67083 153.58653,465.61891 156.78633,465.6189 C 160.60827,465.61891 163.98581,464.13753 166.91897,461.17476 L 173.62963,466.9077 C 171.34826,469.57419 168.77807,471.47776 165.91904,472.61842 C 163.05995,473.75909 160.07497,474.32942 156.9641,474.32942 C 152.22366,474.32942 147.63139,472.79619 143.18726,469.72973 C 138.74312,466.66328 136.52105,460.38964 136.52105,450.9088 C 136.52105,441.93166 138.57276,435.72469 142.67619,432.28785 C 146.7796,428.85109 151.06819,427.13269 155.54197,427.13264 C 160.60827,427.13269 165.03759,428.88812 168.82995,432.39895 C 172.62225,435.90986 174.51841,440.64286 174.51845,446.59798 L 174.51845,454.2419 z M 145.80931,446.59798 L 165.27464,446.59798 C 165.12647,443.13158 164.14876,440.47991 162.34151,438.64297 C 160.5342,436.80609 158.26769,435.88764 155.54197,435.8876 C 152.78659,435.88764 150.49786,436.80609 148.67578,438.64297 C 146.85367,440.47991 145.89818,443.13158 145.80931,446.59798 L 145.80931,446.59798 z "
       style="font-size:91.01599884px;font-style:normal;font-variant:normal;font-weight:normal;font-stretch:normal;text-align:center;line-height:100%;writing-mode:lr-tb;text-anchor:middle;fill:black;fill-opacity:1;stroke:none;stroke-width:1px;stroke-linecap:butt;stroke-linejoin:miter;stroke-opacity:1;font-family:DIN 1451 Mittelschrift" />
  </g>
</svg>
