<?xml version="1.0" encoding="UTF-8" standalone="no"?>
<!-- Created with Inkscape (http://www.inkscape.org/) -->
<svg
   xmlns:dc="http://purl.org/dc/elements/1.1/"
   xmlns:cc="http://web.resource.org/cc/"
   xmlns:rdf="http://www.w3.org/1999/02/22-rdf-syntax-ns#"
   xmlns:svg="http://www.w3.org/2000/svg"
   xmlns="http://www.w3.org/2000/svg"
   xmlns:sodipodi="http://sodipodi.sourceforge.net/DTD/sodipodi-0.dtd"
   xmlns:inkscape="http://www.inkscape.org/namespaces/inkscape"
   version="1.0"
   width="490"
   height="360"
   id="svg2"
   sodipodi:version="0.32"
   inkscape:version="0.44"
   sodipodi:docname="Zusatzzeichen 1026-37.svg"
   sodipodi:docbase="C:\Dokumente und Einstellungen\Internet\Desktop\Wiki\SVG sonstiges (fertig)">
  <metadata
     id="metadata10">
    <rdf:RDF>
      <cc:Work
         rdf:about="">
        <dc:format>image/svg+xml</dc:format>
        <dc:type
           rdf:resource="http://purl.org/dc/dcmitype/StillImage" />
      </cc:Work>
    </rdf:RDF>
  </metadata>
  <sodipodi:namedview
     inkscape:window-height="749"
     inkscape:window-width="1024"
     inkscape:pageshadow="2"
     inkscape:pageopacity="0.0"
     guidetolerance="10.0"
     gridtolerance="10.0"
     objecttolerance="10.0"
     borderopacity="1.0"
     bordercolor="#666666"
     pagecolor="#ffffff"
     id="base"
     inkscape:zoom="0.74246212"
     inkscape:cx="245"
     inkscape:cy="74.730949"
     inkscape:window-x="-4"
     inkscape:window-y="-4"
     inkscape:current-layer="svg2"
     showguides="true"
     inkscape:guide-bbox="true" />
  <defs
     id="defs4" />
  <path
     d="M 38.78125,4.6190618 C 20.35689,4.6190483 9.96875,14.244672 9.96875,42.683954 L 9.65625,317.31604 C 9.65625,345.75531 20.04439,355.38094 38.46875,355.38094 L 451.21875,355.33878 C 469.64311,355.33878 480.03124,345.71316 480.03125,317.27389 L 480.34375,42.726108 C 480.34375,14.286826 469.95561,4.6612021 451.53125,4.6612156 L 38.78125,4.6190618 z "
     style="fill:white;fill-opacity:1;fill-rule:evenodd;stroke:black;stroke-width:3;stroke-linecap:butt;stroke-linejoin:miter;stroke-miterlimit:4;stroke-dasharray:none;stroke-opacity:1"
     id="path1881" />
  <path
     d="M 453.23342,19.074797 L 36.79782,19.117707 C 28.375505,19.117707 23.425891,27.356247 23.425891,39.539027 L 23.425891,320.50387 C 23.425891,332.68661 28.375515,340.9252 36.79782,340.9252 L 453.20218,340.88229 C 461.62449,340.88228 466.57411,332.64373 466.57411,320.46097 L 466.57411,39.496127 C 466.57411,27.313347 461.65573,19.074797 453.23342,19.074797 z "
     style="fill:none;fill-opacity:1;fill-rule:evenodd;stroke:black;stroke-width:12;stroke-linecap:butt;stroke-linejoin:miter;stroke-miterlimit:4;stroke-dasharray:none;stroke-opacity:1"
     id="path3976" />
  <g
     id="g3981"
     transform="translate(-196.4117,-340.0425)">
    <path
       id="text2023"
       style="font-size:94.05919647px;font-style:normal;font-variant:normal;font-weight:normal;font-stretch:normal;text-align:center;line-height:100%;writing-mode:lr-tb;text-anchor:middle;fill:black;fill-opacity:1;stroke:none;stroke-width:1px;stroke-linecap:butt;stroke-linejoin:miter;stroke-opacity:1;font-family:DIN 1451 Engschrift"
       d="M 298.16712,459.38275 L 298.16712,396.646 L 324.87961,396.646 L 324.87961,405.11098 L 307.00813,405.11098 L 307.00813,423.9211 L 322.71528,423.9211 L 322.71528,432.29423 L 307.00813,432.29423 L 307.00813,459.38275 L 298.16712,459.38275 z M 334.02202,419.21929 C 335.3386,417.58891 336.89056,416.31921 338.67791,415.41019 C 340.46523,414.50126 342.39322,414.04677 344.46188,414.04672 C 346.78119,414.04677 348.83453,414.47016 350.62189,415.3169 C 352.4092,416.16373 354.08698,417.62144 355.65524,419.69004 C 357.22343,421.75873 358.00755,424.45504 358.00758,427.779 L 358.00758,445.65047 C 358.00755,449.03571 357.25501,451.74734 355.74996,453.78535 C 354.24486,455.82338 352.55177,457.36003 350.67068,458.39531 C 348.78956,459.43059 346.87687,459.94823 344.93264,459.94823 C 342.2363,459.94823 339.77489,459.27415 337.54838,457.92599 C 335.32185,456.57784 333.7852,455.07276 332.93842,453.41076 C 332.09163,451.74877 331.57447,450.36904 331.38694,449.27156 C 331.1994,448.1741 331.10563,446.96707 331.10564,445.65047 L 331.10564,427.779 C 331.10563,424.39189 332.07776,421.53866 334.02202,419.21929 L 334.02202,419.21929 z M 344.64846,422.79301 C 343.27063,422.79305 342.17411,423.26332 341.35891,424.20384 C 340.54369,425.14443 340.13609,426.33615 340.1361,427.779 L 340.1361,445.65047 C 340.13609,447.09337 340.5279,448.33197 341.31155,449.36628 C 342.09517,450.40061 343.20748,450.91777 344.64846,450.91777 C 346.5927,450.91777 347.8002,450.35325 348.27098,449.2242 C 348.74171,448.09516 348.97709,446.84077 348.97711,445.46102 L 348.97711,427.779 C 348.97709,426.3993 348.58527,425.22337 347.80166,424.2512 C 347.01801,423.27911 345.96694,422.79305 344.64846,422.79301 L 344.64846,422.79301 z M 385.89121,414.04672 L 385.89121,423.26377 C 385.45297,423.13941 385.01426,423.04565 384.57511,422.98246 C 384.1359,422.91935 383.72782,422.88777 383.35086,422.88774 C 380.40383,422.88777 378.1467,423.891 376.57944,425.89741 C 375.01216,427.90389 374.22853,430.31842 374.22854,433.14101 L 374.22854,459.38275 L 365.19808,459.38275 L 365.19808,414.60933 L 374.22854,414.60933 L 374.22854,419.40874 C 375.79579,417.46452 377.72378,416.08479 380.01251,415.26954 C 382.30121,414.45437 384.26077,414.04677 385.89121,414.04672 L 385.89121,414.04672 z M 402.94461,451.48038 C 404.32433,451.48038 405.51557,451.04168 406.51833,450.16427 C 407.52106,449.28688 408.02243,448.15831 408.02245,446.77856 C 408.02243,445.14816 407.59952,443.94113 406.75371,443.15748 C 405.90786,442.37386 404.57501,441.66821 402.75516,441.04052 L 400.96973,440.38318 C 399.08861,439.69238 397.52087,439.01782 396.26649,438.35951 C 395.01209,437.70124 393.66393,436.51 392.22201,434.78579 C 390.78008,433.06162 390.05912,430.56911 390.05912,427.30824 C 390.05912,423.60921 391.3446,420.4742 393.91558,417.90318 C 396.48655,415.33225 399.65314,414.04677 403.41536,414.04672 C 406.86372,414.04677 409.77915,415.36335 412.16165,417.99647 C 414.54411,420.62968 415.73535,423.60826 415.73537,426.93221 L 407.45984,426.93221 C 407.45982,425.61566 407.03643,424.53398 406.18966,423.68716 C 405.34286,422.84041 404.2296,422.41702 402.84988,422.41698 C 401.59644,422.41702 400.56212,422.88729 399.74692,423.82781 C 398.9317,424.7684 398.52409,425.89697 398.5241,427.21352 C 398.52409,428.59328 398.9317,429.65966 399.74692,430.41264 C 400.56212,431.16569 401.75335,431.82446 403.32064,432.38895 L 406.23703,433.32759 C 407.93058,433.95529 409.26295,434.55139 410.23414,435.11589 C 411.20529,435.68044 412.17694,436.52674 413.14909,437.65481 C 414.12119,438.78292 414.92109,440.0995 415.54879,441.60456 C 416.17644,443.10966 416.49028,444.70898 416.4903,446.40253 C 416.49028,450.04037 415.189,453.22275 412.58648,455.94968 C 409.98391,458.67662 406.86372,460.04008 403.22591,460.04008 C 401.03096,460.04008 398.82071,459.44446 396.59515,458.25322 C 394.36958,457.06199 392.6454,455.44735 391.42259,453.40932 C 390.19977,451.37131 389.58836,449.06729 389.58836,446.49726 L 397.95862,446.49726 C 397.95861,447.877 398.44468,449.05246 399.41682,450.02362 C 400.38893,450.9948 401.56486,451.48038 402.94461,451.48038 L 402.94461,451.48038 z M 435.96637,450.82304 L 438.03597,450.82304 L 438.03597,459.38275 L 435.21431,459.38275 C 433.52072,459.38275 432.01565,459.21052 430.69908,458.86607 C 429.38248,458.52161 428.09699,457.81596 426.84261,456.7491 C 425.58822,455.68225 424.71034,454.50632 424.20897,453.22131 C 423.70759,451.93631 423.4569,450.35325 423.45691,448.47214 L 423.45691,421.66492 L 419.0364,421.66492 L 419.0364,414.60933 L 423.45691,414.60933 L 423.45691,401.06651 L 432.48737,401.06651 L 432.48737,414.60933 L 438.03597,414.60933 L 438.03597,421.66492 L 432.48737,421.66492 L 432.48737,446.87329 C 432.48736,448.37742 432.69116,449.41174 433.09878,449.97626 C 433.50637,450.54079 434.46223,450.82305 435.96637,450.82304 L 435.96637,450.82304 z M 469.85787,459.38275 L 464.78003,432.48081 L 459.69932,459.38275 L 451.89454,459.38275 L 441.1705,414.60933 L 450.67172,414.60933 L 456.31505,442.45278 L 461.39289,414.60933 L 467.97772,414.60933 L 473.15029,442.45278 L 478.70175,414.60933 L 488.2001,414.60933 L 477.57079,459.38275 L 469.85787,459.38275 z M 492.32496,459.38275 L 492.32496,414.60933 L 501.35542,414.60933 L 501.35542,459.38275 L 492.32496,459.38275 z M 492.32496,405.48701 L 492.32496,396.646 L 501.35542,396.646 L 501.35542,405.48701 L 492.32496,405.48701 z M 529.91936,414.04672 L 529.91936,423.26377 C 529.48111,423.13941 529.04241,423.04565 528.60325,422.98246 C 528.16405,422.91935 527.75597,422.88777 527.379,422.88774 C 524.43198,422.88777 522.17484,423.891 520.60759,425.89741 C 519.04031,427.90389 518.25667,430.31842 518.25668,433.14101 L 518.25668,459.38275 L 509.22622,459.38275 L 509.22622,414.60933 L 518.25668,414.60933 L 518.25668,419.40874 C 519.82394,417.46452 521.75193,416.08479 524.04066,415.26954 C 526.32935,414.45437 528.28891,414.04677 529.91936,414.04672 L 529.91936,414.04672 z M 548.94764,450.82304 L 551.01724,450.82304 L 551.01724,459.38275 L 548.19558,459.38275 C 546.50199,459.38275 544.99692,459.21052 543.68035,458.86607 C 542.36375,458.52161 541.07826,457.81596 539.82388,456.7491 C 538.56949,455.68225 537.6916,454.50632 537.19024,453.22131 C 536.68886,451.93631 536.43817,450.35325 536.43818,448.47214 L 536.43818,421.66492 L 532.01767,421.66492 L 532.01767,414.60933 L 536.43818,414.60933 L 536.43818,401.06651 L 545.46864,401.06651 L 545.46864,414.60933 L 551.01724,414.60933 L 551.01724,421.66492 L 545.46864,421.66492 L 545.46864,446.87329 C 545.46863,448.37742 545.67243,449.41174 546.08005,449.97626 C 546.48764,450.54079 547.4435,450.82305 548.94764,450.82304 L 548.94764,450.82304 z M 558.57227,439.16037 L 558.57227,430.22463 L 585.37949,430.22463 L 585.37949,439.16037 L 558.57227,439.16037 z " />
    <path
       id="text2005"
       style="font-size:94.05899811px;font-style:normal;font-variant:normal;font-weight:normal;font-stretch:normal;text-align:center;line-height:100%;writing-mode:lr-tb;text-anchor:middle;fill:black;fill-opacity:1;stroke:none;stroke-width:1px;stroke-linecap:butt;stroke-linejoin:miter;stroke-opacity:1;font-family:DIN 1451 Engschrift"
       d="M 287.46234,543.42329 C 288.84205,543.4233 290.03329,542.9846 291.03605,542.10719 C 292.03878,541.2298 292.54015,540.10123 292.54017,538.72149 C 292.54015,537.09109 292.11724,535.88407 291.27143,535.10042 C 290.42558,534.3168 289.09274,533.61115 287.27289,532.98346 L 285.48747,532.32612 C 283.60635,531.63532 282.03861,530.96077 280.78423,530.30245 C 279.52983,529.64419 278.18168,528.45295 276.73976,526.72874 C 275.29784,525.00458 274.57687,522.51207 274.57688,519.25121 C 274.57687,515.55219 275.86236,512.41718 278.43333,509.84617 C 281.00429,507.27525 284.17087,505.98976 287.93309,505.98972 C 291.38144,505.98976 294.29687,507.30634 296.67936,509.93946 C 299.06181,512.57266 300.25305,515.55123 300.25308,518.87518 L 291.97756,518.87518 C 291.97754,517.55863 291.55415,516.47695 290.70739,515.63013 C 289.86058,514.78339 288.74733,514.36 287.36761,514.35996 C 286.11417,514.36 285.07985,514.83027 284.26465,515.77079 C 283.44943,516.71137 283.04183,517.83994 283.04184,519.15649 C 283.04183,520.53625 283.44943,521.60262 284.26465,522.35561 C 285.07985,523.10865 286.27109,523.76742 287.83837,524.33191 L 290.75475,525.27055 C 292.4483,525.89825 293.78066,526.49435 294.75185,527.05884 C 295.723,527.62339 296.69465,528.46969 297.6668,529.59776 C 298.6389,530.72587 299.4388,532.04245 300.0665,533.5475 C 300.69414,535.05259 301.00798,536.65191 301.00801,538.34546 C 301.00798,541.98329 299.70671,545.16567 297.10419,547.89259 C 294.50162,550.61952 291.38144,551.98298 287.74364,551.98298 C 285.54869,551.98298 283.33844,551.38737 281.1129,550.19613 C 278.88733,549.00489 277.16315,547.39026 275.94034,545.35224 C 274.71753,543.31423 274.10612,541.01021 274.10612,538.44019 L 282.47636,538.44019 C 282.47635,539.81993 282.96242,540.99538 283.93455,541.96654 C 284.90667,542.93772 286.08259,543.4233 287.46234,543.42329 L 287.46234,543.42329 z M 333.18291,538.44019 C 333.18288,542.13925 331.83473,545.30584 329.13844,547.93995 C 326.44211,550.57407 323.24347,551.89113 319.54252,551.89113 C 317.53702,551.89113 315.54636,551.37349 313.57054,550.33822 C 311.59471,549.30294 310.10542,548.06434 309.10268,546.62241 C 308.09993,545.1805 307.39476,543.707 306.98716,542.20192 C 306.57955,540.69685 306.37575,539.16068 306.37575,537.5934 L 306.37575,520.09799 C 306.37575,516.39897 307.64544,513.12283 310.18484,510.26956 C 312.72423,507.41638 315.87502,505.98976 319.63724,505.98972 C 323.52573,505.98976 326.75547,507.36902 329.32646,510.12748 C 331.8974,512.88602 333.18288,516.20952 333.18291,520.09799 L 324.24719,520.09799 C 324.24717,518.7183 323.85535,517.49548 323.07174,516.42956 C 322.28809,515.3637 321.20641,514.83075 319.82669,514.83071 C 319.01147,514.83075 318.30582,515.00298 317.70974,515.3474 C 317.11362,515.69189 316.58068,516.22483 316.11089,516.94624 C 315.64108,517.66771 315.40618,518.7183 315.4062,520.09799 L 315.4062,537.5934 C 315.40618,539.22383 315.75112,540.50932 316.441,541.44986 C 317.13085,542.39042 318.29003,542.86069 319.91855,542.86069 C 321.23703,542.86069 322.28809,542.37463 323.07174,541.4025 C 323.85535,540.43038 324.24717,539.25445 324.24719,537.87471 L 333.18291,537.87471 L 333.18291,538.44019 z M 357.14258,505.98972 C 358.77297,505.98976 360.30962,506.42846 361.75253,507.30582 C 363.19538,508.18327 364.23018,509.20228 364.85692,510.36285 C 365.48361,511.52351 365.87542,512.51143 366.03237,513.3266 C 366.18926,514.14184 366.26772,515.20774 366.26775,516.52428 L 366.26775,551.32565 L 357.2373,551.32565 L 357.2373,519.90854 C 357.23728,518.40446 356.89235,517.18213 356.20251,516.24154 C 355.51262,515.30103 354.41563,514.83075 352.91153,514.83071 C 351.59493,514.83075 350.51325,515.34791 349.66648,516.38219 C 348.81969,517.41655 348.3963,518.592 348.39631,519.90854 L 348.39631,551.32565 L 339.36587,551.32565 L 339.36587,488.58903 L 348.39631,488.58903 L 348.39631,510.88097 C 350.46493,507.62018 353.38035,505.98976 357.14258,505.98972 L 357.14258,505.98972 z M 374.55474,546.62385 C 374.1146,545.86988 373.83187,545.03841 373.70653,544.12943 C 373.58118,543.22046 373.51851,542.20145 373.51851,541.07239 L 373.51851,535.99456 C 373.51851,532.6706 374.3495,530.1934 376.0115,528.56296 C 377.67348,526.93257 379.17856,525.81979 380.52672,525.22462 C 381.87487,524.62951 383.48949,524.33194 385.37061,524.33191 L 391.38995,524.33191 L 391.38995,520.47402 C 391.38993,519.5957 391.34305,518.87474 391.2493,518.31114 C 391.15551,517.74761 390.76369,517.02664 390.07385,516.14825 C 389.38396,515.26993 388.44293,514.83075 387.25076,514.83071 C 385.99731,514.83075 384.93142,515.23835 384.05307,516.05353 C 383.1747,516.86877 382.64175,517.93466 382.45423,519.25121 L 373.51851,519.25121 C 373.51851,515.61534 374.81978,512.49612 377.42233,509.89353 C 380.02486,507.29104 383.17566,505.98976 386.87473,505.98972 C 390.51253,505.98976 393.67959,507.27525 396.37593,509.84617 C 399.07221,512.41718 400.42037,515.55219 400.4204,519.25121 L 400.4204,551.32565 L 391.38995,551.32565 L 391.38995,546.81043 C 390.45034,548.3777 389.27489,549.6163 387.8636,550.52623 C 386.45228,551.43616 384.86827,551.89113 383.11156,551.89113 C 379.16181,551.89113 376.30954,550.13537 374.55474,546.62385 L 374.55474,546.62385 z M 382.54896,535.89984 L 382.54896,538.15601 C 382.54894,539.34822 382.97234,540.43038 383.81913,541.4025 C 384.6659,542.37463 385.7782,542.86069 387.15603,542.86069 C 387.90999,542.86069 388.61612,542.67268 389.27443,542.29664 C 389.9327,541.92062 390.43407,541.40346 390.77854,540.74516 C 391.12298,540.08688 391.31099,539.2401 391.34259,538.20481 C 391.37414,537.16955 391.38993,536.4328 391.38995,535.99456 L 391.38995,531.66592 L 388.00282,531.66592 C 386.37238,531.66594 385.0558,531.97978 384.05307,532.60743 C 383.05032,533.23512 382.54894,534.33259 382.54896,535.89984 L 382.54896,535.89984 z M 410.2316,551.32565 L 410.2316,513.70263 L 405.8111,513.70263 L 405.8111,506.55233 L 410.2316,506.55233 L 410.2316,500.34641 C 410.2316,496.83494 411.10948,494.2324 412.86524,492.53878 C 414.62099,490.84527 416.25141,489.76359 417.75649,489.29373 C 419.26155,488.824 420.92402,488.5891 422.74391,488.58903 L 425.84687,488.58903 L 425.84687,496.86455 L 422.55446,496.86455 C 420.3595,496.8646 419.26203,498.02522 419.26205,500.34641 L 419.26205,506.55233 L 425.84687,506.55233 L 425.84687,513.70263 L 419.26205,513.70263 L 419.26205,551.32565 L 410.2316,551.32565 z M 443.75275,542.76596 L 445.82234,542.76596 L 445.82234,551.32565 L 443.00069,551.32565 C 441.30711,551.32565 439.80203,551.15342 438.48547,550.80897 C 437.16887,550.46452 435.88339,549.75886 434.62901,548.69201 C 433.37462,547.62516 432.49674,546.44923 431.99537,545.16422 C 431.49399,543.87923 431.24331,542.29617 431.24331,540.41506 L 431.24331,513.6079 L 426.82282,513.6079 L 426.82282,506.55233 L 431.24331,506.55233 L 431.24331,493.00953 L 440.27376,493.00953 L 440.27376,506.55233 L 445.82234,506.55233 L 445.82234,513.6079 L 440.27376,513.6079 L 440.27376,538.81622 C 440.27374,540.32035 440.47755,541.35466 440.88516,541.91918 C 441.29275,542.48371 442.24861,542.76597 443.75275,542.76596 L 443.75275,542.76596 z M 461.56104,488.58903 L 461.56104,538.44019 C 461.56103,539.94432 461.81171,541.04131 462.3131,541.73116 C 462.81446,542.42104 463.81816,542.76597 465.3242,542.76596 L 465.98154,542.76596 L 465.98154,551.32565 L 464.00667,551.32565 C 462.56377,551.32565 461.21562,551.16873 459.9622,550.8549 C 458.70876,550.54106 457.45485,549.89856 456.20047,548.92739 C 454.94607,547.95622 454.02083,546.70231 453.42474,545.16566 C 452.82864,543.62902 452.53059,541.98234 452.5306,540.22561 L 452.5306,488.58903 L 461.56104,488.58903 z M 471.45262,551.32565 L 471.45262,506.55233 L 480.48307,506.55233 L 480.48307,551.32565 L 471.45262,551.32565 z M 471.45262,497.43003 L 471.45262,488.58903 L 480.48307,488.58903 L 480.48307,497.43003 L 471.45262,497.43003 z M 514.50368,538.44019 C 514.50365,542.13925 513.15549,545.30584 510.45921,547.93995 C 507.76287,550.57407 504.56424,551.89113 500.86329,551.89113 C 498.85778,551.89113 496.86712,551.37349 494.89131,550.33822 C 492.91547,549.30294 491.42619,548.06434 490.42345,546.62241 C 489.4207,545.1805 488.71553,543.707 488.30793,542.20192 C 487.90032,540.69685 487.69652,539.16068 487.69652,537.5934 L 487.69652,520.09799 C 487.69652,516.39897 488.96621,513.12283 491.50561,510.26956 C 494.04499,507.41638 497.19579,505.98976 500.95801,505.98972 C 504.8465,505.98976 508.07623,507.36902 510.64722,510.12748 C 513.21816,512.88602 514.50365,516.20952 514.50368,520.09799 L 505.56796,520.09799 C 505.56794,518.7183 505.17612,517.49548 504.39251,516.42956 C 503.60885,515.3637 502.52717,514.83075 501.14746,514.83071 C 500.33224,514.83075 499.62658,515.00298 499.0305,515.3474 C 498.43439,515.69189 497.90144,516.22483 497.43166,516.94624 C 496.96185,517.66771 496.72695,518.7183 496.72696,520.09799 L 496.72696,537.5934 C 496.72695,539.22383 497.07188,540.50932 497.76176,541.44986 C 498.45161,542.39042 499.6108,542.86069 501.23932,542.86069 C 502.55779,542.86069 503.60885,542.37463 504.39251,541.4025 C 505.17612,540.43038 505.56794,539.25445 505.56796,537.87471 L 514.50368,537.87471 L 514.50368,538.44019 z M 538.46335,505.98972 C 540.09374,505.98976 541.63039,506.42846 543.07329,507.30582 C 544.51615,508.18327 545.55094,509.20228 546.17769,510.36285 C 546.80437,511.52351 547.19619,512.51143 547.35314,513.3266 C 547.51003,514.14184 547.58848,515.20774 547.58852,516.52428 L 547.58852,551.32565 L 538.55807,551.32565 L 538.55807,519.90854 C 538.55805,518.40446 538.21312,517.18213 537.52327,516.24154 C 536.83339,515.30103 535.7364,514.83075 534.2323,514.83071 C 532.9157,514.83075 531.83402,515.34791 530.98725,516.38219 C 530.14045,517.41655 529.71706,518.592 529.71708,519.90854 L 529.71708,551.32565 L 520.68663,551.32565 L 520.68663,488.58903 L 529.71708,488.58903 L 529.71708,510.88097 C 531.7857,507.62018 534.70112,505.98976 538.46335,505.98972 L 538.46335,505.98972 z M 568.10077,542.76596 C 569.41925,542.76597 570.48562,542.35837 571.29989,541.54315 C 572.11412,540.72795 572.61598,539.66206 572.80545,538.34546 L 581.74117,538.34546 L 581.74117,539.37883 C 581.74114,540.75857 581.44309,542.1383 580.84702,543.51802 C 580.25089,544.89776 579.01229,546.63821 577.13122,548.73937 C 575.25009,550.84054 572.3031,551.89113 568.29022,551.89113 C 565.71828,551.89113 563.35064,551.20126 561.18729,549.82153 C 559.02392,548.44181 557.53463,546.92095 556.71943,545.25895 C 555.90422,543.59696 555.38706,542.09189 555.16795,540.74373 C 554.94883,539.39558 554.83928,538.06322 554.83928,536.74662 L 554.83928,519.72197 C 554.83928,516.02294 556.17165,512.80948 558.83639,510.08155 C 561.50111,507.35371 564.68397,505.98976 568.38495,505.98972 C 572.21028,505.98976 575.39266,507.32213 577.93207,509.98682 C 580.47144,512.6516 581.74114,515.89664 581.74117,519.72197 L 581.74117,532.13667 L 563.86973,532.13667 L 563.86973,538.81622 C 563.86971,539.75582 564.3242,540.64901 565.23319,541.49579 C 566.14215,542.34258 567.09801,542.76597 568.10077,542.76596 L 568.10077,542.76596 z M 568.29022,514.83071 C 567.09801,514.83075 566.06322,515.23835 565.18583,516.05353 C 564.30841,516.86877 563.86971,518.31069 563.86973,520.3793 L 563.86973,524.7998 L 572.71072,524.7998 L 572.71072,520.3793 C 572.7107,518.74891 572.36577,517.41655 571.67592,516.38219 C 570.98604,515.34791 569.85747,514.83075 568.29022,514.83071 L 568.29022,514.83071 z M 609.53575,505.98972 L 609.53575,515.20674 C 609.0975,515.08239 608.6588,514.98862 608.21964,514.92544 C 607.78044,514.86233 607.37236,514.83075 606.9954,514.83071 C 604.04838,514.83075 601.79125,515.83397 600.224,517.84038 C 598.65672,519.84686 597.87308,522.26139 597.8731,525.08397 L 597.8731,551.32565 L 588.84265,551.32565 L 588.84265,506.55233 L 597.8731,506.55233 L 597.8731,511.35172 C 599.44035,509.40751 601.36834,508.02778 603.65706,507.21253 C 605.94575,506.39737 607.90531,505.98976 609.53575,505.98972 L 609.53575,505.98972 z " />
    <path
       id="text2009"
       style="font-size:94.05899811px;font-style:normal;font-variant:normal;font-weight:normal;font-stretch:normal;text-align:center;line-height:100%;writing-mode:lr-tb;text-anchor:middle;fill:black;fill-opacity:1;stroke:none;stroke-width:1px;stroke-linecap:butt;stroke-linejoin:miter;stroke-opacity:1;font-family:DIN 1451 Engschrift"
       d="M 278.43166,642.87356 L 265.64092,580.13695 L 275.04453,580.13695 L 282.28955,623.68459 L 289.71828,580.13695 L 299.21948,580.13695 L 286.14457,642.87356 L 278.43166,642.87356 z M 316.25562,634.31387 C 317.57409,634.31388 318.64047,633.90628 319.45474,633.09106 C 320.26897,632.27586 320.77082,631.20997 320.96029,629.89338 L 329.89601,629.89338 L 329.89601,630.92674 C 329.89598,632.30648 329.59793,633.68621 329.00186,635.06593 C 328.40574,636.44567 327.16714,638.18612 325.28606,640.28729 C 323.40494,642.38846 320.45794,643.43904 316.44507,643.43904 C 313.87313,643.43904 311.50549,642.74918 309.34213,641.36945 C 307.17876,639.98972 305.68948,638.46886 304.87427,636.80686 C 304.05906,635.14488 303.5419,633.6398 303.32279,632.29164 C 303.10368,630.9435 302.99412,629.61113 302.99413,628.29453 L 302.99413,611.26988 C 302.99412,607.57086 304.32649,604.35739 306.99123,601.62946 C 309.65596,598.90162 312.83881,597.53768 316.53979,597.53763 C 320.36513,597.53768 323.5475,598.87004 326.08692,601.53474 C 328.62628,604.19951 329.89598,607.44456 329.89601,611.26988 L 329.89601,623.68459 L 312.02457,623.68459 L 312.02457,630.36413 C 312.02456,631.30374 312.47905,632.19692 313.38804,633.0437 C 314.297,633.89049 315.25286,634.31388 316.25562,634.31387 L 316.25562,634.31387 z M 316.44507,606.37863 C 315.25286,606.37866 314.21806,606.78627 313.34067,607.60144 C 312.46326,608.41668 312.02456,609.8586 312.02457,611.92721 L 312.02457,616.34771 L 320.86557,616.34771 L 320.86557,611.92721 C 320.86554,610.29683 320.52061,608.96446 319.83077,607.93011 C 319.14088,606.89582 318.01232,606.37866 316.44507,606.37863 L 316.44507,606.37863 z M 357.6906,597.53763 L 357.6906,606.75466 C 357.25236,606.63031 356.81366,606.53654 356.3745,606.47335 C 355.9353,606.41024 355.52722,606.37866 355.15025,606.37863 C 352.20323,606.37866 349.9461,607.38189 348.37885,609.3883 C 346.81157,611.39477 346.02794,613.8093 346.02795,616.63188 L 346.02795,642.87356 L 336.99751,642.87356 L 336.99751,598.10024 L 346.02795,598.10024 L 346.02795,602.89964 C 347.59521,600.95543 349.52319,599.5757 351.81192,598.76044 C 354.1006,597.94528 356.06016,597.53768 357.6906,597.53763 L 357.6906,597.53763 z M 363.26789,642.87356 L 363.26789,580.13695 L 372.29834,580.13695 L 372.29834,617.47867 L 383.58496,598.10024 L 392.52068,598.10024 L 381.89139,615.87983 L 394.685,642.87356 L 384.62119,642.87356 L 376.81356,623.77931 L 372.29834,630.45886 L 372.29834,642.87356 L 363.26789,642.87356 z M 411.60057,634.31387 C 412.91905,634.31388 413.98542,633.90628 414.79969,633.09106 C 415.61392,632.27586 416.11577,631.20997 416.30524,629.89338 L 425.24096,629.89338 L 425.24096,630.92674 C 425.24093,632.30648 424.94288,633.68621 424.34682,635.06593 C 423.75069,636.44567 422.51209,638.18612 420.63101,640.28729 C 418.74989,642.38846 415.80289,643.43904 411.79002,643.43904 C 409.21808,643.43904 406.85044,642.74918 404.68708,641.36945 C 402.52371,639.98972 401.03443,638.46886 400.21922,636.80686 C 399.40401,635.14488 398.88685,633.6398 398.66774,632.29164 C 398.44863,630.9435 398.33907,629.61113 398.33908,628.29453 L 398.33908,611.26988 C 398.33907,607.57086 399.67144,604.35739 402.33618,601.62946 C 405.00091,598.90162 408.18376,597.53768 411.88474,597.53763 C 415.71008,597.53768 418.89245,598.87004 421.43187,601.53474 C 423.97124,604.19951 425.24093,607.44456 425.24096,611.26988 L 425.24096,623.68459 L 407.36952,623.68459 L 407.36952,630.36413 C 407.36951,631.30374 407.824,632.19692 408.73299,633.0437 C 409.64195,633.89049 410.59781,634.31388 411.60057,634.31387 L 411.60057,634.31387 z M 411.79002,606.37863 C 410.59781,606.37866 409.56301,606.78627 408.68562,607.60144 C 407.80821,608.41668 407.36951,609.8586 407.36952,611.92721 L 407.36952,616.34771 L 416.21052,616.34771 L 416.21052,611.92721 C 416.2105,610.29683 415.86556,608.96446 415.17572,607.93011 C 414.48583,606.89582 413.35727,606.37866 411.79002,606.37863 L 411.79002,606.37863 z M 450.11918,597.53763 C 451.74957,597.53768 453.28622,597.97638 454.72913,598.85373 C 456.17198,599.73118 457.20678,600.75019 457.83352,601.91077 C 458.46021,603.07143 458.85202,604.05934 459.00897,604.87451 C 459.16586,605.68975 459.24432,606.75565 459.24435,608.07219 L 459.24435,642.87356 L 450.2139,642.87356 L 450.2139,611.45646 C 450.21388,609.95237 449.86895,608.73004 449.1791,607.78945 C 448.48922,606.84894 447.39223,606.37866 445.88813,606.37863 C 444.57153,606.37866 443.48985,606.89582 442.64308,607.93011 C 441.79629,608.96446 441.3729,610.13991 441.37291,611.45646 L 441.37291,642.87356 L 432.34246,642.87356 L 432.34246,580.13695 L 441.37291,580.13695 L 441.37291,602.42888 C 443.44153,599.16809 446.35695,597.53768 450.11918,597.53763 L 450.11918,597.53763 z M 487.94027,597.53763 L 487.94027,606.75466 C 487.50202,606.63031 487.06332,606.53654 486.62416,606.47335 C 486.18496,606.41024 485.77688,606.37866 485.39992,606.37863 C 482.4529,606.37866 480.19577,607.38189 478.62852,609.3883 C 477.06124,611.39477 476.2776,613.8093 476.27762,616.63188 L 476.27762,642.87356 L 467.24717,642.87356 L 467.24717,598.10024 L 476.27762,598.10024 L 476.27762,602.89964 C 477.84487,600.95543 479.77286,599.5757 482.06158,598.76044 C 484.35027,597.94528 486.30983,597.53768 487.94027,597.53763 L 487.94027,597.53763 z M 528.56006,642.87356 L 528.56006,605.25054 L 524.13956,605.25054 L 524.13956,598.10024 L 528.56006,598.10024 L 528.56006,591.89432 C 528.56005,588.38286 529.43793,585.78031 531.1937,584.08669 C 532.94945,582.39318 534.57986,581.3115 536.08495,580.84164 C 537.59001,580.37191 539.25248,580.13701 541.07236,580.13695 L 544.17532,580.13695 L 544.17532,588.41246 L 540.88291,588.41246 C 538.68796,588.41252 537.59049,589.57314 537.5905,591.89432 L 537.5905,598.10024 L 544.17532,598.10024 L 544.17532,605.25054 L 537.5905,605.25054 L 537.5905,642.87356 L 528.56006,642.87356 z M 569.32335,597.53763 L 569.32335,606.75466 C 568.88511,606.63031 568.44641,606.53654 568.00725,606.47335 C 567.56805,606.41024 567.15997,606.37866 566.783,606.37863 C 563.83599,606.37866 561.57886,607.38189 560.01161,609.3883 C 558.44432,611.39477 557.66069,613.8093 557.6607,616.63188 L 557.6607,642.87356 L 548.63026,642.87356 L 548.63026,598.10024 L 557.6607,598.10024 L 557.6607,602.89964 C 559.22796,600.95543 561.15594,599.5757 563.44467,598.76044 C 565.73335,597.94528 567.69291,597.53768 569.32335,597.53763 L 569.32335,597.53763 z M 587.41008,634.31387 C 588.72856,634.31388 589.79493,633.90628 590.6092,633.09106 C 591.42343,632.27586 591.92528,631.20997 592.11475,629.89338 L 601.05047,629.89338 L 601.05047,630.92674 C 601.05044,632.30648 600.75239,633.68621 600.15632,635.06593 C 599.5602,636.44567 598.3216,638.18612 596.44052,640.28729 C 594.5594,642.38846 591.6124,643.43904 587.59953,643.43904 C 585.02759,643.43904 582.65995,642.74918 580.49659,641.36945 C 578.33322,639.98972 576.84394,638.46886 576.02873,636.80686 C 575.21352,635.14488 574.69636,633.6398 574.47725,632.29164 C 574.25814,630.9435 574.14858,629.61113 574.14859,628.29453 L 574.14859,611.26988 C 574.14858,607.57086 575.48095,604.35739 578.14569,601.62946 C 580.81042,598.90162 583.99327,597.53768 587.69425,597.53763 C 591.51959,597.53768 594.70196,598.87004 597.24138,601.53474 C 599.78074,604.19951 601.05044,607.44456 601.05047,611.26988 L 601.05047,623.68459 L 583.17903,623.68459 L 583.17903,630.36413 C 583.17902,631.30374 583.63351,632.19692 584.5425,633.0437 C 585.45146,633.89049 586.40732,634.31388 587.41008,634.31387 L 587.41008,634.31387 z M 587.59953,606.37863 C 586.40732,606.37866 585.37252,606.78627 584.49513,607.60144 C 583.61772,608.41668 583.17902,609.8586 583.17903,611.92721 L 583.17903,616.34771 L 592.02003,616.34771 L 592.02003,611.92721 C 592.02,610.29683 591.67507,608.96446 590.98523,607.93011 C 590.29534,606.89582 589.16678,606.37866 587.59953,606.37863 L 587.59953,606.37863 z M 608.15196,642.87356 L 608.15196,598.10024 L 617.1824,598.10024 L 617.1824,642.87356 L 608.15196,642.87356 z M 608.15196,588.97794 L 608.15196,580.13695 L 617.1824,580.13695 L 617.1824,588.97794 L 608.15196,588.97794 z " />
  </g>
</svg>
