<?xml version="1.0" encoding="UTF-8" standalone="no"?>
<!-- Created with Inkscape (http://www.inkscape.org/) -->
<svg
   xmlns:dc="http://purl.org/dc/elements/1.1/"
   xmlns:cc="http://creativecommons.org/ns#"
   xmlns:rdf="http://www.w3.org/1999/02/22-rdf-syntax-ns#"
   xmlns:svg="http://www.w3.org/2000/svg"
   xmlns="http://www.w3.org/2000/svg"
   xmlns:sodipodi="http://sodipodi.sourceforge.net/DTD/sodipodi-0.dtd"
   xmlns:inkscape="http://www.inkscape.org/namespaces/inkscape"
   version="1.0"
   width="523"
   height="355"
   id="svg2"
   sodipodi:version="0.32"
   inkscape:version="0.46"
   sodipodi:docname="Zusatzzeichen_Inlineskater_frei.svg"
   sodipodi:docbase="C:\Dokumente und Einstellungen\Internet\Desktop\Wiki\SVG sonstiges (fertig)"
   inkscape:output_extension="org.inkscape.output.svg.inkscape">
  <metadata
     id="metadata10">
    <rdf:RDF>
      <cc:Work
         rdf:about="">
        <dc:format>image/svg+xml</dc:format>
        <dc:type
           rdf:resource="http://purl.org/dc/dcmitype/StillImage" />
      </cc:Work>
    </rdf:RDF>
  </metadata>
  <sodipodi:namedview
     inkscape:window-height="749"
     inkscape:window-width="1024"
     inkscape:pageshadow="2"
     inkscape:pageopacity="0.0"
     guidetolerance="10.0"
     gridtolerance="1"
     objecttolerance="10.0"
     borderopacity="1.0"
     bordercolor="#666666"
     pagecolor="#ffffff"
     id="base"
     inkscape:zoom="1.222449"
     inkscape:cx="243.66122"
     inkscape:cy="175.5485"
     inkscape:window-x="0"
     inkscape:window-y="0"
     inkscape:current-layer="svg2"
     showguides="true"
     inkscape:guide-bbox="true"
     showgrid="true"
     inkscape:snap-global="false">
    <inkscape:grid
       type="xygrid"
       id="grid2473"
       visible="true"
       enabled="true" />
  </sodipodi:namedview>
  <defs
     id="defs4" />
  <path
     d="M 40.589996,13.483754 C 20.793639,13.554399 9.6319306,22.774365 9.6319306,49.897406 L 9.2961598,311.82004 C 9.2961598,338.94308 20.457868,348.08337 40.254225,348.0127 L 483.74026,346.3896 C 503.53662,346.31893 514.69832,337.09897 514.69833,309.97595 L 515.03409,48.133708 C 515.03409,21.010665 503.87238,11.870377 484.07602,11.94105 L 40.589996,13.483754 z"
     style="fill:#ffffff;fill-opacity:1;fill-rule:evenodd;stroke:#000000;stroke-width:3.03687978;stroke-linecap:butt;stroke-linejoin:miter;stroke-miterlimit:4;stroke-dasharray:none;stroke-opacity:1"
     id="path1881" />
  <path
     d="M 484.68714,29.777412 L 37.441138,29.817799 C 28.39569,29.817799 23.079874,37.572154 23.079874,49.038941 L 23.079874,313.49124 C 23.079874,324.95799 28.3957,332.71239 37.441138,332.71239 L 484.65358,332.672 C 493.69903,332.67199 499.01485,324.91762 499.01485,313.45085 L 499.01485,48.998562 C 499.01485,37.531775 493.73257,29.777412 484.68714,29.777412 z"
     style="fill:none;fill-opacity:1;fill-rule:evenodd;stroke:#000000;stroke-width:12.06502438;stroke-linecap:butt;stroke-linejoin:miter;stroke-miterlimit:4;stroke-dasharray:none;stroke-opacity:1"
     id="path3976" />
  <path
     style="font-size:100.30999756px;font-style:normal;font-variant:normal;font-weight:normal;font-stretch:normal;text-align:center;line-height:100%;writing-mode:lr-tb;text-anchor:middle;fill:#000000;fill-opacity:1;stroke:none;stroke-width:1px;stroke-linecap:butt;stroke-linejoin:miter;stroke-opacity:1;font-family:DIN 1451 Mittelschrift"
     d="M 319.97421,212.94611 L 319.97421,169.94211 L 314.83136,169.94211 L 314.83136,162.1054 L 319.97421,162.1054 L 319.97421,155.39521 C 319.9742,150.66058 321.28032,147.17488 323.89257,144.93808 C 326.50479,142.70142 329.80274,141.58306 333.78642,141.58299 L 340.39866,141.58299 L 340.39866,151.18297 L 334.61908,151.18297 C 331.64763,151.18303 330.16192,152.58711 330.16194,155.39521 L 330.16194,162.1054 L 340.39866,162.1054 L 340.39866,169.94211 L 330.16194,169.94211 L 330.16194,212.94611 L 319.97421,212.94611 z M 346.17824,212.94611 L 346.17824,162.1054 L 356.41495,162.1054 L 356.41495,167.54212 L 356.61087,167.54212 C 359.77819,163.52585 364.18634,161.51769 369.83533,161.51764 C 373.55774,161.51769 377.10058,162.82381 380.46388,165.436 L 373.06798,174.25231 C 370.84754,172.58705 368.59449,171.7544 366.30881,171.75436 C 363.7945,171.7544 361.51696,172.59521 359.47617,174.2768 C 357.43534,175.95847 356.41493,178.6605 356.41495,182.38291 L 356.41495,212.94611 L 346.17824,212.94611 z M 424.54542,191.39513 L 392.90467,191.39513 C 392.90466,195.57473 394.03935,198.70942 396.30875,200.79919 C 398.57811,202.889 401.47606,203.93389 405.00261,203.93388 C 409.21481,203.93389 412.93725,202.30124 416.16993,199.03593 L 423.56583,205.35429 C 421.05151,208.29306 418.21887,210.39101 415.06789,211.64815 C 411.91684,212.90529 408.62706,213.53386 405.19852,213.53386 C 399.97402,213.53386 394.91282,211.84407 390.01488,208.46448 C 385.11693,205.08491 382.66796,198.17064 382.66796,187.72167 C 382.66796,177.82785 384.92917,170.98705 389.45162,167.19926 C 393.97404,163.41157 398.70056,161.51769 403.63118,161.51764 C 409.21481,161.51769 414.09643,163.45238 418.27605,167.32171 C 422.45559,171.19113 424.54538,176.40744 424.54542,182.97066 L 424.54542,191.39513 z M 392.90467,182.97066 L 414.35769,182.97066 C 414.19439,179.15029 413.11684,176.22785 411.12504,174.20333 C 409.13318,172.17889 406.63523,171.16664 403.63118,171.1666 C 400.59443,171.16664 398.07199,172.17889 396.06385,174.20333 C 394.05568,176.22785 393.00262,179.15029 392.90467,182.97066 L 392.90467,182.97066 z M 435.61479,212.94611 L 435.61479,162.1054 L 445.8515,162.1054 L 445.8515,212.94611 L 435.61479,212.94611 z M 435.61479,151.8197 L 435.61479,141.58299 L 445.8515,141.58299 L 445.8515,151.8197 L 435.61479,151.8197 z"
     id="text5654" />
  <g
     id="g3239"
     transform="matrix(1.1523906,0,0,1.1523906,16.880407,-18.001883)">
    <rect
       ry="2"
       rx="1.86"
       y="248.24542"
       x="113.91585"
       height="10"
       width="46.5"
       id="rect2411"
       style="fill:#000000;fill-opacity:1" />
    <g
       id="g3224">
      <path
         sodipodi:type="arc"
         style="fill:#000000;fill-opacity:1;fill-rule:evenodd;stroke:#000000;stroke-width:1px;stroke-linecap:butt;stroke-linejoin:miter;stroke-opacity:1"
         id="Rolle1"
         sodipodi:cx="175"
         sodipodi:cy="205"
         sodipodi:rx="5"
         sodipodi:ry="5"
         d="M 180,205 A 5,5 0 1 1 170,205 A 5,5 0 1 1 180,205 z"
         inkscape:label="#path2477"
         transform="matrix(1.2712937,0,0,1.2727956,-102.8176,5.8907718)" />
      <path
         sodipodi:type="arc"
         style="fill:#000000;fill-opacity:1;fill-rule:evenodd;stroke:#000000;stroke-width:1px;stroke-linecap:butt;stroke-linejoin:miter;stroke-opacity:1"
         id="path2397"
         sodipodi:cx="175"
         sodipodi:cy="205"
         sodipodi:rx="5"
         sodipodi:ry="5"
         d="M 180,205 A 5,5 0 1 1 170,205 A 5,5 0 1 1 180,205 z"
         inkscape:label="#path2477"
         transform="matrix(1.2727273,0,0,1.2727273,-87.386179,6.1092813)" />
      <path
         sodipodi:type="arc"
         style="fill:#000000;fill-opacity:1;fill-rule:evenodd;stroke:#000000;stroke-width:1px;stroke-linecap:butt;stroke-linejoin:miter;stroke-opacity:1"
         id="path2399"
         sodipodi:cx="175"
         sodipodi:cy="205"
         sodipodi:rx="5"
         sodipodi:ry="5"
         d="M 180,205 A 5,5 0 1 1 170,205 A 5,5 0 1 1 180,205 z"
         inkscape:label="#path2477"
         transform="matrix(1.2727273,0,0,1.2727273,-71.363641,6.0680625)"
         inkscape:transform-center-x="25.454533"
         inkscape:transform-center-y="7.0000045" />
      <path
         inkscape:transform-center-y="7.0000045"
         inkscape:transform-center-x="25.454533"
         transform="matrix(1.2727273,0,0,1.2727273,-46.879043,0.1546593)"
         inkscape:label="#path2477"
         d="M 180,205 A 5,5 0 1 1 170,205 A 5,5 0 1 1 180,205 z"
         sodipodi:ry="5"
         sodipodi:rx="5"
         sodipodi:cy="205"
         sodipodi:cx="175"
         id="path2401"
         style="fill:#000000;fill-opacity:1;fill-rule:evenodd;stroke:#000000;stroke-width:1px;stroke-linecap:butt;stroke-linejoin:miter;stroke-opacity:1"
         sodipodi:type="arc" />
      <path
         sodipodi:type="arc"
         style="fill:#000000;fill-opacity:1;fill-rule:evenodd;stroke:#000000;stroke-width:1px;stroke-linecap:butt;stroke-linejoin:miter;stroke-opacity:1"
         id="path2403"
         sodipodi:cx="175"
         sodipodi:cy="205"
         sodipodi:rx="5"
         sodipodi:ry="5"
         d="M 180,205 A 5,5 0 1 1 170,205 A 5,5 0 1 1 180,205 z"
         inkscape:label="#path2477"
         transform="matrix(1.2727273,0,0,1.2727273,-32.355973,-5.9090965)"
         inkscape:transform-center-x="25.454533"
         inkscape:transform-center-y="7.0000045" />
      <path
         inkscape:transform-center-y="7.0000045"
         inkscape:transform-center-x="25.454533"
         transform="matrix(1.2727273,0,0,1.2727273,-17.727277,-11.753824)"
         inkscape:label="#path2477"
         d="M 180,205 A 5,5 0 1 1 170,205 A 5,5 0 1 1 180,205 z"
         sodipodi:ry="5"
         sodipodi:rx="5"
         sodipodi:cy="205"
         sodipodi:cx="175"
         id="path2405"
         style="fill:#000000;fill-opacity:1;fill-rule:evenodd;stroke:#000000;stroke-width:1px;stroke-linecap:butt;stroke-linejoin:miter;stroke-opacity:1"
         sodipodi:type="arc" />
      <path
         sodipodi:type="arc"
         style="fill:#000000;fill-opacity:1;fill-rule:evenodd;stroke:#000000;stroke-width:1px;stroke-linecap:butt;stroke-linejoin:miter;stroke-opacity:1"
         id="path2407"
         sodipodi:cx="175"
         sodipodi:cy="205"
         sodipodi:rx="5"
         sodipodi:ry="5"
         d="M 180,205 A 5,5 0 1 1 170,205 A 5,5 0 1 1 180,205 z"
         inkscape:label="#path2477"
         transform="matrix(2.7272727,0,0,2.7272727,-364.72697,-474.27287)"
         inkscape:transform-center-x="54.545448"
         inkscape:transform-center-y="15.000019" />
      <rect
         ry="2"
         rx="1.86"
         y="290.50479"
         x="52.570236"
         height="10.000001"
         width="46.500004"
         id="rect2413"
         style="fill:#000000;fill-opacity:1"
         transform="matrix(0.9205048,-0.3907312,0.3907312,0.9205048,0,0)" />
      <path
         sodipodi:type="arc"
         style="fill:#000000;fill-opacity:1"
         id="path2441"
         sodipodi:cx="134.46368"
         sodipodi:cy="265.00626"
         sodipodi:rx="1.1247913"
         sodipodi:ry="0.51126879"
         d="M 135.58848,265.00626 A 1.1247913,0.51126879 0 1 1 133.33889,265.00626 A 1.1247913,0.51126879 0 1 1 135.58848,265.00626 z" />
      <path
         style="fill:#000000;fill-opacity:1;fill-rule:evenodd;stroke:#000000;stroke-width:1px;stroke-linecap:butt;stroke-linejoin:miter;stroke-opacity:1"
         d="M 125,199.25709 C 129.63816,215.71041 133.72209,230.58076 136.81553,241.79466 C 137.69185,244.97137 143.16718,247.59201 146.42738,247.11185 C 149.90413,246.59981 155.63046,242.18194 154.60768,238.72705 C 151.17248,227.12316 144.3823,203.96077 144.3823,203.96077 L 154.60768,193.53088 L 159.72037,210.50501 C 159.72037,210.50501 171.32652,225.58879 176.28548,231.9783 C 178.49333,234.82307 184.82413,235.20684 188.14691,233.81887 C 190.66088,232.76875 192.46702,229.17518 192.64608,226.45659 C 192.70562,225.55269 192.03255,223.798 192.03255,223.798 L 177.30801,203.55175 L 170.35476,182.28297 C 170.35476,182.28297 174.21949,176.2238 175.67195,174.10267 C 177.49566,171.43938 179.0248,166.45425 177.30801,163.46828 C 175.16084,159.73376 170.96828,150.58431 170.96828,150.58431 C 170.96828,150.58431 145,173.15184 133.13439,183.101 C 128.9762,186.58759 123.52766,194.03415 125,199.25709 z"
         id="path2445"
         sodipodi:nodetypes="cssscccssscccsscss" />
      <path
         style="fill:#000000;fill-opacity:1;fill-rule:evenodd;stroke:#000000;stroke-width:1px;stroke-linecap:butt;stroke-linejoin:miter;stroke-opacity:1"
         d="M 144.3823,167.14942 L 170,145 L 170,145 L 176.48998,117.8631 C 176.48998,117.8631 150.32208,105.46211 138.8606,100.27546 C 133.5824,97.886922 124.43386,98.867398 119.63689,102.11603 C 117.75115,103.3931 116.75065,106.66514 116.16027,108.86477 C 114.85459,113.72946 115.34224,125.63439 115.34224,125.63439 L 120.45493,147.7212 C 120.45493,147.7212 106.15754,160.79718 99.390651,167.14941 C 97.276706,169.13382 95.490881,175.43149 97.423902,177.94599 C 99.584079,180.75597 106.63936,181.24961 109.20701,178.80634 C 116.90801,171.47838 135.9975,153.85643 135.9975,153.85643 L 144.3823,167.14942 z"
         id="path3217"
         sodipodi:nodetypes="ccccsssccssscc" />
      <a
         id="a3221"
         style="fill:#ffffff;fill-opacity:1">
        <path
           id="path3219"
           d="M 152.76711,122.97579 L 160.74291,125 L 159.10684,133.20117 L 152.76711,122.97579 z"
           style="fill:#ffffff;fill-opacity:1;fill-rule:evenodd;stroke:#000000;stroke-width:1px;stroke-linecap:butt;stroke-linejoin:miter;stroke-opacity:1" />
      </a>
    </g>
  </g>
</svg>
