<?xml version="1.0" encoding="UTF-8" standalone="no"?>
<!-- Created with Inkscape (http://www.inkscape.org/) -->
<svg
   xmlns:dc="http://purl.org/dc/elements/1.1/"
   xmlns:cc="http://web.resource.org/cc/"
   xmlns:rdf="http://www.w3.org/1999/02/22-rdf-syntax-ns#"
   xmlns:svg="http://www.w3.org/2000/svg"
   xmlns="http://www.w3.org/2000/svg"
   xmlns:sodipodi="http://sodipodi.sourceforge.net/DTD/sodipodi-0.dtd"
   xmlns:inkscape="http://www.inkscape.org/namespaces/inkscape"
   version="1.0"
   width="490"
   height="360"
   id="svg2"
   sodipodi:version="0.32"
   inkscape:version="0.44"
   sodipodi:docname="Zusatzzeichen 1026-32.svg"
   sodipodi:docbase="C:\Dokumente und Einstellungen\Internet\Desktop\Wiki\SVG sonstiges (fertig)">
  <metadata
     id="metadata10">
    <rdf:RDF>
      <cc:Work
         rdf:about="">
        <dc:format>image/svg+xml</dc:format>
        <dc:type
           rdf:resource="http://purl.org/dc/dcmitype/StillImage" />
      </cc:Work>
    </rdf:RDF>
  </metadata>
  <sodipodi:namedview
     inkscape:window-height="749"
     inkscape:window-width="1024"
     inkscape:pageshadow="2"
     inkscape:pageopacity="0.0"
     guidetolerance="10.0"
     gridtolerance="10.0"
     objecttolerance="10.0"
     borderopacity="1.0"
     bordercolor="#666666"
     pagecolor="#ffffff"
     id="base"
     inkscape:zoom="0.74246212"
     inkscape:cx="245"
     inkscape:cy="170.28486"
     inkscape:window-x="-4"
     inkscape:window-y="-4"
     inkscape:current-layer="svg2"
     showguides="true"
     inkscape:guide-bbox="true" />
  <defs
     id="defs4" />
  <path
     d="M 38.78125,4.6190618 C 20.35689,4.6190483 9.96875,14.244672 9.96875,42.683954 L 9.65625,317.31604 C 9.65625,345.75531 20.04439,355.38094 38.46875,355.38094 L 451.21875,355.33878 C 469.64311,355.33878 480.03124,345.71316 480.03125,317.27389 L 480.34375,42.726108 C 480.34375,14.286826 469.95561,4.6612021 451.53125,4.6612156 L 38.78125,4.6190618 z "
     style="fill:white;fill-opacity:1;fill-rule:evenodd;stroke:black;stroke-width:3;stroke-linecap:butt;stroke-linejoin:miter;stroke-miterlimit:4;stroke-dasharray:none;stroke-opacity:1"
     id="path1881" />
  <path
     d="M 453.23342,19.074797 L 36.79782,19.117707 C 28.375505,19.117707 23.425891,27.356247 23.425891,39.539027 L 23.425891,320.50387 C 23.425891,332.68661 28.375515,340.9252 36.79782,340.9252 L 453.20218,340.88229 C 461.62449,340.88228 466.57411,332.64373 466.57411,320.46097 L 466.57411,39.496127 C 466.57411,27.313347 461.65573,19.074797 453.23342,19.074797 z "
     style="fill:none;fill-opacity:1;fill-rule:evenodd;stroke:black;stroke-width:12;stroke-linecap:butt;stroke-linejoin:miter;stroke-miterlimit:4;stroke-dasharray:none;stroke-opacity:1"
     id="path3976" />
  <g
     id="g5038"
     transform="translate(352.7496,-197.3609)">
    <path
       id="text5021"
       d="M -168.11683,508.94211 L -168.11683,465.93811 L -173.25967,465.93811 L -173.25967,458.1014 L -168.11683,458.1014 L -168.11683,451.39121 C -168.11683,446.65658 -166.81072,443.17088 -164.19847,440.93408 C -161.58624,438.69742 -158.28829,437.57906 -154.30461,437.57899 L -147.69238,437.57899 L -147.69238,447.17897 L -153.47196,447.17897 C -156.4434,447.17903 -157.92911,448.58311 -157.92909,451.39121 L -157.92909,458.1014 L -147.69238,458.1014 L -147.69238,465.93811 L -157.92909,465.93811 L -157.92909,508.94211 L -168.11683,508.94211 z M -141.9128,508.94211 L -141.9128,458.1014 L -131.67608,458.1014 L -131.67608,463.53812 L -131.48017,463.53812 C -128.31285,459.52185 -123.9047,457.51369 -118.2557,457.51364 C -114.5333,457.51369 -110.99045,458.81981 -107.62715,461.432 L -115.02306,470.24831 C -117.24349,468.58305 -119.49655,467.7504 -121.78223,467.75036 C -124.29653,467.7504 -126.57408,468.59121 -128.61487,470.2728 C -130.6557,471.95446 -131.6761,474.6565 -131.67608,478.3789 L -131.67608,508.94211 L -141.9128,508.94211 z M -63.545609,487.39113 L -95.18636,487.39113 C -95.186375,491.57073 -94.051684,494.70542 -91.782286,496.79519 C -89.512923,498.88499 -86.614972,499.92989 -83.088426,499.92988 C -78.876221,499.92989 -75.153783,498.29724 -71.921102,495.03193 L -64.525199,501.35029 C -67.039522,504.28906 -69.872166,506.38701 -73.023141,507.64415 C -76.174188,508.90129 -79.463974,509.52986 -82.892508,509.52986 C -88.117009,509.52986 -93.178218,507.84007 -98.07615,504.46048 C -102.97411,501.08091 -105.42308,494.16664 -105.42307,483.71767 C -105.42308,473.82385 -103.16186,466.98305 -98.639414,463.19526 C -94.11699,459.40756 -89.390474,457.51369 -84.459852,457.51364 C -78.876221,457.51369 -73.994603,459.44838 -69.814984,463.31771 C -65.635445,467.18713 -63.545655,472.40344 -63.545609,478.96666 L -63.545609,487.39113 z M -95.18636,478.96666 L -73.733343,478.96666 C -73.896644,475.14629 -74.974192,472.22385 -76.96599,470.19933 C -78.957853,468.17488 -81.455805,467.16264 -84.459852,467.1626 C -87.496602,467.16264 -90.019044,468.17488 -92.027183,470.19933 C -94.035358,472.22385 -95.088416,475.14629 -95.18636,478.96666 L -95.18636,478.96666 z M -52.476244,508.94211 L -52.476244,458.1014 L -42.239531,458.1014 L -42.239531,508.94211 L -52.476244,508.94211 z M -52.476244,447.8157 L -52.476244,437.57899 L -42.239531,437.57899 L -42.239531,447.8157 L -52.476244,447.8157 z "
       style="font-size:100.30999756px;font-style:normal;font-variant:normal;font-weight:normal;font-stretch:normal;text-align:center;line-height:100%;writing-mode:lr-tb;text-anchor:middle;fill:black;fill-opacity:1;stroke:none;stroke-width:1px;stroke-linecap:butt;stroke-linejoin:miter;stroke-opacity:1;font-family:DIN 1451 Mittelschrift" />
    <path
       id="text1927"
       d="M -252.0146,316.20346 L -252.0146,245.19194 L -241.24346,245.19194 L -241.24346,306.06592 L -206.59062,306.06592 L -206.59062,316.20346 L -252.0146,316.20346 z M -197.03793,316.20346 L -197.03793,265.61323 L -186.85166,265.61323 L -186.85166,316.20346 L -197.03793,316.20346 z M -197.03793,255.37822 L -197.03793,245.19194 L -186.85166,245.19194 L -186.85166,255.37822 L -197.03793,255.37822 z M -173.35118,316.20346 L -173.35118,265.61323 L -163.1649,265.61323 L -163.1649,271.02317 L -162.96994,271.02317 C -159.81823,267.02669 -155.4318,265.02843 -149.81064,265.02838 C -145.87912,265.02843 -142.08567,266.52306 -138.43027,269.51229 C -134.77495,272.50161 -132.94727,276.85555 -132.94723,282.57412 L -132.94723,316.20346 L -143.13351,316.20346 L -143.13351,286.08327 C -143.13354,282.67163 -144.08394,280.00728 -145.98469,278.09021 C -147.88551,276.17321 -150.24931,275.2147 -153.07609,275.21465 C -156.00041,275.2147 -158.41295,276.17321 -160.31371,278.09021 C -162.21452,280.00728 -163.16491,282.67163 -163.1649,286.08327 L -163.1649,316.20346 L -173.35118,316.20346 z M -119.44675,316.20346 L -119.44675,265.61323 L -109.26047,265.61323 L -109.26047,316.20346 L -119.44675,316.20346 z M -119.44675,255.37822 L -119.44675,245.19194 L -109.26047,245.19194 L -109.26047,255.37822 L -119.44675,255.37822 z M -56.574511,294.75866 L -88.059374,294.75866 C -88.059388,298.91767 -86.930288,302.03691 -84.67207,304.11639 C -82.413888,306.1959 -79.530215,307.23565 -76.021044,307.23564 C -71.829591,307.23565 -68.125493,305.61104 -64.908739,302.36182 L -57.549274,308.64904 C -60.05121,311.57334 -62.869898,313.66096 -66.005348,314.9119 C -69.140871,316.16285 -72.414448,316.78832 -75.826091,316.78832 C -81.024851,316.78832 -86.061125,315.10685 -90.934926,311.74392 C -95.80875,308.38099 -98.245657,301.50079 -98.245653,291.1033 C -98.245657,281.25822 -95.99558,274.45113 -91.495415,270.682 C -86.995272,266.91297 -82.292043,265.02843 -77.385713,265.02838 C -71.829591,265.02843 -66.972024,266.95358 -62.812997,270.80385 C -58.65405,274.65421 -56.574556,279.84482 -56.574511,286.3757 L -56.574511,294.75866 z M -88.059374,286.3757 L -66.712052,286.3757 C -66.874548,282.57415 -67.946787,279.66611 -69.928771,277.65156 C -71.910821,275.63709 -74.396466,274.62984 -77.385713,274.6298 C -80.407502,274.62984 -82.917515,275.63709 -84.915761,277.65156 C -86.914042,279.66611 -87.961912,282.57415 -88.059374,286.3757 L -88.059374,286.3757 z M -45.852108,316.20346 L -45.852108,265.61323 L -35.665828,265.61323 L -35.665828,271.02317 L -35.470876,271.02317 C -32.31916,267.02669 -27.932729,265.02843 -22.311568,265.02838 C -18.380056,265.02843 -14.586605,266.52306 -10.931203,269.51229 C -7.2758851,272.50161 -5.4482053,276.85555 -5.4481582,282.57412 L -5.4481582,316.20346 L -15.634437,316.20346 L -15.634437,286.08327 C -15.634474,282.67163 -16.584868,280.00728 -18.485621,278.09021 C -20.386442,276.17321 -22.750241,275.2147 -25.577026,275.21465 C -28.50134,275.2147 -30.913878,276.17321 -32.814645,278.09021 C -34.715452,280.00728 -35.665845,282.67163 -35.665828,286.08327 L -35.665828,316.20346 L -45.852108,316.20346 z M 6.4439458,293.68642 L 6.4439458,283.50014 L 36.515402,283.50014 L 36.515402,293.68642 L 6.4439458,293.68642 z "
       style="font-size:99.81578827px;font-style:normal;font-variant:normal;font-weight:normal;font-stretch:normal;text-align:center;line-height:100%;writing-mode:lr-tb;text-anchor:middle;fill:black;fill-opacity:1;stroke:none;stroke-width:1px;stroke-linecap:butt;stroke-linejoin:miter;stroke-opacity:1;font-family:DIN 1451 Mittelschrift" />
    <path
       id="text1931"
       d="M -254.03756,412.7367 L -272.55811,362.14636 L -261.78695,362.14636 L -249.94355,397.57909 L -249.74859,397.57909 L -237.85645,362.14636 L -227.08529,362.14636 L -245.65458,412.7367 L -254.03756,412.7367 z M -181.95364,391.29185 L -213.43857,391.29185 C -213.43859,395.45087 -212.30948,398.57012 -210.05126,400.6496 C -207.79307,402.72911 -204.9094,403.76886 -201.40022,403.76885 C -197.20875,403.76886 -193.50465,402.14425 -190.28789,398.89502 L -182.92841,405.18226 C -185.43035,408.10656 -188.24904,410.19418 -191.3845,411.44513 C -194.52003,412.69608 -197.79361,413.32155 -201.20526,413.32156 C -206.40403,413.32155 -211.44032,411.64009 -216.31413,408.27714 C -221.18797,404.91421 -223.62488,398.034 -223.62487,387.63648 C -223.62488,377.79138 -221.3748,370.98428 -216.87462,367.21514 C -212.37447,363.4461 -207.67123,361.56155 -202.76489,361.5615 C -197.20875,361.56155 -192.35118,363.48671 -188.19214,367.33699 C -184.03319,371.18735 -181.95369,376.37797 -181.95364,382.90887 L -181.95364,391.29185 z M -213.43857,382.90887 L -192.0912,382.90887 C -192.2537,379.10731 -193.32594,376.19927 -195.30793,374.18471 C -197.28999,372.17024 -199.77564,371.16298 -202.76489,371.16294 C -205.78668,371.16298 -208.2967,372.17024 -210.29495,374.18471 C -212.29324,376.19927 -213.34111,379.10731 -213.43857,382.90887 L -213.43857,382.90887 z M -171.23122,412.7367 L -171.23122,362.14636 L -161.04492,362.14636 L -161.04492,367.55631 L -160.84997,367.55631 C -157.69824,363.55982 -153.3118,361.56155 -147.69063,361.5615 C -143.98655,361.56155 -140.46116,362.86124 -137.11442,365.46056 L -144.4739,374.23345 C -146.6834,372.57639 -148.92536,371.74784 -151.19979,371.7478 C -153.70171,371.74784 -155.96804,372.58451 -157.99878,374.25782 C -160.02956,375.93121 -161.04494,378.61993 -161.04492,382.32401 L -161.04492,412.7367 L -171.23122,412.7367 z M -132.43554,412.7367 L -132.43554,341.72502 L -122.24924,341.72502 L -122.24924,385.93064 L -122.05429,385.93064 L -102.60771,362.14636 L -90.423143,362.14636 L -107.87145,381.9341 L -88.034968,412.7367 L -100.8044,412.7367 L -114.25616,389.09863 L -122.24924,398.21269 L -122.24924,412.7367 L -132.43554,412.7367 z M -41.392435,391.29185 L -72.877365,391.29185 C -72.87738,395.45087 -71.748277,398.57012 -69.490055,400.6496 C -67.231868,402.72911 -64.348189,403.76886 -60.83901,403.76885 C -56.647548,403.76886 -52.943442,402.14425 -49.726681,398.89502 L -42.367201,405.18226 C -44.869142,408.10656 -47.687836,410.19418 -50.823293,411.44513 C -53.958822,412.69608 -57.232407,413.32155 -60.644057,413.32156 C -65.842828,413.32155 -70.879112,411.64009 -75.752924,408.27714 C -80.626759,404.91421 -83.063671,398.034 -83.063666,387.63648 C -83.063671,377.79138 -80.813589,370.98428 -76.313414,367.21514 C -71.813262,363.4461 -67.110022,361.56155 -62.203682,361.5615 C -56.647548,361.56155 -51.789971,363.48671 -47.630935,367.33699 C -43.471979,371.18735 -41.392481,376.37797 -41.392435,382.90887 L -41.392435,391.29185 z M -72.877365,382.90887 L -51.529998,382.90887 C -51.692494,379.10731 -52.764735,376.19927 -54.746724,374.18471 C -56.728778,372.17024 -59.214428,371.16298 -62.203682,371.16294 C -65.225477,371.16298 -67.735496,372.17024 -69.733746,374.18471 C -71.732031,376.19927 -72.779903,379.10731 -72.877365,382.90887 L -72.877365,382.90887 z M -30.670009,412.7367 L -30.670009,341.72502 L -20.483708,341.72502 L -20.483708,367.55631 L -20.288755,367.55631 C -17.137033,363.55982 -12.750592,361.56155 -7.1294189,361.5615 C -3.1978983,361.56155 0.59556087,363.05619 4.25097,366.04542 C 7.9062959,369.03475 9.7339796,373.3887 9.7340267,379.10728 L 9.7340267,412.7367 L -0.45227425,412.7367 L -0.45227425,382.61644 C -0.45231115,379.20479 -1.4027067,376.54043 -3.3034638,374.62336 C -5.2042889,372.70636 -7.5680932,371.74784 -10.394884,371.7478 C -13.319205,371.74784 -15.731747,372.70636 -17.632519,374.62336 C -19.53333,376.54043 -20.483725,379.20479 -20.483708,382.61644 L -20.483708,412.7367 L -30.670009,412.7367 z M 22.942112,412.7367 L 22.942112,362.14636 L 33.128413,362.14636 L 33.128413,367.55631 L 33.323366,367.55631 C 36.475089,363.55982 40.86153,361.56155 46.482703,361.5615 C 50.186778,361.56155 53.712177,362.86124 57.05891,365.46056 L 49.699429,374.23345 C 47.489929,372.57639 45.247971,371.74784 42.973546,371.7478 C 40.471624,371.74784 38.205296,372.58451 36.174556,374.25782 C 34.143776,375.93121 33.128396,378.61993 33.128413,382.32401 L 33.128413,412.7367 L 22.942112,412.7367 z "
       style="font-size:99.81600189px;font-style:normal;font-variant:normal;font-weight:normal;font-stretch:normal;text-align:center;line-height:100%;writing-mode:lr-tb;text-anchor:middle;fill:black;fill-opacity:1;stroke:none;stroke-width:1px;stroke-linecap:butt;stroke-linejoin:miter;stroke-opacity:1;font-family:DIN 1451 Mittelschrift" />
  </g>
</svg>
