<?xml version="1.0" encoding="UTF-8" standalone="no"?>
<!-- Created with Inkscape (http://www.inkscape.org/) -->
<svg
   xmlns:dc="http://purl.org/dc/elements/1.1/"
   xmlns:cc="http://web.resource.org/cc/"
   xmlns:rdf="http://www.w3.org/1999/02/22-rdf-syntax-ns#"
   xmlns:svg="http://www.w3.org/2000/svg"
   xmlns="http://www.w3.org/2000/svg"
   xmlns:sodipodi="http://sodipodi.sourceforge.net/DTD/sodipodi-0.dtd"
   xmlns:inkscape="http://www.inkscape.org/namespaces/inkscape"
   version="1.0"
   width="490"
   height="360"
   id="svg2"
   sodipodi:version="0.32"
   inkscape:version="0.44"
   sodipodi:docname="Zusatzzeichen 1028-30.svg"
   sodipodi:docbase="C:\Dokumente und Einstellungen\Internet\Desktop\Wiki\SVG sonstiges (fertig)">
  <metadata
     id="metadata10">
    <rdf:RDF>
      <cc:Work
         rdf:about="">
        <dc:format>image/svg+xml</dc:format>
        <dc:type
           rdf:resource="http://purl.org/dc/dcmitype/StillImage" />
      </cc:Work>
    </rdf:RDF>
  </metadata>
  <sodipodi:namedview
     inkscape:window-height="749"
     inkscape:window-width="1024"
     inkscape:pageshadow="2"
     inkscape:pageopacity="0.0"
     guidetolerance="10.0"
     gridtolerance="10.0"
     objecttolerance="10.0"
     borderopacity="1.0"
     bordercolor="#666666"
     pagecolor="#ffffff"
     id="base"
     inkscape:zoom="0.74246212"
     inkscape:cx="245"
     inkscape:cy="-30.613024"
     inkscape:window-x="-4"
     inkscape:window-y="-4"
     inkscape:current-layer="svg2"
     showguides="true"
     inkscape:guide-bbox="true" />
  <defs
     id="defs4" />
  <path
     d="M 38.78125,4.6190618 C 20.35689,4.6190483 9.96875,14.244672 9.96875,42.683954 L 9.65625,317.31604 C 9.65625,345.75531 20.04439,355.38094 38.46875,355.38094 L 451.21875,355.33878 C 469.64311,355.33878 480.03124,345.71316 480.03125,317.27389 L 480.34375,42.726108 C 480.34375,14.286826 469.95561,4.6612021 451.53125,4.6612156 L 38.78125,4.6190618 z "
     style="fill:white;fill-opacity:1;fill-rule:evenodd;stroke:black;stroke-width:3;stroke-linecap:butt;stroke-linejoin:miter;stroke-miterlimit:4;stroke-dasharray:none;stroke-opacity:1"
     id="path1881" />
  <path
     d="M 453.23342,19.074797 L 36.79782,19.117707 C 28.375505,19.117707 23.425891,27.356247 23.425891,39.539027 L 23.425891,320.50387 C 23.425891,332.68661 28.375515,340.9252 36.79782,340.9252 L 453.20218,340.88229 C 461.62449,340.88228 466.57411,332.64373 466.57411,320.46097 L 466.57411,39.496127 C 466.57411,27.313347 461.65573,19.074797 453.23342,19.074797 z "
     style="fill:none;fill-opacity:1;fill-rule:evenodd;stroke:black;stroke-width:12;stroke-linecap:butt;stroke-linejoin:miter;stroke-miterlimit:4;stroke-dasharray:none;stroke-opacity:1"
     id="path3976" />
  <g
     id="g3933"
     transform="translate(168.2284,-428.3237)">
    <path
       id="text2064"
       style="font-size:103.73000336px;font-style:normal;font-variant:normal;font-weight:normal;font-stretch:normal;text-align:center;line-height:100%;writing-mode:lr-tb;text-anchor:middle;fill:black;fill-opacity:1;stroke:none;stroke-width:1px;stroke-linecap:butt;stroke-linejoin:miter;stroke-opacity:1;font-family:DIN 1451 Engschrift"
       d="M -71.156515,640.08645 L -71.156515,598.59508 L -76.031521,598.59508 L -76.031521,590.7096 L -71.156515,590.7096 L -71.156515,583.86559 C -71.156521,579.99308 -70.18838,577.12295 -68.252087,575.25519 C -66.31581,573.38756 -64.51776,572.19466 -62.85792,571.6765 C -61.19812,571.15846 -59.36472,570.89941 -57.35771,570.89934 L -53.93571,570.89934 L -53.93571,580.02574 L -57.56664,580.02574 C -59.98728,580.0258 -61.19759,581.30575 -61.19757,583.86559 L -61.19757,590.7096 L -53.93571,590.7096 L -53.93571,598.59508 L -61.19757,598.59508 L -61.19757,640.08645 L -71.156515,640.08645 z M -48.70933,634.90121 C -49.19472,634.06972 -49.50653,633.15276 -49.64476,632.15032 C -49.78299,631.14789 -49.85211,630.0241 -49.8521,628.77896 L -49.8521,623.17904 C -49.85211,619.51331 -48.93567,616.78141 -47.10279,614.98333 C -45.26992,613.1853 -43.6101,611.95811 -42.12332,611.30175 C -40.63656,610.64545 -38.85592,610.31728 -36.78139,610.31725 L -30.14315,610.31725 L -30.14315,606.0627 C -30.14317,605.09407 -30.19488,604.29898 -30.29826,603.67743 C -30.4017,603.05596 -30.8338,602.26087 -31.59457,601.29216 C -32.35539,600.32353 -33.39317,599.83919 -34.70793,599.83915 C -36.09025,599.83919 -37.26574,600.28871 -38.23439,601.18769 C -39.20308,602.08676 -39.79082,603.26225 -39.99763,604.71416 L -49.8521,604.71416 C -49.85211,600.70445 -48.41704,597.26452 -45.5469,594.39434 C -42.67678,591.52426 -39.20202,590.08919 -35.12262,590.08914 C -31.11079,590.08919 -27.61809,591.50685 -24.64452,594.34211 C -21.67101,597.17746 -20.18424,600.63481 -20.18421,604.71416 L -20.18421,640.08645 L -30.14315,640.08645 L -30.14315,635.10697 C -31.17937,636.83539 -32.47568,638.20134 -34.03208,639.20483 C -35.58851,640.20832 -37.33538,640.71007 -39.27271,640.71007 C -43.62857,640.71007 -46.7741,638.77378 -48.70933,634.90121 L -48.70933,634.90121 z M -39.89316,623.07457 L -39.89316,625.56273 C -39.89318,626.87751 -39.42625,628.07094 -38.49239,629.14301 C -37.55856,630.2151 -36.33189,630.75113 -34.81239,630.75112 C -33.98092,630.75113 -33.20218,630.54379 -32.47619,630.12909 C -31.75024,629.71441 -31.19731,629.14407 -30.81742,628.41809 C -30.43757,627.69212 -30.23023,626.75828 -30.19538,625.61654 C -30.16058,624.47483 -30.14317,623.66233 -30.14315,623.17904 L -30.14315,618.40533 L -33.87854,618.40533 C -35.67662,618.40535 -37.12856,618.75146 -38.23439,619.44364 C -39.34025,620.13587 -39.89318,621.34618 -39.89316,623.07457 L -39.89316,623.07457 z M 8.06234,590.08914 C 9.86037,590.08919 11.55501,590.573 13.14627,591.54056 C 14.73748,592.50823 15.87867,593.63201 16.56986,594.91191 C 17.26098,596.19191 17.69308,597.2814 17.86617,598.18039 C 18.03919,599.07945 18.12571,600.25494 18.12575,601.70685 L 18.12575,640.08645 L 8.1668,640.08645 L 8.1668,605.43908 C 8.16678,603.78035 7.78638,602.43234 7.02561,601.39504 C 6.26479,600.35782 5.05501,599.83919 3.39626,599.83915 C 1.94429,599.83919 0.7514,600.40953 -0.18244,601.55015 C -1.1163,602.69086 -1.58322,603.98717 -1.58321,605.43908 L -1.58321,640.08645 L -11.54215,640.08645 L -11.54215,570.89934 L -1.58321,570.89934 L -1.58321,595.4833 C 0.69811,591.88724 3.91329,590.08919 8.06234,590.08914 L 8.06234,590.08914 z M 49.77213,590.08914 L 49.77213,600.25385 C 49.28882,600.11671 48.80502,600.0133 48.32071,599.94362 C 47.83635,599.87402 47.38631,599.83919 46.97059,599.83915 C 43.72056,599.83919 41.23135,600.94557 39.50296,603.15827 C 37.77454,605.37105 36.91033,608.03384 36.91034,611.14664 L 36.91034,640.08645 L 26.9514,640.08645 L 26.9514,590.7096 L 36.91034,590.7096 L 36.91034,596.00246 C 38.63874,593.85835 40.76496,592.33676 43.28901,591.43768 C 45.81301,590.5387 47.97405,590.08919 49.77213,590.08914 L 49.77213,590.08914 z M 53.84941,640.08645 L 53.84941,631.89074 L 69.7185,599.21553 L 54.98902,599.21553 L 54.98902,590.7096 L 80.82022,590.7096 L 80.82022,597.86699 L 64.94796,630.64666 L 80.82022,630.64666 L 80.82022,640.08645 L 53.84941,640.08645 z M 101.32374,630.64666 C 102.77778,630.64667 103.9538,630.19716 104.85179,629.29812 C 105.74974,628.3991 106.30319,627.22362 106.51214,625.77165 L 116.36662,625.77165 L 116.36662,626.91127 C 116.36659,628.43287 116.03789,629.95446 115.38054,631.47604 C 114.72312,632.99764 113.35717,634.91704 111.28269,637.23425 C 109.20814,639.55146 105.95814,640.71007 101.53267,640.71007 C 98.69629,640.71007 96.08521,639.94927 93.69942,638.42768 C 91.31362,636.90609 89.67121,635.22885 88.77219,633.39597 C 87.87315,631.56311 87.30282,629.90328 87.06119,628.4165 C 86.81954,626.92975 86.69872,625.46039 86.69873,624.00842 L 86.69873,605.23332 C 86.69872,601.15397 88.16808,597.61009 91.10681,594.60169 C 94.04552,591.59337 97.55562,590.08919 101.63714,590.08914 C 105.85579,590.08919 109.36537,591.55855 112.16588,594.49722 C 114.96634,597.43599 116.36659,601.01468 116.36662,605.23332 L 116.36662,618.92449 L 96.65767,618.92449 L 96.65767,626.29081 C 96.65765,627.32703 97.15887,628.31205 98.16132,629.24589 C 99.16374,630.17975 100.21788,630.64667 101.32374,630.64666 L 101.32374,630.64666 z M 101.53267,599.83915 C 100.21788,599.83919 99.07669,600.28871 98.10909,601.18769 C 97.14146,602.08676 96.65765,603.67694 96.65767,605.95824 L 96.65767,610.83324 L 106.40768,610.83324 L 106.40768,605.95824 C 106.40766,604.16022 106.02726,602.69086 105.26648,601.55015 C 104.50567,600.40953 103.26106,599.83919 101.53267,599.83915 L 101.53267,599.83915 z M 144.01171,640.08645 L 144.01171,635.10697 C 142.8362,636.90503 141.53936,638.28839 140.1212,639.25706 C 138.703,640.22573 136.99147,640.71007 134.98662,640.71007 C 132.98173,640.71007 131.09768,640.15662 129.33446,639.04972 C 127.57122,637.94282 126.3435,636.6808 125.6513,635.26367 C 124.95908,633.84655 124.56127,632.68847 124.45787,631.78944 C 124.35446,630.89042 124.30275,629.57565 124.30276,627.84511 L 124.30276,590.7096 L 134.2617,590.7096 L 134.2617,624.11289 C 134.26168,624.87264 134.27909,625.65032 134.31393,626.44592 C 134.34874,627.24156 134.72913,628.15799 135.45512,629.19524 C 136.18108,630.23251 137.4431,630.75113 139.24117,630.75112 C 140.14017,630.75113 140.96956,630.50897 141.72932,630.02462 C 142.48904,629.5403 143.02455,628.96996 143.33586,628.31362 C 143.64711,627.6573 143.83758,626.94874 143.90724,626.18793 C 143.97686,625.42715 144.01168,624.73547 144.01171,624.11289 L 144.01171,590.7096 L 153.97065,590.7096 L 153.97065,640.08645 L 144.01171,640.08645 z M 189.35242,653.67632 C 187.96798,655.75082 186.20422,657.39323 184.06114,658.60356 C 181.91801,659.81385 179.63615,660.419 177.21556,660.41902 C 172.99687,660.419 169.38335,658.98393 166.375,656.11382 C 163.36663,653.24367 161.86245,649.66445 161.86245,645.37614 L 171.82139,645.37614 C 171.82138,646.76055 172.27089,647.93657 173.16993,648.90419 C 174.06895,649.8718 175.24443,650.3556 176.6964,650.35561 C 178.77089,650.3556 180.29249,649.42176 181.26118,647.55407 C 181.53762,646.86396 181.67585,645.75812 181.67587,644.23653 L 181.67587,635.00251 C 180.70718,636.66339 179.39293,638.02987 177.73313,639.10195 C 176.07329,640.17403 174.30953,640.71007 172.44185,640.71007 C 170.43696,640.71007 168.58773,640.17403 166.89415,639.10195 C 165.20056,638.02987 163.99025,636.80215 163.26322,635.41879 C 162.53619,634.03543 162.12097,632.92906 162.01757,632.09967 C 161.91415,631.27029 161.86245,629.99034 161.86245,628.25981 L 161.86245,600.87747 C 161.86245,599.63238 162.01809,598.49118 162.32938,597.45388 C 162.64065,596.41667 163.50539,594.91249 164.92358,592.94134 C 166.34175,590.97028 168.81407,589.98473 172.34055,589.98468 C 174.20612,589.98473 175.93453,590.45165 177.52578,591.38545 C 179.117,592.31935 180.50036,593.61565 181.67587,595.27437 L 181.67587,590.7096 L 191.63481,590.7096 L 191.63481,644.23653 C 191.63478,646.17176 191.47914,647.88275 191.16789,649.36953 C 190.85657,650.85629 190.25142,652.29189 189.35242,653.67632 L 189.35242,653.67632 z M 180.74202,601.70685 C 179.70369,600.32247 178.35515,599.63027 176.6964,599.63022 C 174.75904,599.63027 173.4965,600.20113 172.90877,601.34281 C 172.32101,602.48457 171.99285,603.3493 171.92428,603.93701 C 171.85567,604.52479 171.82138,605.12994 171.82139,605.75247 L 171.82139,624.52758 C 171.82138,625.49626 171.87308,626.27447 171.97651,626.8622 C 172.0799,627.44996 172.47771,628.22764 173.16993,629.19524 C 173.86213,630.16286 175.1062,630.64667 176.90216,630.64666 C 179.0463,630.64667 180.36055,630.04152 180.8449,628.8312 C 181.32922,627.6209 181.57138,626.70446 181.57141,626.08188 C 181.57138,625.45933 181.6062,624.94123 181.67587,624.52758 L 181.67587,605.75247 C 181.67585,604.78384 181.62361,604.02304 181.51917,603.47008 C 181.41469,602.9172 181.15564,602.32945 180.74202,601.70685 L 180.74202,601.70685 z M 214.17064,630.64666 C 215.62468,630.64667 216.80069,630.19716 217.69869,629.29812 C 218.59664,628.3991 219.15008,627.22362 219.35904,625.77165 L 229.21351,625.77165 L 229.21351,626.91127 C 229.21348,628.43287 228.88479,629.95446 228.22743,631.47604 C 227.57001,632.99764 226.20406,634.91704 224.12958,637.23425 C 222.05504,639.55146 218.80504,640.71007 214.37957,640.71007 C 211.54318,640.71007 208.9321,639.94927 206.54632,638.42768 C 204.16051,636.90609 202.5181,635.22885 201.61908,633.39597 C 200.72005,631.56311 200.14971,629.90328 199.90808,628.4165 C 199.66643,626.92975 199.54562,625.46039 199.54562,624.00842 L 199.54562,605.23332 C 199.54562,601.15397 201.01497,597.61009 203.9537,594.60169 C 206.89241,591.59337 210.40252,590.08919 214.48403,590.08914 C 218.70268,590.08919 222.21226,591.55855 225.01278,594.49722 C 227.81324,597.43599 229.21348,601.01468 229.21351,605.23332 L 229.21351,618.92449 L 209.50456,618.92449 L 209.50456,626.29081 C 209.50455,627.32703 210.00576,628.31205 211.00821,629.24589 C 212.01063,630.17975 213.06477,630.64667 214.17064,630.64666 L 214.17064,630.64666 z M 214.37957,599.83915 C 213.06477,599.83919 211.92358,600.28871 210.95598,601.18769 C 209.98835,602.08676 209.50455,603.67694 209.50456,605.95824 L 209.50456,610.83324 L 219.25457,610.83324 L 219.25457,605.95824 C 219.25455,604.16022 218.87415,602.69086 218.11338,601.55015 C 217.35256,600.40953 216.10796,599.83919 214.37957,599.83915 L 214.37957,599.83915 z " />
    <path
       id="text1982"
       style="font-size:103.73000336px;font-style:normal;font-variant:normal;font-weight:normal;font-stretch:normal;text-align:center;line-height:100%;writing-mode:lr-tb;text-anchor:middle;fill:black;fill-opacity:1;stroke:none;stroke-width:1px;stroke-linecap:butt;stroke-linejoin:miter;stroke-opacity:1;font-family:DIN 1451 Mittelschrift"
       d="M 13.96863,739.91795 L 13.96863,695.44776 L 8.65044,695.44776 L 8.65044,687.34385 L 13.96863,687.34385 L 13.96863,680.40488 C 13.96862,675.50884 15.31927,671.90429 18.02058,669.59123 C 20.72187,667.27832 24.13226,666.12182 28.25177,666.12175 L 35.08944,666.12175 L 35.08944,676.04903 L 29.11281,676.04903 C 26.04006,676.0491 24.50369,677.50105 24.50371,680.40488 L 24.50371,687.34385 L 35.08944,687.34385 L 35.08944,695.44776 L 24.50371,695.44776 L 24.50371,739.91795 L 13.96863,739.91795 z M 41.06607,739.91795 L 41.06607,687.34385 L 51.6518,687.34385 L 51.6518,692.96594 L 51.85439,692.96594 C 55.1297,688.81274 59.68814,686.73611 65.52974,686.73606 C 69.37906,686.73611 73.04269,688.08676 76.52066,690.78801 L 68.8726,699.90491 C 66.57646,698.18287 64.24659,697.32183 61.88298,697.32179 C 59.28295,697.32183 56.92775,698.19131 54.81738,699.93023 C 52.70697,701.66924 51.65178,704.46339 51.6518,708.31271 L 51.6518,739.91795 L 41.06607,739.91795 z M 122.10513,717.63221 L 89.38561,717.63221 C 89.38559,721.95431 90.55897,725.19587 92.90574,727.35689 C 95.25248,729.51795 98.24923,730.59846 101.89601,730.59846 C 106.25183,730.59846 110.10118,728.91015 113.44408,725.53351 L 121.09214,732.06729 C 118.4921,735.10626 115.56287,737.27574 112.30447,738.57574 C 109.04599,739.87574 105.64404,740.52574 102.09861,740.52574 C 96.69599,740.52574 91.46222,738.77834 86.39729,735.28353 C 81.33234,731.78872 78.79988,724.63872 78.79988,713.8335 C 78.79988,703.60235 81.13819,696.52833 85.81482,692.61139 C 90.49144,688.69456 95.3791,686.73611 100.47783,686.73606 C 106.25183,686.73611 111.29989,688.73676 115.62201,692.73802 C 119.94404,696.73936 122.10508,702.13352 122.10513,708.92051 L 122.10513,717.63221 z M 89.38561,708.92051 L 111.57005,708.92051 C 111.40118,704.96989 110.2869,701.94781 108.22719,699.85426 C 106.16742,697.76079 103.5843,696.71404 100.47783,696.714 C 97.33754,696.71404 94.7291,697.76079 92.6525,699.85426 C 90.57585,701.94781 89.48689,704.96989 89.38561,708.92051 L 89.38561,708.92051 z M 133.5519,739.91795 L 133.5519,687.34385 L 144.13763,687.34385 L 144.13763,739.91795 L 133.5519,739.91795 z M 133.5519,676.70748 L 133.5519,666.12175 L 144.13763,666.12175 L 144.13763,676.70748 L 133.5519,676.70748 z " />
    <path
       id="text2060"
       style="font-size:103.73213959px;font-style:normal;font-variant:normal;font-weight:normal;font-stretch:normal;text-align:center;line-height:100%;writing-mode:lr-tb;text-anchor:middle;fill:black;fill-opacity:1;stroke:none;stroke-width:1px;stroke-linecap:butt;stroke-linejoin:miter;stroke-opacity:1;font-family:DIN 1451 Engschrift"
       d="M -86.588796,476.12162 C -84.583906,476.12169 -82.578994,476.57121 -80.574054,477.47019 C -78.56917,478.3693 -76.460319,479.92522 -74.247495,482.13795 C -72.034739,484.3508 -70.928345,487.77339 -70.928307,492.40574 L -70.928307,497.69555 C -70.928345,502.95269 -73.002901,506.6871 -77.151982,508.8988 C -73.002901,511.3195 -70.928345,515.15838 -70.928307,520.41545 L -70.928307,528.50686 C -70.928345,533.3461 -72.484262,537.35645 -75.596064,540.53792 C -78.707931,543.71941 -82.718282,545.31015 -87.62713,545.31015 L -102.87608,545.31015 L -102.87608,476.12162 L -86.588796,476.12162 z M -80.678521,496.66038 L -80.678521,492.40574 C -80.678548,490.26371 -81.300599,488.57008 -82.544673,487.32487 C -83.7888,486.07977 -85.448128,485.45719 -87.522664,485.45713 L -93.125871,485.45713 L -93.125871,504.54286 L -87.21243,504.54286 C -84.931072,504.5429 -83.271744,503.83432 -82.234439,502.41712 C -81.197187,501.00001 -80.678548,499.0811 -80.678521,496.66038 L -80.678521,496.66038 z M -80.678521,528.50686 L -80.678521,520.41545 C -80.678548,518.20163 -81.283715,516.45524 -82.494023,515.17629 C -83.704382,513.8974 -85.380594,513.25793 -87.522664,513.2579 L -93.125871,513.2579 L -93.125871,535.45547 L -87.421363,535.45547 C -85.414361,535.45548 -83.7888,534.7986 -82.544673,533.48485 C -81.300599,532.17111 -80.678548,530.51179 -80.678521,528.50686 L -80.678521,528.50686 z M -61.86504,540.12481 C -62.35045,539.2933 -62.66226,538.37632 -62.80049,537.37385 C -62.93873,536.37141 -63.00785,535.2476 -63.00784,534.00243 L -63.00784,528.40239 C -63.00785,524.73658 -62.09139,522.00463 -60.25847,520.20651 C -58.42557,518.40845 -56.76571,517.18123 -55.2789,516.52486 C -53.79211,515.86854 -52.01143,515.54037 -49.93686,515.54034 L -43.29848,515.54034 L -43.29848,511.2857 C -43.29851,510.31705 -43.35021,509.52194 -43.4536,508.90038 C -43.55703,508.27889 -43.98915,507.48379 -44.74994,506.51506 C -45.51077,505.54641 -46.54857,505.06207 -47.86336,505.06203 C -49.24571,505.06207 -50.42122,505.51159 -51.38989,506.41059 C -52.3586,507.30968 -52.94635,508.48519 -53.15316,509.93713 L -63.00784,509.93713 C -63.00785,505.92734 -61.57275,502.48734 -58.70255,499.6171 C -55.83237,496.74696 -52.35754,495.31186 -48.27806,495.31181 C -44.26614,495.31186 -40.77337,496.72955 -37.79974,499.56487 C -34.82617,502.40028 -33.33937,505.8577 -33.33934,509.93713 L -33.33934,545.31015 L -43.29848,545.31015 L -43.29848,540.33057 C -44.33473,542.05902 -45.63106,543.425 -47.18749,544.42851 C -48.74395,545.43202 -50.49086,545.93378 -52.42823,545.93378 C -56.78418,545.93378 -59.92978,543.99746 -61.86504,540.12481 L -61.86504,540.12481 z M -53.0487,528.29792 L -53.0487,530.78613 C -53.04871,532.10094 -52.58178,533.29439 -51.64789,534.36648 C -50.71404,535.43859 -49.48735,535.97464 -47.96782,535.97463 C -47.13633,535.97464 -46.35758,535.76729 -45.63157,535.35258 C -44.9056,534.93789 -44.35267,534.36755 -43.97277,533.64155 C -43.59291,532.91557 -43.38556,531.9817 -43.35072,530.83994 C -43.31592,529.69821 -43.29851,528.8857 -43.29848,528.40239 L -43.29848,523.62858 L -47.03395,523.62858 C -48.83206,523.62861 -50.28404,523.97472 -51.38989,524.66692 C -52.49578,525.35916 -53.04871,526.5695 -53.0487,528.29792 L -53.0487,528.29792 z M -4.88328,545.31015 L -4.88328,540.33057 C -6.05881,542.12867 -7.35567,543.51206 -8.77386,544.48075 C -10.1921,545.44944 -11.90366,545.93378 -13.90856,545.93378 C -15.91348,545.93378 -17.79757,545.38032 -19.56083,544.2734 C -21.32411,543.16647 -22.55185,541.90443 -23.24407,540.48727 C -23.9363,539.07012 -24.33411,537.91202 -24.43752,537.01297 C -24.54094,536.11393 -24.59264,534.79913 -24.59264,533.06856 L -24.59264,495.93228 L -14.63349,495.93228 L -14.63349,529.33626 C -14.6335,530.09603 -14.61609,530.87373 -14.58126,531.66935 C -14.54645,532.46499 -14.16604,533.38145 -13.44004,534.41872 C -12.71406,535.456 -11.45203,535.97464 -9.65392,535.97463 C -8.75489,535.97464 -7.92549,535.73247 -7.16571,535.24812 C -6.40598,534.76378 -5.87046,534.19344 -5.55914,533.53708 C -5.24788,532.88075 -5.05741,532.17217 -4.98774,531.41134 C -4.91812,530.65055 -4.8833,529.95885 -4.88328,529.33626 L -4.88328,495.93228 L 5.07587,495.93228 L 5.07587,545.31015 L -4.88328,545.31015 z M 26.45353,536.5951 C 27.97514,536.59511 29.28889,536.11129 30.39477,535.14365 C 31.50062,534.17603 32.05355,532.9314 32.05358,531.40976 C 32.05355,529.61169 31.58715,528.28053 30.65436,527.41629 C 29.72152,526.55208 28.25161,525.77386 26.2446,525.08162 L 24.27557,524.35668 C 22.20099,523.59484 20.47202,522.85091 19.08864,522.1249 C 17.70524,521.39893 16.21844,520.08519 14.62824,518.18366 C 13.03802,516.28219 12.24291,513.53335 12.24292,509.93713 C 12.24291,505.8577 13.6606,502.40028 16.49597,499.56487 C 19.33133,496.72955 22.82357,495.31186 26.9727,495.31181 C 30.77569,495.31186 33.99093,496.76384 36.61845,499.66775 C 39.24591,502.57176 40.55966,505.85664 40.55969,509.52243 L 31.43311,509.52243 C 31.43309,508.07049 30.96615,506.87757 30.03231,505.94366 C 29.09842,505.00983 27.87067,504.5429 26.34907,504.54286 C 24.96672,504.5429 23.82603,505.06154 22.927,506.09878 C 22.02794,507.1361 21.57842,508.38072 21.57843,509.83267 C 21.57842,511.35432 22.02794,512.53036 22.927,513.36079 C 23.82603,514.19128 25.13977,514.91779 26.86824,515.54034 L 30.08454,516.57551 C 31.95225,517.26776 33.42164,517.92516 34.49271,518.54771 C 35.56373,519.17031 36.6353,520.10366 37.70743,521.34773 C 38.77951,522.59186 39.66167,524.04383 40.35392,525.70367 C 41.04611,527.36355 41.39222,529.12734 41.39225,530.99506 C 41.39222,535.00701 39.95713,538.51666 37.08697,541.52403 C 34.21675,544.5314 30.77569,546.03508 26.76377,546.03508 C 24.34308,546.03508 21.90553,545.37821 19.45111,544.06446 C 16.99666,542.75072 15.09516,540.97004 13.7466,538.72242 C 12.39803,536.47482 11.72375,533.93385 11.72375,531.09953 L 20.95479,531.09953 C 20.95478,532.62116 21.49083,533.9175 22.56295,534.98853 C 23.63503,536.05959 24.9319,536.59511 26.45353,536.5951 L 26.45353,536.5951 z M 62.87122,535.87017 L 65.15366,535.87017 L 65.15366,545.31015 L 62.04182,545.31015 C 60.17407,545.31015 58.51421,545.12021 57.06225,544.74033 C 55.61025,544.36045 54.19257,543.58223 52.80919,542.40566 C 51.42579,541.2291 50.45763,539.93223 49.9047,538.51507 C 49.35176,537.09792 49.0753,535.35207 49.0753,533.2775 L 49.0753,503.71346 L 44.20019,503.71346 L 44.20019,495.93228 L 49.0753,495.93228 L 49.0753,480.99673 L 59.03445,480.99673 L 59.03445,495.93228 L 65.15366,495.93228 L 65.15366,503.71346 L 59.03445,503.71346 L 59.03445,531.51423 C 59.03443,533.17304 59.25919,534.31373 59.70873,534.9363 C 60.15824,535.55889 61.2124,535.87018 62.87122,535.87017 L 62.87122,535.87017 z M 86.3477,535.87017 C 87.80177,535.87018 88.97781,535.42065 89.87582,534.5216 C 90.77379,533.62257 91.32725,532.44705 91.53621,530.99506 L 101.39089,530.99506 L 101.39089,532.1347 C 101.39085,533.65633 101.06215,535.17795 100.40479,536.69957 C 99.74735,538.2212 98.38138,540.14064 96.30685,542.45789 C 94.23226,544.77515 90.9822,545.93378 86.55664,545.93378 C 83.72019,545.93378 81.10906,545.17297 78.72323,543.65134 C 76.33737,542.12972 74.69492,540.45246 73.79589,538.61954 C 72.89683,536.78663 72.32649,535.12678 72.08485,533.63996 C 71.8432,532.15318 71.72238,530.68379 71.72238,529.23179 L 71.72238,510.4563 C 71.72238,506.37687 73.19177,502.83292 76.13055,499.82445 C 79.06933,496.81607 82.5795,495.31186 86.6611,495.31181 C 90.87984,495.31186 94.38949,496.78125 97.19007,499.71999 C 99.99058,502.65881 101.39085,506.23758 101.39089,510.4563 L 101.39089,524.14775 L 81.68153,524.14775 L 81.68153,531.51423 C 81.68151,532.55046 82.18274,533.53551 83.18521,534.46937 C 84.18765,535.40324 85.24182,535.87018 86.3477,535.87017 L 86.3477,535.87017 z M 86.55664,505.06203 C 85.24182,505.06207 84.1006,505.51159 83.13298,506.41059 C 82.16533,507.30968 81.68151,508.89989 81.68153,511.18124 L 81.68153,516.05634 L 91.43174,516.05634 L 91.43174,511.18124 C 91.43172,509.38318 91.05131,507.91379 90.29052,506.77306 C 89.52969,505.63241 88.28506,505.06207 86.55664,505.06203 L 86.55664,505.06203 z M 119.18186,476.12162 L 119.18186,531.09953 C 119.18184,532.75834 119.45831,533.96815 120.01126,534.72895 C 120.56418,535.48977 121.6711,535.87018 123.33203,535.87017 L 124.05697,535.87017 L 124.05697,545.31015 L 121.879,545.31015 C 120.28771,545.31015 118.80091,545.13709 117.41859,544.79098 C 116.03624,544.44487 114.65338,543.73629 113.27,542.66524 C 111.8866,541.5942 110.86621,540.21134 110.20881,538.51665 C 109.55141,536.82198 109.22271,535.00595 109.22271,533.06856 L 109.22271,476.12162 L 119.18186,476.12162 z M 140.04985,476.12162 L 140.04985,531.09953 C 140.04984,532.75834 140.32631,533.96815 140.87926,534.72895 C 141.43217,535.48977 142.5391,535.87018 144.20003,535.87017 L 144.92496,535.87017 L 144.92496,545.31015 L 142.74699,545.31015 C 141.15571,545.31015 139.66891,545.13709 138.28659,544.79098 C 136.90424,544.44487 135.52138,543.73629 134.138,542.66524 C 132.7546,541.5942 131.7342,540.21134 131.07681,538.51665 C 130.4194,536.82198 130.0907,535.00595 130.09071,533.06856 L 130.09071,476.12162 L 140.04985,476.12162 z M 164.75461,535.87017 C 166.20868,535.87018 167.38472,535.42065 168.28273,534.5216 C 169.1807,533.62257 169.73416,532.44705 169.94311,530.99506 L 179.79779,530.99506 L 179.79779,532.1347 C 179.79776,533.65633 179.46906,535.17795 178.81169,536.69957 C 178.15426,538.2212 176.78828,540.14064 174.71375,542.45789 C 172.63917,544.77515 169.3891,545.93378 164.96354,545.93378 C 162.1271,545.93378 159.51597,545.17297 157.13013,543.65134 C 154.74428,542.12972 153.10183,540.45246 152.20279,538.61954 C 151.30374,536.78663 150.7334,535.12678 150.49176,533.63996 C 150.25011,532.15318 150.12928,530.68379 150.12929,529.23179 L 150.12929,510.4563 C 150.12928,506.37687 151.59867,502.83292 154.53746,499.82445 C 157.47623,496.81607 160.98641,495.31186 165.06801,495.31181 C 169.28675,495.31186 172.7964,496.78125 175.59697,499.71999 C 178.39749,502.65881 179.79776,506.23758 179.79779,510.4563 L 179.79779,524.14775 L 160.08843,524.14775 L 160.08843,531.51423 C 160.08842,532.55046 160.58965,533.53551 161.59212,534.46937 C 162.59456,535.40324 163.64872,535.87018 164.75461,535.87017 L 164.75461,535.87017 z M 164.96354,505.06203 C 163.64872,505.06207 162.50751,505.51159 161.53989,506.41059 C 160.57224,507.30968 160.08842,508.89989 160.08843,511.18124 L 160.08843,516.05634 L 169.83865,516.05634 L 169.83865,511.18124 C 169.83862,509.38318 169.45822,507.91379 168.69743,506.77306 C 167.9366,505.63241 166.69197,505.06207 164.96354,505.06203 L 164.96354,505.06203 z M 215.74062,500.39269 C 216.29563,501.22424 216.67657,502.22775 216.88342,503.40322 C 217.09021,504.57878 217.19362,505.75429 217.19366,506.92976 L 217.19366,545.31015 L 207.23451,545.31015 L 207.23451,510.56077 C 207.23449,506.89498 205.60945,505.06207 202.3594,505.06203 C 200.90741,505.06207 199.7319,505.61553 198.83287,506.72241 C 197.93381,507.82937 197.48428,509.10882 197.4843,510.56077 L 197.4843,545.31015 L 187.52515,545.31015 L 187.52515,495.93228 L 197.4843,495.93228 L 197.4843,500.70609 C 199.69813,497.10995 202.7762,495.31186 206.71851,495.31181 C 210.72831,495.31186 213.73568,497.00549 215.74062,500.39269 L 215.74062,500.39269 z M 226.85523,523.00812 L 226.85523,513.15344 L 256.41927,513.15344 L 256.41927,523.00812 L 226.85523,523.00812 z " />
  </g>
</svg>
