<?xml version="1.0" encoding="UTF-8" standalone="no"?>
<!-- Created with Inkscape (http://www.inkscape.org/) -->
<svg
   xmlns:svg="http://www.w3.org/2000/svg"
   xmlns="http://www.w3.org/2000/svg"
   version="1.0"
   width="490"
   height="270"
   id="svg2">
  <defs
     id="defs4" />
  <path
     d="M 38.78125,4.984375 C 20.356889,4.9843748 9.96875,12.12016 9.96875,33.203125 L 9.65625,236.79688 C 9.65625,257.87984 20.044391,265.01563 38.46875,265.01563 L 451.21875,264.98438 C 469.64311,264.98438 480.03124,257.84859 480.03125,236.76563 L 480.34375,33.234375 C 480.34375,12.15141 469.95561,5.0156248 451.53125,5.015625 L 38.78125,4.984375 z "
     style="fill:white;fill-opacity:1;fill-rule:evenodd;stroke:black;stroke-width:2;stroke-linecap:butt;stroke-linejoin:miter;stroke-miterlimit:4;stroke-dasharray:none;stroke-opacity:1"
     id="path1881" />
  <path
     d="M 453.3125,17.796875 L 36.78125,17.828125 C 28.356999,17.828125 23.40625,23.829135 23.40625,32.703125 L 23.40625,237.35938 C 23.406249,246.23335 28.35701,252.23438 36.78125,252.23438 L 453.28125,252.20313 C 461.70549,252.20312 466.65625,246.20211 466.65625,237.32813 L 466.65625,32.671875 C 466.65625,23.797885 461.73674,17.796875 453.3125,17.796875 z "
     style="fill:none;fill-opacity:1;fill-rule:evenodd;stroke:black;stroke-width:10.05090809;stroke-linecap:butt;stroke-linejoin:miter;stroke-miterlimit:4;stroke-dasharray:none;stroke-opacity:1"
     id="path3976" />
  <path
     d="M 80.239381,108.66835 L 80.239381,158.97358 L 204.11877,158.97358 L 204.11877,108.66835 L 80.239381,108.66835 z "
     style="fill:white;fill-opacity:1;fill-rule:evenodd;stroke:none;stroke-width:1px;stroke-linecap:butt;stroke-linejoin:miter;stroke-opacity:1"
     id="path20922" />
  <g
     transform="translate(-192.5815,-288.6836)"
     id="g1902">
    <path
       d="M 290.54615,464.36091 L 290.54615,395.39369 L 278.99581,403.8193 L 278.99581,391.48778 L 290.54615,383.06218 L 302.20808,383.06218 L 302.20808,464.36091 L 290.54615,464.36091 z M 330.49803,426.69678 L 352.31533,383.06218 L 365.31644,383.06218 L 348.18623,417.43419 L 348.40942,417.43419 C 350.23215,416.72745 352.2967,416.37406 354.60308,416.37401 C 359.73653,416.37406 364.25622,418.17822 368.16217,421.78649 C 372.06803,425.39485 374.02098,431.14211 374.02104,439.02829 C 374.02098,448.3653 371.52864,455.03324 366.54401,459.03214 C 361.55928,463.03105 356.05381,465.0305 350.02759,465.0305 C 344.3361,465.0305 339.13752,462.82645 334.43184,458.41835 C 329.72614,454.01026 327.3733,447.97471 327.37331,440.31166 C 327.3733,435.40141 328.41488,430.86311 330.49803,426.69678 L 330.49803,426.69678 z M 350.69717,426.69678 C 347.46082,426.69681 344.70809,427.78489 342.43896,429.961 C 340.16979,432.13718 339.03522,435.4944 339.03524,440.03267 C 339.03522,448.96048 342.92253,453.42438 350.69717,453.42436 C 353.37548,453.42438 355.98872,452.4107 358.53689,450.38333 C 361.08499,448.356 362.35906,444.90578 362.3591,440.03267 C 362.35906,435.4944 361.21519,432.13718 358.92748,429.961 C 356.6397,427.78489 353.89627,426.69681 350.69717,426.69678 L 350.69717,426.69678 z M 384.2322,438.5819 L 384.2322,426.91997 L 418.66001,426.91997 L 418.66001,438.5819 L 384.2322,438.5819 z M 446.78257,464.36091 L 446.78257,395.39369 L 435.23223,403.8193 L 435.23223,391.48778 L 446.78257,383.06218 L 458.4445,383.06218 L 458.4445,464.36091 L 446.78257,464.36091 z M 495.27166,405.66066 C 495.27165,409.49223 496.47132,412.39376 498.87068,414.36526 C 501.27,416.33686 503.95764,417.32264 506.93359,417.32259 C 509.9095,417.32264 512.59713,416.33686 514.99651,414.36526 C 517.39582,412.39376 518.59549,409.49223 518.59553,405.66066 C 518.59549,401.86641 517.39582,398.97418 514.99651,396.98396 C 512.59713,394.99387 509.9095,393.9988 506.93359,393.99873 C 503.95764,393.9988 501.27,394.99387 498.87068,396.98396 C 496.47132,398.97418 495.27165,401.86641 495.27166,405.66066 L 495.27166,405.66066 z M 482.15896,440.64646 C 482.15896,432.72307 485.35808,426.62242 491.75634,422.34448 C 489.33839,420.18697 487.37613,417.79693 485.86958,415.17434 C 484.36301,412.55185 483.60972,409.45503 483.60973,405.88385 C 483.60972,399.33687 485.85097,393.7756 490.33347,389.20004 C 494.81596,384.62462 500.34932,382.33688 506.93359,382.33679 C 513.51781,382.33688 519.05118,384.62462 523.53371,389.20004 C 528.01616,393.7756 530.25741,399.33687 530.25746,405.88385 C 530.25741,409.45503 529.49483,412.55185 527.96971,415.17434 C 526.4445,417.79693 524.51015,420.18697 522.16664,422.34448 C 528.52765,426.65962 531.70817,432.76027 531.70823,440.64646 C 531.70817,447.86311 529.26233,453.73127 524.37069,458.25095 C 519.47897,462.77065 513.66661,465.0305 506.93359,465.0305 C 500.16333,465.0305 494.34167,462.77065 489.46859,458.25095 C 484.5955,453.73127 482.15896,447.86311 482.15896,440.64646 L 482.15896,440.64646 z M 493.82089,440.53486 C 493.82088,444.25479 495.13215,447.33302 497.7547,449.76955 C 500.37722,452.2061 503.43685,453.42438 506.93359,453.42436 C 510.39308,453.42438 513.45271,452.2061 516.11248,449.76955 C 518.77218,447.33302 520.10205,444.25479 520.10209,440.53486 C 520.10205,436.81497 518.77218,433.72745 516.11248,431.27227 C 513.45271,428.81716 510.39308,427.58959 506.93359,427.58956 C 503.43685,427.58959 500.37722,428.81716 497.7547,431.27227 C 495.13215,433.72745 493.82088,436.81497 493.82089,440.53486 L 493.82089,440.53486 z "
       style="font-size:114.27577972px;font-style:normal;font-variant:normal;font-weight:normal;font-stretch:normal;text-align:center;line-height:100%;writing-mode:lr-tb;text-anchor:middle;fill:black;fill-opacity:1;stroke:none;stroke-width:1px;stroke-linecap:butt;stroke-linejoin:miter;stroke-opacity:1;font-family:DIN 1451 Mittelschrift"
       id="text1889" />
    <path
       d="M 585.21777,408.72413 C 587.1741,408.72419 589.01793,409.25059 590.74929,410.30334 C 592.48058,411.35619 593.72225,412.57891 594.47428,413.9715 C 595.22625,415.36418 595.69639,416.54959 595.88472,417.52772 C 596.07297,418.50594 596.16711,419.78492 596.16715,421.36465 L 596.16715,463.12314 L 585.33143,463.12314 L 585.33143,425.42546 C 585.33141,423.6207 584.91752,422.15401 584.08977,421.02539 C 583.26197,419.89686 581.94568,419.33257 580.1409,419.33252 C 578.5611,419.33257 577.26318,419.95311 576.24714,421.19416 C 575.23106,422.43529 574.72302,423.84572 574.72304,425.42546 L 574.72304,463.12314 L 563.88733,463.12314 L 563.88733,387.84489 L 574.72304,387.84489 L 574.72304,414.59319 C 577.2052,410.68054 580.70344,408.72419 585.21777,408.72413 L 585.21777,408.72413 z "
       style="font-size:112.86226654px;font-style:normal;font-variant:normal;font-weight:normal;font-stretch:normal;text-align:center;line-height:100%;writing-mode:lr-tb;text-anchor:middle;fill:black;fill-opacity:1;stroke:none;stroke-width:1px;stroke-linecap:butt;stroke-linejoin:miter;stroke-opacity:1;font-family:DIN 1451 Engschrift"
       id="text1965" />
  </g>
</svg>
