<?xml version="1.0" encoding="UTF-8" standalone="no"?>
<!-- Created with Inkscape (http://www.inkscape.org/) -->
<svg
   xmlns:dc="http://purl.org/dc/elements/1.1/"
   xmlns:cc="http://web.resource.org/cc/"
   xmlns:rdf="http://www.w3.org/1999/02/22-rdf-syntax-ns#"
   xmlns:svg="http://www.w3.org/2000/svg"
   xmlns="http://www.w3.org/2000/svg"
   xmlns:sodipodi="http://sodipodi.sourceforge.net/DTD/sodipodi-0.dtd"
   xmlns:inkscape="http://www.inkscape.org/namespaces/inkscape"
   version="1.0"
   width="490"
   height="360"
   id="svg2"
   sodipodi:version="0.32"
   inkscape:version="0.44"
   sodipodi:docname="Zusatzzeichen 1026-30.svg"
   sodipodi:docbase="C:\Dokumente und Einstellungen\Internet\Desktop\Wiki\SVG sonstiges (fertig)">
  <metadata
     id="metadata10">
    <rdf:RDF>
      <cc:Work
         rdf:about="">
        <dc:format>image/svg+xml</dc:format>
        <dc:type
           rdf:resource="http://purl.org/dc/dcmitype/StillImage" />
      </cc:Work>
    </rdf:RDF>
  </metadata>
  <sodipodi:namedview
     inkscape:window-height="749"
     inkscape:window-width="1024"
     inkscape:pageshadow="2"
     inkscape:pageopacity="0.0"
     guidetolerance="10.0"
     gridtolerance="10.0"
     objecttolerance="10.0"
     borderopacity="1.0"
     bordercolor="#666666"
     pagecolor="#ffffff"
     id="base"
     inkscape:zoom="0.74246212"
     inkscape:cx="245"
     inkscape:cy="153.85164"
     inkscape:window-x="-4"
     inkscape:window-y="-4"
     inkscape:current-layer="svg2"
     showguides="true"
     inkscape:guide-bbox="true" />
  <defs
     id="defs4" />
  <path
     d="M 38.78125,4.6190618 C 20.35689,4.6190483 9.96875,14.244672 9.96875,42.683954 L 9.65625,317.31604 C 9.65625,345.75531 20.04439,355.38094 38.46875,355.38094 L 451.21875,355.33878 C 469.64311,355.33878 480.03124,345.71316 480.03125,317.27389 L 480.34375,42.726108 C 480.34375,14.286826 469.95561,4.6612021 451.53125,4.6612156 L 38.78125,4.6190618 z "
     style="fill:white;fill-opacity:1;fill-rule:evenodd;stroke:black;stroke-width:3;stroke-linecap:butt;stroke-linejoin:miter;stroke-miterlimit:4;stroke-dasharray:none;stroke-opacity:1"
     id="path1881" />
  <path
     d="M 453.23342,19.074797 L 36.79782,19.117707 C 28.375505,19.117707 23.425891,27.356247 23.425891,39.539027 L 23.425891,320.50387 C 23.425891,332.68661 28.375515,340.9252 36.79782,340.9252 L 453.20218,340.88229 C 461.62449,340.88228 466.57411,332.64373 466.57411,320.46097 L 466.57411,39.496127 C 466.57411,27.313347 461.65573,19.074797 453.23342,19.074797 z "
     style="fill:none;fill-opacity:1;fill-rule:evenodd;stroke:black;stroke-width:12;stroke-linecap:butt;stroke-linejoin:miter;stroke-miterlimit:4;stroke-dasharray:none;stroke-opacity:1"
     id="path3976" />
  <g
     id="g5066"
     transform="translate(3.910219,-222.7929)">
    <path
       id="text1982"
       d="M 180.72256,518.83249 L 180.72256,475.82849 L 175.57971,475.82849 L 175.57971,467.99178 L 180.72256,467.99178 L 180.72256,461.28159 C 180.72255,456.54696 182.02867,453.06126 184.64092,450.82446 C 187.25314,448.5878 190.55109,447.46944 194.53478,447.46937 L 201.14701,447.46937 L 201.14701,457.06935 L 195.36743,457.06935 C 192.39599,457.06941 190.91028,458.47349 190.91029,461.28159 L 190.91029,467.99178 L 201.14701,467.99178 L 201.14701,475.82849 L 190.91029,475.82849 L 190.91029,518.83249 L 180.72256,518.83249 z M 206.92659,518.83249 L 206.92659,467.99178 L 217.1633,467.99178 L 217.1633,473.4285 L 217.35922,473.4285 C 220.52654,469.41223 224.93469,467.40407 230.58368,467.40402 C 234.30609,467.40407 237.84894,468.71019 241.21223,471.32238 L 233.81633,480.13869 C 231.59589,478.47343 229.34284,477.64078 227.05716,477.64074 C 224.54285,477.64078 222.26531,478.48159 220.22452,480.16318 C 218.18369,481.84485 217.16328,484.54688 217.1633,488.26929 L 217.1633,518.83249 L 206.92659,518.83249 z M 285.29378,497.28151 L 253.65303,497.28151 C 253.65301,501.46111 254.7877,504.5958 257.0571,506.68557 C 259.32646,508.77538 262.22441,509.82027 265.75096,509.82026 C 269.96317,509.82027 273.6856,508.18762 276.91828,504.92231 L 284.31419,511.24067 C 281.79986,514.17944 278.96722,516.27739 275.81625,517.53453 C 272.6652,518.79167 269.37541,519.42024 265.94688,519.42024 C 260.72238,519.42024 255.66117,517.73045 250.76324,514.35086 C 245.86528,510.97129 243.41631,504.05702 243.41631,493.60805 C 243.41631,483.71423 245.67753,476.87343 250.19997,473.08564 C 254.7224,469.29795 259.44891,467.40407 264.37953,467.40402 C 269.96317,467.40407 274.84478,469.33876 279.0244,473.20809 C 283.20394,477.07751 285.29373,482.29382 285.29378,488.85704 L 285.29378,497.28151 z M 253.65303,488.85704 L 275.10604,488.85704 C 274.94274,485.03667 273.86519,482.11423 271.8734,480.08971 C 269.88153,478.06527 267.38358,477.05302 264.37953,477.05298 C 261.34278,477.05302 258.82034,478.06527 256.8122,480.08971 C 254.80403,482.11423 253.75097,485.03667 253.65303,488.85704 L 253.65303,488.85704 z M 296.36314,518.83249 L 296.36314,467.99178 L 306.59986,467.99178 L 306.59986,518.83249 L 296.36314,518.83249 z M 296.36314,457.70608 L 296.36314,447.46937 L 306.59986,447.46937 L 306.59986,457.70608 L 296.36314,457.70608 z "
       style="font-size:100.30999756px;font-style:normal;font-variant:normal;font-weight:normal;font-stretch:normal;text-align:center;line-height:100%;writing-mode:lr-tb;text-anchor:middle;fill:black;fill-opacity:1;stroke:none;stroke-width:1px;stroke-linecap:butt;stroke-linejoin:miter;stroke-opacity:1;font-family:DIN 1451 Mittelschrift" />
    <path
       id="text1886"
       d="M 110.78646,411.23993 L 110.78646,303.13927 L 76.581732,303.13927 L 76.581732,286.33694 L 163.93667,286.33694 L 163.93667,303.13927 L 129.73194,303.13927 L 129.73194,411.23993 L 110.78646,411.23993 z M 166.19385,411.15421 L 211.80016,286.16549 L 227.40231,286.16549 L 273.00862,411.15421 L 253.12016,411.15421 L 243.51883,382.9503 L 196.11227,382.9503 L 186.16804,411.15421 L 166.19385,411.15421 z M 201.68447,366.23371 L 237.8609,366.23371 C 235.2319,358.51841 233.16019,352.47472 231.64576,348.10263 C 230.1312,343.73066 228.81673,339.8587 227.70236,336.48674 C 226.58786,333.11492 225.45913,329.68588 224.31617,326.1996 C 223.1731,322.71349 221.65861,317.99856 219.77269,312.05479 C 217.77236,318.22716 216.17214,323.15641 214.97202,326.84254 C 213.77181,330.52885 212.61451,334.08648 211.50011,337.51545 C 210.38563,340.94457 209.09974,344.77366 207.64244,349.00275 C 206.18505,353.23197 204.19907,358.97561 201.68447,366.23371 L 201.68447,366.23371 z M 351.99071,411.23993 L 324.64407,364.77636 L 297.2117,411.23993 L 275.86589,411.23993 L 314.09975,347.2025 L 278.26622,286.33694 L 299.69776,286.33694 L 324.64407,329.62864 L 349.50465,286.33694 L 370.93618,286.33694 L 335.10266,347.2025 L 373.42224,411.23993 L 351.99071,411.23993 z M 386.65236,411.23993 L 386.65236,286.33694 L 405.59783,286.33694 L 405.59783,411.23993 L 386.65236,411.23993 z "
       style="font-size:175.56713867px;font-style:normal;font-variant:normal;font-weight:normal;font-stretch:normal;text-align:center;line-height:100%;letter-spacing:2px;writing-mode:lr-tb;text-anchor:middle;fill:black;fill-opacity:1;stroke:none;stroke-width:1px;stroke-linecap:butt;stroke-linejoin:miter;stroke-opacity:1;font-family:DIN 1451 Mittelschrift" />
  </g>
</svg>
