<?xml version="1.0" encoding="UTF-8" standalone="no"?>
<!-- Created with Inkscape (http://www.inkscape.org/) -->
<svg
   xmlns:svg="http://www.w3.org/2000/svg"
   xmlns="http://www.w3.org/2000/svg"
   version="1.0"
   width="490"
   height="270"
   id="svg2">
  <defs
     id="defs4" />
  <path
     d="M 38.78125,4.984375 C 20.356889,4.9843748 9.96875,12.12016 9.96875,33.203125 L 9.65625,236.79688 C 9.65625,257.87984 20.044391,265.01563 38.46875,265.01563 L 451.21875,264.98438 C 469.64311,264.98438 480.03124,257.84859 480.03125,236.76563 L 480.34375,33.234375 C 480.34375,12.15141 469.95561,5.0156248 451.53125,5.015625 L 38.78125,4.984375 z "
     style="fill:white;fill-opacity:1;fill-rule:evenodd;stroke:black;stroke-width:2;stroke-linecap:butt;stroke-linejoin:miter;stroke-miterlimit:4;stroke-dasharray:none;stroke-opacity:1"
     id="path1881" />
  <path
     d="M 453.3125,17.796875 L 36.78125,17.828125 C 28.356999,17.828125 23.40625,23.829135 23.40625,32.703125 L 23.40625,237.35938 C 23.406249,246.23335 28.35701,252.23438 36.78125,252.23438 L 453.28125,252.20313 C 461.70549,252.20312 466.65625,246.20211 466.65625,237.32813 L 466.65625,32.671875 C 466.65625,23.797885 461.73674,17.796875 453.3125,17.796875 z "
     style="fill:none;fill-opacity:1;fill-rule:evenodd;stroke:black;stroke-width:10.05090809;stroke-linecap:butt;stroke-linejoin:miter;stroke-miterlimit:4;stroke-dasharray:none;stroke-opacity:1"
     id="path3976" />
  <path
     d="M 67.12418,120.39301 L 92.898369,49.75623 L 101.71586,49.75623 L 127.49004,120.39301 L 116.25017,120.39301 L 110.82403,104.45371 L 84.032436,104.45371 L 78.4125,120.39301 L 67.12418,120.39301 z M 87.181538,95.00641 L 107.62648,95.00641 C 106.14071,90.64614 104.96989,87.23058 104.11402,84.75971 C 103.25807,82.28892 102.51521,80.1007 101.88542,78.19505 C 101.25557,76.28948 100.61767,74.35157 99.971737,72.38132 C 99.325735,70.41116 98.469826,67.74654 97.404008,64.38744 C 96.273531,67.87573 95.369175,70.66147 94.690935,72.74468 C 94.01264,74.82797 93.358596,76.83855 92.728802,78.77642 C 92.098957,80.71437 91.372242,82.87836 90.548655,85.26841 C 89.725021,87.65853 88.602649,90.90453 87.181538,95.00641 L 87.181538,95.00641 z M 135.48392,120.44146 L 135.48392,70.15272 L 145.60949,70.15272 L 145.60949,75.53042 L 145.80329,75.53042 C 148.93622,71.55776 153.29651,69.5714 158.88417,69.57135 C 162.79225,69.5714 166.5631,71.05713 170.19671,74.02854 C 173.83025,77.00005 175.64704,81.32804 175.64708,87.01253 L 175.64708,120.44146 L 165.52151,120.44146 L 165.52151,90.50077 C 165.52147,87.10946 164.57674,84.46099 162.68732,82.55534 C 160.79782,80.64977 158.44811,79.69697 155.63817,79.69692 C 152.73129,79.69697 150.33313,80.64977 148.44369,82.55534 C 146.55421,84.46099 145.60948,87.10946 145.60949,90.50077 L 145.60949,120.44146 L 135.48392,120.44146 z M 188.77642,108.28108 L 188.77642,49.85313 L 198.90199,49.85313 L 198.90199,107.45747 C 198.90197,109.78297 200.16161,110.94572 202.68091,110.94571 L 206.1207,110.94571 L 206.1207,120.44146 L 201.66351,120.44146 C 197.98147,120.44146 194.91312,119.54518 192.45844,117.75261 C 190.00375,115.96005 188.77641,112.80288 188.77642,108.28108 L 188.77642,108.28108 z M 214.64751,120.44146 L 214.64751,70.15272 L 224.77308,70.15272 L 224.77308,120.44146 L 214.64751,120.44146 z M 214.64751,59.9787 L 214.64751,49.85313 L 224.77308,49.85313 L 224.77308,59.9787 L 214.64751,59.9787 z M 277.14507,99.12446 L 245.84784,99.12446 C 245.84782,103.25868 246.97019,106.35934 249.21495,108.42643 C 251.45968,110.49354 254.32617,111.52709 257.81442,111.52708 C 261.9809,111.52709 265.66292,109.91217 268.86051,106.68231 L 276.17611,112.93206 C 273.68909,115.83893 270.8872,117.91411 267.77043,119.1576 C 264.65359,120.40109 261.39953,121.02283 258.00821,121.02283 C 252.84044,121.02283 247.83418,119.35139 242.98942,116.00849 C 238.14464,112.66561 235.72226,105.82641 235.72226,95.49088 C 235.72226,85.70448 237.95893,78.93795 242.43227,75.19129 C 246.9056,71.44471 251.5808,69.5714 256.45789,69.57135 C 261.9809,69.5714 266.80952,71.48508 270.94376,75.31241 C 275.07792,79.13982 277.14502,84.29949 277.14507,90.79145 L 277.14507,99.12446 z M 245.84784,90.79145 L 267.06794,90.79145 C 266.90641,87.01256 265.84056,84.12185 263.87039,82.11931 C 261.90015,80.11685 259.42932,79.11559 256.45789,79.11555 C 253.45411,79.11559 250.95905,80.11685 248.97271,82.11931 C 246.98634,84.12185 245.94472,87.01256 245.84784,90.79145 L 245.84784,90.79145 z M 316.04859,120.39301 L 316.04859,115.20911 C 312.52803,119.08493 308.20003,121.02283 303.0646,121.02283 C 299.77014,121.02283 297.0167,120.36879 294.80427,119.0607 C 292.59181,117.75261 290.92036,116.37186 289.78993,114.91842 C 288.33649,113.04512 287.34331,111.05876 286.81039,108.95935 C 286.27746,106.85996 286.011,102.32203 286.011,95.34554 C 286.011,88.3691 286.27746,83.83117 286.81039,81.73173 C 287.34331,79.63237 288.33649,77.62986 289.78993,75.72421 C 290.92036,74.30312 292.59181,72.92237 294.80427,71.58193 C 297.0167,70.24159 299.77014,69.5714 303.0646,69.57135 C 307.97394,69.5714 312.30194,71.55776 316.04859,75.53042 L 316.04859,70.15272 L 326.17417,70.15272 L 326.17417,119.27872 C 326.17412,126.83655 323.96975,132.40804 319.56105,135.99318 C 315.15228,139.57829 310.08949,141.37086 304.37269,141.37088 C 301.14282,141.37086 297.97757,140.59569 294.87694,139.04539 C 291.77627,137.49504 289.11165,135.46024 286.88306,132.94097 L 294.73159,126.69122 C 295.95892,127.91855 297.42043,128.9844 299.11611,129.88877 C 300.81176,130.79311 302.62855,131.24529 304.56648,131.2453 C 307.9255,131.24529 310.67894,130.30864 312.82682,128.43534 C 314.97463,126.56202 316.04856,123.88125 316.04859,120.39301 L 316.04859,120.39301 z M 296.13658,95.34554 C 296.13656,99.38287 296.24153,102.06364 296.45149,103.38786 C 296.66141,104.71212 297.21856,105.93946 298.12293,107.06989 C 298.80118,107.97426 299.80244,108.84632 301.12669,109.68607 C 302.45091,110.52584 304.13043,110.94572 306.16526,110.94571 C 308.13544,110.94572 309.77458,110.52584 311.0827,109.68607 C 312.39076,108.84632 313.40008,107.97426 314.11068,107.06989 C 314.98271,105.93946 315.52371,104.71212 315.73368,103.38786 C 315.94359,102.06364 316.04856,99.38287 316.04859,95.34554 C 316.04856,91.30826 315.94359,88.62749 315.73368,87.30322 C 315.52371,85.97901 314.98271,84.73552 314.11068,83.57274 C 313.40008,82.70072 312.39076,81.83674 311.0827,80.98079 C 309.77458,80.12492 308.13544,79.69697 306.16526,79.69692 C 304.13043,79.69697 302.45091,80.12492 301.12669,80.98079 C 299.80244,81.83674 298.80118,82.70072 298.12293,83.57274 C 297.21856,84.73552 296.66141,85.97901 296.45149,87.30322 C 296.24153,88.62749 296.13656,91.30826 296.13658,95.34554 L 296.13658,95.34554 z M 378.30391,99.12446 L 347.00668,99.12446 C 347.00667,103.25868 348.12904,106.35934 350.3738,108.42643 C 352.61852,110.49354 355.48501,111.52709 358.97327,111.52708 C 363.13974,111.52709 366.82177,109.91217 370.01935,106.68231 L 377.33496,112.93206 C 374.84793,115.83893 372.04604,117.91411 368.92928,119.1576 C 365.81244,120.40109 362.55837,121.02283 359.16706,121.02283 C 353.99928,121.02283 348.99302,119.35139 344.14826,116.00849 C 339.30349,112.66561 336.8811,105.82641 336.88111,95.49088 C 336.8811,85.70448 339.11777,78.93795 343.59112,75.19129 C 348.06444,71.44471 352.73964,69.5714 357.61673,69.57135 C 363.13974,69.5714 367.96836,71.48508 372.1026,75.31241 C 376.23676,79.13982 378.30386,84.29949 378.30391,90.79145 L 378.30391,99.12446 z M 347.00668,90.79145 L 368.22678,90.79145 C 368.06526,87.01256 366.99941,84.12185 365.02923,82.11931 C 363.059,80.11685 360.58816,79.11559 357.61673,79.11555 C 354.61295,79.11559 352.1179,80.11685 350.13156,82.11931 C 348.14519,84.12185 347.10356,87.01256 347.00668,90.79145 L 347.00668,90.79145 z M 388.96241,120.44146 L 388.96241,70.15272 L 399.08799,70.15272 L 399.08799,75.53042 L 399.28178,75.53042 C 402.41471,71.55776 406.775,69.5714 412.36266,69.57135 C 416.04466,69.5714 419.54904,70.86334 422.87582,73.44717 L 415.56021,82.16776 C 413.36389,80.52058 411.13529,79.69697 408.87443,79.69692 C 406.38742,79.69697 404.1346,80.52865 402.11597,82.19198 C 400.0973,83.85539 399.08797,86.52809 399.08799,90.21008 L 399.08799,120.44146 L 388.96241,120.44146 z M 182.42976,219.6624 L 182.42976,177.1253 L 177.34275,177.1253 L 177.34275,169.37366 L 182.42976,169.37366 L 182.42976,162.73632 C 182.42976,158.05311 183.72169,154.60525 186.30558,152.39273 C 188.88945,150.18036 192.15159,149.07414 196.09202,149.07407 L 202.63247,149.07407 L 202.63247,158.56982 L 196.91563,158.56982 C 193.97645,158.56988 192.50687,159.95871 192.50689,162.73632 L 192.50689,169.37366 L 202.63247,169.37366 L 202.63247,177.1253 L 192.50689,177.1253 L 192.50689,219.6624 L 182.42976,219.6624 z M 208.3493,219.6624 L 208.3493,169.37366 L 218.47487,169.37366 L 218.47487,174.75136 L 218.66866,174.75136 C 221.80159,170.7787 226.16188,168.79234 231.74955,168.79229 C 235.43154,168.79234 238.93592,170.08428 242.2627,172.66811 L 234.9471,181.3887 C 232.75077,179.74152 230.52218,178.9179 228.26131,178.91786 C 225.7743,178.9179 223.52149,179.74959 221.50285,181.41292 C 219.48418,183.07633 218.47485,185.74903 218.47487,189.43102 L 218.47487,219.6624 L 208.3493,219.6624 z M 285.86565,198.3454 L 254.56842,198.3454 C 254.56841,202.47962 255.69078,205.58028 257.93554,207.64736 C 260.18027,209.71448 263.04675,210.74803 266.53501,210.74802 C 270.70149,210.74803 274.38351,209.13311 277.58109,205.90325 L 284.8967,212.153 C 282.40967,215.05987 279.60778,217.13505 276.49102,218.37854 C 273.37418,219.62203 270.12011,220.24377 266.7288,220.24377 C 261.56102,220.24377 256.55476,218.57233 251.71001,215.22943 C 246.86523,211.88655 244.44285,205.04735 244.44285,194.71182 C 244.44285,184.92542 246.67951,178.15889 251.15286,174.41223 C 255.62618,170.66565 260.30139,168.79234 265.17848,168.79229 C 270.70149,168.79234 275.5301,170.70602 279.66435,174.53335 C 283.79851,178.36076 285.86561,183.52043 285.86565,190.01239 L 285.86565,198.3454 z M 254.56842,190.01239 L 275.78853,190.01239 C 275.627,186.2335 274.56115,183.34279 272.59098,181.34025 C 270.62074,179.33778 268.14991,178.33653 265.17848,178.33649 C 262.1747,178.33653 259.67964,179.33778 257.6933,181.34025 C 255.70693,183.34279 254.66531,186.2335 254.56842,190.01239 L 254.56842,190.01239 z M 296.81484,219.6624 L 296.81484,169.37366 L 306.94041,169.37366 L 306.94041,219.6624 L 296.81484,219.6624 z M 296.81484,159.19964 L 296.81484,149.07407 L 306.94041,149.07407 L 306.94041,159.19964 L 296.81484,159.19964 z "
     style="font-size:99.22093964px;font-style:normal;font-variant:normal;font-weight:normal;font-stretch:normal;text-align:center;line-height:100%;writing-mode:lr-tb;text-anchor:middle;fill:black;fill-opacity:1;stroke:none;stroke-width:1px;stroke-linecap:butt;stroke-linejoin:miter;stroke-opacity:1;font-family:DIN 1451 Mittelschrift"
     id="text3933" />
</svg>
