<?xml version="1.0" encoding="UTF-8" standalone="no"?>
<!-- Created with Inkscape (http://www.inkscape.org/) -->
<svg
   xmlns:dc="http://purl.org/dc/elements/1.1/"
   xmlns:cc="http://web.resource.org/cc/"
   xmlns:rdf="http://www.w3.org/1999/02/22-rdf-syntax-ns#"
   xmlns:svg="http://www.w3.org/2000/svg"
   xmlns="http://www.w3.org/2000/svg"
   xmlns:sodipodi="http://sodipodi.sourceforge.net/DTD/sodipodi-0.dtd"
   xmlns:inkscape="http://www.inkscape.org/namespaces/inkscape"
   version="1.0"
   width="490"
   height="360"
   id="svg2"
   sodipodi:version="0.32"
   inkscape:version="0.44"
   sodipodi:docname="Zusatzzeichen 1026-36.svg"
   sodipodi:docbase="C:\Dokumente und Einstellungen\Internet\Desktop\Wiki\SVG sonstiges (fertig)">
  <metadata
     id="metadata10">
    <rdf:RDF>
      <cc:Work
         rdf:about="">
        <dc:format>image/svg+xml</dc:format>
        <dc:type
           rdf:resource="http://purl.org/dc/dcmitype/StillImage" />
      </cc:Work>
    </rdf:RDF>
  </metadata>
  <sodipodi:namedview
     inkscape:window-height="749"
     inkscape:window-width="1024"
     inkscape:pageshadow="2"
     inkscape:pageopacity="0.0"
     guidetolerance="10.0"
     gridtolerance="10.0"
     objecttolerance="10.0"
     borderopacity="1.0"
     bordercolor="#666666"
     pagecolor="#ffffff"
     id="base"
     inkscape:zoom="0.74246212"
     inkscape:cx="245"
     inkscape:cy="56.694665"
     inkscape:window-x="-4"
     inkscape:window-y="-4"
     inkscape:current-layer="svg2"
     showguides="true"
     inkscape:guide-bbox="true" />
  <defs
     id="defs4" />
  <path
     d="M 38.78125,4.6190618 C 20.35689,4.6190483 9.96875,14.244672 9.96875,42.683954 L 9.65625,317.31604 C 9.65625,345.75531 20.04439,355.38094 38.46875,355.38094 L 451.21875,355.33878 C 469.64311,355.33878 480.03124,345.71316 480.03125,317.27389 L 480.34375,42.726108 C 480.34375,14.286826 469.95561,4.6612021 451.53125,4.6612156 L 38.78125,4.6190618 z "
     style="fill:white;fill-opacity:1;fill-rule:evenodd;stroke:black;stroke-width:3;stroke-linecap:butt;stroke-linejoin:miter;stroke-miterlimit:4;stroke-dasharray:none;stroke-opacity:1"
     id="path1881" />
  <path
     d="M 453.23342,19.074797 L 36.79782,19.117707 C 28.375505,19.117707 23.425891,27.356247 23.425891,39.539027 L 23.425891,320.50387 C 23.425891,332.68661 28.375515,340.9252 36.79782,340.9252 L 453.20218,340.88229 C 461.62449,340.88228 466.57411,332.64373 466.57411,320.46097 L 466.57411,39.496127 C 466.57411,27.313347 461.65573,19.074797 453.23342,19.074797 z "
     style="fill:none;fill-opacity:1;fill-rule:evenodd;stroke:black;stroke-width:12;stroke-linecap:butt;stroke-linejoin:miter;stroke-miterlimit:4;stroke-dasharray:none;stroke-opacity:1"
     id="path3976" />
  <g
     id="g4007"
     transform="translate(178.0324,-330.0984)">
    <path
       id="text2001"
       style="font-size:94.86149597px;font-style:normal;font-variant:normal;font-weight:normal;font-stretch:normal;text-align:center;line-height:100%;writing-mode:lr-tb;text-anchor:middle;fill:black;fill-opacity:1;stroke:none;stroke-width:1px;stroke-linecap:butt;stroke-linejoin:miter;stroke-opacity:1;font-family:DIN 1451 Engschrift"
       d="M -43.60527,449.35091 L -70.54561,449.35091 L -70.54561,386.07904 L -61.53365,386.07904 L -61.53365,440.24342 L -43.60527,440.24342 L -43.60527,449.35091 z M -37.39851,444.609 C -37.8424,443.8486 -38.12755,443.01003 -38.25396,442.09329 C -38.38038,441.17657 -38.44358,440.14886 -38.44358,439.01018 L -38.44358,433.88902 C -38.44358,430.5367 -37.6055,428.03836 -35.92932,426.39401 C -34.25316,424.74971 -32.73525,423.62744 -31.37558,423.0272 C -30.01593,422.427 -28.38753,422.12689 -26.49036,422.12687 L -20.41967,422.12687 L -20.41967,418.23606 C -20.41969,417.35024 -20.46697,416.62313 -20.56152,416.05472 C -20.65611,415.48638 -21.05127,414.75927 -21.747,413.87338 C -22.44277,412.98757 -23.39183,412.54464 -24.59417,412.54461 C -25.85831,412.54464 -26.9333,412.95572 -27.81914,413.77785 C -28.70501,414.60005 -29.2425,415.67504 -29.43162,417.00282 L -38.44358,417.00282 C -38.44358,413.33593 -37.13121,410.19009 -34.50646,407.5653 C -31.88172,404.9406 -28.70404,403.62823 -24.97341,403.62818 C -21.30457,403.62823 -18.11049,404.92468 -15.39115,407.51754 C -12.67186,410.11048 -11.31221,413.27224 -11.31217,417.00282 L -11.31217,449.35091 L -20.41967,449.35091 L -20.41967,444.79717 C -21.3673,446.37781 -22.55278,447.62698 -23.9761,448.54467 C -25.39947,449.46237 -26.99699,449.92122 -28.76868,449.92122 C -32.75213,449.92122 -35.62874,448.15048 -37.39851,444.609 L -37.39851,444.609 z M -29.33609,433.79349 L -29.33609,436.06891 C -29.3361,437.27129 -28.9091,438.36268 -28.05508,439.34309 C -27.20108,440.32352 -26.0793,440.81373 -24.68971,440.81373 C -23.92932,440.81373 -23.21716,440.62412 -22.55324,440.24487 C -21.88935,439.86564 -21.3837,439.34407 -21.03629,438.68015 C -20.68892,438.01626 -20.4993,437.16225 -20.46743,436.11813 C -20.43561,435.07403 -20.41969,434.331 -20.41967,433.88902 L -20.41967,429.52345 L -23.8357,429.52345 C -25.48004,429.52347 -26.80786,429.83998 -27.81914,430.47299 C -28.83045,431.10603 -29.3361,432.21287 -29.33609,433.79349 L -29.33609,433.79349 z M 22.29812,408.27457 C 22.80566,409.03501 23.15402,409.95271 23.34319,411.02765 C 23.53229,412.10268 23.62686,413.17767 23.62689,414.25262 L 23.62689,449.35091 L 14.5194,449.35091 L 14.5194,417.57312 C 14.51938,414.22081 13.03331,412.54464 10.06119,412.54461 C 8.73336,412.54464 7.65837,413.05077 6.83622,414.063 C 6.01405,415.0753 5.60297,416.24534 5.60298,417.57312 L 5.60298,449.35091 L -3.50451,449.35091 L -3.50451,404.19559 L 5.60298,404.19559 L 5.60298,408.56116 C 7.62749,405.27255 10.44234,403.62823 14.04753,403.62818 C 17.71443,403.62823 20.46462,405.17702 22.29812,408.27457 L 22.29812,408.27457 z M 49.34846,449.35091 L 49.34846,444.70163 C 48.46259,446.22052 47.29255,447.47017 45.83834,448.45059 C 44.3841,449.43101 42.77113,449.92122 40.99944,449.92122 C 36.88861,449.92122 34.29571,448.79846 33.22073,446.55295 C 32.14574,444.30744 31.56096,442.69448 31.4664,441.71405 C 31.37182,440.73364 31.32454,439.42127 31.32454,437.77693 L 31.32454,413.39861 C 31.32454,410.67934 32.24127,408.3711 34.07474,406.47391 C 35.90819,404.5768 38.21643,403.62823 40.99944,403.62818 C 42.70744,403.62823 44.30449,404.07067 45.79057,404.95551 C 47.27662,405.84044 48.46259,407.01048 49.34846,408.46563 L 49.34846,386.07904 L 58.45595,386.07904 L 58.45595,449.35091 L 49.34846,449.35091 z M 48.68262,414.72739 C 47.79868,413.20855 46.50271,412.44911 44.79471,412.44907 C 43.90884,412.44911 43.1026,412.68649 42.37599,413.16123 C 41.64934,413.63603 41.15913,414.20537 40.90536,414.86924 C 40.65155,415.53319 40.50922,416.22894 40.47835,416.9565 C 40.44746,417.68413 40.43202,418.23706 40.43203,418.6153 L 40.43203,434.83567 C 40.43202,435.46871 40.44746,436.10174 40.47835,436.73475 C 40.50922,437.36779 40.80933,438.18995 41.37868,439.20124 C 41.948,440.21255 43.11853,440.7182 44.89025,440.71819 C 46.72369,440.7182 47.92509,440.21255 48.49445,439.20124 C 49.06377,438.18995 49.34844,437.17769 49.34846,436.16445 L 49.34846,434.83567 L 49.34846,418.6153 C 49.34844,417.98231 49.33251,417.33384 49.30069,416.6699 C 49.26883,416.00603 49.0628,415.35852 48.68262,414.72739 L 48.68262,414.72739 z M 91.58279,449.35091 L 86.46163,422.21951 L 81.33758,449.35091 L 73.46623,449.35091 L 62.65073,404.19559 L 72.23299,404.19559 L 77.92445,432.27654 L 83.0456,404.19559 L 89.6866,404.19559 L 94.90329,432.27654 L 100.50211,404.19559 L 110.08147,404.19559 L 99.3615,449.35091 L 91.58279,449.35091 z M 114.2415,449.35091 L 114.2415,404.19559 L 123.34899,404.19559 L 123.34899,449.35091 L 114.2415,449.35091 z M 114.2415,394.99546 L 114.2415,386.07904 L 123.34899,386.07904 L 123.34899,394.99546 L 114.2415,394.99546 z M 152.15657,403.62818 L 152.15657,412.92384 C 151.71459,412.79843 151.27214,412.70386 150.82924,412.64014 C 150.38629,412.57649 149.97473,412.54464 149.59455,412.54461 C 146.62239,412.54464 144.346,413.55642 142.76538,415.57995 C 141.18472,417.60355 140.39441,420.03868 140.39442,422.88534 L 140.39442,449.35091 L 131.28693,449.35091 L 131.28693,404.19559 L 140.39442,404.19559 L 140.39442,409.03593 C 141.97504,407.07513 143.91948,405.68363 146.22773,404.86143 C 148.53594,404.03931 150.51222,403.62823 152.15657,403.62818 L 152.15657,403.62818 z M 171.34715,440.71819 L 173.43441,440.71819 L 173.43441,449.35091 L 170.58868,449.35091 C 168.88065,449.35091 167.36273,449.17722 166.03493,448.82982 C 164.70711,448.48243 163.41066,447.77076 162.14558,446.6948 C 160.88048,445.61885 159.99511,444.43289 159.48947,443.13692 C 158.98381,441.84096 158.73099,440.2444 158.73099,438.34723 L 158.73099,411.31136 L 154.27278,411.31136 L 154.27278,404.19559 L 158.73099,404.19559 L 158.73099,390.53725 L 167.83848,390.53725 L 167.83848,404.19559 L 173.43441,404.19559 L 173.43441,411.31136 L 167.83848,411.31136 L 167.83848,436.73475 C 167.83847,438.25171 168.04401,439.29486 168.45511,439.86418 C 168.86617,440.43353 169.83019,440.7182 171.34715,440.71819 L 171.34715,440.71819 z M 181.0539,428.95604 L 181.0539,419.94408 L 208.08977,419.94408 L 208.08977,428.95604 L 181.0539,428.95604 z " />
    <path
       id="path3999"
       style="font-size:94.86100006px;font-style:normal;font-variant:normal;font-weight:normal;font-stretch:normal;text-align:center;line-height:100%;writing-mode:lr-tb;text-anchor:middle;fill:black;fill-opacity:1;stroke:none;stroke-width:1px;stroke-linecap:butt;stroke-linejoin:miter;stroke-opacity:1;font-family:DIN 1451 Engschrift"
       d="M -88.281728,533.99694 C -86.89025,533.99694 -85.688856,533.5545 -84.677543,532.66961 C -83.666268,531.78474 -83.160621,530.64655 -83.160601,529.25504 C -83.160621,527.61074 -83.58714,526.39342 -84.440159,525.60309 C -85.293216,524.81279 -86.637426,524.10113 -88.472794,523.46808 L -90.273439,522.80514 C -92.170593,522.10845 -93.751705,521.42814 -95.016778,520.76422 C -96.281869,520.10034 -97.641519,518.89895 -99.095732,517.16004 C -100.54995,515.42118 -101.27706,512.90742 -101.27706,509.61875 C -101.27706,505.88819 -99.980619,502.72645 -97.387724,500.13352 C -94.794843,497.54067 -91.601258,496.24423 -87.80696,496.24418 C -84.329206,496.24423 -81.388927,497.57203 -78.986115,500.2276 C -76.58335,502.88325 -75.38196,505.88722 -75.38193,509.23951 L -83.728007,509.23951 C -83.728027,507.91174 -84.155028,506.82084 -85.009012,505.9668 C -85.863034,505.11283 -86.985782,504.68583 -88.377261,504.68579 C -89.641394,504.68583 -90.684532,505.16011 -91.506678,506.10865 C -92.328849,507.05725 -92.739928,508.19544 -92.739917,509.52322 C -92.739928,510.91474 -92.328849,511.99021 -91.506678,512.74961 C -90.684532,513.50908 -89.483138,514.17346 -87.902493,514.74277 L -84.961246,515.68941 C -83.253259,516.32246 -81.909531,516.92364 -80.930059,517.49295 C -79.950632,518.06231 -78.9707,518.91583 -77.990259,520.05352 C -77.00987,521.19124 -76.20315,522.51905 -75.5701,524.03694 C -74.9371,525.55486 -74.62059,527.16782 -74.62056,528.87581 C -74.62059,532.54466 -75.93296,535.75416 -78.557665,538.50434 C -81.182423,541.25452 -84.329206,542.62961 -87.998025,542.62961 C -90.211694,542.62961 -92.440786,542.02891 -94.685309,540.82752 C -96.92985,539.62613 -98.668735,537.99773 -99.901969,535.94233 C -101.13521,533.88694 -101.75183,531.56328 -101.75183,528.97134 L -93.310218,528.97134 C -93.310229,530.36285 -92.820021,531.54832 -91.839595,532.52776 C -90.859192,533.50722 -89.673238,533.99694 -88.281728,533.99694 L -88.281728,533.99694 z M -42.17132,528.97134 C -42.17135,532.70195 -43.531,535.89553 -46.25027,538.55211 C -48.9696,541.20869 -52.19551,542.53697 -55.92801,542.53697 C -57.95062,542.53697 -59.95825,542.01492 -61.95091,540.97082 C -63.9436,539.92672 -65.44558,538.67756 -66.45687,537.22333 C -67.46817,535.76912 -68.17935,534.28306 -68.59043,532.76514 C -69.00151,531.24725 -69.20705,529.69798 -69.20705,528.11734 L -69.20705,510.47275 C -69.20705,506.74219 -67.92653,503.43812 -65.36548,500.56052 C -62.80444,497.683 -59.62678,496.24423 -55.83248,496.24418 C -51.91084,496.24423 -48.65357,497.63524 -46.06065,500.41722 C -43.46779,503.19928 -42.17135,506.55112 -42.17132,510.47275 L -51.18323,510.47275 C -51.18325,509.08129 -51.57841,507.84805 -52.3687,506.77303 C -53.15903,505.69809 -54.24994,505.1606 -55.64142,505.16056 C -56.46359,505.1606 -57.17526,505.33429 -57.77643,505.68165 C -58.37762,506.02907 -58.91511,506.56656 -59.3889,507.29412 C -59.86272,508.02175 -60.09962,509.08129 -60.0996,510.47275 L -60.0996,528.11734 C -60.09962,529.76167 -59.75174,531.05811 -59.05598,532.00667 C -58.36025,532.95525 -57.19118,533.42954 -55.54878,533.42953 C -54.21906,533.42954 -53.15903,532.93933 -52.3687,531.95891 C -51.57841,530.9785 -51.18325,529.79255 -51.18323,528.40104 L -42.17132,528.40104 L -42.17132,528.97134 z M -18.00736,496.24418 C -16.36306,496.24423 -14.81331,496.68667 -13.3581,497.57151 C -11.90295,498.45643 -10.85932,499.48413 -10.22724,500.6546 C -9.59521,501.82516 -9.20005,502.8215 -9.04176,503.64362 C -8.88354,504.46581 -8.80441,505.5408 -8.80438,506.86857 L -8.80438,541.96667 L -17.91182,541.96667 L -17.91182,510.28169 C -17.91184,508.76478 -18.25972,507.53202 -18.95544,506.58342 C -19.65121,505.63488 -20.75756,505.1606 -22.27448,505.16056 C -23.6023,505.1606 -24.69321,505.68216 -25.5472,506.72527 C -26.40121,507.76844 -26.82821,508.95391 -26.8282,510.28169 L -26.8282,541.96667 L -35.93564,541.96667 L -35.93564,478.69513 L -26.8282,478.69513 L -26.8282,501.17714 C -24.74194,497.88854 -21.80166,496.24423 -18.00736,496.24418 L -18.00736,496.24418 z M -0.44672,537.22478 C -0.89062,536.46439 -1.17577,535.62582 -1.30217,534.70909 C -1.42859,533.79237 -1.4918,532.76467 -1.49179,531.62599 L -1.49179,526.50486 C -1.4918,523.15256 -0.65371,520.65423 1.02245,519.00989 C 2.69861,517.3656 4.21651,516.24333 5.57617,515.64309 C 6.93581,515.0429 8.56421,514.7428 10.46137,514.74277 L 16.53203,514.74277 L 16.53203,510.85199 C 16.53201,509.96617 16.48472,509.23906 16.39018,508.67066 C 16.29559,508.10232 15.90043,507.37521 15.20471,506.48933 C 14.50894,505.60352 13.55989,505.1606 12.35754,505.16056 C 11.09341,505.1606 10.01843,505.57168 9.13259,506.3938 C 8.24673,507.21599 7.70924,508.29097 7.52012,509.61875 L -1.49179,509.61875 C -1.4918,505.95188 -0.17943,502.80606 2.44531,500.18128 C 5.07004,497.55659 8.2477,496.24423 11.97831,496.24418 C 15.64713,496.24423 18.84119,497.54067 21.56052,500.13352 C 24.27979,502.72645 25.63944,505.88819 25.63947,509.61875 L 25.63947,541.96667 L 16.53203,541.96667 L 16.53203,537.41295 C 15.5844,538.99359 14.39893,540.24275 12.97561,541.16044 C 11.55225,542.07813 9.95474,542.53697 8.18306,542.53697 C 4.19963,542.53697 1.32304,540.76624 -0.44672,537.22478 L -0.44672,537.22478 z M 7.61565,526.40933 L 7.61565,528.68474 C 7.61564,529.88712 8.04264,530.9785 8.89666,531.95891 C 9.75065,532.93933 10.87243,533.42954 12.26201,533.42953 C 13.02239,533.42954 13.73455,533.23992 14.39847,532.86068 C 15.06235,532.48145 15.568,531.95988 15.91541,531.29597 C 16.26278,530.63208 16.4524,529.77807 16.48426,528.73396 C 16.51609,527.68987 16.53201,526.94684 16.53203,526.50486 L 16.53203,522.13931 L 13.11601,522.13931 C 11.47168,522.13933 10.14387,522.45584 9.13259,523.08885 C 8.12129,523.72189 7.61564,524.82872 7.61565,526.40933 L 7.61565,526.40933 z M 35.53434,541.96667 L 35.53434,504.02285 L 31.07616,504.02285 L 31.07616,496.81159 L 35.53434,496.81159 L 35.53434,490.55275 C 35.53434,487.01135 36.4197,484.38661 38.19044,482.67855 C 39.96116,480.9706 41.60548,479.8797 43.1234,479.40583 C 44.64129,478.93209 46.31793,478.69519 48.15334,478.69513 L 51.28275,478.69513 L 51.28275,487.0412 L 47.96227,487.0412 C 45.7486,487.04126 44.64177,488.21177 44.64179,490.55275 L 44.64179,496.81159 L 51.28275,496.81159 L 51.28275,504.02285 L 44.64179,504.02285 L 44.64179,541.96667 L 35.53434,541.96667 z M 69.34131,533.334 L 71.42856,533.334 L 71.42856,541.96667 L 68.58284,541.96667 C 66.87482,541.96667 65.35692,541.79298 64.02912,541.44559 C 62.7013,541.0982 61.40486,540.38653 60.13979,539.31058 C 58.8747,538.23463 57.98933,537.04868 57.48369,535.75271 C 56.97804,534.45676 56.72521,532.8602 56.72522,530.96305 L 56.72522,503.92732 L 52.26703,503.92732 L 52.26703,496.81159 L 56.72522,496.81159 L 56.72522,483.15332 L 65.83266,483.15332 L 65.83266,496.81159 L 71.42856,496.81159 L 71.42856,503.92732 L 65.83266,503.92732 L 65.83266,529.35058 C 65.83265,530.86753 66.03819,531.91067 66.44928,532.47999 C 66.86035,533.04934 67.82436,533.33401 69.34131,533.334 L 69.34131,533.334 z M 87.30145,478.69513 L 87.30145,528.97134 C 87.30143,530.4883 87.55426,531.59464 88.05992,532.29038 C 88.56555,532.98613 89.57781,533.33401 91.0967,533.334 L 91.75963,533.334 L 91.75963,541.96667 L 89.76792,541.96667 C 88.31273,541.96667 86.95308,541.80842 85.68897,541.49191 C 84.42484,541.17539 83.16024,540.52741 81.89517,539.54796 C 80.63008,538.56851 79.69695,537.30391 79.09577,535.75416 C 78.49459,534.20441 78.194,532.54369 78.194,530.77199 L 78.194,478.69513 L 87.30145,478.69513 z M 97.27736,541.96667 L 97.27736,496.81159 L 106.3848,496.81159 L 106.3848,541.96667 L 97.27736,541.96667 z M 97.27736,487.61151 L 97.27736,478.69513 L 106.3848,478.69513 L 106.3848,487.61151 L 97.27736,487.61151 z M 140.69549,528.97134 C 140.69546,532.70195 139.33581,535.89553 136.61653,538.55211 C 133.89721,541.20869 130.6713,542.53697 126.93879,542.53697 C 124.91619,542.53697 122.90856,542.01492 120.91589,540.97082 C 118.92321,539.92672 117.42123,538.67756 116.40994,537.22333 C 115.39864,535.76912 114.68745,534.28306 114.27638,532.76514 C 113.86529,531.24725 113.65975,529.69798 113.65976,528.11734 L 113.65976,510.47275 C 113.65975,506.74219 114.94027,503.43812 117.50133,500.56052 C 120.06236,497.683 123.24002,496.24423 127.03432,496.24418 C 130.95596,496.24423 134.21324,497.63524 136.80615,500.41722 C 139.39901,503.19928 140.69546,506.55112 140.69549,510.47275 L 131.68358,510.47275 C 131.68356,509.08129 131.2884,507.84805 130.4981,506.77303 C 129.70777,505.69809 128.61687,505.1606 127.22539,505.16056 C 126.40321,505.1606 125.69154,505.33429 125.09038,505.68165 C 124.48918,506.02907 123.95169,506.56656 123.4779,507.29412 C 123.00409,508.02175 122.76719,509.08129 122.7672,510.47275 L 122.7672,528.11734 C 122.76719,529.76167 123.11506,531.05811 123.81082,532.00667 C 124.50655,532.95525 125.67562,533.42954 127.31803,533.42953 C 128.64774,533.42954 129.70777,532.93933 130.4981,531.95891 C 131.2884,530.9785 131.68356,529.79255 131.68358,528.40104 L 140.69549,528.40104 L 140.69549,528.97134 z M 164.85946,496.24418 C 166.50375,496.24423 168.0535,496.68667 169.50871,497.57151 C 170.96387,498.45643 172.00749,499.48413 172.63958,500.6546 C 173.27161,501.82516 173.66676,502.8215 173.82505,503.64362 C 173.98328,504.46581 174.0624,505.5408 174.06243,506.86857 L 174.06243,541.96667 L 164.95499,541.96667 L 164.95499,510.28169 C 164.95497,508.76478 164.6071,507.53202 163.91137,506.58342 C 163.2156,505.63488 162.10926,505.1606 160.59233,505.16056 C 159.26451,505.1606 158.17361,505.68216 157.31962,506.72527 C 156.4656,507.76844 156.0386,508.95391 156.03861,510.28169 L 156.03861,541.96667 L 146.93117,541.96667 L 146.93117,478.69513 L 156.03861,478.69513 L 156.03861,501.17714 C 158.12488,497.88854 161.06515,496.24423 164.85946,496.24418 L 164.85946,496.24418 z M 194.74958,533.334 C 196.0793,533.33401 197.15477,532.92293 197.97598,532.10076 C 198.79715,531.27861 199.30328,530.20363 199.49437,528.87581 L 208.50628,528.87581 L 208.50628,529.91798 C 208.50625,531.30949 208.20566,532.70098 207.60451,534.09247 C 207.0033,535.48397 205.75414,537.23926 203.85702,539.35834 C 201.95986,541.47743 198.98774,542.53697 194.94065,542.53697 C 192.34678,542.53697 189.95895,541.84123 187.77715,540.44973 C 185.59533,539.05824 184.09335,537.52441 183.27119,535.84824 C 182.44903,534.17209 181.92746,532.65418 181.70648,531.29452 C 181.4855,529.93488 181.37501,528.59115 181.37501,527.26333 L 181.37501,510.09352 C 181.37501,506.36295 182.71874,503.12209 185.4062,500.3709 C 188.09365,497.6198 191.30364,496.24423 195.03618,496.24418 C 198.89413,496.24423 202.10364,497.58795 204.66471,500.27537 C 207.22573,502.96287 208.50625,506.23558 208.50628,510.09352 L 208.50628,522.61408 L 190.48246,522.61408 L 190.48246,529.35058 C 190.48245,530.2982 190.94081,531.199 191.85755,532.05299 C 192.77426,532.90701 193.73827,533.33401 194.74958,533.334 L 194.74958,533.334 z M 194.94065,505.16056 C 193.73827,505.1606 192.69465,505.57168 191.80978,506.3938 C 190.92489,507.21599 190.48245,508.67021 190.48246,510.75645 L 190.48246,515.21464 L 199.39884,515.21464 L 199.39884,510.75645 C 199.39881,509.11217 199.05094,507.76844 198.35521,506.72527 C 197.65945,505.68216 196.52126,505.1606 194.94065,505.16056 L 194.94065,505.16056 z M 236.53787,496.24418 L 236.53787,505.53979 C 236.09589,505.41438 235.65345,505.31982 235.21055,505.25609 C 234.7676,505.19244 234.35604,505.1606 233.97586,505.16056 C 231.00372,505.1606 228.72734,506.17237 227.14673,508.19589 C 225.56608,510.21948 224.77577,512.65459 224.77578,515.50124 L 224.77578,541.96667 L 215.66834,541.96667 L 215.66834,496.81159 L 224.77578,496.81159 L 224.77578,501.65191 C 226.3564,499.69112 228.30082,498.29962 230.60906,497.47742 C 232.91726,496.65531 234.89353,496.24423 236.53787,496.24418 L 236.53787,496.24418 z " />
    <path
       id="path4001"
       style="font-size:94.86100006px;font-style:normal;font-variant:normal;font-weight:normal;font-stretch:normal;text-align:center;line-height:100%;writing-mode:lr-tb;text-anchor:middle;fill:black;fill-opacity:1;stroke:none;stroke-width:1px;stroke-linecap:butt;stroke-linejoin:miter;stroke-opacity:1;font-family:DIN 1451 Engschrift"
       d="M -97.402092,633.54754 L -110.30189,570.276 L -100.81811,570.276 L -93.511308,614.19495 L -86.019235,570.276 L -76.43702,570.276 L -89.62342,633.54754 L -97.402092,633.54754 z M -59.25563,624.91487 C -57.92591,624.91488 -56.85044,624.5038 -56.02923,623.68163 C -55.20806,622.85948 -54.70193,621.7845 -54.51084,620.45668 L -45.49893,620.45668 L -45.49893,621.49885 C -45.49896,622.89036 -45.79955,624.28185 -46.4007,625.67334 C -47.00191,627.06484 -48.25107,628.82013 -50.14818,630.93921 C -52.04535,633.0583 -55.01747,634.11785 -59.06456,634.11785 C -61.65843,634.11785 -64.04626,633.4221 -66.22806,632.0306 C -68.40988,630.63911 -69.91186,629.10528 -70.73402,627.42911 C -71.55618,625.75296 -72.07775,624.23505 -72.29872,622.87539 C -72.51971,621.51575 -72.6302,620.17203 -72.63019,618.84421 L -72.63019,601.67439 C -72.6302,597.94383 -71.28647,594.70296 -68.59901,591.95177 C -65.91156,589.20067 -62.70157,587.8251 -58.96903,587.82505 C -55.11108,587.8251 -51.90157,589.16883 -49.3405,591.85624 C -46.77948,594.54374 -45.49896,597.81645 -45.49893,601.67439 L -45.49893,614.19495 L -63.52275,614.19495 L -63.52275,620.93145 C -63.52276,621.87907 -63.0644,622.77987 -62.14766,623.63386 C -61.23095,624.48788 -60.26694,624.91488 -59.25563,624.91487 L -59.25563,624.91487 z M -59.06456,596.74143 C -60.26694,596.74147 -61.31056,597.15255 -62.19543,597.97467 C -63.08032,598.79686 -63.52276,600.25108 -63.52275,602.33733 L -63.52275,606.79552 L -54.60637,606.79552 L -54.60637,602.33733 C -54.60639,600.69304 -54.95427,599.34931 -55.64999,598.30614 C -56.34576,597.26304 -57.48395,596.74147 -59.06456,596.74143 L -59.06456,596.74143 z M -17.46734,587.82505 L -17.46734,597.12067 C -17.90932,596.99526 -18.35176,596.90069 -18.79466,596.83696 C -19.23761,596.77331 -19.64917,596.74147 -20.02935,596.74143 C -23.0015,596.74147 -25.27787,597.75324 -26.85849,599.77676 C -28.43913,601.80035 -29.22945,604.23546 -29.22943,607.08211 L -29.22943,633.54754 L -38.33688,633.54754 L -38.33688,588.39246 L -29.22943,588.39246 L -29.22943,593.23278 C -27.64882,591.27199 -25.70439,589.88049 -23.39615,589.05829 C -21.08795,588.23618 -19.11168,587.8251 -17.46734,587.82505 L -17.46734,587.82505 z M -11.84249,633.54754 L -11.84249,570.276 L -2.73505,570.276 L -2.73505,607.93612 L 8.64781,588.39246 L 17.65972,588.39246 L 6.9398,606.32364 L 19.8425,633.54754 L 9.69288,633.54754 L 1.81867,614.29048 L -2.73505,621.02698 L -2.73505,633.54754 L -11.84249,633.54754 z M 36.9023,624.91487 C 38.23202,624.91488 39.30748,624.5038 40.1287,623.68163 C 40.94987,622.85948 41.456,621.7845 41.64709,620.45668 L 50.659,620.45668 L 50.659,621.49885 C 50.65897,622.89036 50.35838,624.28185 49.75723,625.67334 C 49.15602,627.06484 47.90686,628.82013 46.00974,630.93921 C 44.11257,633.0583 41.14045,634.11785 37.09336,634.11785 C 34.49949,634.11785 32.11166,633.4221 29.92986,632.0306 C 27.74805,630.63911 26.24606,629.10528 25.42391,627.42911 C 24.60174,625.75296 24.08018,624.23505 23.8592,622.87539 C 23.63822,621.51575 23.52773,620.17203 23.52773,618.84421 L 23.52773,601.67439 C 23.52773,597.94383 24.87146,594.70296 27.55892,591.95177 C 30.24637,589.20067 33.45636,587.8251 37.1889,587.82505 C 41.04685,587.8251 44.25636,589.16883 46.81743,591.85624 C 49.37844,594.54374 50.65897,597.81645 50.659,601.67439 L 50.659,614.19495 L 32.63517,614.19495 L 32.63517,620.93145 C 32.63516,621.87907 33.09353,622.77987 34.01026,623.63386 C 34.92698,624.48788 35.89099,624.91488 36.9023,624.91487 L 36.9023,624.91487 z M 37.09336,596.74143 C 35.89099,596.74147 34.84737,597.15255 33.9625,597.97467 C 33.0776,598.79686 32.63516,600.25108 32.63517,602.33733 L 32.63517,606.79552 L 41.55155,606.79552 L 41.55155,602.33733 C 41.55153,600.69304 41.20366,599.34931 40.50793,598.30614 C 39.81216,597.26304 38.67398,596.74147 37.09336,596.74143 L 37.09336,596.74143 z M 75.74934,587.82505 C 77.39364,587.8251 78.94339,588.26754 80.3986,589.15238 C 81.85375,590.0373 82.89737,591.065 83.52946,592.23548 C 84.16149,593.40603 84.55665,594.40237 84.71493,595.22449 C 84.87316,596.04669 84.95229,597.12167 84.95232,598.44944 L 84.95232,633.54754 L 75.84487,633.54754 L 75.84487,601.86256 C 75.84485,600.34565 75.49698,599.11289 74.80125,598.16429 C 74.10549,597.21575 72.99914,596.74147 71.48222,596.74143 C 70.15439,596.74147 69.06349,597.26304 68.2095,598.30614 C 67.35548,599.34931 66.92848,600.53478 66.9285,601.86256 L 66.9285,633.54754 L 57.82105,633.54754 L 57.82105,570.276 L 66.9285,570.276 L 66.9285,592.75801 C 69.01476,589.46942 71.95504,587.8251 75.74934,587.82505 L 75.74934,587.82505 z M 113.89291,587.82505 L 113.89291,597.12067 C 113.45092,596.99526 113.00848,596.90069 112.56558,596.83696 C 112.12263,596.77331 111.71107,596.74147 111.33089,596.74143 C 108.35875,596.74147 106.08237,597.75324 104.50176,599.77676 C 102.92111,601.80035 102.1308,604.23546 102.13081,607.08211 L 102.13081,633.54754 L 93.02337,633.54754 L 93.02337,588.39246 L 102.13081,588.39246 L 102.13081,593.23278 C 103.71143,591.27199 105.65585,589.88049 107.96409,589.05829 C 110.27229,588.23618 112.24856,587.8251 113.89291,587.82505 L 113.89291,587.82505 z M 154.85904,633.54754 L 154.85904,595.60372 L 150.40085,595.60372 L 150.40085,588.39246 L 154.85904,588.39246 L 154.85904,582.13362 C 154.85904,578.59222 155.7444,575.96748 157.51514,574.25942 C 159.28586,572.55147 160.93018,571.46057 162.4481,570.9867 C 163.96599,570.51296 165.64263,570.27606 167.47803,570.276 L 170.60745,570.276 L 170.60745,578.62208 L 167.28697,578.62208 C 165.0733,578.62213 163.96647,579.79265 163.96649,582.13362 L 163.96649,588.39246 L 170.60745,588.39246 L 170.60745,595.60372 L 163.96649,595.60372 L 163.96649,633.54754 L 154.85904,633.54754 z M 195.9699,587.82505 L 195.9699,597.12067 C 195.52792,596.99526 195.08548,596.90069 194.64258,596.83696 C 194.19963,596.77331 193.78807,596.74147 193.40789,596.74143 C 190.43574,596.74147 188.15937,597.75324 186.57875,599.77676 C 184.99811,601.80035 184.2078,604.23546 184.20781,607.08211 L 184.20781,633.54754 L 175.10037,633.54754 L 175.10037,588.39246 L 184.20781,588.39246 L 184.20781,593.23278 C 185.78842,591.27199 187.73285,589.88049 190.04109,589.05829 C 192.34929,588.23618 194.32556,587.8251 195.9699,587.82505 L 195.9699,587.82505 z M 214.21085,624.91487 C 215.54057,624.91488 216.61603,624.5038 217.43724,623.68163 C 218.25842,622.85948 218.76455,621.7845 218.95563,620.45668 L 227.96754,620.45668 L 227.96754,621.49885 C 227.96751,622.89036 227.66692,624.28185 227.06577,625.67334 C 226.46456,627.06484 225.2154,628.82013 223.31829,630.93921 C 221.42112,633.0583 218.449,634.11785 214.40191,634.11785 C 211.80804,634.11785 209.42021,633.4221 207.23841,632.0306 C 205.05659,630.63911 203.55461,629.10528 202.73246,627.42911 C 201.91029,625.75296 201.38872,624.23505 201.16775,622.87539 C 200.94677,621.51575 200.83628,620.17203 200.83628,618.84421 L 200.83628,601.67439 C 200.83628,597.94383 202.18,594.70296 204.86747,591.95177 C 207.55491,589.20067 210.7649,587.8251 214.49744,587.82505 C 218.3554,587.8251 221.5649,589.16883 224.12597,591.85624 C 226.68699,594.54374 227.96751,597.81645 227.96754,601.67439 L 227.96754,614.19495 L 209.94372,614.19495 L 209.94372,620.93145 C 209.94371,621.87907 210.40207,622.77987 211.31881,623.63386 C 212.23553,624.48788 213.19954,624.91488 214.21085,624.91487 L 214.21085,624.91487 z M 214.40191,596.74143 C 213.19954,596.74147 212.15592,597.15255 211.27105,597.97467 C 210.38615,598.79686 209.94371,600.25108 209.94372,602.33733 L 209.94372,606.79552 L 218.8601,606.79552 L 218.8601,602.33733 C 218.86008,600.69304 218.51221,599.34931 217.81648,598.30614 C 217.12071,597.26304 215.98252,596.74147 214.40191,596.74143 L 214.40191,596.74143 z M 235.1296,633.54754 L 235.1296,588.39246 L 244.23704,588.39246 L 244.23704,633.54754 L 235.1296,633.54754 z M 235.1296,579.19238 L 235.1296,570.276 L 244.23704,570.276 L 244.23704,579.19238 L 235.1296,579.19238 z " />
  </g>
</svg>
