<?xml version="1.0" encoding="UTF-8" standalone="no"?>
<!-- Created with Inkscape (http://www.inkscape.org/) -->
<svg
   xmlns:svg="http://www.w3.org/2000/svg"
   xmlns="http://www.w3.org/2000/svg"
   version="1.0"
   width="490"
   height="270"
   id="svg2">
  <defs
     id="defs4" />
  <path
     d="M 38.78125,4.984375 C 20.356889,4.9843748 9.96875,12.12016 9.96875,33.203125 L 9.65625,236.79688 C 9.65625,257.87984 20.044391,265.01563 38.46875,265.01563 L 451.21875,264.98438 C 469.64311,264.98438 480.03124,257.84859 480.03125,236.76563 L 480.34375,33.234375 C 480.34375,12.15141 469.95561,5.0156248 451.53125,5.015625 L 38.78125,4.984375 z "
     style="fill:white;fill-opacity:1;fill-rule:evenodd;stroke:black;stroke-width:2;stroke-linecap:butt;stroke-linejoin:miter;stroke-miterlimit:4;stroke-dasharray:none;stroke-opacity:1"
     id="path1881" />
  <path
     d="M 453.3125,17.796875 L 36.78125,17.828125 C 28.356999,17.828125 23.40625,23.829135 23.40625,32.703125 L 23.40625,237.35938 C 23.406249,246.23335 28.35701,252.23438 36.78125,252.23438 L 453.28125,252.20313 C 461.70549,252.20312 466.65625,246.20211 466.65625,237.32813 L 466.65625,32.671875 C 466.65625,23.797885 461.73674,17.796875 453.3125,17.796875 z "
     style="fill:none;fill-opacity:1;fill-rule:evenodd;stroke:black;stroke-width:10.05090809;stroke-linecap:butt;stroke-linejoin:miter;stroke-miterlimit:4;stroke-dasharray:none;stroke-opacity:1"
     id="path3976" />
  <path
     d="M 80.239381,108.66835 L 80.239381,158.97358 L 204.11877,158.97358 L 204.11877,108.66835 L 80.239381,108.66835 z "
     style="fill:white;fill-opacity:1;fill-rule:evenodd;stroke:none;stroke-width:1px;stroke-linecap:butt;stroke-linejoin:miter;stroke-opacity:1"
     id="path20922" />
  <g
     transform="translate(225.6776,-380.788)"
     id="g2856">
    <path
       d="M -89.590927,597.38794 L -89.590927,537.1046 L -99.691687,544.65178 L -99.691687,533.91506 L -89.590927,526.47171 L -79.493412,526.47171 L -79.493412,597.38794 L -89.590927,597.38794 z M -36.264233,561.13163 C -35.697525,562.05316 -35.325466,563.0455 -35.148056,564.10864 C -34.970712,565.17186 -34.882024,566.48326 -34.88199,568.04285 L -34.88199,581.65113 C -34.882024,583.42492 -35.041555,585.03807 -35.360584,586.4906 C -35.679679,587.94316 -36.742859,590.12252 -38.550127,593.02868 C -40.357454,595.93485 -43.84821,597.60101 -49.022405,598.02715 C -52.213046,598.02715 -55.084065,597.33602 -57.635469,595.95378 C -60.186896,594.57154 -61.976888,592.90539 -63.005453,590.95532 C -64.034028,589.00526 -64.672152,587.3748 -64.919827,586.06393 C -65.16751,584.75308 -65.291349,583.28215 -65.291346,581.65113 L -65.291346,570.48935 C -65.291349,568.92976 -65.255657,567.81304 -65.184271,567.1392 C -65.112891,566.46541 -64.865212,565.56176 -64.441234,564.42825 L -50.404649,526.47171 L -38.921645,526.47171 L -50.404649,556.24186 C -48.987815,555.74438 -47.463887,555.49562 -45.832862,555.49558 L -44.87892,555.49558 C -41.050198,555.99314 -38.178638,557.87182 -36.264233,561.13163 L -36.264233,561.13163 z M -45.939938,566.4497 C -47.004222,565.03071 -48.422155,564.3212 -50.193743,564.32117 C -51.115256,564.3212 -51.983754,564.60458 -52.79924,565.17128 C -53.614756,565.73806 -54.199343,566.41133 -54.553002,567.19111 C -54.906688,567.97095 -55.083524,569.07036 -55.08351,570.48935 L -55.08351,581.65113 C -55.083524,583.21076 -54.658468,584.66385 -53.808342,586.01039 C -52.958246,587.35695 -51.505702,587.92423 -49.450706,587.71224 C -47.607736,587.71224 -46.40233,587.09197 -45.834485,585.8514 C -45.266685,584.61085 -44.982774,583.21076 -44.98275,581.65113 L -44.98275,570.48935 C -44.982774,569.56788 -45.036311,568.80592 -45.143363,568.20346 C -45.250461,567.60106 -45.515986,567.01647 -45.939938,566.4497 L -45.939938,566.4497 z M -25.680012,574.52901 L -25.680012,564.42825 L 4.6222692,564.42825 L 4.6222692,574.52901 L -25.680012,574.52901 z M 26.283905,597.38794 L 26.283905,537.1046 L 16.183145,544.65178 L 16.183145,533.91506 L 26.283905,526.47171 L 36.381421,526.47171 L 36.381421,597.38794 L 26.283905,597.38794 z M 80.992846,582.82247 C 80.992812,584.94884 80.461222,587.18174 79.398074,589.52116 C 78.334863,591.86059 76.597867,593.86311 74.187082,595.52872 C 71.776243,597.19434 69.153985,598.02715 66.320299,598.02715 C 63.272426,598.02715 60.47225,597.24734 57.919763,595.68772 C 55.367256,594.1281 53.63026,592.3738 52.70877,590.42481 C 51.78727,588.47583 51.22053,586.86322 51.008546,585.58695 C 50.796555,584.31072 50.690562,582.99878 50.690565,581.65113 L 50.690565,569.21094 C 50.690562,567.29876 51.133463,565.58069 52.019271,564.05673 C 52.90507,562.53283 54.163472,561.16844 55.794483,559.96354 C 52.391866,557.41108 50.690562,553.90247 50.690565,549.43772 L 50.690565,539.86909 C 50.690562,538.52152 50.956087,537.15658 51.48714,535.77428 C 52.018185,534.39209 53.293893,532.38957 55.314267,529.76671 C 57.334625,527.14398 60.931916,525.83258 66.106149,525.83251 C 68.091886,525.83258 69.970568,526.24033 71.742198,527.05576 C 73.51378,527.87133 75.498454,529.43095 77.696228,531.73462 C 79.893941,534.03842 80.992812,537.13927 80.992846,541.03718 L 80.992846,550.18076 C 80.992812,554.29292 79.291508,557.55384 75.888928,559.96354 C 79.291508,562.30192 80.992812,565.63315 80.992846,569.95722 L 80.992846,582.82247 z M 65.895243,535.93327 C 64.406989,535.93333 63.166432,536.42977 62.173569,537.42258 C 61.180676,538.41552 60.684237,539.62039 60.68425,541.03718 L 60.68425,550.18076 C 60.684237,551.81181 61.127139,553.21189 62.012956,554.38102 C 62.898745,555.55024 64.157147,556.13483 65.788168,556.13479 C 67.559756,556.13483 68.853309,555.58539 69.668833,554.48648 C 70.484312,553.38765 70.892062,551.95241 70.892086,550.18076 L 70.892086,541.03718 C 70.892062,539.68961 70.413469,538.50205 69.456305,537.4745 C 68.499096,536.44707 67.312077,535.93333 65.895243,535.93327 L 65.895243,535.93327 z M 65.895243,563.78904 C 64.335606,563.78907 63.077203,564.30336 62.120031,565.3319 C 61.16283,566.3605 60.684237,567.65351 60.68425,569.21094 L 60.68425,581.65113 C 60.684237,583.49414 61.109293,584.98291 61.959419,586.11746 C 62.809515,587.25204 64.191757,587.81932 66.106149,587.81931 C 67.94912,587.81932 69.207522,587.21689 69.881361,586.01201 C 70.555154,584.80716 70.892062,583.35353 70.892086,581.65113 L 70.892086,569.21094 C 70.892062,567.65351 70.449161,566.3605 69.56338,565.3319 C 68.677555,564.30336 67.454844,563.78907 65.895243,563.78904 L 65.895243,563.78904 z M 128.02157,546.1411 C 129.86453,546.14115 131.60153,546.63705 133.23256,547.6288 C 134.86354,548.62064 136.03325,549.77251 136.74171,551.08441 C 137.4501,552.39639 137.893,553.51311 138.07041,554.43456 C 138.24776,555.3561 138.33645,556.56096 138.33648,558.04916 L 138.33648,597.38794 L 128.12864,597.38794 L 128.12864,561.87467 C 128.12862,560.17448 127.73872,558.79278 126.95893,557.72956 C 126.1791,556.66642 124.93908,556.13483 123.23888,556.13479 C 121.75062,556.13483 120.52791,556.71941 119.57074,557.88855 C 118.61354,559.05776 118.13495,560.38647 118.13496,561.87467 L 118.13496,597.38794 L 107.92712,597.38794 L 107.92712,526.47171 L 118.13496,526.47171 L 118.13496,551.67008 C 120.47329,547.98414 123.76883,546.14115 128.02157,546.1411 L 128.02157,546.1411 z "
       style="font-size:106.32242584px;font-style:normal;font-variant:normal;font-weight:normal;font-stretch:normal;text-align:center;line-height:100%;writing-mode:lr-tb;text-anchor:middle;fill:black;fill-opacity:1;stroke:none;stroke-width:1px;stroke-linecap:butt;stroke-linejoin:miter;stroke-opacity:1;font-family:DIN 1451 Engschrift"
       id="text2844" />
    <path
       d="M -102.81994,502.12739 L -102.81994,433.54882 L -92.982661,433.54882 L -73.308095,478.26374 L -54.057144,433.54882 L -44.219862,433.54882 L -44.219862,502.12739 L -54.621964,502.12739 L -54.621964,459.34227 L -54.810238,459.34227 L -69.166081,492.33718 L -77.826655,492.33718 L -92.182499,459.34227 L -92.417841,459.34227 L -92.417841,502.12739 L -102.81994,502.12739 z M -33.017595,477.65185 C -33.017599,472.41161 -32.609674,468.50494 -31.793818,465.93184 C -30.977973,463.35881 -29.628682,461.03677 -27.745941,458.96572 C -26.396659,457.49096 -24.537462,456.07891 -22.168343,454.72957 C -19.799253,453.38033 -16.700591,452.70568 -12.872346,452.70563 C -9.1069065,452.70568 -6.0317781,453.38033 -3.6469513,454.72957 C -1.2621912,456.07891 0.60485101,457.49096 1.9541811,458.96572 C 3.8368737,461.03677 5.1861647,463.35881 6.0020582,465.93184 C 6.8178655,468.50494 7.2257907,472.41161 7.225835,477.65185 C 7.2257907,482.98629 6.8178655,486.94002 6.0020582,489.51308 C 5.1861647,492.08615 3.8368737,494.40819 1.9541811,496.47919 C 0.60485101,497.98538 -1.2621912,499.39743 -3.6469513,500.71534 C -6.0317781,502.03325 -9.1069065,502.69221 -12.872346,502.69221 C -16.700591,502.69221 -19.799253,502.03325 -22.168343,500.71534 C -24.537462,499.39743 -26.396659,497.98538 -27.745941,496.47919 C -29.628682,494.40819 -30.977973,492.08615 -31.793818,489.51308 C -32.609674,486.94002 -33.017599,482.98629 -33.017595,477.65185 L -33.017595,477.65185 z M -2.5643795,477.74599 C -2.564414,474.2002 -2.7448424,471.70558 -3.1056654,470.26213 C -3.4665562,468.81873 -4.0862887,467.43806 -4.9648648,466.12011 C -6.6907342,463.73535 -9.3265586,462.54296 -12.872346,462.54292 C -16.480939,462.54296 -19.116763,463.73535 -20.779827,466.12011 C -21.721209,467.43806 -22.356631,468.81873 -22.686094,470.26213 C -23.015587,471.70558 -23.180326,474.16883 -23.180312,477.65185 C -23.180326,481.22907 -23.015587,483.74722 -22.686094,485.20632 C -22.356631,486.66546 -21.721209,488.03828 -20.779827,489.3248 C -19.116763,491.70961 -16.480939,492.90201 -12.872346,492.902 C -9.3265586,492.90201 -6.6907342,491.70961 -4.9648648,489.3248 C -4.0862887,488.03828 -3.4665562,486.6733 -3.1056654,485.22986 C -2.7448424,483.78645 -2.564414,481.29183 -2.5643795,477.74599 L -2.5643795,477.74599 z M 16.310028,480.38182 L 16.310028,470.54454 L 45.351193,470.54454 L 45.351193,480.38182 L 16.310028,480.38182 z M 57.588962,502.12739 L 57.588962,433.54882 L 101.45665,433.54882 L 101.45665,443.3861 L 67.991065,443.3861 L 67.991065,463.57842 L 96.514478,463.57842 L 96.514478,472.85088 L 67.991065,472.85088 L 67.991065,502.12739 L 57.588962,502.12739 z M 108.51691,502.12739 L 108.51691,453.27045 L 118.35419,453.27045 L 118.35419,458.49504 L 118.54246,458.49504 C 121.5862,454.63548 125.82234,452.70568 131.25092,452.70563 C 134.82808,452.70568 138.23268,453.96084 141.46475,456.4711 L 134.35743,464.9434 C 132.22363,463.34312 130.05849,462.54296 127.862,462.54292 C 125.4458,462.54296 123.25712,463.35096 121.29596,464.96694 C 119.33476,466.58299 118.35418,469.17959 118.35419,472.75675 L 118.35419,502.12739 L 108.51691,502.12739 z "
       style="font-size:96.39595795px;font-style:normal;font-variant:normal;font-weight:normal;font-stretch:normal;text-align:center;line-height:100%;writing-mode:lr-tb;text-anchor:middle;fill:black;fill-opacity:1;stroke:none;stroke-width:1px;stroke-linecap:butt;stroke-linejoin:miter;stroke-opacity:1;font-family:DIN 1451 Mittelschrift"
       id="text4001" />
  </g>
</svg>
