<?xml version="1.0" encoding="UTF-8" standalone="no"?>
<!-- Created with Inkscape (http://www.inkscape.org/) -->
<svg
   xmlns:svg="http://www.w3.org/2000/svg"
   xmlns="http://www.w3.org/2000/svg"
   version="1.0"
   width="490"
   height="270"
   id="svg2">
  <defs
     id="defs4" />
  <path
     d="M 38.78125,4.984375 C 20.356889,4.9843748 9.96875,12.12016 9.96875,33.203125 L 9.65625,236.79688 C 9.65625,257.87984 20.044391,265.01563 38.46875,265.01563 L 451.21875,264.98438 C 469.64311,264.98438 480.03124,257.84859 480.03125,236.76563 L 480.34375,33.234375 C 480.34375,12.15141 469.95561,5.0156248 451.53125,5.015625 L 38.78125,4.984375 z "
     style="fill:white;fill-opacity:1;fill-rule:evenodd;stroke:black;stroke-width:2;stroke-linecap:butt;stroke-linejoin:miter;stroke-miterlimit:4;stroke-dasharray:none;stroke-opacity:1"
     id="path1881" />
  <path
     d="M 453.3125,17.796875 L 36.78125,17.828125 C 28.356999,17.828125 23.40625,23.829135 23.40625,32.703125 L 23.40625,237.35938 C 23.406249,246.23335 28.35701,252.23438 36.78125,252.23438 L 453.28125,252.20313 C 461.70549,252.20312 466.65625,246.20211 466.65625,237.32813 L 466.65625,32.671875 C 466.65625,23.797885 461.73674,17.796875 453.3125,17.796875 z "
     style="fill:none;fill-opacity:1;fill-rule:evenodd;stroke:black;stroke-width:10.05090809;stroke-linecap:butt;stroke-linejoin:miter;stroke-miterlimit:4;stroke-dasharray:none;stroke-opacity:1"
     id="path3976" />
  <g
     transform="translate(239.8387,-361.3143)"
     id="g2430">
    <path
       d="M -136.70895,402.37814 C -135.31688,402.37819 -133.92479,402.69031 -132.53268,403.31451 C -131.14061,403.93879 -129.67635,405.01913 -128.1399,406.55551 C -126.60349,408.09199 -125.83528,410.46843 -125.83525,413.68485 L -125.83525,417.35778 C -125.83528,421.00802 -127.27573,423.60097 -130.1566,425.13664 C -127.27573,426.81743 -125.83528,429.48292 -125.83525,433.13311 L -125.83525,438.7513 C -125.83528,442.11137 -126.91561,444.89592 -129.07626,447.10494 C -131.23695,449.31397 -134.0215,450.41849 -137.42991,450.41849 L -148.01787,450.41849 L -148.01787,402.37814 L -136.70895,402.37814 z M -132.60521,416.63902 L -132.60521,413.68485 C -132.60523,412.19755 -133.03715,411.0216 -133.90096,410.157 C -134.7648,409.29248 -135.91694,408.8602 -137.35737,408.86016 L -141.2479,408.86016 L -141.2479,422.11214 L -137.14197,422.11214 C -135.55793,422.11217 -134.40579,421.62017 -133.68555,420.63615 C -132.96534,419.6522 -132.60523,418.31982 -132.60521,416.63902 L -132.60521,416.63902 z M -132.60521,438.7513 L -132.60521,433.13311 C -132.60523,431.59596 -133.02542,430.38338 -133.86579,429.49535 C -134.70619,428.60737 -135.87005,428.16336 -137.35737,428.16334 L -141.2479,428.16334 L -141.2479,443.57599 L -137.28704,443.57599 C -135.8935,443.576 -134.7648,443.11991 -133.90096,442.20771 C -133.03715,441.29553 -132.60523,440.1434 -132.60521,438.7513 L -132.60521,438.7513 z M -110.18082,443.86393 C -109.1712,443.86394 -108.35463,443.55182 -107.7311,442.92757 C -107.10761,442.30333 -106.72332,441.48713 -106.57823,440.47895 L -99.73573,440.47895 L -99.73573,441.27025 C -99.73576,442.32678 -99.96399,443.3833 -100.42042,444.43982 C -100.8769,445.49635 -101.82536,446.82909 -103.26578,448.43805 C -104.70625,450.04702 -106.9629,450.8515 -110.03575,450.8515 C -112.0052,450.8515 -113.81821,450.32324 -115.47479,449.26672 C -117.13139,448.21019 -118.2718,447.0456 -118.89604,445.77293 C -119.52029,444.50027 -119.9163,443.34777 -120.08408,442.31542 C -120.25187,441.28308 -120.33576,440.26282 -120.33576,439.25465 L -120.33576,426.21808 C -120.33576,423.38556 -119.31551,420.92486 -117.27499,418.83596 C -115.23448,416.74712 -112.79723,415.70269 -109.96321,415.70265 C -107.03397,415.70269 -104.59708,416.72295 -102.65253,418.76342 C -100.70802,420.80397 -99.73576,423.28885 -99.73573,426.21808 L -99.73573,435.7246 L -113.42073,435.7246 L -113.42073,440.83943 C -113.42074,441.55893 -113.07271,442.24289 -112.37666,442.8913 C -111.68062,443.53973 -110.94868,443.86394 -110.18082,443.86393 L -110.18082,443.86393 z M -110.03575,422.47262 C -110.94868,422.47264 -111.74107,422.78477 -112.41293,423.40898 C -113.0848,424.03325 -113.42074,425.1374 -113.42073,426.72143 L -113.42073,430.10641 L -106.65077,430.10641 L -106.65077,426.72143 C -106.65078,425.47296 -106.91491,424.45271 -107.44316,423.66066 C -107.97144,422.86866 -108.83563,422.47264 -110.03575,422.47262 L -110.03575,422.47262 z M -83.99777,443.86393 L -82.41298,443.86393 L -82.41298,450.41849 L -84.57366,450.41849 C -85.87051,450.41849 -87.02302,450.28661 -88.03117,450.02284 C -89.03935,449.75908 -90.0237,449.21873 -90.98424,448.40179 C -91.94479,447.58485 -92.61702,446.68439 -93.00094,445.7004 C -93.38487,444.71641 -93.57683,443.5042 -93.57683,442.06374 L -93.57683,421.53625 L -96.96181,421.53625 L -96.96181,416.13347 L -93.57683,416.13347 L -93.57683,405.76312 L -86.66179,405.76312 L -86.66179,416.13347 L -82.41298,416.13347 L -82.41298,421.53625 L -86.66179,421.53625 L -86.66179,440.83943 C -86.6618,441.99121 -86.50574,442.78324 -86.19361,443.21551 C -85.8815,443.6478 -85.14955,443.86394 -83.99777,443.86393 L -83.99777,443.86393 z M -61.4305,415.70265 L -61.4305,422.76056 C -61.76609,422.66534 -62.10202,422.59354 -62.4383,422.54515 C -62.77462,422.49682 -63.08711,422.47264 -63.37577,422.47262 C -65.63244,422.47264 -67.36083,423.24086 -68.56094,424.77726 C -69.76108,426.31371 -70.36115,428.16263 -70.36114,430.32401 L -70.36114,450.41849 L -77.27617,450.41849 L -77.27617,416.13347 L -70.36114,416.13347 L -70.36114,419.80859 C -69.16102,418.31982 -67.68467,417.2633 -65.93209,416.63902 C -64.17953,416.01481 -62.67901,415.70269 -61.4305,415.70265 L -61.4305,415.70265 z M -57.15971,450.41849 L -57.15971,416.13347 L -50.24468,416.13347 L -50.24468,450.41849 L -57.15971,450.41849 z M -57.15971,409.1481 L -57.15971,402.37814 L -50.24468,402.37814 L -50.24468,409.1481 L -57.15971,409.1481 z M -34.6386,443.86393 C -33.62898,443.86394 -32.81241,443.55182 -32.18889,442.92757 C -31.56539,442.30333 -31.1811,441.48713 -31.03602,440.47895 L -24.19352,440.47895 L -24.19352,441.27025 C -24.19354,442.32678 -24.42177,443.3833 -24.87821,444.43982 C -25.33469,445.49635 -26.28314,446.82909 -27.72357,448.43805 C -29.16404,450.04702 -31.42069,450.8515 -34.49353,450.8515 C -36.46299,450.8515 -38.276,450.32324 -39.93258,449.26672 C -41.58918,448.21019 -42.72959,447.0456 -43.35383,445.77293 C -43.97808,444.50027 -44.37409,443.34777 -44.54187,442.31542 C -44.70966,441.28308 -44.79355,440.26282 -44.79354,439.25465 L -44.79354,426.21808 C -44.79355,423.38556 -43.77329,420.92486 -41.73278,418.83596 C -39.69227,416.74712 -37.25501,415.70269 -34.421,415.70265 C -31.49176,415.70269 -29.05487,416.72295 -27.11032,418.76342 C -25.16581,420.80397 -24.19354,423.28885 -24.19352,426.21808 L -24.19352,435.7246 L -37.87851,435.7246 L -37.87851,440.83943 C -37.87852,441.55893 -37.5305,442.24289 -36.83444,442.8913 C -36.13841,443.53973 -35.40646,443.86394 -34.6386,443.86393 L -34.6386,443.86393 z M -34.49353,422.47262 C -35.40646,422.47264 -36.19886,422.78477 -36.87071,423.40898 C -37.54259,424.03325 -37.87852,425.1374 -37.87851,426.72143 L -37.87851,430.10641 L -31.10855,430.10641 L -31.10855,426.72143 C -31.10857,425.47296 -31.3727,424.45271 -31.90095,423.66066 C -32.42922,422.86866 -33.29342,422.47264 -34.49353,422.47262 L -34.49353,422.47262 z M -5.35853,415.70265 C -2.52601,415.70269 -0.67746,416.435 0.18713,417.8996 C 1.05167,419.36425 1.55612,420.51676 1.70048,421.35711 C 1.84479,422.19752 1.91696,422.95328 1.91698,423.62439 L 1.91698,442.42422 C 1.91696,443.62436 1.8327,444.63252 1.66421,445.44872 C 1.49567,446.26493 0.89524,447.36944 -0.13708,448.76227 C -1.16945,450.15509 -2.93411,450.8515 -5.43106,450.8515 C -6.77481,450.8515 -7.98703,450.50311 -9.06772,449.80633 C -10.14843,449.10956 -11.04853,448.1611 -11.76801,446.96097 L -11.76801,450.41849 L -18.68304,450.41849 L -18.68304,402.37814 L -11.76801,402.37814 L -11.76801,419.44811 C -10.23232,416.95117 -8.09583,415.70269 -5.35853,415.70265 L -5.35853,415.70265 z M -8.45556,422.47262 C -9.41539,422.47264 -10.20741,422.85693 -10.83164,423.62549 C -11.4559,424.39409 -11.76802,425.28247 -11.76801,426.29061 L -11.76801,439.83053 C -11.76802,440.93542 -11.56397,441.89597 -11.15586,442.71216 C -10.74776,443.52837 -9.84767,443.93648 -8.45556,443.93647 C -7.44741,443.93648 -6.61912,443.63644 -5.97068,443.03637 C -5.32228,442.43632 -4.99807,441.75163 -4.99805,440.98231 L -4.99805,426.29061 C -4.99807,425.18575 -5.31019,424.2732 -5.93441,423.55295 C -6.55867,422.83276 -7.39905,422.47264 -8.45556,422.47262 L -8.45556,422.47262 z M 16.47901,444.36729 C 17.53552,444.36729 18.4477,444.03136 19.21557,443.35948 C 19.9834,442.68763 20.36732,441.82343 20.36734,440.7669 C 20.36732,439.51842 20.04348,438.59415 19.39581,437.99407 C 18.7481,437.39402 17.72748,436.85367 16.33394,436.37302 L 14.96676,435.86967 C 13.5263,435.34069 12.3258,434.82415 11.36527,434.32005 C 10.40472,433.81598 9.37238,432.9038 8.26823,431.58349 C 7.16408,430.26322 6.61201,428.35459 6.61201,425.8576 C 6.61201,423.02508 7.59636,420.62446 9.56508,418.65572 C 11.53378,416.68704 13.95858,415.70269 16.83949,415.70265 C 19.48005,415.70269 21.71252,416.71086 23.53691,418.72716 C 25.36126,420.74352 26.27345,423.02435 26.27347,425.56965 L 19.93652,425.56965 C 19.93651,424.56151 19.6123,423.73322 18.96389,423.08477 C 18.31546,422.43638 17.46298,422.11217 16.40647,422.11214 C 15.44665,422.11217 14.65463,422.47228 14.03039,423.19247 C 13.40614,423.91272 13.09402,424.77692 13.09403,425.78506 C 13.09402,426.84161 13.40614,427.65818 14.03039,428.23478 C 14.65463,428.81142 15.56681,429.31587 16.76695,429.74813 L 19.00016,430.46689 C 20.29699,430.94754 21.31724,431.404 22.06093,431.83626 C 22.80458,432.26856 23.54862,432.91662 24.29304,433.78043 C 25.03742,434.64427 25.64994,435.65244 26.1306,436.80493 C 26.61121,437.95745 26.85153,439.18212 26.85156,440.47895 C 26.85153,443.26461 25.85509,445.7015 23.86222,447.78963 C 21.86932,449.87777 19.48005,450.92184 16.69442,450.92184 C 15.01364,450.92184 13.32115,450.46575 11.61694,449.55356 C 9.91273,448.64137 8.59244,447.40498 7.65608,445.84437 C 6.71971,444.28377 6.25153,442.51948 6.25153,440.55149 L 12.66101,440.55149 C 12.66101,441.60802 13.03321,442.50812 13.77762,443.25178 C 14.52201,443.99546 15.42247,444.36729 16.47901,444.36729 L 16.47901,444.36729 z M 32.11365,434.9333 L 32.11365,428.0908 L 52.64114,428.0908 L 52.64114,434.9333 L 32.11365,434.9333 z M 98.39773,450.41849 L 98.39773,446.96097 C 97.58151,448.20946 96.68105,449.17 95.69634,449.8426 C 94.71161,450.5152 93.5232,450.8515 92.13112,450.8515 C 90.73902,450.8515 89.43082,450.46721 88.20652,449.69863 C 86.98221,448.93005 86.12974,448.05377 85.64911,447.06978 C 85.16846,446.08579 84.89224,445.28168 84.82045,444.65743 C 84.74864,444.03319 84.71274,443.12027 84.71274,441.91867 L 84.71274,416.13347 L 91.62777,416.13347 L 91.62777,439.32718 C 91.62776,439.85472 91.63985,440.39471 91.66404,440.94714 C 91.68821,441.49959 91.95234,442.13592 92.45643,442.85613 C 92.96051,443.57636 93.83679,443.93648 95.08529,443.93647 C 95.70952,443.93648 96.2854,443.76833 96.81295,443.43202 C 97.34046,443.09573 97.7123,442.69971 97.92845,442.24398 C 98.14458,441.78826 98.27683,441.29627 98.3252,440.768 C 98.37354,440.23974 98.39772,439.75947 98.39773,439.32718 L 98.39773,416.13347 L 105.31277,416.13347 L 105.31277,450.41849 L 98.39773,450.41849 z M 130.88694,419.23051 C 131.27231,419.80789 131.53681,420.50467 131.68044,421.32084 C 131.82402,422.13708 131.89582,422.95328 131.89584,423.76946 L 131.89584,450.41849 L 124.98081,450.41849 L 124.98081,426.29061 C 124.9808,423.74531 123.85247,422.47264 121.59583,422.47262 C 120.58765,422.47264 119.77145,422.85693 119.14722,423.62549 C 118.52296,424.39409 118.21084,425.28247 118.21085,426.29061 L 118.21085,450.41849 L 111.29582,450.41849 L 111.29582,416.13347 L 118.21085,416.13347 L 118.21085,419.44811 C 119.748,416.95117 121.88523,415.70269 124.62253,415.70265 C 127.4067,415.70269 129.49483,416.87864 130.88694,419.23051 L 130.88694,419.23051 z M 151.42543,450.41849 L 151.42543,446.88844 C 150.75282,448.04168 149.86444,448.9905 148.76031,449.7349 C 147.65615,450.4793 146.43148,450.8515 145.08629,450.8515 C 141.96507,450.8515 139.99636,449.99903 139.18016,448.29408 C 138.36395,446.58914 137.91994,445.36447 137.84815,444.62006 C 137.77634,443.87566 137.74044,442.87922 137.74044,441.63073 L 137.74044,423.12104 C 137.74044,421.05638 138.43648,419.30381 139.82858,417.86333 C 141.22066,416.42291 142.97323,415.70269 145.08629,415.70265 C 146.38312,415.70269 147.5957,416.03862 148.72404,416.71046 C 149.85236,417.38236 150.75282,418.27073 151.42543,419.37558 L 151.42543,402.37814 L 158.34047,402.37814 L 158.34047,450.41849 L 151.42543,450.41849 z M 150.91989,424.12994 C 150.24874,422.97673 149.26475,422.40011 147.96792,422.40008 C 147.29531,422.40011 146.68315,422.58035 146.13146,422.9408 C 145.57974,423.3013 145.20754,423.73358 145.01485,424.23764 C 144.82215,424.74175 144.71408,425.27001 144.69064,425.82243 C 144.66719,426.37489 144.65546,426.79472 144.65547,427.08191 L 144.65547,439.39752 C 144.65546,439.87817 144.66719,440.3588 144.69064,440.83943 C 144.71408,441.32008 144.94194,441.94432 145.37423,442.71216 C 145.8065,443.48002 146.69524,443.86394 148.04045,443.86393 C 149.43253,443.86394 150.34472,443.48002 150.77701,442.71216 C 151.20928,441.94432 151.42542,441.17574 151.42543,440.40642 L 151.42543,439.39752 L 151.42543,427.08191 C 151.42542,426.60129 151.41333,426.10893 151.38917,425.60482 C 151.36497,425.10076 151.20854,424.60914 150.91989,424.12994 L 150.91989,424.12994 z "
       style="font-size:72.02535248px;font-style:normal;font-variant:normal;font-weight:normal;font-stretch:normal;text-align:center;line-height:100%;writing-mode:lr-tb;text-anchor:middle;fill:black;fill-opacity:1;stroke:none;stroke-width:1px;stroke-linecap:butt;stroke-linejoin:miter;stroke-opacity:1;font-family:DIN 1451 Engschrift"
       id="text2092" />
    <path
       d="M -185.35723,518.07518 L -195.15164,470.03507 L -187.9509,470.03507 L -182.40308,503.38136 L -176.71458,470.03507 L -169.4391,470.03507 L -179.45112,518.07518 L -185.35723,518.07518 z M -156.3938,511.52066 C -155.38419,511.52067 -154.56762,511.20855 -153.9441,510.5843 C -153.32061,509.96007 -152.93632,509.14387 -152.79123,508.1357 L -145.94877,508.1357 L -145.94877,508.92699 C -145.94879,509.98351 -146.17702,511.04003 -146.63346,512.09654 C -147.08994,513.15307 -148.03839,514.4858 -149.47881,516.09476 C -150.91927,517.70371 -153.17591,518.50819 -156.24873,518.50819 C -158.21818,518.50819 -160.03118,517.97993 -161.68776,516.92341 C -163.34434,515.8669 -164.48475,514.70231 -165.10899,513.42965 C -165.73323,512.15699 -166.12924,511.0045 -166.29702,509.97215 C -166.46481,508.93982 -166.5487,507.91957 -166.5487,506.91139 L -166.5487,493.87489 C -166.5487,491.04239 -165.52845,488.5817 -163.48794,486.49281 C -161.44745,484.40398 -159.0102,483.35955 -156.1762,483.35952 C -153.24697,483.35955 -150.8101,484.3798 -148.86556,486.42027 C -146.92106,488.4608 -145.94879,490.94567 -145.94877,493.87489 L -145.94877,503.38136 L -159.6337,503.38136 L -159.6337,508.49617 C -159.63371,509.21567 -159.28569,509.89962 -158.58963,510.54803 C -157.8936,511.19646 -157.16166,511.52067 -156.3938,511.52066 L -156.3938,511.52066 z M -156.24873,490.12945 C -157.16166,490.12947 -157.95405,490.44159 -158.6259,491.06581 C -159.29778,491.69007 -159.63371,492.79421 -159.6337,494.37823 L -159.6337,497.7632 L -152.86377,497.7632 L -152.86377,494.37823 C -152.86379,493.12978 -153.12792,492.10953 -153.65616,491.31748 C -154.18443,490.52548 -155.04862,490.12947 -156.24873,490.12945 L -156.24873,490.12945 z M -124.66526,483.35952 L -124.66526,490.41739 C -125.00085,490.32217 -125.33678,490.25036 -125.67306,490.20198 C -126.00937,490.15365 -126.32186,490.12947 -126.61052,490.12945 C -128.86718,490.12947 -130.59556,490.89768 -131.79567,492.43408 C -132.9958,493.97052 -133.59586,495.81943 -133.59585,497.9808 L -133.59585,518.07518 L -140.51085,518.07518 L -140.51085,483.79033 L -133.59585,483.79033 L -133.59585,487.46543 C -132.39574,485.97667 -130.9194,484.92015 -129.16683,484.29588 C -127.41428,483.67167 -125.91376,483.35955 -124.66526,483.35952 L -124.66526,483.35952 z M -111.60677,512.02401 C -110.55026,512.02401 -109.63808,511.68808 -108.87022,511.01621 C -108.10239,510.34436 -107.71847,509.48017 -107.71846,508.42364 C -107.71847,507.17517 -108.04231,506.2509 -108.68998,505.65082 C -109.33768,505.05078 -110.3583,504.51043 -111.75184,504.02978 L -113.11901,503.52643 C -114.55946,502.99745 -115.75995,502.48092 -116.72048,501.97682 C -117.68103,501.47275 -118.71337,500.56057 -119.8175,499.24027 C -120.92165,497.92001 -121.47372,496.01139 -121.47372,493.51441 C -121.47372,490.68191 -120.48937,488.2813 -118.52067,486.31257 C -116.55197,484.3439 -114.12718,483.35955 -111.24629,483.35952 C -108.60574,483.35955 -106.37328,484.36771 -104.5489,486.384 C -102.72456,488.40036 -101.81238,490.68118 -101.81235,493.22647 L -108.14927,493.22647 C -108.14929,492.21833 -108.47349,491.39004 -109.1219,490.7416 C -109.77033,490.09321 -110.6228,489.769 -111.6793,489.76897 C -112.63912,489.769 -113.43114,490.12911 -114.05537,490.8493 C -114.67962,491.56955 -114.99174,492.43374 -114.99173,493.44187 C -114.99174,494.49842 -114.67962,495.31498 -114.05537,495.89158 C -113.43114,496.46822 -112.51896,496.97266 -111.31883,497.40492 L -109.08563,498.12368 C -107.78881,498.60433 -106.76856,499.06079 -106.02488,499.49305 C -105.28123,499.92534 -104.5372,500.5734 -103.79278,501.4372 C -103.0484,502.30104 -102.43588,503.30921 -101.95523,504.46169 C -101.47461,505.6142 -101.23429,506.83887 -101.23427,508.1357 C -101.23429,510.92134 -102.23073,513.35822 -104.22359,515.44634 C -106.21649,517.53447 -108.60574,518.57853 -111.39136,518.57853 C -113.07213,518.57853 -114.76461,518.12244 -116.46881,517.21026 C -118.17302,516.29808 -119.4933,515.06169 -120.42966,513.50108 C -121.36602,511.94049 -121.8342,510.17621 -121.8342,508.20823 L -115.42474,508.20823 C -115.42475,509.26476 -115.05255,510.16485 -114.30815,510.90851 C -113.56376,511.65218 -112.6633,512.02401 -111.60677,512.02401 L -111.60677,512.02401 z M -94.89077,487.32036 C -93.88261,486.07192 -92.69421,485.09966 -91.32556,484.40358 C -89.95693,483.70757 -88.48059,483.35955 -86.89654,483.35952 C -85.12054,483.35955 -83.54822,483.68376 -82.17957,484.33214 C -80.81095,484.9806 -79.5262,486.09683 -78.32532,487.68084 C -77.12449,489.26492 -76.52406,491.3296 -76.52404,493.87489 L -76.52404,507.55981 C -76.52406,510.15203 -77.10031,512.22843 -78.25279,513.78903 C -79.40531,515.34963 -80.70178,516.52631 -82.1422,517.31906 C -83.58266,518.11181 -85.04728,518.50819 -86.53606,518.50819 C -88.60075,518.50819 -90.48556,517.99202 -92.19049,516.95968 C -93.89543,515.92734 -95.07211,514.77484 -95.72052,513.50218 C -96.36894,512.22953 -96.76496,511.17301 -96.90856,510.33263 C -97.05216,509.49225 -97.12397,508.56798 -97.12396,507.55981 L -97.12396,493.87489 C -97.12397,491.28124 -96.37957,489.0964 -94.89077,487.32036 L -94.89077,487.32036 z M -86.75366,490.05691 C -87.80873,490.05694 -88.64838,490.41705 -89.27261,491.13724 C -89.89686,491.85749 -90.20897,492.77004 -90.20897,493.87489 L -90.20897,507.55981 C -90.20897,508.6647 -89.90894,509.61315 -89.30887,510.40516 C -88.70882,511.19719 -87.85709,511.5932 -86.75366,511.59319 C -85.26488,511.5932 -84.34024,511.16092 -83.97975,510.29636 C -83.61929,509.43181 -83.43905,508.47127 -83.43904,507.41474 L -83.43904,493.87489 C -83.43905,492.81839 -83.73908,491.91793 -84.33913,491.17351 C -84.93921,490.42914 -85.74405,490.05694 -86.75366,490.05691 L -86.75366,490.05691 z M -55.17239,483.35952 L -55.17239,490.41739 C -55.50797,490.32217 -55.8439,490.25036 -56.18018,490.20198 C -56.5165,490.15365 -56.82899,490.12947 -57.11764,490.12945 C -59.3743,490.12947 -61.10268,490.89768 -62.30279,492.43408 C -63.50293,493.97052 -64.10299,495.81943 -64.10298,497.9808 L -64.10298,518.07518 L -71.01798,518.07518 L -71.01798,483.79033 L -64.10298,483.79033 L -64.10298,487.46543 C -62.90287,485.97667 -61.42653,484.92015 -59.67395,484.29588 C -57.92141,483.67167 -56.42089,483.35955 -55.17239,483.35952 L -55.17239,483.35952 z M -32.38982,527.51132 C -33.35111,528.95175 -34.57577,530.09216 -36.06382,530.93255 C -37.5519,531.77292 -39.13631,532.1931 -40.81706,532.19312 C -43.74631,532.1931 -46.25535,531.19667 -48.34421,529.2038 C -50.43307,527.21091 -51.4775,524.72568 -51.4775,521.74809 L -44.5625,521.74809 C -44.56251,522.70935 -44.25039,523.52592 -43.62614,524.19779 C -43.00191,524.86965 -42.18571,525.20558 -41.17753,525.20559 C -39.73711,525.20558 -38.68059,524.55716 -38.00798,523.26033 C -37.81603,522.78116 -37.72005,522.01331 -37.72004,520.9568 L -37.72004,514.54515 C -38.39265,515.69838 -39.3052,516.6472 -40.45768,517.39159 C -41.61019,518.13599 -42.83486,518.50819 -44.13169,518.50819 C -45.52378,518.50819 -46.80779,518.13599 -47.98373,517.39159 C -49.15968,516.6472 -50.00006,515.79473 -50.50487,514.83419 C -51.00969,513.87365 -51.29799,513.10544 -51.36979,512.52955 C -51.4416,511.95368 -51.4775,511.06494 -51.4775,509.86335 L -51.4775,490.8504 C -51.4775,489.98587 -51.36943,489.19348 -51.15329,488.47323 C -50.93715,487.75304 -50.33672,486.70861 -49.352,485.33994 C -48.36729,483.97134 -46.65063,483.28702 -44.20202,483.28698 C -42.90666,483.28702 -41.70654,483.61123 -40.60165,484.25961 C -39.49679,484.90806 -38.53625,485.80815 -37.72004,486.95989 L -37.72004,483.79033 L -30.80504,483.79033 L -30.80504,520.9568 C -30.80506,522.30052 -30.91313,523.48855 -31.12925,524.5209 C -31.34541,525.55323 -31.7656,526.55004 -32.38982,527.51132 L -32.38982,527.51132 z M -38.36845,491.42628 C -39.08942,490.46504 -40.02578,489.9844 -41.17753,489.98438 C -42.52274,489.9844 -43.39939,490.38078 -43.80748,491.17351 C -44.21559,491.96629 -44.44345,492.56672 -44.49106,492.97479 C -44.5387,493.38292 -44.56251,493.80311 -44.5625,494.23536 L -44.5625,507.27187 C -44.56251,507.94448 -44.52661,508.48483 -44.4548,508.89292 C -44.383,509.30103 -44.10678,509.84101 -43.62614,510.51286 C -43.14551,511.18473 -42.28169,511.52067 -41.03466,511.52066 C -39.54588,511.52067 -38.63333,511.10048 -38.29702,510.26009 C -37.96074,509.41972 -37.79259,508.78339 -37.79257,508.3511 C -37.79259,507.91883 -37.76841,507.55909 -37.72004,507.27187 L -37.72004,494.23536 C -37.72005,493.56279 -37.75632,493.03453 -37.82884,492.65058 C -37.90139,492.26669 -38.08126,491.85859 -38.36845,491.42628 L -38.36845,491.42628 z M -10.97882,518.07518 L -10.97882,514.61768 C -11.79504,515.86616 -12.6955,516.8267 -13.6802,517.4993 C -14.66493,518.17189 -15.85333,518.50819 -17.2454,518.50819 C -18.6375,518.50819 -19.94569,518.1239 -21.16998,517.35533 C -22.39429,516.58675 -23.24676,515.71047 -23.72739,514.72648 C -24.20803,513.7425 -24.48425,512.93839 -24.55605,512.31415 C -24.62785,511.68991 -24.66375,510.777 -24.66375,509.5754 L -24.66375,483.79033 L -17.74875,483.79033 L -17.74875,506.98393 C -17.74876,507.51147 -17.73667,508.05145 -17.71248,508.60388 C -17.68832,509.15632 -17.42419,509.79265 -16.92009,510.51286 C -16.41602,511.23309 -15.53974,511.5932 -14.29125,511.59319 C -13.66703,511.5932 -13.09114,511.42505 -12.5636,511.08875 C -12.03609,510.75246 -11.66426,510.35644 -11.4481,509.90071 C -11.23198,509.445 -11.09973,508.95301 -11.05136,508.42474 C -11.00302,507.89649 -10.97884,507.41622 -10.97882,506.98393 L -10.97882,483.79033 L -4.06383,483.79033 L -4.06383,518.07518 L -10.97882,518.07518 z M 21.51024,486.88735 C 21.8956,487.46473 22.1601,488.16151 22.30373,488.97768 C 22.44731,489.79391 22.51911,490.61011 22.51913,491.42628 L 22.51913,518.07518 L 15.60413,518.07518 L 15.60413,493.94742 C 15.60412,491.40213 14.4758,490.12947 12.21917,490.12945 C 11.211,490.12947 10.3948,490.51376 9.77057,491.28231 C 9.14632,492.05091 8.8342,492.93928 8.83421,493.94742 L 8.83421,518.07518 L 1.91921,518.07518 L 1.91921,483.79033 L 8.83421,483.79033 L 8.83421,487.10496 C 10.37135,484.60803 12.50856,483.35955 15.24586,483.35952 C 18.03001,483.35955 20.11813,484.5355 21.51024,486.88735 L 21.51024,486.88735 z M 47.0909,527.51132 C 46.1296,528.95175 44.90494,530.09216 43.41689,530.93255 C 41.92881,531.77292 40.3444,532.1931 38.66366,532.19312 C 35.73441,532.1931 33.22536,531.19667 31.13651,529.2038 C 29.04764,527.21091 28.00321,524.72568 28.00322,521.74809 L 34.91821,521.74809 C 34.9182,522.70935 35.23032,523.52592 35.85457,524.19779 C 36.4788,524.86965 37.295,525.20558 38.30318,525.20559 C 39.74361,525.20558 40.80012,524.55716 41.47274,523.26033 C 41.66468,522.78116 41.76066,522.01331 41.76068,520.9568 L 41.76068,514.54515 C 41.08807,515.69838 40.17552,516.6472 39.02303,517.39159 C 37.87052,518.13599 36.64585,518.50819 35.34903,518.50819 C 33.95693,518.50819 32.67292,518.13599 31.49698,517.39159 C 30.32103,516.6472 29.48065,515.79473 28.97584,514.83419 C 28.47103,513.87365 28.18272,513.10544 28.11092,512.52955 C 28.03911,511.95368 28.00321,511.06494 28.00322,509.86335 L 28.00322,490.8504 C 28.00321,489.98587 28.11128,489.19348 28.32743,488.47323 C 28.54356,487.75304 29.14399,486.70861 30.12871,485.33994 C 31.11342,483.97134 32.83008,483.28702 35.27869,483.28698 C 36.57405,483.28702 37.77417,483.61123 38.87906,484.25961 C 39.98392,484.90806 40.94446,485.80815 41.76068,486.95989 L 41.76068,483.79033 L 48.67568,483.79033 L 48.67568,520.9568 C 48.67565,522.30052 48.56758,523.48855 48.35147,524.5209 C 48.1353,525.55323 47.71511,526.55004 47.0909,527.51132 L 47.0909,527.51132 z M 41.11226,491.42628 C 40.39129,490.46504 39.45493,489.9844 38.30318,489.98438 C 36.95797,489.9844 36.08133,490.38078 35.67324,491.17351 C 35.26513,491.96629 35.03726,492.56672 34.98965,492.97479 C 34.94202,493.38292 34.9182,493.80311 34.91821,494.23536 L 34.91821,507.27187 C 34.9182,507.94448 34.95411,508.48483 35.02592,508.89292 C 35.09771,509.30103 35.37393,509.84101 35.85457,510.51286 C 36.3352,511.18473 37.19902,511.52067 38.44605,511.52066 C 39.93483,511.52067 40.84738,511.10048 41.18369,510.26009 C 41.51998,509.41972 41.68813,508.78339 41.68814,508.3511 C 41.68813,507.91883 41.7123,507.55909 41.76068,507.27187 L 41.76068,494.23536 C 41.76066,493.56279 41.72439,493.03453 41.65187,492.65058 C 41.57932,492.26669 41.39945,491.85859 41.11226,491.42628 L 41.11226,491.42628 z M 63.53215,512.02401 C 64.58865,512.02401 65.50083,511.68808 66.26869,511.01621 C 67.03652,510.34436 67.42044,509.48017 67.42046,508.42364 C 67.42044,507.17517 67.0966,506.2509 66.44893,505.65082 C 65.80123,505.05078 64.78061,504.51043 63.38708,504.02978 L 62.0199,503.52643 C 60.57945,502.99745 59.37896,502.48092 58.41843,501.97682 C 57.45789,501.47275 56.42555,500.56057 55.32141,499.24027 C 54.21727,497.92001 53.66519,496.01139 53.6652,493.51441 C 53.66519,490.68191 54.64954,488.2813 56.61825,486.31257 C 58.58694,484.3439 61.01173,483.35955 63.89262,483.35952 C 66.53317,483.35955 68.76564,484.36771 70.59002,486.384 C 72.41436,488.40036 73.32654,490.68118 73.32656,493.22647 L 66.98965,493.22647 C 66.98963,492.21833 66.66542,491.39004 66.01702,490.7416 C 65.36859,490.09321 64.51612,489.769 63.45961,489.76897 C 62.4998,489.769 61.70777,490.12911 61.08354,490.8493 C 60.45929,491.56955 60.14717,492.43374 60.14718,493.44187 C 60.14717,494.49842 60.45929,495.31498 61.08354,495.89158 C 61.70777,496.46822 62.61995,496.97266 63.82009,497.40492 L 66.05329,498.12368 C 67.35011,498.60433 68.37036,499.06079 69.11404,499.49305 C 69.85769,499.92534 70.60172,500.5734 71.34614,501.4372 C 72.09052,502.30104 72.70303,503.30921 73.18369,504.46169 C 73.6643,505.6142 73.90462,506.83887 73.90464,508.1357 C 73.90462,510.92134 72.90818,513.35822 70.91533,515.44634 C 68.92243,517.53447 66.53317,518.57853 63.74755,518.57853 C 62.06678,518.57853 60.3743,518.12244 58.67011,517.21026 C 56.9659,516.29808 55.64562,515.06169 54.70926,513.50108 C 53.7729,511.94049 53.30472,510.17621 53.30472,508.20823 L 59.71417,508.20823 C 59.71416,509.26476 60.08636,510.16485 60.83077,510.90851 C 61.57516,511.65218 62.47562,512.02401 63.53215,512.02401 L 63.53215,512.02401 z M 91.98781,518.07518 L 91.98781,514.54515 C 91.3152,515.69838 90.42683,516.6472 89.3227,517.39159 C 88.21855,518.13599 86.99388,518.50819 85.6487,518.50819 C 82.52749,518.50819 80.55879,517.65572 79.7426,515.95079 C 78.92639,514.24585 78.48239,513.02119 78.41059,512.27678 C 78.33878,511.53239 78.30288,510.53595 78.30289,509.28746 L 78.30289,490.77786 C 78.30288,488.71321 78.99893,486.96065 80.39101,485.52018 C 81.78309,484.07977 83.53565,483.35955 85.6487,483.35952 C 86.94552,483.35955 88.1581,483.69548 89.28644,484.36731 C 90.41474,485.03921 91.3152,485.92758 91.98781,487.03242 L 91.98781,470.03507 L 98.90281,470.03507 L 98.90281,518.07518 L 91.98781,518.07518 z M 91.48227,491.78676 C 90.81112,490.63355 89.82714,490.05694 88.53031,490.05691 C 87.8577,490.05694 87.24555,490.23718 86.69386,490.59763 C 86.14215,490.95813 85.76995,491.39041 85.57726,491.89446 C 85.38456,492.39857 85.27649,492.92683 85.25305,493.47924 C 85.2296,494.0317 85.21787,494.45153 85.21788,494.73871 L 85.21788,507.05427 C 85.21787,507.53491 85.2296,508.01555 85.25305,508.49617 C 85.27649,508.97682 85.50435,509.60106 85.93664,510.36889 C 86.36891,511.13674 87.25764,511.52067 88.60285,511.52066 C 89.99492,511.52067 90.9071,511.13674 91.33939,510.36889 C 91.77166,509.60106 91.9878,508.83248 91.98781,508.06316 L 91.98781,507.05427 L 91.98781,494.73871 C 91.9878,494.2581 91.97571,493.76574 91.95155,493.26164 C 91.92735,492.75758 91.77092,492.26595 91.48227,491.78676 L 91.48227,491.78676 z M 104.82432,518.07518 L 104.82432,483.79033 L 111.73932,483.79033 L 111.73932,518.07518 L 104.82432,518.07518 z M 104.82432,476.805 L 104.82432,470.03507 L 111.73932,470.03507 L 111.73932,476.805 L 104.82432,476.805 z M 127.34532,511.52066 C 128.35493,511.52067 129.1715,511.20855 129.79502,510.5843 C 130.41851,509.96007 130.8028,509.14387 130.94789,508.1357 L 137.79035,508.1357 L 137.79035,508.92699 C 137.79033,509.98351 137.5621,511.04003 137.10566,512.09654 C 136.64919,513.15307 135.70074,514.4858 134.26032,516.09476 C 132.81986,517.70371 130.56322,518.50819 127.49039,518.50819 C 125.52094,518.50819 123.70794,517.97993 122.05137,516.92341 C 120.39478,515.8669 119.25437,514.70231 118.63014,513.42965 C 118.00589,512.15699 117.60988,511.0045 117.4421,509.97215 C 117.27432,508.93982 117.19042,507.91957 117.19043,506.91139 L 117.19043,493.87489 C 117.19042,491.04239 118.21067,488.5817 120.25118,486.49281 C 122.29168,484.40398 124.72892,483.35955 127.56292,483.35952 C 130.49215,483.35955 132.92903,484.3798 134.87357,486.42027 C 136.81807,488.4608 137.79033,490.94567 137.79035,493.87489 L 137.79035,503.38136 L 124.10542,503.38136 L 124.10542,508.49617 C 124.10541,509.21567 124.45344,509.89962 125.14949,510.54803 C 125.84552,511.19646 126.57746,511.52067 127.34532,511.52066 L 127.34532,511.52066 z M 127.49039,490.12945 C 126.57746,490.12947 125.78507,490.44159 125.11322,491.06581 C 124.44135,491.69007 124.10541,492.79421 124.10542,494.37823 L 124.10542,497.7632 L 130.87535,497.7632 L 130.87535,494.37823 C 130.87534,493.12978 130.61121,492.10953 130.08296,491.31748 C 129.55469,490.52548 128.6905,490.12947 127.49039,490.12945 L 127.49039,490.12945 z M 162.74675,486.88735 C 163.13211,487.46473 163.39661,488.16151 163.54024,488.97768 C 163.68382,489.79391 163.75562,490.61011 163.75564,491.42628 L 163.75564,518.07518 L 156.84065,518.07518 L 156.84065,493.94742 C 156.84063,491.40213 155.71231,490.12947 153.45568,490.12945 C 152.44751,490.12947 151.63131,490.51376 151.00708,491.28231 C 150.38283,492.05091 150.07071,492.93928 150.07072,493.94742 L 150.07072,518.07518 L 143.15572,518.07518 L 143.15572,483.79033 L 150.07072,483.79033 L 150.07072,487.10496 C 151.60786,484.60803 153.74508,483.35955 156.48237,483.35952 C 159.26652,483.35955 161.35464,484.5355 162.74675,486.88735 L 162.74675,486.88735 z M 178.60334,512.02401 C 179.65985,512.02401 180.57203,511.68808 181.33989,511.01621 C 182.10772,510.34436 182.49164,509.48017 182.49166,508.42364 C 182.49164,507.17517 182.1678,506.2509 181.52013,505.65082 C 180.87243,505.05078 179.85181,504.51043 178.45827,504.02978 L 177.0911,503.52643 C 175.65065,502.99745 174.45016,502.48092 173.48963,501.97682 C 172.52909,501.47275 171.49675,500.56057 170.39261,499.24027 C 169.28846,497.92001 168.73639,496.01139 168.73639,493.51441 C 168.73639,490.68191 169.72074,488.2813 171.68945,486.31257 C 173.65814,484.3439 176.08293,483.35955 178.96382,483.35952 C 181.60437,483.35955 183.83683,484.36771 185.66121,486.384 C 187.48556,488.40036 188.39774,490.68118 188.39776,493.22647 L 182.06084,493.22647 C 182.06083,492.21833 181.73662,491.39004 181.08822,490.7416 C 180.43978,490.09321 179.58732,489.769 178.53081,489.76897 C 177.57099,489.769 176.77897,490.12911 176.15474,490.8493 C 175.53049,491.56955 175.21837,492.43374 175.21838,493.44187 C 175.21837,494.49842 175.53049,495.31498 176.15474,495.89158 C 176.77897,496.46822 177.69115,496.97266 178.89129,497.40492 L 181.12448,498.12368 C 182.4213,498.60433 183.44156,499.06079 184.18524,499.49305 C 184.92889,499.92534 185.67292,500.5734 186.41734,501.4372 C 187.16171,502.30104 187.77423,503.30921 188.25489,504.46169 C 188.7355,505.6142 188.97582,506.83887 188.97584,508.1357 C 188.97582,510.92134 187.97938,513.35822 185.98652,515.44634 C 183.99363,517.53447 181.60437,518.57853 178.81875,518.57853 C 177.13798,518.57853 175.4455,518.12244 173.74131,517.21026 C 172.0371,516.29808 170.71681,515.06169 169.78046,513.50108 C 168.8441,511.94049 168.37592,510.17621 168.37592,508.20823 L 174.78537,508.20823 C 174.78536,509.26476 175.15756,510.16485 175.90197,510.90851 C 176.64636,511.65218 177.54681,512.02401 178.60334,512.02401 L 178.60334,512.02401 z M 203.88945,511.52066 L 205.47423,511.52066 L 205.47423,518.07518 L 203.31357,518.07518 C 202.01672,518.07518 200.86422,517.9433 199.85607,517.67954 C 198.8479,517.41577 197.86355,516.87542 196.90302,516.05849 C 195.94248,515.24156 195.27025,514.3411 194.88633,513.35711 C 194.5024,512.37313 194.31044,511.16092 194.31044,509.72047 L 194.31044,489.19309 L 190.92548,489.19309 L 190.92548,483.79033 L 194.31044,483.79033 L 194.31044,473.42003 L 201.22544,473.42003 L 201.22544,483.79033 L 205.47423,483.79033 L 205.47423,489.19309 L 201.22544,489.19309 L 201.22544,508.49617 C 201.22543,509.64795 201.38149,510.43997 201.69362,510.87224 C 202.00573,511.30453 202.73767,511.52067 203.88945,511.52066 L 203.88945,511.52066 z "
       style="font-size:72.02500153px;font-style:normal;font-variant:normal;font-weight:normal;font-stretch:normal;text-align:center;line-height:100%;writing-mode:lr-tb;text-anchor:middle;fill:black;fill-opacity:1;stroke:none;stroke-width:1px;stroke-linecap:butt;stroke-linejoin:miter;stroke-opacity:1;font-family:DIN 1451 Engschrift"
       id="text2100" />
    <path
       d="M -38.18382,589.82838 L -38.18382,558.95048 L -41.87651,558.95048 L -41.87651,553.32352 L -38.18382,553.32352 L -38.18382,548.50544 C -38.18383,545.10587 -37.24601,542.60305 -35.37035,540.99698 C -33.49471,539.391 -31.1267,538.58799 -28.26632,538.58794 L -23.51858,538.58794 L -23.51858,545.48096 L -27.66846,545.48096 C -29.80202,545.481 -30.8688,546.48916 -30.86879,548.50544 L -30.86879,553.32352 L -23.51858,553.32352 L -23.51858,558.95048 L -30.86879,558.95048 L -30.86879,589.82838 L -38.18382,589.82838 z M -19.3687,589.82838 L -19.3687,553.32352 L -12.01849,553.32352 L -12.01849,557.22722 L -11.87782,557.22722 C -9.60361,554.34344 -6.43845,552.90154 -2.38234,552.9015 C 0.29044,552.90154 2.83429,553.83936 5.24922,555.71498 L -0.06122,562.0453 C -1.65554,560.8496 -3.27329,560.25174 -4.91446,560.25171 C -6.7198,560.25174 -8.35513,560.85546 -9.82046,562.06288 C -11.28583,563.27036 -12.0185,565.21049 -12.01849,567.88326 L -12.01849,589.82838 L -19.3687,589.82838 z M 36.90083,574.35426 L 14.18201,574.35426 C 14.182,577.35532 14.99673,579.60609 16.62622,581.1066 C 18.25567,582.60713 20.33647,583.35739 22.86862,583.35739 C 25.89308,583.35739 28.56588,582.18511 30.88703,579.84054 L 36.19746,584.37727 C 34.39212,586.48738 32.35821,587.99376 30.09574,588.89642 C 27.83321,589.79908 25.47106,590.2504 23.00929,590.2504 C 19.25797,590.2504 15.6239,589.03709 12.10707,586.61047 C 8.59022,584.18385 6.8318,579.21924 6.8318,571.71663 C 6.8318,564.61262 8.45541,559.70077 11.70263,556.98104 C 14.94984,554.26138 18.3436,552.90154 21.8839,552.9015 C 25.89308,552.90154 29.3982,554.29069 32.39927,557.06896 C 35.40028,559.8473 36.9008,563.59274 36.90083,568.30529 L 36.90083,574.35426 z M 14.18201,568.30529 L 29.58579,568.30529 C 29.46854,565.56217 28.69483,563.46379 27.26468,562.01013 C 25.83447,560.55653 24.04088,559.82972 21.8839,559.82969 C 19.70344,559.82972 17.89227,560.55653 16.45037,562.01013 C 15.00846,563.46379 14.25234,565.56217 14.18201,568.30529 L 14.18201,568.30529 z M 44.8489,589.82838 L 44.8489,553.32352 L 52.19911,553.32352 L 52.19911,589.82838 L 44.8489,589.82838 z M 44.8489,545.93815 L 44.8489,538.58794 L 52.19911,538.58794 L 52.19911,545.93815 L 44.8489,545.93815 z "
       style="font-size:72.02500153px;font-style:normal;font-variant:normal;font-weight:normal;font-stretch:normal;text-align:center;line-height:100%;writing-mode:lr-tb;text-anchor:middle;fill:black;fill-opacity:1;stroke:none;stroke-width:1px;stroke-linecap:butt;stroke-linejoin:miter;stroke-opacity:1;font-family:DIN 1451 Mittelschrift"
       id="text1889" />
  </g>
</svg>
