<?xml version="1.0" encoding="UTF-8" standalone="no"?>
<!-- Created with Inkscape (http://www.inkscape.org/) -->
<svg
   xmlns:svg="http://www.w3.org/2000/svg"
   xmlns="http://www.w3.org/2000/svg"
   version="1.0"
   width="490"
   height="270"
   id="svg2">
  <defs
     id="defs4" />
  <path
     d="M 38.78125,4.984375 C 20.356889,4.9843748 9.96875,12.12016 9.96875,33.203125 L 9.65625,236.79688 C 9.65625,257.87984 20.044391,265.01563 38.46875,265.01563 L 451.21875,264.98438 C 469.64311,264.98438 480.03124,257.84859 480.03125,236.76563 L 480.34375,33.234375 C 480.34375,12.15141 469.95561,5.0156248 451.53125,5.015625 L 38.78125,4.984375 z "
     style="fill:white;fill-opacity:1;fill-rule:evenodd;stroke:black;stroke-width:2;stroke-linecap:butt;stroke-linejoin:miter;stroke-miterlimit:4;stroke-dasharray:none;stroke-opacity:1"
     id="path1881" />
  <path
     d="M 453.3125,17.796875 L 36.78125,17.828125 C 28.356999,17.828125 23.40625,23.829135 23.40625,32.703125 L 23.40625,237.35938 C 23.406249,246.23335 28.35701,252.23438 36.78125,252.23438 L 453.28125,252.20313 C 461.70549,252.20312 466.65625,246.20211 466.65625,237.32813 L 466.65625,32.671875 C 466.65625,23.797885 461.73674,17.796875 453.3125,17.796875 z "
     style="fill:none;fill-opacity:1;fill-rule:evenodd;stroke:black;stroke-width:10.05090809;stroke-linecap:butt;stroke-linejoin:miter;stroke-miterlimit:4;stroke-dasharray:none;stroke-opacity:1"
     id="path3976" />
  <g
     transform="translate(143.5177,-373.1291)"
     id="g3679">
    <path
       d="M -29.96237,471.44013 L -29.96237,431.47131 L 49.11674,431.47131 L 49.11674,451.40802 L 2.08899,570.45595 L -20.23249,570.45595 L 26.89064,451.40802 L -10.02566,451.40802 L -10.02566,471.44013 L -29.96237,471.44013 z "
       style="font-size:195.36070251px;font-style:normal;font-variant:normal;font-weight:normal;font-stretch:normal;text-indent:0;text-align:center;text-decoration:none;line-height:100%;letter-spacing:normal;word-spacing:normal;text-transform:none;direction:ltr;block-progression:tb;writing-mode:lr-tb;text-anchor:middle;color:black;fill:black;fill-opacity:1;fill-rule:nonzero;stroke:none;stroke-width:1;stroke-linecap:round;stroke-linejoin:miter;marker:none;marker-start:none;marker-mid:none;marker-end:none;stroke-miterlimit:4;stroke-dashoffset:0;stroke-opacity:1;visibility:visible;display:inline;overflow:visible;font-family:DIN 1451 Mittelschrift"
       id="text3358" />
    <path
       d="M 48.69418,584.78687 L 48.69418,550.54151 L 68.63089,550.54151 L 68.63089,570.38283 L 48.69418,584.78687 z "
       style="font-size:195.36070251px;font-style:normal;font-variant:normal;font-weight:normal;font-stretch:normal;text-indent:0;text-align:center;text-decoration:none;line-height:100%;letter-spacing:normal;word-spacing:normal;text-transform:none;direction:ltr;block-progression:tb;writing-mode:lr-tb;text-anchor:middle;color:black;fill:black;fill-opacity:1;fill-rule:nonzero;stroke:none;stroke-width:1;stroke-linecap:round;stroke-linejoin:miter;marker:none;marker-start:none;marker-mid:none;marker-end:none;stroke-miterlimit:4;stroke-dashoffset:0;stroke-opacity:1;visibility:visible;display:inline;overflow:visible;font-family:DIN 1451 Mittelschrift"
       id="text3362" />
    <path
       d="M 92.05704,519.5662 L 92.05704,459.17295 L 151.53059,459.17295 L 151.53059,475.19096 L 107.15535,475.19096 L 107.15535,500.4059 C 112.26473,496.31845 118.21719,494.27469 125.01274,494.27461 C 129.25351,494.27469 133.12389,495.09219 136.62388,496.72713 C 140.12377,498.36221 142.89563,500.27824 144.93945,502.47522 C 148.00503,505.7964 150.2404,509.4113 151.64555,513.31994 C 153.05057,517.2287 153.75312,523.80706 153.75319,533.05505 C 153.75312,540.56591 153.20385,546.14794 152.1054,549.80114 C 151.00681,553.45439 149.25684,556.81383 146.85548,559.87946 C 144.55618,562.79183 141.33726,565.49982 137.19869,568.00342 C 133.06002,570.50704 128.20608,571.75884 122.63687,571.75884 C 115.43256,571.75884 108.48377,569.53625 101.79047,565.09106 C 95.09713,560.64588 91.16288,553.21169 89.98772,542.78848 L 106.00573,542.78848 C 107.89619,551.4745 113.23552,555.81749 122.02374,555.81748 C 129.84109,555.81749 134.41401,553.13505 135.74251,547.77015 C 137.0709,542.4053 137.73513,537.09151 137.73518,531.82879 C 137.73513,525.64644 136.6877,520.51149 134.59289,516.42391 C 132.49798,512.33644 128.15499,510.29268 121.56389,510.29262 C 115.38147,510.29268 110.57863,513.38387 107.15535,519.5662 L 92.05704,519.5662 z "
       style="font-size:156.96113586px;font-style:normal;font-variant:normal;font-weight:normal;font-stretch:normal;text-indent:0;text-align:center;text-decoration:none;line-height:100%;letter-spacing:normal;word-spacing:normal;text-transform:none;direction:ltr;block-progression:tb;writing-mode:lr-tb;text-anchor:middle;color:black;fill:black;fill-opacity:1;fill-rule:nonzero;stroke:none;stroke-width:1;stroke-linecap:round;stroke-linejoin:miter;marker:none;marker-start:none;marker-mid:none;marker-end:none;stroke-miterlimit:4;stroke-dashoffset:0;stroke-opacity:1;visibility:visible;display:inline;overflow:visible;font-family:DIN 1451 Mittelschrift"
       id="text3366" />
    <path
       d="M 198.49086,471.73665 L 198.49086,441.68849 L 218.42757,441.68849 L 218.42757,471.73665 L 232.927,471.73665 L 232.927,486.9992 L 218.42757,486.9992 L 218.42757,544.61535 C 218.42754,549.5757 220.78052,552.05586 225.48651,552.05584 L 232.927,552.05584 L 232.927,570.75247 L 222.52939,570.75247 C 215.59761,570.75247 209.85826,568.65387 205.31132,564.45667 C 200.76433,560.25948 198.49085,554.24985 198.49086,546.42778 L 198.49086,486.9992 L 188.5702,486.9992 L 188.5702,471.73665 L 198.49086,471.73665 z "
       style="font-size:195.36070251px;font-style:normal;font-variant:normal;font-weight:normal;font-stretch:normal;text-indent:0;text-align:center;text-decoration:none;line-height:100%;letter-spacing:normal;word-spacing:normal;text-transform:none;direction:ltr;block-progression:tb;writing-mode:lr-tb;text-anchor:middle;color:black;fill:black;fill-opacity:1;fill-rule:nonzero;stroke:none;stroke-width:1;stroke-linecap:round;stroke-linejoin:miter;marker:none;marker-start:none;marker-mid:none;marker-end:none;stroke-miterlimit:4;stroke-dashoffset:0;stroke-opacity:1;visibility:visible;display:inline;overflow:visible;font-family:DIN 1451 Mittelschrift"
       id="text3370" />
  </g>
</svg>
