<?xml version="1.0" encoding="UTF-8" standalone="no"?>
<!-- Created with Inkscape (http://www.inkscape.org/) -->

<!-- viewBox fix by in[k]firmary (http://inkfirmary.48design.de) -->
<svg
   xmlns:dc="http://purl.org/dc/elements/1.1/"
   xmlns:cc="http://creativecommons.org/ns#"
   xmlns:rdf="http://www.w3.org/1999/02/22-rdf-syntax-ns#"
   xmlns:svg="http://www.w3.org/2000/svg"
   xmlns="http://www.w3.org/2000/svg"
   xmlns:sodipodi="http://sodipodi.sourceforge.net/DTD/sodipodi-0.dtd"
   xmlns:inkscape="http://www.inkscape.org/namespaces/inkscape"
   version="1.0"
   width="100%"
   height="100%"
   id="svg1961"
   inkscape:version="0.47 r22583"
   sodipodi:docname="Zeichen_274.1.svg"
   viewBox="0 0 600 600">
  <metadata
     id="metadata17">
    <rdf:RDF>
      <cc:Work
         rdf:about="">
        <dc:format>image/svg+xml</dc:format>
        <dc:type
           rdf:resource="http://purl.org/dc/dcmitype/StillImage" />
      </cc:Work>
    </rdf:RDF>
  </metadata>
  <sodipodi:namedview
     pagecolor="#ffffff"
     bordercolor="#666666"
     borderopacity="1"
     objecttolerance="10"
     gridtolerance="10"
     guidetolerance="10"
     inkscape:pageopacity="0"
     inkscape:pageshadow="2"
     inkscape:window-width="1280"
     inkscape:window-height="752"
     id="namedview15"
     showgrid="false"
     inkscape:zoom="0.774375"
     inkscape:cx="298.72881"
     inkscape:cy="297.45763"
     inkscape:window-x="0"
     inkscape:window-y="0"
     inkscape:window-maximized="0"
     inkscape:current-layer="svg1961" />
  <defs
     id="defs1963">
    <inkscape:perspective
       sodipodi:type="inkscape:persp3d"
       inkscape:vp_x="0 : 300 : 1"
       inkscape:vp_y="0 : 1000 : 0"
       inkscape:vp_z="600 : 300 : 1"
       inkscape:persp3d-origin="300 : 200 : 1"
       id="perspective19" />
  </defs>
  <path
     d="m 46.33897,592.51787 c -8.69892,-0.0279 -21.66721,-5.02155 -27.58025,-11.70071 l -2.92518,-3.34306 -2.50729,-3.76095 -2.5073,-4.17882 -1.67153,-4.59671 -0.83576,-4.59671 -0.83577,-4.59671 0,-509.39891 C 8.20718,33.72524 10.97217,28.46688 18.75872,18.76504 l 3.76094,-2.92518 3.76095,-2.50729 4.17882,-2.5073 4.59671,-1.67153 9.19342,-1.67153 508.98103,0 c 11.76339,0.49449 18.86043,3.3152 27.58025,11.28283 l 3.34306,3.76094 2.5073,3.76095 2.08941,4.17882 1.67153,4.59671 1.25365,4.59671 0.83576,4.59671 0,508.98103 c 0.30645,7.80047 -5.04245,22.8721 -11.70071,27.58025 l -3.34306,3.34306 -3.76095,2.5073 -4.17882,2.08941 -4.59671,1.67153 -4.59671,1.25365 -4.59671,0.83576 -509.39891,0"
     style="fill:#fffefe;fill-rule:evenodd;stroke:#000000;stroke-opacity:1"
     id="path46" />
  <path
     d="m 46.33897,592.51787 -2.08941,0 m 0,0 -4.59671,-0.83576 m 0,0 -4.59671,-1.25365 m 0,0 -4.59671,-1.67153 m 0,0 -4.17882,-2.08941 m 0,0 -3.76095,-2.5073 m 0,0 -3.76094,-3.34306 m 0,0 -2.92518,-3.34306 m 0,0 -2.50729,-3.76095 m 0,0 -2.5073,-4.17882 m 0,0 -1.67153,-4.59671 m 0,0 -0.83576,-4.59671 m 0,0 -0.83577,-4.59671 m 0,0 0,-2.50729 0,-506.89162 0,-2.08941 m 0,0 0.83577,-4.59671 m 0,0 0.83576,-4.59671 m 0,0 1.67153,-4.59671 m 0,0 2.5073,-4.17882 m 0,0 2.50729,-3.76095 m 0,0 2.92518,-3.76094 m 0,0 3.76094,-2.92518 m 0,0 3.76095,-2.50729 m 0,0 4.17882,-2.5073 m 0,0 4.59671,-1.67153 m 0,0 4.59671,-0.83576 4.59671,-0.83577 m 0,0 2.08941,0 506.89162,0 2.50729,0 m 0,0 4.59671,0.83577 4.59671,0.83576 m 0,0 4.59671,1.67153 m 0,0 4.17882,2.5073 m 0,0 3.76095,2.50729 m 0,0 3.34306,2.92518 m 0,0 3.34306,3.76094 m 0,0 2.5073,3.76095 m 0,0 2.08941,4.17882 m 0,0 1.67153,4.59671 m 0,0 1.25365,4.59671 m 0,0 0.83576,4.59671 m 0,0 0,2.08941 0,506.89162 0,2.50729 m 0,0 -0.83576,4.59671 m 0,0 -1.25365,4.59671 m 0,0 -1.67153,4.59671 m 0,0 -2.08941,4.17882 m 0,0 -2.5073,3.76095 m 0,0 -3.34306,3.34306 -3.34306,3.34306 m 0,0 -3.76095,2.5073 m 0,0 -4.17882,2.08941 m 0,0 -4.59671,1.67153 m 0,0 -4.59671,1.25365 m 0,0 -4.59671,0.83576 m 0,0 -2.50729,0 m 0,0 -506.89162,0"
     id="path48" />
  <path
     d="m 46.33897,582.48869 c -7.5776,0.0975 -15.00895,-3.18984 -20.47624,-8.35765 l -2.5073,-2.5073 -2.08941,-3.34306 -1.25365,-2.92518 -1.25365,-3.34306 -0.83576,-3.34306 -0.41789,-3.34306 -0.41788,-2.08941 0,-506.89162 c 1.184,-6.97167 2.75106,-15.85168 8.77554,-20.47624 l 2.50729,-2.5073 2.92518,-2.08941 6.68612,-2.5073 3.34306,-0.83576 3.34306,-0.41789 1.67153,-0.41092 506.89162,0 c 7.43831,1.03775 15.7681,2.76499 20.89413,8.77554 l 2.08941,2.5073 2.08941,2.91821 1.67153,3.34306 1.25365,3.34306 0.83577,3.34306 0.41788,3.34306 0,508.56315 c 0.32038,7.78654 -3.30824,15.16914 -8.35765,20.89413 l -2.5073,2.08941 -3.34306,2.08941 -2.92518,1.67153 -3.34306,1.25365 -3.34306,0.83577 -3.34306,0.41788 -508.98103,0"
     style="fill:#000000;fill-rule:evenodd;stroke:none"
     id="path50" />
  <path
     d="m 46.33897,567.8628 -2.50729,0 -1.67153,-0.41788 -3.34306,-1.67154 -1.25365,-0.83576 -2.5073,-2.5073 -1.25365,-1.67153 -0.41788,-1.25364 -0.83576,-1.67154 -0.41789,-1.67153 0,-509.81679 c -0.3343,-3.46146 1.35116,-7.96763 4.17883,-10.02918 l 2.5073,-2.5073 1.67153,-0.41788 1.67153,-0.83576 1.67153,-0.41789 509.39891,0 c 3.64254,-0.50842 8.17657,1.44866 10.44706,4.17883 l 1.25365,1.25365 0.83576,1.25365 0.83577,1.67153 0.83577,1.67153 0.41788,1.67153 0,509.39891 c 0.592,3.95595 -1.6576,7.66118 -4.17883,10.44706 l -1.25365,1.25365 -1.67153,0.83576 -1.25364,0.83577 -1.67154,0.83577 -1.67153,0.41788 -509.81679,0"
     style="fill:#fffefe;fill-rule:evenodd;stroke:none"
     id="path52" />
  <path
     d="M 485.11572,244.42165 C 484.87892,151.40098 415.42683,72.0799 322.97726,60.97118 217.30868,47.18106 121.53695,126.92699 115.2896,233.13882 c -7.04132,106.16308 78.53408,197.12916 184.70412,196.40483 101.97729,0.55718 185.14986,-83.03327 185.122,-185.122"
     style="fill:#cc0000;fill-opacity:1;fill-rule:evenodd;stroke:none"
     id="path54" />
  <path
     d="M 436.22345,244.42165 C 429.44679,68.68808 181.55186,61.0269 163.76399,236.064 c -4.81262,78.84749 57.45189,144.51077 136.22973,145.00527 74.81492,0.0209 136.98889,-61.83966 136.22973,-136.64762"
     style="fill:#fffefe;fill-rule:evenodd;stroke:none"
     id="path56" />
  <path
     d="m 195.10518,284.53838 22.98355,0 c 6.08019,21.09611 32.762,24.98938 44.29556,6.68613 10.83708,-22.89997 -4.08132,-43.50158 -30.50544,-39.28097 l 0,-20.05837 c 13.38618,0.25073 18.37988,0.74523 27.99814,-8.77553 5.52302,-7.85619 6.44932,-18.37987 0.83577,-26.32661 -11.40124,-17.3073 -36.85725,-12.29967 -41.37038,7.93977 l -22.98355,0 c 3.9281,-36.09809 44.35128,-52.98055 73.12946,-31.75907 22.0851,17.13318 24.78044,52.17961 0.83577,68.53274 l 1.67153,1.67154 3.76094,2.50729 2.92518,3.34306 2.92518,3.76095 c 3.52414,5.52301 7.09704,14.30551 7.104,20.89413 0.68254,14.68857 -3.09233,27.48971 -13.79013,38.02731 -27.7474,27.60115 -74.54329,11.48481 -79.81558,-27.16237"
     style="fill:#000000;fill-rule:evenodd;stroke:none"
     id="path58" />
  <path
     d="m 164.18187,540.70043 0,-10.44707 37.19155,-60.59298 -35.9379,0 0,-10.86495 51.39956,0 0,9.19342 -37.60943,61.01086 37.60943,0 0,11.70072 -52.65321,0 z m 64.35392,-28.8339 c -2.22174,-22.10599 -2.23567,-49.9718 25.49084,-53.48898 8.14871,-1.29543 17.96896,1.58796 23.81931,7.52189 7.53582,8.14871 7.44528,10.84405 9.19342,21.31201 1.85958,22.80943 1.85958,49.33801 -25.90872,53.90686 -17.2098,2.14513 -33.24256,-11.78429 -32.59485,-29.25178 z m 12.1186,0 c 1.46955,-16.88246 -6.45629,-36.30704 14.62589,-41.37038 9.9874,-1.11436 19.27135,6.40753 19.2226,16.7153 0.43181,13.09366 5.06335,38.79344 -14.62589,41.37038 -10.05008,1.66457 -19.32011,-6.55379 -19.2226,-16.7153 z m 62.26451,28.8339 0,-81.905 11.70071,0 37.19156,58.50357 0,-58.50357 12.53647,0 0,81.905 -11.70071,0 -37.19155,-58.50357 0,58.50357 -12.53648,0 z m 80.23346,0 0,-81.905 52.65321,0 0,11.70072 -40.11673,0 0,23.40142 34.26637,0 0,10.86495 -34.26637,0 0,24.23719 40.11673,0 0,11.70072 -52.65321,0"
     style="fill:#000000;fill-rule:evenodd;stroke:none"
     id="path62" />
  <g
     style="font-size:223.98100281px;font-style:normal;font-variant:normal;font-weight:normal;font-stretch:normal;fill:#000000;fill-opacity:1;stroke:none;font-family:Alte DIN 1451 Mittelschrift;-inkscape-font-specification:Alte DIN 1451 Mittelschrift"
     id="text2825"
     transform="matrix(1.0258649,0,0,1,544.59229,106.24947)">
    <path
       d="m -160.62244,172.1649 0,-67.69738 c -8e-5,-7.655479 -2.07802,-13.634133 -6.23385,-17.935979 -4.08305,-4.301582 -9.47842,-6.452439 -16.18612,-6.452577 -6.78073,1.38e-4 -12.21255,2.150995 -16.2955,6.452577 -4.08302,4.301846 -6.12451,10.2805 -6.12448,17.935979 l 0,67.69738 c -3e-5,7.72855 2.04146,13.74366 6.12448,18.04535 4.08295,4.22883 9.51477,6.34323 16.2955,6.34321 6.7077,2e-5 12.10307,-2.11438 16.18612,-6.34321 4.15583,-4.30169 6.23377,-10.3168 6.23385,-18.04535 m -67.69738,1.31239 0,-70.32216 c -1e-5,-14.654876 4.59334,-25.95599 13.78008,-33.903373 9.18669,-8.019996 19.68578,-12.030069 31.49733,-12.03023 11.73852,1.61e-4 22.20116,4.010234 31.38796,12.03023 9.25953,7.947383 13.88935,19.248497 13.88944,33.903373 l 0,70.32216 c -9e-5,14.65504 -4.62991,25.95615 -13.88944,33.90338 -9.1868,7.94724 -19.64944,11.92086 -31.38796,11.92086 -11.81155,0 -22.31064,-3.97362 -31.49733,-11.92086 -9.18674,-7.94723 -13.78009,-19.24834 -13.78008,-33.90338"
       id="path2849" />
  </g>
</svg>
