<?xml version="1.0" encoding="UTF-8" standalone="no"?>
<!-- Created with Inkscape (http://www.inkscape.org/) -->
<svg
   xmlns:svg="http://www.w3.org/2000/svg"
   xmlns="http://www.w3.org/2000/svg"
   version="1.0"
   width="725"
   height="725"
   id="svg2">
  <defs
     id="defs9" />
  <g
     id="g1875">
    <circle
       cx="362.5"
       cy="362.5"
       r="350"
       style="fill:white;stroke:black;stroke-width:2.5px"
       id="circle4" />
    <circle
       cx="362.5"
       cy="362.5"
       r="290"
       style="fill:none;stroke:#c00;stroke-width:93.75"
       id="circle6" />
  </g>
  <path
     d="M 238.44701,421.94816 L 485.49562,421.94816 L 485.58845,214.36485 C 485.58845,207.12828 474.38805,195.18908 465.28342,195.18908 L 258.77528,195.37473 C 249.32685,195.37473 238.62491,206.20034 238.62491,213.64535 L 238.44701,421.94816 z "
     style="fill:black;fill-opacity:1;fill-rule:evenodd;stroke:none;stroke-width:1px;stroke-linecap:butt;stroke-linejoin:miter;stroke-opacity:1"
     id="path3776" />
  <path
     d="M 272.86338,222.65179 L 272.86338,395.41783 L 451.83416,395.41783 L 451.83416,222.96204 L 272.86338,222.65179 z "
     style="opacity:1;fill:#f60;fill-opacity:1;fill-rule:evenodd;stroke:none;stroke-width:1px;stroke-linecap:butt;stroke-linejoin:miter;stroke-opacity:1"
     id="path3810" />
  <path
     d="M 224.36106,428.00086 L 224.44323,442.98899 L 499.46615,442.90681 L 499.54832,428.01695 L 224.36106,428.00086 z "
     style="fill:black;fill-opacity:1;fill-rule:evenodd;stroke:none;stroke-width:1px;stroke-linecap:butt;stroke-linejoin:miter;stroke-opacity:1"
     id="path3778" />
  <path
     d="M 241.91549,448.99623 L 270.17219,448.99623 L 273.58632,454.15983 L 273.69235,526.68358 L 268.39091,531.83659 L 242.88035,532.15468 L 238.50136,527.75447 L 238.71342,452.5694 L 241.91549,448.99623 z "
     style="fill:black;fill-opacity:1;fill-rule:evenodd;stroke:none;stroke-width:1px;stroke-linecap:butt;stroke-linejoin:miter;stroke-opacity:1"
     id="path3780" />
  <path
     d="M 283.125,449.5 L 279.90625,453.0625 L 279.6875,528.25 L 284.09375,532.65625 L 309.59375,532.34375 L 314.90625,527.1875 L 314.875,503.4375 L 317.78125,500.375 L 337.90625,500.28125 L 337.9375,501.21875 L 340.75,501.15625 C 340.83501,503.1623 351.99413,513.40623 362.28125,513.40625 L 362.28125,513.34375 C 372.55965,513.32318 383.66507,503.12902 383.75,501.125 L 386.5625,501.1875 L 386.625,500.21875 L 406.75,500.34375 L 409.53125,503.25 L 409.46875,528.25 L 413.84375,532.65625 L 439.34375,532.34375 L 444.65625,527.1875 L 444.53125,454.65625 L 441.125,449.5 L 412.875,449.5 L 409.65625,453.0625 L 409.59375,476.8125 L 405.5625,480.96875 L 386.59375,480.90625 L 386.625,479.9375 L 383.5625,479.90625 C 383.56251,477.01569 372.5538,467.84375 362.25,467.84375 L 362.25,467.875 C 351.95543,467.89413 340.96874,477.08118 340.96875,479.96875 L 337.90625,479.96875 L 337.90625,480.96875 L 318.9375,481 L 314.8125,476.75 L 314.78125,454.65625 L 311.375,449.5 L 283.125,449.5 z "
     style="fill:black;fill-opacity:1;fill-rule:evenodd;stroke:none;stroke-width:1px;stroke-linecap:butt;stroke-linejoin:miter;stroke-opacity:1"
     id="path3784" />
  <path
     d="M 453.75456,448.90291 L 482.01126,448.90291 L 485.42539,454.06651 L 485.53142,526.59026 L 480.22998,531.74327 L 454.71942,532.06136 L 450.34043,527.66115 L 450.55249,452.47608 L 453.75456,448.90291 z "
     style="fill:black;fill-opacity:1;fill-rule:evenodd;stroke:none;stroke-width:1px;stroke-linecap:butt;stroke-linejoin:miter;stroke-opacity:1"
     id="path3788" />
</svg>
