<?xml version="1.0" encoding="UTF-8" standalone="no"?>
<!-- Created with Inkscape (http://www.inkscape.org/) -->
<svg
   xmlns:svg="http://www.w3.org/2000/svg"
   xmlns="http://www.w3.org/2000/svg"
   version="1.0"
   width="760"
   height="760"
   id="svg2">
  <defs
     id="defs4" />
  <g
     id="layer1">
    <path
       d="M 45.824811,3.3417118 L 713.26505,3.3417118 C 730.52936,3.3417118 757.66931,28.70753 757.66931,47.945769 L 757.66931,711.00841 C 757.66931,728.56947 731.4376,756.65818 710.65713,756.65818 L 48.432727,756.65818 C 31.534484,756.65818 3.7545745,731.36166 3.7545745,718.73902 L 3.7545745,46.269253 C 3.7545745,27.174554 26.491429,3.3417118 45.824811,3.3417118 z "
       style="opacity:1;fill:white;fill-opacity:1;fill-rule:nonzero;stroke:black;stroke-width:2.01808;stroke-linecap:round;stroke-linejoin:round;stroke-miterlimit:4;stroke-dashoffset:0;stroke-opacity:1"
       id="rect2841" />
    <path
       d="M 646.32872 332.88788 A 245.97542 245.97542 0 1 1  154.37788,332.88788 A 245.97542 245.97542 0 1 1  646.32872 332.88788 z"
       transform="matrix(0.972803,0,0,0.972803,-9.464893,-15.13243)"
       style="opacity:1;fill:#039;fill-opacity:1;fill-rule:nonzero;stroke:none;stroke-width:5;stroke-linecap:round;stroke-linejoin:round;stroke-miterlimit:4;stroke-dasharray:none;stroke-dashoffset:0;stroke-opacity:1"
       id="path1882" />
    <g
       transform="matrix(1.944179,0,0,1.944179,608.3719,-965.5591)"
       style="opacity:1;fill:white;fill-opacity:1"
       id="g1953">
      <path
         d="M -162.2598,695.78989 L -151.80022,695.78989 L -151.80022,736.88109 C -151.80022,740.95037 -161.88625,740.37837 -161.88625,736.88109 L -162.2598,695.78989 z "
         style="fill:white;fill-opacity:1;fill-rule:evenodd;stroke:none;stroke-width:1px;stroke-linecap:butt;stroke-linejoin:miter;stroke-opacity:1"
         id="path1914" />
      <path
         d="M -147.81755,695.78989 L -137.35797,695.78989 L -137.35797,745.84644 C -137.35797,751.90761 -147.444,751.70751 -147.444,745.84644 L -147.81755,695.78989 z "
         style="fill:white;fill-opacity:1;fill-rule:evenodd;stroke:none;stroke-width:1px;stroke-linecap:butt;stroke-linejoin:miter;stroke-opacity:1"
         id="path1916" />
      <path
         d="M -185.87304,691.92858 C -182.89291,677.53426 -180.81137,664.83758 -160.64726,645.8354 L -160.64726,617.04368 L -164.21321,616.11917 C -164.21321,616.11917 -164.18142,649.27418 -164.18142,649.27418 C -165.83595,650.93571 -167.39427,652.69346 -168.96781,654.43599 C -172.345,652.75791 -172.69172,647.5109 -174.38276,642.79774 L -174.51484,618.89269 C -170.93552,610.87214 -168.6994,602.51101 -154.83609,597.23286 L -146.51555,597.10078 C -130.49677,599.87618 -127.4378,611.26281 -121.50676,622.48492 C -114.34317,636.03913 -105.89332,648.08749 -114.0258,652.83522 C -105.01372,658.70327 -100.29629,668.86597 -86.95101,670.40082 C -80.58147,671.05689 -77.26529,669.16851 -72.42308,668.55181 L -49.31046,696.5511 C -48.21252,703.73725 -50.86862,704.66668 -53.40469,705.79615 L -68.9892,687.17398 L -63.57425,714.64498 L -71.23443,714.64498 L -66.34776,743.70085 C -66.34776,746.48852 -75.72488,747.22387 -75.72488,744.22914 L -80.47948,717.4185 L -87.03502,717.34502 L -89.98867,748.05923 C -89.98867,751.21513 -98.44129,750.64254 -98.44129,748.05923 L -94.74327,682.8156 L -121.68598,657.98604 C -124.79226,652.49157 -122.53051,650.7863 -121.68598,648.08063 C -125.47029,636.76557 -131.8915,626.76896 -137.00635,616.11917 L -138.85536,616.11917 L -138.72329,645.96747 C -117.10373,664.65525 -116.34596,677.62217 -113.49751,692.32479 L -185.87304,691.92858 z "
         style="fill:white;fill-opacity:1;fill-rule:evenodd;stroke:none;stroke-width:1px;stroke-linecap:butt;stroke-linejoin:miter;stroke-opacity:1"
         id="path1918" />
      <path
         d="M -135.36376,575.69151 C -135.36084,583.43019 -141.63345,589.70517 -149.37212,589.70517 C -157.1108,589.70517 -163.38341,583.43019 -163.38049,575.69151 C -163.38341,567.95284 -157.1108,561.67785 -149.37212,561.67785 C -141.63345,561.67785 -135.36084,567.95284 -135.36376,575.69151 L -135.36376,575.69151 z "
         style="fill:white;fill-opacity:1;fill-rule:nonzero;stroke:none;stroke-width:5;stroke-linecap:round;stroke-linejoin:round;stroke-miterlimit:4;stroke-dasharray:none;stroke-dashoffset:0;stroke-opacity:1"
         id="path1922" />
      <path
         d="M -72.793169,650.58949 C -72.790561,657.5027 -78.39409,663.10836 -85.3073,663.10836 C -92.220518,663.10836 -97.824047,657.5027 -97.821439,650.58949 C -97.824047,643.67628 -92.220518,638.07063 -85.3073,638.07063 C -78.39409,638.07063 -72.790561,643.67628 -72.793169,650.58949 L -72.793169,650.58949 z "
         style="fill:white;fill-opacity:1;fill-rule:nonzero;stroke:none;stroke-width:5;stroke-linecap:round;stroke-linejoin:round;stroke-miterlimit:4;stroke-dasharray:none;stroke-dashoffset:0;stroke-opacity:1"
         id="path1924" />
    </g>
    <path
       d="M 25.443662,52.632534 L 25.443662,710.96204 C 25.443662,726.77315 40.985837,735.15473 52.918434,735.15473 L 710.27844,734.90301 C 721.49547,734.90301 734.94337,721.48607 734.94337,708.97952 L 734.94337,54.088023 C 735.11544,34.671252 719.24918,24.683563 708.05602,24.683563 L 53.853079,24.935273 C 34.160919,24.935273 25.443662,39.076817 25.443662,52.632534 z "
       style="opacity:1;fill:none;fill-opacity:1;fill-rule:evenodd;stroke:black;stroke-width:17;stroke-linecap:butt;stroke-linejoin:miter;stroke-miterlimit:4;stroke-dasharray:none;stroke-opacity:1"
       id="path1934" />
    <path
       d="M 206.44455,582.56676 L 273.73981,582.68617 L 273.6204,596.45443 L 225.57246,673.5137 L 273.6204,673.5137 L 273.6204,689.607 L 204.51276,689.607 L 204.56903,674.88346 L 252.04806,598.51252 L 206.41642,598.57565 L 206.44455,582.56676 z "
       style="fill:black;fill-opacity:1;fill-rule:evenodd;stroke:none;stroke-width:1px;stroke-linecap:butt;stroke-linejoin:miter;stroke-opacity:1"
       id="path7280" />
    <path
       d="M 287.48682,609.90636 L 287.60623,662.00045 C 287.60623,674.59063 304.49987,691.72134 324.70295,691.72134 C 345.17066,691.72134 363.53455,675.3509 363.53455,661.86728 L 363.41514,610.00514 C 363.41514,595.2185 344.32269,582.08913 324.84362,582.08913 C 301.47127,582.08913 287.48682,596.13762 287.48682,609.90636 z "
       style="fill:black;fill-opacity:1;fill-rule:evenodd;stroke:none;stroke-width:1px;stroke-linecap:butt;stroke-linejoin:miter;stroke-opacity:1"
       id="path7282" />
    <path
       d="M 383.45292,582.34395 L 383.66535,689.69827 L 400.64903,689.69827 L 400.64903,616.06861 L 447.09877,689.69827 L 463.65757,689.69827 L 463.57667,582.18216 L 446.64365,582.39459 L 446.46146,657.62246 L 399.98146,582.39459 L 383.45292,582.34395 z "
       style="fill:black;fill-opacity:1;fill-rule:evenodd;stroke:none;stroke-width:1px;stroke-linecap:butt;stroke-linejoin:miter;stroke-opacity:1"
       id="path7284" />
    <path
       d="M 555.63637,582.47503 L 486.54913,582.57628 L 486.46777,689.74891 L 555.49489,689.74891 L 555.49489,673.4328 L 503.66387,673.4328 L 503.57257,643.5116 L 547.54408,643.62279 L 547.54408,628.50036 L 503.64307,628.50036 L 503.54182,599.57173 L 555.5342,599.57173 L 555.63637,582.47503 z "
       style="fill:black;fill-opacity:1;fill-rule:evenodd;stroke:none;stroke-width:1px;stroke-linecap:butt;stroke-linejoin:miter;stroke-opacity:1"
       id="path7286" />
    <path
       d="M 304.64048,615.61663 L 304.80935,657.32738 C 304.74278,668.35518 314.01652,674.18264 324.79174,673.87658 C 337.45615,673.87658 346.26464,668.33617 346.26464,657.34462 L 346.35123,615.61663 C 346.35123,606.97682 336.72076,599.53681 324.79174,599.52 C 313.8953,599.52 304.35411,605.74946 304.64048,615.61663 z "
       style="fill:white;fill-opacity:1;fill-rule:evenodd;stroke:none;stroke-width:1px;stroke-linecap:butt;stroke-linejoin:miter;stroke-opacity:1"
       id="path7303" />
  </g>
</svg>
