<?xml version="1.0" encoding="UTF-8" standalone="no"?>
<!-- Created with Inkscape (http://www.inkscape.org/) -->
<svg
   xmlns:svg="http://www.w3.org/2000/svg"
   xmlns="http://www.w3.org/2000/svg"
   version="1.0"
   width="980"
   height="365"
   id="svg2">
  <defs
     id="defs9" />
  <path
     d="M 4.5362472,320.16013 L 4.5362472,43.421181 C 4.5362472,25.176914 32.356686,3.1718632 46.424925,3.1718632 L 931.67273,3.0504075 C 948.01652,3.0504075 975.4763,22.52568 975.4763,46.139109 L 975.64333,319.25386 C 975.64333,338.47209 952.47638,361.66392 929.86098,361.66392 L 48.463733,361.76186 C 27.293233,361.76186 4.5362472,336.7397 4.5362472,320.16013 z "
     style="fill:white;fill-opacity:1;fill-rule:evenodd;stroke:black;stroke-width:2;stroke-linecap:butt;stroke-linejoin:miter;stroke-miterlimit:4;stroke-dasharray:none;stroke-opacity:1"
     id="path5587" />
  <path
     d="M 122.11909,148.48886 L 122.11909,159.55373 L 88.968925,159.55373 L 88.968925,177.56793 L 117.01044,177.56793 L 117.01044,187.52991 L 89.171767,187.52991 L 89.171767,205.39773 L 122.11909,205.39773 L 122.11909,216.63566 L 78.124639,216.63566 L 78.124639,148.48886 L 122.11909,148.48886 z "
     style="fill:black;fill-opacity:1;fill-rule:evenodd;stroke:none;stroke-width:1px;stroke-linecap:butt;stroke-linejoin:miter;stroke-opacity:1"
     id="path5483" />
  <path
     d="M 49.34375,20.59375 C 36.916786,20.59375 22.4375,33.953442 22.4375,47.90625 L 22.1875,183.71875 L 22.28125,183.71875 L 22.53125,318.34375 C 22.53125,332.29655 37.01054,345.65625 49.4375,345.65625 L 929.34375,345.65625 C 940.44802,345.65625 958.21875,335.927 958.21875,316.78125 L 957.96875,182.53125 L 957.875,182.53125 L 958.09375,49.46875 C 958.09375,30.322997 940.323,20.593751 929.21875,20.59375 L 49.34375,20.59375 z M 690.8125,48.75 C 693.30606,48.826795 696.0541,49.347732 699.09375,50.375 L 931.34375,183.15625 L 699.1875,315.875 C 679.73375,322.4495 671.66055,307.63786 672.4375,295.96875 L 686.9375,243.78125 L 51.09375,243.9375 L 50.125,182.53125 L 50.0625,182.53125 L 50.96875,122.3125 L 686.8125,122.46875 L 672.34375,70.28125 C 671.6882,60.435437 677.34729,48.335306 690.8125,48.75 z "
     style="fill:#039;fill-opacity:1;fill-rule:evenodd;stroke:none;stroke-width:1px;stroke-linecap:butt;stroke-linejoin:miter;stroke-opacity:1"
     id="path4577" />
  <path
     d="M 134.9928,167.496 L 145.01298,167.496 L 145.11291,216.58034 L 134.91795,216.58034 C 134.91795,216.58034 135.22989,167.7331 134.9928,167.496 z "
     style="fill:black;fill-opacity:1;fill-rule:evenodd;stroke:none;stroke-width:1px;stroke-linecap:butt;stroke-linejoin:miter;stroke-opacity:1"
     id="path5485" />
  <path
     d="M 134.57466,148.48886 L 134.57466,159.158 L 145.24381,159.158 L 145.24381,148.48886 L 134.57466,148.48886 z "
     style="fill:black;fill-opacity:1;fill-rule:evenodd;stroke:none;stroke-width:1px;stroke-linecap:butt;stroke-linejoin:miter;stroke-opacity:1"
     id="path5487" />
  <path
     d="M 159.09507,167.57086 L 158.85171,216.58661 L 170.06363,216.58661 L 170.06363,182.91326 C 173.26511,179.22036 179.77483,173.66459 188.01404,182.91326 L 188.01404,216.58661 L 199.08879,216.50549 L 199.08879,181.80265 C 199.08879,174.27543 192.33986,167.51462 186.66653,167.51462 L 176.63362,167.59574 C 173.49831,167.59574 171.35351,170.2064 170.08494,171.81651 L 170.00382,167.50854 L 159.09507,167.57086 z "
     style="fill:black;fill-opacity:1;fill-rule:evenodd;stroke:none;stroke-width:1px;stroke-linecap:butt;stroke-linejoin:miter;stroke-opacity:1"
     id="path5489" />
  <path
     d="M 211.96035,148.5349 L 211.96035,216.58034 L 222.86658,216.58034 L 222.86658,148.5349 L 211.96035,148.5349 z "
     style="fill:black;fill-opacity:1;fill-rule:evenodd;stroke:none;stroke-width:1px;stroke-linecap:butt;stroke-linejoin:miter;stroke-opacity:1"
     id="path5491" />
  <path
     d="M 222.62322,172.87427 C 222.62322,170.08528 228.5326,167.50227 231.16481,167.50227 L 239.93722,167.50227 C 245.42622,167.50227 252.26601,173.49364 252.26601,180.54234 L 252.26601,204.01446 C 252.26601,209.24123 243.82745,217.7658 237.56629,217.7658 L 232.35027,217.7658 C 229.56739,217.7658 223.41541,214.45796 222.78546,212.10694 L 222.65682,199.96834 C 228.26507,206.93593 235.07026,209.98335 241.18747,200.55554 L 240.93383,183.77 C 237.82257,178.38114 229.23462,173.02502 222.84979,184.08388 L 222.62322,172.87427 z "
     style="fill:black;fill-opacity:1;fill-rule:evenodd;stroke:none;stroke-width:1px;stroke-linecap:butt;stroke-linejoin:miter;stroke-opacity:1"
     id="path5493" />
  <path
     d="M 285.65625,166.53125 C 283.25408,166.53125 280.09905,166.625 277.65625,166.625 C 272.37355,166.625 264.78125,170.71907 264.78125,173.71875 L 271.3125,180.59375 L 272.84375,180.53125 C 272.84375,179.12456 275.39038,177.50001 276.59375,177.5 L 287,177.53125 C 289.18911,177.4788 290.96446,179.14574 290.9375,180.71875 L 290.9375,186.46875 L 273.90625,186.40625 C 256.47505,186.40625 259.39408,216.5625 273.21875,216.5625 L 286.6875,216.5625 C 288.21727,216.5625 290.45013,215.22517 291,213.15625 L 291,216.5625 L 301.9375,216.5625 L 301.9375,178.75 C 301.93774,171.6148 293.65391,166.53125 285.65625,166.53125 z M 276.78125,195.46875 L 290.96875,195.46875 L 290.96875,202.96875 C 290.37802,204.65452 288.28647,206.3125 286.78125,206.3125 L 276.78125,206.3125 C 271.18499,206.31249 271.6383,195.46875 276.78125,195.46875 z "
     style="fill:black;fill-opacity:1;fill-rule:evenodd;stroke:none;stroke-width:1px;stroke-linecap:butt;stroke-linejoin:miter;stroke-opacity:1"
     id="path5501" />
  <path
     d="M 565.12938,166.51788 C 562.72721,166.51788 559.57218,166.61163 557.12938,166.61163 C 551.84668,166.61163 544.25438,170.7057 544.25438,173.70538 L 550.78563,180.58038 L 552.31688,180.51788 C 552.31688,179.11119 554.86351,177.48664 556.06688,177.48663 L 566.47313,177.51788 C 568.66224,177.46543 570.43759,179.13237 570.41063,180.70538 L 570.41063,186.45538 L 553.37938,186.39288 C 535.94818,186.39288 538.86721,216.54913 552.69188,216.54913 L 566.16063,216.54913 C 567.6904,216.54913 569.92326,215.2118 570.47313,213.14288 L 570.47313,216.54913 L 581.41063,216.54913 L 581.41063,178.73663 C 581.41087,171.60143 573.12704,166.51788 565.12938,166.51788 z M 556.25438,195.45538 L 570.44188,195.45538 L 570.44188,202.95538 C 569.85115,204.64115 567.7596,206.29913 566.25438,206.29913 L 556.25438,206.29913 C 550.65812,206.29912 551.11143,195.45538 556.25438,195.45538 z "
     style="fill:black;fill-opacity:1;fill-rule:evenodd;stroke:none;stroke-width:1px;stroke-linecap:butt;stroke-linejoin:miter;stroke-opacity:1"
     id="path5506" />
  <path
     d="M 314.90625,148.5 L 314.90625,216.5625 L 326.15625,216.5625 L 326.15625,184.15625 C 328.32789,174.78401 344.60157,173.96986 345.09375,185.71875 L 345.09375,216.5625 L 354.96875,216.5625 L 354.91139,178.14639 C 353.95058,172.90886 348.9922,169.12132 343.83319,167.80772 C 340.54302,166.96997 336.93794,166.90514 333.5416,167.55149 C 330.86468,168.06093 328.31743,169.01218 326.15625,170.375 L 326.15625,148.5 L 314.90625,148.5 z "
     style="fill:black;fill-opacity:1;fill-rule:evenodd;stroke:none;stroke-width:1px;stroke-linecap:butt;stroke-linejoin:miter;stroke-opacity:1"
     id="path5508" />
  <path
     d="M 368.64685,167.53271 L 368.64685,216.55136 L 379.89685,216.55136 L 379.89685,184.14511 C 382.06849,174.77287 398.34217,173.95872 398.83435,185.70761 L 398.83435,216.55136 L 408.70935,216.55136 L 408.65199,178.13525 C 407.69118,172.89772 402.7328,169.11018 397.57379,167.79658 C 394.28362,166.95883 390.67854,166.894 387.2822,167.54035 C 384.60528,168.04979 382.05803,169.00104 379.89685,170.36386 L 379.89685,167.53271 L 368.64685,167.53271 z "
     style="fill:black;fill-opacity:1;fill-rule:evenodd;stroke:none;stroke-width:1px;stroke-linecap:butt;stroke-linejoin:miter;stroke-opacity:1"
     id="path5518" />
  <path
     d="M 425.61858,201.29172 L 418.95079,207.3199 C 422.56072,211.72501 425.70321,215.56809 433.87856,216.54913 C 437.36933,216.92591 440.69834,216.8174 443.9741,216.54913 C 452.70478,216.13924 458.51918,211.91513 460.60879,205.30699 C 461.30601,202.74487 461.14193,200.14218 460.72351,197.62062 C 458.67516,191.59534 453.68798,187.87207 448.94075,186.47867 C 448.94075,186.47867 436.32133,186.36395 436.32133,186.36395 C 433.16648,186.68178 430.72173,179.70665 436.40245,177.65899 C 438.83151,177.09314 441.32221,177.14372 443.85938,177.65899 C 448.22837,178.69361 450.93438,180.09779 453.3813,181.55954 L 460.1499,173.98789 C 456.03784,169.16784 450.23945,167.65245 444.01466,166.61933 C 440.98464,166.18312 438.63617,166.18509 436.11157,166.49765 C 427.20265,168.20612 423.89235,171.75293 422.17692,175.82344 C 421.38257,179.49433 421.8478,183.03926 422.08188,186.60731 C 423.19691,192.265 427.29377,194.77968 432.38718,196.24395 C 437.39671,197.04526 442.40623,197.57504 447.41576,197.62062 C 451.33895,197.86848 450.4502,204.44376 447.53048,205.42171 L 444.54771,206.33949 C 441.16159,207.22174 435.19789,207.0112 434.10801,206.45421 C 431.2782,204.42018 428.44839,202.91926 425.61858,201.29172 z "
     style="fill:black;fill-opacity:1;fill-rule:evenodd;stroke:none;stroke-width:1px;stroke-linecap:butt;stroke-linejoin:miter;stroke-opacity:1"
     id="path5520" />
  <path
     d="M 483.99276,153.51834 L 483.91164,167.4711 L 490.86871,167.54685 L 490.94751,176.48807 L 484.12679,176.48807 L 484.12679,205.07755 C 484.39235,205.95921 484.85492,206.64386 486.19179,206.45421 L 491.02403,206.61645 L 490.99609,216.63025 L 481.83235,216.54913 C 479.54733,215.93686 473.11348,211.09465 473.11348,206.45421 L 473.11348,176.39705 L 467.88956,176.39705 L 468.03788,167.63334 L 473.11348,167.63334 L 473.11348,153.51834"
     style="fill:black;fill-opacity:1;fill-rule:evenodd;stroke:none;stroke-width:1px;stroke-linecap:butt;stroke-linejoin:miter;stroke-opacity:1"
     id="path5568" />
  <path
     d="M 526.25,167.21875 C 522.22369,167.2546 517.76451,168.40122 513.96875,171.5 L 513.96875,167.46875 L 502.875,167.46875 L 502.9375,216.5625 L 513.96875,216.5625 L 513.96875,184.8125 C 518.08454,178.32377 523.55586,175.01616 529.8125,180.375 L 537.34375,171.03125 C 536.06047,169.03719 531.53069,167.17174 526.25,167.21875 z "
     style="fill:black;fill-opacity:1;fill-rule:evenodd;stroke:none;stroke-width:1px;stroke-linecap:butt;stroke-linejoin:miter;stroke-opacity:1"
     id="path5570" />
  <path
     d="M 678.81799,202.353 L 687.17342,209.32939 C 683.44378,212.8045 656.93466,228.17658 647.01868,202.43413 L 646.93755,181.66722 C 646.95886,170.72657 680.4335,154.49409 687.98462,184.34421 L 688.1063,186.53447 L 677.11445,186.49391 C 674.65117,171.83598 657.27545,177.16138 657.80773,186.45335 L 688.14687,186.53447 L 687.98463,196.43119 L 656.99652,196.43119 C 659.91603,208.74662 672.17544,207.82336 678.81799,202.353 z "
     style="fill:black;fill-opacity:1;fill-rule:evenodd;stroke:none;stroke-width:1px;stroke-linecap:butt;stroke-linejoin:miter;stroke-opacity:1"
     id="path5581" />
  <path
     d="M 594.77695,216.54913 L 595.07293,157.42435 C 595.07293,143.0703 633.9344,144.12174 633.9344,157.65346 L 633.944,169.46743 C 633.944,170.81612 630.11911,175.26364 629.17212,175.26364 C 630.12706,175.26364 633.9629,178.22285 633.9629,180.45507 L 633.88672,207.38453 C 633.88672,209.75836 626.17342,216.54913 623.91352,216.54913 L 613.96911,216.54913 L 613.97871,206.49976 L 620.73557,206.55704 C 622.08741,206.55704 624.14264,204.35387 624.14264,202.10964 L 623.81816,183.93861 C 623.81816,182.52884 622.36307,180.3693 621.22229,180.3693 L 612.98607,180.48386 L 613.04334,170.55572 L 619.99007,170.44117 C 633.68494,156.7463 605.16039,155.07926 605.16039,163.73955 L 605.06503,216.49185 L 594.77695,216.54913 z "
     style="fill:black;fill-opacity:1;fill-rule:evenodd;stroke:none;stroke-width:1px;stroke-linecap:butt;stroke-linejoin:miter;stroke-opacity:1"
     id="path5583" />
</svg>
