<?xml version="1.0" encoding="UTF-8" standalone="no"?>
<!-- Created with Inkscape (http://www.inkscape.org/) -->
<svg
   xmlns:svg="http://www.w3.org/2000/svg"
   xmlns="http://www.w3.org/2000/svg"
   version="1.0"
   width="725"
   height="725"
   id="svg2">
  <defs
     id="defs9" />
  <circle
     cx="362.5"
     cy="362.5"
     r="350"
     style="fill:white;stroke:black;stroke-width:2.5px"
     id="circle4" />
  <path
     d="M -176.30905,369.66949 C -176.30905,540.44638 -314.75107,678.88839 -485.52795,678.88839 C -656.30484,678.8884 -794.74686,540.44638 -794.74686,369.66949 C -794.74686,198.8926 -656.30484,60.450585 -485.52795,60.450585 C -314.75107,60.450585 -176.30905,198.8926 -176.30905,369.66949 z "
     transform="matrix(1.061206,0,0,1.061206,877.7452,-29.79549)"
     style="opacity:1;fill:#039;fill-opacity:1;fill-rule:nonzero;stroke:none;stroke-width:2;stroke-linecap:round;stroke-linejoin:round;stroke-miterlimit:4;stroke-dasharray:none;stroke-dashoffset:0;stroke-opacity:1"
     id="path1883" />
  <path
     d="M 111.72728,273.8474 L 111.35689,256.82964 C 111.72155,255.68619 111.91702,254.37355 113.47584,254.42426 L 597.66892,254.11359 C 619.63415,258.48517 623.98774,315.63484 635.34809,347.53694 L 635.34809,416.73017 C 629.81419,429.73491 623.83805,430.79885 617.90442,433.01093 L 545.80391,432.42947 C 545.80391,369.56296 450.44517,369.9132 450.44517,432.42947 L 256.82042,432.42947 C 256.82042,369.7928 163.78751,369.77566 163.78751,432.42947 L 96.920099,432.42947 C 93.750756,431.49996 91.590711,428.55186 89.651902,425.16127 L 90.428576,363.12079 L 118.74043,281.40632 C 119.72651,275.97836 114.06738,276.36495 111.72728,273.8474 z "
     style="fill:white;fill-opacity:1;fill-rule:evenodd;stroke:none;stroke-width:1px;stroke-linecap:butt;stroke-linejoin:miter;stroke-opacity:1"
     id="path1966" />
  <path
     d="M 536.20947,432.64648 C 536.21851,453.64193 519.20087,470.66689 498.20543,470.66689 C 477.20998,470.66689 460.19234,453.64193 460.20138,432.64648 C 460.19234,411.65103 477.20998,394.62607 498.20543,394.62607 C 519.20087,394.62607 536.21851,411.65103 536.20947,432.64648 L 536.20947,432.64648 z "
     style="fill:white;fill-opacity:1;fill-rule:nonzero;stroke:none;stroke-width:2;stroke-linecap:round;stroke-linejoin:round;stroke-miterlimit:4;stroke-dasharray:8, 2;stroke-dashoffset:0;stroke-opacity:1"
     id="path2856" />
  <path
     d="M 248.6529,432.86618 C 248.66194,453.86163 231.6443,470.88659 210.64886,470.88659 C 189.65341,470.88659 172.63577,453.86163 172.64481,432.86618 C 172.63577,411.87073 189.65341,394.84577 210.64886,394.84577 C 231.6443,394.84577 248.66194,411.87073 248.6529,432.86618 L 248.6529,432.86618 z "
     style="fill:white;fill-opacity:1;fill-rule:nonzero;stroke:none;stroke-width:2;stroke-linecap:round;stroke-linejoin:round;stroke-miterlimit:4;stroke-dasharray:8, 2;stroke-dashoffset:0;stroke-opacity:1"
     id="path3745" />
  <path
     d="M 518.62868,285.3242 L 535.33701,342.28502 C 536.32062,344.60802 537.286,346.94522 540.00837,347.91585 L 597.93512,347.7737 C 600.24581,345.76083 602.6278,343.87841 602.99091,339.72321 L 586.57978,282.77532 C 585.23879,278.28259 583.39049,277.00285 581.46262,276.22701 L 522.42778,276.30131 C 519.5498,278.01965 518.53916,281.23187 518.62868,285.3242 z "
     style="fill:#039;fill-opacity:1;fill-rule:evenodd;stroke:none;stroke-width:1px;stroke-linecap:butt;stroke-linejoin:miter;stroke-opacity:1"
     id="path3747" />
  <path
     d="M 435.41796,285.21697 L 452.12629,342.17779 C 453.1099,344.50079 454.07528,346.83798 456.79765,347.80862 L 514.7244,347.66647 C 517.03509,345.6536 519.41708,343.77118 519.78019,339.61598 L 503.36906,282.66809 C 502.02807,278.17536 500.17977,276.89562 498.2519,276.11978 L 439.21706,276.19408 C 436.33908,277.91242 435.32844,281.12464 435.41796,285.21697 z "
     style="fill:#039;fill-opacity:1;fill-rule:evenodd;stroke:none;stroke-width:1px;stroke-linecap:butt;stroke-linejoin:miter;stroke-opacity:1"
     id="path4634" />
  <path
     d="M 352.86764,285.21697 L 369.57597,342.17779 C 370.55958,344.50079 371.52496,346.83798 374.24733,347.80862 L 432.17409,347.66647 C 434.48478,345.6536 436.86676,343.77118 437.22987,339.61598 L 420.81875,282.66808 C 419.47776,278.17536 417.62945,276.89562 415.70158,276.11977 L 356.66675,276.19407 C 353.78876,277.91242 352.77813,281.12464 352.86764,285.21697 z "
     style="fill:#039;fill-opacity:1;fill-rule:evenodd;stroke:none;stroke-width:1px;stroke-linecap:butt;stroke-linejoin:miter;stroke-opacity:1"
     id="path4636" />
  <path
     d="M 270.79957,285.21697 L 287.5079,342.17779 C 288.49151,344.50079 289.45689,346.83798 292.17926,347.80862 L 350.10602,347.66647 C 352.4167,345.6536 354.79869,343.77118 355.1618,339.61598 L 338.75067,282.66808 C 337.40969,278.17536 335.56138,276.89562 333.63351,276.11977 L 274.59868,276.19408 C 271.72069,277.91242 270.71006,281.12464 270.79957,285.21697 z "
     style="fill:#039;fill-opacity:1;fill-rule:evenodd;stroke:none;stroke-width:1px;stroke-linecap:butt;stroke-linejoin:miter;stroke-opacity:1"
     id="path4638" />
  <path
     d="M 201.88452,281.23514 L 201.87474,342.50551 C 202.85835,344.82851 204.56676,347.0171 207.28913,347.98774 L 267.44497,347.77128 C 269.75565,345.75841 272.13764,343.87599 272.50075,339.72079 L 256.08963,282.7729 C 254.74864,278.28018 252.90033,277.00043 250.97246,276.22459 L 206.35235,276.15029 C 203.47437,277.86863 202.83525,277.88583 201.88452,281.23514 z "
     style="fill:#039;fill-opacity:1;fill-rule:evenodd;stroke:none;stroke-width:1px;stroke-linecap:butt;stroke-linejoin:miter;stroke-opacity:1"
     id="path4640" />
  <path
     d="M 187.47977,283.11038 L 187.37406,342.38295 C 186.39045,344.70595 185.42507,347.04314 182.7027,348.01378 L 114.5832,347.66147 C 112.27251,345.6486 109.89052,343.76618 109.52741,339.61098 L 129.93157,282.87325 C 131.27256,278.38053 133.12087,277.10079 135.04874,276.32494 L 183.68066,276.50432 C 186.55864,278.22267 187.56928,279.01805 187.47977,283.11038 z "
     style="fill:#039;fill-opacity:1;fill-rule:evenodd;stroke:none;stroke-width:1px;stroke-linecap:butt;stroke-linejoin:miter;stroke-opacity:1"
     id="path4642" />
</svg>
