<?xml version="1.0" encoding="UTF-8" standalone="no"?>
<!-- Created with Inkscape (http://www.inkscape.org/) -->
<svg
   xmlns:svg="http://www.w3.org/2000/svg"
   xmlns="http://www.w3.org/2000/svg"
   version="1.0"
   width="725"
   height="725"
   id="svg2">
  <defs
     id="defs9" />
  <g
     style="fill-opacity:1"
     id="g1875">
    <circle
       cx="362.5"
       cy="362.5"
       r="350"
       style="fill:white;fill-opacity:1;stroke:black;stroke-width:2.5px"
       id="circle4" />
    <circle
       cx="362.5"
       cy="362.5"
       r="290"
       style="fill:none;fill-opacity:1;stroke:#c00;stroke-width:93.75"
       id="circle6" />
  </g>
  <g
     transform="translate(-8.5735e-2,0)"
     style="fill-opacity:1"
     id="g3776">
    <path
       d="M 226.10768,484.87409 C 240.03676,479.59445 254.37822,475.64475 284.33382,484.87409 C 300.37289,489.75503 317.13972,490.13557 334.81893,484.87409 C 352.45815,478.6733 370.86684,477.32049 390.68911,484.87409 C 407.77794,490.95448 427.91826,488.51014 447.1902,483.51021 C 466.27121,476.91195 481.73978,480.2148 499.40036,484.87409 L 499.40036,500.18926 C 480.10384,492.35999 460.80731,494.09027 441.51078,500.18926 C 421.41231,508.00442 406.48694,504.61017 392.03538,500.18926 C 370.43056,490.52699 351.49181,493.92956 333.13609,500.18926 C 312.12588,507.99694 297.13276,503.93352 281.97786,500.18926 C 256.67357,491.24083 241.19533,495.67825 225.77111,500.18926 L 226.10768,484.87409 z "
       style="fill:#039;fill-opacity:1;fill-rule:evenodd;stroke:none;stroke-width:1px;stroke-linecap:butt;stroke-linejoin:miter;stroke-opacity:1"
       id="path5599" />
    <path
       d="M 226.10768,513.13535 C 240.03676,507.85571 254.37822,503.90601 284.33382,513.13535 C 300.37289,518.01629 317.13972,518.39683 334.81893,513.13535 C 352.45815,506.93456 370.86684,505.58175 390.68911,513.13535 C 407.77794,519.21574 427.91826,516.7714 447.1902,511.77147 C 466.27121,505.17321 481.73978,508.47606 499.40036,513.13535 L 499.40036,528.45052 C 480.10384,520.62125 460.80731,522.35153 441.51078,528.45052 C 421.41231,536.26568 406.48694,532.87143 392.03538,528.45052 C 370.43056,518.78825 351.49181,522.19082 333.13609,528.45052 C 312.12588,536.2582 297.13276,532.19478 281.97786,528.45052 C 256.67357,519.50209 241.19533,523.93951 225.77111,528.45052 L 226.10768,513.13535 z "
       style="fill:#039;fill-opacity:1;fill-rule:evenodd;stroke:none;stroke-width:1px;stroke-linecap:butt;stroke-linejoin:miter;stroke-opacity:1"
       id="path5597" />
  </g>
  <g
     transform="matrix(0.998512,0,0,1,855.2924,-420.5174)"
     style="fill:black;fill-opacity:1"
     id="g3818">
    <path
       d="M -613.62771,804.14653 L -585.37101,804.14653 L -581.95688,809.31013 L -581.85085,881.83388 L -587.15229,886.98689 L -612.66285,887.30498 L -617.04184,882.90477 L -616.82978,807.7197 L -613.62771,804.14653 z "
       style="fill:black;fill-opacity:1;fill-rule:evenodd;stroke:none;stroke-width:1px;stroke-linecap:butt;stroke-linejoin:miter;stroke-opacity:1"
       id="path3780" />
    <path
       d="M -572.4182,804.6503 L -575.63695,808.2128 L -575.8557,883.4003 L -571.44945,887.80655 L -545.94945,887.49405 L -540.63695,882.3378 L -540.6682,858.5878 L -537.76195,855.5253 L -517.63695,855.43155 L -517.6057,856.36905 L -514.7932,856.30655 C -514.70819,858.3126 -503.54907,868.55653 -493.26195,868.55655 L -493.26195,868.49405 C -482.98355,868.47348 -471.87813,858.27932 -471.7932,856.2753 L -468.9807,856.3378 L -468.9182,855.36905 L -448.7932,855.49405 L -446.01195,858.4003 L -446.07445,883.4003 L -441.69945,887.80655 L -416.19945,887.49405 L -410.88695,882.3378 L -411.01195,809.80655 L -414.4182,804.6503 L -442.6682,804.6503 L -445.88695,808.2128 L -445.94945,831.9628 L -449.9807,836.11905 L -468.94945,836.05655 L -468.9182,835.0878 L -471.9807,835.05655 C -471.98069,832.16599 -482.9894,822.99405 -493.2932,822.99405 L -493.2932,823.0253 C -503.58777,823.04443 -514.57446,832.23148 -514.57445,835.11905 L -517.63695,835.11905 L -517.63695,836.11905 L -536.6057,836.1503 L -540.7307,831.9003 L -540.76195,809.80655 L -544.1682,804.6503 L -572.4182,804.6503 z "
       style="fill:black;fill-opacity:1;fill-rule:evenodd;stroke:none;stroke-width:1px;stroke-linecap:butt;stroke-linejoin:miter;stroke-opacity:1"
       id="path3784" />
    <path
       d="M -401.78864,804.05321 L -373.53194,804.05321 L -370.11781,809.21681 L -370.01178,881.74056 L -375.31322,886.89357 L -400.82378,887.21166 L -405.20277,882.81145 L -404.99071,807.62638 L -401.78864,804.05321 z "
       style="fill:black;fill-opacity:1;fill-rule:evenodd;stroke:none;stroke-width:1px;stroke-linecap:butt;stroke-linejoin:miter;stroke-opacity:1"
       id="path3788" />
  </g>
  <path
     d="M 225.05803,336.52885 L 225.05803,378.3915 L 499.06176,378.3915 L 499.20845,336.51488 L 461.48809,336.5168 C 405.51057,370.43438 319.58159,369.62551 263.01592,336.52692 L 225.05803,336.52885 z "
     style="fill:black;fill-opacity:1;fill-rule:evenodd;stroke:none;stroke-width:1px;stroke-linecap:butt;stroke-linejoin:miter;stroke-opacity:1"
     id="path3823" />
  <path
     d="M 463.86172 273.58536 A 128.20508 73.022957 0 1 1  207.45157,273.58536 A 128.20508 73.022957 0 1 1  463.86172 273.58536 z"
     transform="matrix(0.993859,0,0,1.108538,28.90462,-34.6734)"
     style="opacity:1;fill:#f60;fill-opacity:1;fill-rule:nonzero;stroke:black;stroke-width:15;stroke-linecap:round;stroke-linejoin:round;stroke-miterlimit:4;stroke-dasharray:none;stroke-dashoffset:0;stroke-opacity:1"
     id="path3827" />
</svg>
