<?xml version="1.0" encoding="UTF-8" standalone="no"?>
<!-- Created with Inkscape (http://www.inkscape.org/) -->
<svg
   xmlns:svg="http://www.w3.org/2000/svg"
   xmlns="http://www.w3.org/2000/svg"
   version="1.0"
   width="760"
   height="760"
   id="svg2">
  <defs
     id="defs4" />
  <path
     d="M 45.824811,3.3417118 L 713.26505,3.3417118 C 730.52936,3.3417118 757.66931,28.70753 757.66931,47.945769 L 757.66931,711.00841 C 757.66931,728.56947 731.4376,756.65818 710.65713,756.65818 L 48.432727,756.65818 C 31.534484,756.65818 3.7545745,731.36166 3.7545745,718.73902 L 3.7545745,46.269253 C 3.7545745,27.174554 26.491429,3.3417118 45.824811,3.3417118 z "
     style="fill:white;fill-opacity:1;fill-rule:nonzero;stroke:black;stroke-width:2.01808;stroke-linecap:round;stroke-linejoin:round;stroke-miterlimit:4;stroke-dashoffset:0;stroke-opacity:1"
     id="rect2841" />
  <path
     d="M 25.443662,52.632534 L 25.443662,710.96204 C 25.443662,726.77315 40.985837,735.15473 52.918434,735.15473 L 710.27844,734.90301 C 721.49547,734.90301 734.94337,721.48607 734.94337,708.97952 L 734.94337,54.088023 C 735.11544,34.671252 719.24918,24.683563 708.05602,24.683563 L 53.853079,24.935273 C 34.160919,24.935273 25.443662,39.076817 25.443662,52.632534 z "
     style="fill:none;fill-opacity:1;fill-rule:evenodd;stroke:black;stroke-width:17;stroke-linecap:butt;stroke-linejoin:miter;stroke-miterlimit:4;stroke-dasharray:none;stroke-opacity:1"
     id="path1934" />
  <circle
     cx="362.5"
     cy="362.5"
     r="290"
     transform="matrix(0.716659,0,0,0.716659,120.2111,111.7111)"
     style="opacity:1;fill:none;stroke:#c00;stroke-width:93.75"
     id="circle6" />
  <path
     d="M 239.07224,402.68666 L 247.15055,393.50174 C 250.17529,395.93631 253.66113,397.89134 257.60808,399.36681 C 261.555,400.84231 265.68636,401.58006 270.0022,401.58005 C 274.98194,401.58006 278.89199,400.54722 281.73235,398.48152 C 284.57262,396.41585 285.99278,393.70464 285.99283,390.34788 C 285.99278,384.0033 282.48849,380.36991 275.47996,379.44769 C 273.63556,379.2264 271.9203,379.00508 270.33419,378.78372 C 268.748,378.56243 266.90364,378.30422 264.8011,378.00909 C 257.82939,377.05006 252.51763,374.49562 248.8658,370.34576 C 245.21396,366.19599 243.38804,361.18855 243.38805,355.32343 C 243.38804,348.46246 245.68427,342.81872 250.27674,338.39218 C 254.86919,333.96579 261.33367,331.75255 269.67022,331.75247 C 274.64996,331.75255 279.33464,332.54563 283.72426,334.1317 C 288.11379,335.71793 292.15294,337.72828 295.84172,340.16276 L 289.03603,350.23299 C 286.085,348.38869 282.9127,346.89476 279.51911,345.75118 C 276.12545,344.60775 272.65805,344.036 269.11691,344.03593 C 265.35438,344.036 262.16364,344.99506 259.54466,346.91313 C 256.92565,348.83133 255.61615,351.70854 255.61617,355.54475 C 255.61615,357.83182 256.50145,359.97127 258.27205,361.96313 C 260.04262,363.95509 262.97515,365.26459 267.06966,365.89163 C 268.13936,366.07611 269.43042,366.26977 270.94283,366.4726 C 272.45517,366.67553 274.18887,366.88763 276.14393,367.10891 C 283.66888,368.03113 289.22963,370.76079 292.82619,375.29788 C 296.42264,379.83504 298.22089,384.8517 298.22095,390.34788 C 298.22089,397.76223 295.65723,403.51664 290.52996,407.61111 C 285.40258,411.7056 278.52312,413.75284 269.89154,413.75284 C 257.75561,413.75284 247.48252,410.06412 239.07224,402.68666 L 239.07224,402.68666 z M 311.16838,413.08887 L 311.16838,332.47177 L 322.73254,332.47177 L 345.86085,385.03611 L 368.49118,332.47177 L 380.05533,332.47177 L 380.05533,413.08887 L 367.82721,413.08887 L 367.82721,362.7931 L 367.60588,362.7931 L 350.72996,401.58005 L 340.54908,401.58005 L 323.67316,362.7931 L 323.39651,362.7931 L 323.39651,413.08887 L 311.16838,413.08887 z M 394.3307,372.80799 C 394.3307,363.10669 394.58891,356.8543 395.10534,354.05082 C 395.62175,351.24745 396.54393,348.66534 397.87188,346.30449 C 399.75312,342.80027 402.84242,339.49887 407.1398,336.40026 C 411.43715,333.30182 416.75813,331.75255 423.10276,331.75247 C 429.41044,331.75255 434.71298,333.30182 439.01039,336.40026 C 443.3077,339.49887 446.43389,342.80027 448.38898,346.30449 C 449.67997,348.66534 450.58371,351.24745 451.10019,354.05082 C 451.61655,356.8543 451.87476,363.10669 451.87482,372.80799 C 451.87476,382.50937 451.61655,388.76175 451.10019,391.56516 C 450.58371,394.36861 449.67997,396.95071 448.38898,399.31148 C 446.43389,402.85267 443.3077,406.14485 439.01039,409.18804 C 434.71298,412.23124 429.41044,413.75284 423.10276,413.75284 C 416.75813,413.75284 411.43715,412.23124 407.1398,409.18804 C 402.84242,406.14485 399.75312,402.85267 397.87188,399.31148 C 396.54393,396.95071 395.62175,394.36861 395.10534,391.56516 C 394.58891,388.76175 394.3307,382.50937 394.3307,372.80799 L 394.3307,372.80799 z M 406.55883,372.80799 C 406.55881,381.10765 406.84469,386.49318 407.41646,388.9646 C 407.98819,391.43607 409.06714,393.66775 410.65331,395.65964 C 411.87057,397.2827 413.5305,398.67519 415.63309,399.83712 C 417.73564,400.99908 420.22553,401.58006 423.10276,401.58005 C 425.97993,401.58006 428.46982,400.99908 430.57243,399.83712 C 432.67496,398.67519 434.33489,397.2827 435.55221,395.65964 C 437.13832,393.66775 438.21727,391.43607 438.78907,388.9646 C 439.36077,386.49318 439.64665,381.10765 439.6467,372.80799 C 439.64665,364.54529 439.36077,359.1782 438.78907,356.7067 C 438.21727,354.23531 437.13832,351.96675 435.55221,349.901 C 434.33489,348.3518 432.67496,346.98697 430.57243,345.80652 C 428.46982,344.62619 425.97993,344.036 423.10276,344.03593 C 420.22553,344.036 417.73564,344.62619 415.63309,345.80652 C 413.5305,346.98697 411.87057,348.3518 410.65331,349.901 C 409.06714,351.96675 407.98819,354.23531 407.41646,356.7067 C 406.84469,359.1782 406.55881,364.54529 406.55883,372.80799 L 406.55883,372.80799 z M 492.26637,380.27766 L 492.26637,368.7135 L 520.92777,368.7135 L 520.92777,385.14677 C 520.92771,393.15133 518.14272,399.92013 512.57281,405.45321 C 507.00278,410.9863 500.19709,413.75284 492.15571,413.75284 C 485.81108,413.75284 480.49009,412.23124 476.19275,409.18804 C 471.89537,406.14485 468.80607,402.85267 466.92483,399.31148 C 465.59688,396.95071 464.6747,394.36861 464.15828,391.56516 C 463.64186,388.76175 463.38365,382.50937 463.38365,372.80799 C 463.38365,363.10669 463.64186,356.8543 464.15828,354.05082 C 464.6747,351.24745 465.59688,348.66534 466.92483,346.30449 C 468.80607,342.80027 471.89537,339.49887 476.19275,336.40026 C 480.49009,333.30182 485.81108,331.75255 492.15571,331.75247 C 499.79133,331.75255 506.10827,334.10411 511.10654,338.80716 C 516.1047,343.51035 519.2309,349.12643 520.48512,355.65541 L 507.59303,355.65541 C 506.59702,352.55694 504.74344,349.84573 502.03227,347.52177 C 499.32102,345.19794 496.02883,344.036 492.15571,344.03593 C 489.27847,344.036 486.78859,344.62619 484.68604,345.80652 C 482.58344,346.98697 480.92352,348.3518 479.70626,349.901 C 478.12009,351.96675 477.04114,354.23531 476.46941,356.7067 C 475.89764,359.1782 475.61176,364.54529 475.61178,372.80799 C 475.61176,381.10765 475.89764,386.49318 476.46941,388.9646 C 477.04114,391.43607 478.12009,393.66775 479.70626,395.65964 C 480.92352,397.2827 482.58344,398.67519 484.68604,399.83712 C 486.78859,400.99908 489.27847,401.58006 492.15571,401.58005 C 496.80347,401.58006 500.72273,399.99391 503.91352,396.82159 C 507.10422,393.64931 508.69959,389.51794 508.69965,384.42747 L 508.69965,380.27766 L 492.26637,380.27766 z "
     style="font-size:113.31764984px;font-style:normal;font-variant:normal;font-weight:normal;font-stretch:normal;text-align:center;line-height:100%;writing-mode:lr-tb;text-anchor:middle;fill:black;fill-opacity:1;stroke:none;stroke-width:1px;stroke-linecap:butt;stroke-linejoin:miter;stroke-opacity:1;font-family:DIN 1451 Mittelschrift"
     id="text1928" />
</svg>
