<?xml version="1.0" encoding="UTF-8" standalone="no"?>
<svg
   xmlns:dc="http://purl.org/dc/elements/1.1/"
   xmlns:cc="http://web.resource.org/cc/"
   xmlns:rdf="http://www.w3.org/1999/02/22-rdf-syntax-ns#"
   xmlns:svg="http://www.w3.org/2000/svg"
   xmlns="http://www.w3.org/2000/svg"
   xmlns:sodipodi="http://inkscape.sourceforge.net/DTD/sodipodi-0.dtd"
   xmlns:inkscape="http://www.inkscape.org/namespaces/inkscape"
   sodipodi:docname="Zeichen_286.svg"
   inkscape:version="0.41"
   sodipodi:version="0.32"
   width="725"
   height="725"
   version="1.1">
  <metadata>
    <RDF>
      <Work>
        <format>image/svg+xml</format>
        <type resource="http://purl.org/dc/dcmitype/StillImage" />
      </Work>
    </RDF>
    <rdf:RDF>
      <cc:Work>
        <dc:format>image/svg+xml</dc:format>
        <dc:type rdf:resource="http://purl.org/dc/dcmitype/StillImage" />
        <dc:creator>
          <cc:Agent>
            <dc:title>MarianSigler, mariansigler@gmail.com</dc:title>
          </cc:Agent>
        </dc:creator>
        <cc:license rdf:resource="http://web.resource.org/cc/PublicDomain" />
      </cc:Work>
      <cc:License rdf:about="http://web.resource.org/cc/PublicDomain">
        <cc:permits rdf:resource="http://web.resource.org/cc/Reproduction" />
        <cc:permits rdf:resource="http://web.resource.org/cc/Distribution" />
        <cc:permits rdf:resource="http://web.resource.org/cc/DerivativeWorks" />
        <cc:requires rdf:resource="http://web.resource.org/cc/ShareAlike" />
      </cc:License>
    </rdf:RDF>
  </metadata>
  
  <path style="fill:#FFFFFF; fill-opacity:1; fill-rule:evenodd; stroke:#000000; stroke-width:2.5; stroke-linecap:butt; stroke-linejoin:miter; stroke-miterlimit:4; stroke-dashoffset:0; stroke-opacity:1"
     d="M 712.5,362.5 C 712.5,555.79966 555.79966,712.5 362.5,712.5 C 169.20034,712.5 12.5,555.79966 12.5,362.5 C 12.5,169.20034 169.20034,12.5 362.5,12.5 C 555.79966,12.5 712.5,169.20034 712.5,362.5 L 712.5,362.5 z " />

  <path style="fill:#CC0000; fill-opacity:1; fill-rule:evenodd; stroke:none; stroke-width:93.75; stroke-linecap:butt; stroke-linejoin:miter; stroke-miterlimit:4; stroke-dashoffset:0; stroke-opacity:1"
     d="M 362.5,25.625 C 177.05768,25.625 25.625,177.05768 25.625,362.5 C 25.625,547.94232 177.05768,699.375 362.5,699.375 C 547.94232,699.375 699.375,547.94232 699.375,362.5 C 699.375,177.05768 547.94232,25.625 362.5,25.625 z M 362.5,119.375 C 497.21768,119.375 605.625,227.78232 605.625,362.5 C 605.625,497.21768 497.21768,605.625 362.5,605.625 C 227.78232,605.625 119.375,497.21768 119.375,362.5 C 119.375,227.78232 227.78232,119.375 362.5,119.375 z " />

  <path style="fill:#003399; fill-opacity:1; fill-rule:evenodd; stroke:none"
     d="M 612.5,362.5 C 612.5,500.5 500.5,612.5 362.5,612.5 C 224.5,612.5 112.5,500.5 112.5,362.5 C 112.5,224.5 224.5,112.5 362.5,112.5 C 500.5,112.5 612.5,224.5 612.5,362.5 z " />

  <path style="fill:none; stroke:#CC0000; stroke-width:87.5; stroke-linecap:butt; stroke-linejoin:miter; stroke-opacity:1; stroke-dasharray:none; stroke-miterlimit:4"
     d="M 180.31265,180.31267 L 544.68736,544.68733" />
  <path style="fill:none; stroke:#CC0000; stroke-width:87.5; stroke-linecap:butt; stroke-linejoin:miter; stroke-opacity:1; stroke-dasharray:none; stroke-miterlimit:4"
     d="M 180.31265,544.68733 L 544.68736,180.31267" />
</svg>
