<?xml version="1.0" encoding="UTF-8" standalone="no"?>
<!-- Created with Inkscape (http://www.inkscape.org/) -->

<svg
   xmlns:svg="http://www.w3.org/2000/svg"
   xmlns="http://www.w3.org/2000/svg"
   version="1.0"
   width="725"
   height="725"
   id="svg2">
  <defs
     id="defs9" />
  <g
     id="g1875">
    <circle
       cx="362.5"
       cy="362.5"
       r="350"
       id="circle4"
       style="fill:#ffffff;stroke:#000000;stroke-width:2.5px" />
    <circle
       cx="362.5"
       cy="362.5"
       r="290"
       id="circle6"
       style="fill:none;stroke:#cc0000;stroke-width:93.75" />
  </g>
  <path
     d="m 298.79711,198.75117 c -3e-5,6.80582 2.13089,11.95967 6.39275,15.46155 4.2618,3.50206 9.03572,5.25304 14.32176,5.25296 5.28594,8e-5 10.05986,-1.7509 14.32175,-5.25296 4.26177,-3.50188 6.39269,-8.65573 6.39276,-15.46155 -7e-5,-6.73954 -2.13099,-11.87686 -6.39276,-15.41199 -4.26189,-3.53489 -9.03581,-5.30239 -14.32175,-5.30252 -5.28604,1.3e-4 -10.05996,1.76763 -14.32176,5.30252 -4.26186,3.53513 -6.39278,8.67245 -6.39275,15.41199 z m -23.29144,62.14353 c 0,-14.07392 5.68244,-24.9102 17.04735,-32.5089 -4.29489,-3.83227 -7.78034,-8.07758 -10.45637,-12.73595 -2.67604,-4.6582 -4.01406,-10.15893 -4.01405,-16.50223 -1e-5,-11.62908 3.98101,-21.50728 11.94305,-29.63463 7.96201,-8.12709 17.79066,-12.19069 29.48597,-12.19084 11.69521,1.5e-4 21.52386,4.06375 29.48596,12.19084 7.96195,8.12735 11.94297,18.00555 11.94306,29.63463 -9e-5,6.3433 -1.35463,11.84403 -4.06361,16.50223 -2.70916,4.65837 -6.14506,8.90368 -10.3077,12.73595 11.29873,7.66477 16.94814,18.50106 16.94823,32.5089 -9e-5,12.81858 -4.34452,23.2419 -13.03329,31.26999 -8.68893,8.02812 -19.01314,12.04217 -30.97265,12.04217 -12.02569,0 -22.36641,-4.01405 -31.02221,-12.04217 -8.65583,-8.02809 -12.98374,-18.45141 -12.98374,-31.26999 z m 20.71451,-0.19822 c -2e-5,6.60753 2.32912,12.07523 6.98743,16.40311 4.65825,4.32794 10.09292,6.49189 16.30401,6.49187 6.14492,2e-5 11.57958,-2.16393 16.304,-6.49187 4.72429,-4.32788 7.08647,-9.79558 7.08655,-16.40311 -8e-5,-6.60745 -2.36226,-12.09167 -7.08655,-16.45268 -4.72442,-4.36088 -10.15908,-6.54136 -16.304,-6.54142 -6.21109,6e-5 -11.64576,2.18054 -16.30401,6.54142 -4.65831,4.36101 -6.98745,9.84523 -6.98743,16.45268 z"
     id="path2836"
     style="font-size:202.9823761px;font-style:normal;font-variant:normal;font-weight:bold;font-stretch:normal;text-align:center;line-height:100%;writing-mode:lr-tb;text-anchor:middle;fill:#000000;fill-opacity:1;stroke:none;font-family:DIN 1451 Mittelschrift" />
  <path
     d="m 399.28689,167.71382 -0.0883,31.57596 -10.38537,0.0884 0,18.09647 10.42999,0 0.0883,66.68594 c 0,8.80137 12.88156,20.72607 19.04741,20.72607 l 16.06257,0 -0.17669,-20.39452 -8.10825,0.0883 c -2.43763,0 -5.13324,-1.77685 -5.13324,-4.03486 l 0,-63.0054 13.26427,-0.0884 0,-18.09648 -13.3902,0 0.0884,-31.59781 -21.69885,-0.0437 z"
     id="path1886"
     style="fill:#000000;fill-opacity:1;fill-rule:evenodd;stroke:none" />
  <path
     d="m 353.40625,323.09375 0,45.8125 -29.8125,-29.3125 0,24.15625 38.3125,37.4375 38.4375,-37.375 0,-24.15625 -29.8125,29.3125 0,-45.8125 -17.125,-0.0625 z"
     id="path1926"
     style="fill:#000000;fill-opacity:1;fill-rule:evenodd;stroke:none" />
  <g
     transform="matrix(1.428013,0,0,1.428013,1324.992,-643.5999)"
     id="g1968"
     style="fill:#000000;fill-opacity:1">
    <path
       d="m -794.10851,724.65673 28.2567,0 3.41413,5.1636 0.10603,72.52375 -5.30144,5.15301 -25.51056,0.31809 -4.37899,-4.40021 0.21206,-75.18507 3.20207,-3.57317 z"
       id="path3780"
       style="fill:#000000;fill-opacity:1;fill-rule:evenodd;stroke:none" />
    <path
       d="m -752.899,725.1605 -3.21875,3.5625 -0.21875,75.1875 4.40625,4.40625 25.5,-0.3125 5.3125,-5.15625 -0.0312,-23.75 2.90625,-3.0625 20.125,-0.0937 0.0312,0.9375 2.8125,-0.0625 c 0.085,2.00605 11.24413,12.24998 21.53125,12.25 l 0,-0.0625 c 10.2784,-0.0206 21.38382,-10.21473 21.46875,-12.21875 l 2.8125,0.0625 0.0625,-0.96875 20.125,0.125 2.78125,2.90625 -0.0625,25 4.375,4.40625 25.5,-0.3125 5.3125,-5.15625 -0.125,-72.53125 -3.40625,-5.15625 -28.25,0 -3.21875,3.5625 -0.0625,23.75 -4.03125,4.15625 -18.96875,-0.0625 0.0312,-0.96875 -3.0625,-0.0312 c 10e-6,-2.89056 -11.0087,-12.0625 -21.3125,-12.0625 l 0,0.0312 c -10.29457,0.0191 -21.28126,9.20618 -21.28125,12.09375 l -3.0625,0 0,1 -18.96875,0.0312 -4.125,-4.25 -0.0312,-22.09375 -3.40625,-5.15625 -28.25,0 z"
       id="path3784"
       style="fill:#000000;fill-opacity:1;fill-rule:evenodd;stroke:none" />
    <path
       d="m -582.26944,724.56341 28.2567,0 3.41413,5.1636 0.10603,72.52375 -5.30144,5.15301 -25.51056,0.31809 -4.37899,-4.40021 0.21206,-75.18507 3.20207,-3.57317 z"
       id="path3788"
       style="fill:#000000;fill-opacity:1;fill-rule:evenodd;stroke:none" />
  </g>
</svg>
