<?xml version="1.0" encoding="UTF-8" standalone="no"?>
<!-- Created with Inkscape (http://www.inkscape.org/) -->
<svg
   xmlns:svg="http://www.w3.org/2000/svg"
   xmlns="http://www.w3.org/2000/svg"
   version="1.0"
   width="600"
   height="600"
   id="svg1961">
  <defs
     id="defs1963" />
  <path
     d="M 46.33899,592.51787 C 37.64007,592.49001 24.67178,587.49632 18.75874,580.81716 L 15.83356,577.4741 L 13.32627,573.71315 L 10.81897,569.53433 L 9.14744,564.93762 L 8.31168,560.34091 L 7.47591,555.7442 L 7.47591,46.34529 C 8.2072,33.72524 10.97219,28.46688 18.75874,18.76504 L 22.51968,15.83986 L 26.28063,13.33257 L 30.45945,10.82527 L 35.05616,9.15374 L 44.24958,7.48221 L 553.23061,7.48221 C 564.994,7.9767 572.09104,10.79741 580.81086,18.76504 L 584.15392,22.52598 L 586.66122,26.28693 L 588.75063,30.46575 L 590.42216,35.06246 L 591.67581,39.65917 L 592.51157,44.25588 L 592.51157,553.23691 C 592.81802,561.03738 587.46912,576.10901 580.81086,580.81716 L 577.4678,584.16022 L 573.70685,586.66752 L 569.52803,588.75693 L 564.93132,590.42846 L 560.33461,591.68211 L 555.7379,592.51787 L 46.33899,592.51787"
     style="fill:#fffefe;fill-rule:evenodd;stroke:black;stroke-opacity:1"
     id="path46" />
  <path
     d="M 52.971361,575.52467 C 45.58591,575.61969 38.343001,572.41571 33.014348,567.37894 L 30.570626,564.93522 L 28.534199,561.67693 L 27.312339,558.82592 L 26.090477,555.56764 L 25.27591,552.30935 L 24.868617,549.05106 L 24.461334,547.01463 L 24.461334,52.976521 C 25.61531,46.181634 27.142634,37.526799 33.014348,33.019507 L 35.458059,30.575785 L 38.309063,28.539358 L 44.82564,26.095637 L 48.083929,25.28107 L 51.342216,24.873776 L 52.971361,24.473276 L 547.00947,24.473276 C 554.25916,25.484711 562.37772,27.168152 567.37377,33.02629 L 569.4102,35.470012 L 571.44663,38.314223 L 573.07577,41.572511 L 574.29763,44.8308 L 575.11221,48.089087 L 575.5195,51.347376 L 575.5195,547.01463 C 575.83175,554.60372 572.29514,561.79912 567.37377,567.37894 L 564.93005,569.41537 L 561.67177,571.4518 L 558.82076,573.08094 L 555.56247,574.3028 L 552.30418,575.11738 L 549.04589,575.52467 L 52.971361,575.52467"
     style="fill:none;fill-rule:evenodd;stroke:black;stroke-width:15;stroke-miterlimit:4;stroke-dasharray:none"
     id="path50" />
  <g
     transform="matrix(0.550473,0,0,0.550473,333.9396,72.41625)"
     style="opacity:1"
     id="g1923">
    <path
       d="M -61.9048,-21.00199 C -247.34712,-21.00199 -398.7798,130.43069 -398.7798,315.87301 C -398.7798,501.31533 -247.34712,652.74801 -61.9048,652.74801 C 123.53752,652.74801 274.9702,501.31533 274.9702,315.87301 C 274.9702,130.43069 123.53752,-21.00199 -61.9048,-21.00199 z M -61.9048,72.74801 C 72.81288,72.74801 181.2202,181.15533 181.2202,315.87301 C 181.2202,450.59069 72.81288,558.99801 -61.9048,558.99801 C -196.62248,558.99801 -305.0298,450.59069 -305.0298,315.87301 C -305.0298,181.15533 -196.62248,72.74801 -61.9048,72.74801 z "
       style="fill:#c00;fill-opacity:1;fill-rule:evenodd;stroke:none;stroke-width:93.75;stroke-linecap:butt;stroke-linejoin:miter;stroke-miterlimit:4;stroke-dashoffset:0;stroke-opacity:1"
       id="path1904" />
    <path
       d="M 188.0952,315.87301 C 188.0952,453.87301 76.0952,565.87301 -61.9048,565.87301 C -199.9048,565.87301 -311.9048,453.87301 -311.9048,315.87301 C -311.9048,177.87301 -199.9048,65.87301 -61.9048,65.87301 C 76.0952,65.87301 188.0952,177.87301 188.0952,315.87301 z "
       style="fill:#039;fill-opacity:1;fill-rule:evenodd;stroke:none"
       id="path1906" />
    <path
       d="M -244.09215,133.68568 L 120.28256,498.06034"
       style="fill:none;stroke:#c00;stroke-width:87.5;stroke-linecap:butt;stroke-linejoin:miter;stroke-miterlimit:4;stroke-dasharray:none;stroke-opacity:1"
       id="path1908" />
  </g>
  <path
     d="M 46.33899,592.51787 L 44.24958,592.51787 M 44.24958,592.51787 L 39.65287,591.68211 M 39.65287,591.68211 L 35.05616,590.42846 M 35.05616,590.42846 L 30.45945,588.75693 M 30.45945,588.75693 L 26.28063,586.66752 M 26.28063,586.66752 L 22.51968,584.16022 M 22.51968,584.16022 L 18.75874,580.81716 M 18.75874,580.81716 L 15.83356,577.4741 M 15.83356,577.4741 L 13.32627,573.71315 M 13.32627,573.71315 L 10.81897,569.53433 M 10.81897,569.53433 L 9.14744,564.93762 M 9.14744,564.93762 L 8.31168,560.34091 M 8.31168,560.34091 L 7.47591,555.7442 M 7.47591,555.7442 L 7.47591,553.23691 L 7.47591,46.34529 L 7.47591,44.25588 M 7.47591,44.25588 L 8.31168,39.65917 M 8.31168,39.65917 L 9.14744,35.06246 M 9.14744,35.06246 L 10.81897,30.46575 M 10.81897,30.46575 L 13.32627,26.28693 M 13.32627,26.28693 L 15.83356,22.52598 M 15.83356,22.52598 L 18.75874,18.76504 M 18.75874,18.76504 L 22.51968,15.83986 M 22.51968,15.83986 L 26.28063,13.33257 M 26.28063,13.33257 L 30.45945,10.82527 M 30.45945,10.82527 L 35.05616,9.15374 M 35.05616,9.15374 L 39.65287,8.31798 L 44.24958,7.48221 M 44.24958,7.48221 L 46.33899,7.48221 L 553.23061,7.48221 L 555.7379,7.48221 M 555.7379,7.48221 L 560.33461,8.31798 L 564.93132,9.15374 M 564.93132,9.15374 L 569.52803,10.82527 M 569.52803,10.82527 L 573.70685,13.33257 M 573.70685,13.33257 L 577.4678,15.83986 M 577.4678,15.83986 L 580.81086,18.76504 M 580.81086,18.76504 L 584.15392,22.52598 M 584.15392,22.52598 L 586.66122,26.28693 M 586.66122,26.28693 L 588.75063,30.46575 M 588.75063,30.46575 L 590.42216,35.06246 M 590.42216,35.06246 L 591.67581,39.65917 M 591.67581,39.65917 L 592.51157,44.25588 M 592.51157,44.25588 L 592.51157,46.34529 L 592.51157,553.23691 L 592.51157,555.7442 M 592.51157,555.7442 L 591.67581,560.34091 M 591.67581,560.34091 L 590.42216,564.93762 M 590.42216,564.93762 L 588.75063,569.53433 M 588.75063,569.53433 L 586.66122,573.71315 M 586.66122,573.71315 L 584.15392,577.4741 M 584.15392,577.4741 L 580.81086,580.81716 L 577.4678,584.16022 M 577.4678,584.16022 L 573.70685,586.66752 M 573.70685,586.66752 L 569.52803,588.75693 M 569.52803,588.75693 L 564.93132,590.42846 M 564.93132,590.42846 L 560.33461,591.68211 M 560.33461,591.68211 L 555.7379,592.51787 M 555.7379,592.51787 L 553.23061,592.51787 M 553.23061,592.51787 L 46.33899,592.51787"
     id="path48" />
  <path
     d="M 164.18189,540.70043 L 164.18189,530.25336 L 201.37344,469.66038 L 165.43554,469.66038 L 165.43554,458.79543 L 216.8351,458.79543 L 216.8351,467.98885 L 179.22567,528.99971 L 216.8351,528.99971 L 216.8351,540.70043 L 164.18189,540.70043 z M 228.53581,511.86653 C 226.31407,489.76054 226.30014,461.89473 254.02665,458.37755 C 262.17536,457.08212 271.99561,459.96551 277.84596,465.89944 C 285.38178,474.04815 285.29124,476.74349 287.03938,487.21145 C 288.89896,510.02088 288.89896,536.54946 261.13066,541.11831 C 243.92086,543.26344 227.8881,529.33402 228.53581,511.86653 z M 240.65441,511.86653 C 242.12396,494.98407 234.19812,475.55949 255.2803,470.49615 C 265.2677,469.38179 274.55165,476.90368 274.5029,487.21145 C 274.93471,500.30511 279.56625,526.00489 259.87701,528.58183 C 249.82693,530.2464 240.5569,522.02804 240.65441,511.86653 z M 302.91892,540.70043 L 302.91892,458.79543 L 314.61963,458.79543 L 351.81119,517.299 L 351.81119,458.79543 L 364.34766,458.79543 L 364.34766,540.70043 L 352.64695,540.70043 L 315.4554,482.19686 L 315.4554,540.70043 L 302.91892,540.70043 z M 383.15238,540.70043 L 383.15238,458.79543 L 435.80559,458.79543 L 435.80559,470.49615 L 395.68886,470.49615 L 395.68886,493.89757 L 429.95523,493.89757 L 429.95523,504.76252 L 395.68886,504.76252 L 395.68886,528.99971 L 435.80559,528.99971 L 435.80559,540.70043 L 383.15238,540.70043"
     style="fill:black;fill-rule:evenodd;stroke:none"
     id="path62" />
</svg>
