<?xml version="1.0" encoding="UTF-8" standalone="no"?>
<!-- Created with Inkscape (http://www.inkscape.org/) -->
<svg
   xmlns:dc="http://purl.org/dc/elements/1.1/"
   xmlns:cc="http://web.resource.org/cc/"
   xmlns:rdf="http://www.w3.org/1999/02/22-rdf-syntax-ns#"
   xmlns:svg="http://www.w3.org/2000/svg"
   xmlns="http://www.w3.org/2000/svg"
   xmlns:sodipodi="http://sodipodi.sourceforge.net/DTD/sodipodi-0.dtd"
   xmlns:inkscape="http://www.inkscape.org/namespaces/inkscape"
   version="1.0"
   width="725"
   height="725"
   id="svg2"
   sodipodi:version="0.32"
   inkscape:version="0.44"
   sodipodi:docname="Zeichen 268.svg"
   sodipodi:docbase="C:\Dokumente und Einstellungen\Internet\Desktop\Wiki\SVG">
  <metadata
     id="metadata18">
    <rdf:RDF>
      <cc:Work
         rdf:about="">
        <dc:format>image/svg+xml</dc:format>
        <dc:type
           rdf:resource="http://purl.org/dc/dcmitype/StillImage" />
      </cc:Work>
    </rdf:RDF>
  </metadata>
  <sodipodi:namedview
     inkscape:window-height="749"
     inkscape:window-width="1024"
     inkscape:pageshadow="2"
     inkscape:pageopacity="0.0"
     guidetolerance="10.0"
     gridtolerance="10.0"
     objecttolerance="10.0"
     borderopacity="1.0"
     bordercolor="#666666"
     pagecolor="#ffffff"
     id="base"
     inkscape:zoom="1.1452534"
     inkscape:cx="436.06524"
     inkscape:cy="272.50156"
     inkscape:window-x="-4"
     inkscape:window-y="-4"
     inkscape:current-layer="svg2" />
  <defs
     id="defs9" />
  <circle
     cx="362.5"
     cy="362.5"
     r="350"
     style="fill:white;stroke:black;stroke-width:2.5px"
     id="circle4" />
  <path
     d="M -176.30905,369.66949 C -176.30905,540.44638 -314.75107,678.88839 -485.52795,678.88839 C -656.30484,678.8884 -794.74686,540.44638 -794.74686,369.66949 C -794.74686,198.8926 -656.30484,60.450585 -485.52795,60.450585 C -314.75107,60.450585 -176.30905,198.8926 -176.30905,369.66949 z "
     style="opacity:1;fill:#039;fill-opacity:1;fill-rule:nonzero;stroke:none;stroke-width:2;stroke-linecap:round;stroke-linejoin:round;stroke-miterlimit:4;stroke-dasharray:none;stroke-dashoffset:0;stroke-opacity:1"
     id="path1883"
     transform="matrix(1.061206,0,0,1.061206,877.7452,-29.79549)" />
  <path
     style="fill:white;fill-opacity:1;fill-rule:evenodd;stroke:none;stroke-width:1px;stroke-linecap:butt;stroke-linejoin:miter;stroke-opacity:1"
     d="M 329.44838,657.68381 C 192.51917,632.50501 170.53994,539.42549 147.07361,390.69976 C 127.0443,263.7573 200.46315,101.82253 299.1142,74.987119 C 309.35178,72.202255 318.99733,69.792623 329.7229,70.133679 C 329.7229,70.133679 489.23922,51.793627 553.19577,181.19371 C 555.0725,189.41912 594.5839,259.0079 593.91861,353.08353 C 593.51364,410.34813 580.79617,471.7149 551.04254,542.00185 C 529.55009,592.77341 490.41095,625.96728 447.58622,642.16938 C 404.12667,658.61166 356.93604,657.68381 329.44838,657.68381 z "
     id="path13508"
     sodipodi:nodetypes="cssccsssc" />
  <path
     style="fill:none;fill-opacity:1;fill-rule:evenodd;stroke:black;stroke-width:10.40503788;stroke-linecap:butt;stroke-linejoin:miter;stroke-miterlimit:4;stroke-opacity:1;opacity:1"
     d="M 390.2957,653.23224 C 627.1079,672.60167 687.94537,106.10936 399.69644,72.397416 L 375.24447,72.960894"
     id="path9079"
     sodipodi:nodetypes="cc" />
  <path
     style="fill:white;fill-opacity:1;fill-rule:evenodd;stroke:black;stroke-width:9.69643307;stroke-linecap:butt;stroke-linejoin:miter;stroke-miterlimit:4;stroke-dasharray:none;stroke-opacity:1;opacity:1"
     d="M 427.92039,104.46108 C 421.90646,93.219976 444.63934,85.189672 451.81118,98.595141 L 466.98371,129.99606 C 471.37948,138.21252 453.83777,151.50201 445.84806,136.56779 C 445.84806,136.56779 427.92039,104.46108 427.92039,104.46108 z "
     id="path8169"
     sodipodi:nodetypes="ccccc" />
  <path
     sodipodi:type="arc"
     style="opacity:1;fill:none;fill-opacity:1;fill-rule:nonzero;stroke:black;stroke-width:10;stroke-linecap:round;stroke-linejoin:round;stroke-miterlimit:4;stroke-dasharray:none;stroke-dashoffset:0;stroke-opacity:1"
     id="path1910"
     sodipodi:cx="518.95953"
     sodipodi:cy="368.92087"
     sodipodi:rx="39.67186"
     sodipodi:ry="101.27613"
     d="M 558.63139 368.92087 A 39.67186 101.27613 0 1 1  479.28767,368.92087 A 39.67186 101.27613 0 1 1  558.63139 368.92087 z"
     transform="matrix(0.945362,0,0,1.220953,-64.01822,-87.09674)" />
  <path
     sodipodi:type="arc"
     style="opacity:1;fill:black;fill-opacity:1;fill-rule:nonzero;stroke:black;stroke-width:10;stroke-linecap:round;stroke-linejoin:round;stroke-miterlimit:4;stroke-dasharray:none;stroke-dashoffset:0;stroke-opacity:1"
     id="path1912"
     sodipodi:cx="544.76239"
     sodipodi:cy="405.36737"
     sodipodi:rx="30.640867"
     sodipodi:ry="79.021187"
     d="M 575.40326 405.36737 A 30.640867 79.021187 0 1 1  514.12152,405.36737 A 30.640867 79.021187 0 1 1  575.40326 405.36737 z"
     transform="matrix(1.012133,0,0,1.410639,-135.4053,-209.0344)" />
  <path
     style="fill:white;fill-opacity:1;fill-rule:evenodd;stroke:black;stroke-width:10;stroke-linecap:butt;stroke-linejoin:miter;stroke-miterlimit:4;stroke-dasharray:none;stroke-opacity:1;opacity:1"
     d="M 359.56254,554.24858 C 348.35555,561.67368 337.00307,540.35976 350.36787,531.50501 L 381.87493,512.36576 C 390.06647,506.93851 406.3678,522.43718 391.47889,532.3017 C 391.47889,532.3017 359.56254,554.24858 359.56254,554.24858 z "
     id="path8143"
     sodipodi:nodetypes="ccccc" />
  <path
     style="fill:white;fill-opacity:1;fill-rule:evenodd;stroke:black;stroke-width:10;stroke-linecap:butt;stroke-linejoin:miter;stroke-miterlimit:4;stroke-dasharray:none;stroke-opacity:1;opacity:1"
     d="M 345.81174,189.7829 C 334.40378,182.67041 349.08026,163.49325 362.6847,171.97519 L 393.17789,192.69164 C 401.51632,197.89038 394.18493,219.1552 379.02904,209.70598 C 379.02904,209.70598 345.81174,189.7829 345.81174,189.7829 z "
     id="path8155"
     sodipodi:nodetypes="ccccc" />
  <path
     sodipodi:type="arc"
     style="opacity:1;fill:none;fill-opacity:1;fill-rule:nonzero;stroke:black;stroke-width:4.44534969;stroke-linecap:round;stroke-linejoin:round;stroke-miterlimit:4;stroke-dasharray:none;stroke-dashoffset:0;stroke-opacity:1"
     id="path1914"
     sodipodi:cx="179.45456"
     sodipodi:cy="396.90631"
     sodipodi:rx="73.413231"
     sodipodi:ry="108.76034"
     d="M 252.86779 396.90631 A 73.413231 108.76034 0 1 1  106.04133,396.90631 A 73.413231 108.76034 0 1 1  252.86779 396.90631 z"
     transform="matrix(1.073414,0,0,1.725473,270.9496,-322.5078)" />
  <path
     style="fill:white;fill-opacity:1;fill-rule:evenodd;stroke:black;stroke-width:10;stroke-linecap:butt;stroke-linejoin:miter;stroke-miterlimit:4;stroke-dasharray:none;stroke-opacity:1;opacity:1"
     d="M 318.83144,443.65832 C 305.39458,444.08226 306.94365,419.98324 322.96765,419.47768 L 359.83125,419.76211 C 369.65267,419.45224 375.37068,441.20646 357.51931,441.76967 C 357.51931,441.76967 318.83144,443.65832 318.83144,443.65832 z "
     id="path8133"
     sodipodi:nodetypes="ccccc" />
  <path
     sodipodi:type="arc"
     style="opacity:1;fill:none;fill-opacity:1;fill-rule:nonzero;stroke:black;stroke-width:8.01780701;stroke-linecap:round;stroke-linejoin:round;stroke-miterlimit:4;stroke-dasharray:none;stroke-dashoffset:0;stroke-opacity:1"
     id="path3688"
     sodipodi:cx="647.67798"
     sodipodi:cy="418.03397"
     sodipodi:rx="79.282616"
     sodipodi:ry="120.75352"
     d="M 726.96059 418.03397 A 79.282616 120.75352 0 1 1  568.39536,418.03397 A 79.282616 120.75352 0 1 1  726.96059 418.03397 z"
     transform="matrix(1.242475,0,0,1.815766,-342.0382,-397.9389)" />
  <path
     style="fill:none;fill-opacity:1;fill-rule:evenodd;stroke:black;stroke-width:6;stroke-linecap:butt;stroke-linejoin:miter;stroke-opacity:1;stroke-miterlimit:4;stroke-dasharray:none;opacity:1"
     d="M 401.6986,624.98193 C 239.47879,534.56322 257.80609,170.85532 405.76437,98.057452"
     id="path5460"
     sodipodi:nodetypes="cc" />
  <path
     style="fill:white;fill-opacity:1;fill-rule:evenodd;stroke:black;stroke-width:10;stroke-linecap:butt;stroke-linejoin:miter;stroke-opacity:1;stroke-miterlimit:4;stroke-dasharray:none;opacity:1"
     d="M 246.77944,250.95683 C 237.27342,241.45081 255.90315,226.08542 267.23947,237.42174 L 292.26366,264.49194 C 299.21191,271.44018 287.26566,290.49875 274.63656,277.86965 C 274.63656,277.86965 246.77944,250.95683 246.77944,250.95683 z "
     id="path6349"
     sodipodi:nodetypes="ccccc" />
  <path
     style="fill:white;fill-opacity:1;fill-rule:evenodd;stroke:black;stroke-width:10;stroke-linecap:butt;stroke-linejoin:miter;stroke-miterlimit:4;stroke-dasharray:none;stroke-opacity:1;opacity:1"
     d="M 194.60521,220.36455 C 182.82841,213.88107 196.44347,193.93635 210.4878,201.66816 L 242.0594,220.70076 C 250.66745,225.43973 244.49984,247.07079 228.85391,238.45724 C 228.85391,238.45724 194.60521,220.36455 194.60521,220.36455 z "
     id="path8121"
     sodipodi:nodetypes="ccccc" />
  <path
     style="fill:white;fill-opacity:1;fill-rule:evenodd;stroke:black;stroke-width:10;stroke-linecap:butt;stroke-linejoin:miter;stroke-miterlimit:4;stroke-dasharray:none;stroke-opacity:1;opacity:1"
     d="M 229.79946,321.52208 C 217.21274,326.24472 210.9294,302.92774 225.93958,297.2958 L 260.93635,285.70996 C 270.13637,282.25804 282.54668,301.01773 265.82476,307.29193 C 265.82476,307.29193 229.79946,321.52208 229.79946,321.52208 z "
     id="path8123"
     sodipodi:nodetypes="ccccc" />
  <path
     style="fill:white;fill-opacity:1;fill-rule:evenodd;stroke:black;stroke-width:10;stroke-linecap:butt;stroke-linejoin:miter;stroke-miterlimit:4;stroke-dasharray:none;stroke-opacity:1;opacity:1"
     d="M 176.47074,352.0051 C 165.17319,359.29167 154.08396,337.83961 167.55676,329.15007 L 199.29704,310.40013 C 207.55477,305.07414 223.66407,320.7723 208.65485,330.45279 C 208.65485,330.45279 176.47074,352.0051 176.47074,352.0051 z "
     id="path8125"
     sodipodi:nodetypes="ccccc" />
  <path
     style="fill:white;fill-opacity:1;fill-rule:evenodd;stroke:black;stroke-width:10;stroke-linecap:butt;stroke-linejoin:miter;stroke-miterlimit:4;stroke-dasharray:none;stroke-opacity:1;opacity:1"
     d="M 316.75689,302.46852 C 303.36251,301.3198 307.71633,277.56677 323.68967,278.93667 L 360.26762,283.52573 C 370.05799,284.36536 373.19542,306.63863 355.40049,305.1125 C 355.40049,305.1125 316.75689,302.46852 316.75689,302.46852 z "
     id="path8127"
     sodipodi:nodetypes="ccccc" />
  <path
     style="fill:white;fill-opacity:1;fill-rule:evenodd;stroke:black;stroke-width:10;stroke-linecap:butt;stroke-linejoin:miter;stroke-miterlimit:4;stroke-dasharray:none;stroke-opacity:1;opacity:1"
     d="M 222.1274,426.3885 C 209.38741,422.09644 219.24941,400.05324 234.44236,405.17169 L 268.88894,418.30329 C 278.201,421.44048 275.96748,443.82247 259.04194,438.1203 C 259.04194,438.1203 222.1274,426.3885 222.1274,426.3885 z "
     id="path8129"
     sodipodi:nodetypes="ccccc" />
  <path
     style="fill:white;fill-opacity:1;fill-rule:evenodd;stroke:black;stroke-width:10;stroke-linecap:butt;stroke-linejoin:miter;stroke-miterlimit:4;stroke-dasharray:none;stroke-opacity:1;opacity:1"
     d="M 161.51935,394.41241 C 149.77302,387.87386 163.48133,367.9931 177.4893,375.79059 L 208.97145,394.9708 C 217.55721,399.75002 211.2884,421.35197 195.68296,412.66525 C 195.68296,412.66525 161.51935,394.41241 161.51935,394.41241 z "
     id="path8131"
     sodipodi:nodetypes="ccccc" />
  <path
     style="fill:white;fill-opacity:1;fill-rule:evenodd;stroke:black;stroke-width:10;stroke-linecap:butt;stroke-linejoin:miter;stroke-miterlimit:4;stroke-dasharray:none;stroke-opacity:1;opacity:1"
     d="M 262.86086,491.70217 C 253.5731,501.42157 237.78872,483.14549 248.86474,471.55471 L 275.35982,445.92239 C 282.14852,438.81817 301.4734,450.32864 289.13427,463.24121 C 289.13427,463.24121 262.86086,491.70217 262.86086,491.70217 z "
     id="path8135"
     sodipodi:nodetypes="ccccc" />
  <path
     style="fill:white;fill-opacity:1;fill-rule:evenodd;stroke:black;stroke-width:10;stroke-linecap:butt;stroke-linejoin:miter;stroke-miterlimit:4;stroke-dasharray:none;stroke-opacity:1;opacity:1"
     d="M 203.505,525.06496 C 191.55826,531.22972 182.58641,508.80946 196.83339,501.45774 L 230.23178,485.85154 C 238.96403,481.34552 253.48672,498.52206 237.61502,506.71216 C 237.61502,506.71216 203.505,525.06496 203.505,525.06496 z "
     id="path8137"
     sodipodi:nodetypes="ccccc" />
  <path
     style="fill:white;fill-opacity:1;fill-rule:evenodd;stroke:black;stroke-width:10;stroke-linecap:butt;stroke-linejoin:miter;stroke-miterlimit:4;stroke-dasharray:none;stroke-opacity:1;opacity:1"
     d="M 191.36584,547.74724 C 178.36055,544.34262 186.6813,521.67266 202.19063,525.7328 L 237.45967,536.46131 C 246.96564,538.94984 246.2786,561.4325 229.0006,556.90933 C 229.0006,556.90933 191.36584,547.74724 191.36584,547.74724 z "
     id="path8139"
     sodipodi:nodetypes="ccccc" />
  <path
     style="fill:white;fill-opacity:1;fill-rule:evenodd;stroke:black;stroke-width:10;stroke-linecap:butt;stroke-linejoin:miter;stroke-miterlimit:4;stroke-dasharray:none;stroke-opacity:1;opacity:1"
     d="M 258.34347,561.97517 C 244.9092,561.47578 248.1088,537.53994 264.12971,538.13548 L 300.88684,540.94961 C 310.70637,541.31462 314.91765,563.41003 297.06973,562.74657 C 297.06973,562.74657 258.34347,561.97517 258.34347,561.97517 z "
     id="path8141"
     sodipodi:nodetypes="ccccc" />
  <path
     style="fill:white;fill-opacity:1;fill-rule:evenodd;stroke:black;stroke-width:9.5115118;stroke-linecap:butt;stroke-linejoin:miter;stroke-miterlimit:4;stroke-dasharray:none;stroke-opacity:1;opacity:1"
     d="M 298.17774,611.28257 C 289.37856,620.56543 274.49021,603.04662 284.9836,591.97643 L 310.08101,567.49919 C 316.51261,560.71405 334.76099,571.76553 323.07094,584.09815 C 323.07094,584.09815 298.17774,611.28257 298.17774,611.28257 z "
     id="path8145"
     sodipodi:nodetypes="ccccc" />
  <path
     style="fill:none;fill-opacity:1;fill-rule:evenodd;stroke:black;stroke-width:10.40503788;stroke-linecap:butt;stroke-linejoin:miter;stroke-miterlimit:4;stroke-opacity:1;opacity:1"
     d="M 390.28808,653.45521 L 390.28808,653.45521 L 390.28808,653.45521 L 340.81719,652.87204 C 117.21855,677.74712 42.686282,106.71164 330.93521,72.999699 L 343.37379,72.52431 L 347.30305,72.960895"
     id="path8191"
     sodipodi:nodetypes="ccccccc" />
  <path
     style="opacity:1;fill:white;fill-opacity:1;fill-rule:evenodd;stroke:black;stroke-width:9.6683054;stroke-linecap:butt;stroke-linejoin:miter;stroke-miterlimit:4;stroke-dasharray:none;stroke-opacity:1"
     d="M 285.70302,643.49342 C 273.53854,640.99085 280.15263,617.51894 294.65927,620.50336 L 327.71848,628.79915 C 336.60989,630.62836 337.03317,653.3637 320.8722,650.03893 C 320.8722,650.03893 285.70302,643.49342 285.70302,643.49342 z "
     id="path8147"
     sodipodi:nodetypes="ccccc" />
  <path
     style="opacity:1;fill:white;fill-opacity:1;fill-rule:evenodd;stroke:black;stroke-width:9.51073933;stroke-linecap:butt;stroke-linejoin:miter;stroke-miterlimit:4;stroke-dasharray:none;stroke-opacity:1"
     d="M 349.79953,654.76463 C 336.98918,655.75818 337.42422,632.90615 352.70108,631.72132 L 387.90857,630.36406 C 397.27205,629.63784 403.67364,649.95247 386.6546,651.27242 C 386.6546,651.27242 349.79953,654.76463 349.79953,654.76463 z "
     id="path8149"
     sodipodi:nodetypes="ccccc" />
  <path
     style="fill:white;fill-opacity:1;fill-rule:evenodd;stroke:black;stroke-width:8.2296505;stroke-linecap:butt;stroke-linejoin:miter;stroke-miterlimit:4;stroke-dasharray:none;stroke-opacity:1;opacity:1"
     d="M 247.86886,626.1474 C 237.61251,628.90944 234.8736,608.30748 247.10471,605.01362 L 275.47869,598.65683 C 282.97538,596.63796 290.91632,613.96192 277.29038,617.63139 C 277.29038,617.63139 247.86886,626.1474 247.86886,626.1474 z "
     id="path8151"
     sodipodi:nodetypes="ccccc" />
  <path
     style="fill:white;fill-opacity:1;fill-rule:evenodd;stroke:black;stroke-width:9.25247478;stroke-linecap:butt;stroke-linejoin:miter;stroke-miterlimit:4;stroke-dasharray:none;stroke-opacity:1;opacity:1"
     d="M 444.70488,629.93767 C 438.19376,640.69848 421.00802,626.6121 428.77279,613.77941 L 447.71537,585.03064 C 452.47454,577.16522 471.60397,584.30186 462.9537,598.59798 C 462.9537,598.59798 444.70488,629.93767 444.70488,629.93767 z "
     id="path8153"
     sodipodi:nodetypes="ccccc" />
  <path
     style="fill:white;fill-opacity:1;fill-rule:evenodd;stroke:black;stroke-width:10;stroke-linecap:butt;stroke-linejoin:miter;stroke-miterlimit:4;stroke-dasharray:none;stroke-opacity:1;opacity:1"
     d="M 259.32192,185.24493 C 245.89043,185.81421 247.17869,161.69985 263.19628,161.02096 L 300.0608,160.90655 C 309.8783,160.49044 315.83133,182.18153 297.9871,182.93783 C 297.9871,182.93783 259.32192,185.24493 259.32192,185.24493 z "
     id="path8157"
     sodipodi:nodetypes="ccccc" />
  <path
     style="fill:white;fill-opacity:1;fill-rule:evenodd;stroke:black;stroke-width:10;stroke-linecap:butt;stroke-linejoin:miter;stroke-miterlimit:4;stroke-dasharray:none;stroke-opacity:1;opacity:1"
     d="M 200.77116,197.77209 C 187.69589,200.89719 184.35297,176.98093 199.94577,173.25413 L 236.10928,166.09828 C 245.6664,163.81404 255.65419,183.9681 238.28321,188.1199 C 238.28321,188.1199 200.77116,197.77209 200.77116,197.77209 z "
     id="path8159"
     sodipodi:nodetypes="ccccc" />
  <path
     style="fill:white;fill-opacity:1;fill-rule:evenodd;stroke:black;stroke-width:9.43849659;stroke-linecap:butt;stroke-linejoin:miter;stroke-miterlimit:4;stroke-dasharray:none;stroke-opacity:1;opacity:1"
     d="M 281.39634,129.5502 C 272.17124,120.84139 289.23623,105.74447 300.23753,116.13007 L 324.58322,140.99146 C 331.32613,147.357 320.6579,165.74765 308.40202,154.17766 C 308.40202,154.17766 281.39634,129.5502 281.39634,129.5502 z "
     id="path8161"
     sodipodi:nodetypes="ccccc" />
  <path
     style="fill:white;fill-opacity:1;fill-rule:evenodd;stroke:black;stroke-width:8.7036705;stroke-linecap:butt;stroke-linejoin:miter;stroke-miterlimit:4;stroke-dasharray:none;stroke-opacity:1;opacity:1"
     d="M 245.1619,120.74968 C 235.49164,119.54435 238.63494,94.620884 250.16711,96.058286 L 276.57505,100.87348 C 283.64335,101.75447 285.90846,125.12528 273.06117,123.52394 C 273.06117,123.52394 245.1619,120.74968 245.1619,120.74968 z "
     id="path8163"
     sodipodi:nodetypes="ccccc" />
  <path
     style="fill:white;fill-opacity:1;fill-rule:evenodd;stroke:black;stroke-width:9.69535637;stroke-linecap:butt;stroke-linejoin:miter;stroke-miterlimit:4;stroke-dasharray:none;stroke-opacity:1;opacity:1"
     d="M 289.38352,104.58938 C 276.97579,106.22794 276.41195,81.820179 291.20867,79.866137 L 325.3689,76.828453 C 334.4381,75.630775 341.53701,97.021994 325.05288,99.198871 C 325.05288,99.198871 289.38352,104.58938 289.38352,104.58938 z "
     id="path8165"
     sodipodi:nodetypes="ccccc" />
  <path
     style="opacity:1;fill:white;fill-opacity:1;fill-rule:evenodd;stroke:black;stroke-width:10;stroke-linecap:butt;stroke-linejoin:miter;stroke-miterlimit:4;stroke-dasharray:none;stroke-opacity:1"
     d="M 348.79823,95.831562 C 335.3555,95.68362 337.92815,71.672297 353.95915,71.848728 L 390.77729,73.700788 C 400.60301,73.808918 405.39059,95.786661 387.53142,95.590098 C 387.53142,95.590098 348.79823,95.831562 348.79823,95.831562 z "
     id="path8167"
     sodipodi:nodetypes="ccccc" />
  <path
     sodipodi:type="arc"
     style="opacity:1;fill:white;fill-opacity:1;fill-rule:nonzero;stroke:black;stroke-width:10;stroke-linecap:round;stroke-linejoin:round;stroke-miterlimit:4;stroke-dasharray:none;stroke-dashoffset:0;stroke-opacity:1"
     id="path8171"
     sodipodi:cx="231.47882"
     sodipodi:cy="374.66571"
     sodipodi:rx="15.135154"
     sodipodi:ry="15.135154"
     d="M 246.61397 374.66571 A 15.135154 15.135154 0 1 1  216.34367,374.66571 A 15.135154 15.135154 0 1 1  246.61397 374.66571 z"
     transform="translate(60.98577,57.42455)" />
  <path
     sodipodi:type="arc"
     style="opacity:1;fill:white;fill-opacity:1;fill-rule:nonzero;stroke:black;stroke-width:10;stroke-linecap:round;stroke-linejoin:round;stroke-miterlimit:4;stroke-dasharray:none;stroke-dashoffset:0;stroke-opacity:1"
     id="path8173"
     sodipodi:cx="231.47882"
     sodipodi:cy="374.66571"
     sodipodi:rx="15.135154"
     sodipodi:ry="15.135154"
     d="M 246.61397 374.66571 A 15.135154 15.135154 0 1 1  216.34367,374.66571 A 15.135154 15.135154 0 1 1  246.61397 374.66571 z"
     transform="translate(-82.35305,-12.9094)" />
  <path
     sodipodi:type="arc"
     style="opacity:1;fill:white;fill-opacity:1;fill-rule:nonzero;stroke:black;stroke-width:10;stroke-linecap:round;stroke-linejoin:round;stroke-miterlimit:4;stroke-dasharray:none;stroke-dashoffset:0;stroke-opacity:1"
     id="path8175"
     sodipodi:cx="231.47882"
     sodipodi:cy="374.66571"
     sodipodi:rx="15.135154"
     sodipodi:ry="15.135154"
     d="M 246.61397 374.66571 A 15.135154 15.135154 0 1 1  216.34367,374.66571 A 15.135154 15.135154 0 1 1  246.61397 374.66571 z"
     transform="matrix(0.922621,0,0,0.922621,78.6747,-52.69419)" />
  <path
     sodipodi:type="arc"
     style="opacity:1;fill:white;fill-opacity:1;fill-rule:nonzero;stroke:black;stroke-width:10;stroke-linecap:round;stroke-linejoin:round;stroke-miterlimit:4;stroke-dasharray:none;stroke-dashoffset:0;stroke-opacity:1"
     id="path8177"
     sodipodi:cx="231.47882"
     sodipodi:cy="374.66571"
     sodipodi:rx="15.135154"
     sodipodi:ry="15.135154"
     d="M 246.61397 374.66571 A 15.135154 15.135154 0 1 1  216.34367,374.66571 A 15.135154 15.135154 0 1 1  246.61397 374.66571 z"
     transform="matrix(0.94473,0,0,0.94473,-46.18865,-150.8981)" />
  <path
     sodipodi:type="arc"
     style="opacity:1;fill:white;fill-opacity:1;fill-rule:nonzero;stroke:black;stroke-width:10;stroke-linecap:round;stroke-linejoin:round;stroke-miterlimit:4;stroke-dasharray:none;stroke-dashoffset:0;stroke-opacity:1"
     id="path8179"
     sodipodi:cx="231.47882"
     sodipodi:cy="374.66571"
     sodipodi:rx="15.135154"
     sodipodi:ry="15.135154"
     d="M 246.61397 374.66571 A 15.135154 15.135154 0 1 1  216.34367,374.66571 A 15.135154 15.135154 0 1 1  246.61397 374.66571 z"
     transform="matrix(0.911567,0,0,0.911567,116.1779,-167.6307)" />
  <path
     sodipodi:type="arc"
     style="opacity:1;fill:white;fill-opacity:1;fill-rule:nonzero;stroke:black;stroke-width:10;stroke-linecap:round;stroke-linejoin:round;stroke-miterlimit:4;stroke-dasharray:none;stroke-dashoffset:0;stroke-opacity:1"
     id="path8181"
     sodipodi:cx="231.47882"
     sodipodi:cy="374.66571"
     sodipodi:rx="15.135154"
     sodipodi:ry="15.135154"
     d="M 246.61397 374.66571 A 15.135154 15.135154 0 1 1  216.34367,374.66571 A 15.135154 15.135154 0 1 1  246.61397 374.66571 z"
     transform="matrix(0.889459,0,0,0.889459,209.4355,-244.8166)" />
  <path
     sodipodi:type="arc"
     style="opacity:1;fill:white;fill-opacity:1;fill-rule:nonzero;stroke:black;stroke-width:10;stroke-linecap:round;stroke-linejoin:round;stroke-miterlimit:4;stroke-dasharray:none;stroke-dashoffset:0;stroke-opacity:1"
     id="path8183"
     sodipodi:cx="231.47882"
     sodipodi:cy="374.66571"
     sodipodi:rx="15.135154"
     sodipodi:ry="15.135154"
     d="M 246.61397 374.66571 A 15.135154 15.135154 0 1 1  216.34367,374.66571 A 15.135154 15.135154 0 1 1  246.61397 374.66571 z"
     transform="matrix(0.900513,0,0,0.900513,-36.39865,185.7324)" />
  <path
     sodipodi:type="arc"
     style="opacity:1;fill:white;fill-opacity:1;fill-rule:nonzero;stroke:black;stroke-width:10;stroke-linecap:round;stroke-linejoin:round;stroke-miterlimit:4;stroke-dasharray:none;stroke-dashoffset:0;stroke-opacity:1"
     id="path8185"
     sodipodi:cx="231.47882"
     sodipodi:cy="374.66571"
     sodipodi:rx="15.135154"
     sodipodi:ry="15.135154"
     d="M 246.61397 374.66571 A 15.135154 15.135154 0 1 1  216.34367,374.66571 A 15.135154 15.135154 0 1 1  246.61397 374.66571 z"
     transform="matrix(0.878405,0,0,0.878405,122.7414,220.2794)" />
  <path
     sodipodi:type="arc"
     style="opacity:1;fill:white;fill-opacity:1;fill-rule:nonzero;stroke:black;stroke-width:10;stroke-linecap:round;stroke-linejoin:round;stroke-miterlimit:4;stroke-dasharray:none;stroke-dashoffset:0;stroke-opacity:1"
     id="path8187"
     sodipodi:cx="231.47882"
     sodipodi:cy="374.66571"
     sodipodi:rx="15.135154"
     sodipodi:ry="15.135154"
     d="M 246.61397 374.66571 A 15.135154 15.135154 0 1 1  216.34367,374.66571 A 15.135154 15.135154 0 1 1  246.61397 374.66571 z"
     transform="matrix(0.867351,0,0,0.867351,214.1078,311.003)" />
</svg>
