<?xml version="1.0" encoding="UTF-8" standalone="no"?>
<!-- Created with Inkscape (http://www.inkscape.org/) -->
<svg
   xmlns:svg="http://www.w3.org/2000/svg"
   xmlns="http://www.w3.org/2000/svg"
   version="1.0"
   width="760"
   height="760"
   id="svg2">
  <defs
     id="defs4" />
  <g
     id="layer1">
    <path
       d="M 45.824811,3.3417118 L 713.26505,3.3417118 C 730.52936,3.3417118 757.66931,28.70753 757.66931,47.945769 L 757.66931,711.00841 C 757.66931,728.56947 731.4376,756.65818 710.65713,756.65818 L 48.432727,756.65818 C 31.534484,756.65818 3.7545745,731.36166 3.7545745,718.73902 L 3.7545745,46.269253 C 3.7545745,27.174554 26.491429,3.3417118 45.824811,3.3417118 z "
       style="opacity:1;fill:white;fill-opacity:1;fill-rule:nonzero;stroke:black;stroke-width:2.01808;stroke-linecap:round;stroke-linejoin:round;stroke-miterlimit:4;stroke-dashoffset:0;stroke-opacity:1"
       id="rect2841" />
    <path
       d="M 646.32872 332.88788 A 245.97542 245.97542 0 1 1  154.37788,332.88788 A 245.97542 245.97542 0 1 1  646.32872 332.88788 z"
       transform="matrix(0.972803,0,0,0.972803,-8.45365,-4.008762)"
       style="opacity:1;fill:#039;fill-opacity:1;fill-rule:nonzero;stroke:none;stroke-width:5;stroke-linecap:round;stroke-linejoin:round;stroke-miterlimit:4;stroke-dasharray:none;stroke-dashoffset:0;stroke-opacity:1"
       id="path1882" />
    <path
       d="M 25.443662,52.632534 L 25.443662,710.96204 C 25.443662,726.77315 40.985837,735.15473 52.918434,735.15473 L 710.27844,734.90301 C 721.49547,734.90301 734.94337,721.48607 734.94337,708.97952 L 734.94337,54.088023 C 735.11544,34.671252 719.24918,24.683563 708.05602,24.683563 L 53.853079,24.935273 C 34.160919,24.935273 25.443662,39.076817 25.443662,52.632534 z "
       style="opacity:1;fill:none;fill-opacity:1;fill-rule:evenodd;stroke:black;stroke-width:17;stroke-linecap:butt;stroke-linejoin:miter;stroke-miterlimit:4;stroke-dasharray:none;stroke-opacity:1"
       id="path1934" />
    <g
       id="g12681">
      <circle
         cx="215"
         cy="409"
         r="161"
         transform="matrix(0.404263,0,0,0.404263,177.6268,199.8607)"
         style="fill:none;stroke:white;stroke-width:40px;stroke-opacity:1"
         id="circle11777" />
      <circle
         cx="790"
         cy="406"
         r="161"
         transform="matrix(0.404263,0,0,0.404263,177.6268,199.8607)"
         style="fill:none;stroke:white;stroke-width:40px;stroke-opacity:1"
         id="circle11779" />
      <path
         d="M 351.25144,206.11348 C 297.65972,206.63582 306.74837,200.57672 277.9154,293.23921 C 254.42671,367.27646 256.98519,359.20243 256.86235,364.39574 C 256.77626,368.43037 260.03312,371.62927 264.12572,371.90308 C 272.63691,371.0425 269.05691,372.82358 298.5651,281.19065 C 406.38695,394.93231 365.9349,376.48803 423.96068,378.79792 C 500.2218,378.06665 506.42019,382.76768 507.32558,371.58967 C 507.22111,367.79403 505.44517,365.53057 453.10705,249.04954 L 458.12148,235.25986 L 475.35858,234.94646 L 474.73178,220.52997 L 410.48439,220.52997 C 404.80834,228.29537 412.78268,228.26055 441.51118,234.63305 L 436.49675,248.73614 L 308.31538,249.04954 C 316.95135,218.89332 312.0762,220.77373 350.93804,220.84337 L 351.25144,206.11348 z M 304.61153,264.50644 L 430.03953,264.28406 L 393.78995,361.69091 L 304.61153,264.50644 z M 445.16205,270.28859 L 409.57964,363.69242 L 487.41616,363.91481 L 445.16205,270.28859 z "
         style="fill:white;fill-rule:evenodd;stroke:white;stroke-opacity:1"
         id="path11781" />
    </g>
    <path
       d="M 143.31806,624.86568 C 140.84723,624.86568 137.60202,624.96211 135.08939,624.96211 C 129.65569,624.96211 121.84637,629.17321 121.84637,632.25863 L 128.56431,639.33015 L 130.13933,639.26586 C 130.13933,637.81896 132.75875,636.14798 133.99652,636.14797 L 144.70022,636.18011 C 146.95191,636.12616 148.77801,637.84075 148.75028,639.45872 L 148.75028,645.37308 L 131.2322,645.30879 C 113.30274,645.30879 116.30521,676.32704 130.52505,676.32704 L 144.37879,676.32704 C 145.95229,676.32704 148.24897,674.95152 148.81456,672.82348 L 148.81456,676.32704 L 160.0647,676.32704 L 160.0647,637.4337 C 160.06495,630.09454 151.54433,624.86568 143.31806,624.86568 z M 134.18938,654.63034 L 148.78242,654.63034 L 148.78242,662.34478 C 148.1748,664.07866 146.02347,665.78405 144.47522,665.78405 L 134.18938,665.78405 C 128.43315,665.78405 128.89942,654.63034 134.18938,654.63034 z "
       style="fill:black;fill-opacity:1;fill-rule:evenodd;stroke:none;stroke-width:1px;stroke-linecap:butt;stroke-linejoin:miter;stroke-opacity:1"
       id="path12744" />
    <path
       d="M 332.53609,625.03701 C 330.06526,625.03701 326.82005,625.13344 324.30742,625.13344 C 318.87372,625.13344 311.0644,629.34454 311.0644,632.42996 L 317.78234,639.50148 L 319.35736,639.43719 C 319.35736,637.99029 321.97678,636.31931 323.21455,636.3193 L 333.91825,636.35144 C 336.16994,636.29749 337.99604,638.01208 337.96831,639.63005 L 337.96831,645.54441 L 320.45023,645.48012 C 302.52077,645.48012 305.52324,676.49837 319.74308,676.49837 L 333.59682,676.49837 C 335.17032,676.49837 337.467,675.12285 338.03259,672.99481 L 338.03259,676.49837 L 349.28273,676.49837 L 349.28273,637.60503 C 349.28298,630.26587 340.76236,625.03701 332.53609,625.03701 z M 323.40741,654.80167 L 338.00045,654.80167 L 338.00045,662.51611 C 337.39283,664.24999 335.2415,665.95538 333.69325,665.95538 L 323.40741,665.95538 C 317.65118,665.95538 318.11745,654.80167 323.40741,654.80167 z "
       style="fill:black;fill-opacity:1;fill-rule:evenodd;stroke:none;stroke-width:1px;stroke-linecap:butt;stroke-linejoin:miter;stroke-opacity:1"
       id="path5501" />
    <path
       d="M 564.12879,624.86568 C 561.65796,624.86568 558.41275,624.96211 555.90012,624.96211 C 550.46642,624.96211 542.6571,629.17321 542.6571,632.25863 L 549.37504,639.33015 L 550.95006,639.26586 C 550.95006,637.81896 553.56948,636.14798 554.80725,636.14797 L 565.51095,636.18011 C 567.76264,636.12616 569.58874,637.84075 569.56101,639.45872 L 569.56101,645.37308 L 552.04293,645.30879 C 534.11347,645.30879 537.11594,676.32704 551.33578,676.32704 L 565.18952,676.32704 C 566.76302,676.32704 569.0597,674.95152 569.62529,672.82348 L 569.62529,676.32704 L 580.87543,676.32704 L 580.87543,637.4337 C 580.87568,630.09454 572.35506,624.86568 564.12879,624.86568 z M 555.00011,654.63034 L 569.59315,654.63034 L 569.59315,662.34478 C 568.98553,664.07866 566.8342,665.78405 565.28595,665.78405 L 555.00011,665.78405 C 549.24388,665.78405 549.71015,654.63034 555.00011,654.63034 z "
       style="fill:black;fill-opacity:1;fill-rule:evenodd;stroke:none;stroke-width:1px;stroke-linecap:butt;stroke-linejoin:miter;stroke-opacity:1"
       id="path12746" />
    <path
       d="M 682.11348,661.67921 L 690.68638,668.83718 C 686.85966,672.40273 659.66057,688.17493 649.4865,661.76242 L 649.40326,640.45502 C 649.42512,629.22961 683.77103,612.57464 691.51869,643.20169 L 691.64354,645.44895 L 680.3656,645.40734 C 677.8382,630.3679 660.01023,635.8319 660.55637,645.36572 L 691.68516,645.44895 L 691.5187,655.60326 L 659.72404,655.60326 C 662.71954,668.23922 675.29803,667.29199 682.11348,661.67921 z "
       style="fill:black;fill-opacity:1;fill-rule:evenodd;stroke:none;stroke-width:1px;stroke-linecap:butt;stroke-linejoin:miter;stroke-opacity:1"
       id="path12748" />
    <path
       d="M 595.71312,676.39459 L 596.01976,615.13992 C 596.01976,600.26878 636.28118,601.3581 636.28118,615.37729 L 636.29113,627.61684 C 636.29113,629.01412 632.32845,633.62186 631.34735,633.62186 C 632.33669,633.62186 636.31071,636.68767 636.31071,639.0003 L 636.23178,666.89984 C 636.23178,669.35926 628.24062,676.39459 625.89931,676.39459 L 615.59666,676.39459 L 615.60661,665.98327 L 622.60688,666.04253 C 624.00741,666.04253 626.13668,663.76007 626.13668,661.43492 L 625.80051,642.60933 C 625.80051,641.14878 624.29301,638.91144 623.11113,638.91144 L 614.57821,639.03013 L 614.63754,628.74434 L 621.83452,628.62566 C 636.02274,614.43745 606.47061,612.71035 606.47061,621.68262 L 606.37182,676.33533 L 595.71312,676.39459 z "
       style="fill:black;fill-opacity:1;fill-rule:evenodd;stroke:none;stroke-width:1px;stroke-linecap:butt;stroke-linejoin:miter;stroke-opacity:1"
       id="path12750" />
    <path
       d="M 421.04006,660.0939 L 414.17091,666.30414 C 417.88985,670.84227 421.12724,674.80142 429.54948,675.81204 C 433.14566,676.20023 436.5752,676.08844 439.94989,675.81204 C 448.94422,675.38977 454.9342,671.0381 457.08691,664.23045 C 457.80519,661.59098 457.63615,658.90968 457.2051,656.31195 C 455.09489,650.10472 449.95711,646.26901 445.06651,644.83354 C 445.06651,644.83354 432.06601,644.71535 432.06601,644.71535 C 428.81589,645.04278 426.29731,637.85701 432.14958,635.74752 C 434.652,635.16458 437.21791,635.21668 439.8317,635.74752 C 444.33263,636.81338 447.12036,638.25996 449.64116,639.76585 L 456.61416,631.96555 C 452.37793,626.99994 446.40444,625.43879 439.99167,624.37447 C 436.87015,623.92509 434.45076,623.92712 431.84992,624.24912 C 422.67197,626.00918 419.2617,629.6631 417.49447,633.85654 C 416.67613,637.63827 417.15541,641.29026 417.39656,644.96605 C 418.54526,650.7946 422.76583,653.38522 428.01306,654.89371 C 433.17387,655.71922 438.33467,656.265 443.49548,656.31195 C 447.53714,656.5673 446.62155,663.34118 443.61366,664.34861 L 440.54082,665.29413 C 437.05244,666.20297 430.90865,665.98611 429.78586,665.4123 C 426.87059,663.31687 423.95532,661.77064 421.04006,660.0939 z "
       style="fill:black;fill-opacity:1;fill-rule:evenodd;stroke:none;stroke-width:1px;stroke-linecap:butt;stroke-linejoin:miter;stroke-opacity:1"
       id="path12752" />
    <path
       d="M 481.17705,610.87785 L 481.09347,625.25197 L 488.26064,625.33001 L 488.34182,634.54123 L 481.31512,634.54123 L 481.31512,663.99402 C 481.5887,664.90234 482.06524,665.60773 483.44248,665.4123 L 488.42065,665.5795 L 488.39187,675.8957 L 478.9514,675.81204 C 476.59737,675.18136 469.96923,670.19293 469.96923,665.4123 L 469.96923,634.44746 L 464.58755,634.44746 L 464.74036,625.41911 L 469.96923,625.41911 L 469.96923,610.87785"
       style="fill:black;fill-opacity:1;fill-rule:evenodd;stroke:none;stroke-width:1px;stroke-linecap:butt;stroke-linejoin:miter;stroke-opacity:1"
       id="path12754" />
    <path
       d="M 68.965839,676.89434 L 69.132638,605.96818 L 115.23709,605.79384 L 115.05874,616.41237 L 80.405132,616.3459 L 80.458053,635.6751 L 110.17754,635.67259 L 110.0007,647.00304 L 80.460564,647.00304 L 80.468098,676.53564 L 68.965839,676.89434 z "
       style="fill:black;fill-opacity:1;fill-rule:evenodd;stroke:none;stroke-width:1px;stroke-linecap:butt;stroke-linejoin:miter;stroke-opacity:1"
       id="path12764" />
    <path
       d="M 524.71039,624.99199 C 520.56249,625.02893 515.96865,626.21018 512.05827,629.40253 L 512.05827,625.24955 L 500.6295,625.24955 L 500.69389,675.82584 L 512.05827,675.82584 L 512.05827,643.11704 C 516.29835,636.43237 521.93489,633.02487 528.38048,638.54554 L 536.13915,628.91962 C 534.81712,626.86535 530.15055,624.94357 524.71039,624.99199 z "
       style="fill:black;fill-opacity:1;fill-rule:evenodd;stroke:none;stroke-width:1px;stroke-linecap:butt;stroke-linejoin:miter;stroke-opacity:1"
       id="path12756" />
    <path
       d="M 173.034,606.19679 L 173.034,676.08151 L 184.58519,676.08151 L 184.58519,642.80766 C 186.81497,633.1845 203.52435,632.34855 204.0297,644.41199 L 204.0297,676.08151 L 214.16908,676.08151 L 214.11019,636.6369 C 213.12366,631.25914 208.03253,627.3702 202.73539,626.02143 C 199.35714,625.16125 195.65554,625.09469 192.16827,625.75834 C 189.41968,626.28142 186.80423,627.25814 184.58519,628.65744 L 184.58519,606.19679 L 173.034,606.19679 z "
       style="fill:black;fill-opacity:1;fill-rule:evenodd;stroke:none;stroke-width:1px;stroke-linecap:butt;stroke-linejoin:miter;stroke-opacity:1"
       id="path12758" />
    <path
       d="M 251.23291,625.53741 C 247.08501,625.57435 242.49117,626.7556 238.58079,629.94795 L 238.58079,625.79497 L 227.15202,625.79497 L 227.21641,676.37126 L 238.58079,676.37126 L 238.58079,643.66246 C 242.82087,636.97779 248.45741,633.57029 254.903,639.09096 L 262.66167,629.46504 C 261.33964,627.41077 256.67307,625.48899 251.23291,625.53741 z "
       style="fill:black;fill-opacity:1;fill-rule:evenodd;stroke:none;stroke-width:1px;stroke-linecap:butt;stroke-linejoin:miter;stroke-opacity:1"
       id="path12760" />
    <path
       d="M 293.42124,625.53742 C 289.27334,625.57436 284.6795,626.75561 280.76912,629.94796 L 280.76912,625.79498 L 269.34035,625.79498 L 269.40474,676.37127 L 280.76912,676.37127 L 280.76912,643.66247 C 285.0092,636.9778 290.64574,633.5703 297.09133,639.09097 L 304.85,629.46505 C 303.52797,627.41078 298.8614,625.489 293.42124,625.53742 z "
       style="fill:black;fill-opacity:1;fill-rule:evenodd;stroke:none;stroke-width:1px;stroke-linecap:butt;stroke-linejoin:miter;stroke-opacity:1"
       id="path12762" />
    <path
       d="M 391.58048,605.61518 L 401.84024,605.61518 L 401.84024,676.45632 L 391.93508,676.45632 L 391.93508,672.00412 C 391.93219,674.36799 385.98605,677.80266 382.54213,677.92199 L 375.7023,677.92199 C 371.00343,677.92199 361.04551,669.64457 361.04551,663.75377 L 361.04551,638.34867 C 361.04551,631.37242 369.62029,624.91328 376.43514,624.91328 L 383.03069,624.91328 C 386.98867,624.91328 391.7696,629.37242 391.7696,630.68144 L 391.58048,605.61518 z "
       style="fill:black;fill-opacity:1;fill-rule:evenodd;stroke:none;stroke-width:1px;stroke-linecap:butt;stroke-linejoin:miter;stroke-opacity:1"
       id="path12776" />
    <path
       d="M 371.00302,659.73853 L 371.00302,643.11963 C 371.00302,640.43228 375.44884,636.53195 377.5907,636.53195 L 382.98061,636.53195 C 387.08214,636.53195 390.60217,642.07228 390.54146,644.39637 L 390.54146,657.79217 C 390.54146,660.95252 385.29621,665.76476 382.56888,665.76476 L 376.39294,665.76476 C 374.36009,665.76476 371.00302,662.15575 371.00302,659.73853 z "
       style="fill:white;fill-opacity:1;fill-rule:evenodd;stroke:none;stroke-width:1px;stroke-linecap:butt;stroke-linejoin:miter;stroke-opacity:1"
       id="path12778" />
  </g>
</svg>
