<?xml version="1.0" encoding="UTF-8" standalone="no"?>
<!-- Created with Inkscape (http://www.inkscape.org/) -->
<svg
   xmlns:svg="http://www.w3.org/2000/svg"
   xmlns="http://www.w3.org/2000/svg"
   version="1.0"
   width="725"
   height="725"
   id="svg2">
  <defs
     id="defs9" />
  <circle
     cx="362.5"
     cy="362.5"
     r="350"
     style="fill:white;stroke:black;stroke-width:2.5px"
     id="circle4" />
  <path
     d="M -176.30905 369.66949 A 309.2189 309.2189 0 1 1  -794.74686,369.66949 A 309.2189 309.2189 0 1 1  -176.30905 369.66949 z"
     transform="matrix(1.061206,0,0,1.061206,877.7452,-29.79549)"
     style="opacity:1;fill:#039;fill-opacity:1;fill-rule:nonzero;stroke:none;stroke-width:2;stroke-linecap:round;stroke-linejoin:round;stroke-miterlimit:4;stroke-dasharray:none;stroke-dashoffset:0;stroke-opacity:1"
     id="path1883" />
  <path
     d="M 151.78402,434.22108 L 234.28333,350.31583 L 233.90439,301.34152 L 173.17829,360.72091 C 171.16407,265.73848 252.9506,185.96417 329.76742,175.70399 L 322.96184,134.60623 C 188.08566,161.30323 133.76958,266.74319 131.1744,360.37317 L 69.871094,300.77246 L 69.592126,351.70146 L 151.78402,434.22108 z "
     style="opacity:1;fill:white;fill-opacity:1;fill-rule:evenodd;stroke:none;stroke-width:1px;stroke-linecap:butt;stroke-linejoin:miter;stroke-opacity:1"
     id="path2806" />
  <path
     d="M 530.20519,509.211 L 416.17293,480.17877 L 374.05026,505.1649 L 455.92946,527.7341 C 374.87946,577.29837 264.77518,546.80204 217.23291,485.59886 L 185.15137,512.17172 C 276.12804,615.26176 394.57578,609.10108 476.77812,564.20025 L 456.14996,647.17507 L 500.29272,621.77315 L 530.20519,509.211 z "
     style="opacity:1;fill:white;fill-opacity:1;fill-rule:evenodd;stroke:none;stroke-width:1px;stroke-linecap:butt;stroke-linejoin:miter;stroke-opacity:1"
     id="path3753" />
  <path
     d="M 405.55939,145.06645 L 437.70705,258.25989 L 480.46496,282.14267 L 458.87191,200.00064 C 542.43053,245.20768 571.33979,355.73927 542.2813,427.58425 L 581.36981,441.98665 C 624.84436,311.54788 560.04447,212.20608 479.94026,163.66099 L 562.05521,139.83919 L 517.92343,114.41819 L 405.55939,145.06645 z "
     style="opacity:1;fill:white;fill-opacity:1;fill-rule:evenodd;stroke:none;stroke-width:1px;stroke-linecap:butt;stroke-linejoin:miter;stroke-opacity:1"
     id="path3755" />
</svg>
