<?xml version="1.0" encoding="UTF-8" standalone="no"?>
<!-- Created with Inkscape (http://www.inkscape.org/) -->
<svg
   xmlns:svg="http://www.w3.org/2000/svg"
   xmlns="http://www.w3.org/2000/svg"
   version="1.0"
   width="725"
   height="725"
   id="svg2">
  <defs
     id="defs9" />
  <circle
     cx="362.5"
     cy="362.5"
     r="350"
     style="fill:white;stroke:black;stroke-width:2.5px"
     id="circle4" />
  <path
     d="M 388.03576,283.98783 L 388.03576,220.87834 L 400.74278,220.87834 L 400.74278,227.62704 L 400.98597,227.62704 C 404.99869,222.64157 410.47061,220.14881 417.40174,220.14875 C 421.81977,220.14881 425.32585,220.9392 427.91999,222.51991 C 430.51403,224.10075 432.946,226.04632 435.21588,228.35663 C 440.20135,222.88477 446.84872,220.14881 455.158,220.14875 C 460.06238,220.14881 464.79457,222.01331 469.3546,225.74227 C 473.91443,229.47133 476.1944,234.90272 476.1945,242.03643 L 476.1945,283.98783 L 463.48748,283.98783 L 463.48748,246.41397 C 463.48739,242.15807 462.29168,238.83439 459.90033,236.44291 C 457.50882,234.05153 454.54993,232.85581 451.02366,232.85576 C 447.37564,232.85581 444.36609,234.05153 441.99499,236.44291 C 439.62376,238.83439 438.43818,242.15807 438.43824,246.41397 L 438.43824,283.98783 L 425.79202,283.98783 L 425.79202,246.41397 C 425.79197,242.15807 424.59626,238.83439 422.20487,236.44291 C 419.8134,234.05153 416.85451,232.85581 413.3282,232.85576 C 409.68022,232.85581 406.67067,234.05153 404.29953,236.44291 C 401.92834,238.83439 400.74276,242.15807 400.74278,246.41397 L 400.74278,283.98783 L 388.03576,283.98783 z "
     style="font-size:124.51661682px;font-style:normal;font-variant:normal;font-weight:normal;font-stretch:normal;text-align:center;line-height:100%;writing-mode:lr-tb;text-anchor:middle;fill:black;fill-opacity:1;stroke:none;stroke-width:1px;stroke-linecap:butt;stroke-linejoin:miter;stroke-opacity:1;font-family:DIN 1451 Mittelschrift"
     id="text3785" />
  <circle
     cx="362.5"
     cy="362.5"
     r="290"
     style="fill:none;stroke:#c00;stroke-width:93.75"
     id="circle6" />
  <path
     d="M 503.5953,358.21088 L 503.5953,461.90868 L 582.58614,462.62011 C 583.48307,462.91909 564.99842,494.92708 564.36504,494.71595 L 489.26654,494.81178 C 487.70983,439.72563 409.55614,439.91306 407.85792,494.49336 C 396.11966,494.40578 394.49144,491.73981 394.37827,480.92697 L 394.37827,439.57576 C 394.23088,421.09629 391.92307,433.29481 405.60247,398.25181 C 419.67777,360.89641 415.79746,364.34923 428.52849,363.38515 L 503.5953,358.21088 z M 471.08008,419.35333 L 471.72798,375.29583 L 429.93814,377.88745 C 422.31964,378.39783 422.25623,378.44566 419.57167,387.28206 L 408.88125,415.78986 C 405.28986,424.53386 405.86148,427.11044 415.68425,425.83238 L 471.08008,419.35333 z "
     style="opacity:1;fill:black;fill-opacity:1;fill-rule:evenodd;stroke:none"
     id="path3725" />
  <path
     d="M 520.3208,327.02695 L 601.55532,326.97084 C 609.54769,397.47741 595.63425,420.68735 585.95735,453.04436 L 520.3208,453.04436 L 520.3208,327.02695 z "
     style="opacity:1;fill:black;fill-opacity:1;stroke:none"
     id="rect3727" />
  <circle
     cx="164"
     cy="412"
     r="77"
     transform="matrix(0.417689,0,0,0.417689,380.0495,321.9484)"
     style="fill:black;fill-opacity:1;stroke:none"
     id="circle3729" />
  <path
     d="M 141.61171,461.96258 L 192.27177,462.09649 C 182.66503,469.94522 176.66737,480.76346 176.74576,494.96236 L 160.04958,494.97717 C 152.34151,484.23266 147.38409,473.02971 141.61171,461.96258 z M 308.77304,462.17486 L 308.85264,485.47238 L 281.8668,495.02488 L 258.17272,495.00974 C 258.26916,481.50062 252.65503,470.13867 242.70085,462.1574 L 308.77304,462.17486 z "
     style="fill:black;fill-opacity:1;fill-rule:evenodd;stroke:none"
     id="path3756" />
  <path
     d="M 123.01404,327.08084 L 308.98871,327.08084 L 308.98871,453.09825 L 138.47864,453.09825 C 121.07785,411.32735 118.78551,369.27584 123.01404,327.08084 z "
     style="fill:black;fill-opacity:1;stroke:none"
     id="rect3758" />
  <circle
     cx="748"
     cy="412"
     r="77"
     transform="matrix(0.417689,0,0,0.417689,-94.97974,322.0023)"
     style="fill:black;fill-opacity:1;stroke:none"
     id="circle3762" />
  <path
     d="M 256.55696,221.24165 L 256.55696,195.76681 L 306.95944,195.76681 L 306.95944,208.47383 L 276.98546,284.35114 L 262.75847,284.35114 L 292.79324,208.47383 L 269.26398,208.47383 L 269.26398,221.24165 L 256.55696,221.24165 z "
     style="font-size:124.51661682px;font-style:normal;font-variant:normal;font-weight:normal;font-stretch:normal;text-align:center;line-height:100%;writing-mode:lr-tb;text-anchor:middle;fill:black;fill-opacity:1;stroke:none;stroke-width:1px;stroke-linecap:butt;stroke-linejoin:miter;stroke-opacity:1;font-family:DIN 1451 Mittelschrift"
     id="text3775" />
  <path
     d="M 358.84094,257.78338 L 358.84094,220.14872 C 358.84089,215.89285 357.69584,212.56917 355.40578,210.17766 C 353.11565,207.78631 350.10609,206.59059 346.37711,206.59052 C 342.60754,206.59059 339.58785,207.78631 337.31804,210.17766 C 335.04819,212.56917 333.91327,215.89285 333.91329,220.14872 L 333.91329,257.78338 C 333.91327,262.07988 335.04819,265.41369 337.31804,267.78484 C 339.58785,270.15602 342.60754,271.3416 346.37711,271.34159 C 350.10609,271.3416 353.11565,270.15602 355.40578,267.78484 C 357.69584,265.41369 358.84089,262.07988 358.84094,257.78338 L 358.84094,257.78338 z M 321.20627,258.51297 L 321.20627,219.41913 C 321.20627,211.27212 323.75983,204.97942 328.86696,200.541 C 333.97407,196.10275 339.81078,193.88359 346.37711,193.8835 C 352.90285,193.88359 358.72943,196.10275 363.85686,200.541 C 368.9842,204.97942 371.5479,211.27212 371.54795,219.41913 L 371.54795,258.51297 C 371.5479,266.66007 368.9842,272.94264 363.85686,277.3607 C 358.72943,281.77877 352.90285,283.98781 346.37711,283.98781 C 339.81078,283.98781 333.97407,281.77877 328.86696,277.3607 C 323.75983,272.94264 321.20627,266.66007 321.20627,258.51297 L 321.20627,258.51297 z "
     style="font-size:124.51661682px;font-style:normal;font-variant:normal;font-weight:normal;font-stretch:normal;text-align:center;line-height:100%;writing-mode:lr-tb;text-anchor:middle;fill:black;fill-opacity:1;stroke:none;stroke-width:1px;stroke-linecap:butt;stroke-linejoin:miter;stroke-opacity:1;font-family:DIN 1451 Mittelschrift"
     id="text3779" />
</svg>
