<?xml version="1.0" encoding="UTF-8" standalone="no"?>
<svg xmlns="http://www.w3.org/2000/svg" width="725" height="725" version="1.1">
  <circle style="fill:#FFF; stroke:#000; stroke-width:2.5px" r="350" cx="362.5" cy="362.5" />
  <circle cx="362.5" cy="362.5" r="290" style="stroke:#CC0000; stroke-width:93.75; fill:none" />
  <g id="TruckSymbol" transform="matrix(0.436865,0.000000,0.000000,0.436865,143.8720,253.0305)">
    <path style="fill:black; stroke:none; fill-rule:evenodd"
          d="M 295.78419,86.816926 L 295.78419,335.08252 L 687.71625,335.40310 C 664.71649,354.19396 650.35734,380.09418 650.54503,414.08813 L 261.47933,413.85667 C 257.75238,281.97351 70.642616,282.42223 66.576854,413.09434 C 38.473995,412.88466 34.575813,406.50199 34.304870,380.61469 L 34.304868,281.61469 C 33.952015,237.37253 28.426810,266.57731 61.177014,182.67997 C 94.875059,93.246445 85.585107,101.51291 116.06480,99.204795 L 295.78419,86.816926 z M 217.93865,233.19966 L 219.48981,127.72046 L 119.43969,133.92512 C 101.20003,135.14704 101.04823,135.26154 94.621050,156.41701 L 69.026832,224.66825 C 60.428592,245.60250 61.797130,251.77115 85.314062,248.71131 L 217.93865,233.19966 z M 966.63494,335.59074 L 966.82552,391.36792 L 902.21802,414.23783 L 845.49140,414.20156 C 845.72230,381.85903 832.28136,354.65711 808.44981,335.54893 L 966.63494,335.59074 z " />
    <rect x="335.82718" y="12.158683" height="301.70154" width="631.32404" style="fill:black; stroke:none" />
    <circle r="77" cx="164" cy="412" style="fill:black; stroke:none" />
    <circle r="77" cx="748" cy="412" style="fill:black; stroke:none" />
  </g>
</svg>
