<?xml version="1.0" encoding="utf-8"?>
<!-- Generator: Adobe Illustrator 12.0.1, SVG Export Plug-In . SVG Version: 6.00 Build 51448)  -->
<!DOCTYPE svg PUBLIC "-//W3C//DTD SVG 1.1//EN" "http://www.w3.org/Graphics/SVG/1.1/DTD/svg11.dtd" [
	<!ENTITY ns_svg "http://www.w3.org/2000/svg">
	<!ENTITY ns_xlink "http://www.w3.org/1999/xlink">
]>
<svg  version="1.1" id="Ebene_1" xmlns="&ns_svg;" xmlns:xlink="&ns_xlink;" width="586.262" height="586.262"
	 viewBox="0 0 586.262 586.262" overflow="visible" enable-background="new 0 0 586.262 586.262" xml:space="preserve">
<path fill="#FFFFFF" stroke="#000000" d="M546.707,585.762c21.527,0,38.977-17.451,38.977-38.977l0.078-507.23
	c0-21.527-17.451-38.977-38.977-38.977L39.554,0.5C18.027,0.5,0.578,17.951,0.578,39.477L0.5,546.708
	c0,21.527,17.451,38.977,38.977,38.977L546.707,585.762z"/>
<g>
	<path fill="none" stroke="#000000" stroke-width="14" d="M39.479,568.685c-12.121,0-21.979-9.858-21.979-21.977
		c0,0.003,0.078-507.229,0.078-507.229c0-12.121,9.859-21.979,21.977-21.979l507.228,0.078c12.121,0,21.979,9.858,21.979,21.977
		l-0.078,507.228c0,12.121-9.858,21.979-21.977,21.979h0.003L39.479,568.685z"/>
</g>
<path fill="#CC0000" d="M478.146,238.128c0,102.229-82.873,185.104-185.102,185.104c-102.229,0-185.103-82.875-185.103-185.104
	c0-102.229,82.874-185.101,185.103-185.101C395.273,53.027,478.146,135.899,478.146,238.128z"/>
<path fill="#FFFFFF" d="M429.432,238.128c0,75.324-61.062,136.388-136.388,136.388s-136.388-61.064-136.388-136.388
	c0-75.325,61.063-136.387,136.388-136.387S429.432,162.804,429.432,238.128z"/>
<path d="M166.885,210.514h8.281v35.558c0,6.188,5.016,11.203,11.203,11.203c6.188,0,11.204-5.015,11.204-11.203v-35.558h8.28v35.558
	c0,10.761-8.723,19.483-19.484,19.483c-10.76,0-19.484-8.723-19.484-19.483V210.514z M216.569,265.068v-38.967h7.793v4.397
	c2.497-3.09,6.257-4.885,10.229-4.885c4.187,0,8.124,1.994,10.603,5.37l0,0c2.774-3.397,6.93-5.37,11.316-5.37
	c8.071,0,14.613,6.543,14.613,14.613v24.842h-7.793V241.2c0-4.304-3.489-7.793-7.794-7.793c-4.304,0-7.793,3.489-7.793,7.793v23.868
	h-7.794V241.2c0-4.304-3.488-7.793-7.793-7.793s-7.794,3.489-7.794,7.793v23.868H216.569z M291.096,265.068l-12.179-38.967h8.281
	l7.306,27.277l8.77-27.277h5.845l8.767,27.277l7.308-27.277h8.28l-12.176,38.967h-6.819l-8.281-27.278l-8.28,27.278H291.096z
	 M371.469,248.506h-24.357v0.975c0,3.386,2.061,6.431,5.205,7.689l0,0c1.288,0.514,2.664,0.779,4.051,0.779
	c3.18,0,6.201-1.389,8.273-3.803l5.914,5.076c-3.553,4.139-8.734,6.52-14.188,6.52c-2.378,0-4.736-0.454-6.945-1.337l0,0
	c-6.101-2.441-10.104-8.352-10.104-14.925v-7.793c0-8.877,7.195-16.075,16.074-16.075c8.878,0,16.076,7.197,16.076,16.075V248.506z
	 M347.111,241.688h16.562c0-4.574-3.708-8.281-8.281-8.281C350.82,233.407,347.111,237.114,347.111,241.688z M395.822,265.068
	h-4.871c-4.842,0-8.768-3.926-8.768-8.767v-45.788h7.793v44.813c0,1.344,1.09,2.436,2.436,2.436h3.41V265.068z M419.203,265.068
	h-4.871c-4.844,0-8.768-3.926-8.768-8.767v-23.869h-3.897v-6.331h3.897V214.41h7.791v11.691h5.848v6.331h-5.848v22.895
	c0,1.344,1.093,2.436,2.436,2.436h3.412V265.068z"/>
<path d="M157.254,533.569v-10.221l37.233-60.596h-35.773v-10.951h51.104v9.49l-37.233,60.596h37.233v11.682H157.254z M221.5,505.097
	v-24.822c0-16.127,13.074-29.203,29.202-29.203s29.202,13.076,29.202,29.203v24.822c0,16.129-13.074,29.201-29.202,29.201
	S221.5,521.226,221.5,505.097z M233.911,505.097c0,9.273,7.518,16.791,16.791,16.791s16.791-7.518,16.791-16.791v-24.822
	c0-9.273-7.518-16.791-16.791-16.791s-16.791,7.518-16.791,16.791V505.097z M295.965,533.569v-81.768h11.682l37.232,58.404v-58.404
	h12.412v81.768h-11.682l-37.232-58.404v58.404H295.965z M376.271,533.569v-81.768h52.564v11.682h-40.154v23.361h34.314v10.951
	h-34.314v24.092h40.154v11.682H376.271z"/>
</svg>
