<?xml version="1.0" encoding="UTF-8" standalone="no"?>
<!-- Created with Inkscape (http://www.inkscape.org/) -->

<svg
   xmlns:dc="http://purl.org/dc/elements/1.1/"
   xmlns:cc="http://creativecommons.org/ns#"
   xmlns:rdf="http://www.w3.org/1999/02/22-rdf-syntax-ns#"
   xmlns:svg="http://www.w3.org/2000/svg"
   xmlns="http://www.w3.org/2000/svg"
   xmlns:sodipodi="http://sodipodi.sourceforge.net/DTD/sodipodi-0.dtd"
   xmlns:inkscape="http://www.inkscape.org/namespaces/inkscape"
   version="1.0"
   width="780.02118"
   height="665.05695"
   id="svg2"
   inkscape:version="0.47pre4 r22446"
   sodipodi:docname="DE_220;DE_267.svg">
  <metadata
     id="metadata23">
    <rdf:RDF>
      <cc:Work
         rdf:about="">
        <dc:format>image/svg+xml</dc:format>
        <dc:type
           rdf:resource="http://purl.org/dc/dcmitype/StillImage" />
      </cc:Work>
    </rdf:RDF>
  </metadata>
  <sodipodi:namedview
     pagecolor="#ffffff"
     bordercolor="#666666"
     borderopacity="1"
     objecttolerance="10"
     gridtolerance="10"
     guidetolerance="10"
     inkscape:pageopacity="0"
     inkscape:pageshadow="2"
     inkscape:window-width="1400"
     inkscape:window-height="974"
     id="namedview21"
     showgrid="false"
     inkscape:snap-global="false"
     inkscape:zoom="0.56428571"
     inkscape:cx="480.39135"
     inkscape:cy="244.30927"
     inkscape:window-x="0"
     inkscape:window-y="24"
     inkscape:window-maximized="1"
     inkscape:current-layer="svg2" />
  <defs
     id="defs9">
    <inkscape:perspective
       sodipodi:type="inkscape:persp3d"
       inkscape:vp_x="0 : 182.5 : 1"
       inkscape:vp_y="0 : 1000 : 0"
       inkscape:vp_z="980 : 182.5 : 1"
       inkscape:persp3d-origin="490 : 121.66667 : 1"
       id="perspective25" />
    <inkscape:perspective
       id="perspective2873"
       inkscape:persp3d-origin="362.5 : 241.66667 : 1"
       inkscape:vp_z="725 : 362.5 : 1"
       inkscape:vp_y="0 : 1000 : 0"
       inkscape:vp_x="0 : 362.5 : 1"
       sodipodi:type="inkscape:persp3d" />
    <clipPath
       clipPathUnits="userSpaceOnUse"
       id="clipPath2919">
      <g
         id="g2921">
        <rect
           y="-177.27849"
           x="-8.8607597"
           height="797.46838"
           width="115.18987"
           id="rect2923"
           style="color:#000000;fill:#c3ffc1;fill-opacity:1;fill-rule:nonzero;stroke:#000000;stroke-width:0.5;stroke-linecap:butt;stroke-linejoin:round;stroke-miterlimit:4;stroke-opacity:1;stroke-dasharray:none;stroke-dashoffset:0;marker:none;visibility:visible;display:inline;overflow:visible;enable-background:accumulate" />
        <rect
           style="color:#000000;fill:#c3ffc1;fill-opacity:1;fill-rule:nonzero;stroke:#000000;stroke-width:0.5;stroke-linecap:butt;stroke-linejoin:round;stroke-miterlimit:4;stroke-opacity:1;stroke-dasharray:none;stroke-dashoffset:0;marker:none;visibility:visible;display:inline;overflow:visible;enable-background:accumulate"
           id="rect2925"
           width="111.64557"
           height="783.29114"
           x="-283.54431"
           y="-187.91139" />
      </g>
    </clipPath>
  </defs>
  <g
     id="g2876"
     transform="matrix(0.43153556,0,0,0.43153556,396.86653,14.991036)"
     clip-path="none">
    <path
       id="path2866"
       d="m 712.5,362.5 c 0,193.29966 -156.70034,350 -350,350 -193.29966,0 -350,-156.70034 -350,-350 0,-193.29966 156.70034,-350 350,-350 193.29966,0 350,156.70034 350,350 l 0,0 z"
       style="fill:#ffffff;fill-opacity:1;fill-rule:evenodd;stroke:#000000;stroke-width:2.5;stroke-linecap:butt;stroke-linejoin:miter;stroke-miterlimit:4;stroke-opacity:1;stroke-dashoffset:0" />
    <path
       id="path2868"
       d="m 361.4483,27.3625 c -184.78586,0 -335.5,150.71414 -335.5,335.5 0,184.78586 150.71414,335.5 335.5,335.5 184.78586,0 335.5,-150.71414 335.5,-335.5 0,-184.78586 -150.71414,-335.5 -335.5,-335.5 z"
       style="fill:#cc0000;fill-opacity:1;fill-rule:evenodd" />
    <rect
       y="307.98154"
       x="55.47493"
       height="109.03694"
       width="614.05017"
       id="rect1324"
       style="fill:#ffffff;fill-opacity:1;fill-rule:evenodd;stroke:none" />
  </g>
  <g
     id="g2881"
     transform="matrix(0.80157793,0,0,0.80157793,-2.8345777,258.83525)">
    <path
       id="path5587"
       style="fill:#ffffff;fill-opacity:1;fill-rule:evenodd;stroke:#000000;stroke-width:2;stroke-linecap:butt;stroke-linejoin:miter;stroke-miterlimit:4;stroke-opacity:1;stroke-dasharray:none"
       d="m 4.5362472,320.16013 0,-276.738949 c 0,-18.244267 27.8204388,-40.2493178 41.8886778,-40.2493178 L 931.67273,3.0504075 c 16.34379,0 43.80357,19.4752725 43.80357,43.0887015 l 0.16703,273.114751 c 0,19.21823 -23.16695,42.41006 -45.78235,42.41006 l -881.397247,0.0979 c -21.1705,0 -43.9274858,-25.02216 -43.9274858,-41.60173 z" />
    <path
       id="path5483"
       style="fill:#000000;fill-opacity:1;fill-rule:evenodd;stroke:none"
       d="m 122.11909,148.48886 0,11.06487 -33.150165,0 0,18.0142 28.041515,0 0,9.96198 -27.838673,0 0,17.86782 32.947323,0 0,11.23793 -43.994451,0 0,-68.1468 43.994451,0 z" />
    <path
       id="path4577"
       style="fill:#003399;fill-opacity:1;fill-rule:evenodd;stroke:none"
       d="m 49.34375,20.59375 c -12.426964,0 -26.90625,13.359692 -26.90625,27.3125 l -0.25,135.8125 0.09375,0 0.25,134.625 c 0,13.9528 14.47929,27.3125 26.90625,27.3125 l 879.90625,0 c 11.10427,0 28.875,-9.72925 28.875,-28.875 l -0.25,-134.25 -0.0937,0 0.21875,-133.0625 c 0,-19.145753 -17.77075,-28.874999 -28.875,-28.875 l -879.875,0 z M 690.8125,48.75 c 2.49356,0.07679 5.2416,0.597732 8.28125,1.625 l 232.25,132.78125 L 699.1875,315.875 c -19.45375,6.5745 -27.52695,-8.23714 -26.75,-19.90625 l 14.5,-52.1875 -635.84375,0.15625 -0.96875,-61.40625 -0.0625,0 0.90625,-60.21875 635.84375,0.15625 -14.46875,-52.1875 C 671.6882,60.435437 677.34729,48.335306 690.8125,48.75 z" />
    <path
       id="path5485"
       style="fill:#000000;fill-opacity:1;fill-rule:evenodd;stroke:none"
       d="m 134.9928,167.496 10.02018,0 0.0999,49.08434 -10.19496,0 c 0,0 0.31194,-48.84724 0.0748,-49.08434 z" />
    <path
       id="path5487"
       style="fill:#000000;fill-opacity:1;fill-rule:evenodd;stroke:none"
       d="m 134.57466,148.48886 0,10.66914 10.66915,0 0,-10.66914 -10.66915,0 z" />
    <path
       id="path5489"
       style="fill:#000000;fill-opacity:1;fill-rule:evenodd;stroke:none"
       d="m 159.09507,167.57086 -0.24336,49.01575 11.21192,0 0,-33.67335 c 3.20148,-3.6929 9.7112,-9.24867 17.95041,0 l 0,33.67335 11.07475,-0.0811 0,-34.70284 c 0,-7.52722 -6.74893,-14.28803 -12.42226,-14.28803 l -10.03291,0.0811 c -3.13531,0 -5.28011,2.61066 -6.54868,4.22077 l -0.0811,-4.30797 -10.90875,0.0623 z" />
    <path
       id="path5491"
       style="fill:#000000;fill-opacity:1;fill-rule:evenodd;stroke:none"
       d="m 211.96035,148.5349 0,68.04544 10.90623,0 0,-68.04544 -10.90623,0 z" />
    <path
       id="path5493"
       style="fill:#000000;fill-opacity:1;fill-rule:evenodd;stroke:none"
       d="m 222.62322,172.87427 c 0,-2.78899 5.90938,-5.372 8.54159,-5.372 l 8.77241,0 c 5.489,0 12.32879,5.99137 12.32879,13.04007 l 0,23.47212 c 0,5.22677 -8.43856,13.75134 -14.69972,13.75134 l -5.21602,0 c -2.78288,0 -8.93486,-3.30784 -9.56481,-5.65886 l -0.12864,-12.1386 c 5.60825,6.96759 12.41344,10.01501 18.53065,0.5872 L 240.93383,183.77 c -3.11126,-5.38886 -11.69921,-10.74498 -18.08404,0.31388 l -0.22657,-11.20961 z" />
    <path
       id="path5501"
       style="fill:#000000;fill-opacity:1;fill-rule:evenodd;stroke:none"
       d="m 285.65625,166.53125 c -2.40217,0 -5.5572,0.0937 -8,0.0937 -5.2827,0 -12.875,4.09407 -12.875,7.09375 l 6.53125,6.875 1.53125,-0.0625 c 0,-1.40669 2.54663,-3.03124 3.75,-3.03125 L 287,177.53125 c 2.18911,-0.0524 3.96446,1.61449 3.9375,3.1875 l 0,5.75 -17.03125,-0.0625 c -17.4312,0 -14.51217,30.15625 -0.6875,30.15625 l 13.46875,0 c 1.52977,0 3.76263,-1.33733 4.3125,-3.40625 l 0,3.40625 10.9375,0 0,-37.8125 c 2.4e-4,-7.1352 -8.28359,-12.21875 -16.28125,-12.21875 z m -8.875,28.9375 14.1875,0 0,7.5 c -0.59073,1.68577 -2.68228,3.34375 -4.1875,3.34375 l -10,0 c -5.59626,-1e-5 -5.14295,-10.84375 0,-10.84375 z" />
    <path
       id="path5506"
       style="fill:#000000;fill-opacity:1;fill-rule:evenodd;stroke:none"
       d="m 565.12938,166.51788 c -2.40217,0 -5.5572,0.0937 -8,0.0937 -5.2827,0 -12.875,4.09407 -12.875,7.09375 l 6.53125,6.875 1.53125,-0.0625 c 0,-1.40669 2.54663,-3.03124 3.75,-3.03125 l 10.40625,0.0312 c 2.18911,-0.0524 3.96446,1.61449 3.9375,3.1875 l 0,5.75 -17.03125,-0.0625 c -17.4312,0 -14.51217,30.15625 -0.6875,30.15625 l 13.46875,0 c 1.52977,0 3.76263,-1.33733 4.3125,-3.40625 l 0,3.40625 10.9375,0 0,-37.8125 c 2.4e-4,-7.1352 -8.28359,-12.21875 -16.28125,-12.21875 z m -8.875,28.9375 14.1875,0 0,7.5 c -0.59073,1.68577 -2.68228,3.34375 -4.1875,3.34375 l -10,0 c -5.59626,-1e-5 -5.14295,-10.84375 0,-10.84375 z" />
    <path
       id="path5508"
       style="fill:#000000;fill-opacity:1;fill-rule:evenodd;stroke:none"
       d="m 314.90625,148.5 0,68.0625 11.25,0 0,-32.40625 c 2.17164,-9.37224 18.44532,-10.18639 18.9375,1.5625 l 0,30.84375 9.875,0 -0.0574,-38.41611 c -0.96081,-5.23753 -5.91919,-9.02507 -11.0782,-10.33867 -3.29017,-0.83775 -6.89525,-0.90258 -10.29159,-0.25623 -2.67692,0.50944 -5.22417,1.46069 -7.38535,2.82351 l 0,-21.875 -11.25,0 z" />
    <path
       id="path5518"
       style="fill:#000000;fill-opacity:1;fill-rule:evenodd;stroke:none"
       d="m 368.64685,167.53271 0,49.01865 11.25,0 0,-32.40625 c 2.17164,-9.37224 18.44532,-10.18639 18.9375,1.5625 l 0,30.84375 9.875,0 -0.0574,-38.41611 c -0.96081,-5.23753 -5.91919,-9.02507 -11.0782,-10.33867 -3.29017,-0.83775 -6.89525,-0.90258 -10.29159,-0.25623 -2.67692,0.50944 -5.22417,1.46069 -7.38535,2.82351 l 0,-2.83115 -11.25,0 z" />
    <path
       id="path5520"
       style="fill:#000000;fill-opacity:1;fill-rule:evenodd;stroke:none"
       d="m 425.61858,201.29172 -6.66779,6.02818 c 3.60993,4.40511 6.75242,8.24819 14.92777,9.22923 3.49077,0.37678 6.81978,0.26827 10.09554,0 8.73068,-0.40989 14.54508,-4.634 16.63469,-11.24214 0.69722,-2.56212 0.53314,-5.16481 0.11472,-7.68637 -2.04835,-6.02528 -7.03553,-9.74855 -11.78276,-11.14195 0,0 -12.61942,-0.11472 -12.61942,-0.11472 -3.15485,0.31783 -5.5996,-6.6573 0.0811,-8.70496 2.42906,-0.56585 4.91976,-0.51527 7.45693,0 4.36899,1.03462 7.075,2.4388 9.52192,3.90055 l 6.7686,-7.57165 c -4.11206,-4.82005 -9.91045,-6.33544 -16.13524,-7.36856 -3.03002,-0.43621 -5.37849,-0.43424 -7.90309,-0.12168 -8.90892,1.70847 -12.21922,5.25528 -13.93465,9.32579 -0.79435,3.67089 -0.32912,7.21582 -0.095,10.78387 1.11503,5.65769 5.21189,8.17237 10.3053,9.63664 5.00953,0.80131 10.01905,1.33109 15.02858,1.37667 3.92319,0.24786 3.03444,6.82314 0.11472,7.80109 l -2.98277,0.91778 c -3.38612,0.88225 -9.34982,0.67171 -10.4397,0.11472 -2.82981,-2.03403 -5.65962,-3.53495 -8.48943,-5.16249 z" />
    <path
       id="path5568"
       style="fill:#000000;fill-opacity:1;fill-rule:evenodd;stroke:none"
       d="m 483.99276,153.51834 -0.0811,13.95276 6.95707,0.0757 0.0788,8.94122 -6.82072,0 0,28.58948 c 0.26556,0.88166 0.72813,1.56631 2.065,1.37666 l 4.83224,0.16224 -0.0279,10.0138 -9.16374,-0.0811 c -2.28502,-0.61227 -8.71887,-5.45448 -8.71887,-10.09492 l 0,-30.05716 -5.22392,0 0.14832,-8.76371 5.0756,0 0,-14.115" />
    <path
       id="path5570"
       style="fill:#000000;fill-opacity:1;fill-rule:evenodd;stroke:none"
       d="m 526.25,167.21875 c -4.02631,0.0359 -8.48549,1.18247 -12.28125,4.28125 l 0,-4.03125 -11.09375,0 0.0625,49.09375 11.03125,0 0,-31.75 c 4.11579,-6.48873 9.58711,-9.79634 15.84375,-4.4375 l 7.53125,-9.34375 c -1.28328,-1.99406 -5.81306,-3.85951 -11.09375,-3.8125 z" />
    <path
       id="path5581"
       style="fill:#000000;fill-opacity:1;fill-rule:evenodd;stroke:none"
       d="m 678.81799,202.353 8.35543,6.97639 c -3.72964,3.47511 -30.23876,18.84719 -40.15474,-6.89526 l -0.0811,-20.76691 c 0.0213,-10.94065 33.49595,-27.17313 41.04707,2.67699 l 0.12168,2.19026 -10.99185,-0.0406 c -2.46328,-14.65793 -19.839,-9.33253 -19.30672,-0.0406 l 30.33914,0.0811 -0.16224,9.89672 -30.98811,0 c 2.91951,12.31543 15.17892,11.39217 21.82147,5.92181 z" />
    <path
       id="path5583"
       style="fill:#000000;fill-opacity:1;fill-rule:evenodd;stroke:none"
       d="m 594.77695,216.54913 0.29598,-59.12478 c 0,-14.35405 38.86147,-13.30261 38.86147,0.22911 l 0.01,11.81397 c 0,1.34869 -3.82489,5.79621 -4.77188,5.79621 0.95494,0 4.79078,2.95921 4.79078,5.19143 l -0.0762,26.92946 c 0,2.37383 -7.7133,9.1646 -9.9732,9.1646 l -9.94441,0 0.01,-10.04937 6.75686,0.0573 c 1.35184,0 3.40707,-2.20317 3.40707,-4.4474 l -0.32448,-18.17103 c 0,-1.40977 -1.45509,-3.56931 -2.59587,-3.56931 l -8.23622,0.11456 0.0573,-9.92814 6.94673,-0.11455 c 13.69487,-13.69487 -14.82968,-15.36191 -14.82968,-6.70162 l -0.0954,52.7523 -10.28808,0.0573 z" />
  </g>
</svg>
