<?xml version="1.0" encoding="UTF-8" standalone="no"?>
<!-- Created with Inkscape (http://www.inkscape.org/) -->
<svg
   xmlns:svg="http://www.w3.org/2000/svg"
   xmlns="http://www.w3.org/2000/svg"
   version="1.0"
   width="600"
   height="600"
   id="svg1980">
  <defs
     id="defs1982" />
  <g
     id="layer1">
    <g
       transform="translate(-137.5187,76.8608)"
       id="g3810">
      <path
         d="M 729.60917,223.33738 C 730.75125,76.700028 619.28349,-48.694492 474.05023,-66.484189 C 306.65375,-87.444858 157.2418,37.136763 145.93513,205.19834 C 136.05271,372.84339 269.48216,515.94027 437.77215,515.1744 C 598.22876,516.26946 730.63705,383.6865 729.60917,223.33738"
         style="fill:white;fill-opacity:1;fill-rule:evenodd;stroke:black;stroke-opacity:1"
         id="path84" />
      <path
         d="M 729.60917,223.33738 L 729.20608,205.19834 M 729.20608,205.19834 L 724.77209,168.51717 M 724.77209,168.51717 L 715.50102,133.04526 M 715.50102,133.04526 L 702.19906,98.782631 M 702.19906,98.782631 L 684.46311,66.938536 M 684.46311,66.938536 L 662.69626,37.109891 M 662.69626,37.109891 L 637.70469,10.505964 M 637.70469,10.505964 L 609.48841,-12.873245 M 609.48841,-12.873245 L 578.45049,-32.624645 M 578.45049,-32.624645 L 545.39713,-48.345147 M 545.39713,-48.345147 L 510.32831,-59.631662 M 510.32831,-59.631662 L 474.05023,-66.484189 M 474.05023,-66.484189 L 437.77215,-68.902727 M 437.77215,-68.902727 L 401.09098,-66.484189 M 401.09098,-66.484189 L 365.21598,-59.631662 M 365.21598,-59.631662 L 330.14717,-48.345147 M 330.14717,-48.345147 L 297.09381,-32.624645 M 297.09381,-32.624645 L 266.05589,-12.873245 M 266.05589,-12.873245 L 237.83961,10.505964 M 237.83961,10.505964 L 212.84804,37.109891 M 212.84804,37.109891 L 191.08119,66.938536 M 191.08119,66.938536 L 173.34524,98.782631 M 173.34524,98.782631 L 160.04328,133.04526 M 160.04328,133.04526 L 150.77221,168.51717 M 150.77221,168.51717 L 145.93513,205.19834 M 145.93513,205.19834 L 145.93513,241.47642 M 145.93513,241.47642 L 150.77221,278.15759 M 150.77221,278.15759 L 160.04328,313.6295 M 160.04328,313.6295 L 173.34524,347.48904 M 173.34524,347.48904 L 191.08119,379.73622 M 191.08119,379.73622 L 212.84804,409.56487 M 212.84804,409.56487 L 237.83961,436.1688 M 237.83961,436.1688 L 266.05589,459.548 M 266.05589,459.548 L 297.09381,479.2994 M 297.09381,479.2994 L 330.14717,495.01991 M 330.14717,495.01991 L 365.21598,506.30642 M 365.21598,506.30642 L 401.09098,513.15895 M 401.09098,513.15895 L 437.77215,515.1744 M 437.77215,515.1744 L 474.05023,513.15895 M 474.05023,513.15895 L 510.32831,506.30642 M 510.32831,506.30642 L 545.39713,495.01991 M 545.39713,495.01991 L 578.45049,479.2994 M 578.45049,479.2994 L 609.48841,459.548 M 609.48841,459.548 L 637.70469,436.1688 M 637.70469,436.1688 L 662.69626,409.56487 M 662.69626,409.56487 L 684.46311,379.73622 M 684.46311,379.73622 L 702.19906,347.48904 M 702.19906,347.48904 L 715.50102,313.6295 M 715.50102,313.6295 L 724.77209,278.15759 M 724.77209,278.15759 L 729.20608,241.47642 M 729.20608,241.47642 L 729.60917,223.33738"
         id="path86" />
      <path
         d="M 719.93501,223.33738 C 720.4859,81.436333 613.98958,-39.443581 473.24405,-56.810033 C 311.79315,-77.542286 165.90823,42.974847 156.01238,205.60143 C 146.05606,368.40268 274.58124,505.51368 437.77215,505.50024 C 593.57979,505.79584 720.18358,378.88973 719.93501,223.33738"
         style="fill:black;fill-rule:evenodd;stroke:none"
         id="path88" />
      <path
         d="M 584.49684,-0.78055067 C 336.07259,-153.518 60.916774,121.63782 213.65422,370.06207 L 584.49684,-0.78055067"
         style="fill:white;fill-opacity:1;fill-rule:evenodd;stroke:none"
         id="path90" />
      <path
         d="M 595.78335,7.2812454 L 600.21734,10.505964 L 604.24824,13.327592 L 227.76236,389.81347 L 224.94073,385.78257 L 221.71601,381.34858 L 595.78335,7.2812454"
         style="fill:#fffefe;fill-rule:evenodd;stroke:none"
         id="path92" />
      <path
         d="M 614.72857,22.195568 L 618.35638,25.823376 L 621.98419,29.048095 L 243.48286,407.54942 L 240.25815,403.92161 L 236.63034,400.2938 L 614.72857,22.195568"
         style="fill:#fffefe;fill-rule:evenodd;stroke:none"
         id="path94" />
      <path
         d="M 638.91396,46.380956 L 635.28615,42.753148 L 631.65834,38.72225 L 253.15702,417.22358 L 257.18792,420.85138 L 260.81573,424.47919 L 638.91396,46.380956"
         style="fill:#fffefe;fill-rule:evenodd;stroke:none"
         id="path96" />
      <path
         d="M 653.82828,65.326177 L 650.60357,60.892189 L 647.37885,56.861291 L 271.29606,432.94408 L 275.32696,436.1688 L 279.76095,439.39351 L 653.82828,65.326177"
         style="fill:#fffefe;fill-rule:evenodd;stroke:none"
         id="path98" />
      <path
         d="M 661.48699,76.612692 C 815.29934,323.98219 538.42367,600.86457 291.04746,447.05222 L 661.48699,76.612692"
         style="fill:white;fill-opacity:1;fill-rule:evenodd;stroke:none"
         id="path100" />
    </g>
  </g>
</svg>
