<?xml version="1.0" encoding="UTF-8" standalone="no"?>
<!-- Created with Inkscape (http://www.inkscape.org/) -->
<svg
   xmlns:svg="http://www.w3.org/2000/svg"
   xmlns="http://www.w3.org/2000/svg"
   version="1.0"
   width="725"
   height="725"
   id="svg2">
  <defs
     id="defs9" />
  <g
     id="g1875">
    <circle
       cx="362.5"
       cy="362.5"
       r="350"
       style="fill:white;stroke:black;stroke-width:2.5px"
       id="circle4" />
    <circle
       cx="362.5"
       cy="362.5"
       r="290"
       style="fill:none;stroke:#c00;stroke-width:93.75"
       id="circle6" />
  </g>
  <path
     d="M 151.8801,375.07907 C 151.38912,338.88652 149.42518,370.02894 171.23891,316.37138 C 187.02055,279.89826 171.02849,289.71794 252.67215,288.38527 C 325.33783,289.85822 310.67845,279.33713 327.37191,318.05475 C 348.27381,367.64416 346.66058,341.69214 346.5203,374.02695 C 345.74876,409.51811 358.86506,400.39983 248.88456,401.59222 C 139.74577,400.11927 152.65165,409.37782 151.8801,375.07907 z M 173.97438,340.14904 L 188.91435,305.63986 C 191.70178,299.50992 190.81247,300.41482 197.33122,300.37931 L 301.78358,300.36806 C 307.43813,300.38884 306.60856,300.02168 308.93792,305.41818 L 323.79475,339.72819 L 173.97438,340.14904 z M 163.28964,405.55127 L 191.22898,405.48892 C 191.14326,440.56701 194.05019,438.61088 178.81409,438.83688 C 160.67106,438.76675 163.53903,440.59819 163.28964,405.55127 z M 307.17141,405.80065 L 335.15751,405.80065 C 334.97048,440.93331 337.52671,438.53294 321.69052,438.62646 C 305.31659,438.40825 307.39741,440.99565 307.17141,405.80065 z "
     style="fill:#c00;fill-opacity:1;fill-rule:evenodd;stroke:none"
     id="Car" />
  <path
     d="M 377.42444,375.07907 C 376.93346,338.88652 374.96952,370.02894 396.78325,316.37138 C 412.56489,279.89826 396.57283,289.71794 478.21649,288.38527 C 550.88217,289.85822 536.22279,279.33713 552.91625,318.05475 C 573.81815,367.64416 572.20492,341.69214 572.06464,374.02695 C 571.2931,409.51811 584.4094,400.39983 474.4289,401.59222 C 365.29011,400.11927 378.19599,409.37782 377.42444,375.07907 z M 399.51872,340.14904 L 414.45869,305.63986 C 417.24612,299.50992 416.35681,300.41482 422.87556,300.37931 L 527.32792,300.36806 C 532.98247,300.38884 532.1529,300.02168 534.48226,305.41818 L 549.33909,339.72819 L 399.51872,340.14904 z M 388.83398,405.55127 L 416.77332,405.48892 C 416.6876,440.56701 419.59453,438.61088 404.35843,438.83688 C 386.2154,438.76675 389.08337,440.59819 388.83398,405.55127 z M 532.71575,405.80065 L 560.70185,405.80065 C 560.51482,440.93331 563.07105,438.53294 547.23486,438.62646 C 530.86093,438.40825 532.94175,440.99565 532.71575,405.80065 z "
     style="fill:black;fill-rule:evenodd;stroke:none"
     id="path1899" />
</svg>
