<?xml version="1.0" encoding="UTF-8" standalone="no"?>
<!-- Created with Inkscape (http://www.inkscape.org/) -->
<svg
   xmlns:svg="http://www.w3.org/2000/svg"
   xmlns="http://www.w3.org/2000/svg"
   version="1.0"
   width="480"
   height="480"
   id="svg2">
  <defs
     id="defs4" />
  <path
     d="M 30.856274,5.7720243 L 450.86109,5.7720243 C 461.67691,6.5627045 473.93298,17.615789 474.52755,30.636789 L 474.52755,449.4433 C 474.57722,459.76184 462.73404,473.63554 449.36321,474.30807 L 29.957547,474.30807 C 16.93511,474.30807 5.0927831,462.751 5.0927831,449.14373 L 5.691934,30.936364 C 5.691934,17.424109 14.494985,5.7720243 30.856274,5.7720243 z "
     style="fill:white;fill-opacity:1;fill-rule:evenodd;stroke:black;stroke-width:2;stroke-linecap:butt;stroke-linejoin:miter;stroke-miterlimit:4;stroke-dasharray:none;stroke-opacity:1"
     id="path3669" />
  <path
     d="M 393.71875,16.71875 L 393.71875,16.75 L 84.75,16.75 L 84.75,16.78125 L 35.1875,16.78125 C 23.426887,16.266334 16.714331,24.30046 17.15625,37.15625 L 17.15625,443.5625 C 17.202803,452.2297 20.884421,462.63293 32.84375,462.84375 L 84.15625,462.84375 L 393.71875,462.78125 L 393.71875,462.8125 L 447.28125,462.8125 C 459.24058,462.6017 462.95345,452.19845 463,443.53125 L 463,37.09375 C 463.44191,24.237959 456.72937,16.20383 444.96875,16.71875 L 393.71875,16.71875 z M 393.71875,83.21875 L 393.71875,396.125 L 86.4375,396.34375 L 86.4375,83.28125 L 393.71875,83.21875 z "
     style="fill:#039;fill-opacity:1;fill-rule:evenodd;stroke:#039;stroke-width:1px;stroke-linecap:butt;stroke-linejoin:miter;stroke-opacity:1"
     id="path3661" />
  <g
     id="g8184">
    <path
       d="M 240.1875,155.15625 C 167.33571,155.15625 118.40625,219.03071 118.40625,256.3125 C 118.40625,256.3125 118.5,256.65625 118.5,256.65625 L 118.5,347.5625 L 359.34375,345.75 L 359.34375,256.65625 L 359.75,256.4375 C 359.75,219.53516 311.81302,156.59041 240.1875,155.3125 L 240.1875,155.15625 z "
       style="opacity:1;color:black;fill:black;fill-opacity:1;fill-rule:nonzero;stroke:black;stroke-width:1;stroke-linecap:round;stroke-linejoin:miter;marker:none;marker-start:none;marker-mid:none;marker-end:none;stroke-miterlimit:4;stroke-dasharray:none;stroke-dashoffset:0;stroke-opacity:1;visibility:visible;display:inline;overflow:visible"
       id="path3703" />
    <path
       d="M 381.915,346.95341 L 93.845366,347.54736 L 95.62724,241.82284 L 118.7916,196.08807 L 157.99283,156.29288 L 210.85509,133.72248 L 264.31132,133.72248 L 318.3615,156.29288 L 361.42345,196.97901 L 382.21198,243.01076 L 381.915,346.95341 z "
       style="opacity:1;color:black;fill:none;fill-opacity:1;fill-rule:nonzero;stroke:black;stroke-width:3;stroke-linecap:round;stroke-linejoin:miter;marker:none;marker-start:none;marker-mid:none;marker-end:none;stroke-miterlimit:4;stroke-dasharray:none;stroke-dashoffset:0;stroke-opacity:1;visibility:visible;display:inline;overflow:visible"
       id="path1882" />
    <path
       d="M 97.438084,244.21377 L 117.87656,256.01393"
       style="fill:none;fill-opacity:1;fill-rule:nonzero;stroke:black;stroke-width:3;stroke-linecap:round;stroke-linejoin:miter;stroke-miterlimit:4;stroke-dasharray:none;stroke-dashoffset:0;stroke-opacity:1"
       id="path2780" />
    <path
       d="M 119.27765,196.38505 L 136.49732,209.94531"
       style="fill:none;fill-opacity:1;fill-rule:nonzero;stroke:black;stroke-width:3;stroke-linecap:round;stroke-linejoin:miter;stroke-miterlimit:4;stroke-dasharray:none;stroke-dashoffset:0;stroke-opacity:1"
       id="path3667" />
    <path
       d="M 158.75688,156.29288 L 170.51665,175.92598"
       style="fill:none;fill-opacity:1;fill-rule:nonzero;stroke:black;stroke-width:3;stroke-linecap:round;stroke-linejoin:miter;stroke-miterlimit:4;stroke-dasharray:none;stroke-dashoffset:0;stroke-opacity:1"
       id="path3670" />
    <path
       d="M 212.09583,133.92681 L 213.7758,156.29288"
       style="fill:none;fill-opacity:1;fill-rule:nonzero;stroke:black;stroke-width:3;stroke-linecap:round;stroke-linejoin:miter;stroke-miterlimit:4;stroke-dasharray:none;stroke-dashoffset:0;stroke-opacity:1"
       id="path3672" />
    <path
       d="M 96.178108,301.50351 L 116.33771,301.50351"
       style="fill:none;fill-opacity:1;fill-rule:nonzero;stroke:black;stroke-width:3;stroke-linecap:round;stroke-linejoin:miter;stroke-miterlimit:4;stroke-dasharray:none;stroke-dashoffset:0;stroke-opacity:1"
       id="path3674" />
    <path
       d="M 380.09252,244.84375 L 359.65404,256.64391"
       style="fill:none;fill-opacity:1;fill-rule:nonzero;stroke:black;stroke-width:3;stroke-linecap:round;stroke-linejoin:miter;stroke-miterlimit:4;stroke-dasharray:none;stroke-dashoffset:0;stroke-opacity:1"
       id="path3685" />
    <path
       d="M 358.25295,197.01503 L 341.03328,210.57529"
       style="fill:none;fill-opacity:1;fill-rule:nonzero;stroke:black;stroke-width:3;stroke-linecap:round;stroke-linejoin:miter;stroke-miterlimit:4;stroke-dasharray:none;stroke-dashoffset:0;stroke-opacity:1"
       id="path3687" />
    <path
       d="M 318.77372,156.92286 L 307.01395,176.55596"
       style="fill:none;fill-opacity:1;fill-rule:nonzero;stroke:black;stroke-width:3;stroke-linecap:round;stroke-linejoin:miter;stroke-miterlimit:4;stroke-dasharray:none;stroke-dashoffset:0;stroke-opacity:1"
       id="path3689" />
    <path
       d="M 265.43477,134.55679 L 263.7548,156.92286"
       style="fill:none;fill-opacity:1;fill-rule:nonzero;stroke:black;stroke-width:3;stroke-linecap:round;stroke-linejoin:miter;stroke-miterlimit:4;stroke-dasharray:none;stroke-dashoffset:0;stroke-opacity:1"
       id="path3691" />
    <path
       d="M 381.35249,302.13349 L 361.19289,302.13349"
       style="fill:none;fill-opacity:1;fill-rule:nonzero;stroke:black;stroke-width:3;stroke-linecap:round;stroke-linejoin:miter;stroke-miterlimit:4;stroke-dasharray:none;stroke-dashoffset:0;stroke-opacity:1"
       id="path3693" />
  </g>
  <path
     d="M 117.65052,255.56477 C 118.1501,255.56477 118.1501,255.56477 117.65052,255.56477 z "
     style="opacity:1;fill:none;fill-opacity:1;fill-rule:nonzero;stroke:none;stroke-width:3;stroke-linecap:round;stroke-linejoin:miter;stroke-miterlimit:4;stroke-dasharray:none;stroke-dashoffset:0;stroke-opacity:1"
     id="path3709" />
</svg>
