<?xml version="1.0" encoding="UTF-8" standalone="no"?>
<!-- Created with Inkscape (http://www.inkscape.org/) -->
<svg
   xmlns:svg="http://www.w3.org/2000/svg"
   xmlns="http://www.w3.org/2000/svg"
   version="1.0"
   width="480"
   height="480"
   id="svg2">
  <defs
     id="defs4" />
  <path
     d="M 30.856274,5.7720243 L 450.86109,5.7720243 C 461.67691,6.5627045 473.93298,17.615789 474.52755,30.636789 L 474.52755,449.4433 C 474.57722,459.76184 462.73404,473.63554 449.36321,474.30807 L 29.957547,474.30807 C 16.93511,474.30807 5.0927831,462.751 5.0927831,449.14373 L 5.691934,30.936364 C 5.691934,17.424109 14.494985,5.7720243 30.856274,5.7720243 z "
     style="fill:white;fill-opacity:1;fill-rule:evenodd;stroke:black;stroke-width:2;stroke-linecap:butt;stroke-linejoin:miter;stroke-miterlimit:4;stroke-dasharray:none;stroke-opacity:1"
     id="path3669" />
  <path
     d="M 35.1875,16.78125 C 23.426887,16.266334 16.714331,24.30046 17.15625,37.15625 L 17.15625,443.5625 C 17.202803,452.2297 20.884421,462.63293 32.84375,462.84375 L 447.28125,462.8125 C 459.24058,462.6017 462.95345,452.19845 463,443.53125 L 463,37.09375 C 463.44191,24.237959 456.72937,16.20383 444.96875,16.71875 L 35.1875,16.78125 z "
     style="fill:#039;fill-opacity:1;fill-rule:evenodd;stroke:#039;stroke-width:1px;stroke-linecap:butt;stroke-linejoin:miter;stroke-opacity:1"
     id="path3661" />
  <path
     d="M 128.33805,186.63996 C 128.33801,197.81717 131.83761,206.28133 138.83688,212.03247 C 145.83603,217.78391 153.67624,220.65955 162.35751,220.65942 C 171.03862,220.65955 178.87882,217.78391 185.87814,212.03247 C 192.87724,206.28133 196.37685,197.81717 196.37696,186.63996 C 196.37685,175.57161 192.87724,167.13458 185.87814,161.32884 C 178.87882,155.52349 171.03862,152.62071 162.35751,152.62051 C 153.67624,152.62071 145.83603,155.52349 138.83688,161.32884 C 131.83761,167.13458 128.33801,175.57161 128.33805,186.63996 L 128.33805,186.63996 z M 90.086515,288.69832 C 90.086507,265.58472 99.418788,247.78828 118.08339,235.30894 C 111.02988,229.0152 105.30572,222.04312 100.91089,214.39268 C 96.516015,206.74252 94.318588,197.70865 94.3186,187.29105 C 94.318588,168.1926 100.85661,151.96962 113.93269,138.62207 C 127.0087,125.27496 143.15029,118.60129 162.35751,118.60106 C 181.56456,118.60129 197.70615,125.27496 210.78233,138.62207 C 223.85824,151.96962 230.39627,168.1926 230.39642,187.29105 C 230.39627,197.70865 228.17171,206.74252 223.72274,214.39268 C 219.27349,222.04312 213.63072,229.0152 206.7944,235.30894 C 225.35032,247.89679 234.62835,265.69324 234.6285,288.69832 C 234.62835,309.75028 227.49349,326.86851 213.22392,340.05305 C 198.95408,353.23763 181.99862,359.82991 162.35751,359.82991 C 142.60772,359.82991 125.62514,353.23763 111.40971,340.05305 C 97.194233,326.86851 90.086507,309.75028 90.086515,288.69832 L 90.086515,288.69832 z M 124.10597,288.37278 C 124.10593,299.22434 127.93108,308.20395 135.58143,315.31163 C 143.23168,322.4194 152.15703,325.97326 162.35751,325.97323 C 172.44931,325.97326 181.37466,322.4194 189.13359,315.31163 C 196.89229,308.20395 200.7717,299.22434 200.77182,288.37278 C 200.7717,277.52136 196.89229,268.51462 189.13359,261.35254 C 181.37466,254.19066 172.44931,250.60967 162.35751,250.60956 C 152.15703,250.60967 143.23168,254.19066 135.58143,261.35254 C 127.93108,268.51462 124.10593,277.52136 124.10597,288.37278 L 124.10597,288.37278 z M 355.89402,289.67496 L 355.89402,188.91878 C 355.89391,177.52488 352.82836,168.62666 346.69738,162.22409 C 340.56618,155.8219 332.50895,152.62071 322.52566,152.62051 C 312.43369,152.62071 304.34933,155.8219 298.27256,162.22409 C 292.19567,168.62666 289.15725,177.52488 289.1573,188.91878 L 289.1573,289.67496 C 289.15725,301.17761 292.19567,310.10296 298.27256,316.45104 C 304.34933,322.7992 312.43369,325.97326 322.52566,325.97323 C 332.50895,325.97326 340.56618,322.7992 346.69738,316.45104 C 352.82836,310.10296 355.89391,301.17761 355.89402,289.67496 L 355.89402,289.67496 z M 255.13784,291.62823 L 255.13784,186.96551 C 255.13783,165.15418 261.97427,148.30725 275.64718,136.42464 C 289.32002,124.54248 304.94617,118.60129 322.52566,118.60106 C 339.99648,118.60129 355.59549,124.54248 369.32276,136.42464 C 383.04976,148.30725 389.91333,165.15418 389.91348,186.96551 L 389.91348,291.62823 C 389.91333,313.43979 383.04976,330.2596 369.32276,342.08771 C 355.59549,353.91585 339.99648,359.82991 322.52566,359.82991 C 304.94617,359.82991 289.32002,353.91585 275.64718,342.08771 C 261.97427,330.2596 255.13783,313.43979 255.13784,291.62823 L 255.13784,291.62823 z "
     style="font-size:333.35809326px;font-style:normal;font-variant:normal;font-weight:normal;font-stretch:normal;text-align:center;line-height:100%;writing-mode:lr-tb;text-anchor:middle;fill:white;fill-opacity:1;stroke:none;stroke-width:1px;stroke-linecap:butt;stroke-linejoin:miter;stroke-opacity:1;font-family:DIN 1451 Mittelschrift"
     id="text2891" />
</svg>
