<?xml version="1.0" encoding="UTF-8" standalone="no"?>
<!-- Created with Inkscape (http://www.inkscape.org/) -->

<svg
   xmlns:dc="http://purl.org/dc/elements/1.1/"
   xmlns:cc="http://creativecommons.org/ns#"
   xmlns:rdf="http://www.w3.org/1999/02/22-rdf-syntax-ns#"
   xmlns:svg="http://www.w3.org/2000/svg"
   xmlns="http://www.w3.org/2000/svg"
   xmlns:sodipodi="http://sodipodi.sourceforge.net/DTD/sodipodi-0.dtd"
   xmlns:inkscape="http://www.inkscape.org/namespaces/inkscape"
   version="1.0"
   width="490"
   height="360"
   id="svg2"
   sodipodi:version="0.32"
   inkscape:version="0.48.1 r9760"
   sodipodi:docname="DE_1026-34.svg">
  <metadata
     id="metadata10">
    <rdf:RDF>
      <cc:Work
         rdf:about="">
        <dc:format>image/svg+xml</dc:format>
        <dc:type
           rdf:resource="http://purl.org/dc/dcmitype/StillImage" />
        <dc:title></dc:title>
      </cc:Work>
    </rdf:RDF>
  </metadata>
  <sodipodi:namedview
     inkscape:window-height="973"
     inkscape:window-width="1400"
     inkscape:pageshadow="2"
     inkscape:pageopacity="0.0"
     guidetolerance="10.0"
     gridtolerance="10.0"
     objecttolerance="10.0"
     borderopacity="1.0"
     bordercolor="#666666"
     pagecolor="#ffffff"
     id="base"
     inkscape:zoom="0.74246212"
     inkscape:cx="245"
     inkscape:cy="73.530541"
     inkscape:window-x="0"
     inkscape:window-y="24"
     inkscape:current-layer="svg2"
     showguides="true"
     inkscape:guide-bbox="true"
     showgrid="false"
     inkscape:window-maximized="1" />
  <defs
     id="defs4" />
  <path
     d="M 38.78125,4.6190618 C 20.35689,4.6190483 9.96875,14.244672 9.96875,42.683954 L 9.65625,317.31604 C 9.65625,345.75531 20.04439,355.38094 38.46875,355.38094 L 451.21875,355.33878 C 469.64311,355.33878 480.03124,345.71316 480.03125,317.27389 L 480.34375,42.726108 C 480.34375,14.286826 469.95561,4.6612021 451.53125,4.6612156 L 38.78125,4.6190618 z "
     style="fill:white;fill-opacity:1;fill-rule:evenodd;stroke:black;stroke-width:3;stroke-linecap:butt;stroke-linejoin:miter;stroke-miterlimit:4;stroke-dasharray:none;stroke-opacity:1"
     id="path1881" />
  <path
     d="M 453.23342,19.074797 L 36.79782,19.117707 C 28.375505,19.117707 23.425891,27.356247 23.425891,39.539027 L 23.425891,320.50387 C 23.425891,332.68661 28.375515,340.9252 36.79782,340.9252 L 453.20218,340.88229 C 461.62449,340.88228 466.57411,332.64373 466.57411,320.46097 L 466.57411,39.496127 C 466.57411,27.313347 461.65573,19.074797 453.23342,19.074797 z "
     style="fill:none;fill-opacity:1;fill-rule:evenodd;stroke:black;stroke-width:12;stroke-linecap:butt;stroke-linejoin:miter;stroke-miterlimit:4;stroke-dasharray:none;stroke-opacity:1"
     id="path3976" />
  <path
     inkscape:connector-curvature="0"
     style="font-size:91.01569366px;font-style:normal;font-variant:normal;font-weight:normal;font-stretch:normal;text-align:center;line-height:100%;writing-mode:lr-tb;text-anchor:middle;fill:#000000;fill-opacity:1;stroke:none;font-family:DIN 1451 Mittelschrift"
     d="m 190.22615,304.89475 0,-39.01943 -4.66633,0 0,-7.1106 4.66633,0 0,-6.08845 c 0,-4.29593 1.18509,-7.45867 3.5553,-9.48821 2.37019,-2.02942 5.36257,-3.04416 8.97714,-3.04423 l 5.99957,0 0,8.71049 -5.24407,0 c -2.69612,6e-5 -4.04417,1.27404 -4.04415,3.82195 l 0,6.08845 9.28822,0 0,7.1106 -9.28822,0 0,39.01943 -9.24379,0 z m 23.77608,0 0,-46.13003 9.28822,0 0,4.93298 0.17776,0 c 2.87385,-3.64414 6.87356,-5.46623 11.99914,-5.46627 3.37751,4e-5 6.59209,1.18514 9.64375,3.5553 l -6.71062,7.99942 c -2.0147,-1.51096 -4.059,-2.26646 -6.1329,-2.2665 -2.28134,4e-5 -4.34785,0.76294 -6.19955,2.28872 -1.85174,1.52585 -2.7776,3.97753 -2.77758,7.35503 l 0,27.73135 -9.28822,0 z m 71.10601,-19.55416 -28.70906,0 c -10e-6,3.79234 1.02955,6.63658 3.08867,8.53272 2.0591,1.89617 4.68853,2.84425 7.88832,2.84424 3.82193,10e-6 7.19946,-1.48136 10.13261,-4.44412 l 6.71063,5.73292 c -2.28135,2.66648 -4.85154,4.57005 -7.71056,5.7107 -2.85908,1.14066 -5.84405,1.71099 -8.95491,1.71099 -4.74042,0 -9.33268,-1.53322 -13.77679,-4.59967 -4.44413,-3.06644 -6.66619,-9.34006 -6.66619,-18.82087 0,-8.9771 2.0517,-15.18406 6.15512,-18.62089 4.10339,-3.43674 8.39197,-5.15514 12.86574,-5.15518 5.06628,4e-5 9.49558,1.75547 13.28793,5.26629 3.79229,3.51089 5.68845,8.24388 5.68849,14.19898 l 0,7.64389 z m -28.70906,-7.64389 19.46528,0 c -0.14817,-3.46639 -1.12588,-6.11805 -2.93313,-7.95499 -1.8073,-1.83687 -4.07381,-2.75532 -6.79951,-2.75536 -2.75538,4e-5 -5.0441,0.91849 -6.86617,2.75536 -1.82211,1.83694 -2.7776,4.4886 -2.86647,7.95499 l 0,0 z m 38.75278,27.19805 0,-46.13003 9.28822,0 0,46.13003 -9.28822,0 z m 0,-55.46269 0,-9.28823 9.28822,0 0,9.28823 -9.28822,0 z"
     id="text4949" />
  <path
     inkscape:connector-curvature="0"
     style="font-size:91.01599884px;font-style:normal;font-variant:normal;font-weight:normal;font-stretch:normal;text-align:center;line-height:100%;writing-mode:lr-tb;text-anchor:middle;fill:#000000;fill-opacity:1;stroke:none;font-family:DIN 1451 Mittelschrift"
     d="m 61.67922,210.36432 0,-39.01955 -4.66635,0 0,-7.11063 4.66635,0 0,-6.08847 c -1e-5,-4.29595 1.1851,-7.45869 3.55531,-9.48824 2.3702,-2.02943 5.36258,-3.04417 8.97717,-3.04424 l 5.99959,0 0,8.71052 -5.24409,0 c -2.69613,5e-5 -4.04418,1.27404 -4.04417,3.82196 l 0,6.08847 9.28826,0 0,7.11063 -9.28826,0 0,39.01955 -9.24381,0 z m 47.99672,0 0,-4.08861 -0.22221,0 c -1.86657,3.08127 -5.65889,4.62191 -11.377,4.62191 -5.15521,0 -9.15494,-1.34065 -11.99918,-4.02195 -2.84425,-2.68129 -4.26637,-6.03662 -4.26637,-10.06598 0,-3.64418 1.25917,-6.82914 3.77752,-9.5549 2.51833,-2.72571 6.26622,-4.08858 11.24367,-4.08861 l 12.84357,0 0,-4.79967 c -3e-5,-3.94044 -3.15537,-5.91067 -9.46602,-5.91071 -4.3849,4e-5 -7.30322,1.17033 -8.75496,3.51087 l -7.28839,-5.51073 c 3.2294,-4.50335 8.41423,-6.75505 15.55449,-6.7551 5.68848,5e-5 10.31038,1.11108 13.86572,3.33311 3.55528,2.22211 5.33293,6.17739 5.33297,11.86585 l 0,31.46452 -9.24381,0 z m 0,-16.17667 0,-3.37755 -11.11035,0 c -5.36261,2e-5 -8.04391,1.85174 -8.0439,5.55518 -1e-5,1.57027 0.67402,2.93314 2.02209,4.08861 1.34804,1.15548 3.59233,1.73322 6.73287,1.73321 3.85156,1e-5 6.54767,-0.42959 8.08834,-1.2888 1.5406,-0.85919 2.31092,-3.09607 2.31095,-6.71065 l 0,0 z m 21.28743,16.17667 0,-64.75113 9.28826,0 0,23.55395 0.17776,0 c 2.87386,-3.64415 6.87358,-5.46625 11.99918,-5.4663 3.58491,5e-5 7.04393,1.36292 10.37707,4.08861 3.33306,2.72578 4.99962,6.69588 4.99966,11.9103 l 0,30.66457 -9.28826,0 0,-27.46479 c -3e-5,-3.11087 -0.86664,-5.54033 -2.59982,-7.28839 -1.73324,-1.74799 -3.88865,-2.622 -6.46622,-2.62204 -2.66651,4e-5 -4.86636,0.87405 -6.59955,2.62204 -1.73323,1.74806 -2.59984,4.17752 -2.59982,7.28839 l 0,27.46479 -9.28826,0 z m 48.88555,0 0,-46.13018 9.28825,0 0,4.933 0.17777,0 c 2.87386,-3.64415 6.87358,-5.46625 11.99918,-5.4663 3.37751,5e-5 6.5921,1.18515 9.64378,3.55532 l -6.71065,7.99945 c -2.01471,-1.51097 -4.05901,-2.26647 -6.13292,-2.26651 -2.28134,4e-5 -4.34787,0.76295 -6.19957,2.28873 -1.85174,1.52586 -2.77761,3.97754 -2.77759,7.35505 l 0,27.73144 -9.28825,0 z m 32.35335,0 0,-7.33283 23.10953,-30.57569 -21.82073,0 0,-8.22166 33.10885,0 0,7.37727 -23.10954,30.04239 23.10954,0 0,8.71052 -34.39765,0 z m 79.10569,-19.55422 -28.70915,0 c -2e-5,3.79235 1.02954,6.6366 3.08868,8.53275 2.0591,1.89618 4.68854,2.84426 7.88835,2.84425 3.82193,1e-5 7.19947,-1.48137 10.13264,-4.44414 l 6.71065,5.73294 c -2.28137,2.66649 -4.85156,4.57006 -7.71059,5.71072 -2.85909,1.14067 -5.84407,1.711 -8.95494,1.711 -4.74044,0 -9.33271,-1.53323 -13.77684,-4.59969 -4.44414,-3.06645 -6.66621,-9.34009 -6.66621,-18.82093 0,-8.97714 2.05171,-15.18411 6.15514,-18.62095 4.10341,-3.43676 8.392,-5.15516 12.86578,-5.15521 5.0663,5e-5 9.49562,1.75548 13.28799,5.26631 3.79229,3.51091 5.68845,8.24391 5.6885,14.19903 l 0,7.64392 z m -28.70915,-7.64392 19.46533,0 c -0.14817,-3.4664 -1.12588,-6.11807 -2.93313,-7.95501 -1.80731,-1.83688 -4.07382,-2.75533 -6.79954,-2.75537 -2.75538,4e-5 -5.04411,0.91849 -6.86619,2.75537 -1.82211,1.83694 -2.7776,4.48861 -2.86647,7.95501 l 0,0 z m 38.48627,11.73253 0,-30.66457 9.28825,0 0,27.50923 c -1e-5,3.14054 0.86659,5.57741 2.59982,7.31061 1.7332,1.73323 3.93305,2.59983 6.59955,2.59982 2.57758,1e-5 4.73298,-0.86659 6.46623,-2.59982 1.73318,-1.7332 2.59978,-4.17007 2.59982,-7.31061 l 0,-27.50923 9.28825,0 0,46.13018 -9.28825,0 0,-4.88855 -0.17777,0 c -2.87391,3.61456 -6.844,5.42185 -11.91029,5.42185 -3.64422,0 -7.13286,-1.35547 -10.46596,-4.06639 -3.33311,-2.71092 -4.99966,-6.68842 -4.99965,-11.93252 l 0,0 z m 74.79488,15.42117 0,-4.75523 c -3.22944,3.55531 -7.19953,5.33297 -11.9103,5.33297 -3.02203,0 -5.54778,-0.59996 -7.57726,-1.79988 -2.0295,-1.19992 -3.56272,-2.46649 -4.59968,-3.79974 -1.33325,-1.71839 -2.2443,-3.54049 -2.73315,-5.46629 -0.48886,-1.92579 -0.73329,-6.08846 -0.73328,-12.48804 -10e-6,-6.39953 0.24442,-10.56221 0.73328,-12.48803 0.48885,-1.92576 1.3999,-3.76267 2.73315,-5.51074 1.03696,-1.30357 2.57018,-2.57015 4.59968,-3.79974 2.02948,-1.2295 4.55523,-1.84427 7.57726,-1.84432 4.50337,5e-5 8.47347,1.82215 11.9103,5.4663 l 0,-4.933 9.28825,0 0,45.06359 c -4e-5,6.93285 -2.02212,12.04361 -6.06625,15.33228 -4.0442,3.28865 -8.68832,4.93298 -13.93238,4.933 -2.96278,-2e-5 -5.86628,-0.71108 -8.71051,-2.13319 -2.84426,-1.42214 -5.28854,-3.28868 -7.33284,-5.59962 l 7.19951,-5.73294 c 1.12584,1.12584 2.46648,2.10355 4.02195,2.93313 1.55543,0.82957 3.22198,1.24435 4.99966,1.24436 3.08124,-1e-5 5.60699,-0.85921 7.57726,-2.5776 1.9702,-1.7184 2.95532,-4.17749 2.95535,-7.37727 l 0,0 z m -18.26542,-22.97621 c -10e-6,3.70347 0.0963,6.16256 0.28887,7.37728 0.19257,1.21474 0.70364,2.34059 1.53323,3.37754 0.62216,0.82959 1.54062,1.62953 2.75537,2.39984 1.21471,0.77032 2.75534,1.15548 4.6219,1.15547 1.80726,1e-5 3.31086,-0.38515 4.51081,-1.15547 1.19988,-0.77031 2.12575,-1.57025 2.77758,-2.39984 0.79992,-1.03695 1.29618,-2.1628 1.48879,-3.37754 0.19255,-1.21472 0.28884,-3.67381 0.28887,-7.37728 -3e-5,-3.70342 -0.0963,-6.16251 -0.28887,-7.37727 -0.19261,-1.2147 -0.68887,-2.35536 -1.48879,-3.42199 -0.65183,-0.79991 -1.5777,-1.59245 -2.77758,-2.37762 -1.19995,-0.78509 -2.70355,-1.17765 -4.51081,-1.17769 -1.86656,4e-5 -3.40719,0.3926 -4.6219,1.17769 -1.21475,0.78517 -2.13321,1.57771 -2.75537,2.37762 -0.82959,1.06663 -1.34066,2.20729 -1.53323,3.42199 -0.19259,1.21476 -0.28888,3.67385 -0.28887,7.37727 l 0,0 z m 75.37261,3.46643 -28.70914,0 c -2e-5,3.79235 1.02954,6.6366 3.08867,8.53275 2.0591,1.89618 4.68855,2.84426 7.88835,2.84425 3.82194,1e-5 7.19948,-1.48137 10.13264,-4.44414 l 6.71066,5.73294 c -2.28137,2.66649 -4.85156,4.57006 -7.71059,5.71072 -2.85909,1.14067 -5.84407,1.711 -8.95494,1.711 -4.74044,0 -9.33271,-1.53323 -13.77684,-4.59969 -4.44414,-3.06645 -6.66621,-9.34009 -6.66621,-18.82093 0,-8.97714 2.05171,-15.18411 6.15514,-18.62095 4.10341,-3.43676 8.392,-5.15516 12.86578,-5.15521 5.0663,5e-5 9.49562,1.75548 13.28798,5.26631 3.7923,3.51091 5.68846,8.24391 5.6885,14.19903 l 0,7.64392 z m -28.70914,-7.64392 19.46533,0 c -0.14817,-3.4664 -1.12588,-6.11807 -2.93313,-7.95501 -1.80731,-1.83688 -4.07382,-2.75533 -6.79954,-2.75537 -2.75538,4e-5 -5.04411,0.91849 -6.86619,2.75537 -1.82211,1.83694 -2.7776,4.48861 -2.86647,7.95501 l 0,0 z"
     id="text1969" />
  <g
     style="font-size:90px;font-style:normal;font-variant:normal;font-weight:normal;font-stretch:normal;text-align:start;line-height:125%;letter-spacing:0px;word-spacing:0px;writing-mode:lr-tb;text-anchor:start;fill:#000000;fill-opacity:1;stroke:none;font-family:FreeSans;-inkscape-font-specification:FreeSans"
     id="text3010">
    <path
       d="m 154.20762,97.307133 0,22.949997 -8.37,0 0,-65.609997 8.37,0 0,33.21 32.67,-33.21 10.8,0 -26.73,26.73 27,38.879997 -9.9,0 -23.13,-33.659997 -10.71,10.71"
       style="line-height:125%;font-family:FreeSans;-inkscape-font-specification:FreeSans"
       id="path3023" />
    <path
       d="m 224.21918,79.667133 c -5.04003,0.120041 -8.82002,1.29004 -11.34,3.51 -2.52002,2.220035 -3.78002,6.420031 -3.78,12.6 l 0,24.479997 -7.56,0 0,-47.159997 6.93,0 0,8.55 c 2.15998,-3.539957 4.22998,-6.059955 6.21,-7.56 2.03998,-1.559952 4.25997,-2.339951 6.66,-2.34 0.65997,4.9e-5 1.61997,0.09005 2.88,0.27 l 0,7.65"
       style="line-height:125%;font-family:FreeSans;-inkscape-font-specification:FreeSans"
       id="path3025" />
    <path
       d="m 229.47996,87.047133 c 0.35999,-10.199956 6.65999,-15.299951 18.9,-15.3 5.81997,4.9e-5 10.22996,1.110048 13.23,3.33 2.99996,2.160044 4.49996,5.34004 4.5,9.54 l 0,27.719997 c -4e-5,2.46001 1.34996,3.69001 4.05,3.69 0.53995,1e-5 1.07995,-0.06 1.62,-0.18 l 0,5.67 c -2.10005,0.54 -3.81005,0.81 -5.13,0.81 -2.40004,0 -4.23004,-0.57 -5.49,-1.71 -1.20004,-1.08 -1.95004,-2.81999 -2.25,-5.22 -5.04003,4.62 -10.38003,6.93 -16.02,6.93 -4.74002,0 -8.52001,-1.26 -11.34,-3.78 -2.76001,-2.51999 -4.14,-5.90999 -4.14,-10.17 0,-1.37998 0.12,-2.63998 0.36,-3.78 0.29999,-1.13998 0.59999,-2.12998 0.9,-2.97 0.35999,-0.89998 0.95999,-1.709976 1.8,-2.429997 0.83999,-0.779978 1.52999,-1.409977 2.07,-1.89 0.59999,-0.479976 1.55999,-0.929976 2.88,-1.35 1.37999,-0.479975 2.42998,-0.809974 3.15,-0.99 0.71998,-0.239974 1.97998,-0.509974 3.78,-0.81 1.79998,-0.299973 3.11998,-0.509973 3.96,-0.63 0.83998,-0.119973 2.33997,-0.329972 4.5,-0.63 2.93997,-0.359972 4.97997,-0.929971 6.12,-1.71 1.13996,-0.77997 1.70996,-1.949968 1.71,-3.51 l 0,-1.98 c -4e-5,-2.279963 -0.93003,-4.019961 -2.79,-5.22 -1.80003,-1.199959 -4.38003,-1.799958 -7.74,-1.8 -3.48002,4.2e-5 -6.12002,0.690041 -7.92,2.07 -1.80002,1.320039 -2.85001,3.420037 -3.15,6.3 l -7.56,0 m 15.03,28.709997 c 4.13997,1e-5 7.52997,-1.07999 10.17,-3.24 2.63997,-2.21999 3.95996,-4.58998 3.96,-7.11 l 0,-8.459997 c -1.50003,0.720023 -3.78003,1.320022 -6.84,1.8 -3.00003,0.480022 -5.61002,0.900021 -7.83,1.259997 -2.22002,0.36002 -4.23002,1.23002 -6.03,2.61 -1.80001,1.32002 -2.70001,3.18002 -2.7,5.58 -1e-5,2.40001 0.80999,4.26001 2.43,5.58 1.61998,1.32001 3.89998,1.98001 6.84,1.98"
       style="line-height:125%;font-family:FreeSans;-inkscape-font-specification:FreeSans"
       id="path3027" />
    <path
       d="m 296.06871,73.097133 0,6.12 -7.83,0 0,41.039997 -7.47,0 0,-41.039997 -6.3,0 0,-6.12 6.3,0 0,-8.01 c -10e-6,-3.359941 0.95999,-5.969938 2.88,-7.83 1.97999,-1.919935 4.70998,-2.879934 8.19,-2.88 1.37998,6.6e-5 2.78998,0.150066 4.23,0.45 l 0,6.21 c -1.14002,-0.05994 -2.01002,-0.08994 -2.61,-0.09 -3.48002,6e-5 -5.22002,1.590058 -5.22,4.77 l 0,7.38 7.83,0"
       style="line-height:125%;font-family:FreeSans;-inkscape-font-specification:FreeSans"
       id="path3029" />
    <path
       d="m 320.66965,73.097133 0,6.12 -7.74,0 0,32.309997 c -2e-5,1.68001 0.26998,2.82001 0.81,3.42 0.59998,0.54001 1.70998,0.81001 3.33,0.81 1.49998,1e-5 2.69997,-0.11999 3.6,-0.36 l 0,6.3 c -2.34002,0.42 -4.38002,0.63 -6.12,0.63 -2.94002,0 -5.19001,-0.66 -6.75,-1.98 -1.56001,-1.26 -2.34001,-3.08999 -2.34,-5.49 l 0,-35.639997 -6.39,0 0,-6.12 6.39,0 0,-12.96 7.47,0 0,12.96 7.74,0"
       style="line-height:125%;font-family:FreeSans;-inkscape-font-specification:FreeSans"
       id="path3031" />
    <path
       d="m 348.33058,92.177133 0,6.48 -21.42,0 0,-6.48 21.42,0"
       style="line-height:125%;font-family:FreeSans;-inkscape-font-specification:FreeSans"
       id="path3033" />
  </g>
  <flowRoot
     xml:space="preserve"
     id="flowRoot3014"
     style="fill:black;stroke:none;stroke-opacity:1;stroke-width:1px;stroke-linejoin:miter;stroke-linecap:butt;fill-opacity:1;font-family:Sans;font-style:normal;font-weight:normal;font-size:40px;line-height:125%;letter-spacing:0px;word-spacing:0px"><flowRegion
       id="flowRegion3016"><rect
         id="rect3018"
         width="56.568542"
         height="70.037247"
         x="-387.89859"
         y="-101.97643" /></flowRegion><flowPara
       id="flowPara3020"></flowPara></flowRoot></svg>
