<svg height="24" width="24" xmlns="http://www.w3.org/2000/svg" xmlns:xlink="http://www.w3.org/1999/xlink"><radialGradient id="a" cx="24.837126" cy="36.421127" gradientTransform="matrix(1 0 0 .536723 0 16.87306)" gradientUnits="userSpaceOnUse" r="15.644737"><stop offset="0"/><stop offset="1" stop-opacity="0"/></radialGradient><linearGradient id="b" gradientUnits="userSpaceOnUse" x1="25.445534" x2="25.445534" y1="20.6875" y2="16.375"><stop offset="0" stop-color="#edd400"/><stop offset="1" stop-color="#fce94f"/></linearGradient><linearGradient id="c" gradientUnits="userSpaceOnUse" x1="21.67729" x2="18.072493" xlink:href="#d" y1="29.705048" y2="55.692348"/><linearGradient id="d"><stop offset="0" stop-color="#fff"/><stop offset="1" stop-color="#fff" stop-opacity="0"/></linearGradient><linearGradient id="e" gradientTransform="matrix(-1.430635 0 0 1.430157 50.64595 2.354766)" gradientUnits="userSpaceOnUse" x1="15.456784" x2="25.561066" xlink:href="#d" y1="8.734375" y2="13.526372"/><path d="m546.96875 490.34375c-.23806.0151-.48339.0251-.71875.0625a4.5838972 4.5838972 0 0 0 -.0312 0c-.0317.005-.11088.0312-.125.0312-.0108.00003-.0855.0319-.0937.0312-21.96366 3.68725-60.08126 9.62515-83.4375 18-2.43418.88927-4.2668 2.9793-4.8125 5.53125-.10696.50016-.0565.7502-.0625 1.125h-.0312c-.0108.072.009.14644 0 .21875.003.24894-.0434.65366-.0312.8125h.0937c-.0183 1.83625.48802 3.71599 1.78125 5.15625 6.81992 7.63965 11.25702 17.37965 13.71875 26.4375 2.45539 9.03454 2.80069 17.72005 2.25 21.375-.5054 3.35438-3.58641 11.3469-5.34375 18.75-.86868 3.65948-1.59862 7.65653-.71875 11.90625 1.01022 4.87929 4.80257 9.22277 10.3125 10.46875a4.5838972 4.5838972 0 0 0 .0937.0312c.11424.0228.22811.0137.34375.0312v.0312c21.83291 3.66822 26.6239 5.1335 48.5625 13a4.5838972 4.5838972 0 0 0 .0312 0c1.65543.58134 3.42716.45744 5-.0937l.0312.0625c.2487-.0747.34809-.12637.53125-.1875.25406-.0848.57988-.16689.75-.21875a4.5838972 4.5838972 0 0 0 .1875-.0625c21.16348-7.50797 42.39691-13.31897 63.375-16.84355a4.5838972 4.5838972 0 0 0 .15625-.0312c.17246-.0353.36217-.0779.53125-.125.0399-.0111.0853-.0195.125-.0312v-.0312c5.32424-1.47423 8.47849-6.01878 9.28125-10.59375.70608-4.02399.12263-7.82792-.625-11.4375-1.51601-7.31931-4.24541-15.20497-4.8125-18.96875-.54777-3.63558-.17657-12.33151 2.28125-21.375 2.46172-9.05784 6.89885-18.79788 13.71875-26.4375 1.22901-1.37466 1.77551-3.20261 1.78125-5.0625h.125c.0185-.21144-.0635-.44091-.0625-.65625-.009-.10683.0454-.20569.0312-.3125.17307 1.29873.1925 1.25512 0-.0937h-.0625c-.0259-.53834-.004-1.07327-.15625-1.625-.68218-2.47491-2.6082-4.46081-5.0625-5.21875-22.18929-6.82265-44.6866-10.65484-67.28125-13.5625-.001-.00018.001-.0311 0-.0312-.0409-.006-.084.006-.125 0-.48237-.067-.98206-.0891-1.46875-.0625a4.5838972 4.5838972 0 0 0 -.0312 0z" transform="matrix(.13029953 0 0 .13105457 -58.548126 -58.336584)"/><path d="m12.894304 6.3883119c-.01249.0007847-.02479.00211-.03709.00407-.03109.00512-.03725.00753-.01652.00407-.104921.017893-.198145.077084-.258618.1641728-.06046.0871-.08307.1947413-.06271.2986131.534472 2.7164778-.05564 5.3560911-.214215 6.8476011-.04856.456619-.197022 1.059336-.325435 1.675041-.12842.615708-.239388 1.243489-.17714 1.814289.01601.135868.101714.253745.226569.311254v.04914c.04365-.0014.09804-.0024.164784-.0083v-.0042c.01376.000714.02747.000714.04119 0 1.214317-.123774 2.367608-.940817 3.851726-2.383552 1.484109-1.442738 3.315507-3.543302 5.853802-6.3684364.09035-.099691.123311-.2383136.08745-.3676767-.035862-.1293645-.135618-.2316233-.264578-.2712135-2.88182-.8809165-5.819467-1.3818753-8.786884-1.7610468-.02725-.00422-.05486-.00557-.08239-.00407z" fill="#a55959"/><path d="m12.861345 6.3924071c-.0068.00119-.01376.00256-.0206.00407-2.9002408.4841951-7.9359857 1.2762755-10.9042965 2.3344125-.1277815.0464039-.2226037.1548483-.2510519.2871047-.0284368.1322534.0134806.2697677.1109946.3640711 2.8025554 2.7149216 4.741192 4.7832516 6.3028258 6.1677546 1.5616353 1.384505 2.796871 2.130977 4.135972 1.994487.105106-.01024.201709-.06202.26826-.14355.06654-.08154.09751-.186166.08602-.290553-.04315-.39564.04067-.973503.164767-1.568558.12412-.595049.279705-1.20639.337802-1.752852.146391-1.376798.779778-4.1646798.205979-7.0810407-.03959-.2028593-.230376-.3406342-.436668-.3153507z" fill="#aa6262"/><path d="m4.545047 5.091129h5.144502v5.029465h-5.144502z" fill="#fff" stroke="#df421e" stroke-width="1.5"/><path d="m2.0476729 8.7923412c-.1518108.008585-.2852427.1028838-.3432261.2426347-.0579806.1397389-.0302532.3001629.0713476.4126378.9808136 1.0922963 1.6006082 2.4529043 1.9444005 3.7104853.3437853 1.257579.403629 2.422363.3089572 3.047021-.091242.602068-.4971825 1.603947-.7126713 2.506417-.1077309.451234-.1765682.885615-.090632 1.298255.085935.412647.4171932.801092.8980515.909194.00823.0017.016432.0029.024719.0042 2.8910616.482901 3.6120838.699763 6.5088014 1.732377.115493.04032.243286.0252.346039-.04095 1.867459-1.200803 3.109542-1.915459 3.946472-2.551469.836935-.636008 1.293815-1.267731 1.384154-2.117348.05629-.529568-.185784-1.053729-.535538-1.638287-.3497517-.584544-.8350247-1.223095-1.3800287-1.879797-1.090018-1.313401-2.418979-2.697945-3.32855-3.747344-.065927-.076421-.158805-.124798-.259529-.135145-3.1076894-.300804-5.7678731-.7093437-8.6262167-1.7282821-.0499774-.0186008-.1032326-.0269598-.1565461-.024565z" fill="#c08a8a"/><path d="m21.644105 8.2230734c-.05386.0002078-.107149.011446-.15654.032758-2.701575 1.1727791-7.70298 2.1051133-10.731283 2.2852633-.179967.0119-.329082.143248-.362515.319444-.576099 2.91892.05538 5.707525.201856 7.085143.08656.814103.330842 1.803241.48198 2.596516.10082.529206.310189 2.121858-.42019 2.113257.177706.04689.294223-.01735.453146-.06553 2.817012-.993562 5.650313-1.76726 8.45732-2.236123.01107-.0021.02209-.0048.03295-.0083.446211-.117418.73286-.518291.803299-.917383.07044-.399093.01107-.82512-.08239-1.273685-.186909-.897134-.544423-1.897819-.638523-2.518706-.09468-.62466-.03071-1.789442.313084-3.047023.343788-1.257575.963588-2.6181871 1.9444-3.7104786.104155-.1158215.130038-.2801555.06591-.4218357-.06412-.1416524-.206236-.2341108-.362512-.233424z" fill="#c08a8a"/><path d="m10.179702 10.820213c-.103304 2.626417.142422 4.907255.193609 6.23519.04328 1.122294.237098 2.486802.346037 3.580383.05313.53342.132492 1.851703-.114017 2.517291l.530081-.05648c-.158925.06517-.275438.152122-.453146.08868.73038.0116.521015-2.1437.420191-2.859874-.151143-1.07354-.395418-2.412144-.481978-3.513872-.100693-1.281729-.431612-3.467713-.440786-5.991323z"/><path d="m1.915572 9.1197 2.6381692.6559668 2.3308099.4722972 3.2272749.419819 1.511181-.05247 2.817466-.39358 3.867607-.8658767 1.459958-.3935806.947692-.2623862 1.075758-.2623876" fill="none" stroke="#fff" stroke-linecap="round" stroke-width=".5"/><path d="m13.676021 2.111794h5.144502v5.029465h-5.144502z" fill="#fff" stroke="#df421e" stroke-width="1.5"/><g stroke-width="1.14512" transform="matrix(-.37697191 0 0 .37697191 21.878025 6.972497)"><ellipse cx="24.837126" cy="36.421127" fill="url(#a)" fill-rule="evenodd" opacity=".13" rx="15.644737" ry="8.396894" transform="matrix(1.47967 0 0 -.872353 -13.55145 72.5668)"/><path d="m17.424821 41.893434c-17.141077-9.451183-7.489217-29.484288 8.99755-29.326944v-8.0664906l16.077629 14.0581776-16.077629 14.743372v-8.729032c-10.234617-.415164-14.741673 7.26702-5.772326 13.363448 2.567094 1.744847.788778 6.170696-3.225224 3.957469z" display="block" fill="url(#b)" stroke="#c4a000" stroke-width="1.14512"/><path d="m27.4375 6.6875v5.875c-.0084.548754-.451246.991567-1 1-7.82984-.074725-13.982376 4.681426-16.15625 10.4375-2.1738738 5.756074-.5777597 12.491213 7.65625 17.03125.850178.468768 1.465824.515729 1.875.4375.409176-.07823.667607-.297065.84375-.59375.352286-.593371.30018-1.507389-.5625-2.09375-2.357244-1.602209-3.908933-3.351016-4.6875-5.15625s-.739824-3.672336.03125-5.25c1.542149-3.155327 5.65403-5.030625 11.03125-4.8125.536516.02478.961006.462968.96875 1v6.4375l13.5625-12.4375z" display="block" fill="none" opacity=".617978" stroke="url(#c)" stroke-width="1.14512"/><path d="m41.660227 18.605336c-18.550099-3.130008-28.895061 2.149501-32.795143 10.435734-.153765-12.642872 12.963407-16.319885 18.089849-15.932552l-.01563-7.5064859z" fill="url(#e)" fill-rule="evenodd" opacity=".45"/></g></svg>