<?xml version="1.0" encoding="UTF-8" standalone="no"?>
<!-- Created with Inkscape (http://www.inkscape.org/) -->

<svg
   width="16"
   height="16"
   viewBox="0 0 4.2333332 4.2333333"
   version="1.1"
   id="svg5"
   inkscape:version="1.2.2 (b0a8486541, 2022-12-01)"
   sodipodi:docname="autocentermenu.svg"
   xml:space="preserve"
   inkscape:export-filename="autocentermenu_neu4.png"
   inkscape:export-xdpi="96"
   inkscape:export-ydpi="96"
   xmlns:inkscape="http://www.inkscape.org/namespaces/inkscape"
   xmlns:sodipodi="http://sodipodi.sourceforge.net/DTD/sodipodi-0.dtd"
   xmlns="http://www.w3.org/2000/svg"
   xmlns:svg="http://www.w3.org/2000/svg"><sodipodi:namedview
     id="namedview7"
     pagecolor="#ffffff"
     bordercolor="#000000"
     borderopacity="0.25"
     inkscape:showpageshadow="2"
     inkscape:pageopacity="0.0"
     inkscape:pagecheckerboard="0"
     inkscape:deskcolor="#d1d1d1"
     inkscape:document-units="mm"
     showgrid="false"
     inkscape:zoom="13.455443"
     inkscape:cx="-0.92899208"
     inkscape:cy="1.1891099"
     inkscape:window-width="1920"
     inkscape:window-height="1127"
     inkscape:window-x="0"
     inkscape:window-y="0"
     inkscape:window-maximized="1"
     inkscape:current-layer="layer1"
     showguides="false"><inkscape:grid
       type="xygrid"
       id="grid537" /></sodipodi:namedview><defs
     id="defs2"><clipPath
       clipPathUnits="userSpaceOnUse"
       id="clipPath428"><g
         id="g432"
         style="stroke-width:0.999999"><rect
           style="fill:#ffffff;fill-opacity:0.444275;stroke:none;stroke-width:0.400003"
           id="rect430"
           width="4.2333331"
           height="4.2333341"
           x="1.11262e-07"
           y="-1.2715657e-07"
           ry="0"
           rx="0" /></g></clipPath><clipPath
       clipPathUnits="userSpaceOnUse"
       id="clipPath434"><g
         id="g438"
         style="stroke-width:0.999999"><rect
           style="fill:#ffffff;fill-opacity:0.444275;stroke:none;stroke-width:0.400003"
           id="rect436"
           width="4.2333331"
           height="4.2333341"
           x="1.11262e-07"
           y="-1.2715657e-07"
           ry="0"
           rx="0" /></g></clipPath><clipPath
       clipPathUnits="userSpaceOnUse"
       id="clipPath440"><g
         id="g444"
         style="stroke-width:0.999999"><rect
           style="fill:#ffffff;fill-opacity:0.444275;stroke:none;stroke-width:0.400003"
           id="rect442"
           width="4.2333331"
           height="4.2333341"
           x="1.11262e-07"
           y="-1.2715657e-07"
           ry="0"
           rx="0" /></g></clipPath><clipPath
       clipPathUnits="userSpaceOnUse"
       id="clipPath446"><g
         id="g450"
         style="stroke-width:0.999999"><rect
           style="fill:#ffffff;fill-opacity:0.444275;stroke:none;stroke-width:0.400003"
           id="rect448"
           width="4.2333331"
           height="4.2333341"
           x="1.11262e-07"
           y="-1.2715657e-07"
           ry="0"
           rx="0" /></g></clipPath><clipPath
       clipPathUnits="userSpaceOnUse"
       id="clipPath452"><g
         id="g456"
         style="stroke-width:0.999999"><rect
           style="fill:#ffffff;fill-opacity:0.444275;stroke:none;stroke-width:0.400003"
           id="rect454"
           width="4.2333331"
           height="4.2333341"
           x="1.11262e-07"
           y="-1.2715657e-07"
           ry="0"
           rx="0" /></g></clipPath><clipPath
       clipPathUnits="userSpaceOnUse"
       id="clipPath333"><g
         id="g339"
         transform="matrix(144.97481,0,0,144.97481,318.15847,-337.40237)"><g
           id="g337"
           style="stroke-width:0.00689774"><rect
             style="fill:#ffffff;fill-opacity:0.444275;stroke:none;stroke-width:0.00275912"
             id="rect335"
             width="4.2333331"
             height="4.2333341"
             x="1.11262e-07"
             y="-1.2715657e-07"
             ry="0"
             rx="0" /></g></g></clipPath></defs><g
     inkscape:label="Ebene 1"
     inkscape:groupmode="layer"
     id="layer1"><path
       style="fill:#000000;stroke-width:1.76118"
       d="M 3.8522794,2.2585672 H 0.6129081 Z"
       id="path352"
       clip-path="url(#clipPath452)" /><path
       style="fill:#000000;stroke-width:1.76118"
       d="M 0.48068886,1.4123641 H 3.6275068"
       id="path408"
       clip-path="url(#clipPath446)" /><path
       style="fill:#000000;stroke:#000000;stroke-width:0.4;stroke-dasharray:none;stroke-opacity:1"
       d="M 0.57686043,2.1166667 H 3.6564729"
       id="path966"
       clip-path="url(#clipPath440)" /><path
       style="fill:#000000;stroke:#000000;stroke-width:0.4;stroke-dasharray:none;stroke-opacity:1"
       d="M 2.1166667,3.6564747 V 0.57685867"
       id="path966-3"
       clip-path="url(#clipPath434)" /><circle
       style="fill:#ff0000;stroke:#ff0000;stroke-width:0.121893;stroke-dasharray:none;stroke-opacity:1"
       id="path2303"
       cx="2.1166666"
       cy="2.1166666"
       r="0.2245716"
       clip-path="url(#clipPath428)" /><path
       sodipodi:type="star"
       style="fill:#000000;stroke-width:0.188749"
       id="path533-7"
       inkscape:flatsided="false"
       sodipodi:sides="3"
       sodipodi:cx="-0.95244533"
       sodipodi:cy="-0.67435908"
       sodipodi:r1="0.59877396"
       sodipodi:r2="0.29938695"
       sodipodi:arg1="1.8411217"
       sodipodi:arg2="2.8883193"
       inkscape:rounded="0"
       inkscape:randomized="0"
       d="m -1.1123449,-0.09733017 -0.1299362,-0.50201026 -0.1299361,-0.50201027 0.49972168,0.13847719 0.49972169,0.13847708 -0.36978558,0.36353312 z"
       inkscape:transform-center-x="-0.060173181"
       inkscape:transform-center-y="0.38142814"
       transform="matrix(-0.94399942,-0.92907249,0.92907249,-0.94399942,1.8438665,1.9187697)" /><path
       sodipodi:type="star"
       style="fill:#000000;stroke-width:0.188803"
       id="path533-3"
       inkscape:flatsided="false"
       sodipodi:sides="3"
       sodipodi:cx="-0.95244533"
       sodipodi:cy="-0.67435908"
       sodipodi:r1="0.59877396"
       sodipodi:r2="0.29938695"
       sodipodi:arg1="1.8411217"
       sodipodi:arg2="2.8883193"
       inkscape:rounded="0"
       inkscape:randomized="0"
       d="m -1.1123449,-0.09733017 -0.1299362,-0.50201026 -0.1299361,-0.50201027 0.49972168,0.13847719 0.49972169,0.13847708 -0.36978558,0.36353312 z"
       inkscape:transform-center-x="0.38132093"
       inkscape:transform-center-y="0.06015624"
       transform="matrix(0.9288115,-0.94373423,0.94373423,0.9288115,2.3139135,1.8439431)" /><g
       id="g2494"
       style="fill:#808080;fill-opacity:1"
       transform="matrix(0.00689775,0,0,0.00689775,-2.1945776,2.3273172)"
       clip-path="url(#clipPath333)">
	<g
   id="g2492"
   style="fill:#808080;fill-opacity:1">
		<path
   id="path2488"
   style="fill:#b3b3b3;fill-opacity:1;stroke:#808080;stroke-width:13.0193;stroke-dasharray:none;stroke-opacity:1"
   d="m 311.98299,-14.018127 c -12.75297,0 -25.10465,10.2212155 -26.91164,22.6359591 l -2.2636,15.5936619 -1.69769,19.806464 -13.33007,5.093091 -14.96488,-12.701289 -12.76417,-9.368771 c -4.24847,-3.118794 -9.35836,-4.84158 -15.02777,-4.84158 h -2.57798 c -6.81837,0 -12.4118,3.105913 -17.22848,7.922585 l -62.06025,62.060257 c -4.24847,4.248477 -6.78933,9.925549 -7.35668,16.725449 -0.28452,1.13639 -0.31439,2.292 -0.31439,3.14387 0,5.38571 1.27578,10.52925 4.52719,14.9649 l 9.36877,12.76415 13.33006,15.02777 c -1.98239,3.68112 -3.67071,7.95107 -5.65898,13.33007 l -19.86935,1.69769 -15.59366,2.2636 c -12.13526,1.76502 -22.635964,14.16454 -22.635964,26.91164 v 87.52571 c 0,12.7471 10.420974,24.88336 22.635964,26.66013 l 15.59366,2.2636 19.86935,1.6977 c 2.26691,5.94719 4.24479,10.46278 5.65898,13.58157 l -13.33006,15.02776 -9.36877,12.76417 c -3.1188,4.24848 -4.52719,9.01999 -4.52719,14.39898 0,0.85272 0.0299,2.00748 0.31439,3.14388 0.56819,6.79992 2.81194,12.75249 7.35668,17.29137 l 62.06025,62.06025 c 4.6782,4.67734 10.41011,7.60819 17.22848,7.60819 h 2.57798 c 5.66941,0 10.77846,-1.66578 15.02777,-4.77869 l 12.76417,-9.36878 14.96488,-13.33007 c 5.1012,2.54389 9.64895,4.55918 13.33007,5.97338 l 1.69769,19.55496 2.2636,15.84517 c 1.73397,12.14282 14.1595,22.38445 26.91164,22.38445 h 87.58859 c 12.74711,0 24.86245,-10.24163 26.59726,-22.38445 l 2.26359,-15.84517 1.6977,-19.55496 c 4.53299,-1.69787 9.04858,-3.7073 13.58158,-5.97338 l 15.02775,13.33007 12.76418,9.36878 c 4.43647,3.25139 9.61575,4.52718 15.27927,4.52718 h 2.82949 c 6.82341,0 12.47111,-3.10821 16.72546,-7.35668 l 62.06025,-62.06025 c 4.81668,-4.81668 7.3874,-10.49145 7.67109,-17.29137 0.28451,-0.85188 0.2515,-1.41172 0.2515,-2.26359 0,-5.94719 -1.87778,-10.89064 -5.09309,-15.27927 l -9.36877,-12.76417 -12.7013,-15.02776 5.34461,-13.58157 19.55496,-1.6977 15.84516,-2.2636 c 12.41979,-1.77677 22.69884,-13.91303 22.69884,-26.66013 v -87.52571 c 0,-12.7471 -10.27821,-25.13487 -22.69884,-26.91164 l -15.84516,-2.2636 -19.55496,-1.69769 -5.34461,-13.33007 12.7013,-15.02777 9.36877,-12.76415 c 3.48724,-4.75038 5.09309,-9.89211 5.09309,-15.84518 0,-0.846 0.033,-1.41087 -0.2515,-2.26359 -0.28369,-6.7999 -3.12635,-12.185739 -7.67109,-16.725449 L 506.33786,30.121994 c -4.54475,-4.538868 -9.90205,-7.922585 -16.72546,-7.922585 h -2.51511 c -5.94803,0 -11.15718,1.58934 -15.59365,4.84158 L 458.73946,36.40976 443.71171,49.111049 430.13013,44.017958 428.43243,24.211494 426.16884,8.6178321 C 424.36185,-3.7969115 412.31785,-14.018127 399.57158,-14.018127 Z m 43.6371,169.140907 c 24.08505,0 44.77429,8.49387 62.06025,25.77984 17.28011,17.2801 25.77985,37.6667 25.77985,61.74587 0,24.36452 -8.49974,45.05796 -25.77985,62.06025 -17.28596,16.99559 -37.9752,25.46545 -62.06025,25.46545 -24.36369,0 -45.06467,-8.46986 -62.06025,-25.46545 -17.00145,-17.00229 -25.46546,-37.69657 -25.46546,-62.06025 0,-24.07917 8.53619,-44.67811 25.46546,-61.74587 17.06775,-17.21295 37.69656,-25.77984 62.06025,-25.77984 z" />
		
	</g>
</g><g
       id="g2496"
       style="fill:#808080;fill-opacity:1"
       transform="matrix(0.00689775,0,0,0.00689775,-2.1945776,2.3273172)">
</g><g
       id="g2498"
       style="fill:#808080;fill-opacity:1"
       transform="matrix(0.00689775,0,0,0.00689775,-2.1945776,2.3273172)">
</g><g
       id="g2500"
       style="fill:#808080;fill-opacity:1"
       transform="matrix(0.00689775,0,0,0.00689775,-2.1945776,2.3273172)">
</g><g
       id="g2502"
       style="fill:#808080;fill-opacity:1"
       transform="matrix(0.00689775,0,0,0.00689775,-2.1945776,2.3273172)">
</g><g
       id="g2504"
       style="fill:#808080;fill-opacity:1"
       transform="matrix(0.00689775,0,0,0.00689775,-2.1945776,2.3273172)">
</g><g
       id="g2506"
       style="fill:#808080;fill-opacity:1"
       transform="matrix(0.00689775,0,0,0.00689775,-2.1945776,2.3273172)">
</g><g
       id="g2508"
       style="fill:#808080;fill-opacity:1"
       transform="matrix(0.00689775,0,0,0.00689775,-2.1945776,2.3273172)">
</g><g
       id="g2510"
       style="fill:#808080;fill-opacity:1"
       transform="matrix(0.00689775,0,0,0.00689775,-2.1945776,2.3273172)">
</g><g
       id="g2512"
       style="fill:#808080;fill-opacity:1"
       transform="matrix(0.00689775,0,0,0.00689775,-2.1945776,2.3273172)">
</g><g
       id="g2514"
       style="fill:#808080;fill-opacity:1"
       transform="matrix(0.00689775,0,0,0.00689775,-2.1945776,2.3273172)">
</g><g
       id="g2516"
       style="fill:#808080;fill-opacity:1"
       transform="matrix(0.00689775,0,0,0.00689775,-2.1945776,2.3273172)">
</g><g
       id="g2518"
       style="fill:#808080;fill-opacity:1"
       transform="matrix(0.00689775,0,0,0.00689775,-2.1945776,2.3273172)">
</g><g
       id="g2520"
       style="fill:#808080;fill-opacity:1"
       transform="matrix(0.00689775,0,0,0.00689775,-2.1945776,2.3273172)">
</g><g
       id="g2522"
       style="fill:#808080;fill-opacity:1"
       transform="matrix(0.00689775,0,0,0.00689775,-2.1945776,2.3273172)">
</g><g
       id="g2524"
       style="fill:#808080;fill-opacity:1"
       transform="matrix(0.00689775,0,0,0.00689775,-2.1945776,2.3273172)">
</g><path
       sodipodi:type="star"
       style="fill:#000000;stroke-width:0.188803"
       id="path533"
       inkscape:flatsided="false"
       sodipodi:sides="3"
       sodipodi:cx="-0.95244533"
       sodipodi:cy="-0.67435908"
       sodipodi:r1="0.59877396"
       sodipodi:r2="0.29938695"
       sodipodi:arg1="1.8411217"
       sodipodi:arg2="2.8883193"
       inkscape:rounded="0"
       inkscape:randomized="0"
       d="m -1.1123449,-0.09733017 -0.1299362,-0.50201026 -0.1299361,-0.50201027 0.49972168,0.13847719 0.49972169,0.13847708 -0.36978558,0.36353312 z"
       inkscape:transform-center-x="0.060156252"
       inkscape:transform-center-y="-0.38132093"
       transform="matrix(0.94373423,0.9288115,-0.9288115,0.94373423,2.3893903,2.3139135)" /><path
       sodipodi:type="star"
       style="fill:#000000;stroke-width:0.188803"
       id="path533-6"
       inkscape:flatsided="false"
       sodipodi:sides="3"
       sodipodi:cx="-0.95244533"
       sodipodi:cy="-0.67435908"
       sodipodi:r1="0.59877396"
       sodipodi:r2="0.29938695"
       sodipodi:arg1="1.8411217"
       sodipodi:arg2="2.8883193"
       inkscape:rounded="0"
       inkscape:randomized="0"
       d="m -1.1123449,-0.09733017 -0.1299362,-0.50201026 -0.1299361,-0.50201027 0.49972168,0.13847719 0.49972169,0.13847708 -0.36978558,0.36353312 z"
       inkscape:transform-center-x="-0.38132102"
       inkscape:transform-center-y="0.060156241"
       transform="matrix(-0.9288115,-0.94373423,-0.94373423,0.9288115,1.9194199,1.8439431)" /></g></svg>
