<svg xmlns="http://www.w3.org/2000/svg" xmlns:xlink="http://www.w3.org/1999/xlink" width="48" height="48" viewBox="0 0 38.4 38.4" overflow="visible"><defs><linearGradient id="8" gradientUnits="userSpaceOnUse" y1="29.966" x2="0" y2="6.503"><stop stop-color="#f7f7f7"/><stop offset=".506" stop-color="#bdbdcf"/><stop offset="1" stop-color="#b1b1c5"/></linearGradient><linearGradient id="D" gradientUnits="userSpaceOnUse" x1="36.745" y1="22.539" x2="37.2" y2="22.864"><stop stop-color="#72c296"/><stop offset="1" stop-color="#009f81"/></linearGradient><linearGradient id="9" gradientUnits="userSpaceOnUse" y1="30.455" x2="0" y2="6.04"><stop stop-color="#f7f7f7"/><stop offset=".235" stop-color="#f3f3f4"/><stop offset=".477" stop-color="#e6e6eb"/><stop offset=".723" stop-color="#d2d2dc"/><stop offset=".97" stop-color="#b5b5c8"/><stop offset="1" stop-color="#b1b1c5"/></linearGradient><linearGradient id="B" gradientUnits="userSpaceOnUse" y1="38.14" x2="0" y2="16.264"><stop stop-color="#616161"/><stop offset=".523" stop-color="#555"/><stop offset="1" stop-color="#494949"/></linearGradient><linearGradient id="C" gradientUnits="userSpaceOnUse" x1="36.544" y1="22.13" x2="36.859" y2="22.446"><stop stop-color="#fff"/><stop offset="1" stop-color="#3c6"/></linearGradient><linearGradient id="A" gradientUnits="userSpaceOnUse" y1="37.2" x2="0" y2="28.716"><stop stop-color="#cecedb"/><stop offset=".185" stop-color="#e9e9ef"/><stop offset=".523" stop-color="#cecedb"/><stop offset="1" stop-color="#b1b1c5"/></linearGradient><linearGradient id="7" gradientUnits="userSpaceOnUse" x1="21.589" y1="36.26" x2="30.25" y2="44.924" xlink:href="#3"/><linearGradient id="0" gradientUnits="userSpaceOnUse" y1="20.559" x2="0" y2="27.983"><stop stop-color="#f7f7f7"/><stop offset=".043" stop-color="#e5f0f8"/><stop offset=".339" stop-color="#6bc2fc"/><stop offset=".542" stop-color="#1ea4fe"/><stop offset=".635" stop-color="#09f"/><stop offset="1" stop-color="#006dff"/></linearGradient><linearGradient id="1" gradientUnits="userSpaceOnUse" x1="16.4" y1="30.633" x2="33.432" y2="47.664"><stop stop-color="#fff"/><stop offset="1" stop-color="#cecedb"/></linearGradient><linearGradient id="6" gradientUnits="userSpaceOnUse" y1="30.369" x2="0" y2="34.52"><stop stop-color="#b2b2b2"/><stop offset="1" stop-color="#828282"/></linearGradient><linearGradient id="2" gradientUnits="userSpaceOnUse" x1="14.943" y1="6.831" x2="30.668" y2="22.556"><stop offset=".32" stop-color="#fff"/><stop offset=".624" stop-color="#e6eef6"/><stop offset=".938" stop-color="#cecedb"/></linearGradient><linearGradient id="4" gradientUnits="userSpaceOnUse" y1="29.323" x2="0" y2="17.461"><stop stop-color="#949494"/><stop offset="1" stop-color="#616161"/></linearGradient><linearGradient id="5" gradientUnits="userSpaceOnUse" y1="34.435" x2="0" y2="30.991"><stop stop-color="#666"/><stop offset="1" stop-color="#333"/></linearGradient><linearGradient id="3" gradientUnits="userSpaceOnUse" y1="8.41" x2="0" y2="20.727"><stop stop-color="#9a9ab1"/><stop offset="1" stop-color="#585868"/></linearGradient></defs><g transform="translate(-4.8-4.8)"><path d="m42.05 27.569c0-2.169-.249-6.06-1.913-7.72-.834-.833-2.95-1.434-6.446-1.839-.098-.527-.536-.928-1.07-.975-.125-.011-.254-.021-.381-.032v-9.975c0-.32-.261-.581-.581-.581h-14.842c-.32 0-.581.261-.581.581v9.983c-.124.011-.25.02-.373.031-.533.049-.972.45-1.069.975-3.513.407-5.633 1.01-6.458 1.832-1.661 1.661-1.909 5.588-1.909 7.782 0 3.676.669 8.253 1.909 9.493.512.513 2.27.85 4.625 1.07-1.115 2.822-1.166 3.02-1.166 3.208 0 .32.261.582.581.582h23.814c.32 0 .581-.261.581-.582 0-.192-.054-.389-1.206-3.23 2.296-.217 4.074-.548 4.573-1.048 1.318-1.318 1.912-6.382 1.912-9.554" opacity=".2"/><path d="m41.759 27.395c0-2.169-.248-6.06-1.913-7.719-.834-.833-2.95-1.434-6.446-1.839-.098-.527-.535-.928-1.069-.975-.125-.011-.254-.021-.382-.032v-9.975c0-.32-.26-.581-.581-.581h-14.841c-.32 0-.581.261-.581.581v9.983c-.124.011-.25.02-.373.031-.533.049-.972.45-1.069.975-3.513.407-5.633 1.01-6.458 1.832-1.661 1.661-1.909 5.588-1.909 7.782 0 3.677.669 8.254 1.909 9.494.512.512 2.27.85 4.625 1.07-1.114 2.823-1.166 3.02-1.166 3.209 0 .32.26.581.581.581h23.814c.32 0 .582-.26.582-.581 0-.192-.054-.39-1.207-3.23 2.296-.217 4.074-.549 4.573-1.048 1.318-1.32 1.911-6.382 1.911-9.556" opacity=".2"/><path d="m15.386 16.613c-.533.048-.972.449-1.07.975-3.513.407-5.632 1.01-6.458 1.832-1.661 1.661-1.909 5.588-1.909 7.782 0 3.677.669 8.253 1.909 9.494 1.206 1.206 9.322 1.451 15.918 1.446 5.396-.004 14.634-.197 15.882-1.446 1.318-1.319 1.913-6.383 1.913-9.555 0-2.169-.249-6.06-1.913-7.719-.834-.834-2.95-1.434-6.446-1.84-.098-.527-.536-.928-1.07-.975-5.074-.458-11.65-.455-16.757.007m-1.07.976c0 0 0 0 0 0" fill="url(#B)"/><path d="m8.442 36.401c1.63 1.63 29.05 1.583 30.633 0 1.583-1.583 2.793-13.314 0-16.11-2.793-2.794-27.886-2.747-30.633 0-2.746 2.746-1.629 14.478 0 16.11" fill="url(#A)"/><path d="m23.761 29.873c6.767 0 12.836-1.322 16.966-3.414-.094-2.747-.576-5.25-1.653-6.371-2.793-2.906-27.886-2.858-30.633 0-1.063 1.106-1.547 3.616-1.647 6.372 4.131 2.092 10.2 3.414 16.966 3.414" fill="url(#9)"/><path d="m23.761 29.407c6.767 0 12.836-1.27 16.966-3.281-.094-2.641-.576-5.05-1.653-6.123-2.793-2.794-27.886-2.747-30.633 0-1.063 1.063-1.547 3.474-1.647 6.124 4.131 2.01 10.2 3.28 16.966 3.28" fill="url(#8)"/><path opacity=".8" fill="#fff" d="m11.844 34.3h24.01v.598h-24.01z"/><path d="m15.06 32.1c-.296 0-.551.322-.582.612.001-.01.002-.021.002-.031 0-.011-.01-.018-.011-.029-.123.405-.759 2.02-1.521 3.938-1.569 3.955-1.634 4.174-1.634 4.387 0 .32.26.581.581.581h23.815c.319 0 .581-.26.581-.581 0-.216-.066-.434-1.67-4.37-.675-1.657-1.25-3.076-1.483-3.71-.052-.046-.088-.11-.097-.185-.031-.289-.287-.613-.582-.613h-17.398m-1.122.478c.026.11.1.205.217.226.133.024.252-.054.306-.173-.023-.122-.11-.225-.241-.239-.13-.014-.233.07-.282.186" fill="url(#7)"/><path d="m35.12 30.369v4.15c.293 0 .498 0 .593 0 .001-1.021-.593-4.15-.593-4.15m-23.304 4.15c.106 0 .308 0 .586 0v-4.15c0 0-.586 3.13-.586 4.15" opacity=".8" fill="url(#6)"/><path fill="url(#5)" d="m12.399 30.99h22.718v3.445h-22.718z"/><path d="m32.05 20.562c2.706 0 5.304.17 7.722.483-.198-.418-.43-.772-.701-1.042-2.793-2.794-27.886-2.747-30.633 0-1.063 1.063-1.547 3.474-1.647 6.124.765.372 1.596.719 2.485 1.037 2.538-3.792 11.77-6.602 22.774-6.602" opacity=".5" fill="#fff"/><circle r=".972" cy="22.18" cx="39.937" transform="matrix(.8 0 0 .8 4.8 4.8)" fill="#366"/><path d="m36.988 21.918c-.287.025-.71.318-.849.674-.137.356.082.595.37.57.288-.024.712-.318.849-.674.137-.356-.082-.595-.37-.571" fill="url(#D)"/><path d="m36.99 21.91c-.245.022-.61.272-.734.575-.023.057-.036.11-.039.158.171-.045.35-.108.517-.186.304-.142.499-.301.546-.425-.06-.087-.166-.134-.29-.122" fill="url(#C)"/><g fill="#fff"><path d="m40.726 26.09c-.013-.317-.029-.63-.052-.938.023.308.04.622.052.938"/><path d="m40.726 26.09c0 .01 0 .022 0 .032.001-.01 0-.022 0-.032"/><path d="m34.03 28.354c-.437-3.158-1.07-7.538-1.626-10.622-.03-.166-.166-.29-.333-.305-5.03-.453-11.55-.45-16.609.009-.166.015-.302.139-.333.304-.563 3.086-1.217 7.458-1.669 10.609 3.087.676 6.589 1.059 10.302 1.059 3.698 0 7.189-.381 10.268-1.054"/></g><path d="m15.494 17.803c-.584 3.178-1.27 7.78-1.677 10.586 3.02.599 6.389.934 9.943.934 3.542 0 6.898-.333 9.908-.926-.39-2.808-1.054-7.42-1.633-10.602-5.03-.45-11.512-.444-16.542.009" fill="url(#4)"/><path d="m16.339 6.02c-.321 0-.581.26-.581.581v18.1c0 .32.26.581.581.581h14.842c.32 0 .582-.26.582-.581v-18.1c0-.321-.261-.581-.582-.581h-14.842" fill="url(#3)"/><path d="m16.339 6.598c0 .325 0 17.777 0 18.1.323 0 14.519 0 14.842 0 0-.324 0-17.776 0-18.1-.322 0-14.518 0-14.842 0" fill="#fff"/><path d="m17.5 7.759c0 1.895 0 13.884 0 15.778 1.806 0 10.714 0 12.52 0 0-1.894 0-13.883 0-15.778-1.805 0-10.714 0-12.52 0" fill="url(#2)"/><path d="m15.06 32.676c0 .317-3.166 7.981-3.166 8.297.795 0 23.02 0 23.814 0 0-.317-3.251-7.981-3.251-8.297-.794 0-16.602 0-17.398 0" fill="#fff"/><path d="m15.897 33.838c-.235.627-.638 1.651-1.336 3.412-.322.813-.706 1.779-1.01 2.562 2.648 0 17.82 0 20.491 0-.312-.782-.703-1.742-1.033-2.551-.72-1.767-1.134-2.794-1.376-3.422-1.425-.001-14.301-.001-15.737-.001" fill="url(#1)"/><path d="m15.816 20.398c-.562 2.311-1.221 5.657-1.611 7.698 2.901.435 6.139.679 9.556.679 3.403 0 6.63-.242 9.522-.674-.376-2.042-1.015-5.394-1.57-7.708-4.834-.328-11.06-.323-15.897.006" fill="#0053bd"/><path d="m15.816 20.785c-.562 2.336-1.221 5.718-1.611 7.782 2.901.44 6.139.686 9.556.686 3.403 0 6.63-.245 9.522-.682-.376-2.064-1.015-5.454-1.57-7.793-4.834-.33-11.06-.326-15.897.006" fill="url(#0)"/><path d="m31.774 21.772c.054 0 .108.001.162.002-.076-.345-.15-.678-.223-.99-4.834-.337-11.06-.333-15.897.006-.535 2.266-1.158 5.495-1.554 7.611 2.595-3.867 9.455-6.629 17.511-6.629" opacity=".4" fill="#fff"/><path d="m32.844 34.497c-.234-1.071-.383-1.8-.383-1.921-.794 0-16.602 0-17.398 0 0 .121-.146.85-.373 1.921h18.15" opacity=".2"/></g></svg>