<?xml version="1.0" encoding="UTF-8" standalone="no"?>
<!-- Created with Inkscape (http://www.inkscape.org/) -->

<svg
   width="16"
   height="16"
   viewBox="0 0 16 16"
   version="1.1"
   id="svg1"
   xml:space="preserve"
   xmlns="http://www.w3.org/2000/svg"
   xmlns:svg="http://www.w3.org/2000/svg">
    <defs id="defs1" />
    <g id="layer1">
        <path id="path3"
              style="fill:#00ff00;stroke:none;stroke-width:0.909091px;stroke-linecap:butt;stroke-linejoin:miter;stroke-opacity:1;fill-opacity:1"
              d="M 6.6592585,0.60724432 V 13.941253 H 6.0566106 V 0.60724432 Z" />
        <path id="path1"
              style="fill:#000000;stroke:none;stroke-width:0.909091px;stroke-linecap:butt;stroke-linejoin:miter;stroke-opacity:1;fill-opacity:1"
              d="m 2.4254262,11.512785 -10e-8,-10.91013717 H 1.8129655 V 3.0333274 H 0.60766989 V 3.6309532 H 1.8129655 v 7.8818318 z" />
        <path id="path2"
              style="fill:#000000;stroke:none;stroke-width:0.909091px;stroke-linecap:butt;stroke-linejoin:miter;stroke-opacity:1;fill-opacity:1"
              d="M 10.909091 0.60724432 L 10.909091 11.519886 L 9.087358 11.519886 L 9.087358 12.120028 L 13.93821 12.120028 L 13.93821 11.519886 L 11.512784 11.519886 L 11.512784 7.2727273 L 13.330966 7.2727273 L 13.330966 6.665483 L 11.512784 6.665483 L 11.512784 0.60724432 L 10.909091 0.60724432 z " />
        <path id="path4"
            style="fill:#ff0000;stroke:none;stroke-width:0.909091px;stroke-linecap:butt;stroke-linejoin:miter;stroke-opacity:1;fill-opacity:1"
            d="m 2.4254262,5.4580966 h 4.2338324 v 0.6036931 l -4.2338324,10e-8 z"/>
        <path id="path5"
              style="fill:#ff0000;stroke:none;stroke-width:0.909091px;stroke-linecap:butt;stroke-linejoin:miter;stroke-opacity:1;fill-opacity:1"
              d="M 10.909091,3.6328125 H 6.0566106 V 3.0291194 h 4.8524804 z"/>
        <path id="path6"
              style="fill:#ff0000;stroke:none;stroke-width:0.909091px;stroke-linecap:butt;stroke-linejoin:miter;stroke-opacity:1;fill-opacity:1"
              d="M 2.4254262,9.0909091 H 10.909091 V 9.6981536 H 2.4254262 Z" />
    </g>
</svg>
