<svg xmlns="http://www.w3.org/2000/svg" viewBox="0 0 24 24"><g style="line-height:125%;font-variant-ligatures:normal;font-variant-caps:normal;font-variant-numeric:normal;font-variant-east-asian:normal"><path style="font-variant-ligatures:normal;font-variant-caps:normal;font-variant-numeric:normal;font-variant-east-asian:normal" d="M9.35 14.773v-1.12q0-1.275.521-2.148.52-.885 1.849-1.719 1.055-.664 1.51-1.198.47-.533.47-1.223 0-.547-.496-.86-.494-.325-1.289-.325-1.966 0-4.596 1.393L5.509 4.03q3.242-1.849 6.771-1.849 2.904 0 4.557 1.276 1.654 1.276 1.654 3.477 0 1.575-.742 2.734-.73 1.146-2.344 2.175-1.367.885-1.719 1.302-.338.403-.338.963v.664zm-.56 4.558q0-1.198.69-1.85.704-.65 2.058-.65 1.302 0 1.992.664.703.65.703 1.836 0 1.185-.73 1.836-.715.65-1.965.65-1.29 0-2.018-.637-.73-.651-.73-1.85z" aria-label="?" font-weight="800" font-size="26.667" font-family="Open Sans" letter-spacing="0" word-spacing="0" stroke="#ddd"/></g></svg>