<?xml version="1.0" encoding="UTF-8" standalone="no"?>
<!-- Created with Inkscape (http://www.inkscape.org/) -->
<svg
   xmlns:dc="http://purl.org/dc/elements/1.1/"
   xmlns:cc="http://creativecommons.org/ns#"
   xmlns:rdf="http://www.w3.org/1999/02/22-rdf-syntax-ns#"
   xmlns:svg="http://www.w3.org/2000/svg"
   xmlns="http://www.w3.org/2000/svg"
   xmlns:sodipodi="http://sodipodi.sourceforge.net/DTD/sodipodi-0.dtd"
   xmlns:inkscape="http://www.inkscape.org/namespaces/inkscape"
   height="141.81995"
   id="svg2071"
   inkscape:version="0.45+devel"
   sodipodi:docbase="D:\Daten\Liborius\Grafiken\Schlüssel"
   sodipodi:docname="keyring_as_.svg"
   sodipodi:version="0.32"
   width="182.26215"
   inkscape:output_extension="org.inkscape.output.svg.inkscape"
   version="1.0">
  <metadata
     id="metadata3">
    <rdf:RDF>
      <cc:Work
         rdf:about="">
        <dc:title>Keyring</dc:title>
        <dc:description />
        <dc:subject>
          <rdf:Bag>
            <rdf:li>keyring</rdf:li>
            <rdf:li>key</rdf:li>
          </rdf:Bag>
        </dc:subject>
        <dc:publisher>
          <cc:Agent
             rdf:about="http://www.openclipart.org">
            <dc:title>Open Clip Art Library</dc:title>
          </cc:Agent>
        </dc:publisher>
        <dc:creator>
          <cc:Agent>
            <dc:title>AS</dc:title>
          </cc:Agent>
        </dc:creator>
        <dc:rights>
          <cc:Agent>
            <dc:title>AS</dc:title>
          </cc:Agent>
        </dc:rights>
        <dc:date />
        <dc:format>image/svg+xml</dc:format>
        <dc:type
           rdf:resource="http://purl.org/dc/dcmitype/StillImage" />
        <cc:license
           rdf:resource="http://web.resource.org/cc/PublicDomain" />
        <dc:language>en</dc:language>
      </cc:Work>
      <cc:License
         rdf:about="http://web.resource.org/cc/PublicDomain">
        <cc:permits
           rdf:resource="http://web.resource.org/cc/Reproduction" />
        <cc:permits
           rdf:resource="http://web.resource.org/cc/Distribution" />
        <cc:permits
           rdf:resource="http://web.resource.org/cc/DerivativeWorks" />
      </cc:License>
    </rdf:RDF>
  </metadata>
  <defs
     id="defs3" />
  <sodipodi:namedview
     bordercolor="#666666"
     borderopacity="1.0"
     id="base"
     inkscape:current-layer="layer1"
     inkscape:cx="102.00000"
     inkscape:cy="76.999993"
     inkscape:document-units="px"
     inkscape:pageopacity="0.0"
     inkscape:pageshadow="2"
     inkscape:window-height="813"
     inkscape:window-width="1152"
     inkscape:window-x="-4"
     inkscape:window-y="-4"
     inkscape:zoom="3.1584158"
     pagecolor="#ffffff"
     showgrid="false" />
  <g
     id="layer1"
     inkscape:groupmode="layer"
     inkscape:label="Layer 1"
     transform="translate(-9.5832127,-5.0236325)">
    <path
       d="M 90.907019,146.5847 C 90.915549,146.44113 90.568529,145.51825 90.135849,144.53383 C 88.327166,140.41883 86.843936,136.19082 83.883076,126.70998 C 80.805766,116.8563 79.187946,112.35295 77.063716,107.7277 C 75.894706,105.18234 74.559816,102.66146 74.240756,102.39666 C 74.050066,102.23841 73.821686,102.25942 72.941396,102.51621 C 72.353996,102.68756 71.823216,102.79676 71.761906,102.75886 C 71.493886,102.59322 70.728986,101.03852 70.519156,100.23293 C 70.085016,98.56618 70.345886,96.60693 71.332696,94.122764 C 71.586976,93.482684 71.775146,92.859064 71.750866,92.736954 C 71.713976,92.551474 71.264906,92.510394 69.021956,92.487334 C 66.058196,92.456864 65.013386,92.289814 62.438526,91.434734 C 57.879326,89.920664 53.636026,86.844208 49.375636,81.963928 C 48.654266,81.137598 48.489546,81.018298 48.260286,81.156048 C 48.112336,81.244938 47.122656,82.385958 46.060986,83.691658 C 42.222026,88.412978 39.426456,90.835324 36.581046,91.905984 C 35.883756,92.168354 35.250716,92.481844 35.174296,92.602614 C 35.086216,92.741784 35.101786,93.119114 35.216786,93.632964 C 35.386066,94.389364 35.891526,95.37127 37.231896,97.54749 C 38.206346,99.1296 38.295596,100.21728 37.572296,101.69565 C 37.154706,102.54917 35.632826,104.33695 35.323836,104.33695 C 35.220386,104.33695 34.232396,103.07008 33.262816,104.49093 C 32.321026,105.56753 31.496126,107.20904 30.249436,110.48733 C 29.648436,112.0677 28.980956,113.75604 28.766166,114.23918 C 28.309606,115.26609 28.383446,115.44864 29.318396,115.6042 C 30.831416,115.85596 31.913546,116.49477 32.386526,117.41538 C 32.696956,118.0196 32.571426,119.314 32.018066,121.21497 C 31.723376,122.22738 31.447186,123.39181 31.404336,123.80258 C 31.223096,125.5397 32.384346,126.5838 34.790076,126.84679 C 35.504816,126.92493 35.604956,126.97516 35.560796,127.23347 C 35.502256,127.5759 32.874006,138.73832 32.762286,139.11901 C 32.549076,139.84552 29.894796,139.54244 25.916576,138.33732 C 22.730236,137.37211 21.143886,137.21608 19.910616,137.74662 C 18.584236,138.3172 17.671426,139.61745 17.053566,141.81629 C 16.806416,142.69583 16.767146,142.74651 16.297226,142.79249 C 15.615506,142.8592 13.963416,142.55639 13.220266,142.22853 C 12.032166,141.70438 10.926636,140.45605 10.926636,139.63867 C 10.926636,139.44024 13.383286,132.03702 16.385866,123.18708 C 19.388446,114.33716 22.324906,105.66553 22.911336,103.91681 L 23.977576,100.73733 C 23.977576,100.73733 22.663736,99.49201 22.574216,99.31283 C 22.272166,98.70824 22.393036,97.61011 22.883126,96.50639 C 23.138106,95.93215 23.524876,94.958924 23.742616,94.343664 C 24.118526,93.281454 24.179586,93.201324 24.952946,92.755284 C 26.064586,92.114174 26.886066,91.384574 26.886066,91.038384 C 26.886066,90.880194 26.464786,90.233204 25.949896,89.600624 C 22.064826,84.827558 20.578006,79.232058 21.820966,74.061758 C 21.988196,73.366098 22.858926,71.448038 22.858926,71.329978 C 22.858926,71.211918 21.807916,69.646568 20.523346,67.851428 C 14.394816,59.287048 11.798286,54.488138 10.326816,49.006238 C 10.094826,48.141988 9.8920156,47.501998 9.8761356,47.584028 C 9.6444256,48.780888 9.4634556,37.373258 9.6811156,35.290718 C 9.7421156,34.707188 10.733726,29.791308 13.750616,26.031338 C 16.873036,20.771818 17.633206,18.414798 17.439526,14.593348 L 17.344846,12.725288 L 18.722206,11.351458 C 22.451316,7.631908 27.008406,5.709148 33.448826,5.137898 C 36.056876,4.9065683 41.696246,5.035438 46.819276,5.443448 C 48.963856,5.614248 52.454046,5.843058 54.575266,5.951908 C 58.257056,6.140848 58.496336,6.171508 59.849006,6.627578 C 62.250436,7.437258 64.463216,8.734968 68.639716,11.782948 C 71.184306,13.639978 72.770776,14.695668 73.016896,14.695668 C 73.129656,14.695668 73.753536,14.392348 74.403306,14.021628 C 76.446366,12.855968 78.789556,12.085818 81.476276,11.696938 C 83.234556,11.442428 88.075646,11.482328 91.022109,11.775608 C 92.375679,11.910348 94.642749,12.122538 96.060049,12.247158 L 98.636979,12.473728 L 99.863469,13.753308 C 102.84727,16.866228 105.86022,18.593628 108.32392,18.603878 C 110.28316,18.612028 111.84932,17.771598 112.27756,16.482288 C 112.86372,14.717518 113.64398,14.302598 117.0494,13.944708 L 120.40555,13.200898 L 121.56139,13.781058 C 124.95628,15.485058 129.44425,16.201598 134.73614,15.884518 C 137.9164,15.693958 152.14524,13.557748 153.29372,13.426548 C 155.47592,13.177268 191.00655,10.073778 191.06055,10.127738 C 191.07756,10.144758 191.65929,15.063318 191.72619,14.957958 C 191.79173,14.854718 191.84536,15.978388 191.84536,17.455008 C 191.84536,19.001288 191.55794,19.950588 191.49015,20.402648 C 191.37374,21.178948 190.569,22.925408 190.03055,23.570308 C 189.37678,24.353318 189.3143,24.602948 189.31453,26.431708 C 189.31475,28.424008 189.4883,29.556578 190.35584,33.227158 C 190.69041,34.642708 190.99939,35.961758 191.04248,36.158358 C 191.10532,36.445148 190.9688,36.658538 190.35201,37.237618 C 188.77653,38.716768 186.70634,39.380388 182.92229,39.619298 C 181.58058,39.704008 180.39735,39.740528 180.29288,39.700428 C 180.15059,39.645828 180.12197,39.293658 180.17879,38.296808 C 180.30562,36.072418 179.80522,34.106878 178.81362,32.934508 C 178.59035,32.670538 177.98018,32.244108 177.45768,31.986888 C 176.61456,31.571808 176.42006,31.531248 175.72884,31.626318 C 174.16509,31.841388 173.17244,32.536388 172.59067,33.823528 C 172.25031,34.576508 172.23723,34.732918 172.26138,37.759758 L 172.28651,40.911838 L 170.76984,40.900318 C 169.93566,40.893978 168.43729,40.978218 167.44011,41.087518 C 165.4078,41.310278 162.91991,41.237508 162.24294,40.935508 C 161.3224,40.524848 160.50859,39.862498 160.00403,39.113288 C 159.50559,38.373128 159.48354,38.283708 159.48232,36.996118 C 159.47949,33.998658 159.04312,30.945808 158.39474,29.387298 C 157.94525,28.306848 156.95084,26.768548 156.62364,26.647518 C 156.46881,26.590238 154.81723,26.694138 152.9535,26.878408 C 148.50695,27.318048 140.0029,28.018698 133.30714,28.497078 C 129.78557,28.748668 127.87985,28.942208 127.76977,29.059418 C 127.67746,29.157718 127.45985,29.716668 127.28619,30.301528 C 126.47858,33.021448 124.63069,34.301808 120.96797,34.679238 C 118.99083,34.882978 115.65868,34.731158 115.30252,34.421108 C 115.16209,34.298848 114.80285,33.609368 114.50423,32.888918 C 113.85621,31.325508 113.25885,30.668448 112.37811,30.550318 C 112.045,30.505638 111.6174,30.509158 111.42787,30.558148 C 110.74182,30.735448 109.89427,32.762108 108.42148,37.746998 C 107.32835,41.446858 106.80441,42.857238 105.86178,44.637238 C 104.69384,46.842738 103.40788,48.275038 101.47032,49.528438 C 100.89992,49.897428 100.39631,50.259068 100.35117,50.332098 C 100.30604,50.405128 100.50924,51.024828 100.80273,51.709218 C 102.58018,55.853928 103.44743,59.371348 104.25012,65.691198 C 104.32593,66.288178 104.45515,66.690088 104.59508,66.764228 C 104.71813,66.829418 105.4056,67.062038 106.12279,67.281158 C 107.89652,67.823078 110.24114,69.030958 113.61887,71.142918 C 118.77298,74.365568 121.34157,75.517038 124.17435,75.874828 C 125.27695,76.014088 125.9004,76.015338 126.90971,75.880288 C 127.6287,75.784088 128.24269,75.731108 128.27413,75.762548 C 128.30556,75.793988 128.52871,77.084698 128.77,78.630798 C 129.01128,80.176898 129.26674,81.576128 129.33768,81.740198 L 176.30654,108.98889 C 176.30654,108.98889 177.73895,112.82177 176.70695,117.38789 C 176.36349,118.65369 175.29927,120.8328 174.58934,121.72393 C 174.25794,122.13992 173.2973,123.68776 173.08621,123.91336 C 172.51175,124.52736 171.962,124.45616 170.20733,123.54047 C 168.74675,122.77827 168.67367,122.75742 167.4621,122.75742 C 166.43426,122.75742 166.14401,122.81163 165.79627,123.06858 C 165.56467,123.23972 160.92416,129.795 160.29606,130.20655 C 159.94365,130.43745 159.90418,130.42452 159.15573,129.8329 C 158.10723,129.00411 157.05247,128.49183 153.91454,127.28734 C 150.72704,126.06381 149.6949,125.53263 148.65084,124.57842 C 147.48324,123.51128 147.06486,122.54747 146.96255,120.68903 L 146.88012,119.19141 L 145.38858,118.2648 C 143.64447,117.18129 142.39415,115.93752 142.24389,115.13658 C 142.10953,114.42039 142.40527,113.48924 142.92055,113.00604 C 143.53855,112.42655 143.67332,112.06633 143.67332,110.99381 C 143.67332,109.65175 143.5307,109.35289 142.78342,109.129 C 141.94419,108.87756 141.06374,108.04736 140.73624,107.19868 C 140.37053,106.25097 140.4079,104.20659 140.81925,102.65675 C 141.1501,101.41018 141.12401,101.11867 140.66871,100.97416 C 140.50794,100.92314 139.25566,100.12654 137.88584,99.20395 C 136.51605,98.28135 134.32213,96.80327 133.01049,95.91933 C 128.86437,93.125184 126.0384,91.957504 123.31386,91.912764 C 121.71069,91.886434 120.7732,92.098694 119.01209,92.886754 C 117.04638,93.766364 116.57798,93.581554 115.41243,91.466494 C 115.10547,90.909474 114.59313,90.243834 114.27388,89.987284 C 113.95465,89.730734 112.57772,86.820308 111.73142,85.915618 C 110.05534,84.123878 108.41661,83.235748 103.17812,81.280098 C 101.4554,80.636958 99.414279,79.789408 98.642319,79.396658 C 97.870339,79.003898 97.182699,78.682548 97.114239,78.682548 C 97.045759,78.682548 96.569919,79.022848 96.056789,79.438778 C 94.750339,80.497748 93.168669,81.217388 90.017419,82.186608 C 88.521456,82.646728 86.827576,83.216958 86.253236,83.453788 C 83.711636,84.501868 82.183446,86.064548 81.553876,88.259208 C 81.184186,89.547924 81.464926,89.870504 83.917396,90.975024 C 86.373896,92.081344 86.778146,92.463774 87.005326,93.896204 C 87.086326,94.406984 87.028476,94.834764 86.763216,95.68605 C 86.206706,97.47214 86.047906,98.71502 86.154026,100.45399 C 86.308536,102.98596 86.693216,104.47716 88.579359,109.85563 C 89.197869,111.61937 89.883069,113.73363 90.101989,114.55397 L 90.500069,116.0455 L 91.394989,116.49296 C 92.252699,116.92183 92.370539,116.94034 94.228909,116.93814 C 96.072339,116.93597 96.246349,116.90879 97.759599,116.38687 C 98.635029,116.08494 99.757359,115.63292 100.25367,115.38238 C 100.74998,115.13183 101.28771,114.92685 101.44861,114.92685 C 102.09076,114.92685 102.97651,116.38795 104.68386,120.26354 C 105.68041,122.52567 106.69763,124.20728 107.45491,124.84448 C 109.09118,126.22131 110.91639,126.28942 113.31434,125.06309 C 113.94931,124.73837 114.52179,124.47268 114.58655,124.47268 C 114.77213,124.47268 115.8615,126.68436 116.20282,127.75406 C 116.66524,129.20334 116.82567,130.31928 116.82567,132.08654 L 116.82567,133.67947 L 115.95718,134.06922 C 114.90309,134.54228 113.01934,135.05003 110.03919,135.66436 C 105.15855,136.67047 103.09991,137.76047 101.94628,139.9493 C 101.36243,141.05706 101.16455,142.04418 101.16455,143.84886 L 101.16455,145.31192 C 101.16455,145.31192 98.901139,146.61705 98.778089,146.69656 C 98.648689,146.78019 96.938969,146.84212 94.722919,146.84343 C 91.166649,146.84555 90.892609,146.82698 90.907019,146.5847 z M 95.907019,145.05532 C 97.317579,144.55955 97.361689,144.47147 97.152269,142.56896 C 96.764369,139.04473 96.204359,136.30447 95.100069,132.52697 C 93.740209,127.87526 91.946469,123.47587 87.589576,114.10651 C 86.178116,111.07123 84.427556,107.17833 83.699436,105.4556 C 82.120176,101.71912 81.895146,101.25756 81.700006,101.35442 C 81.483586,101.46185 81.579146,102.08176 82.148276,104.26238 C 82.909026,107.17722 84.234596,110.95143 86.557456,116.81643 C 88.948619,122.85386 89.890879,125.38716 90.636489,127.78285 C 91.756049,131.38016 92.664359,135.8579 92.661659,137.7665 L 91.636589,136.03208 C 90.627249,133.53263 89.457889,130.81873 85.724006,122.30996 C 82.450696,114.85075 80.491366,109.71575 79.150706,105.08272 C 78.759026,103.72915 78.375516,102.53779 78.298466,102.43525 C 78.132016,102.21374 77.505096,102.18673 77.376056,102.3955 C 77.179786,102.71307 78.776626,107.56276 82.189746,117.015 C 85.210776,125.38141 86.115206,128.19942 87.206426,132.64603 C 87.659446,134.49204 87.801356,134.86229 88.262346,135.40084 C 89.025659,136.29259 89.415529,137.1922 90.281229,140.05923 C 91.052709,142.6143 91.673799,144.03035 92.266499,144.58553 C 93.148019,145.41129 94.425269,145.57612 95.907019,145.05532 z M 16.412416,139.57448 C 17.184446,138.89929 20.812566,129.45765 24.651406,118.13365 C 25.819416,114.68821 27.376396,110.22479 28.111376,108.21495 C 29.699146,103.87311 29.714886,103.82427 29.590346,103.62277 C 29.375726,103.2755 28.135156,102.40076 27.855346,102.39941 C 27.041456,102.39546 22.600006,110.73969 20.274266,116.64212 C 17.851036,122.79199 16.274496,127.82761 14.396436,135.41638 C 13.240856,140.08588 13.204376,139.8355 15.040336,139.8355 C 15.849706,139.8355 16.187416,139.77125 16.412416,139.57448 z M 31.360096,135.24557 C 32.698916,133.85869 33.332026,132.69828 33.421006,131.46818 C 33.530796,129.9503 32.998616,129.20045 30.097436,126.78519 C 28.199186,125.20489 27.409126,124.17877 27.188296,123.0069 C 26.905716,121.50728 26.787106,121.55694 25.913756,123.54047 C 23.769176,128.41116 22.788206,131.42407 22.612656,133.67926 C 22.527336,134.77544 22.545816,134.91711 22.786196,135.00937 C 23.048336,135.10996 29.573446,136.35379 30.017706,136.38786 C 30.140446,136.39727 30.744526,135.88324 31.360096,135.24557 z M 105.50666,135.22765 C 106.03071,134.99031 107.55323,134.51051 108.89002,134.16144 C 112.89862,133.11468 114.26709,132.21397 114.4067,130.53049 C 114.47707,129.68195 114.14261,128.36325 113.78088,128.06305 C 113.63953,127.94572 113.4083,127.96444 112.93481,128.13149 C 108.32198,129.75898 104.67746,126.99363 102.13852,119.93961 C 101.53694,118.26822 101.39398,118.16756 99.747589,118.25607 C 98.343759,118.33154 97.366429,118.72836 96.691689,119.49683 C 96.069789,120.20513 96.044839,120.82024 96.607799,121.56419 C 97.548109,122.80677 98.208589,124.601 98.941309,127.90321 C 99.808649,131.81214 100.39668,133.27496 101.55198,134.39779 C 102.22464,135.05155 103.44475,135.63708 104.16428,135.65142 C 104.37852,135.6557 104.9826,135.465 105.50666,135.22765 z M 159.78713,127.15846 C 160.53935,126.94948 161.31226,126.07455 161.96203,124.69641 C 163.17667,122.12019 165.33003,120.93277 169.71082,120.42354 C 171.29606,120.23927 171.801,120.0619 171.59954,119.76007 C 171.45996,119.55094 144.2432,104.96935 143.87466,104.90624 C 143.27002,104.8027 143.67256,105.41773 145.50525,107.39756 L 147.41176,109.45715 L 146.49132,110.36487 C 144.45762,112.3705 144.13023,113.81268 145.39169,115.20895 C 145.67167,115.51887 146.86765,116.41936 148.04941,117.21002 C 151.24647,119.34905 151.80256,120.10537 151.76288,122.2606 L 151.73908,123.55363 L 152.40327,123.77995 C 152.76858,123.90442 153.99434,124.6098 155.12718,125.34745 C 157.02279,126.58177 157.87859,127.03153 158.66326,127.20576 C 159.15388,127.3147 159.23736,127.31119 159.78713,127.15846 z M 174.09668,116.89298 C 174.09451,116.75501 173.67501,116.34229 173.16448,115.97584 C 159.92489,106.47249 147.63272,98.97923 133.08341,91.542544 C 127.53767,88.707908 125.04132,87.559898 124.84659,87.754638 C 124.73145,87.869758 124.84378,88.055538 125.24125,88.407428 C 126.95979,89.928904 134.72482,95.24244 140.16821,98.62181 C 144.43273,101.26931 147.6591,103.1625 158.81241,109.56197 C 164.06262,112.5744 169.36503,115.64551 170.59554,116.38666 C 171.82606,117.12782 172.92316,117.74019 173.03355,117.74749 C 173.14394,117.7548 173.75079,117.52821 174.09668,116.89298 z M 173.73358,112.53099 C 173.8497,112.34312 173.18454,111.70722 170.67012,109.60228 C 163.84758,103.89081 154.85094,98.11167 144.22754,92.616464 C 138.40123,89.602654 128.76677,85.030798 127.85967,84.849378 C 127.2752,84.732478 127.37437,85.042878 128.06469,85.491078 C 129.32355,86.308398 173.67968,112.61819 173.73358,112.53099 z M 35.385836,99.11288 C 35.302716,98.95756 34.930426,98.69589 34.558556,98.53139 C 34.141716,98.347 33.241546,97.6137 32.211376,96.61932 C 31.292286,95.73217 30.271856,94.874014 29.943716,94.712294 C 29.146616,94.319434 27.039276,94.300514 26.338246,94.679914 C 25.442336,95.16479 24.927186,97.47203 25.477326,98.53587 C 25.809136,99.17751 26.906936,99.81468 28.136856,100.07945 C 28.720446,100.20509 30.433636,100.40858 31.943946,100.53166 C 33.454236,100.65474 34.723906,100.78941 34.765436,100.83093 C 34.930906,100.9964 35.829846,100.17409 35.385836,99.11288 z M 75.878956,99.47456 C 80.283056,98.71258 82.437676,97.67868 83.765616,95.69015 C 84.378046,94.773064 83.700696,94.405034 81.639156,94.534794 C 80.144036,94.628904 79.537446,94.827504 76.157756,96.32942 C 74.776136,96.94342 73.361586,97.52195 73.014346,97.61505 C 72.015406,97.88288 71.835566,98.5765 72.534636,99.46523 C 72.924386,99.96071 73.066806,99.96111 75.878956,99.47456 z M 76.814736,93.197554 C 77.528166,92.859014 79.238976,91.246804 79.238976,90.913034 C 79.238976,90.567314 78.386666,90.167334 77.650306,90.167484 C 76.841836,90.167654 75.471666,90.867444 74.242326,91.908074 C 72.751996,93.169634 72.807696,93.590744 74.482986,93.727424 C 74.615346,93.738224 76.519486,93.337654 76.814736,93.197554 z M 119.34136,89.422794 C 121.23358,88.199788 122.95014,86.077878 124.22579,83.384968 C 124.97374,81.806038 125.62573,79.468138 125.62573,78.365118 C 125.62573,77.664738 125.61028,77.638478 125.1983,77.638478 C 124.96323,77.638478 124.2916,77.878248 123.70582,78.171318 C 120.80135,79.624358 118.45543,83.503338 117.8626,87.833078 C 117.66629,89.266838 117.7657,90.018214 118.1517,90.018214 C 118.29933,90.018214 118.83467,89.750274 119.34136,89.422794 z M 35.611556,89.205368 C 39.398966,88.308878 42.137486,86.007858 45.002176,81.314968 C 45.510416,80.482398 46.543036,78.648238 47.296916,77.239068 L 48.667586,74.676938 L 49.055706,72.093268 C 49.768796,67.346298 49.582696,64.311498 48.429806,61.886468 C 47.582426,60.104048 45.720596,57.994488 44.385596,57.304128 C 43.151806,56.666108 39.699376,56.427738 37.656116,56.839498 C 35.710826,57.231518 33.881206,58.243348 34.465096,58.604218 C 34.531846,58.645468 36.347516,58.467378 38.499926,58.208448 C 41.321356,57.869038 42.484076,57.781058 42.666726,57.893168 C 43.188856,58.213628 45.218996,61.002208 45.944686,62.395738 C 47.042176,64.503258 47.390356,65.750138 47.389706,67.570608 C 47.389286,68.732378 47.314036,69.281298 47.049346,70.053358 C 46.651596,71.213558 46.638716,71.219928 44.683416,71.222838 C 39.442936,71.230628 34.062016,69.134438 26.510756,64.143478 C 24.540286,62.841108 23.714616,62.191628 22.818636,61.239188 C 19.895066,58.131408 17.603456,53.413248 16.547366,48.327318 C 15.851806,44.977578 15.773676,44.078578 15.782826,39.529738 C 15.790286,35.820938 15.837846,34.921238 16.116476,33.218878 C 16.501406,30.867178 17.060366,28.527548 17.655256,26.778268 C 18.161946,25.288328 18.176146,25.136418 17.808696,25.136418 C 17.192656,25.136418 15.362016,27.130388 14.385286,28.865258 C 12.606646,32.024478 11.852386,35.591448 11.716736,41.485188 L 11.633956,45.081318 L 12.261336,47.600478 C 14.280446,55.708018 17.040416,61.336258 20.919926,65.257438 C 22.639516,66.995518 23.653256,67.756378 26.618976,69.534938 C 30.999436,72.161908 35.280196,73.556268 40.556126,74.074658 C 42.033326,74.219798 45.520716,74.190958 46.296256,74.027188 C 46.449756,73.994768 46.498886,74.193828 46.496216,74.837208 C 46.493126,75.582038 46.434416,75.752268 46.033296,76.179588 C 45.780646,76.448748 45.115526,77.340168 44.555266,78.160508 C 41.543596,82.570188 39.484146,84.501288 36.960126,85.282278 C 35.334946,85.785148 32.762626,85.669208 31.566086,85.039148 C 30.954796,84.717268 27.718746,80.553928 26.973076,79.130008 C 26.173366,75.923038 26.467606,75.003428 26.214876,72.940138 L 24.275886,72.940138 L 24.236216,77.087148 C 24.197336,81.151548 24.203806,81.255048 24.561256,82.282858 C 25.046646,83.678608 25.718536,84.767118 26.857516,86.002918 C 29.317596,88.672148 32.675136,89.900414 35.611556,89.205368 z M 65.823066,88.302958 C 65.944516,86.766358 66.266636,86.381128 68.499916,85.101748 C 69.115176,84.749288 69.870266,84.221058 70.177886,83.927918 C 70.739076,83.393138 70.915886,82.858848 70.531666,82.858848 C 70.418616,82.858848 64.901586,86.430268 63.876156,87.030728 C 61.738036,88.282758 61.510386,88.457878 61.732336,88.679848 C 61.895646,88.843138 64.929606,89.406714 65.442266,89.368984 C 65.701406,89.349904 65.751406,89.209948 65.823066,88.302958 z M 73.385246,88.687928 C 75.192286,88.097298 76.767956,87.319578 77.586726,86.614168 C 78.758056,85.604988 78.088936,85.419438 75.905016,86.147808 C 73.365316,86.994818 70.737216,88.483868 70.737216,89.075828 C 70.737216,89.399914 71.588406,89.275228 73.385246,88.687928 z M 63.344536,84.272028 C 65.004796,83.839588 68.356816,81.781458 68.539666,81.082238 C 68.699046,80.472758 68.358706,79.374698 67.843566,78.836358 C 67.566366,78.546678 67.234956,78.101598 67.107136,77.847298 C 66.756666,77.150118 65.557996,76.039788 64.707086,75.624148 C 62.618316,74.603838 59.887726,74.843558 57.564986,76.251158 C 56.577146,76.849788 55.271276,78.094568 55.066756,78.632518 C 55.885996,82.555848 57.661386,82.944918 57.661386,83.121448 C 58.606166,84.313068 60.959556,84.893238 63.344536,84.272028 z M 116.17957,83.865638 C 116.6473,83.368958 118.13477,78.971958 117.93019,79.141748 C 117.59924,79.416408 115.30528,84.033858 115.41309,84.208318 C 115.55635,84.440118 115.69837,84.376618 116.17957,83.865638 z M 111.61338,83.183108 C 113.12831,82.220148 114.48002,80.261538 115.16776,78.032928 C 115.66372,76.425738 115.66295,76.423418 113.98038,74.462448 C 111.11124,71.118618 108.77193,69.725998 105.61298,69.481228 L 104.46817,69.392528 L 104.03244,70.345988 C 103.79281,70.870388 103.14319,71.960988 102.58886,72.769538 C 101.41314,74.484468 100.90468,75.526508 100.77228,76.492498 C 100.66301,77.289798 100.92483,78.405208 101.30125,78.745848 C 101.82567,79.220458 103.28092,78.430888 103.97997,77.292448 C 104.14016,77.031568 104.4527,76.247618 104.67449,75.550328 C 105.13967,74.087838 105.73423,72.904998 106.10347,72.707388 C 106.44476,72.524728 107.76665,72.953318 108.25343,73.404458 C 108.92816,74.029758 108.72079,74.635998 107.06023,76.892708 C 105.73013,78.700338 105.38554,79.320078 105.25434,80.140518 C 105.1152,81.010648 105.36084,81.367308 106.09927,81.367308 C 107.29609,81.367308 107.97349,80.740658 108.9988,78.684948 C 109.82989,77.018658 110.2683,76.409278 110.93036,76.000098 C 111.71082,75.517748 112.02497,75.598748 112.36628,76.370318 C 112.78382,77.314258 112.64078,77.831378 111.51075,79.463098 C 109.47438,81.763118 110.32762,83.431228 110.36384,83.492748 C 110.49369,83.713388 110.96155,83.597448 111.61338,83.183108 z M 37.810686,81.824538 C 39.682416,81.345828 41.217266,80.448068 41.813606,79.483168 C 42.229776,78.809788 42.107936,78.533398 41.394876,78.533398 C 40.630746,78.533398 38.801706,78.011948 35.760706,76.927118 C 31.407566,75.374218 30.256596,75.101008 29.340896,75.403218 C 28.061776,75.825368 28.284356,77.170168 30.079746,79.867058 C 31.121936,81.432538 31.340456,81.592328 32.926786,81.948978 C 34.045006,82.200388 36.595186,82.135408 37.810686,81.824538 z M 53.435406,81.547488 C 53.435406,81.400488 52.915226,80.511158 52.279466,79.571208 C 50.855626,77.466148 50.664846,77.402848 50.275566,78.906278 C 49.848376,80.556158 49.864936,80.589768 51.421826,81.233908 C 52.957566,81.869298 53.435406,81.943718 53.435406,81.547488 z M 88.542306,79.737508 C 93.706109,77.989518 95.273179,77.324778 97.081699,76.115168 C 98.470159,75.186508 100.30631,73.404688 101.08741,72.227958 L 101.65916,71.366618 L 101.40989,69.971128 C 101.12859,68.396188 100.9394,66.055408 100.71564,61.380738 C 100.54514,57.818918 100.3323,56.375758 99.676379,54.334248 C 98.734029,51.401178 97.317149,49.201838 95.460289,47.789878 C 94.783029,47.274888 93.630979,46.400728 92.900199,45.847308 C 90.429189,43.976008 88.747079,43.294718 86.622076,43.304528 C 85.002836,43.311998 83.956576,43.585778 83.893446,44.018538 C 83.823836,44.495698 85.055046,45.580458 86.899826,46.667278 C 91.906049,49.616628 92.971859,50.442368 93.648699,51.895958 C 94.041139,52.738738 94.137569,54.288028 93.833499,54.865068 C 93.739089,55.044258 93.111509,55.771038 92.438899,56.480148 C 90.077129,58.970038 88.154966,61.799578 85.360886,66.899418 C 82.978966,71.246998 81.632186,73.472668 80.287336,75.283948 C 78.986226,77.036328 78.862016,77.109138 77.233826,77.073698 C 75.998176,77.046798 74.915296,76.473708 72.871426,74.764958 C 71.953376,73.997428 70.966386,73.242438 70.678126,73.087198 C 69.703496,72.562328 66.973636,67.577248 66.187016,64.885838 C 65.500186,62.535848 65.531606,59.786098 66.268596,57.748398 C 66.421296,57.326168 66.744586,56.431468 66.987006,55.760178 C 67.592476,54.083498 68.080566,53.425518 70.507236,51.014558 C 73.105376,48.433248 73.492936,47.800398 73.495066,46.135498 C 73.497486,44.263738 73.447306,44.258478 70.873636,45.860518 C 68.180366,47.536998 66.906786,48.580508 66.192086,49.696358 C 62.643816,55.236218 61.714906,57.654678 61.532356,61.828198 C 61.411506,64.590808 61.903876,67.556568 62.928556,70.238098 C 63.466296,71.645358 64.816866,73.611808 66.150776,74.929678 C 69.305356,78.046328 72.880866,79.491928 80.805086,80.854488 C 82.363736,81.122498 83.658946,81.347528 83.683326,81.354548 C 83.707716,81.361568 85.894266,80.633898 88.542306,79.737508 z M 86.904686,74.893918 C 87.295726,70.578568 89.607579,66.366958 93.091159,63.623658 C 94.250039,62.711058 96.314169,61.380738 96.571279,61.380738 C 96.790039,61.380738 96.693339,62.053708 96.166049,64.201168 C 95.014769,68.889868 93.361875,72.114131 90.883405,74.077191 C 90.732247,74.147224 89.679268,75.243626 86.800456,76.044138 L 86.904686,74.893918 z M 91.837459,71.054448 C 93.280219,69.339818 94.036539,65.737328 92.986009,65.583638 C 92.582639,65.524628 91.596989,66.278638 90.999749,67.103108 C 90.532169,67.748578 89.454739,70.961268 89.588739,71.310468 C 90.662069,71.993462 91.476729,71.483148 91.837459,71.054448 z M 57.017996,73.343598 C 58.045036,73.013168 59.136346,72.695728 59.443126,72.638178 C 60.113536,72.512408 60.221896,72.239618 60.221896,70.677558 C 60.111594,69.530503 59.382846,68.838418 59.241236,68.838418 C 58.650396,68.838418 54.538606,69.916338 53.804266,70.263738 C 52.521066,70.870788 51.645566,72.077248 51.645566,73.238458 C 51.645566,73.955138 51.968646,74.073238 53.733706,74.001758 C 54.876496,73.955478 55.511976,73.828128 57.017996,73.343598 z M 78.144166,73.813738 C 78.428186,73.678968 79.642236,72.306608 80.019526,71.974498 C 82.059036,70.179258 81.713246,67.866118 79.018676,65.279218 C 78.323336,64.611678 77.662316,64.065498 77.549736,64.065498 C 77.170016,64.065498 72.118456,67.183058 71.708246,67.670558 C 71.131386,68.356128 71.49645,70.696767 72.806296,71.983908 C 74.067609,73.624883 76.017256,73.920538 76.181326,73.957318 C 76.841316,74.105258 77.655336,74.045708 78.144166,73.813738 z M 54.535606,68.089418 C 56.306136,67.817228 57.284466,67.219788 57.618846,66.206538 C 57.857026,65.484868 57.706606,65.356348 56.740516,65.456058 C 55.644626,65.569168 53.989476,66.398228 53.154176,67.252448 C 52.409536,68.013958 52.386156,68.476648 53.099676,68.330898 C 53.325346,68.284808 53.971506,68.176138 54.535606,68.089418 z M 70.983186,64.816488 C 71.819506,64.446958 72.619716,63.614388 73.736546,61.951798 C 74.250616,61.186528 74.995876,60.216548 75.392686,59.796298 C 76.201966,58.939188 77.086386,57.109618 78.265566,53.853228 C 81.251436,45.607548 81.470096,37.633888 78.928386,29.683458 C 77.956566,26.643568 76.156136,22.600808 75.774166,22.600808 C 75.524466,22.600808 74.018596,24.110278 74.018596,24.360578 C 74.018596,24.472698 74.385486,25.481778 74.833926,26.602978 C 75.814616,29.054948 76.592376,32.011448 76.913896,34.509488 C 77.185526,36.620048 77.223476,40.437218 76.993856,42.555978 C 76.611926,46.080088 75.349816,50.869978 73.859746,54.450238 C 72.698956,57.239338 70.635886,61.109038 69.075036,63.424858 C 68.310266,64.559568 68.182426,65.039168 68.611776,65.162958 C 69.054646,65.290658 70.332626,65.103938 70.983186,64.816488 z M 45.006096,64.309228 C 45.457076,63.979468 45.058756,63.261568 44.057046,62.598698 C 43.400616,62.164328 43.173456,61.907588 42.977876,61.379028 L 42.730126,60.709548 L 39.916606,60.709548 C 37.191686,60.709548 37.082086,60.721298 36.436406,61.082848 C 35.539526,61.585048 35.095186,62.382348 35.091956,63.495238 C 35.089996,64.177468 35.140216,64.355178 35.350536,64.410138 C 35.494096,64.447658 37.662636,64.486138 40.169506,64.495658 C 43.807856,64.509468 44.783696,64.471858 45.006096,64.309228 z M 83.415276,63.719608 C 83.415276,63.293858 83.231886,63.045108 82.105196,61.942578 C 81.112696,60.971378 80.664536,60.636108 80.256486,60.559558 C 79.714606,60.457898 79.089816,60.660408 79.089816,60.937698 C 79.089816,61.176358 82.477706,64.928376 83.415276,63.719608 z M 56.400456,62.700768 C 57.159966,62.314588 57.501566,62.028968 57.879956,61.463698 C 58.483966,60.561378 58.470886,60.057538 57.835436,59.748078 C 57.589336,59.628228 57.140046,59.528578 56.837046,59.526628 C 56.111846,59.521978 55.640446,59.970488 54.966706,61.306158 C 54.677036,61.880398 53.928316,63.123458 53.978906,63.205318 C 54.144596,63.473408 55.392076,63.213488 56.400456,62.700768 z M 86.585586,59.683908 C 87.539246,59.396908 88.549016,58.628408 89.319819,57.603028 C 90.076849,56.595958 91.469569,53.895438 91.469569,53.434608 C 91.469569,52.479798 90.194259,50.986508 88.831979,50.346158 C 87.913546,49.914438 84.462616,48.682608 84.086466,48.652208 C 83.849426,48.633058 83.614096,48.965088 82.940726,50.268798 C 81.744096,52.585588 81.287146,54.011818 81.268176,55.489168 C 81.255166,56.502488 81.313576,56.806088 81.655636,57.502738 C 82.612496,59.451638 84.533436,60.301518 86.585586,59.683908 z M 52.889026,57.987488 C 53.971636,57.269688 55.829496,56.091848 57.017606,55.370078 C 61.070336,52.908038 63.702826,50.636198 65.069376,48.421388 C 65.438536,47.823088 66.003486,47.020778 66.324826,46.638458 C 67.749076,44.943958 68.202066,42.911988 67.681836,40.551478 C 67.539906,39.907488 66.967256,38.138878 66.409306,36.621248 C 65.252406,33.474528 64.973316,32.487568 64.760576,30.791058 C 64.566126,29.240188 64.765856,27.764378 65.388866,26.148868 L 65.860116,24.926878 L 65.427456,24.125658 C 64.748496,22.868288 63.359556,21.215448 62.216936,20.305098 C 60.263546,18.748778 58.239906,17.805228 55.140396,17.005558 C 53.332536,16.539128 47.539006,15.441438 46.885116,15.441438 C 46.489646,15.441438 45.602906,16.516748 45.058146,17.656898 C 44.638236,18.535728 44.421726,19.320478 43.389766,23.703858 C 42.509766,27.441668 40.921046,29.366368 37.764896,30.518218 C 34.274326,31.792118 30.717226,31.932108 25.207046,31.012428 C 23.193926,30.676418 22.804406,30.647548 22.640246,30.822148 C 22.452436,31.021898 21.895166,33.733188 21.448336,36.621248 C 20.305396,44.008518 21.143646,49.876158 23.973336,54.295938 C 24.646426,55.347258 26.264266,57.329608 26.592566,57.505308 C 26.803466,57.618188 27.298026,57.480978 28.704146,56.919488 C 29.714046,56.516208 32.352546,55.610328 34.567476,54.906418 C 36.782406,54.202508 38.963776,53.483848 39.414966,53.309408 C 42.531416,52.104478 47.657746,54.470428 50.063816,58.224138 C 50.440486,58.811788 50.787366,59.292588 50.834656,59.292588 C 50.881936,59.292588 51.806406,58.705288 52.889026,57.987488 z M 100.75988,45.774778 C 101.99524,45.152398 102.33621,44.855438 103.28542,43.575228 C 106.64165,39.048708 108.0464,32.140788 106.82767,26.156318 C 106.43862,24.245968 105.9323,23.021698 104.83519,21.338588 C 101.39765,16.064928 94.802029,13.156228 86.791796,13.381378 C 84.610436,13.442688 83.733386,13.619958 83.941936,13.957388 C 83.992196,14.038718 85.224516,14.099058 86.835466,14.099058 L 89.641449,14.099058 L 90.810339,14.862118 C 92.926679,16.243678 94.451579,18.041578 95.345379,20.209058 C 96.446079,22.878298 96.760729,25.985198 96.576999,32.370368 C 96.384429,39.062638 96.604849,41.752228 97.591549,44.750108 C 98.064099,46.185868 98.519589,47.061988 98.793499,47.061988 C 98.886409,47.061988 100.16678,46.817506 100.75988,45.774778 z M 100.42752,32.678008 C 99.788069,31.688458 99.130989,30.610358 98.967349,30.282218 C 97.805949,27.953268 97.971989,26.211208 99.496889,24.726248 C 100.32563,23.919218 100.67215,23.915938 101.38806,24.708348 C 102.58776,26.036288 103.04018,27.816008 102.915,30.715078 C 102.83662,32.530588 102.39699,35.577168 102.21338,35.577168 C 102.15912,35.577168 101.06699,33.667558 100.42752,32.678008 z M 95.088139,43.242828 C 95.629609,43.118938 95.677429,42.883998 95.700959,40.231658 C 95.724709,37.558288 95.592739,37.191678 94.052399,35.651748 C 92.157629,33.757478 92.036539,32.320148 93.447549,28.472428 C 94.601419,25.325928 94.802669,24.414178 94.717119,22.720958 C 94.630189,21.001018 94.232559,19.902908 93.335299,18.904938 C 90.940939,16.241828 84.959386,15.772848 80.706136,17.914748 C 79.625066,18.459158 78.272676,19.585118 78.119266,20.068498 C 78.056316,20.266848 78.365166,20.669558 79.279806,21.581658 C 81.650456,23.945708 82.313686,25.831518 83.336476,33.116128 C 83.798026,36.403478 84.183516,38.012328 84.841286,39.396588 C 85.869626,41.560718 87.451706,42.792438 89.903459,43.337708 C 90.527079,43.476398 94.375079,43.405988 95.088139,43.242828 z M 72.367076,40.255388 C 72.899046,39.579098 72.777456,39.109018 71.798356,38.056548 C 71.315526,37.537558 70.880926,36.985518 70.832556,36.829788 C 70.175146,34.713278 69.937876,30.032178 70.359786,27.503068 C 71.140546,22.823008 73.295876,19.228798 76.479626,17.297618 C 77.143556,16.894898 77.451296,16.609678 77.367736,16.474488 C 77.131666,16.092518 74.781216,17.522478 73.384156,18.897998 C 71.455376,20.797038 69.860316,23.267808 69.116086,25.509298 C 67.317786,30.925448 67.940556,35.927458 70.903466,39.865328 C 71.568596,40.749348 71.907496,40.839658 72.367076,40.255388 z M 167.86906,38.377808 C 169.59873,37.579828 170.54322,36.173298 171.80182,32.521128 C 172.35066,30.613228 172.89949,30.793788 173.44833,29.930108 C 174.04045,29.689938 174.74546,29.549888 175.62364,29.497968 C 176.81534,29.427518 176.99073,29.454338 177.74201,29.821908 C 178.77193,30.325798 179.59578,31.237828 180.80217,33.209578 C 182.09676,35.325488 182.63807,35.947158 183.59243,36.414088 C 184.27774,36.749388 184.53696,36.798708 185.26621,36.732578 C 186.93315,36.581428 187.88183,35.791768 188.35181,34.164208 C 188.70798,32.930768 188.56388,30.461208 187.93385,27.000838 L 187.44503,24.316078 C 187.44503,24.316078 182.66554,24.620338 180.21595,24.989308 C 174.06973,25.915108 166.11137,26.164078 165.90716,24.630428 C 165.97074,24.567948 172.02851,23.303158 176.41253,22.437028 C 181.22748,21.485758 184.47261,21.030808 189.73412,20.569438 C 190.28483,20.521148 190.70581,20.409058 190.74785,20.299518 C 190.84989,20.033608 189.81877,17.830958 189.58382,17.812968 C 188.96932,17.765908 186.4507,17.871858 183.64648,18.062728 C 177.82075,18.459268 173.90693,18.865178 160.75141,20.437218 C 144.2059,22.414348 138.70965,22.950918 130.88532,23.352918 L 127.71773,23.515658 C 127.71773,23.515658 124.03047,24.708398 126.13123,27.227948 C 126.84668,27.978178 126.87344,27.990938 127.54819,27.903648 C 129.31184,27.675478 157.44372,24.688958 157.82937,24.688958 C 158.15933,24.688958 158.39976,24.843918 158.80574,25.318198 C 160.20509,26.953028 160.69642,28.433528 161.35376,32.996038 C 161.85865,36.500388 162.22452,38.186848 162.51943,38.369108 C 162.97582,38.651178 164.33045,38.845298 165.5989,38.810408 C 166.76213,38.778408 167.16864,38.700938 167.86906,38.377808 z M 74.242326,34.966278 C 74.242326,32.546875 72.496406,30.821628 72.343496,31.280348 C 72.282466,31.463438 72.775306,35.498348 72.901276,35.846828 L 74.242326,35.950048 L 74.242326,34.966278 z M 120.91606,32.747558 C 122.75953,31.781608 123.2107,30.467578 123.76132,28.954658 L 123.75156,26.784518 C 123.74254,24.774988 123.69445,24.410168 123.10185,21.855038 C 122.74986,20.337408 122.24456,16.442628 122.17038,16.299068 C 122.04921,16.064488 121.75092,16.038048 119.22514,16.038048 C 117.13799,16.038048 116.37435,16.086708 116.25783,16.227118 C 116.17153,16.331098 115.87005,19.166888 115.58788,22.528858 C 115.12499,28.044088 115.09494,28.719268 115.28038,29.436908 C 115.65358,30.881118 116.70493,32.043618 118.14858,32.608298 C 119.00492,32.854628 120.31685,32.975378 120.91606,32.747558 z M 29.567746,28.524598 C 29.776706,28.418858 30.149686,27.927668 30.425376,27.395118 C 31.019336,26.247718 31.058026,25.364918 30.614446,23.080268 C 30.450626,22.236508 30.316596,21.026838 30.316596,20.392108 C 30.316596,19.326178 30.273916,19.165918 29.757556,18.293068 C 29.450076,17.773308 28.719686,16.893228 28.134456,16.337308 C 24.688336,13.063828 20.279956,12.738298 18.778426,15.646438 C 18.385526,16.407418 18.537476,16.485508 20.411046,16.485508 L 22.107566,16.485508 L 23.175936,17.492298 C 25.831686,19.994948 27.061626,22.992128 26.837176,26.414228 C 26.788406,27.158048 26.679936,28.339518 26.813566,28.473138 C 27.113886,28.773468 29.006016,28.808818 29.567746,28.524598 z M 112.85361,27.952908 C 113.18849,27.474798 113.02837,25.744518 112.81431,26.196268 L 110.48665,25.977468 C 110.48665,25.977468 110.43303,28.551278 110.66745,28.612198 C 112.02688,28.696078 112.71983,28.143888 112.85361,27.952908 z M 35.443216,25.870618 C 36.085296,25.365568 36.194136,25.004498 36.278116,23.100798 C 36.342646,21.638598 36.410096,21.231428 36.627636,20.991048 C 37.049786,20.524588 37.611876,20.485858 38.021056,20.895038 C 38.330306,21.204288 38.370896,21.384598 38.370896,22.449558 C 38.370896,23.369998 38.422446,23.674028 38.589406,23.738098 C 38.714576,23.786128 39.311366,23.467148 39.986536,22.991338 C 41.132156,22.183998 41.167476,22.140768 41.247036,21.448558 C 41.292066,21.056868 41.267546,20.190138 41.192566,19.522508 C 40.754246,15.619978 38.681496,12.740938 34.120016,9.698768 C 31.099126,7.684058 30.872526,7.680498 31.264236,9.653878 C 31.399436,10.334978 31.510006,10.976148 31.509936,11.078688 C 31.509856,11.220218 30.923816,11.265138 29.077296,11.265138 C 27.261816,11.265138 26.574396,11.316588 26.367376,11.467978 C 26.102716,11.661498 26.109326,11.687198 26.510996,12.027298 C 28.048816,13.329388 28.636606,13.879708 29.309666,14.647548 C 31.516016,17.164618 32.907296,20.404078 33.894466,25.322858 C 34.062176,26.158538 34.079166,26.180498 34.557936,26.180498 C 34.829546,26.180498 35.225456,26.041918 35.443216,25.870618 z M 112.20191,21.482158 C 112.20191,20.114768 112.1393,20.065198 110.41207,20.065198 C 108.68484,20.065198 108.62223,20.114768 108.62223,21.482158 C 108.62223,22.849548 108.68484,22.899118 110.41207,22.899118 C 112.37011,23.296918 112.20191,21.944138 112.20191,21.482158 z M 163.80906,17.012098 C 165.65662,16.779658 180.3489,15.808028 182.53654,15.366678 C 185.34201,14.800678 188.96984,13.441808 188.82782,13.010158 C 188.73456,12.726708 187.55077,12.718568 183.87021,12.976088 C 173.94886,13.670248 162.57823,14.820888 147.63891,16.642508 C 139.73708,17.606008 126.1842,19.317418 125.74233,19.407528 C 125.42581,19.472068 125.31639,19.599498 125.24341,19.988468 C 125.08664,20.824178 125.26083,21.109278 125.92829,21.109278 C 126.24772,21.109278 162.86566,17.130778 163.80906,17.012098 z M 65.815146,20.241978 C 65.815146,19.559378 65.787456,19.510518 65.255826,19.254818 C 64.396684,18.555336 63.554146,18.611028 63.476196,18.814148 C 63.365646,19.102228 65.160906,20.960118 65.549816,20.960118 C 65.767416,20.960118 65.815146,20.830928 65.815146,20.241978 z M 70.013866,17.599788 C 69.819836,16.513878 66.844516,13.310218 64.706196,11.884758 C 60.315526,8.957838 53.690446,7.240448 46.782556,7.238498 C 45.072606,7.238018 44.956356,7.257318 44.582546,7.603748 C 44.292786,7.872298 44.187886,8.116188 44.187886,8.521368 C 44.187886,8.989508 44.308876,9.194228 44.985526,9.870868 L 45.783166,10.668518 L 48.475806,10.668518 C 54.480956,10.668518 58.821956,12.043798 67.008376,16.539818 C 68.443986,17.328258 70.044626,17.771898 70.013866,17.599788 z M 42.845506,13.337528 C 42.845506,12.282528 42.800386,12.074928 42.491256,11.707568 C 42.296436,11.476028 41.787476,10.638158 41.360246,9.845638 C 40.415266,8.092708 39.755666,7.335818 38.882416,7.002318 C 37.812496,6.593708 35.881546,6.966908 35.929426,7.573058 C 35.957166,7.924478 42.268606,14.531388 42.584486,14.539668 C 42.812166,14.545638 42.845506,14.392118 42.845506,13.337528 z"
       id="path3537"
       sodipodi:nodetypes="cccccccccccccccccccccccccccccccccccccccccccccccccccccccccccccccccccccccccccccccccccccccccccccccccccccccccccccccccccccccccccccccccccccccccccccccccccccccccccccccccccccccccccccccccccccccccccccccccccccccccccccccccccccccccccccccccccccccccccccccccccccccccccccccccccccccccccccccccccccccccccccccccccccccccccccccccccccccccccccccccccccccccccccccccccccccccccccccccccccccccccccccccccccccccccccccccccccccccccccccccccccccccccccccccccccccccccccccccccccccccccccccccccccccccccccccccccccccccccccccccccccccccccccccccccccccccccccccccccccccccccccccccccccccccccccccccccccccccccccccccccccccccccccccccccccccccccccccccccccccccccccccccccccccccccccccccccccccccccccccccccccccccccccccccccccccccccccccccccccccccccccccccccccccccccccccc"
       style="fill:#030303" />
  </g>
</svg>
