<?xml version="1.0" encoding="UTF-8" standalone="no"?>
<!-- Created with Inkscape (http://www.inkscape.org/) -->

<svg
   xmlns:dc="http://purl.org/dc/elements/1.1/"
   xmlns:cc="http://creativecommons.org/ns#"
   xmlns:rdf="http://www.w3.org/1999/02/22-rdf-syntax-ns#"
   xmlns:svg="http://www.w3.org/2000/svg"
   xmlns="http://www.w3.org/2000/svg"
   xmlns:xlink="http://www.w3.org/1999/xlink"
   xmlns:sodipodi="http://sodipodi.sourceforge.net/DTD/sodipodi-0.dtd"
   xmlns:inkscape="http://www.inkscape.org/namespaces/inkscape"
   width="50"
   height="32"
   id="svg2"
   version="1.1"
   inkscape:version="0.47 r22583"
   sodipodi:docname="PortButton.svg"
   inkscape:export-filename="/Users/mherring/boatsw/oseam/josm/plugins/smed/plugs/oseam/src/images/ChanSelected_de.png"
   inkscape:export-xdpi="90"
   inkscape:export-ydpi="90"
   style="display:inline">
  <defs
     id="defs4">
    <linearGradient
       id="linearGradient3638"
       inkscape:collect="always">
      <stop
         id="stop3640"
         offset="0"
         style="stop-color:#80a4c4;stop-opacity:1" />
      <stop
         style="stop-color:#ffffff;stop-opacity:1"
         offset="0.1803427"
         id="stop3642" />
      <stop
         id="stop3646"
         offset="0.49928904"
         style="stop-color:#ffffff;stop-opacity:1" />
      <stop
         id="stop3644"
         offset="1"
         style="stop-color:#80a4c4;stop-opacity:1" />
    </linearGradient>
    <linearGradient
       inkscape:collect="always"
       id="linearGradient3606">
      <stop
         style="stop-color:#80a4c4;stop-opacity:1"
         offset="0"
         id="stop3608" />
      <stop
         id="stop3614"
         offset="0.31745982"
         style="stop-color:#ffffff;stop-opacity:1" />
      <stop
         style="stop-color:#80a4c4;stop-opacity:1"
         offset="1"
         id="stop3610" />
    </linearGradient>
    <inkscape:perspective
       sodipodi:type="inkscape:persp3d"
       inkscape:vp_x="0 : 526.18109 : 1"
       inkscape:vp_y="0 : 1000 : 0"
       inkscape:vp_z="744.09448 : 526.18109 : 1"
       inkscape:persp3d-origin="372.04724 : 350.78739 : 1"
       id="perspective10" />
    <linearGradient
       inkscape:collect="always"
       xlink:href="#linearGradient3606"
       id="linearGradient3612"
       x1="50.002548"
       y1="1012.4216"
       x2="50.002548"
       y2="1052.3596"
       gradientUnits="userSpaceOnUse"
       gradientTransform="matrix(0.49262,0,0,0.78641747,0.36774549,224.47224)" />
    <linearGradient
       inkscape:collect="always"
       xlink:href="#linearGradient3638"
       id="linearGradient3636"
       gradientUnits="userSpaceOnUse"
       x1="50.002548"
       y1="1012.4216"
       x2="50.002548"
       y2="1052.3596" />
    <inkscape:perspective
       sodipodi:type="inkscape:persp3d"
       inkscape:vp_x="0 : 160 : 1"
       inkscape:vp_y="0 : 1000 : 0"
       inkscape:vp_z="320 : 160 : 1"
       inkscape:persp3d-origin="160 : 106.66667 : 1"
       id="perspective3947" />
    <inkscape:perspective
       sodipodi:type="inkscape:persp3d"
       inkscape:vp_x="0 : 160 : 1"
       inkscape:vp_y="0 : 1000 : 0"
       inkscape:vp_z="320 : 160 : 1"
       inkscape:persp3d-origin="160 : 106.66667 : 1"
       id="perspective3882" />
    <inkscape:perspective
       sodipodi:type="inkscape:persp3d"
       inkscape:vp_x="0 : 160 : 1"
       inkscape:vp_y="0 : 1000 : 0"
       inkscape:vp_z="320 : 160 : 1"
       inkscape:persp3d-origin="160 : 106.66667 : 1"
       id="perspective3792" />
    <inkscape:perspective
       sodipodi:type="inkscape:persp3d"
       inkscape:vp_x="0 : 160 : 1"
       inkscape:vp_y="0 : 1000 : 0"
       inkscape:vp_z="320 : 160 : 1"
       inkscape:persp3d-origin="160 : 106.66667 : 1"
       id="perspective3736" />
    <inkscape:perspective
       sodipodi:type="inkscape:persp3d"
       inkscape:vp_x="0 : 160 : 1"
       inkscape:vp_y="0 : 1000 : 0"
       inkscape:vp_z="320 : 160 : 1"
       inkscape:persp3d-origin="160 : 106.66667 : 1"
       id="perspective3530" />
    <inkscape:perspective
       sodipodi:type="inkscape:persp3d"
       inkscape:vp_x="0 : 160 : 1"
       inkscape:vp_y="0 : 1000 : 0"
       inkscape:vp_z="320 : 160 : 1"
       inkscape:persp3d-origin="160 : 106.66667 : 1"
       id="perspective3440" />
    <inkscape:perspective
       sodipodi:type="inkscape:persp3d"
       inkscape:vp_x="0 : 160 : 1"
       inkscape:vp_y="0 : 1000 : 0"
       inkscape:vp_z="320 : 160 : 1"
       inkscape:persp3d-origin="160 : 106.66667 : 1"
       id="perspective3172" />
    <inkscape:perspective
       sodipodi:type="inkscape:persp3d"
       inkscape:vp_x="0 : 200 : 1"
       inkscape:vp_y="0 : 1000 : 0"
       inkscape:vp_z="400 : 200 : 1"
       inkscape:persp3d-origin="200 : 133.33333 : 1"
       id="perspective3739" />
    <inkscape:perspective
       sodipodi:type="inkscape:persp3d"
       inkscape:vp_x="0 : 200 : 1"
       inkscape:vp_y="0 : 1000 : 0"
       inkscape:vp_z="400 : 200 : 1"
       inkscape:persp3d-origin="200 : 133.33333 : 1"
       id="perspective3689" />
    <inkscape:perspective
       sodipodi:type="inkscape:persp3d"
       inkscape:vp_x="0 : 200 : 1"
       inkscape:vp_y="0 : 1000 : 0"
       inkscape:vp_z="400 : 200 : 1"
       inkscape:persp3d-origin="200 : 133.33333 : 1"
       id="perspective3639" />
    <inkscape:perspective
       sodipodi:type="inkscape:persp3d"
       inkscape:vp_x="0 : 200 : 1"
       inkscape:vp_y="0 : 1000 : 0"
       inkscape:vp_z="400 : 200 : 1"
       inkscape:persp3d-origin="200 : 133.33333 : 1"
       id="perspective3401" />
    <inkscape:perspective
       sodipodi:type="inkscape:persp3d"
       inkscape:vp_x="0 : 200 : 1"
       inkscape:vp_y="0 : 1000 : 0"
       inkscape:vp_z="400 : 200 : 1"
       inkscape:persp3d-origin="200 : 133.33333 : 1"
       id="perspective3274" />
    <inkscape:perspective
       sodipodi:type="inkscape:persp3d"
       inkscape:vp_x="0 : 160 : 1"
       inkscape:vp_y="0 : 1000 : 0"
       inkscape:vp_z="320 : 160 : 1"
       inkscape:persp3d-origin="160 : 106.66667 : 1"
       id="perspective3203" />
    <inkscape:perspective
       sodipodi:type="inkscape:persp3d"
       inkscape:vp_x="0 : 160 : 1"
       inkscape:vp_y="0 : 1000 : 0"
       inkscape:vp_z="320 : 160 : 1"
       inkscape:persp3d-origin="160 : 106.66667 : 1"
       id="perspective3123" />
    <inkscape:perspective
       sodipodi:type="inkscape:persp3d"
       inkscape:vp_x="0 : 160 : 1"
       inkscape:vp_y="0 : 1000 : 0"
       inkscape:vp_z="320 : 160 : 1"
       inkscape:persp3d-origin="160 : 106.66667 : 1"
       id="perspective3073" />
    <inkscape:perspective
       sodipodi:type="inkscape:persp3d"
       inkscape:vp_x="0 : 160 : 1"
       inkscape:vp_y="0 : 1000 : 0"
       inkscape:vp_z="320 : 160 : 1"
       inkscape:persp3d-origin="160 : 106.66667 : 1"
       id="perspective2989" />
    <inkscape:perspective
       sodipodi:type="inkscape:persp3d"
       inkscape:vp_x="0 : 160 : 1"
       inkscape:vp_y="0 : 1000 : 0"
       inkscape:vp_z="320 : 160 : 1"
       inkscape:persp3d-origin="160 : 106.66667 : 1"
       id="perspective2933" />
    <inkscape:perspective
       sodipodi:type="inkscape:persp3d"
       inkscape:vp_x="0 : 160 : 1"
       inkscape:vp_y="0 : 1000 : 0"
       inkscape:vp_z="320 : 160 : 1"
       inkscape:persp3d-origin="160 : 106.66667 : 1"
       id="perspective2862" />
    <inkscape:perspective
       id="perspective2915"
       inkscape:persp3d-origin="160 : 106.66667 : 1"
       inkscape:vp_z="320 : 160 : 1"
       inkscape:vp_y="0 : 1000 : 0"
       inkscape:vp_x="0 : 160 : 1"
       sodipodi:type="inkscape:persp3d" />
  </defs>
  <sodipodi:namedview
     id="base"
     pagecolor="#ffffff"
     bordercolor="#666666"
     borderopacity="1.0"
     inkscape:pageopacity="0.0"
     inkscape:pageshadow="2"
     inkscape:zoom="16.8"
     inkscape:cx="23.304761"
     inkscape:cy="9.8235431"
     inkscape:document-units="px"
     inkscape:current-layer="layer1"
     showgrid="true"
     inkscape:showpageshadow="false"
     inkscape:snap-grids="false"
     inkscape:window-width="1920"
     inkscape:window-height="1088"
     inkscape:window-x="1440"
     inkscape:window-y="0"
     inkscape:window-maximized="0">
    <inkscape:grid
       type="xygrid"
       id="grid2816"
       empspacing="5"
       visible="true"
       enabled="true"
       snapvisiblegridlinesonly="true" />
  </sodipodi:namedview>
  <metadata
     id="metadata7">
    <rdf:RDF>
      <cc:Work
         rdf:about="">
        <dc:format>image/svg+xml</dc:format>
        <dc:type
           rdf:resource="http://purl.org/dc/dcmitype/StillImage" />
        <dc:title />
      </cc:Work>
    </rdf:RDF>
  </metadata>
  <g
     inkscape:label="Graphics"
     inkscape:groupmode="layer"
     id="layer1"
     transform="translate(0,-1020.3622)"
     style="display:inline">
    <rect
       y="1020.8536"
       x="0.49136364"
       height="31.017273"
       width="49.017273"
       id="rect3618"
       style="fill:url(#linearGradient3612);fill-opacity:1;stroke:#000000;stroke-width:0.98272729;stroke-linejoin:round;stroke-miterlimit:4;stroke-opacity:1;stroke-dasharray:none;display:inline"
       rx="4.9327693"
       ry="4.8945775" />
    <g
       id="g4583"
       inkscape:label="Can Buoy"
       style="display:inline"
       transform="matrix(0.4,0,0,0.4,-35.302345,987.57742)">
      <path
         style="fill:#000407;fill-opacity:1;fill-rule:evenodd;stroke:none"
         id="path4585"
         d="m 159.42774,100.24471 -28.0625,-8.843749 -15.21875,45.749999 -7.96875,0 0,5.65625 29.6875,0 c 1.28732,5.53295 6.23327,9.65624 12.15625,9.65625 5.92495,0 10.87095,-4.12052 12.15625,-9.65625 l 29.84375,0 0,-0.0625 0,-5.59375 -7.6875,0 9,-26.1875 -29.9375,-9.4375 -3.96875,-1.28125 z m -23.03125,-0.21875 47.15625,15.96875 -7.21875,21.15625 -14.15625,0 c -1.2853,-5.53573 -6.2313,-9.65625 -12.15625,-9.65625 -5.92298,1e-5 -10.86893,4.1233 -12.15625,9.65625 l -13.71875,0 12.25,-37.125 z m 13.625,32.4375 c 4.14,0 7.5,3.36 7.5,7.5 0,4.14 -3.36,7.5 -7.5,7.5 -4.14,0 -7.5,-3.36 -7.5,-7.5 0,-4.14 3.36,-7.5 7.5,-7.5 z"
         sodipodi:nodetypes="ccccccsccccccccccccsccccsssc" />
      <path
         style="fill:none;stroke:none"
         d="m 124.32232,136.85297 c 0.0705,-0.25633 12.07363,-36.64911 12.10443,-36.69999 0.0376,-0.062 46.76232,15.7838 46.87864,15.89804 0.0674,0.0662 -1.32108,4.31971 -3.4386,10.53421 l -3.55161,10.42324 -7.02801,0.0321 -7.028,0.0321 -0.33601,-1.02728 c -1.3281,-4.06036 -4.55016,-7.05123 -8.89652,-8.25817 -0.63411,-0.17609 -1.27824,-0.22542 -2.98547,-0.22867 -1.91208,-0.004 -2.30554,0.0315 -3.23427,0.28884 -4.16097,1.15294 -7.41617,4.26055 -8.71659,8.32137 l -0.28881,0.90186 -6.76954,0 c -6.38706,0 -6.76615,-0.0123 -6.70964,-0.21769 z"
         id="path4587" />
    </g>
    <path
       style="fill:none;stroke:none;display:inline"
       d="m 14.422078,1042.3289 c 0.01915,-0.05 1.109749,-3.3512 2.423555,-7.3363 1.313807,-3.9851 2.409845,-7.2683 2.43564,-7.296 0.0258,-0.028 3.940293,1.2686 8.698884,2.8808 4.758592,1.6121 8.977121,3.041 9.37451,3.1754 l 0.722524,0.2442 -1.43681,4.2111 -1.436811,4.211 -2.80025,3e-4 -2.80025,2e-4 -0.104614,-0.3422 c -0.398763,-1.3047 -1.319165,-2.375 -2.57709,-2.9971 -0.822194,-0.4065 -1.529033,-0.5546 -2.432081,-0.5094 -1.307369,0.065 -2.25776,0.4652 -3.198313,1.3452 -0.676155,0.6326 -1.085705,1.2687 -1.356487,2.1069 l -0.128143,0.3966 -2.70954,0 c -2.403176,0 -2.705603,-0.01 -2.674724,-0.091 z"
       id="path4589" />
    <path
       style="fill:#d40000;fill-opacity:1;stroke:none;display:inline"
       d="m 14.422078,1042.3289 c 0.01915,-0.05 1.109749,-3.3512 2.423555,-7.3363 1.313807,-3.9851 2.409845,-7.2683 2.43564,-7.296 0.0258,-0.028 3.940293,1.2686 8.698884,2.8808 4.758592,1.6121 8.977121,3.041 9.37451,3.1754 l 0.722524,0.2442 -1.43681,4.2111 -1.436811,4.211 -2.80025,3e-4 -2.80025,2e-4 -0.104614,-0.3422 c -0.398763,-1.3047 -1.319165,-2.375 -2.57709,-2.9971 -0.822194,-0.4065 -1.529033,-0.5546 -2.432081,-0.5094 -1.307369,0.065 -2.25776,0.4652 -3.198313,1.3452 -0.676155,0.6326 -1.085705,1.2687 -1.356487,2.1069 l -0.128143,0.3966 -2.70954,0 c -2.403176,0 -2.705603,-0.01 -2.674724,-0.091 z"
       id="path4591" />
  </g>
</svg>
