<svg height="16" width="16" xmlns="http://www.w3.org/2000/svg" xmlns:xlink="http://www.w3.org/1999/xlink"><radialGradient id="a" cx="62.200352" cy="-8.725631" gradientTransform="matrix(.374118 0 0 .37412633 -15.28062 41.861349)" gradientUnits="userSpaceOnUse" r="9.755283"><stop offset="0" stop-color="#8fb1dc"/><stop offset="1" stop-color="#3465a4"/></radialGradient><radialGradient id="b" cx="62.625" cy="4.625" gradientTransform="matrix(.33333333 0 0 .11372533 -12.979334 42.373816)" gradientUnits="userSpaceOnUse" r="10.625"><stop offset="0"/><stop offset="1" stop-opacity="0"/></radialGradient><linearGradient id="c"><stop offset="0" stop-color="#fff"/><stop offset="1" stop-color="#fff" stop-opacity="0"/></linearGradient><linearGradient id="d" gradientUnits="userSpaceOnUse" x1="-26.753757" x2="-24.75" xlink:href="#c" y1="11.566258" y2="9.687501"/><linearGradient id="e" gradientTransform="matrix(.30935673 0 0 .3061907 19.268027 32.441924)" gradientUnits="userSpaceOnUse" x1="-18.588562" x2="-31.958551" y1="11.052948" y2="16.898407"><stop offset="0" stop-opacity=".77521"/><stop offset="1" stop-color="#030303" stop-opacity="0"/></linearGradient><radialGradient id="f" cx="-26.305403" cy="10.108011" gradientTransform="matrix(.13662735 -.09327557 .25190774 .36441522 11.641501 29.187412)" gradientUnits="userSpaceOnUse" r="7.042104"><stop offset="0" stop-color="#fff"/><stop offset=".47533694" stop-color="#fff"/><stop offset="1" stop-color="#fff" stop-opacity="0"/></radialGradient><radialGradient id="g" cx="4" cy="5.3" gradientTransform="matrix(1.8860258 0 0 1.1764706 -3.544103 -4.235294)" gradientUnits="userSpaceOnUse" r="17" xlink:href="#c"/><linearGradient id="h" gradientTransform="matrix(.37050867 0 0 .36820617 21.352226 31.163051)" gradientUnits="userSpaceOnUse" x1="-47.5" x2="-62.75" y1="49.020683" y2="-22.502075"><stop offset="0" stop-color="#888a85"/><stop offset="1" stop-color="#babdb6"/></linearGradient><radialGradient id="i" cx="-30.249996" cy="35.357208" gradientTransform="matrix(1.4804598 0 0 .71249244 54.928245 19.687016)" gradientUnits="userSpaceOnUse" r="18.000002"><stop offset="0" stop-color="#f6f6f5"/><stop offset="1" stop-color="#d3d7cf"/></radialGradient><g transform="translate(0 -32)"><path d="m-.036085 32.000027h16.1v15.999949h-16.1z" opacity="0"/><path d="m2.2798708 32.451773h7.0308245c1.4364817.02685 2.4083067.920517 3.3345767 1.841031.926272.920517 1.707188 1.934048 1.852546 3.313855v9.196371c0 .41284-.334435.745197-.749855.745197h-11.4680922c-.4154215 0-.7498575-.332357-.7498575-.745197v-13.60606c0-.41284.334436-.745197.7498575-.745197z" fill="url(#i)" stroke="url(#h)" stroke-width=".92302"/><path d="m8.53125 3.9863281c-.8581697 0-1.5449219.6867521-1.5449219 1.5449219v36.9375c0 .85817.6867521 1.544922 1.5449219 1.544922h30.9375c.858169 0 1.544922-.686754 1.544922-1.544922v-24.96875c0-1.39197-.500651-4.299479-2.357422-6.15625l-5-5c-1.856771-1.8567708-4.76428-2.3574219-6.15625-2.3574219z" fill="url(#g)" opacity=".680162" transform="matrix(.33541666 0 0 .33333225 -.036085 32.000026)"/><path d="m9.1878733 33.333355c-.465857 0-.014121.165695.450716.374998.4648277.209304 1.6679867 1.071681 1.3940757 2.29166 1.450111-.143528 2.240292 1.04079 2.347917 1.427078.107625.38629.335417.869211.335417.406249.0095-1.268523-.954405-2.143893-1.624674-2.885407-.670271-.741514-1.677909-1.455658-2.9034517-1.614578z" fill="url(#f)"/><path d="m9.5571268 33.671472c.3093547 0 1.0090812 2.065214.6997262 3.443071 1.440601-.142585 2.969572.02939 3.123729.312548-.107625-.386288-.897806-1.570606-2.347917-1.427078.290021-1.291742-1.0688288-2.205759-1.4755382-2.328541z" fill="url(#e)" opacity=".878542"/><path d="m-51.46875 4.4941406c-.583166 0-1.037109.4539436-1.037109 1.0371094v36.9375c0 .583165.453945 1.037109 1.037109 1.037109h30.9375c.583165 0 1.037109-.453945 1.037109-1.037109v-24.96875c0-1.279029-.501953-4.089844-2.208984-5.796875l-5-5c-1.707031-1.7070313-4.517846-2.2089844-5.796875-2.2089844z" fill="none" stroke="url(#d)" stroke-width="2.799" transform="matrix(.33531422 0 0 .33583172 20.085226 31.961788)"/><ellipse cx="7.895667" cy="42.899796" fill="url(#b)" fill-rule="evenodd" opacity=".45" rx="3.541667" ry="1.208333"/><path d="m11.07475 40.335056c0 1.703945-1.3813454 3.085275-3.0850554 3.085275-1.703866 0-3.085134-1.381346-3.085134-3.085275 0-1.703866 1.381268-3.085055 3.085134-3.085055 1.70371 0 3.0850554 1.381189 3.0850554 3.085055z" fill="url(#a)" stroke="#204a87" stroke-width=".333333"/><path d="m10.75347 40.335068c0 1.526403-1.2374174 2.763807-2.7636104 2.763807-1.526333 0-2.763683-1.237418-2.763683-2.763807 0-1.526334 1.23735-2.763611 2.763683-2.763611 1.526193 0 2.7636104 1.237277 2.7636104 2.763611z" fill="none" opacity=".357143" stroke="#fff" stroke-width=".333333"/><path d="m6.8314806 42.988813.785132-1.636708-2.17842-1.281495 2.858765-2.390657-1.139394-.02909-1.92803 1.867847.0207.818299z" fill="#9db029"/><path d="m9.2224376 42.66033-.317787-1.768372-.852293-.237948.200165-1.807192.833762-.880492 1.5560734 1.228815z" fill="#9db029"/><g fill="none" stroke="#f00" stroke-linecap="round" stroke-linejoin="round"><path d="m11.65 38.8 2.1 1.7-2.1 1.7"/><path d="m4.3 38.8-2.1 1.7 2.1 1.7"/></g></g></svg>